<?xml version="1.0" standalone="no"?>
<!DOCTYPE svg PUBLIC "-//W3C//DTD SVG 20010904//EN"
 "http://www.w3.org/TR/2001/REC-SVG-20010904/DTD/svg10.dtd">
<svg version="1.0" xmlns="http://www.w3.org/2000/svg"
 width="16.000000pt" height="16.000000pt" viewBox="0 0 16.000000 16.000000"
 preserveAspectRatio="xMidYMid meet">
<metadata>
Created by potrace 1.11, written by Peter Selinger 2001-2013
</metadata>
<g transform="translate(0.000000,16.000000) scale(0.003970,-0.003970)"
fill="#000000" stroke="none">
<path d="M1845 3897 l-60 -121 -135 -27 c-254 -51 -458 -134 -669 -272 l-100
-66 -113 29 c-143 36 -458 81 -458 65 0 -3 23 -33 50 -67 65 -81 122 -178 159
-270 24 -59 28 -76 18 -90 -165 -230 -241 -369 -303 -545 -18 -51 -20 -53 -63
-59 l-44 -7 35 -18 36 -19 -14 -52 c-52 -195 -71 -456 -51 -687 7 -73 5 -85
-10 -97 -17 -13 -17 -13 2 -14 17 0 24 -18 52 -134 49 -200 130 -392 244 -572
21 -33 39 -69 39 -78 0 -9 -27 -95 -59 -192 -46 -136 -56 -174 -43 -169 39 15
222 63 283 74 l66 13 100 -84 c280 -233 617 -379 988 -425 76 -10 361 -10 440
0 216 26 428 89 616 182 l86 43 32 -19 c17 -10 34 -19 37 -19 3 0 4 17 1 38
-4 38 -4 39 76 93 44 30 85 59 91 64 6 6 27 23 46 39 229 188 431 460 545 737
94 227 135 431 140 689 3 189 -11 335 -45 460 -14 49 -14 49 25 66 42 17 40
26 -14 44 -35 11 -43 20 -57 59 -109 301 -249 526 -461 740 l-114 114 21 100
c11 55 20 101 20 102 0 1 -38 -10 -85 -26 -141 -46 -135 -46 -217 4 -249 151
-591 253 -873 261 l-50 1 -70 118 c-38 64 -72 117 -75 116 -3 0 -32 -55 -65
-122z m395 -261 c79 -8 237 -44 333 -76 122 -41 292 -122 275 -130 -21 -11
-162 -31 -241 -34 -188 -8 -296 41 -409 184 -51 66 -54 72 -26 66 12 -3 43 -7
68 -10z m-560 -22 c0 -15 -73 -104 -132 -160 -91 -88 -159 -118 -273 -123 -65
-2 -195 15 -208 28 -26 26 364 207 508 237 11 3 36 8 55 13 46 12 50 12 50 5z
m1729 -652 c32 -43 75 -103 95 -135 40 -62 130 -238 141 -276 l7 -24 -38 23
c-262 158 -368 311 -389 555 l-6 70 65 -68 c37 -38 93 -103 125 -145z m-2831
-131 c-6 -75 -39 -154 -86 -207 -35 -37 -101 -88 -107 -82 -12 11 176 358 194
358 2 0 1 -31 -1 -69z m-158 -559 c36 -33 81 -86 100 -118 30 -51 35 -67 35
-124 0 -113 -72 -220 -211 -311 -66 -44 -74 -46 -75 -21 0 9 -2 26 -5 37 -6
31 -7 276 0 315 3 19 8 55 11 80 9 78 32 196 42 213 7 11 33 -7 103 -71z
m3304 29 c5 -7 22 -100 41 -221 6 -41 7 -324 1 -360 -3 -14 -7 -47 -11 -73
-21 -172 -76 -347 -161 -522 -96 -195 -181 -313 -339 -470 -60 -60 -119 -117
-130 -125 -11 -8 -43 -32 -72 -54 -28 -21 -55 -38 -59 -38 -4 1 -10 14 -12 29
-2 16 -7 55 -11 87 -12 88 -6 171 16 208 30 53 98 81 191 80 42 -1 92 -6 111
-12 19 -5 36 -9 37 -7 1 1 -5 31 -12 67 -23 102 -21 217 4 267 35 67 133 103
265 96 l58 -2 -34 47 c-178 242 -289 496 -273 626 15 127 108 237 292 341 83
48 90 50 98 36z m-3342 -829 c73 -55 122 -128 139 -210 11 -55 6 -179 -10
-238 l-8 -29 -24 45 c-43 83 -85 174 -112 245 -24 65 -67 210 -67 227 0 17 21
6 82 -40z m633 -987 c42 -25 91 -67 115 -99 13 -18 13 -19 0 -11 -39 22 -191
129 -196 137 -9 15 34 0 81 -27z m1673 -144 c45 -13 82 -27 82 -31 0 -20 -320
-128 -434 -146 -21 -3 -48 -7 -60 -10 -11 -2 -55 -6 -96 -10 -41 -3 -91 -7
-111 -9 -64 -6 -64 7 0 73 69 70 128 107 221 140 57 20 80 22 190 19 90 -3
148 -10 208 -26z m-1003 -95 c68 -19 133 -49 175 -81 l35 -27 -65 7 c-101 10
-205 32 -325 67 -95 28 -106 33 -80 39 54 12 209 9 260 -5z"/>
</g>
</svg>
