<?xml version="1.0" encoding="utf-8"?>
<!-- Generator: Adobe Illustrator 16.0.0, SVG Export Plug-In . SVG Version: 6.00 Build 0)  -->
<!DOCTYPE svg PUBLIC "-//W3C//DTD SVG 1.1//EN" "http://www.w3.org/Graphics/SVG/1.1/DTD/svg11.dtd">
<svg version="1.1" id="Layer_1" xmlns="http://www.w3.org/2000/svg" xmlns:xlink="http://www.w3.org/1999/xlink" x="0px" y="0px"
	 viewBox="0 0 435.878 518.215">
<path fill="none" stroke="#000000" stroke-width="13.4393" stroke-miterlimit="10" d="M215.943,31.896
	c-100.659,0-182.55,81.891-182.55,182.552C33.393,315.106,115.284,397,215.943,397c100.656,0,182.549-81.895,182.549-182.552
	C398.492,113.788,316.599,31.896,215.943,31.896L215.943,31.896z"/>
<path fill="#FFFFFF" d="M405.998,163.34c-20.885-8.075-44.305-19.027-57.475-36.051c-9.23-11.916-11.975-24.896-12.77-39.41
	c-0.545-10.159,6.174-37.966,6.174-37.966c-14.986,4.994-55.695,18.098-80.826,14.436c-14.705-2.139-24.17-13.305-32.514-24.785
	c-8.656-11.893-15.553-24.863-23.283-37.338c0,0-21.648,52.559-47.034,65.249c-16.117,8.062-37.743,1.702-53.76-3.315
	C70.018,53.34,45.814,53.71,45.814,53.71s29.422,28.95,27.048,67.441c-0.785,12.712-9.018,22.723-17.941,28.537
	c-10.193,6.63-26.196,7.481-26.196,7.481s14.973,8.053,23.248,14.538c9.624,7.515,22.828,21.469,18.046,35.568
	c-5.233,15.377-14.616,21.268-25.155,27.921c-8.479,5.341-18.982,9.765-18.982,9.765s30.372,3.796,39.386,26.094
	c5.816,14.379,0.058,33.385-2.854,47.855c-2.678,13.293-13.148,40.946-13.148,40.946s34.606-11.312,51.968-9.755
	c13.528,1.197,22.787,8.531,30.482,19.531c3.247,4.625,5.207,11.041,5.656,17.1c10.168-9.843,31.449-11.387,44.64-8.454
	c9.466,2.117,22.3,7.616,27.773,19.655c6.634-13.695,19.274-25.344,33.88-29.791c22.039-6.708,52.758,2.463,71.217,15.391
	c0,0-1.031-13.162-1.961-19.714c-1.287-9.147-2.934-18.422-2.787-27.753c0.314-19.285,22.332-19.385,36.285-15.041
	c-2.039-9.562-5.186-23.002-1.354-32.387c4.566-11.234,23.908-11.883,32.451-10.46c-12.342-16.138-26.17-37.059-30.049-58.46
	C340.964,183.779,399.253,167.046,405.998,163.34z"/>
<path d="M66.443,347.155c14-5.343,31.281-9.427,46.107-5.609c14.772,3.795,26.342,17.539,30.79,31.752
	c19.43-6.576,52.423-12.928,67.944,5.966c11.124-11.229,25.907-21.916,41.809-24.64c25.244-4.322,50.766,8.961,50.766,8.961
	s-2.854-16.17-3.627-24.021c-0.941-9.477,0.512-20.877,7.449-28c7.389-7.596,17.377-7.415,27.604-6.811
	c-1.904-11.39-1.424-23.262,7.594-30.854c4.939-4.155,15.656-5.219,15.656-5.219c-17.293-16.452-33.91-41.27-25.154-70.231
	c8.771-28.951,46.98-35.591,46.98-35.591s-14.168-7.179-25.141-14.705c-11.49-7.885-22.768-21.917-25.982-35.368
	c-6.293-26.33,0.301-49.636,0.301-49.636s-17.984,7.168-40.283,10.965c-10.403,1.769-33.934,4.849-44.139,0
	c-18.666-8.87-31.702-31.617-38.905-49.826c-13.383,23.787-26.844,48.672-54.575,55.056c-21.559,4.951-38.617-1.601-58.371-8.545
	c-17.561-6.17-25.152-5.219-25.152-5.219s15.658,27.999,16.138,56.926c0.313,18.748-13.329,32.5-29.756,38.75
	c18.7,8.669,35.021,27.696,30.662,49.468c-3.482,17.348-20.269,28.357-36.643,31.907c7.288-0.01,14.983,1.86,21.199,5.69
	c11.894,7.335,14.459,20.394,13.572,33.453C81.775,304.027,74.483,326.448,66.443,347.155z M348.523,127.289
	c13.17,17.023,36.59,27.976,57.475,36.051c-6.744,3.707-65.033,20.439-58.529,56.378c3.879,21.402,17.707,42.322,30.049,58.46
	c-8.543-1.424-27.885-0.773-32.451,10.46c-3.832,9.385-0.688,22.825,1.354,32.387c-13.953-4.344-35.971-4.245-36.285,15.041
	c-0.146,9.332,1.5,18.604,2.787,27.753c0.93,6.551,1.961,19.713,1.961,19.713c-18.459-12.927-49.178-22.097-71.217-15.39
	c-14.606,4.448-27.248,16.096-33.88,29.792c-5.474-12.04-18.308-17.539-27.773-19.656c-13.19-2.934-34.472-1.391-44.64,8.454
	c-0.449-6.06-2.409-12.474-5.656-17.101c-7.695-10.998-16.954-18.332-30.482-19.53c-17.361-1.558-51.968,9.755-51.968,9.755
	s10.471-27.654,13.148-40.945c2.911-14.472,8.67-33.478,2.854-47.857c-9.014-22.297-39.386-26.093-39.386-26.093
	s10.503-4.424,18.982-9.765c10.539-6.654,19.922-12.544,25.155-27.921c4.782-14.1-8.422-28.054-18.046-35.568
	c-8.275-6.485-23.248-14.538-23.248-14.538s16.003-0.851,26.196-7.481c8.924-5.813,17.156-15.824,17.941-28.537
	c2.374-38.49-27.048-67.44-27.048-67.44s24.204-0.37,58.696,10.449c16.017,5.017,37.643,11.378,53.76,3.315
	c25.386-12.69,47.034-65.249,47.034-65.249c7.73,12.476,14.627,25.445,23.283,37.338c8.344,11.48,17.809,22.646,32.514,24.785
	c25.131,3.662,65.84-9.442,80.826-14.436c0,0-6.719,27.807-6.174,37.966C336.548,102.393,339.292,115.374,348.523,127.289z"/>
<path d="M281.193,115.362c17.93-9.508,39.107,0.123,36.107,21.995c-2.23-7.996-8.805-14.167-17.137-15.241
	c-7.539-0.986-33.656,3.516-33.093,15.432c0.289,6.294,15.218,7.615,19.935,9.094c7.748,2.43,23.09,6.619,23.572,16.855
	c0,0-3.73,8.21-14.179,8.21c3.485-6.238-6.719-16.8-24.347-20.384c-7.323-1.5-14.381-2.373-21.84-1.68
	c-3.451,0.314-11.688,1.243-11.489,6.753c0.178,5.095,20.764,12.678,21.793,13.059c-0.873-0.111-15.13-2.173-28.214-11.983
	c-7.736-5.79-13.66-11.727-23.592-14.134c-13.419-3.259-22.489-0.202-28.751,7.134c-5.354,6.282-7.963,15.679-7.445,23.687
	c0.47,7.269,4.031,16.004,10.853,19.811c9.003,5.029,15.219-4.826,23.529-2.339c9.53,2.832,20.593,6.462,27.516-3.472
	c1.655-2.375,1.803-4.2,4.938-4.693c4.178-0.672,9.127,2.722,11.567,5.824c4.392,5.577,7.449,6.842,14.539,3.741
	c8.389-3.686,15.613-4.738,24.961-4.156c-14.131,1.905-27.754,17.404-24.324,32.176c3.158,13.618,19.679,20.607,31.425,24.941
	c-0.257-0.011-0.503-0.034-0.748-0.055c-9.117-2.454-22.009-5.119-22.009-5.119s-1.5,0-4.043-0.011
	c-7.479-2.823-19.135-6.966-26.11-13.003c-10.19-8.802-13.49-20.36-27.184-23.876c-10.293-2.654-21.092-1.378-31.517-0.561
	c-6.921,0.539-20.158,2.934-24.741-3.987c-5.81-8.825,3.8-16.653,3.621-24.918c-0.15-6.955-9.054-6.294-13.979-5.745
	c5.318-3.327,14.01-15.825,5.599-21.089c-4.354-2.721-8.208-0.257-12.509,1.053c-13.095,3.998-25.982,10.594-39.39,3.617
	c4.861-0.38,33.854-8.668,22.029-20.349c-5.375-5.309-19.229-6.529-22.768-6.529c18.444-9.542,39.119,2.195,57.242,9.229
	c5.094,1.971,16.002,7.592,21.487,4.356c4.024-2.363,3.496-7.615,1.489-11.065c-5.542-9.542-18.321-14.257-19.662-26.374
	c-1.009-9.026,4.444-17.807,14.1-17.214c-7.335,9.229-4.491,23.934,13.204,34.383c7.795,4.591,11.893,1.635,12.385-7.302
	c1.244-22.601,7.268-31.56,7.268-31.56s-2.014,23.373-0.749,34.875c0.561,5.073,1.266,12.711,5.97,15.892
	c8.254,5.577,14.01-6.585,19.42-10.45c-1.5,10.214,4.256,15.903,14.895,12.298C262.107,128.667,270.764,120.905,281.193,115.362z"/>
<path d="M296.771,245.937c-9.619-0.639-18.109-2.129-26.051-5.13c-10.293-0.045-37.742-0.269-52.917-1.5
	c-20.853-1.692-48.728-2.722-64.943-18.322c-9.713-9.33-13.629-27.36-28.188-29.119c7.466,7.47,12.26,17.931,15.677,28.928
	c1.726,5.522,2.892,13.54,1.679,20.35c-0.56,3.169-3.728,8.959,0.036,10.84c4.691,2.364,19.14-14.479,17.603,2.24
	c-0.591,6.528-3.582,12.802-4.188,19.476c-0.393,4.291-0.628,8.668-0.068,12.947c2.383,18.078,20.975,20.562,36.334,20.859
	c-1.252-0.34-2.444-0.715-3.553-1.127c-4.899-1.819-11.712-5.692-13.766-9.986c0,0,5.599-17.73,24.359-20.836
	c-7.593,7.594-6.644,18.982-6.644,18.982s7.332-17.123,31.149-19.285c14.795-1.342,26.84,9.582,31.766,14.895
	c5.734-3.007,10.302-5.884,12.966-8.127c12.22-10.281,22.776-21.469,32.854-34.908C299.662,246.731,298.271,246.338,296.771,245.937
	z"/>
<path display="none" d="M223.292,274.252c-23.817,2.162-31.149,19.287-31.149,19.287s-0.949-11.39,6.644-18.983
	c-18.761,3.104-24.359,20.836-24.359,20.836c2.054,4.294,8.866,8.167,13.766,9.985c1.109,0.412,2.301,0.787,3.553,1.129
	c1.483,0.029,2.938,0.037,4.342,0.037c18.869,0,43.315-9.188,58.97-17.396C250.132,283.834,238.087,272.911,223.292,274.252z"/>
<path d="M274.764,240.817c0,0,12.891,2.665,22.008,5.119c-9.619-0.639-18.108-2.129-26.051-5.13
	C273.264,240.817,274.764,240.817,274.764,240.817z"/>
<path d="M260.564,169.466c0,0-0.01,0-0.047-0.011C260.555,169.466,260.564,169.466,260.564,169.466z"/>
<path d="M236.664,317.297c-2.217,19.992-19.913,33.34-39.223,36.555c-24.01,3.999-47.707-5.441-60.05-29.174
	c-10.101-19.42-7.109-38.907-7.109-38.907s2.844,21.356,16.091,36.578C169.065,348.435,215.173,339.831,236.664,317.297z"/>
<path fill="none" stroke="#000000" stroke-width="1.1199" stroke-miterlimit="10" d="M405.998,163.34
	c-20.885-8.075-44.305-19.027-57.475-36.051c-9.23-11.916-11.975-24.896-12.77-39.41c-0.545-10.159,6.174-37.966,6.174-37.966
	c-14.986,4.994-55.695,18.098-80.826,14.436c-14.705-2.139-24.17-13.305-32.514-24.785c-8.656-11.893-15.553-24.863-23.283-37.338
	c0,0-21.648,52.559-47.034,65.249c-16.117,8.062-37.743,1.702-53.76-3.315C70.018,53.34,45.814,53.71,45.814,53.71
	s29.422,28.95,27.048,67.441c-0.785,12.712-9.018,22.723-17.941,28.537c-10.193,6.63-26.196,7.481-26.196,7.481
	s14.973,8.053,23.248,14.538c9.624,7.515,22.828,21.469,18.046,35.568c-5.233,15.377-14.616,21.268-25.155,27.921
	c-8.479,5.341-18.982,9.765-18.982,9.765s30.372,3.796,39.386,26.094c5.816,14.379,0.058,33.385-2.854,47.855
	c-2.678,13.293-13.148,40.946-13.148,40.946s34.606-11.312,51.968-9.755c13.528,1.197,22.787,8.531,30.482,19.531
	c3.247,4.625,5.207,11.041,5.656,17.1c10.168-9.843,31.449-11.387,44.64-8.454c9.466,2.117,22.3,7.616,27.773,19.655
	c6.634-13.695,19.274-25.344,33.88-29.791c22.039-6.708,52.758,2.463,71.217,15.391c0,0-1.031-13.162-1.961-19.714
	c-1.287-9.147-2.934-18.422-2.787-27.753c0.314-19.285,22.332-19.385,36.285-15.041c-2.039-9.562-5.186-23.002-1.354-32.387
	c4.566-11.234,23.908-11.883,32.451-10.46c-12.342-16.138-26.17-37.059-30.049-58.46
	C340.964,183.779,399.253,167.046,405.998,163.34z"/>
<line fill="none" stroke="#000000" stroke-width="1.1199" stroke-miterlimit="10" x1="66.443" y1="347.155" x2="66.432" y2="347.167"/>
<path fill="none" stroke="#000000" stroke-width="1.1199" stroke-miterlimit="10" d="M333.38,198.45
	c8.771-28.951,46.98-35.591,46.98-35.591s-14.168-7.179-25.141-14.705c-11.49-7.885-22.768-21.917-25.982-35.368
	c-6.293-26.33,0.301-49.636,0.301-49.636s-17.984,7.168-40.283,10.965c-10.403,1.769-33.934,4.849-44.139,0
	c-18.666-8.87-31.702-31.617-38.905-49.826c-13.383,23.787-26.844,48.672-54.575,55.056c-21.559,4.951-38.617-1.601-58.371-8.545
	c-17.561-6.17-25.152-5.219-25.152-5.219s15.658,27.999,16.138,56.926c0.313,18.748-13.329,32.5-29.756,38.75
	c18.7,8.669,35.021,27.696,30.662,49.468c-3.482,17.348-20.269,28.357-36.643,31.907c7.288-0.01,14.983,1.86,21.199,5.69
	c11.894,7.335,14.459,20.393,13.572,33.453c-1.512,22.252-8.804,44.673-16.844,65.382c14-5.344,31.281-9.428,46.107-5.611
	c14.772,3.797,26.342,17.539,30.79,31.752c19.43-6.575,52.423-12.926,67.944,5.967c11.123-11.23,25.907-21.916,41.808-24.639
	c25.244-4.323,50.767,8.959,50.767,8.959s-2.854-16.17-3.627-24.021c-0.94-9.476,0.513-20.877,7.448-28
	c7.391-7.595,17.377-7.415,27.605-6.812c-1.904-11.389-1.424-23.26,7.594-30.854c4.939-4.154,15.656-5.219,15.656-5.219
	C341.242,252.23,324.625,227.412,333.38,198.45z"/>
<path fill="none" stroke="#000000" stroke-width="1.1199" stroke-miterlimit="10" d="M260.518,169.455
	c-1.028-0.381-21.615-7.963-21.793-13.059c-0.199-5.51,8.039-6.439,11.489-6.753c7.459-0.693,14.517,0.179,21.841,1.68
	c17.627,3.583,27.832,14.146,24.346,20.384c10.448,0,14.179-8.21,14.179-8.21c-0.482-10.236-15.824-14.425-23.572-16.855
	c-4.717-1.479-19.645-2.799-19.934-9.094c-0.564-11.916,25.553-16.418,33.092-15.432c8.332,1.074,14.906,7.246,17.137,15.241
	c3-21.872-18.178-31.503-36.107-21.995c-10.43,5.543-19.086,13.305-30.373,17.125c-10.639,3.605-16.395-2.083-14.895-12.298
	c-5.41,3.864-11.167,16.026-19.42,10.45c-4.704-3.181-5.409-10.819-5.97-15.892c-1.265-11.502,0.749-34.875,0.749-34.875
	s-6.023,8.958-7.268,31.56c-0.492,8.938-4.59,11.894-12.385,7.302c-17.695-10.449-20.539-25.154-13.204-34.383
	c-9.655-0.593-15.108,8.188-14.1,17.214c1.341,12.117,14.12,16.833,19.662,26.374c2.007,3.45,2.535,8.703-1.489,11.065
	c-5.485,3.236-16.394-2.385-21.487-4.356c-18.123-7.034-38.798-18.771-57.242-9.229c3.539,0,17.393,1.221,22.768,6.529
	c11.825,11.681-17.168,19.969-22.029,20.349c13.407,6.977,26.295,0.381,39.39-3.617c4.301-1.311,8.154-3.774,12.509-1.053
	c8.411,5.264-0.28,17.763-5.599,21.089c4.925-0.549,13.828-1.21,13.979,5.745c0.179,8.266-9.431,16.094-3.621,24.918
	c4.583,6.921,17.82,4.525,24.741,3.987c10.425-0.817,21.224-2.093,31.517,0.561c13.694,3.516,16.993,15.074,27.185,23.876
	c6.977,6.038,18.631,10.181,26.11,13.003c7.94,3,16.433,4.491,26.051,5.13c0.246,0.021,0.492,0.044,0.748,0.055
	c-11.746-4.334-28.267-11.323-31.424-24.941c-3.431-14.772,10.192-30.271,24.323-32.176c-9.348-0.582-16.571,0.471-24.961,4.156
	c-7.09,3.101-10.147,1.836-14.539-3.741c-2.44-3.103-7.391-6.497-11.567-5.824c-3.138,0.493-3.283,2.318-4.938,4.693
	c-6.922,9.934-17.985,6.304-27.516,3.472c-8.311-2.487-14.526,7.368-23.529,2.339c-6.821-3.807-10.383-12.542-10.853-19.811
	c-0.518-8.008,2.092-17.404,7.445-23.687c6.262-7.336,15.332-10.394,28.751-7.134c9.933,2.407,15.856,8.344,23.593,14.134
	C245.389,167.282,259.645,169.344,260.518,169.455"/>
<path fill="none" stroke="#000000" stroke-width="1.1199" stroke-miterlimit="10" d="M260.518,169.455
	c0.037,0.011,0.047,0.011,0.047,0.011S260.555,169.466,260.518,169.455z"/>
<path fill="none" stroke="#000000" stroke-width="1.1199" stroke-miterlimit="10" d="M296.771,245.937l-26.051-5.13
	c-10.293-0.045-37.742-0.269-52.917-1.5c-20.853-1.692-48.728-2.722-64.943-18.322c-9.713-9.33-13.629-27.36-28.188-29.119
	c7.466,7.47,12.26,17.931,15.677,28.928c1.726,5.522,2.892,13.54,1.679,20.35c-0.56,3.169-3.728,8.959,0.036,10.84
	c4.691,2.364,19.14-14.479,17.603,2.24c-0.591,6.528-3.582,12.802-4.188,19.476c-0.393,4.291-0.628,8.668-0.068,12.947
	c2.383,18.078,20.975,20.562,36.334,20.859c-1.252-0.34-2.444-0.715-3.553-1.127c-4.899-1.819-11.712-5.692-13.766-9.986
	c0,0,5.599-17.73,24.359-20.836c-7.593,7.594-6.644,18.982-6.644,18.982s7.332-17.123,31.149-19.285
	c14.795-1.342,26.84,9.582,31.766,14.895c5.734-3.007,10.302-5.884,12.966-8.127c12.22-10.281,22.776-21.469,32.854-34.908
	C299.662,246.731,298.271,246.338,296.771,245.937z"/>
<path fill="none" stroke="#000000" stroke-width="1.1199" stroke-miterlimit="10" d="M146.373,322.349
	c-13.247-15.22-16.091-36.578-16.091-36.578s-2.991,19.487,7.109,38.907c12.343,23.732,36.04,33.173,60.05,29.174
	c19.311-3.215,37.006-16.562,39.223-36.555C215.173,339.831,169.065,348.435,146.373,322.349z"/>
<text transform="matrix(1 0 0 1 -1 493.1108)" font-family="'Simplo-Medium'" font-size="110">SOL</text>
<text transform="matrix(1 0 0 1 181.3438 493.1108)" font-family="'Simplo-Light'" font-size="110">SOUL</text>
</svg>
