<?xml version="1.0" encoding="iso-8859-1"?>
<!-- Generator: Adobe Illustrator 16.0.0, SVG Export Plug-In . SVG Version: 6.00 Build 0)  -->
<!DOCTYPE svg PUBLIC "-//W3C//DTD SVG 1.1//EN" "http://www.w3.org/Graphics/SVG/1.1/DTD/svg11.dtd">
<svg version="1.1" id="Layer_1" xmlns="http://www.w3.org/2000/svg" xmlns:xlink="http://www.w3.org/1999/xlink" x="0px" y="0px"
	 width="288px" height="194.057px" viewBox="0 0 288 194.057" style="enable-background:new 0 0 288 194.057;" xml:space="preserve"
	>
<g>
	<g>
		<path style="fill:#FFFFFF;" d="M231.561,117.979c-1.322-1.635-2.447-2.906-3.158-3.688c-0.514-0.559-0.816-0.873-0.816-0.873
			l-0.135-0.107c-0.141-0.088-0.266-0.154-0.367-0.197c-0.473-0.205-0.904-0.186-1.223,0.023c-0.617,0.4-0.559,1.238-0.541,1.375
			c0.67,8.756-6.471,27.129-6.541,27.314l-0.326,0.828l5.354,0.854c-0.281,9.926-10.109,17.002-10.229,17.088
			c-5.467,4.131-11.207,4.998-15.062,4.998c-3.02,0-5.033-0.533-5.117-0.551c-6.453-1.121-7.414-13.705-7.424-13.826l-2.979-47.219
			h-1.436l2.986,47.314c0.039,0.562,1.051,13.83,8.541,15.125c0.088,0.023,2.203,0.59,5.428,0.59c4.074,0,10.143-0.918,15.908-5.279
			c0.447-0.314,10.941-7.857,10.82-18.859l-0.006-0.604l-4.809-0.766c1.402-3.723,6.824-18.711,6.334-26.889
			c0.133,0.143,0.334,0.355,0.582,0.627c0.697,0.764,1.803,2.014,3.1,3.619c3.633,4.502,9.732,13.098,10.543,20.883l-5.93,1.027
			l-0.029,0.572c-0.006,0.119-0.715,12.184-8.893,22.818c-5.148,6.693-12.123,11.398-20.691,13.977
			c-0.131,0.031-13.209,3.203-22.773,10.455l-0.156,0.166c-1.098,1.6-3.168,3.852-4.342,3.852s-3.246-2.252-4.346-3.852
			l-0.156-0.166c-9.566-7.252-22.643-10.424-22.732-10.443c-10.557-3.176-18.583-9.461-23.854-18.684
			c-5.248-9.172-5.768-18.035-5.771-18.125l-0.031-0.57l-5.928-1.027c0.715-6.947,5.566-14.49,9.578-19.664
			c2.176-2.807,4.044-4.826,4.646-5.463c-0.504,8.148,4.929,23.16,6.336,26.887l-4.816,0.766l-0.006,0.605
			c-0.116,11,10.38,18.543,10.808,18.844c5.785,4.375,11.853,5.293,15.923,5.293c3.225,0,5.34-0.566,5.363-0.576
			c7.555-1.309,8.57-14.576,8.609-15.146l2.986-47.307h-1.436l-2.979,47.213c-0.01,0.127-0.973,12.711-7.492,13.846
			c-0.018,0.004-2.033,0.537-5.053,0.537c-3.852,0-9.59-0.867-15.078-5.014c-0.103-0.07-9.931-7.133-10.216-17.072l5.359-0.854
			l-0.324-0.828c-0.072-0.186-7.217-18.559-6.545-27.283c0.021-0.18,0.062-0.801-0.316-1.225c-0.402-0.455-1.063-0.49-1.82-0.002
			l-0.124,0.1c-0.091,0.096-2.263,2.328-4.958,5.801c-4.258,5.492-9.436,13.605-9.93,21.088l-0.043,0.641l6.097,1.061
			c0.197,2.156,1.205,9.955,5.916,18.188c5.46,9.551,13.765,16.059,24.724,19.354c0.127,0.031,12.83,3.111,22.15,10.135
			c0.533,0.762,3.189,4.375,5.457,4.375c2.264,0,4.92-3.613,5.453-4.375c9.312-7.018,22.023-10.104,22.191-10.146
			c8.9-2.676,16.119-7.549,21.453-14.484c7.518-9.775,8.91-20.451,9.145-23.045l6.098-1.059l-0.043-0.643
			C241.948,132.379,236.249,123.789,231.561,117.979z"/>
	</g>
	<path style="fill:#FFFFFF;" d="M175.708,28.827h-26.053l-0.215,0.284c-1.045,1.386-2.625,2.181-4.332,2.181
		c-3.005,0-5.452-2.446-5.452-5.451c0-3.003,2.446-5.445,5.452-5.445c1.709,0,3.287,0.793,4.332,2.178l0.215,0.285h21.58
		l-1.26-1.229c-2.307-2.244-3.574-5.238-3.574-8.426c0-6.49,5.281-11.771,11.773-11.771c6.486,0,11.766,5.281,11.766,11.771
		c0,3.191-1.27,6.184-3.572,8.426l-1.26,1.229h21.58l0.215-0.283c1.047-1.387,2.625-2.18,4.332-2.18
		c3.006,0,5.453,2.442,5.453,5.445c0,3.005-2.447,5.451-5.453,5.451c-1.705,0-3.283-0.795-4.332-2.181l-0.215-0.284h-26.051
		l0.924,14.648h1.436l-0.834-13.217h23.824c1.316,1.57,3.209,2.465,5.248,2.465c3.797,0,6.883-3.088,6.883-6.883
		c0-3.792-3.086-6.878-6.883-6.878c-2.039,0-3.932,0.894-5.248,2.464h-17.502c1.871-2.332,2.887-5.197,2.887-8.223
		c0-7.28-5.92-13.204-13.197-13.204c-7.281,0-13.205,5.923-13.205,13.204c0,3.023,1.016,5.889,2.889,8.223h-17.502
		c-1.312-1.57-3.207-2.464-5.248-2.464c-3.795,0-6.883,3.086-6.883,6.878c0,3.795,3.088,6.883,6.883,6.883
		c2.039,0,3.932-0.895,5.248-2.465h23.826l-0.834,13.217h1.436L175.708,28.827z"/>
	<path style="fill:#FFFFFF;" d="M185.821,13.204c0-4.22-3.43-7.652-7.646-7.652c-4.221,0-7.652,3.432-7.652,7.652
		c0,4.217,3.432,7.648,7.652,7.648C182.391,20.852,185.821,17.42,185.821,13.204z M178.174,19.42c-3.43,0-6.223-2.788-6.223-6.217
		c0-3.43,2.793-6.221,6.223-6.221c3.428,0,6.215,2.791,6.215,6.221C184.389,16.632,181.602,19.42,178.174,19.42z"/>
	<g>
		<path style="fill:#FFFFFF;" d="M5.392,85.545c2.233,3.995,5.112,6.208,9.73,6.208c3.501,0,6.874-2.472,6.874-6.059
			c0-10.933-19.654-11.941-19.654-26.312c0-6.252,5.283-10.934,11.899-10.934c4.812,0,8.785,2.189,12.438,6.658l-4.64,3.737
			c-2.686-2.964-4.92-4.36-7.389-4.36c-2.9,0-5.586,1.59-5.586,5.177c0,9.021,19.805,11.406,19.805,25.218
			c0,7.625-5.284,13.06-13.877,13.06c-7.26,0-12.179-3.717-14.992-9.28L5.392,85.545z"/>
		<path style="fill:#FFFFFF;" d="M59.24,97.939c-13.661,0-24.744-11.083-24.744-24.746c0-13.661,11.083-24.744,24.744-24.744
			c13.662,0,24.746,11.083,24.746,24.744C83.986,86.856,72.902,97.939,59.24,97.939z M41.369,73.194
			c0,10.053,7.99,18.214,17.871,18.214c9.882,0,17.872-8.162,17.872-18.214s-7.99-18.215-17.872-18.215
			C49.359,54.979,41.369,63.141,41.369,73.194z"/>
		<path style="fill:#FFFFFF;" d="M100.717,91.066h15.123v6.186H93.844V49.136h6.873V91.066z"/>
		<path style="fill:#FFFFFF;" d="M139.982,56.569c-2.75-2.943-5.221-4.447-8.012-4.447c-3.631,0-7.089,2.041-7.089,6.745
			c0,10.677,20.857,13.061,20.857,26.7c0,7.216-4.875,12.373-12.78,12.373c-6.811,0-11.407-3.287-14.049-8.313l3.352-1.911
			c2.405,4.101,5.605,6.378,10.805,6.378c4.445,0,8.506-3.157,8.506-7.796c0-12.501-20.729-13.469-20.729-27.73
			c0-5.735,4.768-10.117,10.653-10.117c4.426,0,8.034,1.89,11.364,5.799L139.982,56.569z"/>
		<path style="fill:#FFFFFF;" d="M243.299,49.136h4.146v43.797c-4.469,3.051-10.246,5.006-15.789,5.006
			c-10.869,0-19.246-3.158-19.246-18.409V49.136h4.146v29.041c0,15.081,8.441,16.002,15.1,16.002c3.352,0,7.541-0.967,11.643-3.609
			V49.136z"/>
		<path style="fill:#FFFFFF;" d="M265.379,49.136v44.336h15.594v3.779h-19.717V49.136H265.379z"/>
		<path style="fill:#FFFFFF;" d="M201.629,73.194c0,13.662-11.061,24.746-24.701,24.746c-13.619,0-24.703-11.083-24.703-24.746
			c0-13.64,11.084-24.744,24.703-24.744C190.569,48.45,201.629,59.554,201.629,73.194z M156.393,73.194
			c0,11.471,9.172,20.857,20.535,20.857s20.557-9.386,20.557-20.857c0-11.47-9.172-20.857-20.557-20.857
			C165.565,52.336,156.393,61.724,156.393,73.194z"/>
		<g>
			<path style="fill:#FFFFFF;" d="M280.938,49.54v4.715h-0.59V49.54h-1.312v-0.534h3.213v0.534H280.938z"/>
			<path style="fill:#FFFFFF;" d="M285.096,54.405l-1.463-3.719l-0.83,3.568H282.2l1.27-5.399l1.627,4.115l1.629-4.115L288,54.254
				h-0.609l-0.83-3.568L285.096,54.405z"/>
		</g>
	</g>
</g>
</svg>
