<?xml version="1.0" encoding="iso-8859-1"?>
<!-- Generator: Adobe Illustrator 16.0.0, SVG Export Plug-In . SVG Version: 6.00 Build 0)  -->
<!DOCTYPE svg PUBLIC "-//W3C//DTD SVG 1.1//EN" "http://www.w3.org/Graphics/SVG/1.1/DTD/svg11.dtd">
<svg version="1.1" xmlns="http://www.w3.org/2000/svg" xmlns:xlink="http://www.w3.org/1999/xlink" x="0px" y="0px"
	 width="442.533px" height="142.381px" viewBox="0 0 442.533 142.381" style="enable-background:new 0 0 442.533 142.381;"
	 xml:space="preserve">
<g id="conch_3">
	<path style="display:none;fill-rule:evenodd;clip-rule:evenodd;fill:#FFFFFF;" d="M274.416,37.724
		c0.826-1.519,1.678-1.643,2.811-0.197c0.865,1.104,1.713,2.046,3.244,1.818c1.887-0.279,3.818-0.615,4.859-2.45
		c0.797-1.405,1.412-2.924,2.01-4.431c0.74-1.857,1.275-3.802,2.086-5.624c0.789-1.771,2.115-1.845,3.23-0.327
		c0.641,0.873,1.24,1.777,1.91,2.627c0.467,0.594,0.955,1.205,1.547,1.66c1.801,1.385,3.797,0.572,3.994-1.681
		c0.379-4.355,0.631-8.722,0.963-13.081c0.039-0.494,0.15-1.053,0.424-1.443c0.701-1.003,1.527-1.028,2.393-0.153
		c1.721,1.738,3.291,3.657,5.176,5.19c1.814,1.474,3.916,2.606,5.961,3.769c0.523,0.297,1.318,0.239,1.967,0.168
		c3.27-0.36,6.525-0.829,9.795-1.163c2.391-0.245,4.562,1.352,5.205,3.668c0.064,0.23,0.131,0.463,0.189,0.695
		c0.557,2.226,1.789,3.595,4.129,4.319c2.734,0.847,5.322,2.194,7.934,3.412c2.98,1.391,4.855,3.871,6.26,6.744
		c1.195,2.449,2.822,4.565,4.803,6.416c1.848,1.726,3.219,3.754,4.236,6.07c0.543,1.237,1.219,2.46,2.057,3.515
		c2.252,2.838,3.586,6.054,4.275,9.566c0.27,1.376,0.924,2.499,1.781,3.604c0.574,0.742,0.943,1.754,1.088,2.694
		c0.33,2.137,0.469,4.303,0.674,6.458c0.049,0.514,0.055,1.032,0.086,1.664c-1.709,0.171-3.377,0.43-4.779-0.701
		c-2.707-2.184-5.41-4.38-7.996-6.703c-1.605-1.441-2.92-3.205-4.506-4.668c-0.986-0.91-2.217-1.569-3.379-2.275
		c-4.891-2.978-9.697-6.115-14.727-8.841c-5.562-3.015-11.387-5.541-16.986-8.489c-2.1-1.106-3.955-2.723-5.807-4.246
		s-3.471-3.336-5.361-4.802c-1.209-0.937-2.672-1.613-4.117-2.153c-1.99-0.745-4.107-1.15-6.094-1.9
		c-1.023-0.387-1.889-1.199-2.818-1.828c-0.828-0.562-1.611-1.203-2.482-1.688c-1.498-0.834-2.527-0.454-3.129,1.144
		c-0.562,1.495-1.098,3.008-1.496,4.551c-0.115,0.448,0.186,1.091,0.465,1.538c0.889,1.421,1.857,2.791,2.75,4.111
		c-1.625,0.865-3.299,1.632-4.838,2.612c-1.787,1.138-1.996,1.851-1.463,3.962c0.262,1.035,0.713,2.021,1.006,3.05
		c0.516,1.804,0.947,3.631,1.465,5.434c0.373,1.301,0.83,2.577,1.283,3.965c-1.09,1.142-2.346,2.367-3.498,3.685
		c-1.965,2.244-3.686,4.65-4.533,7.575c-0.465,1.607-0.291,3.042,0.818,4.397c0.51,0.625,0.693,1.51,1.08,2.25
		c0.291,0.558,0.562,1.218,1.037,1.56c0.381,0.272,1.281,0.387,1.562,0.136c2.033-1.803,4.27-3.492,5.869-5.643
		c3.238-4.353,2.934-9.045,0.365-13.676c-0.176-0.314-0.391-0.606-0.453-0.701c1.951-3.109,3.803-6.143,5.742-9.12
		c1.279-1.963,1.348-4.022,0.955-6.237c-0.203-1.152-0.18-2.366-0.105-3.544c0.137-2.225,0.387-4.443,0.611-6.91
		c2.936,1.178,5.969,2.217,8.82,3.622c1.264,0.622,2.16,1.987,3.221,3.016c5.479,5.308,12.225,8.563,18.965,11.873
		c4.779,2.347,9.424,4.967,14.123,7.474c0.336,0.18,0.633,0.43,1.064,0.728c-1.223,0.41-2.262,0.792-3.322,1.108
		c-3.342,1.001-5.551,3.257-7.012,6.324c-0.859,1.808-1.691,3.632-2.473,5.476c-1.15,2.714-2.936,4.605-5.965,5.21
		c-1.865,0.372-3.684,0.99-5.498,1.709c0.342-0.041,0.686-0.062,1.023-0.125c3.105-0.577,6.287-0.882,9.146-2.397
		c2.064-1.095,3.75-2.596,4.922-4.639c0.559-0.974,1.197-1.912,1.658-2.931c1.66-3.673,4.705-5.413,8.455-6.224
		c0.549-0.118,1.141-0.173,1.623-0.425c1.344-0.702,2.42-0.334,3.359,0.633c-1.236,0.388-2.502,0.757-3.75,1.182
		c-3.018,1.026-4.736,3.342-5.859,6.149c-0.994,2.49-1.857,5.034-2.758,7.562c-0.684,1.918-1.973,3.147-3.943,3.706
		c-1.771,0.503-3.525,1.07-5.287,1.613c-0.316,0.098-0.629,0.214-0.891,0.607c1.006-0.087,2.016-0.146,3.02-0.268
		c7.213-0.874,12.404-4.554,15.242-11.281c1.096-2.6,2.992-3.921,5.609-4.557c3.705-0.9,3.586-0.819,6.27,1.813
		c2.48,2.432,5.223,4.598,7.875,6.849c1.539,1.306,3.395,1.63,5.32,1.331c1.002-0.156,1.371,0.24,1.654,1.076
		c0.643,1.888,1.369,3.746,1.98,5.644c0.09,0.282-0.166,0.898-0.432,1.038c-2.23,1.175-4.4,2.661-6.789,3.277
		c-2.041,0.526-4.371,0.227-6.529-0.052c-7.352-0.946-14.662-2.253-22.029-3.03c-8.35-0.882-16.748-0.782-25.109,0.081
		c-2.625,0.271-5.211,0.904-7.814,1.378c-3.629,0.661-7.191-0.062-10.766-0.519c-0.795-0.101-1.59-0.354-2.379-0.333
		c-1.09,0.029-2.258,0.038-3.244,0.432c-2.738,1.092-5.74,1.536-8.191,3.358c-1.445,1.074-2.982,2.023-4.479,3.03
		c-0.973,0.654-2.043,1.086-3.154,0.543c-0.668-0.325-0.598-2.242-0.006-3.38c2.053-3.939,4.434-7.735,5.453-12.132
		c0.361-1.557,0.637-3.141,0.828-4.728c0.162-1.338-1.596-3.126-2.953-3.016c-1.066,0.087-2.117,0.365-3.174,0.569
		c-0.393,0.076-0.775,0.232-1.17,0.264c-1.559,0.121-2.035-0.571-1.396-1.993c0.182-0.4,0.395-0.786,0.566-1.19
		c0.09-0.207,0.246-0.54,0.162-0.643c-1.457-1.789,0.066-3.331,0.371-4.971c0.043-0.239,0.074-0.563-0.047-0.735
		c-0.553-0.783-1.09-1.6-1.771-2.264c-0.836-0.817-1.713-1.335-3.045-0.605c-1.371,0.751-1.945,0.232-1.924-1.371
		c0.004-0.241,0.006-0.481,0.006-0.723c-0.004-2.031-0.58-2.896-2.498-3.67c-0.271-0.11-0.613-0.126-0.91-0.089
		c-1.207,0.148-1.84-0.323-2.162-1.501c-0.158-0.582-0.416-1.195-0.811-1.63c-0.223-0.246-0.852-0.303-1.23-0.2
		c-1.475,0.398-2.27-0.176-2.258-1.699c0.004-0.34-0.117-0.681-0.207-1.164c-1.205,0.749-1.748,0.047-2.398-0.745
		c-0.594-0.723-1.463-1.212-2.123-1.89c-0.43-0.438-1.105-1.226-0.967-1.513c0.33-0.678,1.014-1.266,1.686-1.671
		c0.637-0.385,1.432-0.544,2.178-0.699c0.486-0.102,1.008-0.02,1.652-0.02c0.447-1.128,1.209-0.641,2.084-0.179
		c0.584,0.309,1.295,0.449,1.961,0.499c0.246,0.019,0.68-0.395,0.766-0.688c0.334-1.123,1.041-1.057,1.873-0.699
		c0.328,0.142,0.623,0.366,0.949,0.518c1.695,0.784,2.793,0.426,3.619-1.166c0.574-1.105,0.949-1.18,1.959-0.391
		c1.266,0.992,5.457,0.412,6.352-0.923c0.186-0.275,0.172-0.719,0.16-1.081c-0.031-1.166,0.098-2.247,1.219-2.925
		c-0.297,0.731-0.725,1.439-0.857,2.199c-0.219,1.257,0.67,2.532,1.826,2.893c1.053,0.328,2.158-0.127,2.77-1.139
		c0.486-0.802-0.4-2.946-1.584-3.78C275.893,37.388,275.199,36.754,274.416,37.724z M273.436,64.663
		c0.869-2.596,1.674-5.013,2.484-7.427c0.369-1.093-0.139-2.059-0.936-2.488c-0.49-0.266-1.592,0.091-2.135,0.524
		c-1.777,1.422-2.254,3.415-1.965,5.61C271.084,62.409,271.697,63.695,273.436,64.663z M278.051,43.757
		c-1.127,0.721-1.979,1.235-2.797,1.799c-0.49,0.338-0.959,0.724-1.387,1.141c-1.352,1.316-1.547,2.726-0.559,4.326
		c0.375,0.606,0.877,1.137,1.336,1.689c0.5,0.603,1.068,0.588,1.492-0.027C277.943,50.065,278.373,47.144,278.051,43.757z
		 M265.764,55.726c0.523-0.293,1.055-0.415,1.207-0.725c0.146-0.301,0.023-0.881-0.197-1.18c-0.346-0.469-0.82-0.998-1.34-1.143
		c-0.52-0.144-1.238,0.029-1.709,0.322c-0.176,0.109-0.066,1.1,0.217,1.426C264.406,54.964,265.119,55.288,265.764,55.726z
		 M266.1,50.455c0.264-0.199,0.795-0.598,1.326-0.996c-0.705-0.561-1.354-1.24-2.148-1.609c-0.248-0.115-1.146,0.527-1.285,0.969
		C263.764,49.541,264.82,50.437,266.1,50.455z M265.355,57.263c-0.453,0.307-1.078,0.52-1.314,0.947
		c-0.252,0.461,1.238,1.518,2.158,1.491c0.248-0.007,0.66-0.295,0.697-0.508C267.012,58.554,266.043,57.445,265.355,57.263z
		 M267.873,44.774c-1.631-1.206-3.086-0.747-3.105,0.543c-0.006,0.248,0.492,0.752,0.576,0.715
		C266.209,45.663,267.035,45.206,267.873,44.774z M259.299,45.59c-0.459,0.504-0.811,0.891-1.164,1.277
		c0.264,0.237,0.668,0.728,0.77,0.672c0.512-0.284,0.945-0.71,1.404-1.086C260.041,46.224,259.773,45.996,259.299,45.59z
		 M260.238,49.814c-0.582-0.374-0.891-0.696-1.242-0.751c-0.213-0.034-0.729,0.43-0.695,0.526c0.125,0.363,0.373,0.862,0.668,0.938
		C259.238,50.595,259.631,50.178,260.238,49.814z M259.963,53.229c-0.471-0.472-0.803-0.804-1.135-1.137
		c-0.191,0.196-0.574,0.518-0.541,0.568c0.248,0.385,0.562,0.736,0.906,1.041C259.242,53.746,259.564,53.479,259.963,53.229z
		 M255.771,49.564c-0.477-0.267-0.758-0.555-1.004-0.528c-0.312,0.034-0.598,0.323-0.895,0.502c0.244,0.305,0.484,0.847,0.738,0.854
		C254.924,50.4,255.25,49.962,255.771,49.564z M253.863,47.708c0.078,0.13,0.156,0.259,0.232,0.388
		c0.396-0.168,0.924-0.237,1.143-0.535c0.168-0.227-0.059-0.742-0.109-1.129c-0.125-0.031-0.248-0.062-0.373-0.093
		C254.459,46.795,254.162,47.251,253.863,47.708z"/>
	<g>
		<path style="fill-rule:evenodd;clip-rule:evenodd;fill:#FFFFFF;" d="M286.416,81.725c0.826-1.519,1.678-1.643,2.811-0.197
			c0.865,1.104,1.713,2.046,3.244,1.818c1.887-0.279,3.818-0.615,4.859-2.45c0.797-1.405,1.412-2.924,2.01-4.431
			c0.74-1.857,1.275-3.802,2.086-5.625c0.789-1.771,2.115-1.845,3.23-0.327c0.641,0.873,1.24,1.778,1.91,2.627
			c0.467,0.594,0.955,1.205,1.547,1.66c1.801,1.385,3.797,0.572,3.994-1.681c0.379-4.356,0.631-8.722,0.963-13.082
			c0.039-0.494,0.15-1.053,0.424-1.443c0.701-1.003,1.527-1.028,2.393-0.153c1.721,1.738,3.291,3.657,5.176,5.19
			c1.814,1.474,3.916,2.606,5.961,3.769c0.523,0.297,1.318,0.239,1.967,0.168c3.27-0.36,6.525-0.829,9.795-1.163
			c2.391-0.245,4.562,1.352,5.205,3.668c0.064,0.23,0.131,0.463,0.189,0.695c0.557,2.226,1.789,3.595,4.129,4.32
			c2.734,0.847,5.322,2.194,7.934,3.412c2.98,1.391,4.855,3.871,6.26,6.744c1.195,2.449,2.822,4.565,4.803,6.416
			c1.848,1.726,3.219,3.754,4.236,6.07c0.543,1.237,1.219,2.46,2.057,3.515c2.252,2.838,3.586,6.054,4.275,9.566
			c0.27,1.376,0.924,2.499,1.781,3.604c0.574,0.742,0.943,1.754,1.088,2.693c0.33,2.137,0.469,4.303,0.674,6.458
			c0.049,0.514,0.055,1.032,0.086,1.664c-1.709,0.171-3.377,0.43-4.779-0.701c-2.707-2.184-5.41-4.38-7.996-6.703
			c-1.605-1.441-2.92-3.204-4.506-4.668c-0.986-0.91-2.217-1.569-3.379-2.275c-4.891-2.978-9.697-6.115-14.727-8.841
			c-5.562-3.015-11.387-5.541-16.986-8.489c-2.1-1.106-3.955-2.723-5.807-4.246s-3.471-3.336-5.361-4.802
			c-1.209-0.937-2.672-1.613-4.117-2.153c-1.99-0.745-4.107-1.15-6.094-1.9c-1.023-0.387-1.889-1.199-2.818-1.828
			c-0.828-0.562-1.611-1.203-2.482-1.688c-1.498-0.834-2.527-0.454-3.129,1.144c-0.562,1.495-1.098,3.008-1.496,4.551
			c-0.115,0.448,0.186,1.091,0.465,1.538c0.889,1.421,1.857,2.791,2.75,4.111c-1.625,0.865-3.299,1.632-4.838,2.612
			c-1.787,1.138-1.996,1.851-1.463,3.962c0.262,1.035,0.713,2.021,1.006,3.05c0.516,1.804,0.947,3.631,1.465,5.434
			c0.373,1.301,0.83,2.577,1.283,3.965c-1.09,1.142-2.346,2.367-3.498,3.685c-1.965,2.244-3.686,4.65-4.533,7.574
			c-0.465,1.607-0.291,3.042,0.818,4.397c0.51,0.625,0.693,1.51,1.08,2.25c0.291,0.558,0.562,1.218,1.037,1.56
			c0.381,0.272,1.281,0.387,1.562,0.136c2.033-1.803,4.27-3.492,5.869-5.643c3.238-4.353,2.934-9.045,0.365-13.676
			c-0.176-0.314-0.391-0.606-0.453-0.701c1.951-3.109,3.803-6.143,5.742-9.12c1.279-1.963,1.348-4.022,0.955-6.237
			c-0.203-1.152-0.18-2.366-0.105-3.544c0.137-2.225,0.387-4.443,0.611-6.91c2.936,1.178,5.969,2.217,8.82,3.622
			c1.264,0.622,2.16,1.987,3.221,3.016c5.479,5.308,12.225,8.563,18.965,11.873c4.779,2.347,9.424,4.967,14.123,7.474
			c0.336,0.18,0.633,0.43,1.064,0.728c-1.223,0.41-2.262,0.792-3.322,1.108c-3.342,1.001-5.551,3.257-7.012,6.324
			c-0.859,1.808-1.691,3.632-2.473,5.476c-1.15,2.714-2.936,4.605-5.965,5.21c-1.865,0.372-3.684,0.99-5.498,1.709
			c0.342-0.041,0.686-0.062,1.023-0.125c3.105-0.577,6.287-0.882,9.146-2.397c2.064-1.095,3.75-2.596,4.922-4.639
			c0.559-0.974,1.197-1.912,1.658-2.931c1.66-3.673,4.705-5.412,8.455-6.224c0.549-0.118,1.141-0.173,1.623-0.425
			c1.344-0.702,2.42-0.334,3.359,0.633c-1.236,0.388-2.502,0.757-3.75,1.182c-3.018,1.026-4.736,3.342-5.859,6.148
			c-0.994,2.49-1.857,5.034-2.758,7.562c-0.684,1.918-1.973,3.147-3.943,3.706c-1.771,0.503-3.525,1.07-5.287,1.613
			c-0.316,0.098-0.629,0.214-0.891,0.607c1.006-0.087,2.016-0.146,3.02-0.268c7.213-0.874,12.404-4.554,15.242-11.281
			c1.096-2.6,2.992-3.921,5.609-4.557c3.705-0.899,3.586-0.818,6.27,1.813c2.48,2.432,5.223,4.598,7.875,6.849
			c1.539,1.306,3.395,1.63,5.32,1.331c1.002-0.156,1.371,0.24,1.654,1.076c0.643,1.888,1.369,3.746,1.98,5.644
			c0.09,0.282-0.166,0.898-0.432,1.038c-2.23,1.175-4.4,2.661-6.789,3.277c-2.041,0.526-4.371,0.227-6.529-0.052
			c-7.352-0.946-14.662-2.253-22.029-3.03c-8.35-0.882-16.748-0.782-25.109,0.081c-2.625,0.271-5.211,0.904-7.814,1.378
			c-3.629,0.661-7.191-0.062-10.766-0.519c-0.795-0.101-1.59-0.354-2.379-0.333c-1.09,0.029-2.258,0.038-3.244,0.432
			c-2.738,1.092-5.74,1.536-8.191,3.358c-1.445,1.074-2.982,2.023-4.479,3.03c-0.973,0.654-2.043,1.086-3.154,0.543
			c-0.668-0.325-0.598-2.242-0.006-3.38c2.053-3.939,4.434-7.735,5.453-12.132c0.361-1.557,0.637-3.141,0.828-4.728
			c0.162-1.338-1.596-3.126-2.953-3.016c-1.066,0.087-2.117,0.365-3.174,0.569c-0.393,0.076-0.775,0.232-1.17,0.264
			c-1.559,0.121-2.035-0.571-1.396-1.993c0.182-0.4,0.395-0.786,0.566-1.19c0.09-0.207,0.246-0.539,0.162-0.643
			c-1.457-1.789,0.066-3.331,0.371-4.971c0.043-0.239,0.074-0.563-0.047-0.735c-0.553-0.783-1.09-1.6-1.771-2.264
			c-0.836-0.817-1.713-1.335-3.045-0.605c-1.371,0.751-1.945,0.232-1.924-1.371c0.004-0.241,0.006-0.481,0.006-0.723
			c-0.004-2.031-0.58-2.896-2.498-3.67c-0.271-0.11-0.613-0.126-0.91-0.089c-1.207,0.148-1.84-0.323-2.162-1.501
			c-0.158-0.582-0.416-1.195-0.811-1.63c-0.223-0.246-0.852-0.303-1.23-0.2c-1.475,0.398-2.27-0.176-2.258-1.699
			c0.004-0.34-0.117-0.681-0.207-1.164c-1.205,0.749-1.748,0.047-2.398-0.745c-0.594-0.723-1.463-1.212-2.123-1.89
			c-0.43-0.438-1.105-1.226-0.967-1.513c0.33-0.678,1.014-1.266,1.686-1.671c0.637-0.385,1.432-0.544,2.178-0.699
			c0.486-0.102,1.008-0.02,1.652-0.02c0.447-1.128,1.209-0.641,2.084-0.179c0.584,0.309,1.295,0.449,1.961,0.499
			c0.246,0.019,0.68-0.395,0.766-0.688c0.334-1.123,1.041-1.057,1.873-0.699c0.328,0.142,0.623,0.366,0.949,0.518
			c1.695,0.784,2.793,0.426,3.619-1.166c0.574-1.105,0.949-1.18,1.959-0.391c1.266,0.992,5.457,0.412,6.352-0.923
			c0.186-0.275,0.172-0.719,0.16-1.081c-0.031-1.166,0.098-2.247,1.219-2.925c-0.297,0.731-0.725,1.439-0.857,2.199
			c-0.219,1.257,0.67,2.532,1.826,2.893c1.053,0.328,2.158-0.127,2.77-1.139c0.486-0.802-0.4-2.946-1.584-3.78
			C287.893,81.389,287.199,80.755,286.416,81.725z M285.436,108.663c0.869-2.596,1.674-5.013,2.484-7.427
			c0.369-1.093-0.139-2.059-0.936-2.488c-0.49-0.266-1.592,0.091-2.135,0.524c-1.777,1.422-2.254,3.415-1.965,5.61
			C283.084,106.409,283.697,107.695,285.436,108.663z M290.051,87.758c-1.127,0.721-1.979,1.235-2.797,1.799
			c-0.49,0.338-0.959,0.724-1.387,1.141c-1.352,1.316-1.547,2.726-0.559,4.326c0.375,0.606,0.877,1.137,1.336,1.689
			c0.5,0.603,1.068,0.588,1.492-0.027C289.943,94.065,290.373,91.145,290.051,87.758z M277.764,99.727
			c0.523-0.293,1.055-0.415,1.207-0.725c0.146-0.301,0.023-0.881-0.197-1.18c-0.346-0.469-0.82-0.998-1.34-1.143
			c-0.52-0.144-1.238,0.029-1.709,0.322c-0.176,0.109-0.066,1.1,0.217,1.426C276.406,98.965,277.119,99.288,277.764,99.727z
			 M278.1,94.455c0.264-0.199,0.795-0.598,1.326-0.996c-0.705-0.561-1.354-1.24-2.148-1.609c-0.248-0.115-1.146,0.527-1.285,0.969
			C275.764,93.541,276.82,94.438,278.1,94.455z M277.355,101.264c-0.453,0.307-1.078,0.52-1.314,0.947
			c-0.252,0.461,1.238,1.518,2.158,1.491c0.248-0.007,0.66-0.295,0.697-0.508C279.012,102.555,278.043,101.445,277.355,101.264z
			 M279.873,88.774c-1.631-1.206-3.086-0.747-3.105,0.543c-0.006,0.248,0.492,0.752,0.576,0.715
			C278.209,89.663,279.035,89.206,279.873,88.774z M271.299,89.591c-0.459,0.504-0.811,0.891-1.164,1.277
			c0.264,0.237,0.668,0.728,0.77,0.672c0.512-0.284,0.945-0.71,1.404-1.086C272.041,90.225,271.773,89.996,271.299,89.591z
			 M272.238,93.814c-0.582-0.374-0.891-0.696-1.242-0.751c-0.213-0.034-0.729,0.43-0.695,0.526c0.125,0.363,0.373,0.862,0.668,0.938
			C271.238,94.596,271.631,94.179,272.238,93.814z M271.963,97.229c-0.471-0.472-0.803-0.804-1.135-1.137
			c-0.191,0.196-0.574,0.518-0.541,0.568c0.248,0.385,0.562,0.736,0.906,1.041C271.242,97.746,271.564,97.479,271.963,97.229z
			 M267.771,93.564c-0.477-0.267-0.758-0.555-1.004-0.528c-0.312,0.034-0.598,0.323-0.895,0.502
			c0.244,0.305,0.484,0.847,0.738,0.854C266.924,94.4,267.25,93.963,267.771,93.564z M265.863,91.708
			c0.078,0.13,0.156,0.259,0.232,0.388c0.396-0.168,0.924-0.237,1.143-0.535c0.168-0.227-0.059-0.742-0.109-1.129
			c-0.125-0.031-0.248-0.062-0.373-0.093C266.459,90.796,266.162,91.252,265.863,91.708z"/>
		<g>
			<path style="fill:#FFFFFF;" d="M8.285,57c3.433,6.139,7.856,9.539,14.952,9.539c5.38,0,10.562-3.797,10.562-9.309
				c0-16.8-30.2-18.35-30.2-40.431C3.598,7.194,11.717,0,21.883,0c7.394,0,13.5,3.366,19.111,10.232l-7.129,5.742
				c-4.126-4.555-7.559-6.699-11.354-6.699c-4.456,0-8.582,2.442-8.582,7.954c0,13.863,30.432,17.526,30.432,38.749
				c0,11.717-8.12,20.07-21.322,20.07C11.882,76.047,4.324,70.334,0,61.786L8.285,57z"/>
			<path style="fill:#FFFFFF;" d="M91.028,76.047c-20.992,0-38.023-17.033-38.023-38.024C53.005,17.03,70.036,0,91.028,0
				c20.992,0,38.023,17.031,38.023,38.023C129.051,59.014,112.02,76.047,91.028,76.047z M63.567,38.022
				c0,15.447,12.279,27.988,27.461,27.988c15.183,0,27.461-12.541,27.461-27.988s-12.278-27.988-27.461-27.988
				C75.846,10.034,63.567,22.576,63.567,38.022z"/>
			<path style="fill:#FFFFFF;" d="M154.76,65.483h23.236v9.506h-33.798V1.055h10.562V65.483z"/>
			<path style="fill:#FFFFFF;" d="M215.093,12.476c-4.225-4.521-8.021-6.833-12.311-6.833c-5.579,0-10.892,3.136-10.892,10.364
				c0,16.405,32.049,20.068,32.049,41.027c0,11.09-7.492,19.013-19.638,19.013c-10.463,0-17.527-5.052-21.587-12.775l5.149-2.938
				c3.697,6.303,8.615,9.803,16.603,9.803c6.831,0,13.07-4.852,13.07-11.98c0-19.209-31.851-20.696-31.851-42.611
				C185.685,6.733,193.013,0,202.056,0c6.8,0,12.344,2.904,17.461,8.912L215.093,12.476z"/>
			<path style="fill:#FFFFFF;" d="M373.85,1.055h6.369v67.299c-6.865,4.688-15.744,7.693-24.26,7.693
				c-16.701,0-29.572-4.855-29.572-28.288V1.055h6.369v44.624c0,23.171,12.971,24.589,23.203,24.589
				c5.15,0,11.586-1.484,17.891-5.545V1.055z"/>
			<path style="fill:#FFFFFF;" d="M407.775,1.055V69.18h23.963v5.809h-30.299V1.055H407.775z"/>
			<path style="fill:#FFFFFF;" d="M309.82,38.022c0,20.992-16.998,38.024-37.957,38.024c-20.926,0-37.957-17.033-37.957-38.024
				C233.906,17.063,250.938,0,271.863,0C292.822,0,309.82,17.063,309.82,38.022z M240.309,38.022
				c0,17.625,14.094,32.048,31.555,32.048s31.586-14.424,31.586-32.048S289.355,5.973,271.863,5.973
				C254.402,5.973,240.309,20.398,240.309,38.022z"/>
			<g>
				<path style="fill:#FFFFFF;" d="M431.684,1.674v7.247h-0.906V1.674h-2.018v-0.82h4.938v0.82H431.684z"/>
				<path style="fill:#FFFFFF;" d="M438.072,9.151l-2.246-5.715l-1.275,5.485h-0.93l1.951-8.297l2.5,6.323l2.502-6.323l1.959,8.297
					h-0.936l-1.275-5.485L438.072,9.151z"/>
			</g>
		</g>
	</g>
</g>
<g id="Layer_1">
</g>
</svg>
