<?xml version="1.0" encoding="iso-8859-1"?>
<!-- Generator: Adobe Illustrator 16.0.0, SVG Export Plug-In . SVG Version: 6.00 Build 0)  -->
<!DOCTYPE svg PUBLIC "-//W3C//DTD SVG 1.1//EN" "http://www.w3.org/Graphics/SVG/1.1/DTD/svg11.dtd">
<svg version="1.1" xmlns="http://www.w3.org/2000/svg" xmlns:xlink="http://www.w3.org/1999/xlink" x="0px" y="0px"
	 width="442.533px" height="195.733px" viewBox="0 0 442.533 195.733" style="enable-background:new 0 0 442.533 195.733;"
	 xml:space="preserve">
<g id="conch_3.1">
	<g>
		<path style="fill:none;" d="M170.113,67.931c0.239,0.689,0.708,1.637,1.268,1.78c0.512,0.129,1.257-0.662,2.411-1.354
			c-1.105-0.71-1.691-1.322-2.359-1.426C171.029,66.867,170.05,67.747,170.113,67.931z"/>
		<path style="fill:none;" d="M170.087,73.763c0.473,0.73,1.068,1.398,1.721,1.977c0.093,0.083,0.704-0.423,1.461-0.897
			c-0.894-0.896-1.524-1.526-2.154-2.158C170.75,73.056,170.024,73.666,170.087,73.763z"/>
		<path style="fill:none;" d="M169.797,62.763c0.502,0.45,1.269,1.381,1.461,1.276c0.971-0.54,1.795-1.349,2.668-2.062
			c-0.51-0.436-1.019-0.87-1.918-1.64C171.136,61.294,170.469,62.029,169.797,62.763z"/>
		<path style="fill:none;" d="M183.508,82.502c-0.86,0.582-2.047,0.986-2.494,1.798c-0.48,0.875,2.349,2.881,4.096,2.831
			c0.471-0.013,1.253-0.56,1.326-0.964C186.653,84.953,184.813,82.847,183.508,82.502z"/>
		<path style="fill:none;" d="M180.919,66.466c-0.433,1.372,1.573,3.074,4.002,3.107c0.502-0.378,1.511-1.135,2.518-1.892
			c-1.339-1.064-2.57-2.354-4.08-3.056C182.891,64.408,181.183,65.628,180.919,66.466z"/>
		<path style="fill:none;" d="M183.656,73.798c-0.986-0.272-2.352,0.056-3.245,0.612c-0.333,0.208-0.124,2.088,0.412,2.707
			c0.885,1.02,2.236,1.633,3.46,2.466c0.994-0.556,2.005-0.788,2.292-1.376c0.278-0.571,0.044-1.672-0.373-2.24
			C185.544,75.077,184.643,74.072,183.656,73.798z"/>
		<path style="fill:none;" d="M164.3,64.078c0.317-0.431-0.113-1.41-0.21-2.144c-0.237-0.06-0.471-0.117-0.707-0.176
			c-0.565,0.867-1.129,1.733-1.695,2.599c0.147,0.247,0.295,0.492,0.442,0.737C162.881,64.775,163.882,64.644,164.3,64.078z"/>
		<path style="fill:none;" d="M348.443,105.09c-1.873-1.728-4.209-2.979-6.414-4.32c-9.287-5.653-18.414-11.611-27.963-16.787
			c-10.562-5.724-21.619-10.521-32.252-16.119c-3.988-2.101-7.508-5.169-11.025-8.062c-3.516-2.893-6.592-6.334-10.182-9.117
			c-2.293-1.778-5.072-3.063-7.816-4.088c-3.779-1.416-7.799-2.185-11.57-3.608c-1.943-0.735-3.588-2.277-5.352-3.472
			c-1.572-1.066-3.061-2.284-4.715-3.206c-2.844-1.584-4.799-0.863-5.939,2.171c-1.068,2.839-2.086,5.71-2.842,8.641
			c-0.219,0.851,0.354,2.071,0.885,2.92c1.688,2.698,3.527,5.299,5.221,7.806c-3.084,1.643-6.266,3.099-9.187,4.96
			c-3.394,2.16-3.791,3.514-2.776,7.523c0.497,1.965,1.352,3.838,1.908,5.791c0.979,3.425,1.799,6.894,2.781,10.317
			c0.711,2.47,1.579,4.893,2.436,7.528c-2.069,2.168-4.454,4.495-6.641,6.997c-3.002,3.428-5.688,7.066-7.467,11.245h22.485
			c1.363-5.799,0.039-11.777-3.246-17.704c-0.332-0.598-0.742-1.152-0.861-1.332c3.705-5.904,7.221-11.663,10.902-17.317
			c2.43-3.727,2.559-7.638,1.814-11.843c-0.387-2.188-0.342-4.493-0.201-6.729c0.262-4.224,0.734-8.437,1.162-13.121
			c5.572,2.237,11.332,4.209,16.748,6.878c2.398,1.181,4.1,3.773,6.115,5.726c10.4,10.078,23.213,16.26,36.01,22.544
			c9.074,4.456,17.893,9.431,26.814,14.191c0.639,0.341,1.201,0.816,2.021,1.381c-2.322,0.779-4.295,1.504-6.307,2.104
			c-6.346,1.901-10.541,6.184-13.314,12.008c-0.508,1.065-0.998,2.141-1.494,3.213h7.406c3.252-6.184,8.775-9.205,15.486-10.657
			c1.041-0.225,2.164-0.328,3.082-0.807c2.553-1.334,4.594-0.635,6.377,1.201c-2.346,0.736-4.75,1.438-7.119,2.244
			c-4.354,1.48-7.281,4.377-9.373,8.019h15.346c1.154-0.55,2.41-0.983,3.771-1.313c5.842-1.418,6.686-1.543,9.719,1.313h2.322
			C352.916,109.871,350.842,107.303,348.443,105.09z"/>
		<path style="fill:none;" d="M161.706,67.833c0.465,0.579,0.919,1.607,1.402,1.621c0.593,0.017,1.212-0.814,2.203-1.57
			c-0.905-0.506-1.439-1.053-1.906-1.003C162.811,66.944,162.27,67.494,161.706,67.833z"/>
		<path style="fill:none;" d="M182.392,59.819c-0.009,0.47,0.935,1.427,1.096,1.357c1.641-0.701,3.212-1.569,4.801-2.389
			C185.191,56.498,182.431,57.369,182.392,59.819z"/>
		<path style="fill:none;" d="M202.304,60.273c-0.932,0.642-1.823,1.374-2.635,2.166c-2.566,2.5-2.936,5.175-1.061,8.215
			c0.712,1.151,1.665,2.158,2.537,3.208c0.95,1.144,2.03,1.116,2.835-0.052c3.428-4.975,4.244-10.521,3.634-16.952
			C205.473,58.226,203.856,59.203,202.304,60.273z"/>
		<path style="fill:none;" d="M201.791,77.725c-0.931-0.504-3.022,0.172-4.053,0.996c-3.375,2.7-4.28,6.484-3.73,10.653
			c0.38,2.898,1.542,5.34,4.845,7.178c1.649-4.929,3.177-9.518,4.718-14.102C204.268,80.375,203.304,78.541,201.791,77.725z"/>
		<path style="fill:#FFFFFF;" d="M309.676,108.997c2.773-5.824,6.969-10.107,13.314-12.008c2.012-0.6,3.984-1.326,6.307-2.104
			c-0.82-0.565-1.383-1.04-2.021-1.381c-8.922-4.76-17.74-9.735-26.814-14.191c-12.797-6.284-25.609-12.466-36.01-22.544
			c-2.016-1.952-3.717-4.544-6.115-5.726c-5.416-2.668-11.176-4.641-16.748-6.878c-0.428,4.684-0.9,8.897-1.162,13.121
			c-0.141,2.236-0.186,4.541,0.201,6.729c0.744,4.205,0.615,8.116-1.814,11.843c-3.682,5.654-7.197,11.413-10.902,17.317
			c0.119,0.18,0.529,0.734,0.861,1.332c3.285,5.926,4.609,11.905,3.246,17.704h76.164
			C308.678,111.138,309.168,110.062,309.676,108.997z"/>
		<path style="fill:#FFFFFF;" d="M333.414,104.191c2.369-0.807,4.773-1.508,7.119-2.244c-1.783-1.836-3.824-2.535-6.377-1.201
			c-0.918,0.479-2.041,0.582-3.082,0.807c-6.711,1.452-12.234,4.474-15.486,10.657h8.453
			C326.133,108.568,329.061,105.672,333.414,104.191z"/>
		<path style="fill:#FFFFFF;" d="M343.158,110.896c-1.361,0.33-2.617,0.764-3.771,1.313h13.49
			C349.844,109.354,349,109.479,343.158,110.896z"/>
		<path style="fill:#FFFFFF;" d="M216,100.965c2.188-2.502,4.572-4.829,6.641-6.997c-0.858-2.635-1.725-5.058-2.436-7.528
			c-0.982-3.423-1.803-6.893-2.781-10.317c-0.556-1.953-1.411-3.825-1.908-5.791c-1.015-4.009-0.618-5.363,2.776-7.523
			c2.922-1.862,6.103-3.317,9.187-4.96c-1.693-2.507-3.533-5.108-5.221-7.806c-0.532-0.85-1.104-2.069-0.884-2.92
			c0.755-2.93,1.773-5.802,2.841-8.641c1.141-3.034,3.096-3.755,5.939-2.171c1.654,0.921,3.143,2.14,4.715,3.206
			c1.764,1.194,3.408,2.737,5.352,3.472c3.771,1.424,7.791,2.193,11.57,3.608c2.744,1.025,5.523,2.31,7.816,4.088
			c3.59,2.783,6.666,6.225,10.182,9.117c3.518,2.893,7.037,5.961,11.025,8.062c10.633,5.598,21.689,10.395,32.252,16.119
			c9.549,5.175,18.676,11.133,27.963,16.787c2.205,1.341,4.541,2.593,6.414,4.32c2.398,2.213,4.473,4.781,6.756,7.12h24.535
			c-0.311-1.673-0.971-3.423-1.984-4.733c-1.627-2.099-2.871-4.23-3.383-6.844c-1.309-6.67-3.844-12.776-8.119-18.165
			c-1.588-2.002-2.873-4.324-3.904-6.674c-1.932-4.398-4.535-8.249-8.045-11.526c-3.76-3.514-6.85-7.532-9.119-12.183
			c-2.664-5.455-6.223-10.165-11.885-12.805c-4.959-2.312-9.869-4.871-15.064-6.479c-4.443-1.375-6.783-3.976-7.84-8.201
			c-0.111-0.441-0.234-0.882-0.357-1.32c-1.221-4.398-5.346-7.43-9.883-6.964c-6.211,0.634-12.393,1.524-18.598,2.208
			c-1.234,0.135-2.744,0.245-3.738-0.319c-3.881-2.207-7.871-4.357-11.314-7.155c-3.582-2.911-6.562-6.555-9.83-9.855
			c-1.643-1.661-3.209-1.613-4.543,0.292c-0.52,0.742-0.73,1.802-0.803,2.74c-0.633,8.277-1.111,16.568-1.83,24.838
			c-0.375,4.277-4.164,5.82-7.584,3.191c-1.125-0.865-2.051-2.025-2.938-3.153c-1.271-1.613-2.41-3.33-3.627-4.987
			c-2.117-2.882-4.635-2.741-6.133,0.621c-1.541,3.46-2.557,7.152-3.959,10.679c-1.139,2.861-2.306,5.745-3.819,8.413
			c-1.977,3.484-5.645,4.122-9.225,4.652c-2.91,0.432-4.519-1.355-6.162-3.452c-2.151-2.745-3.768-2.509-5.337,0.375
			c1.489-1.842,2.804-0.638,4.089,0.269c2.248,1.583,3.929,5.655,3.008,7.178c-1.163,1.92-3.262,2.785-5.259,2.162
			c-2.195-0.684-3.882-3.106-3.469-5.492c0.252-1.442,1.064-2.787,1.628-4.176c-2.129,1.287-2.374,3.339-2.312,5.554
			c0.02,0.688,0.046,1.53-0.304,2.053c-1.7,2.535-9.659,3.636-12.062,1.752c-1.915-1.499-2.627-1.357-3.717,0.742
			c-1.57,3.022-3.655,3.703-6.874,2.214c-0.619-0.287-1.177-0.713-1.802-0.982c-1.58-0.679-2.922-0.805-3.556,1.328
			c-0.164,0.557-0.987,1.341-1.454,1.305c-1.265-0.095-2.613-0.361-3.724-0.947c-1.66-0.877-3.107-1.802-3.958,0.339
			c-1.224,0-2.213-0.156-3.135,0.037c-1.418,0.295-2.928,0.598-4.137,1.328c-1.275,0.77-2.572,1.886-3.198,3.172
			c-0.266,0.545,1.018,2.04,1.833,2.873c1.255,1.287,2.904,2.215,4.033,3.588c1.233,1.503,2.266,2.837,4.552,1.415
			c0.171,0.918,0.401,1.565,0.395,2.21c-0.024,2.893,1.485,3.983,4.286,3.227c0.719-0.195,1.914-0.087,2.338,0.38
			c0.747,0.825,1.237,1.989,1.539,3.095c0.61,2.236,1.812,3.132,4.104,2.85c0.566-0.071,1.212-0.041,1.73,0.169
			c3.64,1.468,4.734,3.111,4.742,6.968c0.001,0.458-0.004,0.914-0.011,1.372c-0.041,3.045,1.049,4.029,3.652,2.604
			c2.529-1.385,4.194-0.402,5.784,1.15c1.292,1.261,2.312,2.811,3.362,4.299c0.232,0.326,0.172,0.941,0.089,1.396
			c-0.579,3.113-3.469,6.041-0.705,9.438c0.16,0.196-0.137,0.826-0.306,1.221c-0.104,0.244-0.224,0.482-0.339,0.722h17.98
			C210.312,108.031,212.998,104.393,216,100.965z M162.383,61.758c0.236,0.059,0.469,0.117,0.707,0.176
			c0.097,0.734,0.527,1.713,0.21,2.144c-0.417,0.565-1.419,0.697-2.169,1.016c-0.147-0.245-0.295-0.49-0.442-0.737
			C161.254,63.492,161.818,62.625,162.383,61.758z M162.107,69.453c-0.482-0.013-0.937-1.042-1.402-1.621
			c0.564-0.339,1.105-0.888,1.698-0.953c0.467-0.05,1.001,0.497,1.906,1.003C163.32,68.639,162.701,69.47,162.107,69.453z
			 M170.808,75.739c-0.653-0.579-1.248-1.246-1.721-1.977c-0.063-0.097,0.664-0.707,1.027-1.079c0.63,0.632,1.261,1.262,2.154,2.158
			C171.512,75.316,170.9,75.822,170.808,75.739z M170.381,69.711c-0.56-0.143-1.029-1.09-1.268-1.78
			c-0.063-0.184,0.916-1.064,1.32-1c0.667,0.104,1.254,0.716,2.359,1.426C171.638,69.049,170.893,69.84,170.381,69.711z
			 M170.259,64.039c-0.193,0.105-0.959-0.826-1.461-1.276c0.671-0.734,1.339-1.469,2.212-2.426c0.899,0.77,1.408,1.204,1.918,1.64
			C172.054,62.69,171.23,63.499,170.259,64.039z M184.11,87.131c-1.747,0.05-4.576-1.956-4.096-2.831
			c0.447-0.812,1.633-1.216,2.494-1.798c1.306,0.345,3.145,2.451,2.928,3.666C185.363,86.572,184.581,87.119,184.11,87.131z
			 M185.575,78.207c-0.287,0.588-1.298,0.82-2.292,1.376c-1.224-0.833-2.575-1.446-3.46-2.466c-0.536-0.619-0.745-2.499-0.412-2.707
			c0.894-0.556,2.259-0.884,3.245-0.612c0.986,0.274,1.888,1.279,2.546,2.169C185.619,76.535,185.853,77.636,185.575,78.207z
			 M183.921,69.574c-2.429-0.033-4.435-1.736-4.002-3.107c0.264-0.838,1.972-2.059,2.44-1.84c1.509,0.701,2.741,1.991,4.08,3.056
			C185.432,68.439,184.423,69.195,183.921,69.574z M182.487,61.176c-0.161,0.07-1.105-0.887-1.096-1.357
			c0.039-2.45,2.8-3.321,5.896-1.032C185.699,59.607,184.128,60.475,182.487,61.176z M202.569,82.45
			c-1.541,4.584-3.069,9.173-4.718,14.102c-3.302-1.837-4.465-4.279-4.845-7.178c-0.549-4.168,0.356-7.953,3.73-10.653
			c1.031-0.823,3.123-1.5,4.053-0.996C202.304,78.541,203.268,80.375,202.569,82.45z M202.981,73.809
			c-0.805,1.168-1.886,1.196-2.835,0.052c-0.872-1.049-1.825-2.057-2.537-3.208c-1.875-3.04-1.506-5.715,1.061-8.215
			c0.812-0.792,1.703-1.524,2.635-2.166c1.552-1.07,3.169-2.047,5.311-3.416C207.225,63.288,206.409,68.834,202.981,73.809z"/>
		<g>
			<path style="fill:#FFFFFF;" d="M8.285,176.688c3.433,6.139,7.856,9.539,14.952,9.539c5.38,0,10.562-3.797,10.562-9.309
				c0-16.8-30.2-18.35-30.2-40.432c0-9.605,8.119-16.8,18.285-16.8c7.394,0,13.5,3.366,19.111,10.231l-7.129,5.742
				c-4.126-4.555-7.559-6.699-11.354-6.699c-4.456,0-8.582,2.443-8.582,7.955c0,13.862,30.432,17.525,30.432,38.748
				c0,11.717-8.12,20.069-21.322,20.069c-11.156,0-18.714-5.712-23.038-14.261L8.285,176.688z"/>
			<path style="fill:#FFFFFF;" d="M91.028,195.733c-20.992,0-38.023-17.032-38.023-38.024s17.031-38.022,38.023-38.022
				c20.992,0,38.023,17.03,38.023,38.022S112.02,195.733,91.028,195.733z M63.567,157.709c0,15.447,12.279,27.988,27.461,27.988
				c15.183,0,27.461-12.541,27.461-27.988c0-15.446-12.278-27.988-27.461-27.988C75.846,129.721,63.567,142.263,63.567,157.709z"/>
			<path style="fill:#FFFFFF;" d="M154.76,185.17h23.236v9.506h-33.798v-73.934h10.562V185.17z"/>
			<path style="fill:#FFFFFF;" d="M215.093,132.162c-4.225-4.521-8.021-6.832-12.311-6.832c-5.579,0-10.892,3.137-10.892,10.363
				c0,16.406,32.049,20.068,32.049,41.027c0,11.09-7.492,19.013-19.638,19.013c-10.463,0-17.527-5.052-21.587-12.774l5.149-2.938
				c3.697,6.303,8.615,9.803,16.603,9.803c6.831,0,13.07-4.852,13.07-11.98c0-19.209-31.851-20.695-31.851-42.611
				c0-8.812,7.328-15.546,16.371-15.546c6.8,0,12.344,2.904,17.461,8.911L215.093,132.162z"/>
			<path style="fill:#FFFFFF;" d="M373.85,120.742h6.369v67.299c-6.865,4.688-15.744,7.692-24.26,7.692
				c-16.701,0-29.572-4.854-29.572-28.287v-46.704h6.369v44.624c0,23.171,12.971,24.589,23.203,24.589
				c5.15,0,11.586-1.484,17.891-5.545V120.742z"/>
			<path style="fill:#FFFFFF;" d="M407.775,120.742v68.125h23.963v5.809h-30.299v-73.934H407.775z"/>
			<path style="fill:#FFFFFF;" d="M309.82,157.709c0,20.992-16.998,38.024-37.957,38.024c-20.926,0-37.957-17.032-37.957-38.024
				c0-20.959,17.031-38.022,37.957-38.022C292.822,119.687,309.82,136.75,309.82,157.709z M240.309,157.709
				c0,17.625,14.094,32.049,31.555,32.049s31.586-14.424,31.586-32.049c0-17.624-14.094-32.049-31.586-32.049
				C254.402,125.66,240.309,140.085,240.309,157.709z"/>
			<g>
				<path style="fill:#FFFFFF;" d="M431.684,121.361v7.246h-0.906v-7.246h-2.018v-0.82h4.938v0.82H431.684z"/>
				<path style="fill:#FFFFFF;" d="M438.072,128.838l-2.246-5.715l-1.275,5.484h-0.93l1.951-8.297l2.5,6.322l2.502-6.322
					l1.959,8.297h-0.936l-1.275-5.484L438.072,128.838z"/>
			</g>
		</g>
	</g>
</g>
<g id="Layer_1">
</g>
</svg>
