<?xml version="1.0" encoding="iso-8859-1"?>
<!-- Generator: Adobe Illustrator 16.0.0, SVG Export Plug-In . SVG Version: 6.00 Build 0)  -->
<!DOCTYPE svg PUBLIC "-//W3C//DTD SVG 1.1//EN" "http://www.w3.org/Graphics/SVG/1.1/DTD/svg11.dtd">
<svg version="1.1" xmlns="http://www.w3.org/2000/svg" xmlns:xlink="http://www.w3.org/1999/xlink" x="0px" y="0px"
	 width="442.533px" height="272.194px" viewBox="0 0 442.533 272.194" style="enable-background:new 0 0 442.533 272.194;"
	 xml:space="preserve">
<g id="diver_male">
	<g>
		<path style="fill:#FFFFFF;" d="M365.262,25.479c-0.244,1.055-1.021,2.102-1.791,2.022c-0.77-0.079-2.242-0.776-2.242-0.776
			l-0.471,0.219c0,0-0.262,0.626-0.189,0.981c0.076,0.357,0.592,1.126,0.191,1.405c-0.398,0.275-3.703,1.209-4.373,0.854
			c-0.67-0.356-2.406-1.98-2.807-2.001c-0.398-0.023-1.086,1.514-2.6,2.212c-1.512,0.699-4.623,1.013-5.465,1.768
			c-0.84,0.76-2.643,4.206-2.643,4.206s2.086,2.499,2.137,2.958c0.051,0.457-0.568,1.272-0.758,1.357
			c-0.189,0.091-0.59,0.483-0.59,0.483s3.846,10.545,4.523,13.646c0.68,3.105,1.67,12.976,1.898,13.515
			c0.225,0.536,0.59,1.125,0.59,1.125s2.203,0.151,2.697,0.725c0.492,0.573,0.873,2.187,0.438,2.435
			c-0.434,0.249-0.572,0.496-0.572,0.496s0.521,0.237,0.574,1.292c0.051,1.054-0.863,2.349-0.863,2.349s0.795,0.871,0.867,1.525
			c0.072,0.652,0.242,1.562-0.426,1.802c-0.67,0.241-2.18,0.345-2.516,0.316c-0.332-0.029-0.697,0.573-1.084,0.684
			c-0.383,0.109-0.93,0.271-1.902,0.146c-0.973-0.122-3.496-0.765-4.469-1.483c-0.975-0.717-1.172-0.697-1.172-0.697
			s-7.629,2.843-9.527,3.948c-1.896,1.106-3.531,1.588-3.531,1.588l1.619,1.112c0,0,0.912-0.401,1.5,0.424
			c0.594,0.831,1.109,1.301,0.648,1.948c-0.453,0.649-1.15,1.225-1.15,1.225s0.635,3.008,0.607,3.64
			c-0.029,0.633-0.377,0.771,0.205,1.236c0.58,0.463,1.838,1.051,1.854,2.078c0.018,1.023-0.012,2.549-0.912,2.188
			c-0.9-0.364-1.062-0.311-1.158,0.029c-0.092,0.343-0.434,0.545-0.23,1.186c0.205,0.639,0.428,1.177,0.393,1.744
			c-0.033,0.567,0.055,0.458-0.441,1.077c-0.395,0.495-0.76,1.081-1.281,1.447c-0.43,0.301-0.85,0.613-1.281,0.912
			c-0.193,0.135-0.379,0.286-0.576,0.417c-0.309,0.207-0.635,0.217-0.994,0.214c-0.332-0.003-0.693-0.009-1.012-0.125
			c-0.551-0.202-0.639-0.69-1.08-0.211c-0.441,0.481-1.045,1.31-1.947,1.245s-3.244-1.759-3.773-2.06
			c-0.463-0.265-1.041-0.402-1.564-0.487c-0.668-0.108-1.332-0.196-1.996-0.327c-0.223-0.044-0.445-0.09-0.668-0.132
			c-0.205-0.039-0.479-0.043-0.664-0.13c-0.156-0.072-0.234-0.156-0.414-0.183c-0.744-0.117-1.631-0.348-2.064,0.496
			c-0.436,0.843-0.9,1.427-0.289,2.151c0.609,0.726,1.395,0.041,0.377,1.017c-0.295,0.284-0.574,0.583-0.852,0.883
			c-0.557,0.604-1.098,1.219-1.633,1.839c-0.211,0.244-0.41,0.503-0.646,0.721c-0.363,0.335-0.811,0.557-1.213,0.838
			c-0.988,0.688-2,1.34-2.994,2.017c-0.562,0.384-1.131,0.761-1.695,1.14c0,0-0.771,0.814-1.498,0.234
			c-0.727-0.581-1.701-1.598-1.701-1.598s0.074,0.656-0.854,1.819c-0.93,1.164-2.223,2.632-2.223,2.632s4.094,11.13,5.818,20.606
			c1.727,9.476,2.223,27.501,1.896,28.133c-0.328,0.632-0.414,0.741-0.414,0.741s0.541,3.649-0.195,6.218
			c-0.738,2.566-1.494,4.106-3.775,6.215c-2.279,2.111-7.537,4.822-10.881,5.13c-3.344,0.306-18.209,3.567-24.186,3.439
			c-5.975-0.124-20.699-0.328-20.699-0.328s-0.578,2.517-3.123,2.271c-2.543-0.244-8.357-0.12-11.408,0.421
			c-3.053,0.539-3.982,1.106-5.291,1.852c-1.307,0.741-8.98,3.786-15.37,7.021c-6.395,3.231-19.609,15.309-22.484,16.824
			c-2.878,1.517-5.202,3.232-5.202,3.232s-2.702,30.237-4.675,36.286c-1.968,6.049-3.473,12.707-3.965,14.221
			c-0.493,1.513-1.422,2.677-1.422,2.677s-4.558-7.568-5.651-8.441c-1.091-0.871-2.617-1.496-3.329-1.944
			c-0.712-0.45-1.962-0.971-1.893-2.104c0.072-1.137,5.525-27.507,5.841-29.993c0.32-2.485,0.07-2.923,0.07-2.923
			s-9.183,2.554-13.834,3.01c-4.651,0.456-10.522-0.541-10.522-0.541s0.385-6.005,1.11-7.213c0.725-1.206,2.323-2.311,4.227-4.245
			c1.901-1.937,3.484-4.961,3.484-4.961s-0.322-1.09,0.273-1.092c0.598,0,12.576,0.512,13.2,0.176c0.625-0.335,3.298-0.7,3.298-0.7
			s0.238-9.101-0.682-13.765c-0.919-4.665-1.136-17.224-0.587-18.808c0.551-1.585,0.841-1.95,1.132-2.314
			c0.291-0.363,0.696-1.468,1.191-1.789c0.494-0.32,3.924-1.63,5.492-1.809c1.57-0.174,3.214,0.305,4.214-0.207
			c1.004-0.508,2.151-1.499,2.878-1.514c0.727-0.014,1.032,0.348,2.241-0.117c1.205-0.467,5.69-5.343,6.81-5.995
			c1.118-0.656,1.248-0.076,1.655-0.585c0.406-0.508,11.544-14.009,16.7-18.229c5.154-4.22,11.838-7.222,15.149-8.388
			c3.314-1.166,5.768-1.709,6.992-2.639l5.488-4.192c0,0,1.713-3.041,6.227-7.653c4.518-4.61,14.393-15.782,14.885-17.295
			c0.49-1.511,0.922-5.933,3.201-9.234c2.281-3.301,6.418-7.143,6.418-7.143s9.75-3.41,10.229-4.457
			c0.479-1.049,0.348-2.822,1.391-4.727c1.045-1.906,2.467-3.987,1.725-4.101c-0.742-0.118-1.031-0.347-1.787,0.599
			c-0.754,0.945-11.717,13.036-12.502,12.527s-17.688-12.454-19.449-13.979c-1.762-1.525-2.123-1.22-1.875-1.974
			c0.244-0.757,4.148-6.094,4.148-6.094s0.219-1.615,0.811-2.807c0.598-1.192,8.129-10.78,8.129-10.78l0.801-0.552l8.68-12.366
			c0,0-1.092-0.869-1.055-1.14c0.037-0.267,4.201-6.233,4.551-6.073c0.348,0.159,0.879,0.167,0.879,0.167s6.656-7.966,7.529-8.756
			c0.869-0.795,5.875-1.622,8.359-2.497s5.059,0.228,5.205-0.251c0.145-0.48,0.131-0.909,0.131-0.909s2.93-3.258,3.037-3.321
			c0.109-0.062,2.215-0.464,2.215-0.464s-0.404-0.085,0.277-1.089c0.682-1.005,1.418-1.549,1.418-1.549s-2.045,0.096-2.48-0.252
			c-0.438-0.35-1.426-1.496-1.426-1.496s2.723-3.782,3.184-3.77c0.469,0.017,1.887,0.851,1.887,0.851s2.383-0.6,2.725-0.506
			c0.344,0.096,1.295,0.334,2.609,0.924c1.32,0.591,2.152,3.385,2.408,4.067c0.26,0.684,0.469,1.207,0.469,1.207
			s-0.223,1.997,0.229,2.475c0.449,0.479,1.598,0.68,2.021,0.9c0.424,0.218,2.646,0.24,2.646,0.24s3.254-1.094,4.098-1.254
			c0.844-0.161,1.031-0.846,1.25-1.266c0.217-0.424,0.391-1.236,0.316-1.891c-0.076-0.654-0.482-1.933,0.082-4.579
			c0.564-2.645,1.217-3.912,3.439-5.947c2.221-2.039,9.75-4.008,12.023-4.395c2.275-0.389,3.189-0.489,4.754,0.759
			s2.846,2.629,2.846,2.629s0.443-0.183,1.025-0.016c0.58,0.164,2.145,0.82,2.145,0.82s3.645-0.842,4.059-0.689
			c0.416,0.153,4.014,9.516,3.834,9.968c-0.182,0.451-2.49,2.895-2.49,2.895s0.721,1.113,0.941,1.288
			c0.215,0.171,0.529,0.599,0.732,0.942c0.203,0.342,0.363,0.292,0.363,0.292s4.826-0.972,5.166-1.179
			c0.342-0.202,1.365-0.813,1.963-0.813c0.596-0.001,1.203,0.127,2.086,1.485C364.516,20.001,365.51,24.426,365.262,25.479z
			 M283.225,164.276c0,0-2.184-5.318-3.699-8.79c-1.516-3.471-9.223-21.414-9.223-21.414s-1.723,1.188-5.643,4.014
			c-3.924,2.822-11.57,6.363-13.025,7.585c-1.451,1.223-1.672,0.748-3.324,1.631c-1.658,0.882-8.74,4.755-10.145,4.945
			c-1.402,0.189-5.283,0.425-9.24,2.328c-3.961,1.901-29.67,18.889-29.67,18.889s-0.405,2-2.077,3.345
			c-1.668,1.348-7.092,6.427-8.492,8.404c-1.402,1.978-2.682,8.58-3.125,9.653c-0.44,1.076-0.82,0.357-1.291,1.173
			s-2.536,8.991-2.593,9.66s0.939,0.689,2.051,0.266c1.111-0.421,11.577-7.192,14.085-9.059c2.505-1.872,26.639-30.84,27.215-31.333
			c0.574-0.494,1.688,0.573,1.688,0.573s3.123-1.676,4.189-1.598s2.424,3.603,2.732,3.968c0.305,0.361,0.754,0.841,1.053,1.734
			c0.301,0.893,1.887,5.019,1.887,5.019s7.148-2.391,8.066-2.495c0.918-0.102,1.018,0.219,2.979-0.002
			c1.965-0.219,18.627-8.114,20.529-8.263c1.908-0.146,3.33-1.032,6.369-0.514C277.559,164.518,283.225,164.276,283.225,164.276z
			 M308.074,22.648c0.002-0.402-0.336-1.352-0.361-1.416c-0.072,0.048-1.574,0.558-2.406,0.964
			c-0.879,0.429-3.207,1.667-3.455,1.976c-0.246,0.311-0.311,1.359-0.289,1.558c0.021,0.194,0.201,0.308,0.922,0.526
			c0.719,0.215,3.688-0.332,3.688-0.332s0.67-0.537,1.012-1.008C307.529,24.446,308.07,23.063,308.074,22.648z M307.982,14.478
			c-0.115-1.045-1.287-2.039-2.197-2.466c-0.908-0.428-1.996-0.108-2.42-0.029c-0.42,0.082-0.332,1.165-0.201,1.447
			c0,0,3.885,3.637,4.525,3.732C308.33,17.256,308.104,15.527,307.982,14.478z M313.014,22.856l-2.908-1.13
			c-0.02-0.031,0.061,0.093,0.061,0.093s-0.58,1.026-0.76,1.657c-0.176,0.632-0.941,2.076-1.076,2.356
			c-0.133,0.281,0.234,0.336,0.719,0.334c0.477-0.006,3.965-1.985,4.098-2.266C313.281,23.62,313.014,22.856,313.014,22.856z
			 M341.139,46.904c-0.033,0.154,0.322,2.877,0.393,3.054c0.068,0.172,1.191-0.152,1.316-0.382c0.123-0.228-0.984-2.571-1.092-2.775
			C341.756,46.802,341.17,46.75,341.139,46.904z M341.607,58.027c-0.211-0.107-0.436,0.843-0.5,1.149c0,0,1.893,2.404,2.307,2.258
			c0.416-0.144-0.832-2.392-1.084-2.891C342.072,58.042,341.818,58.134,341.607,58.027z M340.619,45.059
			c-0.002,0.296,0.494,0.277,0.676,0.123c0.18-0.152-0.738-2.434-0.738-2.434s-0.426,0.015-0.52,0.239
			C339.945,43.214,340.619,44.762,340.619,45.059z M344.711,63.839c0-0.299-1.004-0.683-1.004-0.683s-1.926,1.442-2.127,1.696
			c-0.203,0.256-0.879,0.728-1.146,0.693c-0.271-0.037-0.787-0.508-1.203-0.662c-0.416-0.151-0.305,0.232-0.414,0.444
			c-0.109,0.21-1.605,4.256-1.977,5.092c-0.369,0.835-0.561,1.518-0.406,1.697c0.152,0.182,2.035-0.159,2.449-0.306
			c0.416-0.145,1.256-0.308,1.742-0.692c0.49-0.386,0.318-1.593,1.051-2.735c0.736-1.141,2.104-2.189,2.584-2.64
			C344.742,65.293,344.713,64.137,344.711,63.839z M342.475,52.168c-0.256,0.095-0.494,1.215-0.631,1.76l0.861,3.547
			c0.125,0.515,1.873,4.294,2.045,4.967c0.178,0.676-0.238-1.859-0.227-2.325c0.016-0.465-0.354-7.012-0.42-7.303
			C344.035,52.522,342.729,52.075,342.475,52.168z M307.713,21.233c0.006-0.002,0.008-0.003,0-0.004
			C307.713,21.229,307.717,21.231,307.713,21.233L307.713,21.233z"/>
		<g>
			<path style="fill:#FFFFFF;" d="M8.285,131.922c3.433,6.139,7.856,9.539,14.952,9.539c5.38,0,10.562-3.797,10.562-9.309
				c0-16.8-30.2-18.35-30.2-40.431c0-9.605,8.119-16.8,18.285-16.8c7.394,0,13.5,3.366,19.111,10.232l-7.129,5.742
				c-4.126-4.555-7.559-6.699-11.354-6.699c-4.456,0-8.582,2.442-8.582,7.954c0,13.863,30.432,17.526,30.432,38.749
				c0,11.717-8.12,20.069-21.322,20.069c-11.156,0-18.714-5.712-23.038-14.261L8.285,131.922z"/>
			<path style="fill:#FFFFFF;" d="M91.028,150.968c-20.992,0-38.023-17.032-38.023-38.024c0-20.992,17.031-38.023,38.023-38.023
				c20.992,0,38.023,17.031,38.023,38.023C129.051,133.936,112.02,150.968,91.028,150.968z M63.567,112.944
				c0,15.447,12.279,27.988,27.461,27.988c15.183,0,27.461-12.541,27.461-27.988s-12.278-27.988-27.461-27.988
				C75.846,84.956,63.567,97.497,63.567,112.944z"/>
			<path style="fill:#FFFFFF;" d="M154.76,140.404h23.236v9.506h-33.798V75.977h10.562V140.404z"/>
			<path style="fill:#FFFFFF;" d="M215.093,87.397c-4.225-4.521-8.021-6.833-12.311-6.833c-5.579,0-10.892,3.136-10.892,10.364
				c0,16.405,32.049,20.068,32.049,41.027c0,11.09-7.492,19.013-19.638,19.013c-10.463,0-17.527-5.052-21.587-12.774l5.149-2.938
				c3.697,6.303,8.615,9.803,16.603,9.803c6.831,0,13.07-4.852,13.07-11.98c0-19.209-31.851-20.696-31.851-42.611
				c0-8.812,7.328-15.546,16.371-15.546c6.8,0,12.344,2.904,17.461,8.912L215.093,87.397z"/>
			<path style="fill:#FFFFFF;" d="M373.85,75.977h6.369v67.299c-6.865,4.688-15.744,7.692-24.26,7.692
				c-16.701,0-29.572-4.854-29.572-28.287V75.977h6.369v44.624c0,23.171,12.971,24.589,23.203,24.589
				c5.15,0,11.586-1.484,17.891-5.545V75.977z"/>
			<path style="fill:#FFFFFF;" d="M407.775,75.977v68.125h23.963v5.809h-30.299V75.977H407.775z"/>
			<path style="fill:#FFFFFF;" d="M309.82,112.944c0,20.992-16.998,38.024-37.957,38.024c-20.926,0-37.957-17.032-37.957-38.024
				c0-20.959,17.031-38.023,37.957-38.023C292.822,74.921,309.82,91.985,309.82,112.944z M240.309,112.944
				c0,17.625,14.094,32.048,31.555,32.048s31.586-14.424,31.586-32.048s-14.094-32.049-31.586-32.049
				C254.402,80.895,240.309,95.319,240.309,112.944z"/>
			<g>
				<path style="fill:#FFFFFF;" d="M431.684,76.596v7.247h-0.906v-7.247h-2.018v-0.82h4.938v0.82H431.684z"/>
				<path style="fill:#FFFFFF;" d="M438.072,84.073l-2.246-5.715l-1.275,5.485h-0.93l1.951-8.297l2.5,6.323l2.502-6.323l1.959,8.297
					h-0.936l-1.275-5.485L438.072,84.073z"/>
			</g>
		</g>
	</g>
</g>
<g id="Layer_1">
</g>
</svg>
