<?xml version="1.0" encoding="iso-8859-1"?>
<!-- Generator: Adobe Illustrator 16.0.0, SVG Export Plug-In . SVG Version: 6.00 Build 0)  -->
<!DOCTYPE svg PUBLIC "-//W3C//DTD SVG 1.1//EN" "http://www.w3.org/Graphics/SVG/1.1/DTD/svg11.dtd">
<svg version="1.1" xmlns="http://www.w3.org/2000/svg" xmlns:xlink="http://www.w3.org/1999/xlink" x="0px" y="0px"
	 width="442.533px" height="281.807px" viewBox="0 0 442.533 281.807" style="enable-background:new 0 0 442.533 281.807;"
	 xml:space="preserve">
<g id="diver_female">
	<g>
		<path style="fill:#FFFFFF;" d="M280.801,144.659c0,0,4.512-11.443,9.725-21.238c5.217-9.795,4.494-15.395,5.182-23.021
			c0.691-7.626-0.957-6.923,4.244-13.714c5.205-6.792,14.186-17.667,19.027-27.258c4.842-9.593,4.77-16.127,8.166-24.644
			c3.395-8.518,6.258-9.299,9.564-16.025c3.303-6.728,6.842-14.451,4.984-18.758c0,0-5.773,1.299-9.361,6.44
			c-3.586,5.14-5.381,2.73-8.361,6.671c-2.982,3.941-4.008,5.08-4.008,5.08s-1.604-1.354-2.264-0.077
			c-0.658,1.277-3.027,4.835-3.027,4.835s-1.205,0.897,0.609,2.28c0,0-6.684,5.759-11.369,15.459
			c-4.684,9.702-5.344,10.978-7.27,13.571c-1.926,2.594-3.305,2.908-3.305,2.908s-6.184-5.245-7.92-5.414
			c-1.736-0.167-2.742,2.604-2.742,2.604s-7.891-5.623-14.438,2.432c-6.547,8.055-7.973,13.083-5.475,18.3
			c0,0-1.328,1.736,0.609,2.278c1.939,0.542,0.516,1.75-1.459,2.919c-1.975,1.17-4.635,1.166-5.27,3.735
			c-0.635,2.568,0.855,5.577,3.594,4.476c2.736-1.101-1.166,1.503,0.633,2.411c1.799,0.908,1.531-1.363,3.857-0.549
			c2.328,0.813,3.566,2.025,1.582,7.357c-1.984,5.333-1.432,10.351-1.875,16.296c-0.443,5.943-4.621,5.461-5.525,9.576
			c-0.904,4.117,1.6,5.867-2.279,8.256c-3.877,2.389-7.971,1.617-13.266,9.039c-5.297,7.421-2.488,7.876-8.873,14.538
			c-6.387,6.661-7.781,5.341-13.375,10.7c-5.595,5.361-6.587,8.607-13.063,12.078c-6.477,3.472-9.513,1.353-17.093,5.906
			c-7.58,4.554-12.689,6.895-22.522,8.371c-9.832,1.477-16.359,1.205-23.847,5.131c-7.487,3.923-21.303,16.748-23.553,20.969
			c-2.25,4.22-1.837,10.763-0.591,11.633c1.247,0.869,8.047-9.208,12.709-14.062c4.662-4.854,13.897-10.454,19.31-12.235
			s16.403-4.418,19.337-3.644c0,0-0.869,2.405-4.213,3.546c-3.343,1.141-6.063-2.264-9.454-0.229
			c-3.389,2.035-3.802,11.591-5.685,18.27c-1.881,6.678-5.365,8.184-6.954,12.287c-1.589,4.102-1.65,11.82-1.378,21.391
			c0.269,9.568,1.547,28.149,5.396,26.118c0,0,6.514-4.023,13.654-5.294c0,0,2.677,0.479,0.988-6.723
			c-1.69-7.203-6.082-31.114-3.185-40.906c2.896-9.791,12.501-17.911,19.606-22.449c7.105-4.539,12.191-5.853,12.191-5.853
			s13.601-0.236,25.588,3.497c11.988,3.732,23.166,8.293,29.253-0.43s12.244-35.465,16.232-42.178
			c3.99-6.711,10.18-10.268,12.35-15.702C276.195,145.615,277.482,142.112,280.801,144.659z M317.799,38.22
			c-0.357-4.303,1.42-7.348,5.137-13.67c3.719-6.322,6.061-6.194,6.061-6.194s-3.836,5.663-6.428,9.875
			C319.975,32.442,317.799,38.22,317.799,38.22z M296.904,70.311c0,0,5.678-7.968,8.602-12.99c2.928-5.022,5.676-9.127,5.912-6.645
			c0.236,2.481-3.701,6.797-6.922,12.078C301.273,68.032,294.709,74.454,296.904,70.311z M231.025,193.075
			c-4.139-1.036-9.673-2.234-13.647-1.186c-3.974,1.048-4.486,0.404-2.359-0.604c0,0,4.978-2.317,11.61-5.681
			c6.631-3.361,9.023-3.798,11.508-4.707c3.266-1.195,2.289,1.366,0.801,5.654C237.451,190.842,235.168,194.113,231.025,193.075z"/>
		<g>
			<path style="fill:#FFFFFF;" d="M8.285,134.165c3.433,6.139,7.856,9.539,14.952,9.539c5.38,0,10.562-3.796,10.562-9.308
				c0-16.8-30.2-18.35-30.2-40.431c0-9.605,8.119-16.8,18.285-16.8c7.394,0,13.5,3.366,19.111,10.232l-7.129,5.742
				c-4.126-4.555-7.559-6.699-11.354-6.699c-4.456,0-8.582,2.442-8.582,7.954c0,13.863,30.432,17.526,30.432,38.749
				c0,11.716-8.12,20.069-21.322,20.069c-11.156,0-18.714-5.712-23.038-14.26L8.285,134.165z"/>
			<path style="fill:#FFFFFF;" d="M91.028,153.21c-20.992,0-38.023-17.032-38.023-38.023c0-20.992,17.031-38.023,38.023-38.023
				c20.992,0,38.023,17.031,38.023,38.023C129.051,136.178,112.02,153.21,91.028,153.21z M63.567,115.187
				c0,15.447,12.279,27.987,27.461,27.987c15.183,0,27.461-12.541,27.461-27.987s-12.278-27.988-27.461-27.988
				C75.846,87.198,63.567,99.74,63.567,115.187z"/>
			<path style="fill:#FFFFFF;" d="M154.76,142.646h23.236v9.506h-33.798V78.219h10.562V142.646z"/>
			<path style="fill:#FFFFFF;" d="M215.093,89.64c-4.225-4.521-8.021-6.833-12.311-6.833c-5.579,0-10.892,3.136-10.892,10.364
				c0,16.405,32.049,20.068,32.049,41.027c0,11.089-7.492,19.012-19.638,19.012c-10.463,0-17.527-5.052-21.587-12.774l5.149-2.938
				c3.697,6.302,8.615,9.802,16.603,9.802c6.831,0,13.07-4.852,13.07-11.98c0-19.209-31.851-20.696-31.851-42.611
				c0-8.812,7.328-15.546,16.371-15.546c6.8,0,12.344,2.904,17.461,8.912L215.093,89.64z"/>
			<path style="fill:#FFFFFF;" d="M373.85,78.219h6.369v67.298c-6.865,4.688-15.744,7.692-24.26,7.692
				c-16.701,0-29.572-4.854-29.572-28.287V78.219h6.369v44.624c0,23.17,12.971,24.588,23.203,24.588
				c5.15,0,11.586-1.484,17.891-5.544V78.219z"/>
			<path style="fill:#FFFFFF;" d="M407.775,78.219v68.125h23.963v5.809h-30.299V78.219H407.775z"/>
			<path style="fill:#FFFFFF;" d="M309.82,115.187c0,20.992-16.998,38.023-37.957,38.023c-20.926,0-37.957-17.032-37.957-38.023
				c0-20.959,17.031-38.023,37.957-38.023C292.822,77.164,309.82,94.228,309.82,115.187z M240.309,115.187
				c0,17.625,14.094,32.048,31.555,32.048s31.586-14.423,31.586-32.048s-14.094-32.049-31.586-32.049
				C254.402,83.137,240.309,97.562,240.309,115.187z"/>
			<g>
				<path style="fill:#FFFFFF;" d="M431.684,78.838v7.247h-0.906v-7.247h-2.018v-0.82h4.938v0.82H431.684z"/>
				<path style="fill:#FFFFFF;" d="M438.072,86.315l-2.246-5.715l-1.275,5.485h-0.93l1.951-8.297l2.5,6.323l2.502-6.323l1.959,8.297
					h-0.936l-1.275-5.485L438.072,86.315z"/>
			</g>
		</g>
	</g>
</g>
<g id="Layer_1">
</g>
</svg>
