<?xml version="1.0" encoding="iso-8859-1"?>
<!-- Generator: Adobe Illustrator 16.0.0, SVG Export Plug-In . SVG Version: 6.00 Build 0)  -->
<!DOCTYPE svg PUBLIC "-//W3C//DTD SVG 1.1//EN" "http://www.w3.org/Graphics/SVG/1.1/DTD/svg11.dtd">
<svg version="1.1" xmlns="http://www.w3.org/2000/svg" xmlns:xlink="http://www.w3.org/1999/xlink" x="0px" y="0px"
	 width="442.533px" height="168.258px" viewBox="0 0 442.533 168.258" style="enable-background:new 0 0 442.533 168.258;"
	 xml:space="preserve">
<g id="dolphin_2">
	<g>
		<path style="fill:#FFFFFF;" d="M155.714,136.98c1.16,2.176,2.592,6.172,4.535,9.928c0.734,1.418,2.29,3.52,3.075,5.094
			c2.854,5.736,8.268,9.41,9.851,11.012c1.579,1.594,7.623,4.844,10.917,5.211c3.299,0.367,1.855-2.428,0.338-4.307
			c-1.518-1.881-5.246-8.924-5.654-10.699c-0.402-1.771-1.439-5.973-1.462-7.701c-0.013-1.721,1.439-1.197-2.518-3.855
			c-1.792-1.205-3.105-1.756-3.083-2.002c0.025-0.299,1.383-0.02,1.875-0.051c0.9-0.047,14.642,1.584,14.642,1.584
			s13.641,9.545,15.273,10.371c1.632,0.818,1.134-0.129,1.09-0.484c-0.047-0.355,0.213-0.25-0.798-1.096
			c-1.013-0.842-7.167-8.17-7.167-8.17s3.128-0.658,4.982-0.725c9.141,0.367,29.277-2.791,33.949-4.482
			c4.678-1.693,15.887-3.51,21.738-5.787c5.846-2.279,20.322-9.535,24.389-11.123c4.062-1.572,14.838-7.072,18.588-8.885
			c3.75-1.826,22.918-12.965,24.33-14.34c1.406-1.383,12.348-8.621,15.133-10.924c2.779-2.305,7.361-6.35,7.361-6.35l0.768-0.402
			c0,0,0.602,1.025,3.211,2.828c2.613,1.803,5.482,0.628,8.121-0.07c2.646-0.698,6.42-4.292,4.676-4.054
			c-1.744,0.233-1.775-1.26-2.314-2.474c-0.525-1.215,2.602-7.012,3.684-9.125c1.082-2.12,1.045-3.207,0.002-3.512
			c-1.035-0.285-1.934-0.143-1.559-0.274c0.361-0.128,3.283-2.083,3.926-3.473c0.646-1.388,1.021-6.562,1.217-7.724
			c0.199-1.153,3.406-7.051,6.602-10.666c3.195-3.622,1.389-3.317-0.182-3.071c-1.977,0.307-4.512,2.216-7.014,4.486
			c-1.211,1.104-6.174,5.605-10.811,10.689c-4.936,5.416-9.859,11.494-10.148,11.735c-0.568,0.47-1.072,0.661-1.072,0.661
			l-4.299,0.837c0,0-2.318,0.532-5.393,0.89c-1.838,0.217-3.852,0.134-6.055,0.508c-4.832,0.828-10.18,2.295-10.625,2.422
			c-0.758,0.22-3.107,1.413-6.543,3.088c-2.506,1.22-5.83,2.595-8.635,4.3c-6.633,4.039-25.484,6.784-28.518,7.434
			c-3.029,0.646-14.424,1.354-14.424,1.354s-2.361,0.092-6.027,0.027c-1.727-0.023-3.617-0.104-5.965-0.262
			c-2.289-0.154-4.541-0.464-6.301-1.401c-1.928-1.026-3.305-2.741-4.266-4.443c-1.82-3.248-0.916-5.986,0.785-8.947
			c1.697-2.954,1.717-5.548-4.75-2.837c-2.084,0.871-6.205,2.305-9.428,5.217c-6.744,6.124-14.151,16.125-14.151,16.125
			s-2.216,0.055-5.899,0.16c-1.596,0.039-3.473,0.402-6.095,0.336c-3.109-0.082-8.806,0.357-14.725,0.473
			c-3.596,0.074-7.412,0.262-10.694,0.279c-4.85,0.02-8.689-0.135-10.143-0.092c-4.052,0.127-17.142-0.529-21.286-0.396
			c-2.443,0.084-7.979,0.645-12.805,1.395c-3.386,0.516-6.457,1.217-7.71,1.486c-1.542,0.328-3.701,1.037-5.935,1.889
			c-2.146,0.818-3.824,1.658-4.854,2.197c-2.609,1.377-6.746,5.922-7.304,6.07c-0.556,0.15-3.337,0.502-5.412,0.73
			c-2.08,0.225-3.799,1.779-3.799,1.779s-1.435-0.346-2.901,0.998c-1.46,1.34-1.034,3.561,1.283,4.625
			c3.154,1.453,13.939,3.338,16.266,3.535c2.32,0.203,12.49,2.412,21.409,7.338c4.907,2.713,7.81,3.709,10.104,4.516
			c1.881,0.664,3.375,1.25,5.065,2.182C149.921,130.664,154.108,133.973,155.714,136.98z"/>
		<g>
			<path style="fill:#FFFFFF;" d="M8.285,57.001c3.433,6.139,7.856,9.539,14.952,9.539c5.38,0,10.562-3.797,10.562-9.309
				c0-16.8-30.2-18.35-30.2-40.431C3.598,7.195,11.717,0,21.883,0c7.394,0,13.5,3.366,19.111,10.232l-7.129,5.742
				c-4.126-4.555-7.559-6.699-11.354-6.699c-4.456,0-8.582,2.442-8.582,7.954c0,13.863,30.432,17.526,30.432,38.749
				c0,11.717-8.12,20.069-21.322,20.069C11.882,76.047,4.324,70.335,0,61.787L8.285,57.001z"/>
			<path style="fill:#FFFFFF;" d="M91.028,76.047c-20.992,0-38.023-17.032-38.023-38.024C53.005,17.031,70.036,0,91.028,0
				c20.992,0,38.023,17.031,38.023,38.023C129.051,59.015,112.02,76.047,91.028,76.047z M63.567,38.023
				c0,15.447,12.279,27.988,27.461,27.988c15.183,0,27.461-12.541,27.461-27.988s-12.278-27.988-27.461-27.988
				C75.846,10.035,63.567,22.577,63.567,38.023z"/>
			<path style="fill:#FFFFFF;" d="M154.76,65.484h23.236v9.506h-33.798V1.056h10.562V65.484z"/>
			<path style="fill:#FFFFFF;" d="M215.093,12.477c-4.225-4.521-8.021-6.833-12.311-6.833c-5.579,0-10.892,3.136-10.892,10.364
				c0,16.405,32.049,20.068,32.049,41.027c0,11.09-7.492,19.013-19.638,19.013c-10.463,0-17.527-5.052-21.587-12.774l5.149-2.938
				c3.697,6.303,8.615,9.803,16.603,9.803c6.831,0,13.07-4.852,13.07-11.98c0-19.209-31.851-20.696-31.851-42.611
				C185.685,6.734,193.013,0,202.056,0c6.8,0,12.344,2.904,17.461,8.912L215.093,12.477z"/>
			<path style="fill:#FFFFFF;" d="M373.85,1.056h6.369v67.299c-6.865,4.688-15.744,7.692-24.26,7.692
				c-16.701,0-29.572-4.854-29.572-28.287V1.056h6.369V45.68c0,23.171,12.971,24.589,23.203,24.589
				c5.15,0,11.586-1.484,17.891-5.545V1.056z"/>
			<path style="fill:#FFFFFF;" d="M407.775,1.056v68.125h23.963v5.809h-30.299V1.056H407.775z"/>
			<path style="fill:#FFFFFF;" d="M309.82,38.023c0,20.992-16.998,38.024-37.957,38.024c-20.926,0-37.957-17.032-37.957-38.024
				C233.906,17.064,250.938,0,271.863,0C292.822,0,309.82,17.064,309.82,38.023z M240.309,38.023
				c0,17.625,14.094,32.048,31.555,32.048s31.586-14.424,31.586-32.048S289.355,5.974,271.863,5.974
				C254.402,5.974,240.309,20.399,240.309,38.023z"/>
			<g>
				<path style="fill:#FFFFFF;" d="M431.684,1.675v7.247h-0.906V1.675h-2.018v-0.82h4.938v0.82H431.684z"/>
				<path style="fill:#FFFFFF;" d="M438.072,9.152l-2.246-5.715l-1.275,5.485h-0.93l1.951-8.297l2.5,6.323l2.502-6.323l1.959,8.297
					h-0.936l-1.275-5.485L438.072,9.152z"/>
			</g>
		</g>
	</g>
</g>
<g id="Layer_1">
</g>
</svg>
