<?xml version="1.0" encoding="iso-8859-1"?>
<!-- Generator: Adobe Illustrator 16.0.0, SVG Export Plug-In . SVG Version: 6.00 Build 0)  -->
<!DOCTYPE svg PUBLIC "-//W3C//DTD SVG 1.1//EN" "http://www.w3.org/Graphics/SVG/1.1/DTD/svg11.dtd">
<svg version="1.1" xmlns="http://www.w3.org/2000/svg" xmlns:xlink="http://www.w3.org/1999/xlink" x="0px" y="0px"
	 width="442.533px" height="160.204px" viewBox="0 0 442.533 160.204" style="enable-background:new 0 0 442.533 160.204;"
	 xml:space="preserve">
<g id="dolphin">
	<g>
		<path style="fill:#FFFFFF;" d="M365.514,54.851c0.297-1.276-0.6-2.416-2.469-3.203c-1.582-0.656-11.09-0.062-11.09-0.062
			s-3.578-4.326-9.227-5.985c-9.195-2.705-16.338-0.709-22.148,1.218c-4.383,1.456-8.676,2.617-11.979,4.209
			c-4.932,2.373-8.049,5.009-8.996,5.393c-1.568,0.641-14.67,9.315-17.822,11.378c-3.141,2.058-22.537,11.956-22.537,11.956
			s-1.201,0.49-1.797,0.277c-0.604-0.215-1.352-0.429-3.672-3.132c-1.152-1.341-5.18-5.048-9.57-8.354
			c-4.445-3.346-9.254-6.287-10.949-7.146c-3.371-1.708-6.363-0.787-7.418,0c-1.047,0.777,0.074,3.767,0.074,3.767
			s5.395,8.319,7.416,10.81c2.021,2.496,3.521,7.111,3.373,10.956c-0.15,3.839-4.42,7.111-5.77,8.388
			c-0.701,0.666-2.695,2.723-5.131,4.184c-2.24,1.337-4.913,2.1-6.029,2.501c-2.321,0.858-7.938-0.141-10.109-0.781
			c-2.171-0.636-5.839-0.636-8.387,0.432c-2.548,1.064-8.537,6.824-8.537,6.824s-1.8,0.646-3.893,1.209
			c-2.102,0.563-12.057,2.273-15.727,2.699c-3.672,0.433-11.909,2.281-12.888,2.281c-0.97,0-4.64-0.213-5.985,0.428
			c-1.352,0.64,3.071,1.417,3.071,1.417s1.121,0.505,5.915,0.787c4.795,0.28,13.104,0.708,18.273-0.642
			c5.167-1.349,5.541-0.923,10.336-1.208c4.794-0.286,1.496-0.073,2.547,0.636c1.051,0.709,10.26,10.674,17.594,16.222
			c7.342,5.55,10.194,5.19,11.01,5.403c0.828,0.213,3.371,0.354,3.67,0.641c0.305,0.286,2.994,2.417,7.939,4.335
			c4.941,1.923,17.977,1.354,17.977,1.354s-1.049,1.636-5.393,4.485c-4.346,2.841-11.533,8.816-13.557,9.956
			c-2.025,1.131-2.025,1.85,0,1.704c1.068-0.074,4.141-0.709,7.475-1.883c2.98-1.044,6.168-2.277,9.373-3.812
			c6.709-3.179,15.205-9.951,15.205-9.951s3.67-0.359,15.277-2.203c11.607-1.849,24.264-10.455,27.115-12.092
			c2.844-1.636,9.055-5.334,8.904-4.768c-0.146,0.573,0.672,2.132,0.672,2.132s2.625,2.849,6.371,7.685
			c3.748,4.835,3.445,10.028,3.221,13.085c-0.225,3.055,2.242,3.346,4.717,3.055c2.477-0.276,6.516-3.408,9.287-6.685
			c2.773-3.266,1.947-12.014,0.973-16.353c-1.121-3.632-2.094-4.408-3.064-6.262c-0.979-1.851-6.219-8.535-6.52-8.895
			c-0.143-0.164,0.229-2.416,0.66-4.762c0.494-2.645,0.014-3.057,1.361-5.547s2.174-2.772,7.115-8.394
			c4.943-5.621,7.34-12.587,8.389-14.228c1.045-1.632,6.213-6.538,8.906-9.455c2.701-2.914,6.818-6.257,8.541-9.674
			C369.336,57.773,366.623,54.978,365.514,54.851z"/>
		<g>
			<path style="fill:#FFFFFF;" d="M8.285,57.001c3.433,6.139,7.856,9.539,14.952,9.539c5.38,0,10.562-3.797,10.562-9.309
				c0-16.8-30.2-18.35-30.2-40.431C3.598,7.195,11.717,0,21.883,0c7.394,0,13.5,3.366,19.111,10.232l-7.129,5.742
				c-4.126-4.555-7.559-6.699-11.354-6.699c-4.456,0-8.582,2.442-8.582,7.954c0,13.863,30.432,17.526,30.432,38.749
				c0,11.717-8.12,20.069-21.322,20.069C11.882,76.047,4.324,70.335,0,61.786L8.285,57.001z"/>
			<path style="fill:#FFFFFF;" d="M91.028,76.047c-20.992,0-38.023-17.032-38.023-38.024C53.005,17.031,70.036,0,91.028,0
				c20.992,0,38.023,17.031,38.023,38.023C129.051,59.015,112.02,76.047,91.028,76.047z M63.567,38.023
				c0,15.447,12.279,27.988,27.461,27.988c15.183,0,27.461-12.541,27.461-27.988s-12.278-27.988-27.461-27.988
				C75.846,10.035,63.567,22.576,63.567,38.023z"/>
			<path style="fill:#FFFFFF;" d="M154.76,65.483h23.236v9.506h-33.798V1.056h10.562V65.483z"/>
			<path style="fill:#FFFFFF;" d="M215.093,12.476c-4.225-4.521-8.021-6.833-12.311-6.833c-5.579,0-10.892,3.136-10.892,10.364
				c0,16.405,32.049,20.068,32.049,41.027c0,11.09-7.492,19.013-19.638,19.013c-10.463,0-17.527-5.052-21.587-12.774l5.149-2.938
				c3.697,6.303,8.615,9.803,16.603,9.803c6.831,0,13.07-4.852,13.07-11.98c0-19.209-31.851-20.696-31.851-42.611
				C185.685,6.734,193.013,0,202.056,0c6.8,0,12.344,2.904,17.461,8.912L215.093,12.476z"/>
			<path style="fill:#FFFFFF;" d="M373.85,1.056h6.369v67.299c-6.865,4.688-15.744,7.692-24.26,7.692
				c-16.701,0-29.572-4.854-29.572-28.287V1.056h6.369V45.68c0,23.171,12.971,24.589,23.203,24.589
				c5.15,0,11.586-1.484,17.891-5.545V1.056z"/>
			<path style="fill:#FFFFFF;" d="M407.775,1.056v68.125h23.963v5.809h-30.299V1.056H407.775z"/>
			<path style="fill:#FFFFFF;" d="M309.82,38.023c0,20.992-16.998,38.024-37.957,38.024c-20.926,0-37.957-17.032-37.957-38.024
				C233.906,17.064,250.938,0,271.863,0C292.822,0,309.82,17.064,309.82,38.023z M240.309,38.023
				c0,17.625,14.094,32.048,31.555,32.048s31.586-14.424,31.586-32.048S289.355,5.974,271.863,5.974
				C254.402,5.974,240.309,20.398,240.309,38.023z"/>
			<g>
				<path style="fill:#FFFFFF;" d="M431.684,1.675v7.247h-0.906V1.675h-2.018v-0.82h4.938v0.82H431.684z"/>
				<path style="fill:#FFFFFF;" d="M438.072,9.152l-2.246-5.715l-1.275,5.485h-0.93l1.951-8.297l2.5,6.323l2.502-6.323l1.959,8.297
					h-0.936l-1.275-5.485L438.072,9.152z"/>
			</g>
		</g>
	</g>
</g>
<g id="Layer_1">
</g>
</svg>
