<?xml version="1.0" encoding="iso-8859-1"?>
<!-- Generator: Adobe Illustrator 16.0.0, SVG Export Plug-In . SVG Version: 6.00 Build 0)  -->
<!DOCTYPE svg PUBLIC "-//W3C//DTD SVG 1.1//EN" "http://www.w3.org/Graphics/SVG/1.1/DTD/svg11.dtd">
<svg version="1.1" xmlns="http://www.w3.org/2000/svg" xmlns:xlink="http://www.w3.org/1999/xlink" x="0px" y="0px"
	 width="442.533px" height="317.06px" viewBox="0 0 442.533 317.06" style="enable-background:new 0 0 442.533 317.06;"
	 xml:space="preserve">
<g id="freedive">
	<g>
		<path style="fill:#FFFFFF;" d="M225.088,0.013c10.111-0.399,15.23,8.187,19.557,23.266c4.326,15.08,12.117,26.843,19.27,35.786
			s0.09,9.881-3.703,15.062c-3.555,4.852-3.367,16.72-6.016,25.693c9.219-1.756,18.383-3.777,22.783-5.521
			c9.504-3.763,8.83-14.081,9.914-20.236c5.215-29.566,17.758-62.146,29.512-55.539c11.756,6.606-5.852,33.191-11.682,44.403
			s-8.441,27.297-9.525,33.452s-1.277,9.181-7.719,9.064c-6.439-0.115-13.627,1.45-25.031,6.353
			c-11.404,4.901-19.652,7.98-18.877,13.217c0.779,5.236,21.533,14.79,34.967,27.925c13.438,13.135,6.947,22.303,12.74,30.578
			c5.795,8.274,23.574,16.056,34.969,27.924c11.393,11.869,9.131,20.195,11.213,23.17c2.064,2.946,11.129-5.433,18.604,4.85
			c3.723-2.604,12.307-8.616,13.908-9.737c2.059-1.44,2.018,2.881,2.018,2.881l-14.387,9.382
			c5.133,10.343-2.066,22.578-11.451,24.301c1.725,0.775,1.93,0.594,1.154,2.832c-0.773,2.24-8.604-1.585-10.369-0.347
			c-1.768,1.237-3.963,0.607-3.408-0.602c0.559-1.21-0.188-1.858-0.604-3.207c-0.416-1.345-2.723,0.795-3.256,1.872
			c-0.533,1.076-1.418,1.987-0.959,4.065c0.461,2.079-0.855,2.707-4.094,1.344c-3.236-1.362,0.383-6.267,0.541-7.168
			c0.16-0.901-1.113-2.263-2.486-3.468c-1.371-1.207-0.227-4.379,0.287-7.285c0.512-2.904-2.656-2.119-2.656-2.119
			c-1.709,4.414,0.398,22.724,4.902,35.258c2.514,6.992,4.871,11.379,9.908,17.033c4.529,5.085,8.77,9.225,9.469,11.311
			c0.699,2.084-2.266,0.943-2.266,0.943c-1.736,0.863-4.623-3.847-6.664-6.173c-2.037-2.327-4.398-4.696-6.887-3.481
			c-2.484,1.212-0.121,4.523-0.447,6.365c-0.904,5.133-4.111,4.364-3.348,0.03c0.42-2.364-4.4-9.441-3.584-14.057
			c0.812-4.617-4.449-6.906-10.943-20.856s-5.396-25.315-2.383-37.253c-9.531-3.152-14.094-1.69-23.535-12.421
			c-1.133-1.287-2.291-2.711-3.455-4.228c-8.502,1.891-19.254,1.533-24.234,5.021c-5.553,3.889-8.424,12.489-14.16,14.361
			c-5.742,1.872-14.504,0.959-16.738-2.229c-2.232-3.189-0.533-4.797,1.666-4.407c2.199,0.387,4.08-0.742,2.578-2.884
			c-1.498-2.143-0.398-4.291,1.34-2.904c1.738,1.39,6.635,3.127,4.414-0.047c-2.221-3.172-0.762-6.341,1.48-4.232
			c2.242,2.11,3.691,3.085,6.82-0.33c3.125-3.415,4.184-5.844,8.557-6.605c3.686-0.642,13.635-3.384,20.119-7.563
			c-5.582-8.808-10.438-17.814-12.555-22.321c-3.541-7.531-11.758-6.61-17.281-8.717c-5.52-2.106-10.914-10.084-13.811-14.221
			c-2.898-4.139-11.406-10.512-17.808-16.628c-6.4-6.114-1.76-13.795,5.869-19.137c0,0-3.727-3.054-6.881-9.826
			c-7.148-15.349,12.307-17.096,18.811-17.988c1.623-0.223,4.814-0.705,8.84-1.361c2.268-6.141,6.461-17.399,8.721-22.861
			c3.801-9.195,8.863-12.143-5.025-32.4C227.902,27.136,214.979,0.413,225.088,0.013z"/>
		<g>
			<path style="fill:#FFFFFF;" d="M8.285,210.52c3.433,6.139,7.856,9.539,14.952,9.539c5.38,0,10.562-3.797,10.562-9.309
				c0-16.8-30.2-18.35-30.2-40.431c0-9.605,8.119-16.801,18.285-16.801c7.394,0,13.5,3.366,19.111,10.232l-7.129,5.742
				c-4.126-4.555-7.559-6.699-11.354-6.699c-4.456,0-8.582,2.442-8.582,7.954c0,13.862,30.432,17.526,30.432,38.748
				c0,11.717-8.12,20.069-21.322,20.069c-11.156,0-18.714-5.712-23.038-14.261L8.285,210.52z"/>
			<path style="fill:#FFFFFF;" d="M91.028,229.565c-20.992,0-38.023-17.032-38.023-38.023c0-20.992,17.031-38.023,38.023-38.023
				c20.992,0,38.023,17.031,38.023,38.023C129.051,212.533,112.02,229.565,91.028,229.565z M63.567,191.542
				c0,15.446,12.279,27.987,27.461,27.987c15.183,0,27.461-12.541,27.461-27.987c0-15.447-12.278-27.988-27.461-27.988
				C75.846,163.554,63.567,176.095,63.567,191.542z"/>
			<path style="fill:#FFFFFF;" d="M154.76,219.002h23.236v9.506h-33.798v-73.934h10.562V219.002z"/>
			<path style="fill:#FFFFFF;" d="M215.093,165.995c-4.225-4.521-8.021-6.833-12.311-6.833c-5.579,0-10.892,3.137-10.892,10.364
				c0,16.405,32.049,20.068,32.049,41.026c0,11.09-7.492,19.013-19.638,19.013c-10.463,0-17.527-5.052-21.587-12.774l5.149-2.938
				c3.697,6.303,8.615,9.803,16.603,9.803c6.831,0,13.07-4.852,13.07-11.98c0-19.209-31.851-20.695-31.851-42.61
				c0-8.812,7.328-15.547,16.371-15.547c6.8,0,12.344,2.904,17.461,8.912L215.093,165.995z"/>
			<path style="fill:#FFFFFF;" d="M373.85,154.574h6.369v67.299c-6.865,4.688-15.744,7.692-24.26,7.692
				c-16.701,0-29.572-4.854-29.572-28.287v-46.704h6.369v44.624c0,23.171,12.971,24.589,23.203,24.589
				c5.15,0,11.586-1.484,17.891-5.545V154.574z"/>
			<path style="fill:#FFFFFF;" d="M407.775,154.574v68.125h23.963v5.809h-30.299v-73.934H407.775z"/>
			<path style="fill:#FFFFFF;" d="M309.82,191.542c0,20.991-16.998,38.023-37.957,38.023c-20.926,0-37.957-17.032-37.957-38.023
				c0-20.959,17.031-38.023,37.957-38.023C292.822,153.519,309.82,170.583,309.82,191.542z M240.309,191.542
				c0,17.624,14.094,32.048,31.555,32.048s31.586-14.424,31.586-32.048c0-17.625-14.094-32.05-31.586-32.05
				C254.402,159.492,240.309,173.917,240.309,191.542z"/>
			<g>
				<path style="fill:#FFFFFF;" d="M431.684,155.193v7.247h-0.906v-7.247h-2.018v-0.82h4.938v0.82H431.684z"/>
				<path style="fill:#FFFFFF;" d="M438.072,162.671l-2.246-5.716l-1.275,5.485h-0.93l1.951-8.298l2.5,6.323l2.502-6.323
					l1.959,8.298h-0.936l-1.275-5.485L438.072,162.671z"/>
			</g>
		</g>
	</g>
</g>
<g id="Layer_1">
</g>
</svg>
