<?xml version="1.0" encoding="iso-8859-1"?>
<!-- Generator: Adobe Illustrator 16.0.0, SVG Export Plug-In . SVG Version: 6.00 Build 0)  -->
<!DOCTYPE svg PUBLIC "-//W3C//DTD SVG 1.1//EN" "http://www.w3.org/Graphics/SVG/1.1/DTD/svg11.dtd">
<svg version="1.1" id="Layer_1" xmlns="http://www.w3.org/2000/svg" xmlns:xlink="http://www.w3.org/1999/xlink" x="0px" y="0px"
	 width="252px" height="252.263px" viewBox="0 0 252 252.263" style="enable-background:new 0 0 252 252.263;" xml:space="preserve"
	>
<g>
	<g>
		<path style="fill:none;" d="M110.792,172.526c0.475,0.727,0.963,1.444,1.572,2.354c-2.847,0.066-4.349-1.723-5.899-3.197
			c-0.949,1.155-1.597,2.387-2.614,3.061c-1.017,0.672-1.166,1.314-0.817,2.257c0.573,1.548,1.213,3.071,1.856,4.685
			c-2.238-0.232-3.368-2.009-4.854-3.351c-1.074,0.908-2.094,1.788-3.132,2.646c-1.058,0.875-1.277,1.905-0.764,3.179
			c0.305,0.759,0.456,1.578,0.809,2.85c-1.14-0.606-1.781-0.965-2.438-1.293c-1.658-0.828-2.948-0.411-4.809,1.147
			c-1.373,1.149-0.5,2.062-0.001,3.097c0.102,0.21,0.076,0.482,0.14,0.961c-1.44-0.464-2.704-1.215-3.938-1.17
			c-1.203,0.043-2.375,0.902-3.69,1.458c0.415,0.541,0.572,0.755,0.739,0.962c1.352,1.692,1.306,2.188-0.431,3.552
			c-0.977,0.767-2.057,1.409-2.981,2.229c-1.234,1.098-2.364,2.313-3.813,3.753c4.149-0.175,4.149-0.175,4.958,3.42
			c0.023,0.105,0.035,0.214,0.054,0.319c0.596,3.105,1.191,6.211,1.787,9.315c0.217-0.919,0.296-1.835,0.203-2.731
			c-0.35-3.322-0.83-6.633-1.1-9.961c-0.08-1,0.047-2.312,0.636-3.014c1.407-1.668,2.928-3.459,4.798-4.47
			c3.06-1.654,6.438-2.715,9.673-4.048c9.82-4.047,16.688-10.905,20.412-20.666h-7.593
			C109.716,170.653,110.13,171.513,110.792,172.526z"/>
		<path style="fill:#FFFFFF;" d="M96.734,190.536c-3.235,1.333-6.613,2.394-9.673,4.048c-1.87,1.011-3.392,2.802-4.798,4.47
			c-0.589,0.701-0.716,2.014-0.636,3.014c0.27,3.328,0.75,6.639,1.1,9.961c0.094,0.896,0.014,1.812-0.203,2.731
			c-0.596-3.104-1.191-6.21-1.787-9.315c-0.02-0.105-0.031-0.214-0.054-0.319c-0.809-3.595-0.809-3.595-4.958-3.42
			c1.45-1.439,2.579-2.655,3.813-3.753c0.924-0.82,2.004-1.463,2.981-2.229c1.737-1.363,1.783-1.859,0.431-3.552
			c-0.167-0.207-0.325-0.421-0.739-0.962c1.314-0.556,2.487-1.415,3.69-1.458c1.235-0.045,2.499,0.706,3.938,1.17
			c-0.064-0.479-0.039-0.751-0.14-0.961c-0.5-1.035-1.372-1.947,0.001-3.097c1.861-1.559,3.151-1.976,4.809-1.147
			c0.657,0.328,1.299,0.687,2.438,1.293c-0.353-1.271-0.504-2.091-0.809-2.85c-0.513-1.273-0.293-2.304,0.764-3.179
			c1.038-0.857,2.058-1.737,3.132-2.646c1.487,1.342,2.616,3.118,4.854,3.351c-0.643-1.613-1.283-3.137-1.856-4.685
			c-0.349-0.942-0.2-1.585,0.817-2.257c1.017-0.674,1.666-1.905,2.614-3.061c1.55,1.475,3.052,3.264,5.899,3.197
			c-0.608-0.91-1.097-1.628-1.572-2.354c-0.662-1.014-1.076-1.873-1.239-2.656h-7.431c-0.231,0.273-0.465,0.545-0.697,0.818
			c-0.842,0.995-1.703,1.454-3.03,1.386c-1.336-0.069-2.688,0.166-4.034,0.268c1.605,1.639,0.551,2.895-0.165,3.91
			c-2.71,3.854-5.902,7.253-9.803,9.969c-1.314,0.915-2.554,1.165-3.887,0.316c-2.862-1.824-5.745-3.625-8.512-5.586
			c-5.545-3.928-10.885-8.163-16.566-11.877c-4.438-2.901-9.402-4.604-14.9-3.493c0,0.216,0,0.433,0,0.648
			c1.675,0.832,3.58,1.385,4.985,2.544c6.999,5.765,13.906,11.643,20.758,17.581c2.458,2.131,4.042,4.85,4.529,8.183
			c0.496,3.396,1.911,6.398,4.496,8.755c1.627,1.482,2.572,3.32,2.849,5.484c0.855,6.689,1.892,13.365,2.468,20.08
			c0.628,7.327,0.642,14.678-1.616,21.827c-0.131,0.418-0.124,0.882-0.179,1.324c0.173,0.085,0.346,0.171,0.52,0.255
			c0.696-0.947,1.506-1.832,2.068-2.854c3.372-6.137,4.136-12.918,4.468-19.719c0.505-10.358,0.752-20.728,1.048-31.094
			c0.031-1.098,0.44-1.593,1.374-2.055c4.413-2.185,9.043-2.234,13.771-1.593c0.958,0.13,2.077-0.028,2.057,1.732
			c1.368-1.417,2.388-2.898,3.551-4.258c0.931-1.089,1.893-2.276,3.098-2.98c1.85-1.08,3.915-1.793,5.9-2.634
			c0.276-0.116,0.677-0.191,0.925-0.079c3.165,1.447,6.126,3.176,6.857,6.959c0.481,2.483,0.692,5.019,1.054,7.526
			c0.177,1.227,0.424,2.444,0.638,3.666c0.185,0.007,0.37,0.014,0.555,0.021c0.23-0.506,0.554-0.989,0.676-1.52
			c1.721-7.496,2.75-15.076,2.619-22.785c-0.01-0.576-0.303-1.148-0.557-2.055c-1.695,1.88-3.037,3.563-4.585,5.03
			c-1.652,1.564-4.104,2.384-5.806,2.212c1.372-1.078,2.741-2.04,3.977-3.15c2.987-2.677,5.687-5.542,5.351-10.011
			c-0.07-0.937-0.184-1.852-0.324-2.753h-10.906C113.422,179.631,106.554,186.489,96.734,190.536z"/>
		<path style="fill:#FFFFFF;" d="M133.907,172.413c-0.206,0.488-0.592,0.9-0.818,1.383c-0.676,1.444-1.312,2.905-1.965,4.359
			c0.174,0.104,0.349,0.209,0.521,0.314c0.539-0.328,1.123-0.601,1.605-0.993c2.639-2.143,4.934-4.627,6.346-7.606h-4.583
			C134.641,170.717,134.267,171.562,133.907,172.413z"/>
		<path style="fill:#FFFFFF;" d="M129.778,171.519c-0.006,1.077,0.172,2.156,0.267,3.234c0.565-0.47,0.778-0.95,0.982-1.432
			c0.483-1.142,0.856-2.294,1.144-3.451h-2.453C129.758,170.412,129.782,170.96,129.778,171.519z"/>
	</g>
	<g>
		<path style="fill-rule:evenodd;clip-rule:evenodd;fill:#FFFFFF;" d="M136.362,70.815c0.271,1.371,0.586,2.736,0.787,4.117
			c0.065,0.439-0.168,0.921-0.266,1.384c-0.512-0.212-1.295-0.285-1.486-0.661c-0.577-1.14-0.941-2.39-1.359-3.607
			c-0.241-0.704-0.422-1.427-0.629-2.143c-0.181,0.025-0.361,0.053-0.542,0.078c0.392,2.988,0.785,5.977,1.177,8.964
			c-0.119,0.088-0.24,0.175-0.361,0.261c-0.893-0.938-1.934-1.775-2.65-2.833c-2.453-3.617-4.798-7.308-7.17-10.979
			c-0.731-1.133-1.446-2.28-2.123-3.447c-2.599-4.485-5.857-8.265-10.769-10.353c-0.684-0.292-1.273-0.806-1.895-1.233
			c-0.11-0.076-0.16-0.237-0.471-0.727c2.231,0.502,4.173,0.796,6.024,1.381c7.66,2.423,15.296,4.918,22.925,7.436
			c0.691,0.227,1.855,0.194,1.475,1.611c-0.34,1.261-1.125,1.862-2.336,1.771c-1.175-0.088-2.356-0.308-3.496-0.614
			c-2.585-0.696-5.145-1.481-8.286-2.397c1.024,3.123,1.898,5.787,2.772,8.451c0.209-0.021,0.419-0.041,0.629-0.062
			c0-1.225-0.039-2.451,0.009-3.674c0.077-2.004,0.532-2.323,2.374-1.667c2.643,0.941,5.281,1.89,7.899,2.892
			c3.596,1.374,4.014,2.017,4.009,5.858c-0.001,0.514-0.062,1.028-0.113,1.818c-0.795-0.841-1.398-1.479-2.091-2.21
			c0.106,1.965,0.958,3.851-0.712,5.86c-1.109-1.913-2.111-3.641-3.113-5.368C136.503,70.752,136.432,70.784,136.362,70.815z"/>
		<path style="fill:none;" d="M145.852,97.82c-0.16-0.081-0.32-0.163-0.48-0.245c-1.217,1.552-2.566,3.018-3.617,4.675
			c-1.23,1.941,0.45,3.761,0.387,5.971c-1.121-0.727-2.242-1.453-3.367-2.182c-1.962,1.606-2.751,2.885-2.481,4.466h7.668
			c0.193-0.508,0.383-1.017,0.558-1.541C145.719,105.362,146.093,101.608,145.852,97.82z"/>
		<path style="fill:#FFFFFF;" d="M138.774,106.039c1.125,0.729,2.246,1.455,3.367,2.182c0.063-2.21-1.617-4.029-0.387-5.971
			c1.051-1.657,2.4-3.123,3.617-4.675c0.16,0.082,0.32,0.164,0.48,0.245c0.241,3.788-0.133,7.542-1.334,11.144
			c-0.175,0.524-0.364,1.033-0.558,1.541h10.833c-1.181-7.296-4.682-13.439-9.959-18.539c-5.304,6.2-10.589,12.353-15.828,18.539
			h7.286C136.023,108.924,136.812,107.646,138.774,106.039z"/>
		<path style="fill:#FFFFFF;" d="M193.703,71.335c-7.198-0.682-14.407-1.265-21.608-1.922c-0.568-0.052-1.436-0.241-1.611-0.623
			c-2.061-4.451-4.054-8.937-5.979-13.451c-0.705-1.657-0.314-2.293,1.518-2.104c2.598,0.268,5.161,0.896,7.738,1.37
			c0.666,0.122,1.331,0.24,1.998,0.359c0.096-0.17,0.193-0.342,0.292-0.512c-0.628-1.039-1.095-2.23-1.911-3.09
			c-4.459-4.691-9.67-8.439-15.911-10.181c-6.409-1.787-13.077-1.278-19.648-0.774c-2.692,0.205-5.199,0.585-7.845-0.748
			c-6.824-3.438-13.092-7.715-18.41-13.096C103.791,17.931,95.684,8.877,87.396,0c-0.216,0-0.432,0-0.649,0
			c0.452,0.793,0.817,1.654,1.371,2.369c2.251,2.901,4.529,5.783,6.854,8.625c6.054,7.397,12.287,14.654,18.159,22.194
			c3.929,5.044,7.009,10.632,8.066,17.113c0.07,0.428,0.682,0.939,1.151,1.105c3.812,1.351,7.637,2.671,11.491,3.904
			c1.482,0.476,3.032,0.789,4.575,1.019c1.114,0.166,2.247,0.034,2.813-1.466c-2.695,0.005-4.896-0.998-6.658-2.757
			c-4.51-4.498-8.933-9.082-13.382-13.642c-0.216-0.222-0.333-0.541-0.496-0.815c1.668,0.738,3.11,1.676,4.576,2.573
			c2.487,1.523,4.958,3.068,8.01,3.252c0.361,0.021,0.852,0.678,0.973,1.124c0.148,0.542-0.1,1.179-0.057,1.766
			c0.158,2.169,1.607,2.906,3.488,1.786c0.553-0.332,1.035-0.785,1.592-1.113c1.062-0.623,2.482-0.253,3.301,0.813
			c0.79,1.029-0.169,1.542-0.65,2.19c-0.397,0.537-0.81,1.063-1.215,1.596c0.098,0.145,0.193,0.29,0.29,0.436
			c1.862-0.757,3.727-1.515,5.616-2.281c2.1,1.657,2.141,1.789,1.416,4.259c-0.704,2.393-1.398,4.788-2.102,7.198
			c0.166-0.032,0.611,0.013,0.855-0.188c2.008-1.637,3.977-3.319,6.137-5.14c1.49,2.068,0.416,4.5-0.226,6.604
			c-0.683,2.24-2.217,4.22-3.315,6.198c5.248-0.556,7.418-4.843,9.67-9.135c2.195,3.979-1.418,7.096-1.207,10.997
			c2.148-1.926,4.119-3.691,5.992-5.371c0.99,1.672,1.857,3.136,2.781,4.696c-5.253,1.072-10.438,1.062-15.38,2.602
			c2.116,1.572,4.429,0.683,6.63,0.647c2.281-0.036,4.559-0.33,6.838-0.512c0.006,0.063,0.013,0.126,0.02,0.189
			c-2.856,0.675-5.711,1.348-8.566,2.021c0.131,0.134,0.261,0.267,0.393,0.401c-0.321,0.946-0.789,1.874-0.916,2.846
			c-0.1,0.753-0.018,2.03,0.414,2.256c1.105,0.576,2.174-0.043,2.918-1.039c0.123-0.164,0.096-0.437,0.216-0.604
			c0.241-0.342,0.474-0.761,0.818-0.947c2.556-1.382,5.37-1.625,8.539-2.017c-0.806,2.518-1.503,4.698-2.202,6.88
			c0.059,0.049,0.115,0.099,0.173,0.147c1.171-1.479,2.343-2.96,3.515-4.439c0.136,0.07,0.271,0.14,0.406,0.208
			c-0.684,1.661-1.074,3.538-2.111,4.938c-2.188,2.959-2.343,6.285-2.443,9.69c-0.036,1.243,0.066,2.509-0.137,3.723
			c-0.445,2.644-0.831,5.328-1.639,7.871c-0.619,1.953-1.435,3.844-2.264,5.73h4.586c0.394-0.852,0.719-1.74,0.957-2.675
			c1.705-6.733,3.09-13.562,4.262-20.41c0.604-3.538,0.488-7.205,0.622-10.816c0.035-0.918,0.237-1.354,1.239-1.429
			c1.666-0.127,3.314-0.495,4.98-0.606c5.604-0.374,11.213-0.658,16.817-1.028c1.437-0.096,2.858-0.382,4.287-0.581
			c0-0.216,0-0.431,0-0.648C197.629,71.978,195.68,71.521,193.703,71.335z"/>
		<path style="fill:#FFFFFF;" d="M159.145,97.706c-1.053-6.812-4.534-12.391-9.057-17.394c-2.113-2.339-4.365-4.554-6.705-6.981
			c-1.403,2.492-3.229,3.729-5.633,4.312c-1.197,0.291-2.513,0.834-2.08,2.682c0.098,0.417-0.406,1.094-0.799,1.484
			c-1.301,1.291-2.718,2.467-4.018,3.761c-1.947,1.938-3.97,3.824-5.713,5.937c-2.276,2.76-2.839,6.059-2.359,9.986
			c0.979-0.725,1.659-1.15,2.248-1.677c2.773-2.486,5.465-5.067,8.298-7.482c2.008-1.71,4.203-3.195,6.293-4.807
			c1.32-1.018,2.398-0.826,3.436,0.45c2.826,3.473,5.836,6.806,8.502,10.395c2.691,3.621,4.545,7.62,4.913,12.134h2.497
			C159.981,106.316,159.813,102.026,159.145,97.706z"/>
	</g>
	<g>
		<path style="fill:#FFFFFF;" d="M4.718,150.852c1.955,3.495,4.473,5.432,8.514,5.432c3.064,0,6.014-2.161,6.014-5.3
			c0-9.567-17.197-10.45-17.197-23.023c0-5.47,4.624-9.567,10.413-9.567c4.21,0,7.687,1.917,10.883,5.827l-4.06,3.27
			c-2.35-2.594-4.304-3.814-6.465-3.814c-2.538,0-4.887,1.391-4.887,4.528c0,7.895,17.329,9.98,17.329,22.065
			c0,6.672-4.624,11.429-12.142,11.429c-6.352,0-10.657-3.253-13.119-8.121L4.718,150.852z"/>
		<path style="fill:#FFFFFF;" d="M51.836,161.697c-11.954,0-21.652-9.699-21.652-21.652c0-11.954,9.698-21.652,21.652-21.652
			c11.954,0,21.652,9.698,21.652,21.652C73.488,151.998,63.79,161.697,51.836,161.697z M36.198,140.045
			c0,8.796,6.992,15.938,15.638,15.938s15.637-7.142,15.637-15.938s-6.991-15.938-15.637-15.938S36.198,131.249,36.198,140.045z"/>
		<path style="fill:#FFFFFF;" d="M88.127,155.682h13.232v5.413H82.113v-42.102h6.014V155.682z"/>
		<path style="fill:#FFFFFF;" d="M122.484,125.497c-2.406-2.574-4.567-3.891-7.01-3.891c-3.177,0-6.203,1.786-6.203,5.901
			c0,9.342,18.25,11.428,18.25,23.362c0,6.315-4.266,10.827-11.182,10.827c-5.958,0-9.981-2.877-12.293-7.274l2.933-1.673
			c2.105,3.589,4.906,5.583,9.454,5.583c3.89,0,7.443-2.763,7.443-6.822c0-10.939-18.138-11.785-18.138-24.266
			c0-5.019,4.172-8.853,9.322-8.853c3.873,0,7.029,1.653,9.943,5.075L122.484,125.497z"/>
		<path style="fill:#FFFFFF;" d="M212.887,118.993h3.627v38.323c-3.908,2.67-8.966,4.381-13.813,4.381
			c-9.511,0-16.841-2.764-16.841-16.107v-26.597h3.627v25.411c0,13.195,7.386,14.003,13.214,14.003
			c2.933,0,6.597-0.846,10.187-3.158V118.993z"/>
		<path style="fill:#FFFFFF;" d="M232.208,118.993v38.794h13.645v3.308h-17.254v-42.102H232.208z"/>
		<path style="fill:#FFFFFF;" d="M176.426,140.045c0,11.953-9.68,21.652-21.615,21.652c-11.915,0-21.613-9.699-21.613-21.652
			c0-11.936,9.698-21.652,21.613-21.652C166.747,118.393,176.426,128.109,176.426,140.045z M136.843,140.045
			c0,10.036,8.025,18.25,17.968,18.25c9.944,0,17.988-8.214,17.988-18.25c0-10.037-8.025-18.251-17.988-18.251
			C144.869,121.794,136.843,130.008,136.843,140.045z"/>
		<g>
			<path style="fill:#FFFFFF;" d="M245.822,119.347v4.126h-0.517v-4.126h-1.15v-0.468h2.813v0.468H245.822z"/>
			<path style="fill:#FFFFFF;" d="M249.459,123.604l-1.279-3.255l-0.727,3.123h-0.53l1.111-4.726l1.425,3.602l1.424-3.602
				l1.116,4.726h-0.533l-0.727-3.123L249.459,123.604z"/>
		</g>
	</g>
</g>
</svg>
