<?xml version="1.0" encoding="iso-8859-1"?>
<!-- Generator: Adobe Illustrator 16.0.0, SVG Export Plug-In . SVG Version: 6.00 Build 0)  -->
<!DOCTYPE svg PUBLIC "-//W3C//DTD SVG 1.1//EN" "http://www.w3.org/Graphics/SVG/1.1/DTD/svg11.dtd">
<svg version="1.1" xmlns="http://www.w3.org/2000/svg" xmlns:xlink="http://www.w3.org/1999/xlink" x="0px" y="0px"
	 width="442.533px" height="137.216px" viewBox="0 0 442.533 137.216" style="enable-background:new 0 0 442.533 137.216;"
	 xml:space="preserve">
<g id="paddle">
	<g>
		<g>
			<path style="fill:#FFFFFF;" d="M418.639,137.216L418.639,137.216c-0.307,0-0.477-0.01-0.477-0.01l-96.941,0.002
				c-4.654,0-8.488-2.195-10.883-4.035c-1.582-1.209-2.498-2.238-2.535-2.28l-16.145-14.686h79.943c2.402,0,4.357-1.952,4.357-4.352
				c0-2.403-1.955-4.358-4.357-4.358h-79.945l16.211-14.755c-0.006,0.014,0.854-0.973,2.471-2.213
				c2.391-1.841,6.221-4.034,10.883-4.034h96.977c0.051-0.003,15.016-0.653,15.016,11.197v28.318c0,4.474-2.242,7.811-6.488,9.649
				C423.484,137.063,419.992,137.216,418.639,137.216z M296.264,117.988l12.805,11.652c0.076,0.077,0.918,1.019,2.354,2.116
				c2.18,1.675,5.643,3.67,9.799,3.67l97.418,0.005l0,0c0.969,0,4.361-0.101,7.377-1.407c3.594-1.558,5.414-4.254,5.414-8.014
				V97.692c0-8.967-10.656-9.421-12.791-9.421l-0.395,0.005l-97.023,0.002c-4.162,0-7.625,1.993-9.797,3.665
				c-1.439,1.102-2.281,2.041-2.289,2.05l-12.873,11.722h75.34c3.387,0,6.141,2.753,6.141,6.141c0,3.382-2.754,6.133-6.141,6.133
				H296.264z"/>
		</g>
		<g>
			<path style="fill:#FFFFFF;" d="M5.927,124.753c-1.406,0-2.381-1.133-2.487-1.265l-0.155-0.186l-1.827-11.447l1.827-11.452
				l0.155-0.188c0.106-0.129,1.079-1.26,2.486-1.26c1.22,0,2.261,0.809,3.094,2.406l4.703,4.354h357.878
				c3.387,0,6.141,2.753,6.141,6.141c0,3.382-2.754,6.133-6.141,6.133H13.723l-4.702,4.36
				C8.187,123.945,7.146,124.753,5.927,124.753z M4.962,122.508c0.219,0.197,0.593,0.463,0.965,0.463
				c0.688,0,1.282-0.982,1.574-1.567l0.191-0.255l5.33-4.941h358.579c2.402,0,4.357-1.951,4.357-4.352
				c0-2.403-1.955-4.358-4.357-4.358H13.023l-5.521-5.19c-0.292-0.588-0.887-1.569-1.575-1.569c-0.371,0-0.744,0.263-0.964,0.462
				l-1.698,10.656L4.962,122.508z"/>
		</g>
		<g>
			<path style="fill:#FFFFFF;" d="M8.285,57.001c3.433,6.139,7.856,9.539,14.952,9.539c5.38,0,10.562-3.797,10.562-9.309
				c0-16.8-30.2-18.35-30.2-40.431C3.598,7.195,11.717,0,21.883,0c7.394,0,13.5,3.366,19.111,10.232l-7.129,5.742
				c-4.126-4.555-7.559-6.699-11.354-6.699c-4.456,0-8.582,2.442-8.582,7.954c0,13.863,30.432,17.526,30.432,38.749
				c0,11.717-8.12,20.069-21.322,20.069C11.882,76.047,4.324,70.335,0,61.786L8.285,57.001z"/>
			<path style="fill:#FFFFFF;" d="M91.028,76.047c-20.992,0-38.023-17.032-38.023-38.024C53.005,17.031,70.036,0,91.028,0
				c20.992,0,38.023,17.031,38.023,38.023C129.051,59.015,112.02,76.047,91.028,76.047z M63.567,38.023
				c0,15.447,12.279,27.988,27.461,27.988c15.183,0,27.461-12.541,27.461-27.988s-12.278-27.988-27.461-27.988
				C75.846,10.035,63.567,22.576,63.567,38.023z"/>
			<path style="fill:#FFFFFF;" d="M154.76,65.483h23.236v9.506h-33.798V1.056h10.562V65.483z"/>
			<path style="fill:#FFFFFF;" d="M215.093,12.476c-4.225-4.521-8.021-6.833-12.311-6.833c-5.579,0-10.892,3.136-10.892,10.364
				c0,16.405,32.049,20.068,32.049,41.027c0,11.09-7.492,19.013-19.638,19.013c-10.463,0-17.527-5.052-21.587-12.774l5.149-2.938
				c3.697,6.303,8.615,9.803,16.603,9.803c6.831,0,13.07-4.852,13.07-11.98c0-19.209-31.851-20.696-31.851-42.611
				C185.685,6.734,193.013,0,202.056,0c6.8,0,12.344,2.904,17.461,8.912L215.093,12.476z"/>
			<path style="fill:#FFFFFF;" d="M373.85,1.056h6.369v67.299c-6.865,4.688-15.744,7.692-24.26,7.692
				c-16.701,0-29.572-4.854-29.572-28.287V1.056h6.369V45.68c0,23.171,12.971,24.589,23.203,24.589
				c5.15,0,11.586-1.484,17.891-5.545V1.056z"/>
			<path style="fill:#FFFFFF;" d="M407.775,1.056v68.125h23.963v5.809h-30.299V1.056H407.775z"/>
			<path style="fill:#FFFFFF;" d="M309.82,38.023c0,20.992-16.998,38.024-37.957,38.024c-20.926,0-37.957-17.032-37.957-38.024
				C233.906,17.064,250.938,0,271.863,0C292.822,0,309.82,17.064,309.82,38.023z M240.309,38.023
				c0,17.625,14.094,32.048,31.555,32.048s31.586-14.424,31.586-32.048S289.355,5.974,271.863,5.974
				C254.402,5.974,240.309,20.398,240.309,38.023z"/>
			<g>
				<path style="fill:#FFFFFF;" d="M431.684,1.675v7.247h-0.906V1.675h-2.018v-0.82h4.938v0.82H431.684z"/>
				<path style="fill:#FFFFFF;" d="M438.072,9.152l-2.246-5.715l-1.275,5.485h-0.93l1.951-8.297l2.5,6.323l2.502-6.323l1.959,8.297
					h-0.936l-1.275-5.485L438.072,9.152z"/>
			</g>
		</g>
	</g>
</g>
<g id="Layer_1">
</g>
</svg>
