<?xml version="1.0" encoding="iso-8859-1"?>
<!-- Generator: Adobe Illustrator 16.0.0, SVG Export Plug-In . SVG Version: 6.00 Build 0)  -->
<!DOCTYPE svg PUBLIC "-//W3C//DTD SVG 1.1//EN" "http://www.w3.org/Graphics/SVG/1.1/DTD/svg11.dtd">
<svg version="1.1" xmlns="http://www.w3.org/2000/svg" xmlns:xlink="http://www.w3.org/1999/xlink" x="0px" y="0px"
	 width="442.533px" height="208.141px" viewBox="0 0 442.533 208.141" style="enable-background:new 0 0 442.533 208.141;"
	 xml:space="preserve">
<g id="palm_tree_1.1">
	<g>
		<path style="fill:#FFFFFF;" d="M253.479,52.533c-4.246,5.332-7.297,14.745-7.297,14.745c1.113-1.343,8.752-4.324,8.752-4.324
			l0.736-4.685l0.73,3.963c0.758-0.83,4.25-2.838,4.25-2.838l-0.863-3.472L262.861,59c2.125-1.978,8.973-6.88,8.973-6.88
			c-5.562,6.936-8.572,19.073-8.572,19.073c2.457-1.581,9.66-5.632,9.66-5.632l0.971-5.862l0.66,4.885
			c1.686-1.396,5.08-2.777,7.904-3.772c0.365,0.404,0.787,0.748,1.242,1.039c-3.168,9.03-21.949,65.705-21.686,141.088
			c0,0,9.664,10.678,19.426,1.438c0,0-5.68-96.195,8.531-134.135c1.166,6.905,1.906,14.354,1.906,14.354
			c2.559-3.208,4.25-12.92,5.197-20.147c0.885-1.087,1.332-2.529,1.051-4.02c-0.084-0.452-0.242-0.87-0.436-1.261
			c0.205-1.965,0.307-3.203,0.307-3.203c0.908,0.053,4.574,6.437,4.574,6.437l3.578-2.925l-2.488,3.851
			c1.904,1.708,4.133,5.167,4.133,5.167l3.168-3.776l-2.807,5.754l2.453,3.42l2.607-4.351l-1.654,7.128c0,0,1.982,8.266,2.607,10.43
			c0.627,2.164-0.545,5.784-0.545,5.784c5.34-4.389,6.488-18.01,6.057-24.062c-0.443-6.071-4.328-14.906-4.328-14.906
			c1.934-0.578,7.656,0.869,7.656,0.869l0.48-4.863l1.221,5.463l5.805,1.899l1.537-5.298l0.207,6.11l5.621,2.151l1.062-2.921
			l0.586,4.438c1.564,1.082,8.6,5.614,10.529,7.853c-4.09-22.881-20.078-27.709-20.078-27.709l1.195-0.896
			c-5.641-3.512-13.002-3.985-13.002-3.985l4.094-1.203l-1.73-3.312c-0.461,0.104-0.891,0.217-1.225,0.352l-2.822-4.254l1.67,4.472
			l-1.758,0.66l-2.441,0.608l-1.764-3.077l0.514,2.808c0,0-7.357,1.886-8.617,2.447c-1.248,0.582-3.008,0.309-2.121-1.387
			c0,0,8.791-8.835,20.082-9.756c13.725-1.126,25.336,10.847,25.336,10.847s-10.475-5.906-20.898-4.172l-4.512-4.115l2.596,3.95
			c0,0-2.283,0.217-4.029,0.617l3.967,3.133c13.217-3.559,25.863,5.933,25.863,5.933c-2.064-7.566-6.271-10.661-6.271-10.661
			l-3.18-1.246l1.879-0.801c-7.291-6.384-16.496-6.979-16.496-6.979c-10.404-1.552-17.588,5.731-17.588,5.731l-0.893-2.334
			l-5.316,0.748l3.768-2.96C302.943,12.314,284.543,0,284.543,0c10.848,15.736,7.641,26.792,7.641,26.792
			c-10.525-10.919-28.457-4.559-28.457-4.559c-12.836,4.398-20.434,14.433-20.434,14.433c4.379-2.16,13.037-3.303,13.951-3.251
			c0.934,0.062,6.133-3.851,6.133-3.851l-3.443,3.604c0,0-1.949,0.569,0.699,0.087c2.637-0.479,5.484,0.135,5.484,0.135l2.412-2.942
			l-1.586,3.702c3.984-0.517,9.635,0.509,9.635,0.509c-7.072,1.069-17.783,12.129-17.783,12.129l-3.084,3.056L253.479,52.533z
			 M292.305,36.349c-6.627-5.002-13.898-3.78-13.898-3.78l1.213-3.786l-2.691,2.651l-3.797-1.343l1.338-3.172l-4.623,1.129
			c-2.615-1.799-13.098-0.538-13.098-0.538c21.938-11.289,32.49,1.79,32.49,1.79C291.719,31.772,292.305,36.349,292.305,36.349z
			 M295.629,37.531l-2.314,0.369l0.65-2.043c0,0,4.666-12.996-2.195-27.011c0,0,5.406,4.169,7.68,8.582l-1.244,2.183l2.459-0.394
			l2.01,4.624l-3.668,1.316l3.318,2.034c0,0,0.383,1.391,0.594,3.72C302.918,30.912,300.992,34.567,295.629,37.531z M294.533,47.822
			c0,0-3.623-2.773-5.344-2.773c0,0,7.301-5.236,14.523-1.564c0,0,25.693-11.425,41.516,18.753c0,0-11.941-20.896-38.994-16.093
			c0,0,13.412,11.521,11.889,29.612c-0.035,1.229-0.621,1.673-0.621,1.673c0.096-0.656,0.135-1.611,0.189-2.26
			c0.111-3.924-2.389-15.202-10.549-23.254C302.727,47.557,294.533,47.822,294.533,47.822z M293.883,52.92
			c-0.973-2.687-4.232-4.146-7.932-2.025c0.738-1.848,2.363-3.29,4.469-3.681c3.264-0.596,5.789,4.915,5.479,9.947
			c-0.264,4.255-1.525,15.067-2.697,19.266C294.234,67.565,294.865,55.614,293.883,52.92z M281.293,72.602
			c1.486-1.456,5.346-0.678,6.252-2.398c1.076-2.082-2.033-4.342-3.119-5.128l0.156-0.443c2.049-0.535,3.377-0.513,4.242-0.179
			c0.332,1.382,0.643,2.916,0.928,4.52c-0.422,1.282-1.016,2.43-1.168,2.852c-6.293,17.223-7.877,50.89-8.613,61.476
			c-0.76,10.618-0.393,59.305-0.393,59.305s0,0,0.533,4.88c0.521,4.872,0.072,5.241,0.072,5.241
			c-2.568,4.351-10.75,3.168-13.83-0.335c3.453-0.53,9.768,2.195,11.527-1.79c0.74-1.646,0.02-4.881-0.1-6.493
			c-0.17-2.334-0.035-4.702-0.086-7.088c-0.098-3.46,0.883-9.761-1.127-12.438c-2.656-3.567-9.07-0.673-11.455-3.271
			c3.186-3.173,10.154,1.442,13.02-2.651c1.695-2.412,0.771-11.134-0.473-13.45c-3.934-2.091-8.164-0.145-12.033-1.878
			c2.311-2.112,7.99-0.312,10.945-1.203c1.967-2.226,2.217-8.844,1.043-11.513c-1.898-4.229-6.244-2.338-9.961-3.489l0.033-0.791
			c5.592-2.309,10.689-0.204,11.676-7.975c0.301-2.316,0.994-7.479,0.064-9.531c-1.412-3.067-5.293-1.669-7.943-2.56
			c4.41-2.125,8.773,1.573,9.545-4.972c0.803-6.896-3.906-3.329-7.828-5.823c1.785-1.229,5.023,0.234,6.922-0.908
			c2.078-1.252,2.014-3.842,2.154-5.919c0.137-1.834,0.771-5.606-0.432-7.031c-1.307-1.548-4.391-0.422-5.164-2.222
			c3.49-0.208,5.764,1.757,6.84-2.794c1.16-4.92-0.168-4.624-3.859-6.015c3.238-2.034,5.594,0.574,6.861-4.172
			C287.703,72.015,285.057,72.954,281.293,72.602z M291.91,39.878c0,0-4.771,5.554-7.719,8.778l-1.654-2.816l0.652,3.572
			c0,0-3.59,2.772-4.4,3.772l-0.916-4.229l0.354,5.037c0,0-7.801,6.81-8.938,9.144C269.289,63.137,277.732,30.451,291.91,39.878z
			 M254.109,57.317c0,0,9.816-21.833,28.6-21.082c0,0-11.816,11.804-13.686,14.315l-1.529-3.294l-0.156,3.446
			C267.338,50.703,258.846,52.729,254.109,57.317z"/>
		<g>
			<path style="fill:#FFFFFF;" d="M8.285,189.031c3.433,6.139,7.856,9.539,14.952,9.539c5.38,0,10.562-3.797,10.562-9.309
				c0-16.8-30.2-18.351-30.2-40.432c0-9.605,8.119-16.8,18.285-16.8c7.394,0,13.5,3.366,19.111,10.231l-7.129,5.742
				c-4.126-4.555-7.559-6.699-11.354-6.699c-4.456,0-8.582,2.442-8.582,7.954c0,13.863,30.432,17.526,30.432,38.749
				c0,11.717-8.12,20.069-21.322,20.069c-11.156,0-18.714-5.712-23.038-14.261L8.285,189.031z"/>
			<path style="fill:#FFFFFF;" d="M91.028,208.077c-20.992,0-38.023-17.032-38.023-38.024s17.031-38.022,38.023-38.022
				c20.992,0,38.023,17.03,38.023,38.022S112.02,208.077,91.028,208.077z M63.567,170.053c0,15.447,12.279,27.988,27.461,27.988
				c15.183,0,27.461-12.541,27.461-27.988c0-15.446-12.278-27.988-27.461-27.988C75.846,142.064,63.567,154.606,63.567,170.053z"/>
			<path style="fill:#FFFFFF;" d="M154.76,197.514h23.236v9.506h-33.798v-73.934h10.562V197.514z"/>
			<path style="fill:#FFFFFF;" d="M215.093,144.506c-4.225-4.521-8.021-6.832-12.311-6.832c-5.579,0-10.892,3.136-10.892,10.363
				c0,16.405,32.049,20.068,32.049,41.027c0,11.09-7.492,19.013-19.638,19.013c-10.463,0-17.527-5.052-21.587-12.774l5.149-2.938
				c3.697,6.303,8.615,9.803,16.603,9.803c6.831,0,13.07-4.852,13.07-11.98c0-19.21-31.851-20.696-31.851-42.611
				c0-8.812,7.328-15.546,16.371-15.546c6.8,0,12.344,2.904,17.461,8.911L215.093,144.506z"/>
			<path style="fill:#FFFFFF;" d="M373.85,133.086h6.369v67.299c-6.865,4.688-15.744,7.692-24.26,7.692
				c-16.701,0-29.572-4.854-29.572-28.287v-46.704h6.369v44.624c0,23.171,12.971,24.589,23.203,24.589
				c5.15,0,11.586-1.484,17.891-5.545V133.086z"/>
			<path style="fill:#FFFFFF;" d="M407.775,133.086v68.125h23.963v5.809h-30.299v-73.934H407.775z"/>
			<path style="fill:#FFFFFF;" d="M309.82,170.053c0,20.992-16.998,38.024-37.957,38.024c-20.926,0-37.957-17.032-37.957-38.024
				c0-20.959,17.031-38.022,37.957-38.022C292.822,132.03,309.82,149.094,309.82,170.053z M240.309,170.053
				c0,17.625,14.094,32.049,31.555,32.049s31.586-14.424,31.586-32.049c0-17.624-14.094-32.049-31.586-32.049
				C254.402,138.004,240.309,152.429,240.309,170.053z"/>
			<g>
				<path style="fill:#FFFFFF;" d="M431.684,133.705v7.246h-0.906v-7.246h-2.018v-0.82h4.938v0.82H431.684z"/>
				<path style="fill:#FFFFFF;" d="M438.072,141.182l-2.246-5.715l-1.275,5.484h-0.93l1.951-8.297l2.5,6.322l2.502-6.322
					l1.959,8.297h-0.936l-1.275-5.484L438.072,141.182z"/>
			</g>
		</g>
	</g>
</g>
<g id="Layer_1">
</g>
</svg>
