<?xml version="1.0" encoding="iso-8859-1"?>
<!-- Generator: Adobe Illustrator 16.0.0, SVG Export Plug-In . SVG Version: 6.00 Build 0)  -->
<!DOCTYPE svg PUBLIC "-//W3C//DTD SVG 1.1//EN" "http://www.w3.org/Graphics/SVG/1.1/DTD/svg11.dtd">
<svg version="1.1" xmlns="http://www.w3.org/2000/svg" xmlns:xlink="http://www.w3.org/1999/xlink" x="0px" y="0px"
	 width="442.533px" height="195.638px" viewBox="0 0 442.533 195.638" style="enable-background:new 0 0 442.533 195.638;"
	 xml:space="preserve">
<g id="palm_tree_3">
	<g>
		<g>
			<path style="fill:#FFFFFF;" d="M347.691,42.557c0,0-9.436,2.425-10.783,13.672c0,0,1.346-10.171,11.348-13.584L347.691,42.557z"
				/>
			<path style="fill:#FFFFFF;" d="M331.494,48.882c0,0,6.271-7.674,10.855-8.824l0.98,0.551
				C343.33,40.609,340.412,39.331,331.494,48.882z"/>
			<path style="fill:#FFFFFF;" d="M342.35,40.058c0,0-7.268-0.52-16.305,4.892c0,0,8.055-4.616,17.01-4.575L342.35,40.058z"/>
			<path style="fill:#FFFFFF;" d="M339.648,38.715c0,0-8.125-1.584-14.832-0.372c0,0,10.484-0.759,16.502,1.264L339.648,38.715z"/>
			<path style="fill:#FFFFFF;" d="M343.33,40.609c0,0-6.355,2.16-10.896,10.937c0,0,5.609-8.927,11.705-10.866L343.33,40.609z"/>
			<path style="fill:#FFFFFF;" d="M343.055,40.375c0,0-4.555,0.192-12.508,4.419c0,0,6.402-3.882,11.996-4.905L343.055,40.375z"/>
			<path style="fill:#FFFFFF;" d="M341.746,39.765c0,0-6.6-1.212-12.883,0.474c0,0,7.326-1.114,12.926,0.121
				C341.789,40.359,341.945,39.929,341.746,39.765z"/>
			<path style="fill:#FFFFFF;" d="M338.146,38.479c0,0-7.768-3.018-13.871-2.479C324.275,36.001,336.412,37.396,338.146,38.479z"/>
			<path style="fill:#FFFFFF;" d="M355.521,46.609c0,0-12.779-3.346-20.275,5.464c0,0,6.287-9.497,19.209-6.173L355.521,46.609z"/>
			<path style="fill:#FFFFFF;" d="M352.758,45.183c0,0-10.947,0.237-14.66,7.473c0,0,4.863-7.372,15.264-6.972L352.758,45.183z"/>
			<path style="fill:#FFFFFF;" d="M345.207,41.386c0,0-6.959,2.802-10.412,9.533c0,0,4.178-6.167,10.963-9.309L345.207,41.386z"/>
			<path style="fill:#FFFFFF;" d="M360.189,49.46c0,0-4.607-2.66-12.652,3.041c0,0,7.164-4.98,13.504-2.41L360.189,49.46z"/>
			<path style="fill:#FFFFFF;" d="M351.676,44.67c0,0-7.389-1.068-14.5,6.976c0,0,5.914-8.105,14.32-7.42L351.676,44.67z"/>
			<path style="fill:#FFFFFF;" d="M349.303,43.389c0,0-9.215,1.049-12.928,8.838c0,0,3.018-7.855,12.619-9.258L349.303,43.389z"/>
			<path style="fill:#FFFFFF;" d="M355.92,46.739c0,0-7.68-1.86-14.279,3.16c-6.361,4.838-1.299,6.969-1.168,7.443
				c0,0-4.158-2.94,1.125-6.912c6.164-4.632,14.988-3.174,14.988-3.174L355.92,46.739z"/>
			<path style="fill:#FFFFFF;" d="M354.455,45.9c0,0-9.402-0.564-13.18,7.919c0,0,3.736-9.526,12.711-8.25L354.455,45.9z"/>
			<path style="fill:#FFFFFF;" d="M347.086,42.42c0,0-9.027,3.565-13.33,10.352c0,0,4.633-7.814,12.998-10.611L347.086,42.42z"/>
			<path style="fill:#FFFFFF;" d="M359.018,48.715c0,0-8.312-0.756-12.562,3.842c-4.252,4.597-3.883,8.632-3.883,8.632
				s-0.57-4.314,3.717-9.156c4.289-4.843,11.807-3.793,12.131-3.743L359.018,48.715z"/>
			<path style="fill:#FFFFFF;" d="M355.939,47.158c0,0-9.805,0.543-13.691,9.177c0,0,2.533-7.988,13.273-9.725L355.939,47.158z"/>
			<path style="fill:#FFFFFF;" d="M359.992,49.366c0,0-7.771-0.219-12.918,6.396c0,0,5.826-6.177,13.543-6.136L359.992,49.366z"/>
			<path style="fill:#FFFFFF;" d="M356.254,47c0,0-6.904,0.87-10.934,8.819c0,0,4.496-7.501,11.266-8.562L356.254,47z"/>
			<path style="fill:#FFFFFF;" d="M366.066,54.331c0,0-7.914-4.342-15.332,1.131c0,0,6.129-5.757,15.084-1.667L366.066,54.331z"/>
			<path style="fill:#FFFFFF;" d="M364.395,52.536c0,0-8.65-3.875-15.506,3.55c0,0,5.635-6.538,15.77-3.095L364.395,52.536z"/>
			<path style="fill:#FFFFFF;" d="M363.926,52.092c0,0-8.387-4.502-14.705,5.618c0,0,5.154-10.631,14.168-6.157L363.926,52.092z"/>
			<path style="fill:#FFFFFF;" d="M366.541,54.488c0,0-7.717-3.485-12.564,0.693c0,0,4.158-3.743,13.045-0.038L366.541,54.488z"/>
			<path style="fill:#FFFFFF;" d="M361.625,50.613c0,0-6.324-1.772-11.684,3.278c0,0,5.598-4.723,12.178-2.992L361.625,50.613z"/>
			<path style="fill:#FFFFFF;" d="M344.674,41.383c0,0-4.607,1.063-9.258,7.961c0,0,2.758-6.24,9.057-8.242L344.674,41.383z"/>
			<path style="fill:#FFFFFF;" d="M343.055,40.375c0,0-7.252,2.525-10.691,9.114c0,0,4.697-6.932,11.279-8.931L343.055,40.375z"/>
			<path style="fill:#FFFFFF;" d="M358.068,48.402c0,0-8.441-0.737-15.611,3.699c0,0,7.939-5.351,15.58-4.034L358.068,48.402z"/>
			<path style="fill:#FFFFFF;" d="M367.912,56.067c0,0-4.996-3.886-11.463-1.04c0,0,5.586-2.279,11.727,1.497L367.912,56.067z"/>
			<path style="fill:#FFFFFF;" d="M346.197,41.804c0,0-10.453,2.687-11.945,15.149c0,0,1.492-11.27,12.572-15.05L346.197,41.804z"/>
			<path style="fill:#FFFFFF;" d="M328.254,48.811c0,0,6.949-8.503,12.027-9.775l1.088,0.61
				C341.369,39.646,338.133,38.231,328.254,48.811z"/>
			<path style="fill:#FFFFFF;" d="M315.781,33.042c0,0,8.781-0.682,16.852,2.53c8.074,3.208,28.711,11.028,37.264,22.369
				l-0.289,0.557c0,0-5.447-7.291-17.385-13.219C340.92,39.663,328.998,32.851,315.781,33.042z"/>
			<path style="fill:#FFFFFF;" d="M340.281,39.036c0,0-8.053-0.576-18.066,5.418c0,0,8.926-5.116,18.846-5.068L340.281,39.036z"/>
			<path style="fill:#FFFFFF;" d="M337.291,37.547c0,0-9.004-1.755-16.438-0.41c0,0,11.619-0.842,18.287,1.398L337.291,37.547z"/>
			<path style="fill:#FFFFFF;" d="M341.369,39.646c0,0-7.041,2.394-12.074,12.116c0,0,6.211-9.889,12.969-12.037L341.369,39.646z"/>
			<path style="fill:#FFFFFF;" d="M341.061,39.387c0,0-5.047,0.212-13.852,4.894c0,0,7.09-4.295,13.283-5.434L341.061,39.387z"/>
			<path style="fill:#FFFFFF;" d="M339.613,38.71c0,0-7.312-1.341-14.273,0.528c0,0,8.119-1.238,14.32,0.131
				C339.66,39.369,339.834,38.896,339.613,38.71z"/>
			<path style="fill:#FFFFFF;" d="M335.625,37.288c0,0-8.604-3.342-15.367-2.747C320.258,34.541,333.711,36.088,335.625,37.288z"/>
			<path style="fill:#FFFFFF;" d="M354.873,46.293c0,0-14.162-3.708-22.459,6.057c0,0,6.965-10.524,21.279-6.842L354.873,46.293z"/>
			<path style="fill:#FFFFFF;" d="M351.811,44.713c0,0-12.123,0.262-16.238,8.278c0,0,5.389-8.166,16.904-7.724L351.811,44.713z"/>
			<path style="fill:#FFFFFF;" d="M343.445,40.506c0,0-7.709,3.104-11.533,10.565c0,0,4.631-6.836,12.146-10.317L343.445,40.506z"/>
			<path style="fill:#FFFFFF;" d="M360.045,49.451c0,0-5.104-2.948-14.014,3.368c0,0,7.932-5.516,14.957-2.671L360.045,49.451z"/>
			<path style="fill:#FFFFFF;" d="M350.615,44.145c0,0-8.186-1.186-16.07,7.731c0,0,6.559-8.983,15.869-8.219L350.615,44.145z"/>
			<path style="fill:#FFFFFF;" d="M347.982,42.726c0,0-10.209,1.163-14.318,9.794c0,0,3.338-8.705,13.982-10.261L347.982,42.726z"/>
			<path style="fill:#FFFFFF;" d="M355.312,46.439c0,0-8.51-2.062-15.816,3.5c-7.045,5.359-1.441,7.718-1.293,8.244
				c0,0-4.609-3.258,1.246-7.656c6.828-5.13,16.602-3.514,16.602-3.514L355.312,46.439z"/>
			<path style="fill:#FFFFFF;" d="M353.693,45.508c0,0-10.418-0.625-14.604,8.777c0,0,4.137-10.558,14.082-9.144L353.693,45.508z"/>
			<path style="fill:#FFFFFF;" d="M345.529,41.653c0,0-10.002,3.948-14.768,11.469c0,0,5.127-8.657,14.396-11.753L345.529,41.653z"
				/>
			<path style="fill:#FFFFFF;" d="M358.742,48.624c0,0-9.203-0.838-13.912,4.258s-4.305,9.564-4.305,9.564
				s-0.633-4.778,4.119-10.145c4.75-5.363,13.078-4.203,13.436-4.146L358.742,48.624z"/>
			<path style="fill:#FFFFFF;" d="M355.334,46.898c0,0-10.857,0.604-15.162,10.168c0,0,2.803-8.849,14.701-10.773L355.334,46.898z"
				/>
			<path style="fill:#FFFFFF;" d="M359.828,49.344c0,0-8.613-0.237-14.311,7.089c0,0,6.451-6.845,14.998-6.795L359.828,49.344z"/>
			<path style="fill:#FFFFFF;" d="M355.684,46.724c0,0-7.65,0.967-12.111,9.772c0,0,4.982-8.314,12.479-9.483L355.684,46.724z"/>
			<path style="fill:#FFFFFF;" d="M366.557,54.849c0,0-8.77-4.812-16.988,1.251c0,0,6.793-6.377,16.713-1.849L366.557,54.849z"/>
			<path style="fill:#FFFFFF;" d="M364.703,52.859c0,0-9.582-4.295-17.172,3.932c0,0,6.236-7.244,17.463-3.429L364.703,52.859z"/>
			<path style="fill:#FFFFFF;" d="M364.184,52.366c0,0-9.291-4.985-16.291,6.229c0,0,5.707-11.78,15.697-6.826L364.184,52.366z"/>
			<path style="fill:#FFFFFF;" d="M367.082,55.018c0,0-8.549-3.856-13.918,0.769c0,0,4.6-4.145,14.445-0.041L367.082,55.018z"/>
			<path style="fill:#FFFFFF;" d="M361.635,50.729c0,0-7.004-1.964-12.939,3.629c0,0,6.199-5.233,13.488-3.315L361.635,50.729z"/>
			<path style="fill:#FFFFFF;" d="M342.857,40.504c0,0-5.107,1.176-10.258,8.819c0,0,3.059-6.915,10.029-9.131L342.857,40.504z"/>
			<path style="fill:#FFFFFF;" d="M341.061,39.387c0,0-8.029,2.796-11.848,10.099c0,0,5.207-7.682,12.502-9.896L341.061,39.387z"/>
			<path style="fill:#FFFFFF;" d="M357.693,48.279c0,0-9.348-0.817-17.293,4.096c0,0,8.793-5.924,17.26-4.467L357.693,48.279z"/>
			<path style="fill:#FFFFFF;" d="M368.602,56.771c0,0-5.537-4.307-12.699-1.154c0,0,6.189-2.522,12.988,1.657L368.602,56.771z"/>
			<path style="fill:#FFFFFF;" d="M369.445,63.053c0,0-2.943-3.388-3.619-1.222c0,0,11.541,39.972-34.027,111.515
				c0,0-1.234,15.307,2.902,15.255C334.701,188.601,374.447,115.682,369.445,63.053z M341.072,174.5l0.502-1.648l-0.68,0.634
				l0.504-1.498l-0.568,0.284l0.211-1.001c0,0-0.969,0.116-1.705,0.844l0.969-1.272l-1.568,0.95l1.293-1.313
				c0,0-0.521-1.281-1.332,0.553l0.566-1.588l-1.068,0.614l0.67-0.782l-1.6,0.345l1.127-0.715c0,0-1.305-0.148-2.047,0.431
				l1.299-1.166l-1.213,0.359l0.674-0.78c0,0-1.287,0.156-1.773,0.795l1.193-1.978c0,0,5.127,1.923,5.789,5.558L341.072,174.5z
				 M346.842,161.55l0.627-2.006l-0.953,1.19l0.422-1.283l-1.297,1.81l0.604-2.312l-0.775,1.035l0.229-1.284
				c0,0-1.211,1.299-1.482,1.965l0.895-1.954l-1.107,0.936l0.043-1.123l-1.682,1.966l1.146-2.062l-0.875,0.526l0.148-0.616
				c0,0-0.93-0.092-2.711,2.24l1.551-2.791c0,0,5.156-0.326,6.584,1.134L346.842,161.55z M351.979,149.359l0.553-1.803l-0.832,1.099
				l0.375-1.155l-1.131,1.658l0.535-2.07l-0.676,0.948l0.207-1.141c0,0-1.049,1.199-1.289,1.804l0.779-1.772l-0.959,0.882
				l0.043-1.001l-1.459,1.819l1.002-1.877l-0.76,0.504l0.135-0.552c0,0-0.799-0.038-2.344,2.105l1.344-2.535
				c0,0,4.445-0.53,5.666,0.697L351.979,149.359z M356.896,136.38l0.451-1.953l-0.705,1.308l0.309-1.255l-0.969,1.947l0.438-2.219
				l-0.572,1.119l0.16-1.203c0,0-0.895,1.465-1.098,2.137l0.654-1.98l-0.824,1.12l0.021-1.017l-1.248,2.188l0.846-2.138
				l-0.654,0.692l0.104-0.59c0,0-0.695,0.158-2.014,2.693l1.484-3.474c0,0,3.535-1.018,4.621-0.074L356.896,136.38z M359.375,129.24
				l-0.016-1.378l-0.531,0.873l0.426-1.589l-0.59,0.854l0.301-1.024l-1.027,1.322c0,0,0.572-1.368,0.559-1.889
				c0,0-0.889,0.425-1.035,1.066c0,0,0.24-1.041,0.533-1.469c0,0-0.703,0.475-0.855,0.858c0,0,0.104-0.738,0.416-1.247l-0.58,0.515
				l0.186-0.801c0,0-0.619,0.672-0.908,1.357c0,0,0.162-0.721,0.545-1.805c0,0,2.293,0.407,3.264,2.172L359.375,129.24z
				 M362.965,116.725l0.133-1.566l-0.422,1.128c-0.057,0.18-0.111,0.298-0.111,0.298l0.111-0.298
				c0.092-0.295,0.182-0.762,0.047-1.208c0,0-0.373,0.576-0.609,1.414c0,0,0.23-1.199,0.365-1.859c0,0-0.336,0.415-0.48,0.946
				l-0.037,0.146l0.037-0.146c0.045-0.196,0.123-0.567,0.172-0.987c0,0-0.438,0.621-0.676,1.462c0,0,0.213-1.132,0.295-1.601
				c0,0-0.412,0.703-0.727,1.443c0,0,0.328-1.162,0.176-1.573c0,0-0.451,1.045-0.785,1.492c0,0,0.6-1.202,0.498-1.597
				c0,0-0.605,0.848-0.77,1.43c0,0,0.283-1.393,0.58-2.069c0,0,1.865-0.122,2.787,1.014L362.965,116.725z M365.488,106.548
				l-0.057-1.228l-0.328,0.859l0.234-1.482l-0.367,0.854l0.16-0.962l-0.641,1.336c0,0,0.34-1.31,0.312-1.77
				c0,0-0.582,0.51-0.658,1.104c0,0,0.119-0.967,0.305-1.393c0,0-0.457,0.532-0.547,0.897c0,0,0.045-0.675,0.238-1.176l-0.375,0.547
				l0.098-0.744c0,0-0.389,0.694-0.561,1.351c0,0,0.086-0.672,0.303-1.699c0,0,1.562,0.283,2.332,1.583L365.488,106.548z
				 M367.658,94.923l0.066-1.291l-0.447,0.97c0,0,0.258-0.637,0.078-1.176c0,0-0.26,0.476-0.412,1.144c0,0,0.139-0.943,0.223-1.465
				c0,0-0.283,0.414-0.354,0.884c0,0,0.094-0.409,0.127-0.89c0,0-0.307,0.516-0.457,1.185c0,0,0.127-0.892,0.17-1.26
				c0,0-0.279,0.577-0.488,1.176c0,0,0.205-0.926,0.088-1.228c0,0-0.307,0.842-0.541,1.216c0,0,0.41-0.98,0.324-1.273
				c0,0-0.424,0.701-0.525,1.164c0,0,0.172-1.095,0.373-1.641c0,0,1.457-0.243,2.225,0.589L367.658,94.923z M368.889,86.756
				l-0.057-1.398l-0.371,1.095c0,0,0.207-0.719-0.035-1.278c0,0-0.225,0.542-0.316,1.278c0,0,0.053-1.031,0.084-1.606
				c0,0-0.25,0.479-0.279,0.999c0,0,0.059-0.455,0.047-0.981c0,0-0.271,0.595-0.363,1.331c0,0,0.045-0.974,0.059-1.378
				c0,0-0.24,0.654-0.402,1.319c0,0,0.129-1.018-0.021-1.33c0,0-0.238,0.942-0.449,1.37c0,0,0.334-1.101,0.217-1.409
				c0,0-0.264,0.882-0.326,1.391c0,0-0.037-1.278,0.119-1.889c0,0,1.266-0.294,2.352,0.358L368.889,86.756z"/>
			<path style="fill:#FFFFFF;" d="M362.799,56.752c0,0-15.799-40.83-27.695-40.625c0,0,11.295,0.407,27.174,40.995
				C362.277,57.122,363.34,58.2,362.799,56.752z"/>
			<path style="fill:#FFFFFF;" d="M350.744,31.971c0,0,1.58-7.999,4.574-18.019c0,0-4.408,11.892-4.777,17.765L350.744,31.971z"/>
			<path style="fill:#FFFFFF;" d="M350.977,32.281c0,0,1.18-7.652,3.953-14.46c0,0-3.469,11.339-3.604,15.145L350.977,32.281z"/>
			<path style="fill:#FFFFFF;" d="M350.332,31.319c0,0,1.229-9.115,3.092-15.172c0,0-2.654,7.183-3.467,14.717L350.332,31.319z"/>
			<path style="fill:#FFFFFF;" d="M351.326,32.966c0,0,0.549-8.188,6.098-15.198c0,0-5.395,8.436-5.836,15.568L351.326,32.966z"/>
			<path style="fill:#FFFFFF;" d="M351.885,34.048c0,0-0.48-7.665,6.627-13.459c0,0-6.34,5.33-6.279,13.999L351.885,34.048z"/>
			<path style="fill:#FFFFFF;" d="M349.664,30.293c0,0,0.521-7.961,1.854-12.237c0,0-2.408,8.351-2.203,11.699L349.664,30.293z"/>
			<path style="fill:#FFFFFF;" d="M349.023,29.186c0,0-0.68-7.634,2.705-12.819c0,0-4.332,5.309-2.992,12.535L349.023,29.186z"/>
			<path style="fill:#FFFFFF;" d="M348.119,27.706c0,0-0.842-6.544,2.477-12.844c0,0-3.611,6.018-2.912,12.417L348.119,27.706z"/>
			<path style="fill:#FFFFFF;" d="M348.67,28.501c0,0-2.381-5.9-0.361-12.76c0,0-2.379,5.607-0.336,11.823L348.67,28.501z"/>
			<path style="fill:#FFFFFF;" d="M347.65,26.652c0,0-0.373-8.153-2.877-11.76c0,0,2.289,5.011,2.381,11.363L347.65,26.652z"/>
			<path style="fill:#FFFFFF;" d="M346.691,25.63c0,0-0.508-7.721-4.428-12.258c0,0,3.023,3.773,4.049,11.662L346.691,25.63z"/>
			<path style="fill:#FFFFFF;" d="M345.848,24.411c0,0-1.113-8.059-5.934-10.987c0,0,3.961,3.079,5.469,10.646L345.848,24.411z"/>
			<path style="fill:#FFFFFF;" d="M345.006,23.473c0,0-3.115-10.268-8.879-10.125c0,0,4.963,0.409,8.273,9.645L345.006,23.473z"/>
			<path style="fill:#FFFFFF;" d="M343.699,21.77c0,0-2.27-5.672-6.494-6.886c0,0,3.566,1.192,6.121,6.86L343.699,21.77z"/>
			<path style="fill:#FFFFFF;" d="M357.99,22.652c0,0-6.555,6.736-5.373,12.962l0.406,0.653
				C353.023,36.268,352.275,30.182,357.99,22.652z"/>
			<path style="fill:#FFFFFF;" d="M359.553,21.209c0,0-7.15,10.488-6.936,14.406l0.406,0.653
				C353.023,36.268,352.59,33.181,359.553,21.209z"/>
			<path style="fill:#FFFFFF;" d="M355.691,41.734c0,0-0.961-9.86,6.912-19.07c0,0-7.488,10.378-6.279,19.608L355.691,41.734z"/>
			<path style="fill:#FFFFFF;" d="M355.277,40.651c0,0-0.881-10.121,7.047-17.699c0,0-8.1,7.523-7.484,16.847L355.277,40.651z"/>
			<path style="fill:#FFFFFF;" d="M354.191,38.259c0,0,0.104-9.757,6.812-15.206c0,0-7.713,5.744-7.133,14.436L354.191,38.259z"/>
			<path style="fill:#FFFFFF;" d="M355.277,40.651c0,0,0.254-8.616,8.428-14.45c0,0-8.699,7.471-7.93,15.131L355.277,40.651z"/>
			<path style="fill:#FFFFFF;" d="M356.568,43.301c0,0,0.287-7.987,5.434-12.563c0,0-5.492,4.321-5.965,11.539L356.568,43.301z"/>
			<path style="fill:#FFFFFF;" d="M355.824,40.875c0,0,0.34-5.924,5.623-10.932c0,0-5.855,5.011-5.941,10.736L355.824,40.875z"/>
			<path style="fill:#FFFFFF;" d="M357.391,45.18c0,0-0.207-8.811,8.908-14.771c0,0-8.457,3.178-9.438,13.604L357.391,45.18z"/>
			<path style="fill:#FFFFFF;" d="M357.883,46.005c0,0-0.648-7.576,5.492-12.59c0,0-5.727,6.384-5.162,13.504L357.883,46.005z"/>
			<path style="fill:#FFFFFF;" d="M356.037,42.276c0,0-12.535-14.58-22.414-10.245c0,0,7.91-5.92,21.832,9.108L356.037,42.276z"/>
			<path style="fill:#FFFFFF;" d="M355.277,40.651c0,0-11.139-12.275-18.037-10.975c0,0,6.17-2.437,17.6,10.123L355.277,40.651z"/>
			<path style="fill:#FFFFFF;" d="M356.037,42.276c0,0-8.439-9.56-16.148-8.994c0,0,7.486,0.125,16.354,9.534L356.037,42.276z"/>
			<path style="fill:#FFFFFF;" d="M357.121,44.381c0,0-9.104-12.525-21.252-8.967c0,0,11.152-2.974,21.521,9.766L357.121,44.381z"/>
			<path style="fill:#FFFFFF;" d="M354.635,39.398c0,0-10.277-12-18.68-11.941c0,0,7.561-1.135,18.236,10.802L354.635,39.398z"/>
			<path style="fill:#FFFFFF;" d="M353.023,36.268c0,0-9.346-11.035-18.482-10.027c0,0,8.152-2.084,17.752,8.603L353.023,36.268z"/>
			<path style="fill:#FFFFFF;" d="M351.684,33.934c0,0-7.605-8.907-14.199-8.552c0,0,5.439-1.055,13.494,7.186L351.684,33.934z"/>
			<path style="fill:#FFFFFF;" d="M350.332,31.319c0,0-7.33-7.397-12.512-6.685c0,0,4.49-1.218,11.494,5.121L350.332,31.319z"/>
			<path style="fill:#FFFFFF;" d="M348.387,28.647c0,0-5.859-6.493-11.959-5.457c0,0,4.344-1.646,11.256,4.088L348.387,28.647z"/>
			<path style="fill:#FFFFFF;" d="M346.639,25.945c0,0-6.027-5.688-11.457-4.06c0,0,3.393-2.093,10.205,2.47L346.639,25.945z"/>
			<path style="fill:#FFFFFF;" d="M344.4,22.992c0,0-6.213-1.995-8.523-3.117c0,0,3.799,1.22,8.027,2.436L344.4,22.992z"/>
			<path style="fill:#FFFFFF;" d="M343.066,21.52c0,0-5.846-2.258-8.277-4.324c0,0,4.326,2.388,7.783,3.642L343.066,21.52z"/>
			<path style="fill:#FFFFFF;" d="M341.152,19.622c0,0-4.953-2.067-5.648-2.72c0,0,3.396,0.995,5.043,2.096L341.152,19.622z"/>
			<path style="fill:#FFFFFF;" d="M357.625,45.778c0,0-7.928-9.534-18.451-9.397c0,0,10.072,0.667,18.859,10.337
				C358.033,46.718,357.975,46.175,357.625,45.778z"/>
			<path style="fill:#FFFFFF;" d="M358.939,48.197c0,0-6.859-8.858-16.596-10.417c0,0,7.32,0.783,16.926,11.757L358.939,48.197z"/>
			<path style="fill:#FFFFFF;" d="M359.729,49.878c0,0-6.967-8.655-13.574-9.732c0,0,6.27,1.825,13.842,10.388L359.729,49.878z"/>
			<path style="fill:#FFFFFF;" d="M360.293,51.389c0,0-5.592-8.357-15.564-7.566c0,0,7.42-0.42,15.74,8.193L360.293,51.389z"/>
			<path style="fill:#FFFFFF;" d="M358.389,47.175c0,0,0.221-8.38,6.969-13.256c0,0-6.373,5.901-6.758,13.961L358.389,47.175z"/>
			<path style="fill:#FFFFFF;" d="M359.055,48.663c0,0,0.045-7.127,4.234-11.15c0,0-4.76,7.459-3.471,12.938L359.055,48.663z"/>
			<path style="fill:#FFFFFF;" d="M360.172,51.235c0,0-0.902-7.098,2.73-11.698c0,0-3.312,6.212-2.338,12.36L360.172,51.235z"/>
			<path style="fill:#FFFFFF;" d="M360.896,52.945c0,0-4.846-6.656-11.619-6.484c0,0,7.18,1.402,11.953,7.327L360.896,52.945z"/>
			<path style="fill:#FFFFFF;" d="M360.729,52.019c0,0-3.988-9.734,2.115-16.561c0,0-6.402,5.253-2.773,15.576L360.729,52.019z"/>
			<path style="fill:#FFFFFF;" d="M363.449,24.968c-0.006-0.005-0.602-0.764-1.828-1.779c-0.629-0.538-1.193-1.347-1.863-2.085
				c-0.668-0.779-1.541-1.463-2.385-2.429c-1.484-1.963-2.844-3.53-4.021-4.634c-1.143-1.167-1.602-2.005-1.686-1.953
				c0.055-0.079,0.746,0.686,1.965,1.632c1.285,0.904,2.957,2.507,4.389,4.408c0.74,0.86,1.652,1.658,2.287,2.518
				c0.67,0.87,1.1,1.678,1.619,2.248C363.006,24.06,363.455,24.978,363.449,24.968z"/>
			<path style="fill:#FFFFFF;" d="M363.154,23.491c-0.018,0.009-0.357-0.667-1.223-1.467c-0.811-0.807-2.301-1.77-3.238-3.446
				c-0.879-1.54-2.074-2.684-2.701-3.759c-0.684-1.01-0.867-1.765-0.896-1.742c0.029-0.017,0.404,0.634,1.229,1.486
				c0.75,0.884,2.135,1.92,3.084,3.567c0.854,1.552,2.121,2.598,2.836,3.616C362.994,22.735,363.143,23.505,363.154,23.491z"/>
			<path style="fill:#FFFFFF;" d="M362.496,21.978c-0.01,0.006-0.359-0.708-1.135-1.683c-0.752-1.001-2.004-2.2-3.158-3.792
				c-2.35-3.18-3.051-6.348-3.078-6.314c0.031-0.014,1.504,2.771,3.762,5.815c1.105,1.531,2.232,2.911,2.828,4.059
				C362.338,21.196,362.486,21.987,362.496,21.978z"/>
			<path style="fill:#FFFFFF;" d="M361.748,18.739c0.285-0.155-1.855-1.829-3.473-4.591c-1.781-2.598-2.896-5.008-2.859-5.014
				c-0.018,0.034,1.752,1.901,3.572,4.558C360.59,16.421,362.031,18.59,361.748,18.739z"/>
			<path style="fill:#FFFFFF;" d="M360.963,15.855c0.109-0.085-1.381-1.988-3.129-4.406c-1.99-2.424-2.088-5.106-2.229-5.005
				c0.156-0.058,1.023,2.245,2.914,4.507C360.301,13.416,361.098,15.825,360.963,15.855z"/>
			<path style="fill:#FFFFFF;" d="M359.691,11.566c0.023,0.036-1.842-1.251-2.82-3.715c-0.945-2.385-1.373-4.396-1.406-4.402
				c0.02-0.029,1.26,1.729,2.184,4.07C358.561,9.837,359.676,11.549,359.691,11.566z"/>
			<path style="fill:#FFFFFF;" d="M363.564,26.515c-0.012,0.008-0.621-0.582-1.748-1.3c-1.109-0.703-2.824-1.648-4.324-3.096
				c-1.523-1.416-2.775-2.771-3.799-3.63c-1.023-0.862-1.754-1.295-1.742-1.312c-0.012,0.018,0.811,0.255,1.99,0.971
				c1.184,0.711,2.627,1.957,4.123,3.349c1.473,1.424,2.959,2.459,4.008,3.383C363.107,25.791,363.553,26.528,363.564,26.515z"/>
			<path style="fill:#FFFFFF;" d="M363.594,27.06c0.072-0.125-2.02-1.546-4.896-3.09c-1.4-0.945-2.336-2.067-3.115-2.756
				c-0.762-0.713-1.318-1.074-1.312-1.084c-0.008,0.01,0.646,0.18,1.566,0.747c0.934,0.545,2.051,1.532,3.326,2.389
				C361.988,24.769,363.758,27.008,363.594,27.06z"/>
			<path style="fill:#FFFFFF;" d="M364.197,30.827c-0.059,0.034-2.08-1.746-4.982-3.466c-2.734-2.14-4.174-4.501-4.238-4.449
				c0.041-0.073,2.162,1.758,4.738,3.765C362.637,28.415,364.186,30.902,364.197,30.827z"/>
			<path style="fill:#FFFFFF;" d="M364.785,33.872c0.006,0.003-0.58-0.439-1.463-1.188c-0.742-0.764-2.385-1.493-3.49-2.874
				c-1.213-1.19-2.51-2.249-3.154-3.261c-0.615-1.039-0.953-1.596-1.018-1.576c0.031-0.062,0.611,0.458,1.344,1.306
				c0.781,0.839,2.115,1.654,3.424,2.93c1.123,1.402,2.459,2.136,3.195,3.177C364.361,33.29,364.781,33.867,364.785,33.872z"/>
			<path style="fill:#FFFFFF;" d="M365.318,37.449c0.02,0.03-2.32-1.395-4.207-3.991c-2.133-2.259-3.68-4.476-3.598-4.498
				c-0.033,0.074,2.006,1.582,4.252,3.961C363.643,35.501,365.291,37.437,365.318,37.449z"/>
			<path style="fill:#FFFFFF;" d="M365.717,44.9c-0.031,0.045-2.082-2.135-4.244-4.951c-2.344-2.753-3.652-5.454-3.635-5.448
				c0.004,0.019,1.959,2.174,4.291,4.916C364.354,42.313,365.66,44.917,365.717,44.9z"/>
			<path style="fill:#FFFFFF;" d="M365.695,42.458c-0.018,0.012-1.844-2.297-4.191-4.966c-2.512-2.564-3.979-5.246-3.879-5.27
				c-0.053,0.084,1.969,2.11,4.518,4.71C364.564,39.693,365.684,42.481,365.695,42.458z"/>
			<path style="fill:#FFFFFF;" d="M365.51,41.714c0,0-1.883-2.199-3.732-5.188c-1.664-3.145-3.113-5.534-3.018-5.631
				c-0.125,0.046,2.092,2.075,3.73,5.179C364.35,39.073,365.51,41.713,365.51,41.714z"/>
			<path style="fill:#FFFFFF;" d="M365.811,46.625c-0.006-0.027-1.605-2.08-4.129-4.052c-2.525-1.994-4.299-4.033-4.264-4.048
				c-0.008,0.036,2.242,1.377,4.807,3.4C364.865,43.995,365.85,46.661,365.811,46.625z"/>
			<path style="fill:#FFFFFF;" d="M366.451,50.036c-0.012-0.024-1.791-2.023-4.279-4.206c-2.514-2.211-3.98-4.603-3.949-4.602
				c-0.002,0.031,2.025,1.783,4.527,3.983C365.303,47.46,366.477,50.056,366.451,50.036z"/>
			<path style="fill:#FFFFFF;" d="M366.854,52.243c-0.053,0.064-1.953-1.845-4.205-4.094c-1.131-1.082-2.281-2.069-2.947-2.938
				c-0.684-0.854-0.914-1.497-0.924-1.486c0.01-0.007,0.426,0.521,1.23,1.192c0.795,0.693,2.018,1.47,3.236,2.634
				C365.592,49.898,366.781,52.289,366.854,52.243z"/>
			<path style="fill:#FFFFFF;" d="M366.633,53.488c0-0.02-2.074-1.821-4.551-4.159c-2.35-2.563-3.797-4.842-3.936-4.765
				c0.076-0.14,2.289,1.711,4.533,4.166C365.16,51.073,366.652,53.492,366.633,53.488z"/>
			<path style="fill:#FFFFFF;" d="M366.098,52.526c-0.014-0.017-1.836-1.113-4.176-2.301c-2.379-1.214-3.916-2.872-3.885-2.874
				c0.006,0.026,1.939,0.93,4.299,2.131C364.742,50.716,366.127,52.542,366.098,52.526z"/>
			<path style="fill:#FFFFFF;" d="M366.619,56.197c-0.012-0.018-1.963-2.024-4.641-4.232c-2.797-2.126-4.238-4.756-4.299-4.65
				c0.105-0.063,2.07,1.9,4.861,4.021C365.271,53.585,366.645,56.22,366.619,56.197z"/>
			<path style="fill:#FFFFFF;" d="M367.002,59.489c-0.025,0.011-1.465-2.158-3.748-4.209c-2.434-2.06-3.801-4.351-3.781-4.344
				c0.008,0.021,1.939,1.679,4.346,3.715C366.275,56.88,366.992,59.536,367.002,59.489z"/>
			<path style="fill:#FFFFFF;" d="M366.434,59.702c-0.004-0.036-1.756-1.114-3.893-2.565c-2.213-1.499-3.111-3.608-3.07-3.582
				c0.01,0.031,1.467,1.481,3.572,2.902C365.184,57.907,366.477,59.702,366.434,59.702z"/>
			<path style="fill:#FFFFFF;" d="M364.814,31.886c0.018-0.046-1.916-1.601-3.992-3.94c-2.158-2.167-3.199-4.653-3.08-4.656
				c-0.053,0.09,1.533,1.894,3.734,4.122C363.494,29.682,364.859,31.874,364.814,31.886z"/>
			<path style="fill:#FFFFFF;" d="M359.877,12.4c-0.021,0.037-0.957-2.735-0.742-6.213c0.203-3.413,0.135-6.166,0.111-6.186
				c0.014-0.036,0.939,2.736,0.734,6.211C359.77,9.629,359.848,12.379,359.877,12.4z"/>
			<path style="fill:#FFFFFF;" d="M360.643,15.844c0.012,0-0.234-0.839-0.285-2.25c-0.062-1.412,0.176-3.336,0.305-5.413
				c0.119-4.207,0.867-7.645,0.932-7.617c-0.068,0.018,0.035,3.414-0.09,7.671c-0.131,2.151-0.578,4.012-0.723,5.378
				C360.617,14.977,360.654,15.844,360.643,15.844z"/>
			<path style="fill:#FFFFFF;" d="M361.521,18.178c0.084,0.031-0.301-3.724,1.102-8.078c1.506-4.242,2.41-7.697,2.316-7.746
				c0.113-0.027,0.002,3.75-1.506,7.989C362.064,14.555,361.604,18.192,361.521,18.178z"/>
			<path style="fill:#FFFFFF;" d="M361.816,19.973c0.117,0.021,0.391-3.122,1.863-6.779c0.787-1.791,1.646-3.289,2.15-4.44
				c0.51-1.144,0.707-1.911,0.729-1.908c-0.021-0.003-0.008,0.796-0.33,2.048c-0.312,1.25-1.004,2.887-1.768,4.632
				C363.043,17.032,361.92,20.024,361.816,19.973z"/>
			<path style="fill:#FFFFFF;" d="M364.656,32.761c-0.139,0.012,0.73-3.567,3.012-7.207c1.936-3.89,4.223-6.622,4.209-6.62
				c0.008,0.009-1.537,3.156-3.457,7.002C366.109,29.644,364.559,32.679,364.656,32.761z"/>
			<path style="fill:#FFFFFF;" d="M365.756,46.814c0.07,0.051,1.771-3.452,4.672-7.188c2.643-4.015,6-6.226,6.033-6.116
				c-0.088-0.058-2.746,2.657-5.344,6.606C368.213,43.856,365.826,46.861,365.756,46.814z"/>
			<path style="fill:#FFFFFF;" d="M366.207,45.578c0.018,0.012,1.152-3.121,3.318-6.598c2.191-3.479,4.729-5.706,4.711-5.702
				c0.004,0.011-1.85,2.741-3.994,6.154C368.107,42.854,366.225,45.59,366.207,45.578z"/>
			<path style="fill:#FFFFFF;" d="M366.104,48.132c0.014,0.028,0.178-0.864,1.148-1.846c0.961-0.973,2.363-2.133,4.041-3.308
				c3.416-2.193,6.205-3.866,6.191-3.916c0.047,0.023-2.309,2.429-5.715,4.613c-1.633,1.143-3.189,2.158-4.23,2.922
				C366.48,47.369,366.121,48.148,366.104,48.132z"/>
			<path style="fill:#FFFFFF;" d="M365.953,49.56c0.002,0.013,1.898-2.146,4.721-4.184c2.688-2.238,5.51-3.188,5.512-3.084
				c-0.074-0.062-2.324,1.528-4.998,3.761C368.371,48.083,365.969,49.565,365.953,49.56z"/>
			<path style="fill:#FFFFFF;" d="M366.266,51.193c-0.07,0.02,1.135-2.489,3.922-4.187c2.701-1.706,5.143-2.523,5.129-2.564
				c0.031,0.032-2.041,1.613-4.662,3.268C368.002,49.317,366.252,51.151,366.266,51.193z"/>
			<path style="fill:#FFFFFF;" d="M366.084,52.937c0,0.022,1.283-2.148,3.742-3.975c2.467-1.839,4.971-2.331,4.941-2.333
				c-0.004,0.016-2.092,1.255-4.438,3.011C367.973,51.383,366.098,52.945,366.084,52.937z"/>
			<path style="fill:#FFFFFF;" d="M366.359,54.888c-0.008,0.022,1.029-2.187,3.307-4.033c2.256-1.831,4.473-2.674,4.461-2.69
				c0.012,0.016-1.744,1.571-3.924,3.339C368.029,53.265,366.377,54.883,366.359,54.888z"/>
			<path style="fill:#FFFFFF;" d="M372.754,50.585c0.025,0.011-1.199,1.391-2.977,2.583c-1.768,1.166-2.998,2.365-3.008,2.403
				c-0.047,0.031,0.621-1.83,2.516-3.087C371.109,51.256,372.754,50.616,372.754,50.585z"/>
			<path style="fill:#FFFFFF;" d="M373.504,52.585c0.027,0.002-1.27,1.496-3.258,2.682c-1.973,1.16-3.508,2.191-3.514,2.22
				c-0.043,0.016,1.018-1.726,3.061-2.933C371.787,53.367,373.498,52.608,373.504,52.585z"/>
			<path style="fill:#FFFFFF;" d="M372.818,21.967c0.082,0-0.957,3.157-3.336,6.313c-1.057,1.679-2.328,2.985-3.23,3.905
				c-0.926,0.884-1.268,1.617-1.277,1.614c0.004,0.015,0.156-0.822,0.949-1.888c0.746-1.057,1.822-2.454,2.861-4.109
				C371.154,24.655,372.867,22.024,372.818,21.967z"/>
			<path style="fill:#FFFFFF;" d="M373.439,23.838c0.008,0.012-1.682,2.772-4.012,5.975c-2.326,3.219-4.527,5.606-4.531,5.605
				c0.004-0.001,1.514-2.873,3.846-6.101C371.088,26.095,373.451,23.842,373.439,23.838z"/>
			<path style="fill:#FFFFFF;" d="M373.719,25.493c-0.018-0.02-1.188,2.882-3.59,5.863c-2.281,3.001-4.725,5.015-4.781,4.921
				c0.096,0.051,1.822-2.429,4.121-5.451C371.814,27.923,373.699,25.481,373.719,25.493z"/>
			<path style="fill:#FFFFFF;" d="M362.035,20.303c0.082,0.003,1.242-2.772,2.682-6.302c1.541-3.476,3.406-5.993,3.402-5.985
				c-0.008,0.006-1.1,2.88-2.633,6.337C364.059,17.859,362.08,20.373,362.035,20.303z"/>
			<path style="fill:#FFFFFF;" d="M362.377,20.521c0.012,0.008,0.045-0.612,0.449-1.515c0.385-0.921,1.148-2.004,1.834-3.255
				c0.754-1.287,1.529-2.303,2.057-3.126c0.572-0.813,1.135-1.119,1.129-1.112c-0.205-0.136-0.961,2.165-2.455,4.664
				c-0.721,1.311-1.662,2.281-2.201,3.041C362.627,19.969,362.389,20.524,362.377,20.521z"/>
			<path style="fill:#FFFFFF;" d="M371.955,16.366c0.133,0.028-1.242,3.085-3.635,6.238c-2.113,3.292-4.016,5.977-3.977,5.98
				c-0.023-0.021,1.098-3.056,3.283-6.464C370.053,18.92,372.045,16.462,371.955,16.366z"/>
			<path style="fill:#FFFFFF;" d="M371.32,16.39c-0.102-0.1-0.775,2.989-3.373,5.735c-1.215,1.313-2.27,2.543-2.99,3.506
				c-0.742,0.979-1.455,1.334-1.443,1.33c0-0.003,0.551-0.508,1.092-1.564c0.537-1.069,1.463-2.491,2.729-3.854
				C369.805,18.95,371.191,16.338,371.32,16.39z"/>
			<path style="fill:#FFFFFF;" d="M363.211,23.77c-0.047,0.004,0.879-3.057,3.113-6.208c2.154-3.125,4.168-5.513,4.18-5.503
				c-0.016-0.007-1.314,2.829-3.484,5.987C364.822,21.137,363.186,23.732,363.211,23.77z"/>
			<path style="fill:#FFFFFF;" d="M362.822,23.186c0.031,0.02,0.775-2.854,2.629-5.969c1.723-3.116,3.508-5.498,3.627-5.397
				c-0.143-0.065-1.143,2.655-2.896,5.819C364.365,20.689,362.854,23.205,362.822,23.186z"/>
			<path style="fill:#FFFFFF;" d="M363.281,24.861c-0.033,0.037,0.473-2.737,2.828-5.122c2.256-2.295,4.02-4.132,4.111-4.097
				c-0.047-0.082-1.25,2.388-3.49,4.672C364.518,22.522,363.26,24.854,363.281,24.861z"/>
			<path style="fill:#FFFFFF;" d="M365.338,39.892c0.023-0.002,1.736-3.172,3.848-7.108c2.137-3.974,4.824-6.564,4.818-6.537
				c-0.02,0.006-1.975,3.031-4.08,6.951C367.799,37.147,365.346,39.917,365.338,39.892z"/>
			<path style="fill:#FFFFFF;" d="M365.631,42.271c0.006,0.006,0.203-0.774,0.824-1.903c0.619-1.145,1.582-2.539,2.381-4.286
				c1.584-3.582,4.068-5.794,4.102-5.7c-0.084-0.023-1.781,2.544-3.348,6.079c-0.812,1.782-2.023,3.167-2.781,4.14
				C366.027,41.587,365.637,42.272,365.631,42.271z"/>
			<path style="fill:#FFFFFF;" d="M365.734,43.002c-0.061-0.009,1.203-2.534,3.068-5.288c1.678-2.902,3.596-4.99,3.613-4.948
				c-0.045,0-1.193,2.447-2.898,5.396C367.594,41.004,365.697,42.954,365.734,43.002z"/>
			<path style="fill:#FFFFFF;" d="M371.35,22.175c0,0-1.109,2.52-2.914,5.347c-1.885,2.812-3.641,4.847-3.588,4.909
				c-0.078-0.016,1.023-2.6,2.875-5.364C369.525,24.24,371.35,22.175,371.35,22.175z"/>
			<path style="fill:#FFFFFF;" d="M366.576,61.592c0.068,1.219,0.123,2.348,0.168,3.38l0.303,0.034
				c-0.004-1.046-0.021-2.191-0.047-3.43c-0.195-6.411-0.611-15.223-1.467-24.975c-0.98-9.764-3.506-18.343-5.471-24.412
				c-1.961-6.093-3.145-9.869-3.145-9.869s0.984,3.835,2.74,9.988c1.766,6.152,4.061,14.68,5.033,24.38
				C365.541,46.386,366.172,55.221,366.576,61.592z"/>
			<path style="fill:#FFFFFF;" d="M339.938,82.681c0,0,1.07,3.794-2.807,10.984c0,0,2.33-5.37,2.471-10.588L339.938,82.681z"/>
			<path style="fill:#FFFFFF;" d="M340.65,81.879c0,0,1.551,5.476-1.607,11.752c0,0,2.109-4.97,1.049-11.521L340.65,81.879z"/>
			<path style="fill:#FFFFFF;" d="M357.045,62.853c0,0,8.271,3.759,9.936,14.331c0,0-1.881-10.116-10.914-13.796L357.045,62.853z"/>
			<path style="fill:#FFFFFF;" d="M351.953,67.783c0,0,9.309,2.095,12.951,11.688c0,0-5.154-9.287-13.785-10.945L351.953,67.783z"/>
			<path style="fill:#FFFFFF;" d="M351.609,68.268c0,0,8.141,4.974,8.494,15.224c0,0-1.885-10.447-9.521-14.789L351.609,68.268z"/>
			<path style="fill:#FFFFFF;" d="M350.348,70.023c0,0,8.135,4.978,8.488,15.229c0,0-1.881-10.448-9.521-14.789L350.348,70.023z"/>
			<path style="fill:#FFFFFF;" d="M349.35,71.052c0,0,8.139,4.974,8.492,15.228c0,0-1.883-10.451-9.523-14.793L349.35,71.052z"/>
			<path style="fill:#FFFFFF;" d="M352.432,66.394c0,0-4.814,3.288-6.701,9.293c0,0,2.385-5.713,6.779-9.032L352.432,66.394z"/>
			<path style="fill:#FFFFFF;" d="M352.238,66.941c0,0-5.24,2.555-7.979,8.223c0,0,3.188-5.306,8.02-7.958L352.238,66.941z"/>
			<path style="fill:#FFFFFF;" d="M349.225,70.76c0,0-5.236,2.555-7.979,8.225c0,0,3.186-5.312,8.023-7.958L349.225,70.76z"/>
			<path style="fill:#FFFFFF;" d="M347.469,72.217c0,0-4.676,3.482-6.318,9.557c0,0,2.148-5.804,6.41-9.302L347.469,72.217z"/>
			<path style="fill:#FFFFFF;" d="M344.771,75.842c0,0-4.674,3.48-6.318,9.557c0,0,2.15-5.809,6.412-9.302L344.771,75.842z"/>
			<path style="fill:#FFFFFF;" d="M341.639,80.046c0,0-4.678,3.479-6.32,9.553c0,0,2.148-5.807,6.41-9.3L341.639,80.046z"/>
			<path style="fill:#FFFFFF;" d="M339.811,82.442c0,0-4.074,4.162-4.752,10.419c0,0,1.219-6.068,4.879-10.181L339.811,82.442z"/>
			<path style="fill:#FFFFFF;" d="M372.838,57.802c0,0-0.641-8.502-16.631,6.108C344.072,75,330.486,97.201,330.486,97.201
				s10.389-19.53,25.709-34.293c15.592-15.03,17.471-5.455,17.471-5.455L372.838,57.802z"/>
			<path style="fill:#FFFFFF;" d="M361.279,59.495c0,0,8.168,5.015,10.664,10.649c0,0-4.328-6.832-11.072-10.466L361.279,59.495z"/>
			<path style="fill:#FFFFFF;" d="M355.1,65.034c0,0,8.17,5.015,10.66,10.648c0,0-4.328-6.829-11.068-10.467L355.1,65.034z"/>
			<path style="fill:#FFFFFF;" d="M353.594,66.169c0,0,8.17,5.015,10.662,10.648c0,0-4.332-6.833-11.068-10.468L353.594,66.169z"/>
			<path style="fill:#FFFFFF;" d="M359.082,61.111c0,0,8.166,5.016,10.662,10.648c0,0-4.334-6.832-11.072-10.467L359.082,61.111z"/>
			<path style="fill:#FFFFFF;" d="M353.145,66.787c0,0,7.598,5.848,9.482,11.709c0,0-3.588-7.247-9.908-11.568L353.145,66.787z"/>
			<path style="fill:#FFFFFF;" d="M360.547,59.664c0,0,6.734,2.414,11.215,12.062c0,0-4.844-9.199-11.42-11.805L360.547,59.664z"/>
			<path style="fill:#FFFFFF;" d="M360.342,59.92c0,0,7.334,3.742,10.59,12.872c0,0-2.934-7.382-10.812-12.637L360.342,59.92z"/>
			<path style="fill:#FFFFFF;" d="M359.307,60.639c0,0,8.676,3.837,11.473,13.733c0,0-2.955-8.959-11.877-13.378L359.307,60.639z"/>
			<path style="fill:#FFFFFF;" d="M358.096,61.771c0,0,8.674,3.835,11.471,13.733c0,0-2.955-8.958-11.877-13.379L358.096,61.771z"/>
			<path style="fill:#FFFFFF;" d="M356.881,62.841c0,0,8.676,3.835,11.475,13.733c0,0-2.959-8.958-11.879-13.373L356.881,62.841z"/>
			<path style="fill:#FFFFFF;" d="M356.123,63.376c0,0,8.338,4.523,10.324,14.613c0,0-2.225-9.166-10.76-14.291L356.123,63.376z"/>
			<path style="fill:#FFFFFF;" d="M355.992,63.816c0,0,7.695,5.547,8.379,15.803c0,0-1.035-9.373-8.848-15.536L355.992,63.816z"/>
			<path style="fill:#FFFFFF;" d="M354.607,65.123c0,0,7.695,5.547,8.379,15.808c0,0-1.037-9.377-8.852-15.537L354.607,65.123z"/>
			<path style="fill:#FFFFFF;" d="M353.965,65.372c0,0,7.697,5.541,8.381,15.801c0,0-1.035-9.372-8.85-15.536L353.965,65.372z"/>
			<path style="fill:#FFFFFF;" d="M358.441,61.412c0,0,8.379,3.669,11.588,13.616c0,0-3.789-9.762-12.232-13.487L358.441,61.412z"/>
			<path style="fill:#FFFFFF;" d="M357.223,62.192c0,0,8.789,3.603,12.836,14.651c0,0-5.033-10.565-13.182-14.232L357.223,62.192z"
				/>
			<path style="fill:#FFFFFF;" d="M352.441,67.239c0,0,7.793,3.853,9.984,16.038c0,0-2.893-12.116-10.393-15.856L352.441,67.239z"/>
			<path style="fill:#FFFFFF;" d="M351.572,68.014c0,0,7.434,3.038,9.234,12.952c0,0-2.334-10.138-9.76-12.71L351.572,68.014z"/>
			<path style="fill:#FFFFFF;" d="M350.941,68.843c0,0,4.768,1.27,7.211,7.487c0,0-2.91-6.152-7.734-7.361L350.941,68.843z"/>
			<path style="fill:#FFFFFF;" d="M350.363,69.497c0,0,6.705,1.355,11.088,15.027c0,0-4.496-13.378-11.488-14.612L350.363,69.497z"
				/>
			<path style="fill:#FFFFFF;" d="M352.033,67.421c0,0,9.168,1.668,12.264,15.478c0,0-3.021-12.936-12.551-15.296L352.033,67.421z"
				/>
			<path style="fill:#FFFFFF;" d="M349.963,69.912c0,0,7.854,2.941,10.047,14.547c0,0-2.615-10.661-10.58-14.35L349.963,69.912z"/>
			<path style="fill:#FFFFFF;" d="M349.25,70.676c0,0,5.611,1.725,9.299,12.62c0,0-4.189-10.885-9.541-12.239L349.25,70.676z"/>
			<path style="fill:#FFFFFF;" d="M349.562,70.483c0,0,6.766,3.521,7.828,14.708c0,0-1.75-11.175-8.133-14.264L349.562,70.483z"/>
			<path style="fill:#FFFFFF;" d="M348.699,71.372c0,0,7.525,3.885,7.777,15.585c0,0-1.127-11.497-7.963-15.204L348.699,71.372z"/>
			<path style="fill:#FFFFFF;" d="M347.773,72.45c0,0,6.895,3.395,7.637,14.398c0,0-1.178-10.744-7.816-13.957L347.773,72.45z"/>
			<path style="fill:#FFFFFF;" d="M348.514,71.753c0,0,6.355,5.029,5.812,14.236c0,0-0.41-10.006-6.305-13.794L348.514,71.753z"/>
			<path style="fill:#FFFFFF;" d="M353.971,87.123c0,0-0.168-10.26-6.875-13.973l-0.305,0.568
				C346.791,73.718,353.105,76.372,353.971,87.123z"/>
			<path style="fill:#FFFFFF;" d="M346.359,74.226c0,0,6.947,2.892,7.086,15.346c0,0-0.705-12.568-7.395-15.025L346.359,74.226z"/>
			<path style="fill:#FFFFFF;" d="M345.809,74.989c0,0,7.285,4.51,7.096,16.216c0,0-0.695-12.128-7.59-15.773L345.809,74.989z"/>
			<path style="fill:#FFFFFF;" d="M346.791,73.718c0,0,6.139,7.224,4.449,19.27c0,0,0.982-12.909-4.881-18.762L346.791,73.718z"/>
			<path style="fill:#FFFFFF;" d="M345.809,74.989c0,0,4.855,5.492,4.221,16.517c0,0,0.07-11.016-4.715-16.073L345.809,74.989z"/>
			<path style="fill:#FFFFFF;" d="M344.824,76.127c0,0,5.047,1.735,5.963,11.923c0,0-1.283-9.43-6.334-11.478L344.824,76.127z"/>
			<path style="fill:#FFFFFF;" d="M344.025,77.144c0,0,5.203,3.793,4.578,15.509c0,0-0.439-11.757-4.885-15.13L344.025,77.144z"/>
			<path style="fill:#FFFFFF;" d="M344.453,76.573c0,0,4.816,6.683,3.037,17.164c0,0,1.184-12.162-3.408-16.843L344.453,76.573z"/>
			<path style="fill:#FFFFFF;" d="M343.719,77.523c0,0,5.18,6.237,4.91,16.821c0,0-0.945-12.003-5.283-16.377L343.719,77.523z"/>
			<path style="fill:#FFFFFF;" d="M342.857,78.79c0,0,5.23,5.361,4.182,17.956c0,0,0.291-13.085-4.551-17.637L342.857,78.79z"/>
			<path style="fill:#FFFFFF;" d="M342.178,79.488c0,0,4.369,6.315,2.646,16.167c0,0,1.084-10.592-3.139-15.784L342.178,79.488z"/>
			<path style="fill:#FFFFFF;" d="M341.631,80.497c0,0,3.098,5.212,1.666,13.746c0,0,1.125-8.03-2.033-13.361L341.631,80.497z"/>
			<path style="fill:#FFFFFF;" d="M340.957,81.384c0,0,2.471,5.531-0.156,13.647c0,0,1.957-6.915-0.277-13.327L340.957,81.384z"/>
			<path style="fill:#FFFFFF;" d="M343.346,77.967c0,0,4.189,6.757,2.82,15.415c0,0,1.008-7.651-3.062-14.909L343.346,77.967z"/>
			<path style="fill:#FFFFFF;" d="M340.219,82.399c0,0,2.107,6.163-0.486,12.463c0,0,1.949-7.292,0.053-12.078L340.219,82.399z"/>
			<path style="fill:#FFFFFF;" d="M339.549,83.351c0,0,1.969,5.476-3.418,13.823c0,0,4.219-6.829,3.195-13.387l-0.029-0.309
				L339.549,83.351z"/>
			<path style="fill:#FFFFFF;" d="M339.297,83.478c0,0-0.133,7.199-4.986,13.6c0,0,3.973-6.449,4.615-13.094L339.297,83.478z"/>
			<path style="fill:#FFFFFF;" d="M338.32,85.182c0,0-0.775,6.335-6.004,12.802c0,0,4.412-6.392,5.633-12.419L338.32,85.182z"/>
			<path style="fill:#FFFFFF;" d="M337.523,86.26c-0.064-0.187-1.322,7.468-6.762,12.562c0,0,5.23-6.28,6.203-12.178L337.523,86.26z
				"/>
			<path style="fill:#FFFFFF;" d="M336.049,88.288c0,0-0.93,4.519-4.936,8.901c0,0,3.551-5.376,4.385-8.143L336.049,88.288z"/>
			<path style="fill:#FFFFFF;" d="M341.264,80.881c0,0,3.098,5.644,1.023,13.062c0,0,1.51-7.537-1.33-12.56L341.264,80.881z"/>
			<path style="fill:#FFFFFF;" d="M344.453,76.573c0,0,4.299,2.061,4.734,9.69c0,0-0.611-6.876-5.105-9.369L344.453,76.573z"/>
			<path style="fill:#FFFFFF;" d="M342.742,79.166c0,0,3.334,4.641,1.611,10.675c0,0,1.027-6.272-1.922-10.293L342.742,79.166z"/>
			<path style="fill:#FFFFFF;" d="M355.484,64.397c0,0,1.1,0.642,2.209,1.983c0,0-1.695-1.331-2.75-1.585L355.484,64.397z"/>
			<path style="fill:#FFFFFF;" d="M361.549,59.151c0,0,4.102,1.371,7.756,6.446c0,0-4.469-4.938-8.506-6.31L361.549,59.151z"/>
			<path style="fill:#FFFFFF;" d="M360.799,59.288c0,0-6.578,2.689-8.885,6.751c0,0,3.721-4.234,8.428-6.119L360.799,59.288z"/>
			<path style="fill:#FFFFFF;" d="M357.678,61.859c0,0-5.479,2.004-8.789,7.36c0,0,3.721-4.951,8.801-7.094L357.678,61.859z"/>
			<path style="fill:#FFFFFF;" d="M356.477,62.9c0,0-5.477,2.005-8.783,7.362c0,0,3.715-4.954,8.797-7.095L356.477,62.9z"/>
			<path style="fill:#FFFFFF;" d="M356.107,63.863c0,0-5.475,2.005-8.783,7.364c0,0,3.715-4.955,8.799-7.096L356.107,63.863z"/>
			<path style="fill:#FFFFFF;" d="M353.828,65.626c0,0-5.475,2.007-8.785,7.366c0,0,3.719-4.958,8.799-7.096L353.828,65.626z"/>
			<path style="fill:#FFFFFF;" d="M364.318,66.759c0,0-2.793-3.49-6.043-4.512C358.275,62.247,361.773,64.149,364.318,66.759z"/>
			<path style="fill:#FFFFFF;" d="M363.021,67.664c0,0-2.865-3.219-5.576-4.253C357.445,63.411,361.764,66.032,363.021,67.664z"/>
			<path style="fill:#FFFFFF;" d="M361.689,68.606c0,0-1.701-2.738-4.459-4.308C357.23,64.298,360.742,67.201,361.689,68.606z"/>
			<path style="fill:#FFFFFF;" d="M361.412,70.65c0,0-2.539-4.726-4.561-5.924C356.852,64.727,360.775,69.313,361.412,70.65z"/>
			<path style="fill:#FFFFFF;" d="M358.529,70.887c0,0-2.094-3.233-3.73-4.356C354.799,66.53,356.938,67.646,358.529,70.887z"/>
			<path style="fill:#FFFFFF;" d="M355.664,74.853c0,0-3.184-3.946-5.502-4.563C350.162,70.29,353.973,72.611,355.664,74.853z"/>
			<path style="fill:#FFFFFF;" d="M352.275,76.982c0,0-1.896-2.816-3.408-3.558C348.867,73.425,351.479,75.573,352.275,76.982z"/>
			<path style="fill:#FFFFFF;" d="M345.299,76.709c0,0,1.82,0.816,2.816,2.837C348.115,79.546,346.307,77.114,345.299,76.709z"/>
			<path style="fill:#FFFFFF;" d="M344.588,78.14c0,0,2.104,1.314,2.988,6.102C347.576,84.242,346.271,79.769,344.588,78.14z"/>
			<path style="fill:#FFFFFF;" d="M341.072,82.12c0,0,1.014,3.251,0.662,5.331C341.734,87.451,341.555,83.266,341.072,82.12z"/>
			<path style="fill:#FFFFFF;" d="M339.691,84.832c0,0,0.152,2.187-0.143,3.228C339.549,88.059,339.613,87.33,339.691,84.832z"/>
			<path style="fill:#FFFFFF;" d="M342.084,80.062c0,0,3.531,6.509,1.793,13.605c0,0,1.02-6.522-2.463-13.258L342.084,80.062z"/>
			<path style="fill:#FFFFFF;" d="M353.391,66.414c0,0,6.535,0.736,10.064,6.966c0,0-4.195-5.324-10.736-6.451L353.391,66.414z"/>
			<path style="fill:#FFFFFF;" d="M401.148,43.877c-0.01-0.016-1.072,0.432-2.857,1.04c1.176-0.715,1.875-1.197,2.008-1.193
				c-0.203-0.04-1.91,0.877-4.59,2.018c-1.82,0.541-4.002,1.103-6.385,1.54c-0.625,0.126-1.236,0.244-1.838,0.351
				c0.854-0.175,1.74-0.363,2.643-0.559c7.184-1.403,12.117-4.975,11.998-5.042c0.049,0.106-5.156,2.771-12.205,4.142
				c-3.498,0.764-6.66,1.617-8.947,2.06c-1.355,0.274-2.42,0.307-3.07,0.299c0.293-0.435,0.584-0.874,0.875-1.311l0.23-0.017
				c0.646-0.04,1.637,0.063,2.826-0.076c2.379-0.208,5.645-0.699,9.191-1.538c7.133-1.625,12.402-4.455,12.381-4.439
				c-0.004-0.004-3.383,1.18-8.213,2.46c3.59-1.382,5.826-2.963,5.773-2.981c0.01,0.055-4.678,2.26-10.936,3.546
				c-4.643,1.301-8.75,1.727-10.48,1.887c0.145-0.21,0.281-0.418,0.424-0.628c0.543,0.095,1.488,0.179,2.727-0.01
				c1.984-0.383,4.709-0.767,7.635-1.866c0.281-0.116,0.559-0.234,0.826-0.351c0.209-0.052,0.416-0.107,0.623-0.164
				c6.367-1.535,10.898-4.456,10.861-4.456c-0.004,0.015-3.018,1.29-7.371,2.568c2.916-1.646,4.691-3.071,4.725-3.009
				c-0.033-0.084-3.963,2.034-9.096,4.179c-5.039,1.352-9.262,2.382-10.395,2.31c0.176-0.267,0.361-0.536,0.535-0.8
				c1.152,0.027,4.217-0.03,7.604-1.288c1.484-0.551,2.814-1.167,3.926-1.738c3.787-1.565,6.391-3.142,6.402-3.116
				c-0.01-0.034-4.037,1.345-8.9,3.096c-3.906,1.41-7.367,2.132-8.58,2.368c0.213-0.324,0.426-0.64,0.641-0.956
				c0.912-0.036,2.768-0.246,4.688-1.283l0.283-0.143l0.354-0.07c2.965-0.592,5.113-1.803,5.117-1.771
				c-0.008-0.027-1.715,0.546-4.037,1.071c0.553-0.31,1.045-0.604,1.463-0.86c1.01-0.181,2.084-0.406,3.191-0.688
				c5.461-1.368,9.504-3.544,9.504-3.512c-0.014-0.03-4.205,1.231-9.449,2.548c0.748-0.349,1.174-0.601,1.146-0.65
				c0.055,0.118-2.406,0.895-5.5,1.722c-0.814,0.194-1.57,0.365-2.248,0.516c-0.762,0.131-1.461,0.221-2.033,0.37
				c-0.264,0.06-0.502,0.127-0.705,0.198l-0.084,0.01c0.182-0.267,0.354-0.532,0.531-0.793c0.916-0.192,2.867-0.558,5.125-1.17
				l0.227-0.07c1.615-0.266,3.559-0.639,5.629-1.153c5.541-1.3,9.582-3.612,9.59-3.551c-0.012-0.025-0.973,0.278-2.553,0.738
				c2.373-1.177,3.766-2.245,3.762-2.208c-0.016-0.046-4.389,2.192-10.141,3.579c-0.576,0.129-1.141,0.248-1.695,0.355l0.066-0.045
				c1.164-0.286,2.389-0.661,3.633-1.11c6.271-2.128,10.242-5.946,10.584-5.98c-0.367-0.024-4.758,3.049-10.898,5.116
				c-3.121,1.131-6.014,1.982-8.178,2.145c-1.352,0.083-2.4,0.097-2.996,0.103c0.336-0.511,0.648-0.988,0.932-1.416
				c0.152,0.076,0.24,0.102,0.23,0.076l-0.18-0.149c0.191-0.292,0.363-0.561,0.521-0.809c0.334,0.157,1.041,0.461,2.113,0.593
				c1.529,0.177,3.623-0.121,5.797-0.777c4.355-1.412,7.424-3.454,7.457-3.39c-0.012-0.066-3.51,1.146-7.729,2.51
				c-2.117,0.639-4.072,1.141-5.508,1.195c-0.889,0.036-1.568-0.072-1.963-0.15l-0.09-0.101c0.197-0.3,0.365-0.566,0.51-0.787h0.033
				c0.436,0.167,1.127,0.365,2.061,0.382c1.664,0.042,3.871-0.524,6.229-1.301c0.533-0.122,1.074-0.268,1.623-0.443
				c5.287-1.375,9.117-3.637,9.131-3.585c-0.014-0.032-1.938,0.604-4.797,1.435c1.389-0.739,2.24-1.291,2.346-1.337
				c-0.117,0.026-1.689,0.833-4.068,1.828c-0.893,0.254-1.852,0.514-2.846,0.771c-0.311,0.097-0.621,0.189-0.926,0.278l0.047-0.018
				c4.809-1.822,8.398-3.899,8.443-3.804c-0.033-0.099-3.85,1.571-8.598,3.373c-1.303,0.507-2.553,0.925-3.68,1.263
				c-2.025,0.295-3.604,0.298-4.316,0.161c0.125-0.169,0.256-0.343,0.396-0.523c-0.043,0.26-0.062,0.406-0.076,0.4
				c0.014,0.006,0.059-0.169,0.146-0.49c0.15-0.193,0.311-0.39,0.477-0.595c1.135,0.053,4.84,0.069,8.994-1.374
				c4.957-1.705,8.707-3.688,8.732-3.634c-0.016-0.056-3.969,1.508-8.879,3.198c-4.047,1.414-7.66,1.712-8.814,1.776
				c0.188-0.231,0.385-0.469,0.59-0.712c1.234-0.1,4.773-0.334,8.758-1.656c4.904-1.704,8.67-3.56,8.691-3.511
				c-0.016-0.052-3.973,1.383-8.836,3.074c-3.859,1.285-7.303,1.815-8.562,2.038c0.309-0.36,0.631-0.729,0.971-1.104
				c0.496-0.034,1.236-0.07,2.186-0.07c1.793-0.179,4.17-0.925,6.707-1.881c2.543-0.965,4.809-1.873,6.459-2.559
				c1.65-0.717,2.457-1.516,2.465-1.5c-0.008-0.011-0.885,0.685-2.549,1.285c-1.672,0.571-4.012,1.381-6.537,2.343
				c-2.535,0.954-4.832,1.794-6.578,2.085c-0.877,0.054-1.59,0.143-2.084,0.22c0.334-0.371,0.676-0.743,1.027-1.124
				c1.406-0.381,3.984-1.001,6.766-2.294c4.176-1.944,7.506-3.635,7.5-3.651c0.01,0.016-3.518,1.288-7.691,3.232
				c-2.555,1.194-4.961,1.989-6.381,2.506l0.359-0.382c0.998-0.551,2.309-1.29,3.738-2.095c2.967-1.787,5.195-3.479,5.367-3.558
				c-0.117,0.018-2.637,1.372-5.596,3.155c-1.002,0.569-1.92,1.137-2.701,1.649c4.082-4.236,8.617-8.394,8.617-8.394
				c-0.328,0.274-5.203,3.435-9.84,8.14c0.43-0.64,0.914-1.342,1.447-2.078c1.684-2.901,3.555-4.79,3.662-4.702
				c-0.051-0.11-1.531,0.94-2.986,2.853c1.48-2.135,2.816-3.585,2.869-3.719c-0.125,0.179-2.332,1.92-4.141,4.819
				c-0.83,1.339-1.385,2.648-1.758,3.686l-0.098,0.182c-0.521,0.56-1.033,1.139-1.533,1.737l-0.002-0.138
				c0.422-1.287,1-2.845,1.76-4.464c1.076-1.974,2.273-3.672,3.133-4.864c1.031-1.019,1.695-1.721,1.648-1.745
				c0.029,0.045-0.658,0.605-1.824,1.594c-0.971,1.148-2.252,2.769-3.359,4.793c-0.367,0.789-0.682,1.561-0.943,2.296
				c0.166-0.827,0.316-1.75,0.426-2.715c0.447-3.648,1.088-6.522,1.25-6.483c-0.148-0.082-1.264,2.761-1.707,6.414
				c-0.141,1.255-0.295,2.397-0.436,3.381l-0.279-9.665l-0.49,12.607c-0.154,0.198-0.311,0.399-0.465,0.604
				c-0.203-0.742-0.205-3.704-0.213-7.167c0.09-4.08,1.072-7.284,1.072-7.284c0.014-0.026-1.434,3.1-1.531,7.271
				c0.002,3.537,0.35,6.509,0.656,7.207l-0.053,0.075c-0.363-1.179-0.879-3.444-1.029-6.138c-0.059-3.696,0.408-6.853,0.662-7.068
				c-0.287,0.199-1.176,3.206-1.121,7.102c0.156,2.786,0.912,5.076,1.406,6.21c-0.188,0.254-0.369,0.507-0.547,0.763
				c-0.547-1.067-1.381-4.584-1.707-8.75v-0.005c0.148-0.741,0.301-1.425,0.391-2.033c0.23-1.485,0.6-2.353,0.588-2.36
				c0.008-0.015-0.525,0.833-1.08,2.292c-0.047-4.169,0.865-7.237,0.861-7.226c0.018-0.04-1.496,3.583-1.277,8.446
				c-0.094,0.305-0.186,0.626-0.268,0.965c-0.266-2.209-0.176-3.733-0.121-3.751c-0.068-0.082-1.035,2.845-0.348,6.48
				c-0.023,0.288-0.049,0.583-0.059,0.887c-0.023,0.794,0.018,1.549,0.096,2.263c-0.35-1.182-0.633-2.51-0.766-3.948
				c-0.061-1.304-0.098-2.551-0.115-3.701c0.277-1.326,0.535-2.103,0.525-2.108c0.01-0.002-0.221,0.402-0.537,1.14
				c0-0.144,0-0.29,0-0.432c0.822-2.493,1.609-4.069,1.645-4.206c-0.053,0.144-0.812,1.399-1.645,3.449
				c0.018-2.64,0.133-4.375,0.207-4.375c-0.078-0.032-0.643,2.081-0.908,5.251c-0.359,0.922-0.982,2.547-1.576,4.639
				c-0.076-1.768,0.104-2.954,0.084-2.948c0.041-0.048-0.939,2.173-0.682,5.288c-0.191,0.845-0.367,1.738-0.512,2.672
				c-0.395,3.022-0.078,5.792,0.385,7.722c0.367,1.477,1.074,2.287,1.395,2.607c-0.15,0.224-0.303,0.448-0.455,0.676
				c-0.33-0.734-0.887-2.075-1.346-3.809c-0.266-2.282-0.555-5.259-0.391-8.505c0.367-7.239,2.199-12.927,2.102-12.934
				c0.104,0-2.188,5.57-2.561,12.914c-0.066,1.326-0.043,2.601,0.033,3.803c-0.209-1.628-0.393-3.089-0.381-4.217
				c-0.014-1.458,0.223-2.348,0.203-2.352c0.02,0-0.324,0.863-0.436,2.343c-0.123,1.485,0.057,3.517,0.344,5.744
				c0.182,1.5,0.543,2.843,0.943,3.967l0.004,0.014c0.287,1.74,0.986,2.789,1.344,3.241c-0.258,0.377-0.51,0.758-0.77,1.14
				c-0.426-0.917-1.059-2.487-1.381-4.387c-0.287-1.506-0.359-2.898-0.391-3.929c-0.037-1.041-0.311-1.642-0.305-1.638
				c-0.002,0,0.152,0.621,0.074,1.638c-0.084,1.007-0.131,2.458,0.17,4.014c0.344,2.021,1.188,3.576,1.742,4.435
				c-0.285,0.419-0.572,0.84-0.863,1.266l-0.229-0.26c-0.326-0.59-0.738-1.468-1.115-2.577l-0.045-0.322
				c-0.268-2.404-0.199-5.814-0.086-9.528c0.262-7.46,1.869-13.353,1.834-13.353c0.041-0.015-2.027,5.796-2.291,13.334
				c-0.1,3.178-0.08,6.093,0.16,8.403c-0.287-1.15-0.49-2.461-0.525-3.888c-0.047-5.123,0.191-9.343,0.332-9.315
				c-0.139-0.02-0.838,4.12-0.799,9.337c0.07,2.427,0.695,4.474,1.375,5.979c0.242,0.768,0.592,1.331,0.908,1.723
				c0.148,0.232,0.279,0.428,0.4,0.585c-0.225,0.33-0.449,0.661-0.676,0.993c-0.41-0.382-1.275-1.357-1.611-3.147
				c-0.418-2.352-0.732-5.728-0.828-9.39c-0.166-7.381,1.354-13.277,1.291-13.277c0.066-0.025-2.145,5.758-1.98,13.289
				c0.012,0.589,0.041,1.167,0.072,1.731c-0.648-6.425,0.338-11.624,0.293-11.617c0.051-0.035-1.664,5.242-0.957,11.936
				c0.596,5.67,2.363,10.293,3.264,11.144c-0.201,0.287-0.398,0.576-0.596,0.866c-0.223-0.261-0.533-0.676-0.818-1.275
				c-0.551-1.083-0.979-2.733-1.455-4.541c-0.49-1.816-0.916-3.446-0.984-4.668c-0.076-1.217,0.17-1.961,0.141-1.965
				c0.029,0.002-0.336,0.71-0.371,1.971c-0.051,1.256,0.277,2.965,0.77,4.779c0.48,1.821,1.025,3.465,1.695,4.537
				c0.361,0.594,0.73,0.98,0.99,1.216c-0.127,0.183-0.256,0.367-0.379,0.552c-0.342-0.441-0.988-1.346-1.686-2.63
				c-0.699-2.033-1.418-4.789-1.734-7.842c-0.115-6.414,0.145-11.934,0.342-12.229c-0.238,0.273-1.309,5.22-1.271,11.703
				c-0.352-2.011-0.621-3.842-0.713-5.236c-0.113-1.871,0.117-3.04,0.092-3.042c0.025,0-0.436,1.111-0.555,3.04
				c-0.105,1.938,0.102,4.54,0.639,7.435c0.15,0.754,0.348,1.469,0.574,2.139c0.189,0.764,0.566,2.251,1.164,3.926
				c0.719,2.005,2.051,3.219,2.545,3.612c-0.375,0.547-0.748,1.087-1.119,1.623c-0.221-0.544-0.527-1.356-0.871-2.386
				c-0.77-1.974-1.812-4.694-2.605-7.786c-0.732-3.059-1.066-6.038-1.178-8.068c0.137-2.093,0.16-3.435,0.137-3.427
				c0.016,0.015-0.223,1.278-0.6,3.392c-0.117,2.18-0.018,5.103,0.748,8.329c0.816,3.185,2.1,5.87,3.078,7.748
				c0.469,1.02,0.902,1.812,1.203,2.328c-0.221,0.318-0.436,0.634-0.652,0.949c-0.229-0.278-0.488-0.636-0.732-1.087
				c-0.75-1.236-1.277-3.183-2.156-5.242c-1.445-4.12-1.771-7.81-1.932-7.757c0.168-0.03,0.008,3.644,1.504,7.934
				c0.871,2.024,1.518,3.968,2.385,5.189c0.301,0.45,0.604,0.794,0.865,1.055c-0.236,0.342-0.475,0.684-0.705,1.02
				c-0.578-0.949-1.455-2.538-2.135-4.475c-1.113-3.174-1.266-5.958-1.299-5.952c0.033-0.024-0.283,2.819,0.863,6.108
				c0.717,2.034,1.781,3.573,2.48,4.454c-0.264,0.376-0.525,0.748-0.777,1.116c-0.271-0.476-0.66-1.258-0.977-2.329
				c-0.381-1.927-1.475-4.473-1.775-7.429c-0.533-2.683-0.846-5.147-1.01-7.043c0.346-3.83,0.957-6.448,0.953-6.641
				c-0.033,0.19-0.596,1.815-1.1,4.355c-0.027-0.91,0.006-1.436,0.074-1.433c-0.086-0.025-0.191,0.785-0.207,2.15
				c-0.371,2.067-0.676,4.642-0.633,7.487c-0.619-6.401-0.133-11.413-0.158-11.413c0.033-0.024-1.244,5.841-0.352,13.113
				c0.018,0.166,0.039,0.329,0.061,0.489c-0.42-1.669-0.699-3.2-0.869-4.401c-0.291-1.833-0.607-2.907-0.5-2.927
				c-0.111,0.005,0.096,1.14,0.268,2.941c0.148,1.843,0.518,4.366,1.393,7.055c0.062,0.193,0.133,0.386,0.197,0.576
				c0.361,2.082,0.762,3.927,1.115,5.411c0.328,1.138,0.572,2.108,1.053,2.624c0.143,0.171,0.289,0.283,0.414,0.364
				c-0.146,0.212-0.297,0.427-0.443,0.636c-0.152-0.412-0.484-1.187-1.037-2.162c-0.467-1.069-1.002-2.51-1.682-4.07
				c-0.217-0.722-0.418-1.477-0.604-2.257c-1.168-5.322-1.105-9.854-1.184-9.842c0.078-0.019-0.6,4.001,0.326,9.056
				c-2.027-4.125-3.287-7.464-3.125-7.505c-0.182,0.025,0.883,4.14,3.232,8.757c0.111,0.219,0.219,0.436,0.322,0.648
				c0.475,1.728,1.098,3.238,1.652,4.504c-0.721-1.119-1.492-2.424-2.223-3.859c-2.43-4.728-4.449-8.572-4.488-8.545
				c0.043-0.019,1.639,4.002,4.082,8.763c1.072,2.101,2.297,3.873,3.34,5.182c0.42,0.778,0.873,1.299,1.189,1.607l-0.26,0.378
				c-1.992-1.821-6.777-11.853-6.777-11.853l5.891,13.125c-1.764,2.525-2.914,4.152-2.914,4.152l0.961,0.872
				c0,0,1.314-1.952,3.273-4.865c0.225,0.119,0.469,0.249,0.738,0.387c1.447,0.709,3.713,0.962,6.109,0.75
				c4.855-0.287,8.473-1.969,8.523-1.693c-0.053-0.274-3.795,0.956-8.557,1.233c-2.881,0.447-5.266-0.218-6.732-0.798l0.031-0.046
				c0.32,0.019,0.805,0.047,1.42,0.096c1.066,0.269,2.734,0.628,4.701,0.649c3.342-0.152,5.941-1.011,5.895-1.116
				c0.018,0.112-2.625,0.507-5.906,0.659c-0.303-0.005-0.596-0.01-0.883-0.022c0.846-0.023,1.75-0.099,2.686-0.281
				c4.58-0.692,8.135-1.936,8.135-1.916c-0.004-0.018-3.662,0.775-8.207,1.46c-2.254,0.444-4.324,0.378-5.838,0.382
				c-0.227-0.003-0.432,0-0.633,0c-0.678-0.088-1.105-0.147-1.174-0.112c0.053-0.012,0.256,0.04,0.566,0.124
				c-0.291,0.008-0.535,0.018-0.727,0.028c0.193-0.29,0.391-0.587,0.604-0.895c0.195,0.168,0.32,0.247,0.34,0.217
				c-0.029,0.025-0.139-0.066-0.32-0.253c0.115-0.168,0.23-0.34,0.348-0.516l1.32-0.122c0.309,0.044,0.658,0.081,1.051,0.102
				c1.697,0.058,3.938,0.083,6.502-0.028c2.928-0.134,5.408-0.857,7.002-1.454l2.064-0.193c0,0-0.693,0.04-1.812,0.101
				c0.52-0.206,0.936-0.391,1.215-0.524c0.441-0.136,0.676-0.224,0.668-0.233c-0.004,0.008-0.104,0.021-0.293,0.042l0.062-0.033
				l-0.164,0.049c-1.115,0.132-4.455,0.437-8.438,0.606c-2.465,0.278-4.578,0.224-6.236,0.322c-0.637,0.03-1.178,0.086-1.598,0.143
				c-0.051-0.063-0.152-0.179-0.289-0.349l0.166-0.248c0.311-0.075,0.729-0.159,1.23-0.226c1.646,0.107,4.105,0.191,6.936,0.023
				c0.615-0.005,1.248-0.025,1.9-0.083c1.525-0.183,2.936-0.487,4.197-0.837c3.543-0.705,5.941-1.358,5.971-1.284
				c0-0.05-1,0.005-2.629,0.163c1.635-0.65,2.645-1.195,2.783-1.202c-0.16-0.011-1.617,0.626-3.877,1.312
				c-1.857,0.201-4.264,0.498-6.861,0.898c-3.986,0.368-7.51,0.603-9.314,0.733l0.238-0.354c0.477-0.029,1.395-0.078,2.635-0.048
				c1.844,0.11,4.506-0.089,7.268-0.646c2.783-0.395,5.379-1.173,7.027-1.998c1.689-0.757,2.809-1.036,2.807-1.046
				c0.004,0.007-1.172,0.064-2.963,0.611c-1.797,0.628-4.189,1.114-7.031,1.52c-2.807,0.565-5.246,0.97-7.131,1.099
				c-1.188,0.116-2.068,0.305-2.555,0.423c0.262-0.389,0.531-0.787,0.803-1.189c1.623,0.009,5.6,0.102,10.121-0.829
				c6.066-0.808,10.498-3.208,10.486-3.154c-0.014-0.022-1.051,0.302-2.77,0.731c2.885-1.059,4.693-2.214,4.871-2.25
				c-0.219-0.011-3.184,1.293-7.461,2.228c1.57-0.575,2.98-1.206,4.205-1.821C398.879,45.293,401.16,43.837,401.148,43.877z
				 M383.855,38c-0.33-0.601-0.643-2.033-0.82-3.966c0.09,0.23,0.193,0.45,0.305,0.653c0.535,0.952,1.098,1.548,1.471,1.88
				C384.5,37.034,384.182,37.513,383.855,38z M384.873,36.477c-0.301-0.393-0.742-1.05-1.115-1.979
				c-0.402-1.05-0.57-2.427-0.584-3.991c1.025,1.959,2.395,3.183,3.17,3.731C385.889,34.938,385.395,35.688,384.873,36.477z
				 M386.43,34.1c-0.801-0.884-2.357-2.98-3.193-5.866c0.008-0.157,0.02-0.314,0.029-0.475c0.051-0.774,0.172-1.528,0.324-2.254
				c-0.021,1.006,0.107,2.684,0.701,4.472c0.498,1.856,1.59,3.063,2.402,3.714C386.611,33.826,386.521,33.96,386.43,34.1z
				 M387.252,32.823c-0.053-0.193-0.105-0.409-0.162-0.651c0.113,0.147,0.219,0.279,0.322,0.4L387.252,32.823z M387.734,32.058
				l-0.197,0.314c-0.199-0.336-0.426-0.741-0.656-1.223c-0.127-0.714-0.242-1.545-0.314-2.458c0.223,0.668,0.469,1.27,0.748,1.757
				c0.26,0.474,0.521,0.836,0.748,1.102C387.953,31.719,387.842,31.886,387.734,32.058z M386.689,25.379
				c-0.061-0.255-0.123-0.506-0.176-0.752c0.021-0.304,0.049-0.595,0.086-0.886c0.457,3.477,1.391,6.2,1.957,7.077
				c-0.123,0.181-0.248,0.36-0.371,0.539c-0.143-0.288-0.303-0.654-0.447-1.092C387.311,29.062,387.057,27.323,386.689,25.379z
				 M382.578,24.892c0.535-2.38,1.111-4.321,1.463-5.485c-0.02,0.296-0.039,0.6-0.059,0.915c-0.447,1.36-0.861,2.928-1.145,4.647
				c-0.062,0.213-0.115,0.432-0.168,0.653C382.633,25.373,382.604,25.13,382.578,24.892z M383.969,23.932l0.008,0.172
				c0.291,2.959,1.33,5.319,2.326,6.922c0.264,0.852,0.559,1.539,0.807,2.021l-0.217,0.344c-0.568-0.787-1.301-2.056-1.717-3.68
				c-0.744-2.259-1.314-4.172-1.434-4.877C383.812,24.528,383.891,24.226,383.969,23.932z M381.994,36.374
				c-0.344-1.918-0.539-4.657-0.15-7.608c0.072-0.477,0.15-0.943,0.234-1.402c0.062,0.321,0.139,0.647,0.23,0.981
				c-0.068,1.483,0.018,2.91,0.271,4.143c0.232,2.756,0.775,4.82,1.252,5.548c-0.217,0.323-0.436,0.65-0.656,0.982
				C382.885,38.673,382.258,37.822,381.994,36.374z M381.666,37.808c0.375,0.87,0.744,1.544,0.994,1.976l-0.078,0.114
				C382.342,39.543,381.939,38.849,381.666,37.808z M380.715,42.378l0.113,0.106l-0.029,0.037L380.715,42.378z M378.725,41.981
				c0.475,0.88,1.031,1.384,1.342,1.618c-0.135,0.202-0.273,0.404-0.41,0.606C379.385,43.885,379.059,43.102,378.725,41.981z
				 M378.58,45.773l-0.201,0.29c-0.162-0.29-0.367-0.658-0.594-1.096C378.109,45.33,378.389,45.598,378.58,45.773z M375.904,42.803
				c-0.121-0.339-0.244-0.669-0.361-0.987c0.307,0.554,0.625,1.054,0.936,1.501c0.076,0.17,0.156,0.34,0.232,0.498
				c0.635,1.083,1.209,1.864,1.592,2.358l-0.256,0.372C377.645,46.073,376.584,44.722,375.904,42.803z M392.244,31.951
				c0.551,0.019,1.158,0.008,1.797-0.037c-1.254,0.358-2.391,0.608-3.342,0.647c-0.77,0.046-1.387-0.047-1.826-0.151
				C389.494,32.393,390.703,32.268,392.244,31.951z M373.275,53.449c-0.311-0.273-0.824-0.985-1.209-2.146
				c0.176,0.32,0.35,0.625,0.525,0.902c0.285,0.416,0.557,0.772,0.801,1.069L373.275,53.449z M370.742,43.978
				c-0.094-0.9-0.162-1.835-0.197-2.799c-0.041-1.513-0.008-2.959,0.066-4.305c0.123,1.527,0.34,3.261,0.699,5.083
				c0.318,3.043,1.525,5.537,2.014,7.44c0.395,1.09,0.852,1.851,1.16,2.303c-0.123,0.183-0.252,0.367-0.379,0.55
				c-0.662-0.86-1.607-2.566-2.27-4.668C371.301,46.258,370.957,44.999,370.742,43.978z M371.404,47.747
				c0.674,2.161,1.834,3.822,2.627,4.61c-0.186,0.27-0.373,0.536-0.555,0.8c-0.211-0.309-0.443-0.664-0.686-1.073
				c-0.375-0.676-0.75-1.503-1.131-2.436c-0.156-0.747-0.318-1.581-0.473-2.478C371.256,47.36,371.33,47.553,371.404,47.747z
				 M372.141,54.17c-0.402-0.52-0.564-1.48-0.799-2.632c-0.127-0.785-0.268-1.673-0.418-2.643c0.107,0.253,0.219,0.501,0.324,0.746
				c0.072,0.258,0.145,0.513,0.215,0.753c0.498,1.756,1.355,2.763,1.791,3.079c-0.258,0.37-0.51,0.731-0.756,1.085
				C372.383,54.468,372.26,54.348,372.141,54.17z M388.668,32.318c0.164-0.258,0.355-0.533,0.562-0.821
				c0.398,0.155,1.1,0.31,2.02,0.394c-1.174,0.285-2.061,0.442-2.508,0.488l-0.096-0.026L388.668,32.318z M370.779,53.432
				c-0.08-0.246-0.172-0.512-0.266-0.785c0.09,0.183,0.18,0.368,0.27,0.54c0.639,0.959,1.031,1.699,1.221,2.081L372,55.277
				c-0.299-0.375-0.643-0.83-1.023-1.361C370.908,53.765,370.846,53.603,370.779,53.432z M371.576,55.029l0.338,0.368l-0.033,0.05
				C371.789,55.332,371.689,55.193,371.576,55.029z M388.068,33.25l0.039,0.035l-0.053-0.011L388.068,33.25z M394.078,35.416
				l-0.066,0.03c-0.156,0.03-0.307,0.058-0.461,0.087C393.725,35.494,393.9,35.458,394.078,35.416z M386.459,35.699
				c0.576,0.079,1.633,0.215,3.066,0.275c0.553,0.017,1.156-0.012,1.799-0.078c-2.443,0.354-4.389,0.491-5.342,0.527
				C386.146,36.173,386.305,35.933,386.459,35.699z M385.918,36.523c0.871,0.114,2.68,0.263,5.012,0.135
				c-3.346,0.885-5.66,1.559-5.664,1.562c0,0,0.434-0.037,1.191-0.126c-0.848,0.257-1.547,0.486-2.016,0.651
				C384.963,37.96,385.457,37.214,385.918,36.523z M383.713,39.839l0.252-0.053c0.998-0.005,2.848-0.125,5.127-0.484
				c-0.639,0.306-1.365,0.657-2.139,1.043c-1.633,0.325-3.092,0.483-3.979,0.6C383.225,40.571,383.471,40.204,383.713,39.839z
				 M382.879,41.087c0.641,0.009,1.619,0.015,2.781-0.102c-1.428,0.647-2.711,0.961-3.447,1.103
				C382.439,41.751,382.66,41.418,382.879,41.087z M381.436,43.254c0.436,0,1.201-0.018,2.199-0.113
				c-1.092,0.28-1.971,0.462-2.504,0.565C381.234,43.555,381.334,43.405,381.436,43.254z M380.477,44.686
				c0.516,0.125,1.74,0.101,3.414-0.088c-0.453,0.127-0.881,0.255-1.273,0.376c-1.133,0.314-2.033,0.372-2.582,0.374
				C380.182,45.127,380.332,44.909,380.477,44.686z M379.465,46.198c0.98,0.052,2.826,0.119,5.137-0.098
				c-1.033,0.223-1.988,0.413-2.828,0.57c-1.158,0.252-2.102,0.263-2.779,0.391l-0.121,0.024
				C379.066,46.792,379.266,46.495,379.465,46.198z M375.623,54.713c-0.736,0.027-1.383,0.045-1.904,0.055l0.105-0.161
				C374.188,54.625,374.811,54.648,375.623,54.713z M374.455,54.437c-0.227,0.029-0.418,0.057-0.572,0.084l0.266-0.391
				C374.293,54.278,374.4,54.38,374.455,54.437z M375.035,53.578c-0.242,0.061-0.459,0.122-0.643,0.181l0.148-0.219
				C374.693,53.552,374.859,53.564,375.035,53.578z M377.844,48.624c0.322,0.051,0.768,0.104,1.312,0.129
				c-0.602,0.028-1.092,0.044-1.443,0.061L377.844,48.624z M375.873,51.562l0.037-0.051c0.145-0.011,0.312-0.017,0.484-0.026
				C376.203,51.51,376.027,51.537,375.873,51.562z M376.018,51.341c0.238-0.348,0.477-0.705,0.715-1.06
				c0.953,0.061,2.438,0.141,4.264,0.131C378.842,50.886,377.086,51.156,376.018,51.341z M385.197,49.335
				c-3.619,0.412-6.688,0.63-8.336,0.752c0.262-0.393,0.527-0.789,0.797-1.19c0.596,0.065,1.66,0.173,3.096,0.219
				c1.857-0.046,4.32-0.191,7.033-0.625C386.906,48.808,386.039,49.086,385.197,49.335z"/>
			<path style="fill:#FFFFFF;" d="M357.592,67.258c0,0,1.365-7.685,6.281-9.302c0,0-0.238,0.142-0.596,0.469
				c0.375-0.235,0.777-0.438,1.213-0.604l0.152-0.041c-1.902-0.991-4.084-1.904-6.225-2.303c-5.789-1.07-20.279,0.142-29.217,3.748
				c-8.939,3.604-12.66,6.516-16.162,9.943c0,0,8.035-7.111,16.395-9.603c0,0-10.035,4.33-14.322,8.91c0,0,8.756-6.769,13.926-8.193
				c-2.135,1.211-5.102,3.191-7.574,5.931c0,0,2.625-2.185,5.652-4.201c-2.064,1.816-5.137,4.96-7.641,9.355
				c0,0,4.549-6.414,8.98-10.211c1.346-0.831,2.707-1.565,3.908-2.01c-1.438,0.896-3.533,2.513-5.791,5.281
				c0,0,2.123-2.186,4.766-4.145c-1.861,1.773-5.184,5.307-7.607,9.873c0,0,4.502-7.055,9.244-11.007
				c1.305-0.827,2.654-1.502,3.893-1.771c0,0-6.299,1.671-10.613,12.64c0,0,4.148-10.114,11.258-12.561c0,0-5.061,2.114-8.037,8.463
				c0,0,3.676-5.915,8.246-8.367c-1.725,1.02-5.529,4.191-8.287,13.27c0,0,3.762-11.562,10.221-13.784c0,0-2.338,1.269-4.588,4.67
				c-1.381,1.422-2.678,3.161-3.547,5.233c0,0,0.898-1.58,2.531-3.519c-1.16,2.178-2.184,5.002-2.709,8.609
				c0,0,0.949-5.355,3.873-9.907c0.547-0.576,1.15-1.158,1.805-1.724c-1.238,1.694-2.516,4.093-3.309,7.371
				c0,0,1.572-5.142,4.742-8.507c1.662-1.198,3.582-2.201,5.723-2.686c-0.65,0.167-8.607,2.487-10.996,16.08
				c0,0,3.051-13.887,12.02-16.062c0,0-5.047,1.626-7.926,7.59c0,0,4.232-7.009,9.682-7.671c0,0-1.492,0.516-3.412,2.115
				c-1.711,1.213-3.576,2.99-5.166,5.572c0,0,1.002-1.434,2.732-3.101c-2.002,2.441-4.008,6.081-5.098,11.423
				c0,0,2.4-8.896,7.77-13.661c2.035-1.449,4.539-2.675,7.332-2.867c0,0-8.688,1.494-11.418,15.204c0,0,2.791-12.209,11.926-14.934
				c0,0-8.402,5.3-8.814,14.113c0,0,1.553-8.98,9.006-13.784c-2.436,1.634-7.221,5.891-8.035,14.426c0,0,2.633-12.272,9.391-14.615
				c0,0-1.727,0.677-3.561,3.308c-1.727,1.863-3.557,4.731-4.594,9.044c0,0,0.947-2.758,2.764-5.681
				c-1.061,2.5-1.957,5.895-2.324,10.474c0,0,0.844-8.076,4.383-13.299c1.578-1.826,3.533-3.354,5.84-3.806
				c0,0-6.723,2.112-8.293,11.495c0,0,2.137-8.388,8.436-11.204c-2.572,1.257-6.326,4.545-7.625,13.135
				c0,0,2.334-11.686,8.633-13.126c-0.369,0.107-5.576,1.76-6.266,11.264c0,0,1.145-9.25,6.539-10.674c0,0-4.885,2.433-4.934,9.916
				c0,0,0.738-7.511,5.438-9.649c0,0-4.365,2.833-3.717,10.107c0,0-0.105-7.242,4.248-9.892c0,0-3.893,2.72-3.166,8.612
				c0,0-0.275-9.093,6.842-9.751c0,0-5.031,0.834-5.859,6.154c0,0,1.326-5.178,5.969-5.68c0,0-6.039,1.785-5.92,10.341
				c0.008-2.025,0.541-7.779,6.119-10.075c0,0-5.967,4.021-5.488,11.72c0,0,0.303-8.549,6.279-11.394
				C362.91,57.747,357.961,60.642,357.592,67.258z M338.047,59.138c-0.51,0.37-1.041,0.785-1.578,1.245
				c1.125-1.377,2.471-2.584,4.078-3.414C340.547,56.97,339.426,57.601,338.047,59.138z M340.354,57.644
				c0.471-0.313,0.971-0.574,1.492-0.778C341.693,56.935,341.143,57.192,340.354,57.644z"/>
			<path style="fill:#FFFFFF;" d="M348.066,56.358l0.008-0.002L348.066,56.358z"/>
			<path style="fill:#FFFFFF;" d="M370.361,61.402c0,0-6.67-5.285-13.002-6.458c-6.332-1.171-22.189,0.157-31.971,4.104
				c-9.779,3.944-13.852,7.126-17.686,10.88c0,0,8.791-7.783,17.938-10.51c0,0-10.982,4.735-15.674,9.752
				c0,0,10.082-7.795,15.668-9.082c0,0-6.318,4.217-10.895,12.243c0,0,8-11.271,13.584-13.702c0,0-6.57,2.699-11.404,8.064
				c0,0,7.588-6.324,12.344-7.882c0,0-5.988,4.89-9.863,12.193c0,0,5.863-9.184,11.525-13.129c0,0-3.93,1.357-8.412,6.862
				c0,0,6.441-6.658,11.262-7.716c0,0-6.891,1.828-11.613,13.83c0,0,4.541-11.066,12.318-13.746c0,0-5.535,2.314-8.795,9.263
				c0,0,4.572-7.352,10.027-9.631c0,0-6.055,1.764-10.068,15.001c0,0,4.113-12.659,11.182-15.088c0,0-7.289,3.956-9.096,16.41
				c0,0,2.201-12.426,10.068-16.481c0,0-5.344,3-7.477,11.822c0,0,2.965-9.693,8.953-11.959c0,0-8.213,3.578-11.348,11.047
				c0,0,5.363-9.453,13.896-11.351c0,0-9.359,2.101-12.082,17.612c0,0,3.336-15.194,13.152-17.581c0,0-5.521,1.784-8.67,8.305
				c0,0,4.629-7.665,10.594-8.393c0,0-9.033,3.107-11.98,17.52c0,0,4.268-15.826,14.105-17.93c0,0-6.85,1.239-11.516,8.824
				c0,0,5.887-8.43,13.939-8.978c0,0-9.508,1.637-12.494,16.636c0,0,3.055-13.359,13.051-16.344c0,0-9.195,5.803-9.645,15.447
				c0,0,1.908-11.066,11.42-15.998c0,0-9.156,4.068-10.359,16.701c0,0,2.879-13.43,10.273-15.996c0,0-7.152,2.8-8.441,18.764
				c0,0,1.559-14.981,9.156-18.54c0,0-7.057,2.571-9.635,13.296c0,0,4.105-11.986,11.666-13.474c0,0-7.359,2.308-9.072,12.58
				c0,0,2.955-11.647,12.057-13.111c0,0-8.93,0.389-11.172,15.225c0,0,2.562-12.817,9.471-14.371c0,0-6.1,1.547-6.881,12.335
				c0,0,1.254-10.125,7.154-11.686c0,0-5.342,2.664-5.398,10.853c0,0,0.809-8.217,5.953-10.559c0,0-4.779,3.097-4.066,11.061
				c0,0-0.119-7.924,4.645-10.825c0,0-4.256,2.973-3.461,9.426c0,0-0.305-9.953,7.48-10.675c0,0-5.5,0.917-6.408,6.738
				c0,0,1.453-5.667,6.531-6.214c0,0-6.984,2.057-6.449,12.102c0,0-0.799-8.743,6.668-11.814c0,0-6.527,4.398-6.002,12.827
				c0,0,0.328-9.356,6.869-12.474c0,0-5.416,3.172-5.824,10.413c0,0,1.496-8.409,6.875-10.186c0,0-4.18,2.467-3.912,10.52
				c0,0,0.42-7.098,4.586-10.175c0,0,4.18,1.976,6.053,4.154C370.055,62.15,370.713,62.016,370.361,61.402z"/>
			<path style="fill:#FFFFFF;" d="M405.4,100.883c-0.033,0.025-0.682-3.099-2.713-6.428c-2.061-3.281-4.137-5.625-4.207-5.563
				c0.074-0.061,1.889,2.483,3.93,5.733C404.41,97.901,405.363,100.898,405.4,100.883z"/>
			<path style="fill:#FFFFFF;" d="M403.303,100.518c-0.014,0.01-0.525-2.566-1.816-5.52c-1.301-2.947-2.729-5.133-2.768-5.105
				c0.039-0.028,1.184,2.318,2.471,5.233C402.469,98.051,403.289,100.523,403.303,100.518z"/>
			<path style="fill:#FFFFFF;" d="M402.377,103.072c-0.004,0.016,0.066-2.805-1.027-6.068c-1.084-3.23-2.26-5.729-2.236-5.739
				c-0.023,0.004,0.85,2.631,1.928,5.839C402.123,100.315,402.369,103.072,402.377,103.072z"/>
			<path style="fill:#FFFFFF;" d="M400.957,99.902c-0.006,0.006,0.004-1.777-0.516-3.896c-0.545-2.11-1.139-3.75-1.109-3.766
				c-0.037,0,0.256,1.753,0.793,3.839C400.643,98.175,400.951,99.898,400.957,99.902z"/>
			<path style="fill:#FFFFFF;" d="M406.57,98.562c-0.02,0.024-1.162-2.794-3.561-5.635c-2.301-2.905-4.703-4.748-4.715-4.715
				c0.027-0.02,2.18,2.036,4.465,4.917C405.129,95.938,406.545,98.573,406.57,98.562z"/>
			<path style="fill:#FFFFFF;" d="M405.557,97.03c-0.014,0.007-1.359-2.431-3.373-5.22c-1.992-2.819-4.145-4.665-4.217-4.546
				c0.082-0.107,1.986,1.944,3.957,4.737C403.924,94.771,405.543,97.038,405.557,97.03z"/>
			<path style="fill:#FFFFFF;" d="M405.955,96.406c-0.018,0.026-1.156-2.782-3.602-5.554c-2.469-2.725-4.688-4.674-4.688-4.682
				c-0.008,0,2.006,2.202,4.441,4.891C404.52,93.795,405.932,96.417,405.955,96.406z"/>
			<path style="fill:#FFFFFF;" d="M407.926,96.32c-0.014,0.02-1.896-2.882-4.877-5.913c-2.947-3.057-5.766-5.067-5.629-5.201
				c-0.143,0.13,2.467,2.389,5.395,5.424C405.777,93.644,407.908,96.336,407.926,96.32z"/>
			<path style="fill:#FFFFFF;" d="M407.213,94.935c-0.014,0.013-1.854-2.617-4.561-5.507c-2.729-2.89-5.467-4.614-5.422-4.664
				c-0.049,0.047,2.496,2.034,5.193,4.885C405.107,92.523,407.199,94.948,407.213,94.935z"/>
			<path style="fill:#FFFFFF;" d="M405.977,92.576c-0.018,0.027-1.412-2.394-3.988-4.629c-2.521-2.275-4.973-3.563-4.938-3.599
				c-0.037,0.033,2.232,1.59,4.723,3.838C404.314,90.391,405.953,92.594,405.977,92.576z"/>
			<path style="fill:#FFFFFF;" d="M409.877,90.855c-0.031,0.042-2.756-3.075-6.939-5.973c-4.258-2.775-7.924-4.6-7.945-4.569
				c0.01-0.037,3.545,2.087,7.76,4.834C406.896,88.018,409.844,90.891,409.877,90.855z"/>
			<path style="fill:#FFFFFF;" d="M403.746,84.748c0,0-1.916-1.179-4.373-2.456c-2.459-1.281-4.527-2.177-4.527-2.177
				s1.916,1.183,4.375,2.461C401.68,83.854,403.746,84.748,403.746,84.748z"/>
			<path style="fill:#FFFFFF;" d="M407.463,87.188c-0.033,0.042-2.695-2.191-6.309-4.537c-3.678-2.225-6.707-3.922-6.709-3.918
				c0.002-0.006,2.869,1.973,6.535,4.193C404.561,85.25,407.436,87.235,407.463,87.188z"/>
			<path style="fill:#FFFFFF;" d="M408.568,86.779c-0.025,0.079-2.527-3.053-6.904-5.103c-4.314-1.979-7.773-3.722-7.867-3.449
				c0.1-0.27,3.414,1.762,7.725,3.742C405.836,83.979,408.527,86.844,408.568,86.779z"/>
			<path style="fill:#FFFFFF;" d="M406.443,83.844c0.02,0.009-2.236-2.088-5.682-3.565c-3.324-1.655-6.252-2.466-6.25-2.451
				c0.008-0.008,2.795,1.093,6.115,2.746C404.035,82.03,406.443,83.844,406.443,83.844z"/>
			<path style="fill:#FFFFFF;" d="M396.629,105.381c-0.039-0.008,1.248-2.675,2.061-6.226c0.732-3.571,0.65-6.53,0.695-6.521
				c-0.045-0.003-0.283,2.926-1.014,6.451C397.568,102.598,396.592,105.368,396.629,105.381z"/>
			<path style="fill:#FFFFFF;" d="M396.379,103.916c-0.049-0.012,1.318-2.768,2.184-6.45c0.842-3.717,0.391-6.799,0.486-6.789
				c-0.092-0.017,0.025,3.087-0.799,6.716C397.391,101.031,396.33,103.904,396.379,103.916z"/>
			<path style="fill:#FFFFFF;" d="M395.879,103.275c-0.037-0.008,1.369-2.754,2.262-6.44c0.939-3.696,0.604-6.805,0.689-6.789
				c-0.086-0.012-0.076,3.081-1.004,6.711C396.945,100.404,395.842,103.264,395.879,103.275z"/>
			<path style="fill:#FFFFFF;" d="M394.891,100.763c-0.01-0.003,1.131-2.51,2.201-5.735c1.035-3.244,1.373-5.991,1.4-5.983
				c-0.031-0.002-0.678,2.664-1.705,5.885C395.723,98.139,394.881,100.76,394.891,100.763z"/>
			<path style="fill:#FFFFFF;" d="M394.4,100.177c0.008,0.001,0.896-2.869,1.939-6.42c1.055-3.552,1.738-6.487,1.74-6.483
				c-0.002,0-0.996,2.836-2.047,6.392C394.986,97.223,394.408,100.178,394.4,100.177z"/>
			<path style="fill:#FFFFFF;" d="M393.891,99.482c-0.035-0.016,1.109-2.874,2.354-6.47c1.279-3.618,1.418-6.75,1.441-6.735
				c-0.023-0.006-0.484,3.058-1.746,6.63C394.699,96.499,393.854,99.474,393.891,99.482z"/>
			<path style="fill:#FFFFFF;" d="M393.613,98.188c0.016,0.009,1.127-2.813,2.146-6.39c1.211-3.536,1.582-6.554,1.641-6.533
				c-0.066-0.009-0.746,2.918-1.949,6.44C394.428,95.287,393.631,98.191,393.613,98.188z"/>
			<path style="fill:#FFFFFF;" d="M391.586,96.467c0,0,0.932-3.8,1.686-8.554c0.76-4.75,1.035-8.656,1.035-8.656
				s-0.92,3.806-1.672,8.554C391.879,92.564,391.586,96.467,391.586,96.467z"/>
			<path style="fill:#FFFFFF;" d="M391.701,95.499c-0.02,0.006,1.162-3.677,1.588-8.386c0.537-4.674,0.416-8.534,0.344-8.523
				c0.072,0.02-0.451,3.774-0.986,8.457C392.219,91.713,391.684,95.488,391.701,95.499z"/>
			<path style="fill:#FFFFFF;" d="M390.447,94.37c-0.016-0.011,0.732-3.666,1.727-8.173c0.975-4.418,1.064-8.571,0.936-8.074
				c0.125-0.467-0.604,3.545-1.572,7.947C390.537,90.588,390.428,94.382,390.447,94.37z"/>
			<path style="fill:#FFFFFF;" d="M388.982,93.337c-0.031-0.02,1.225-3.53,2.379-8.02c1.002-4.53,1.203-8.281,1.227-8.28
				c-0.023-0.007-0.865,3.657-1.857,8.135C389.588,89.615,388.945,93.334,388.982,93.337z"/>
			<path style="fill:#FFFFFF;" d="M389.1,90.98c0.018,0.005,1.064-3.237,1.738-7.359c0.729-4.107,0.926-7.502,0.936-7.499
				c-0.01,0-0.85,3.284-1.574,7.387C389.529,87.62,389.119,90.975,389.1,90.98z"/>
			<path style="fill:#FFFFFF;" d="M389.346,93.496c0.012,0,0.701-4.114,1.326-9.215c0.617-5.116,0.541-9.309,0.557-9.303
				c-0.02,0.003-0.584,4.133-1.205,9.226C389.4,89.31,389.357,93.502,389.346,93.496z"/>
			<path style="fill:#FFFFFF;" d="M387.203,92.074c0.09,0.037,0.945-3.775,2.078-8.341c1.43-4.561,1.629-8.486,1.604-8.474
				c0.02,0.017-0.805,3.765-2.23,8.299C387.5,88.233,387.297,92.08,387.203,92.074z"/>
			<path style="fill:#FFFFFF;" d="M386.871,90.122c0,0.003,1.188-3.555,2.09-8.064c0.996-4.475,1.414-8.224,1.176-8.235
				c0.234,0.053-0.812,3.602-1.809,8.106C387.426,86.431,386.871,90.115,386.871,90.122z"/>
			<path style="fill:#FFFFFF;" d="M386.039,87.527c-0.039-0.012,1.359-3.021,2.398-6.962c1.215-3.893,1.252-7.279,1.162-7.261
				c0.084,0.029-0.58,3.212-1.787,7.094C386.783,84.307,386,87.515,386.039,87.527z"/>
			<path style="fill:#FFFFFF;" d="M387.1,82.268c-0.02-0.004,0.977-1.932,1.547-4.527c0.545-2.631,0.219-4.776,0.457-4.747
				c-0.23-0.089-0.562,2.106-1.094,4.611C387.459,80.144,387.082,82.26,387.1,82.268z"/>
			<path style="fill:#FFFFFF;" d="M383.727,91.043c-0.062-0.015,1.553-4.144,2.693-9.465c1.303-5.233,2.301-9.565,2.234-9.567
				c0.059,0.027-1.545,4.117-2.865,9.424C384.654,86.733,383.664,91.027,383.727,91.043z"/>
			<path style="fill:#FFFFFF;" d="M382.865,87.284c0.01-0.002,1.045-3.48,2.496-7.697c1.35-4.274,2.24-7.784,2.25-7.79
				c-0.006-0.011-1.518,3.321-2.865,7.585C383.281,83.64,382.871,87.293,382.865,87.284z"/>
			<path style="fill:#FFFFFF;" d="M382.125,85.567c-0.057-0.018,1.295-3.183,2.498-7.229c1.221-4.045,1.889-7.416,1.889-7.416
				s-1.291,3.186-2.508,7.23C382.801,82.196,382.068,85.549,382.125,85.567z"/>
			<path style="fill:#FFFFFF;" d="M379.73,88.93c0.064,0.055,2.08-3.886,3.428-9.076c1.752-5.062,2.418-9.405,2.434-9.392
				c-0.02,0.004-1.301,4.131-3.053,9.205C381.186,84.864,379.809,88.942,379.73,88.93z"/>
			<path style="fill:#FFFFFF;" d="M379.393,87.258c0.111,0.084,2.076-3.554,3.451-8.327c1.852-4.694,1.871-8.862,1.908-8.827
				c-0.043-0.006-0.689,3.997-2.518,8.612C380.844,83.536,379.525,87.284,379.393,87.258z"/>
			<path style="fill:#FFFFFF;" d="M377.451,88.367c0.041,0.043,2.158-3.889,3.652-9.071c2.023-5.02,2.719-9.422,2.658-9.414
				c0.051,0.032-1.244,4.174-3.271,9.2C378.99,84.3,377.506,88.364,377.451,88.367z"/>
			<path style="fill:#FFFFFF;" d="M377.145,85.571c0.008,0.008,1.682-3.653,3.352-8.291c1.895-4.554,2.637-8.568,2.564-8.562
				c0.059,0.045-1.271,3.75-3.174,8.34C378.213,81.706,377.156,85.572,377.145,85.571z"/>
			<path style="fill:#FFFFFF;" d="M374.385,87.1c0.012,0.041,2.57-3.851,4.309-9.2c1.945-5.259,3.158-9.656,3.168-9.651
				c-0.01,0-1.832,4.174-3.777,9.429C376.352,83.025,374.418,87.093,374.385,87.1z"/>
			<path style="fill:#FFFFFF;" d="M374.879,85.063c0.041,0.025,1.404-3.896,2.971-8.66c1.971-4.695,2.385-8.891,2.32-8.872
				c0.053,0.024-0.971,3.973-2.932,8.651C375.648,81.038,374.928,85.065,374.879,85.063z"/>
			<path style="fill:#FFFFFF;" d="M393.367,77.785c0.002,0.009,3.342,0.878,7.527,1.71c2.014,0.402,3.809,1.215,5.184,1.528
				c1.373,0.349,2.258,0.308,2.25,0.327c0.004-0.019-0.859-0.142-2.154-0.635c-1.303-0.456-2.994-1.417-5.17-1.855
				C396.834,78.03,393.357,77.792,393.367,77.785z"/>
			<path style="fill:#FFFFFF;" d="M391.943,75.929c-0.012-0.004,3.496,1.378,7.996,2.291c4.469,0.914,8.059,1.95,8.082,1.852
				c-0.027,0.099-3.41-1.553-7.941-2.483C395.582,76.675,391.951,75.929,391.943,75.929z"/>
			<path style="fill:#FFFFFF;" d="M391.246,75.316c0,0,2.971,0.894,6.723,1.609c3.76,0.638,6.859,0.836,6.859,0.836
				s-2.988-0.836-6.746-1.473C394.344,75.577,391.25,75.316,391.246,75.316z"/>
			<path style="fill:#FFFFFF;" d="M390.098,73.721c0.014-0.038,3.766,1.211,8.605,2.001c4.752,0.845,8.682,1.495,8.699,1.339
				c-0.037,0.15-3.77-1.119-8.605-1.979C394.023,74.304,390.104,73.679,390.098,73.721z"/>
			<path style="fill:#FFFFFF;" d="M389.17,73.511c0.004,0,3.258,0.485,7.289,0.687c4.016,0.306,7.309,0.229,7.309,0.229
				s-3.236-0.569-7.27-0.872C392.457,73.351,389.17,73.511,389.17,73.511z"/>
			<path style="fill:#FFFFFF;" d="M389.588,73.261c-0.008-0.177,3.125,0.19,6.973,0.12c3.867-0.014,6.975-0.565,6.975-0.533
				c-0.002-0.032-3.135-0.129-6.979-0.114C392.705,72.805,389.564,73.088,389.588,73.261z"/>
			<path style="fill:#FFFFFF;" d="M388.305,72.208c-0.004,0.097,3.549,0.206,7.887,0.07c4.371-0.221,7.84-0.483,7.863-0.367
				c0.029-0.113-3.549-0.501-7.881-0.28C391.807,71.767,388.318,72.302,388.305,72.208z"/>
			<path style="fill:#FFFFFF;" d="M386.727,71.582c-0.027,0.062,3.074,0.461,6.812,0.05c3.732-0.365,6.752-0.659,6.764-0.656
				c0.006-0.002-3.068-0.354-6.818,0.014C389.74,71.396,386.752,71.645,386.727,71.582z"/>
			<path style="fill:#FFFFFF;" d="M378.994,67.553c-0.025,0.138,4.156,0.896,9.352,1.778c5.23,0.378,9.48,0.681,9.484,0.621
				c-0.004,0.062-4.18-0.884-9.426-1.264C383.262,67.811,378.969,67.692,378.994,67.553z"/>
			<path style="fill:#FFFFFF;" d="M379.607,67.701c-0.012,0.028,4.148,0.688,9.277,0.953c2.582,0.175,4.855,0.319,6.555,0.52
				c1.713,0.13,2.742-0.222,2.734-0.209c0-0.011-1.047,0.177-2.701-0.113c-1.629-0.352-3.99-0.671-6.543-0.843
				C383.775,67.741,379.623,67.73,379.607,67.701z"/>
			<path style="fill:#FFFFFF;" d="M378.135,67.017c-0.008,0.063,4.17,0.238,9.215,0.747c5.137,0.461,9.256,0.425,9.266,0.529
				c0.027-0.098-4.127-0.715-9.186-1.175C382.283,66.604,378.137,67.081,378.135,67.017z"/>
			<path style="fill:#FFFFFF;" d="M378.844,66.588c0.01-0.002,3.025,0.381,6.785,0.447c3.729-0.058,6.775,0.024,6.779-0.118
				c0,0.142-2.996-0.585-6.775-0.528C381.9,66.322,378.838,66.588,378.844,66.588z"/>
			<path style="fill:#FFFFFF;" d="M376.729,65.733c-0.031,0.041,3.248,0.681,7.24,0.192c3.951-0.385,7.178-0.531,7.172-0.349
				c0.035-0.18-3.207-0.688-7.227-0.295C379.947,65.767,376.742,65.776,376.729,65.733z"/>
			<path style="fill:#FFFFFF;" d="M375.791,65.723c-0.004-0.073,2.752,0.118,6.098-0.262c3.35-0.394,6.043-0.717,6.057-0.697
				c0.014-0.02-2.764-0.342-6.115,0.053C378.486,65.194,375.783,65.649,375.791,65.723z"/>
			<path style="fill:#FFFFFF;" d="M373.719,65.262c0.008-0.03,2.51-0.008,5.621-0.301c3.09-0.351,5.529-1.09,5.525-1.079
				c-0.006-0.011-2.525,0.086-5.604,0.436C376.189,64.608,373.703,65.236,373.719,65.262z"/>
			<path style="fill:#FFFFFF;" d="M373.773,64.445c-0.021,0.004,1.852,0.416,4.104-0.008c2.223-0.417,3.949-1.032,3.959-1.02
				c0.008-0.015-1.867-0.03-4.068,0.381C375.586,64.212,373.785,64.449,373.773,64.445z"/>
			<path style="fill:#FFFFFF;" d="M409.318,89.026c-0.008,0.03-2.807-2.247-6.689-4.344c-3.871-2.082-7.062-3.673-7.076-3.666
				c0.006-0.015,2.881,2.144,6.764,4.231C406.174,87.333,409.297,89.046,409.318,89.026z"/>
			<path style="fill:#FFFFFF;" d="M406.693,91.59c0.004,0.027-1.789-2.505-4.879-4.639c-3.041-2.088-5.377-3.991-5.484-3.859
				c0.111-0.133,2.023,2.262,5.104,4.382C404.475,89.57,406.674,91.596,406.693,91.59z"/>
			<path style="fill:#FFFFFF;" d="M395.623,99.908c0.008,0.008,0.391-4.511,0.053-10.059c-0.391-5.353-0.521-10.438-1.02-9.613
				c0.502-0.787-0.02,4.268,0.375,9.645C395.367,95.419,395.631,99.902,395.623,99.908z"/>
			<path style="fill:#FFFFFF;" d="M398.08,96.356c-0.002-0.005-0.186-3.43-0.812-7.627c-0.416-4.188-1.572-7.544-1.756-7.448
				c0.201-0.016,0.691,3.298,1.117,7.553C397.25,93.006,398.08,96.364,398.08,96.356z"/>
			<path style="fill:#FFFFFF;" d="M397.008,97.556c0.045,0-0.215-3.664-0.607-8.106c-0.119-4.463-0.773-8.124-0.871-8.086
				c0.102,0.017,0.1,3.607,0.225,8.134C396.156,94.006,397.053,97.543,397.008,97.556z"/>
			<path style="fill:#FFFFFF;" d="M375.498,86.453c0.021,0,0.654-4.292,2.193-9.375c1.43-5.21,1.459-9.582,1.547-9.568
				c-0.084-0.022-0.766,4.292-2.172,9.386C375.51,82.063,375.516,86.474,375.498,86.453z"/>
			<path style="fill:#FFFFFF;" d="M375.062,84.405c0.018,0,0.98-3.879,2.004-8.685c1.043-4.812,1.566-8.788,1.566-8.786
				s-1.158,3.832-2.201,8.648C375.404,80.409,375.08,84.411,375.062,84.405z"/>
			<path style="fill:#FFFFFF;" d="M374.723,80.397c0,0,0.967-3.09,1.775-6.981c0.727-3.915,1.004-7.138,1.004-7.138
				c0,0.002-0.914,3.111-1.641,7.011C375.057,77.175,374.723,80.397,374.723,80.397z"/>
			<path style="fill:#FFFFFF;" d="M375.088,74.062c0.008,0,0.518-1.875,0.934-4.186c0.447-2.304,0.707-4.217,0.691-4.227
				c0.02,0-0.877,1.759-1.328,4.106C374.963,72.112,375.096,74.064,375.088,74.062z"/>
			<path style="fill:#FFFFFF;" d="M372.662,82.271c0,0,0.99-3.715,1.818-8.372c0.793-4.615,1.25-8.576,1.102-8.397
				c0.148-0.18-0.945,3.667-1.744,8.284C373.014,78.439,372.662,82.269,372.662,82.271z"/>
			<path style="fill:#FFFFFF;" d="M371.523,79.581c-0.146-0.067,0.926-3.131,2.088-7.113c0.732-4.048,1.139-7.322,1.324-7.279
				c-0.172-0.08-1.232,3.139-1.957,7.139C371.842,76.205,371.359,79.584,371.523,79.581z"/>
			<path style="fill:#FFFFFF;" d="M370.533,79.75c0,0,1.066-3.225,1.994-7.289c0.926-4.067,1.361-7.435,1.361-7.435
				s-1.068,3.225-1.99,7.29C370.969,76.381,370.533,79.75,370.533,79.75z"/>
			<path style="fill:#FFFFFF;" d="M371.568,71.351c-0.01-0.009,0.678-1.432,1.172-3.315c0.504-1.909,0.215-3.548,0.211-3.53
				c0,0.017-0.354,1.536-0.84,3.377C371.623,69.739,371.555,71.357,371.568,71.351z"/>
			<path style="fill:#FFFFFF;" d="M370.354,74.184c-0.01,0.007,0.834-2.072,1.389-4.735c0.566-2.64,0.994-4.803,0.973-4.818
				c0.025-0.003-1.029,1.999-1.605,4.683C370.553,71.976,370.346,74.179,370.354,74.184z"/>
			<path style="fill:#FFFFFF;" d="M367.852,75.456c0-0.014,0.654-2.516,2.047-5.408c1.367-2.881,2.107-5.455,2.045-5.457
				c0.045,0.042-1.25,2.268-2.641,5.202C367.885,72.745,367.844,75.488,367.852,75.456z"/>
			<path style="fill:#FFFFFF;" d="M366.027,74.75c0.008-0.007,1.027-2.456,2.512-5.341c1.492-2.893,2.566-5.343,2.553-5.35
				c0.014,0.009-1.621,2.128-3.131,5.059C366.447,72.068,366.027,74.764,366.027,74.75z"/>
			<path style="fill:#FFFFFF;" d="M363.695,74.188c0.018,0.007,1.457-2.341,3.121-5.257c1.707-2.883,3.191-5.193,3.164-5.218
				c0.035,0.016-1.982,1.951-3.723,4.892C364.568,71.564,363.713,74.198,363.695,74.188z"/>
			<path style="fill:#FFFFFF;" d="M378.771,62.757c-0.008-0.024-1.977,0.022-4.359,0.263c-2.428,0.203-4.307,0.813-4.27,0.946
				c-0.025-0.138,1.953-0.1,4.34-0.303C376.895,63.42,378.768,62.732,378.771,62.757z"/>
			<path style="fill:#FFFFFF;" d="M379.936,61.627c0-0.023-2.887,0.24-6.377,0.663c-1.758,0.211-3.301,0.28-4.494,0.305
				c-1.213,0.022-1.842,0.541-1.777,0.584c-0.021-0.066,0.605-0.394,1.777-0.261c1.135,0.137,2.797,0.231,4.564,0.017
				C377.182,62.501,379.932,61.604,379.936,61.627z"/>
			<path style="fill:#FFFFFF;" d="M381.227,60.224c-0.004-0.028-3.33,0.474-7.389,1.093c-2.035,0.288-3.859,0.5-5.229,0.662
				c-1.387,0.18-2.09,0.744-2.08,0.731c0,0.005,0.76-0.398,2.111-0.408c1.334,0.003,3.236-0.053,5.293-0.345
				C378.045,61.327,381.223,60.196,381.227,60.224z"/>
			<path style="fill:#FFFFFF;" d="M407.324,89.79c0.016,0.004-2.371-2.299-5.838-4.34c-1.682-1.083-3.318-1.93-4.383-2.649
				c-1.102-0.707-1.484-1.458-1.492-1.451c0-0.02,0.244,0.833,1.293,1.706c1.021,0.884,2.547,1.846,4.236,2.945
				C404.594,88.031,407.316,89.779,407.324,89.79z"/>
			<path style="fill:#FFFFFF;" d="M405.408,101.472c0.082-0.007-1.02-3.146-3.229-6.459c-1.881-3.444-3.521-6.307-3.684-6.185
				c0.189-0.07,1.188,2.966,3.131,6.515C403.844,98.678,405.461,101.416,405.408,101.472z"/>
			<path style="fill:#FFFFFF;" d="M377.305,59.4c-0.014-0.025-2.422,0.546-5.336,1.404c-1.447,0.518-2.711,0.791-3.73,1.055
				c-1.006,0.249-1.455,0.776-1.426,0.778c-0.008-0.02,0.496-0.377,1.5-0.465c0.951-0.08,2.414-0.234,3.846-0.752
				C375.088,60.559,377.301,59.373,377.305,59.4z"/>
			<path style="fill:#FFFFFF;" d="M366.117,63.653l-0.041-1.485c5.68,0.52,10.373,2.991,15.215,5.187
				c4.838,2.14,9.344,5.554,12.277,10.03c5.965,8.971,7.387,20.043,6.783,30.465c0.369-10.428-1.359-21.43-7.396-30.04
				c-3.006-4.314-7.293-7.424-12.146-9.45C376.078,66.303,371.027,63.972,366.117,63.653z"/>
			<path style="fill:#FFFFFF;" d="M369.471,66.575c0,0,2.855-8.345,7.723-12.909c4.867-4.571,19.457-12.285,30.217-14.314
				c10.762-2.029,16.1-1.53,21.559-0.4c0,0-12.055-1.873-21.566,0.867c0,0,12.246-2.015,19.164-0.26c0,0-13.188-1.164-18.781,0.841
				c0,0,7.885,0.146,16.391,4.592c0,0-13.32-5.364-19.561-4.361c0,0,7.252-1.319,14.486,0.658c0,0-10.182-1.275-15.203,0.026
				c0,0,7.977,0.917,15.463,5.125c0,0-10.279-4.735-17.443-5.01c0,0,4.193-1.017,11.201,1.282c0,0-9.359-2.207-14.17-0.435
				c0,0,7.045-2.259,17.916,5.578c0,0-10.188-7.122-18.482-5.108c0,0,6.137-1.077,12.883,3.169c0,0-8.123-3.866-14.166-2.802
				c0,0,6.277-1.847,17.221,7.463c0,0-10.705-8.75-18.24-6.915c0,0,8.588-0.625,17.164,9.239c0,0-8.906-9.621-18.053-8.756
				c0,0,6.35-0.375,13.172,6.131c0,0-8.037-6.802-14.541-5.431c0,0,9.182-1.472,16.115,3.296c0,0-9.992-5.251-18.514-2.131
				c0,0,9.355-3.407,20.447,8.614c0,0-11.449-11.401-21.361-7.987c0,0,5.824-1.536,12.238,2.397c0,0-8.35-4.102-13.967-1.4
				c0,0,9.633-2.342,20.303,8.593c0,0-12.617-11.428-22.391-7.762c0,0,6.68-2.751,15.014,1.262c0,0-9.879-4.066-17.215-0.04
				c0,0,9.219-3.894,20.262,7.533c0,0-10.178-9.955-20.58-6.966c0,0,11.287-0.08,17.1,8.086c0,0-7.889-8.592-18.965-7.577
				c0,0,10.281-1.573,18.434,8.786c0,0-10.061-10.111-17.963-8.216c0,0,7.82-1.561,17.922,11.657c0,0-9.783-12.204-18.418-11.058
				c0,0,7.605-1.708,15.885,6.211c0,0-10.322-8.163-17.76-5.233c0,0,7.721-2.099,14.996,5.907c0,0-9.131-8.516-17.898-4.702
				c0,0,8.016-4.657,18.314,7.042c0,0-9.449-9.762-16.35-7.248c0,0,6.191-2.062,12.939,6.917c0,0-6.785-8.135-12.812-6.197
				c0,0,6.16-0.663,10.812,6.455c0,0-5.324-6.722-11.133-5.887c0,0,5.912,0.031,9.768,7.382c0,0-4.35-6.988-10.141-6.854
				c0,0,5.389,0.215,8.32,6.291c0,0-5.33-8.856-12.535-5.132c0,0,5.32-2.279,9.387,2.298c0,0-4.453-4.14-9.197-1.774
				c0,0,7.256-2.111,12.436,6.956c0,0-4.217-8.075-12.465-6.581c0,0,8.174,0.189,12.453,7.839c0,0-5.547-7.984-13.01-7.046
				c0,0,6.51-0.261,10.934,5.831c0,0-6.029-6.505-11.725-5.042c0,0,5.037-0.187,9.326,6.996c0,0-4.354-5.966-9.721-6.321
				c0,0-2.537,4.066-2.947,7.016C370.16,67.06,369.51,67.312,369.471,66.575z"/>
			<path style="fill:#FFFFFF;" d="M390.367,53.397c-10.082,0.779-19.588,5.797-25.18,9.352c0.1,0.172,0.186,0.354,0.27,0.539
				c9.455-6.05,20.58-9.044,23.867-9.188c4.055-0.176,13.312-1.211,23.27,2.014c8.547,2.771,9.18,11.284,9.191,13.642
				C422.256,53.361,405.486,52.231,390.367,53.397z"/>
			<path style="fill:#FFFFFF;" d="M388.824,54.06c0,0,15.027,5.11,18.955,9.653c3.93,4.547-3.662,10.704-4.92,11.929
				c0,0,8.041-7.313,4.596-11.426c-3.445-4.11-19.959-10.021-19.959-10.021L388.824,54.06z"/>
			<path style="fill:#FFFFFF;" d="M386.822,54.178c0,0,13.32,4.275,18.854,11.898c5.541,7.621-3.572,7.329-3.98,7.701
				c0,0,5.398-0.99,5.361-3.424c-0.037-2.436-3.895-9.68-21.328-16.102L386.822,54.178z"/>
			<path style="fill:#FFFFFF;" d="M388.824,54.06c0,0,19.523,6.149,27.191,12.713c0,0-10.861-9.048-26.734-13.021
				C389.281,53.753,387.928,53.714,388.824,54.06z"/>
			<path style="fill:#FFFFFF;" d="M385.729,54.251c0,0,22.656,8.11,18.125,19.493c0,0,4.449-10.099-18.775-19.053
				C385.078,54.691,384.617,54.432,385.729,54.251z"/>
			<path style="fill:#FFFFFF;" d="M384.617,54.432c0,0,19.686,6.517,16.221,18.784c0,0,3.932-10.309-16.523-18.672L384.617,54.432z"
				/>
			<path style="fill:#FFFFFF;" d="M383.748,54.83c0.307-0.11,15.225,5.544,14.814,16.986c0,0,0.9-10.162-15.602-17.027
				L383.748,54.83z"/>
			<path style="fill:#FFFFFF;" d="M378.939,56.554c0,0,13.436,4.294,16.152,13.912c0,0,0.15-8.048-15.584-14.197
				C379.508,56.269,378.613,56.209,378.939,56.554z"/>
			<path style="fill:#FFFFFF;" d="M380.834,55.849c0,0,19.395,9.456,14.715,18.095c0,0,6.846-7.261-14.041-18.361
				C381.508,55.582,380.332,55.526,380.834,55.849z"/>
			<path style="fill:#FFFFFF;" d="M382.443,55.425c0,0,15.314,9.177,9.484,18.499c0,0,5.443-8.495-9.938-18.192
				C381.99,55.731,381.986,55.45,382.443,55.425z"/>
			<path style="fill:#FFFFFF;" d="M383.229,55.184c0,0,11.449,4.868,13.496,11.814c0,0-2.561-6.031-14.281-11.573
				C382.443,55.425,382.748,55.03,383.229,55.184z"/>
			<path style="fill:#FFFFFF;" d="M377.637,56.868c0,0,12.777,4.166,13.924,13.709c0,0,0.561-8.423-13.34-14.104L377.637,56.868z"/>
			<path style="fill:#FFFFFF;" d="M380.834,55.849c0,0,13.062,7.948,11.293,14.723c0,0,0.676-6.986-11.812-14.372L380.834,55.849z"
				/>
			<path style="fill:#FFFFFF;" d="M377.637,56.868c0,0,13.734,7.401,11.393,16.833c0,0,1.273-9.186-11.959-16.264
				C377.07,57.438,376.676,56.853,377.637,56.868z"/>
			<path style="fill:#FFFFFF;" d="M376.264,57.224c0,0,11.363,5.023,11.141,18.424c0,0,0.33-10.445-11.789-17.984L376.264,57.224z"
				/>
			<path style="fill:#FFFFFF;" d="M374.963,58.103c0,0,8.682,4.843,10.223,14.404c0,0,0.172-7.311-9.33-14.628L374.963,58.103z"/>
			<path style="fill:#FFFFFF;" d="M374.135,58.28c0,0,8.105,3.149,9.307,14.737c0,0-1.824-10.692-10.225-14.405L374.135,58.28z"/>
			<path style="fill:#FFFFFF;" d="M372.527,58.986c0,0,8.633,3.928,9.047,15.195c0,0-1.062-10.542-9.787-14.887L372.527,58.986z"/>
			<path style="fill:#FFFFFF;" d="M370.873,59.91c0,0,7.738,3.306,9.049,11.407c0,0-0.59-8.303-8.441-11.912L370.873,59.91z"/>
			<path style="fill:#FFFFFF;" d="M372.527,58.986c0,0,10.176,2.986,11.59,13.765c0,0-0.428-9.742-10.9-14.139L372.527,58.986z"/>
			<path style="fill:#FFFFFF;" d="M365.725,62.812c0,0,7.998-0.376,12.826,8.296c0,0-3.014-8.095-12.283-8.757L365.725,62.812z"/>
			<path style="fill:#FFFFFF;" d="M367.766,61.625c0,0,6.604,2.463,9.416,10.125c0,0-2.447-7.814-8.787-10.738L367.766,61.625z"/>
			<path style="fill:#FFFFFF;" d="M369.723,60.592c0,0,5.982,1.549,8.422,8.519c0,0-1.629-6.19-7.857-8.805L369.723,60.592z"/>
			<path style="fill:#FFFFFF;" d="M369.029,60.966c0,0,4.674,2.147,5.658,9.906c0,0-1.457-7.061-6.293-9.86L369.029,60.966z"/>
			<path style="fill:#FFFFFF;" d="M369.525,60.723c0,0,6.814,1.937,9.031,8.017c0,0-4.426-7.24-10.334-7.422L369.525,60.723z"/>
			<path style="fill:#FFFFFF;" d="M390.086,53.965c0,0,6.5,0.353,22.268,9.22c0,0-10.484-7.223-20.395-9.536L390.086,53.965z"/>
			<path style="fill:#FFFFFF;" d="M393.312,53.685c0,0,20.736,1.356,23.627,14.173c0,0-0.436-10.591-19.861-14.348L393.312,53.685z"
				/>
			<path style="fill:#FFFFFF;" d="M399.85,53.819c0,0,15.059,3.197,16.785,10.645c0,0-1.006-7.933-15.367-10.936
				C401.268,53.528,399.439,53.627,399.85,53.819z"/>
			<path style="fill:#FFFFFF;" d="M404.824,54.161c0,0,12.504,2.646,14.293,10.049c0,0-1.412-6.99-11.697-9.716L404.824,54.161z"/>
			<path style="fill:#FFFFFF;" d="M410.629,55.171c0,0,12.193,5.127,9.551,15.517c0,0,3.535-6.83-5.686-13.865
				C414.494,56.823,409.334,53.96,410.629,55.171z"/>
			<path style="fill:#FFFFFF;" d="M405.523,54.352c0,0,10.307,2.898,12.018,8.368c0,0-2.932-5.029-12.996-8.275
				C404.545,54.445,404.564,54.055,405.523,54.352z"/>
			<path style="fill:#FFFFFF;" d="M393.312,53.685c0,0,13.982,1.746,18.572,7.545c0,0-7.488-6.025-19.16-7.434L393.312,53.685z"/>
			<path style="fill:#FFFFFF;" d="M391.959,53.65c0,0,12.811,2.251,17.766,7.333C409.725,60.983,398.371,54.159,391.959,53.65z"/>
		</g>
		<g>
			<path style="fill:#FFFFFF;" d="M8.285,176.592c3.433,6.139,7.856,9.539,14.952,9.539c5.38,0,10.562-3.797,10.562-9.309
				c0-16.8-30.2-18.35-30.2-40.432c0-9.605,8.119-16.8,18.285-16.8c7.394,0,13.5,3.366,19.111,10.231l-7.129,5.742
				c-4.126-4.555-7.559-6.699-11.354-6.699c-4.456,0-8.582,2.443-8.582,7.955c0,13.862,30.432,17.525,30.432,38.748
				c0,11.717-8.12,20.069-21.322,20.069c-11.156,0-18.714-5.712-23.038-14.261L8.285,176.592z"/>
			<path style="fill:#FFFFFF;" d="M91.028,195.638c-20.992,0-38.023-17.032-38.023-38.024s17.031-38.022,38.023-38.022
				c20.992,0,38.023,17.03,38.023,38.022S112.02,195.638,91.028,195.638z M63.567,157.613c0,15.447,12.279,27.988,27.461,27.988
				c15.183,0,27.461-12.541,27.461-27.988c0-15.446-12.278-27.988-27.461-27.988C75.846,129.625,63.567,142.167,63.567,157.613z"/>
			<path style="fill:#FFFFFF;" d="M154.76,185.074h23.236v9.506h-33.798v-73.934h10.562V185.074z"/>
			<path style="fill:#FFFFFF;" d="M215.093,132.066c-4.225-4.521-8.021-6.832-12.311-6.832c-5.579,0-10.892,3.137-10.892,10.363
				c0,16.406,32.049,20.068,32.049,41.027c0,11.09-7.492,19.013-19.638,19.013c-10.463,0-17.527-5.052-21.587-12.774l5.149-2.938
				c3.697,6.303,8.615,9.803,16.603,9.803c6.831,0,13.07-4.852,13.07-11.98c0-19.209-31.851-20.695-31.851-42.611
				c0-8.812,7.328-15.546,16.371-15.546c6.8,0,12.344,2.904,17.461,8.911L215.093,132.066z"/>
			<path style="fill:#FFFFFF;" d="M373.85,120.646h6.369v67.299c-6.865,4.688-15.744,7.692-24.26,7.692
				c-16.701,0-29.572-4.854-29.572-28.287v-46.704h6.369v44.624c0,23.171,12.971,24.589,23.203,24.589
				c5.15,0,11.586-1.484,17.891-5.545V120.646z"/>
			<path style="fill:#FFFFFF;" d="M407.775,120.646v68.125h23.963v5.809h-30.299v-73.934H407.775z"/>
			<path style="fill:#FFFFFF;" d="M309.82,157.613c0,20.992-16.998,38.024-37.957,38.024c-20.926,0-37.957-17.032-37.957-38.024
				c0-20.959,17.031-38.022,37.957-38.022C292.822,119.591,309.82,136.654,309.82,157.613z M240.309,157.613
				c0,17.625,14.094,32.049,31.555,32.049s31.586-14.424,31.586-32.049c0-17.624-14.094-32.049-31.586-32.049
				C254.402,125.564,240.309,139.989,240.309,157.613z"/>
			<g>
				<path style="fill:#FFFFFF;" d="M431.684,121.266v7.246h-0.906v-7.246h-2.018v-0.82h4.938v0.82H431.684z"/>
				<path style="fill:#FFFFFF;" d="M438.072,128.742l-2.246-5.715l-1.275,5.484h-0.93l1.951-8.297l2.5,6.322l2.502-6.322
					l1.959,8.297h-0.936l-1.275-5.484L438.072,128.742z"/>
			</g>
		</g>
	</g>
</g>
<g id="Layer_1">
</g>
</svg>
