<?xml version="1.0" encoding="iso-8859-1"?>
<!-- Generator: Adobe Illustrator 16.0.0, SVG Export Plug-In . SVG Version: 6.00 Build 0)  -->
<!DOCTYPE svg PUBLIC "-//W3C//DTD SVG 1.1//EN" "http://www.w3.org/Graphics/SVG/1.1/DTD/svg11.dtd">
<svg version="1.1" xmlns="http://www.w3.org/2000/svg" xmlns:xlink="http://www.w3.org/1999/xlink" x="0px" y="0px"
	 width="442.533px" height="209.576px" viewBox="0 0 442.533 209.576" style="enable-background:new 0 0 442.533 209.576;"
	 xml:space="preserve">
<g id="palm_tree">
	<g>
		<path style="fill:#FFFFFF;" d="M135.979,52.532c-4.246,5.332-7.298,14.745-7.298,14.745c1.113-1.343,8.752-4.324,8.752-4.324
			l0.736-4.685l0.73,3.963c0.758-0.83,4.25-2.838,4.25-2.838l-0.862-3.472l3.074,3.077c2.125-1.978,8.972-6.88,8.972-6.88
			c-5.562,6.936-8.571,19.074-8.571,19.074c2.457-1.582,9.66-5.632,9.66-5.632l0.97-5.863l0.66,4.885
			c1.687-1.395,5.08-2.777,7.905-3.772c0.364,0.404,0.786,0.748,1.242,1.039c-3.168,9.03-21.95,65.705-21.686,141.088
			c0,0,9.663,10.678,19.426,1.438c0,0-5.68-96.195,8.531-134.135c1.165,6.906,1.906,14.354,1.906,14.354
			c2.558-3.208,4.25-12.92,5.197-20.147c0.884-1.086,1.332-2.529,1.05-4.02c-0.083-0.452-0.241-0.87-0.436-1.261
			c0.205-1.964,0.307-3.203,0.307-3.203c0.909,0.052,4.574,6.436,4.574,6.436l3.578-2.925l-2.487,3.851
			c1.903,1.708,4.133,5.167,4.133,5.167l3.168-3.776l-2.808,5.754l2.453,3.42l2.608-4.35l-1.654,7.127c0,0,1.982,8.266,2.606,10.43
			c0.627,2.164-0.544,5.785-0.544,5.785c5.339-4.389,6.488-18.01,6.056-24.063c-0.442-6.071-4.328-14.906-4.328-14.906
			c1.934-0.578,7.657,0.869,7.657,0.869l0.48-4.863l1.22,5.463l5.806,1.899l1.536-5.298l0.208,6.11l5.621,2.151l1.062-2.921
			l0.586,4.438c1.564,1.082,8.6,5.615,10.529,7.853c-4.09-22.88-20.078-27.709-20.078-27.709l1.195-0.896
			c-5.642-3.511-13.003-3.985-13.003-3.985l4.094-1.204l-1.729-3.312c-0.461,0.104-0.891,0.217-1.226,0.352l-2.822-4.254
			l1.671,4.472l-1.759,0.661l-2.441,0.608l-1.763-3.077l0.513,2.808c0,0-7.357,1.886-8.617,2.447
			c-1.247,0.582-3.008,0.309-2.121-1.387c0,0,8.792-8.835,20.082-9.756c13.725-1.126,25.336,10.847,25.336,10.847
			s-10.474-5.906-20.899-4.172l-4.512-4.115l2.597,3.95c0,0-2.283,0.217-4.03,0.617l3.968,3.133
			c13.216-3.559,25.863,5.932,25.863,5.932c-2.064-7.566-6.271-10.661-6.271-10.661l-3.18-1.247l1.879-0.8
			c-7.292-6.384-16.496-6.979-16.496-6.979c-10.404-1.551-17.588,5.732-17.588,5.732l-0.894-2.334l-5.316,0.748l3.768-2.959
			C185.444,12.313,167.043,0,167.043,0c10.847,15.736,7.641,26.792,7.641,26.792c-10.526-10.919-28.457-4.559-28.457-4.559
			c-12.836,4.398-20.435,14.433-20.435,14.433c4.379-2.16,13.038-3.303,13.952-3.25c0.933,0.061,6.133-3.851,6.133-3.851
			l-3.444,3.603c0,0-1.949,0.569,0.699,0.087c2.638-0.478,5.484,0.135,5.484,0.135l2.412-2.942l-1.586,3.703
			c3.984-0.517,9.635,0.509,9.635,0.509c-7.071,1.069-17.783,12.129-17.783,12.129l-3.084,3.055L135.979,52.532z M174.805,36.348
			c-6.627-5.002-13.898-3.781-13.898-3.781l1.212-3.786l-2.691,2.651l-3.796-1.343l1.337-3.172l-4.623,1.129
			c-2.615-1.799-13.098-0.539-13.098-0.539c21.938-11.289,32.491,1.79,32.491,1.79C174.218,31.772,174.805,36.348,174.805,36.348z
			 M178.129,37.53l-2.314,0.369l0.65-2.042c0,0,4.665-12.996-2.195-27.011c0,0,5.406,4.169,7.68,8.583l-1.245,2.182l2.459-0.394
			l2.011,4.624l-3.668,1.317l3.317,2.034c0,0,0.383,1.391,0.594,3.72C185.417,30.912,183.493,34.566,178.129,37.53z M177.033,47.821
			c0,0-3.623-2.773-5.344-2.773c0,0,7.301-5.237,14.523-1.564c0,0,25.693-11.425,41.516,18.752c0,0-11.942-20.895-38.995-16.093
			c0,0,13.413,11.521,11.89,29.612c-0.035,1.23-0.622,1.673-0.622,1.673c0.097-0.656,0.136-1.612,0.189-2.26
			c0.111-3.924-2.388-15.202-10.549-23.254C185.226,47.556,177.033,47.821,177.033,47.821z M176.382,52.919
			c-0.973-2.686-4.232-4.146-7.931-2.025c0.738-1.847,2.363-3.29,4.468-3.681c3.264-0.596,5.79,4.915,5.479,9.947
			c-0.265,4.255-1.525,15.067-2.698,19.266C176.734,67.564,177.365,55.613,176.382,52.919z M163.792,72.601
			c1.486-1.456,5.346-0.678,6.252-2.399c1.077-2.082-2.032-4.341-3.118-5.128l0.156-0.443c2.049-0.535,3.377-0.513,4.241-0.178
			c0.332,1.382,0.644,2.916,0.929,4.52c-0.422,1.282-1.016,2.43-1.168,2.851c-6.293,17.223-7.877,50.89-8.613,61.476
			c-0.761,10.618-0.393,59.305-0.393,59.305s0,0,0.532,4.88c0.521,4.872,0.073,5.241,0.073,5.241
			c-2.568,4.351-10.751,3.168-13.83-0.335c3.452-0.53,9.768,2.195,11.527-1.79c0.74-1.646,0.02-4.881-0.1-6.493
			c-0.171-2.334-0.035-4.702-0.086-7.088c-0.098-3.46,0.883-9.761-1.127-12.438c-2.657-3.567-9.07-0.673-11.455-3.271
			c3.185-3.173,10.153,1.442,13.02-2.65c1.694-2.413,0.771-11.135-0.474-13.451c-3.934-2.09-8.164-0.145-12.033-1.877
			c2.312-2.113,7.991-0.313,10.946-1.204c1.967-2.226,2.217-8.844,1.043-11.513c-1.898-4.229-6.245-2.338-9.961-3.489l0.033-0.791
			c5.591-2.308,10.688-0.204,11.675-7.975c0.302-2.316,0.995-7.479,0.065-9.53c-1.412-3.068-5.293-1.67-7.944-2.561
			c4.411-2.125,8.774,1.574,9.546-4.971c0.802-6.897-3.907-3.33-7.829-5.824c1.786-1.229,5.023,0.235,6.923-0.908
			c2.077-1.251,2.013-3.841,2.153-5.918c0.137-1.834,0.771-5.606-0.432-7.032c-1.307-1.547-4.39-0.421-5.163-2.221
			c3.489-0.208,5.763,1.756,6.84-2.794c1.16-4.92-0.169-4.625-3.859-6.015c3.238-2.034,5.594,0.574,6.86-4.172
			C170.203,72.014,167.556,72.953,163.792,72.601z M174.41,39.877c0,0-4.771,5.554-7.718,8.778l-1.654-2.816l0.652,3.572
			c0,0-3.59,2.772-4.4,3.772l-0.917-4.228l0.354,5.037c0,0-7.802,6.81-8.938,9.144C151.79,63.136,160.232,30.451,174.41,39.877z
			 M136.61,57.317c0,0,9.816-21.833,28.6-21.082c0,0-11.816,11.804-13.686,14.315l-1.529-3.294l-0.156,3.446
			C149.838,50.702,141.346,52.728,136.61,57.317z"/>
		<g>
			<path style="fill:#FFFFFF;" d="M8.285,190.53c3.433,6.139,7.856,9.539,14.952,9.539c5.38,0,10.562-3.797,10.562-9.309
				c0-16.8-30.2-18.351-30.2-40.431c0-9.605,8.119-16.801,18.285-16.801c7.394,0,13.5,3.366,19.111,10.232l-7.129,5.742
				c-4.126-4.555-7.559-6.699-11.354-6.699c-4.456,0-8.582,2.441-8.582,7.953c0,13.863,30.432,17.527,30.432,38.749
				c0,11.717-8.12,20.069-21.322,20.069c-11.156,0-18.714-5.712-23.038-14.261L8.285,190.53z"/>
			<path style="fill:#FFFFFF;" d="M91.028,209.576c-20.992,0-38.023-17.032-38.023-38.023c0-20.992,17.031-38.023,38.023-38.023
				c20.992,0,38.023,17.031,38.023,38.023C129.051,192.544,112.02,209.576,91.028,209.576z M63.567,171.553
				c0,15.446,12.279,27.987,27.461,27.987c15.183,0,27.461-12.541,27.461-27.987c0-15.447-12.278-27.988-27.461-27.988
				C75.846,143.564,63.567,156.105,63.567,171.553z"/>
			<path style="fill:#FFFFFF;" d="M154.76,199.013h23.236v9.506h-33.798v-73.934h10.562V199.013z"/>
			<path style="fill:#FFFFFF;" d="M215.093,146.006c-4.225-4.521-8.021-6.833-12.311-6.833c-5.579,0-10.892,3.136-10.892,10.364
				c0,16.404,32.049,20.068,32.049,41.026c0,11.09-7.492,19.013-19.638,19.013c-10.463,0-17.527-5.052-21.587-12.774l5.149-2.938
				c3.697,6.303,8.615,9.803,16.603,9.803c6.831,0,13.07-4.852,13.07-11.98c0-19.21-31.851-20.696-31.851-42.61
				c0-8.812,7.328-15.547,16.371-15.547c6.8,0,12.344,2.904,17.461,8.912L215.093,146.006z"/>
			<path style="fill:#FFFFFF;" d="M373.85,134.585h6.369v67.299c-6.865,4.688-15.744,7.692-24.26,7.692
				c-16.701,0-29.572-4.854-29.572-28.287v-46.704h6.369v44.624c0,23.171,12.971,24.589,23.203,24.589
				c5.15,0,11.586-1.484,17.891-5.545V134.585z"/>
			<path style="fill:#FFFFFF;" d="M407.775,134.585v68.125h23.963v5.809h-30.299v-73.934H407.775z"/>
			<path style="fill:#FFFFFF;" d="M309.82,171.553c0,20.991-16.998,38.023-37.957,38.023c-20.926,0-37.957-17.032-37.957-38.023
				c0-20.959,17.031-38.023,37.957-38.023C292.822,133.529,309.82,150.594,309.82,171.553z M240.309,171.553
				c0,17.624,14.094,32.048,31.555,32.048s31.586-14.424,31.586-32.048c0-17.625-14.094-32.05-31.586-32.05
				C254.402,139.503,240.309,153.928,240.309,171.553z"/>
			<g>
				<path style="fill:#FFFFFF;" d="M431.684,135.204v7.247h-0.906v-7.247h-2.018v-0.82h4.938v0.82H431.684z"/>
				<path style="fill:#FFFFFF;" d="M438.072,142.682l-2.246-5.716l-1.275,5.485h-0.93l1.951-8.298l2.5,6.323l2.502-6.323
					l1.959,8.298h-0.936l-1.275-5.485L438.072,142.682z"/>
			</g>
		</g>
	</g>
</g>
<g id="Layer_1">
</g>
</svg>
