<?xml version="1.0" encoding="iso-8859-1"?>
<!-- Generator: Adobe Illustrator 16.0.0, SVG Export Plug-In . SVG Version: 6.00 Build 0)  -->
<!DOCTYPE svg PUBLIC "-//W3C//DTD SVG 1.1//EN" "http://www.w3.org/Graphics/SVG/1.1/DTD/svg11.dtd">
<svg version="1.1" xmlns="http://www.w3.org/2000/svg" xmlns:xlink="http://www.w3.org/1999/xlink" x="0px" y="0px"
	 width="442.533px" height="236.879px" viewBox="0 0 442.533 236.879" style="enable-background:new 0 0 442.533 236.879;"
	 xml:space="preserve">
<g id="palm_tree_2">
	<g>
		<g>
			<g>
				<g>
					<path style="fill-rule:evenodd;clip-rule:evenodd;fill:#FFFFFF;" d="M291.934,95.528l-17.672,2.885l-3.859-4.095l1.191,4.865
						c-5.746-0.151-12.18,0.524-18.023,1.749c-2.209-1.945-4.291-3.801-4.291-3.801l2.314,4.242
						c-6.334,1.5-11.76,3.643-14.516,6.053C229.736,91.114,268.906,81.081,291.934,95.528z"/>
					<path style="fill-rule:evenodd;clip-rule:evenodd;fill:#FFFFFF;" d="M285.746,65.767
						c-29.074-11.602-59.631,12.182-48.973,40.837l-0.002,0.013c0.152,0.41,0.258,0.688,0.307,0.81
						c2.145-6.559,4.414-12.613,12.727-21.745l-6.971-1.931l8.125,0.715c1.404-1.412,2.902-2.705,4.461-3.891
						c-2.902-1-7.947-2.732-8.342-2.812c-0.375-0.078,5.941,0.918,10.051,1.568c2.887-2.01,5.932-3.691,8.93-5.133
						c-3.557-1.367-10.492-4.021-10.986-4.121c-0.488-0.1,7.873,2.012,12.861,3.246C275.691,69.809,282.84,67.807,285.746,65.767z"
						/>
					<path style="fill-rule:evenodd;clip-rule:evenodd;fill:#FFFFFF;" d="M240.326,156.137l-2.777-15.295l-5.059-1.869l4.953-0.544
						c-1.93-4.635-3.295-10.085-3.957-15.228c-2.52-1.195-4.916-2.313-4.916-2.313l4.715,0.567
						c-0.557-5.627-0.227-10.714,1.186-13.709C216.824,106.838,219.558,141.871,240.326,156.137z"/>
					<path style="fill-rule:evenodd;clip-rule:evenodd;fill:#FFFFFF;" d="M237.078,107.427c-1.318-0.054-6.037-1.556-14.416,1.124
						c-30.022,9.6-10.153,43.798-10.325,43.554c-0.203-10.349,1.142-14.215,3.412-20.112c-2.247-0.906-4.779-1.925-5.23-2.082
						c-0.453-0.156,3.146,0.457,5.729,0.914c1.231-2.793,2.656-5.32,4.221-7.621c-2.407-1.137-5.622-2.663-5.945-2.865
						c-0.323-0.201,3.728,0.893,6.749,1.715C226.842,114.354,230.623,111.441,237.078,107.427z"/>
					<path style="fill-rule:evenodd;clip-rule:evenodd;fill:#FFFFFF;" d="M237.078,107.427
						c-16.959-12.594-10.459-46.641,15.955-51.479c-4.33,5.064-7.367,10.089-9.543,15.219c-3.336-0.042-7.371-0.072-6.486,0.044
						c0.869,0.114,3.805,0.613,6.057,1.001c-1.094,2.731-1.953,5.495-2.643,8.312l-7.119,2.034l6.553,0.462
						c-0.594,2.84-1.037,5.741-1.396,8.721c-2.279,0.434-4.596,0.943-3.984,1.125c0.443,0.133,2.033,0.287,3.807,0.426
						C237.781,97.792,237.455,102.48,237.078,107.427z"/>
					<path style="fill-rule:evenodd;clip-rule:evenodd;fill:#FFFFFF;" d="M237.078,107.427
						c-17.993-13.682-49.716,3.648-55.395,22.616c2.021-1.006,11.812-5.838,16.854-8.747l-2.148-1.843l3.164,1.258
						c1.458-0.838,3.041-1.739,4.714-2.681l-2.756-2.779l4.594,1.748c1.354-0.756,2.756-1.531,4.189-2.315
						c0.896-0.49,1.824-0.948,2.773-1.376c-2.112-1.445-4.43-2.92-4.43-2.92s3.498,1.244,6.181,2.172
						C225.15,108.374,237.078,107.427,237.078,107.427z"/>
					<path style="fill-rule:evenodd;clip-rule:evenodd;fill:#FFFFFF;" d="M237.078,107.427
						c-24.759-10.16-30.977-35.458-22.795-51.475c0,0,2.412,7.679,5.4,15.67c-2.174,2.004-4.225,3.911-4.056,3.678
						c0.184-0.255,2.481-1.424,4.526-2.43c1.472,3.87,3.055,7.722,4.543,10.727l-4.213,2.658l4.749-1.61
						c0.309,0.588,0.611,1.136,0.906,1.631c1.043,1.746,2.135,3.702,3.207,5.7c-2.076,1.217-4.562,2.55-4.562,2.55l5.17-1.411
						C233.711,100.204,237.078,107.427,237.078,107.427z"/>
					<path style="fill-rule:evenodd;clip-rule:evenodd;fill:#FFFFFF;" d="M234.592,108.556
						c-11.734-23.107-44.87-21.646-55.394-10.043c0,0,8.031,0.538,16.501,1.562c1.437-2.585,2.807-5.027,2.62-4.808
						c-0.205,0.239-0.8,2.747-1.296,4.972c4.106,0.52,8.224,1.152,11.494,1.892l1.592-4.72l-0.447,4.993
						c0.645,0.161,1.247,0.327,1.798,0.499c1.943,0.602,4.101,1.203,6.295,1.775c0.694-2.305,1.404-5.035,1.404-5.035L219.004,105
						C226.779,106.982,234.592,108.556,234.592,108.556z"/>
				</g>
				<path style="fill-rule:evenodd;clip-rule:evenodd;fill:#FFFFFF;" d="M245.977,113.655c0,0-7.115-8.377-7.09-8.248
					c0.027,0.129-5.213,5.603-4.857,5.63s7.541,6.785,7.541,6.785L245.977,113.655z"/>
				<path style="fill-rule:evenodd;clip-rule:evenodd;fill:#FFFFFF;" d="M253.316,121.667l-7.914-9.347c0,0-5.211,5.118-5,5.175
					c0.213,0.057,8.043,7.769,8.043,7.769L253.316,121.667z"/>
				<path style="fill-rule:evenodd;clip-rule:evenodd;fill:#FFFFFF;" d="M260.494,129.862c-0.135-0.173-7.576-9.415-7.576-9.415
					s-5.482,4.772-5.33,4.791c0.154,0.019,7.949,8.289,7.949,8.289L260.494,129.862z"/>
				<polygon style="fill-rule:evenodd;clip-rule:evenodd;fill:#FFFFFF;" points="267.908,139.211 260.377,129.035 254.795,133.328 
					262.42,142.733 				"/>
				<path style="fill-rule:evenodd;clip-rule:evenodd;fill:#FFFFFF;" d="M274.182,147.141c-0.078-0.135-6.633-8.957-6.633-8.957
					l-5.707,4.168l6.449,8.544L274.182,147.141z"/>
				<path style="fill-rule:evenodd;clip-rule:evenodd;fill:#FFFFFF;" d="M281.316,156.597c0.219-0.297-7.359-10.312-7.359-10.312
					l-6.285,4.271l7.32,9.633L281.316,156.597z"/>
				<path style="fill-rule:evenodd;clip-rule:evenodd;fill:#FFFFFF;" d="M286.82,164.434c-0.107-0.279-5.836-8.971-5.836-8.971
					l-6.58,4.547l6.199,8.545L286.82,164.434z"/>
				<path style="fill-rule:evenodd;clip-rule:evenodd;fill:#FFFFFF;" d="M292.557,173.173c-0.076-0.134-5.914-9.604-5.914-9.604
					s-6.762,4.633-6.607,4.652c0.154,0.018,5.766,8.883,5.766,8.883L292.557,173.173z"/>
				<path style="fill-rule:evenodd;clip-rule:evenodd;fill:#FFFFFF;" d="M298.225,183.529c0.115-0.174-5.814-11.327-5.814-11.327
					s-7.408,4.415-7.332,4.549c0.078,0.134,5.975,10.392,5.975,10.392L298.225,183.529z"/>
				<path style="fill-rule:evenodd;clip-rule:evenodd;fill:#FFFFFF;" d="M303.117,192.791c-0.059-0.288-4.918-10.609-4.918-10.609
					l-7.844,4.374l5.32,9.506L303.117,192.791z"/>
				<path style="fill-rule:evenodd;clip-rule:evenodd;fill:#FFFFFF;" d="M307.646,202.479c-0.164-0.316-4.637-10.967-4.637-10.967
					l-7.932,3.821l4.605,9.821L307.646,202.479z"/>
				<path style="fill-rule:evenodd;clip-rule:evenodd;fill:#FFFFFF;" d="M311.99,213.455c-0.186-0.413-4.203-12.007-4.203-12.007
					l-8.643,3.266l4.146,10.516L311.99,213.455z"/>
				<path style="fill-rule:evenodd;clip-rule:evenodd;fill:#FFFFFF;" d="M315.803,224.289c-0.08-0.385-3.828-12.133-3.828-12.133
					l-9.561,2.451l4.738,11.447L315.803,224.289z"/>
				<path style="fill-rule:evenodd;clip-rule:evenodd;fill:#FFFFFF;" d="M318.715,236.107c-0.137-0.422-3.064-13.539-3.064-13.539
					l-9.271,2.643l3.471,11.605L318.715,236.107z"/>
				<circle style="fill-rule:evenodd;clip-rule:evenodd;fill:#FFFFFF;" cx="238.345" cy="106.161" r="4.852"/>
				<circle style="fill-rule:evenodd;clip-rule:evenodd;fill:#FFFFFF;" cx="230.034" cy="106.572" r="4.852"/>
				<circle style="fill-rule:evenodd;clip-rule:evenodd;fill:#FFFFFF;" cx="232.638" cy="111.868" r="4.852"/>
			</g>
			<g>
				<g>
					<path style="fill-rule:evenodd;clip-rule:evenodd;fill:#FFFFFF;" d="M338.781,163.689c5.686-25.75,2.551-57.204,2.551-57.204
						l-2.656,0.435c4.057,55.84-14.9,86.509-24.162,100.191l1.84,1.442l1.84,1.441C318.193,209.995,333.098,189.439,338.781,163.689
						z"/>
					<path style="fill-rule:evenodd;clip-rule:evenodd;fill:#FFFFFF;" d="M368.105,121.645l-8.545-5.098l-0.176-3.122l-1.234,2.494
						c-2.389-2.121-5.365-4.136-8.289-5.706c-0.242-1.619-0.463-3.152-0.463-3.152l-0.533,2.632c-3.23-1.63-6.305-2.66-8.338-2.622
						C343.244,97.508,363.488,107.261,368.105,121.645z"/>
					<path style="fill-rule:evenodd;clip-rule:evenodd;fill:#FFFFFF;" d="M376.127,106.777
						c-8.207-15.338-29.713-16.163-35.436-0.166l-0.006,0.005c-0.082,0.229-0.137,0.385-0.158,0.454
						c3.258-2.021,6.391-3.782,13.191-4.689l-2.271-3.316l3.197,3.213c1.102-0.098,2.203-0.111,3.289-0.059
						c-0.875-1.463-2.4-4.006-2.539-4.18c-0.131-0.168,2.197,2.516,3.713,4.263c1.945,0.18,3.842,0.554,5.633,1.014
						c-1.023-1.854-3.021-5.464-3.195-5.684c-0.172-0.218,2.625,3.673,4.305,5.983C370.406,104.897,374.162,106.604,376.127,106.777
						z"/>
					<path style="fill-rule:evenodd;clip-rule:evenodd;fill:#FFFFFF;" d="M324.475,128.941l4.293-7.496l-1.482-2.605l2.301,1.542
						c0.838-2.661,2.209-5.467,3.768-7.891c-0.645-1.41-1.262-2.743-1.262-2.743l1.803,1.93c1.775-2.593,3.736-4.637,5.41-5.404
						C332.127,99.571,320.75,115.443,324.475,128.941z"/>
					<path style="fill-rule:evenodd;clip-rule:evenodd;fill:#FFFFFF;" d="M340.527,107.07c-0.543-0.494-2.012-2.822-6.533-4.682
						c-16.197-6.664-19.99,14.986-19.977,14.821c3.617-4.472,5.574-5.634,8.648-7.329c-0.631-1.189-1.342-2.528-1.479-2.758
						c-0.135-0.228,1.174,1.321,2.109,2.439c1.523-0.746,3.033-1.311,4.521-1.729c-0.615-1.345-1.436-3.144-1.502-3.346
						c-0.064-0.201,1.266,1.714,2.256,3.145C333.695,106.353,336.344,106.467,340.527,107.07z"/>
					<path style="fill-rule:evenodd;clip-rule:evenodd;fill:#FFFFFF;" d="M340.527,107.07
						c-2.703-11.424,12.246-23.572,25.207-16.176c-3.654,0.604-6.744,1.653-9.504,3.056c-1.404-1.212-3.109-2.669-2.773-2.303
						c0.328,0.358,1.396,1.622,2.217,2.593c-1.443,0.771-2.797,1.638-4.1,2.588l-3.754-1.683l2.621,2.542
						c-1.27,0.994-2.496,2.069-3.717,3.208c-1.125-0.632-2.291-1.244-2.096-0.948c0.141,0.216,0.762,0.85,1.467,1.544
						C344.273,103.227,342.457,105.103,340.527,107.07z"/>
					<path style="fill-rule:evenodd;clip-rule:evenodd;fill:#FFFFFF;" d="M340.527,107.07c-2.754-12.256-22.443-16.242-31.645-10.21
						c1.219,0.296,7.109,1.745,10.295,2.312l-0.254-1.552l0.895,1.668c0.92,0.164,1.916,0.348,2.963,0.546l-0.178-2.167l1.328,2.387
						c0.846,0.163,1.721,0.335,2.609,0.515c0.557,0.112,1.115,0.251,1.674,0.408c-0.381-1.37-0.84-2.827-0.84-2.827
						s1.043,1.781,1.85,3.136C335.115,103.203,340.527,107.07,340.527,107.07z"/>
					<path style="fill-rule:evenodd;clip-rule:evenodd;fill:#FFFFFF;" d="M340.527,107.07c-6.891-13.181-0.48-26.161,8.73-30.043
						c0,0-1.723,4.129-3.312,8.596c-1.641,0.074-3.195,0.15-3.041,0.111c0.17-0.043,1.564,0.283,2.795,0.588
						c-0.76,2.171-1.465,4.376-1.908,6.186l-2.742-0.378l2.594,1.015c-0.078,0.361-0.145,0.701-0.195,1.019
						c-0.184,1.115-0.42,2.337-0.678,3.571c-1.318-0.227-2.852-0.55-2.852-0.55l2.701,1.252
						C341.68,102.794,340.527,107.07,340.527,107.07z"/>
					<path style="fill-rule:evenodd;clip-rule:evenodd;fill:#FFFFFF;" d="M339.064,106.66c3.281-14.022-11.328-25.262-19.955-24.095
						c0,0,3.223,3.103,6.457,6.569c1.535-0.585,2.992-1.132,2.834-1.105c-0.172,0.028-1.324,0.881-2.33,1.649
						c1.559,1.69,3.084,3.433,4.209,4.918l2.367-1.437l-1.979,1.963c0.217,0.298,0.414,0.585,0.586,0.855
						c0.611,0.951,1.312,1.979,2.041,3.007c1.121-0.731,2.398-1.638,2.398-1.638l-1.982,2.223
						C336.307,103.195,339.064,106.66,339.064,106.66z"/>
				</g>
				<path style="fill-rule:evenodd;clip-rule:evenodd;fill:#FFFFFF;" d="M342.08,112.902c0,0-0.027-6.107-0.061-6.043
					c-0.035,0.064-4.223,0.516-4.082,0.655c0.143,0.139,0.779,5.583,0.779,5.583L342.08,112.902z"/>
				<path style="fill-rule:evenodd;clip-rule:evenodd;fill:#FFFFFF;" d="M342.334,118.936l-0.02-6.806c0,0-4.049,0.311-3.979,0.411
					c0.07,0.1,0.639,6.182,0.639,6.182L342.334,118.936z"/>
				<path style="fill-rule:evenodd;clip-rule:evenodd;fill:#FFFFFF;" d="M342.453,124.99c0.004-0.122,0.148-6.715,0.148-6.715
					s-4.039,0.066-3.98,0.129c0.059,0.063,0.412,6.369,0.412,6.369L342.453,124.99z"/>
				<polygon style="fill-rule:evenodd;clip-rule:evenodd;fill:#FFFFFF;" points="342.258,131.617 342.697,124.596 338.789,124.424 
					338.664,131.151 				"/>
				<path style="fill-rule:evenodd;clip-rule:evenodd;fill:#FFFFFF;" d="M342.088,137.233c0.016-0.084,0.385-6.182,0.385-6.182
					l-3.918-0.271l-0.316,5.94L342.088,137.233z"/>
				<path style="fill-rule:evenodd;clip-rule:evenodd;fill:#FFFFFF;" d="M341.736,143.808c0.199-0.048,0.561-7.018,0.561-7.018
					l-4.201-0.435l-0.334,6.717L341.736,143.808z"/>
				<path style="fill-rule:evenodd;clip-rule:evenodd;fill:#FFFFFF;" d="M341.271,149.108c0.055-0.156,0.73-5.901,0.73-5.901
					l-4.426-0.422l-0.422,5.852L341.271,149.108z"/>
				<path style="fill-rule:evenodd;clip-rule:evenodd;fill:#FFFFFF;" d="M340.582,154.879c0.016-0.086,0.924-6.201,0.924-6.201
					s-4.533-0.45-4.475-0.387c0.059,0.062-0.727,5.841-0.727,5.841L340.582,154.879z"/>
				<path style="fill-rule:evenodd;clip-rule:evenodd;fill:#FFFFFF;" d="M339.287,161.309c0.109-0.033,1.58-6.896,1.58-6.896
					s-4.729-0.774-4.744-0.689s-1.18,6.557-1.18,6.557L339.287,161.309z"/>
				<path style="fill-rule:evenodd;clip-rule:evenodd;fill:#FFFFFF;" d="M338.051,166.998c0.078-0.144,1.707-6.271,1.707-6.271
					l-4.9-0.948l-1.141,5.946L338.051,166.998z"/>
				<path style="fill-rule:evenodd;clip-rule:evenodd;fill:#FFFFFF;" d="M336.51,172.737c0.043-0.193,1.953-6.322,1.953-6.322
					l-4.74-1.214l-1.555,5.824L336.51,172.737z"/>
				<path style="fill-rule:evenodd;clip-rule:evenodd;fill:#FFFFFF;" d="M334.428,178.958c0.07-0.241,2.51-6.608,2.51-6.608
					l-4.844-1.704l-1.998,5.955L334.428,178.958z"/>
				<path style="fill-rule:evenodd;clip-rule:evenodd;fill:#FFFFFF;" d="M332.172,184.929c0.104-0.19,2.715-6.528,2.715-6.528
					l-4.943-2.379l-2.082,6.562L332.172,184.929z"/>
				<path style="fill-rule:evenodd;clip-rule:evenodd;fill:#FFFFFF;" d="M329.178,190.995c0.094-0.228,3.545-6.853,3.545-6.853
					l-4.887-2.195l-2.68,6.177L329.178,190.995z"/>
				<polygon style="fill-rule:evenodd;clip-rule:evenodd;fill:#FFFFFF;" points="326.758,196.07 330.332,189.504 325.387,187.133 
					322.742,193.357 				"/>
				<path style="fill-rule:evenodd;clip-rule:evenodd;fill:#FFFFFF;" d="M320.197,198.144c0.135-0.24,2.799-5.737,2.799-5.737
					l4.617,2.513l-3.119,5.284L320.197,198.144z"/>
				<path style="fill-rule:evenodd;clip-rule:evenodd;fill:#FFFFFF;" d="M317.352,202.807c0.047-0.15,2.93-5.382,2.93-5.382
					l4.717,2.568l-3.543,5.046L317.352,202.807z"/>
				<path style="fill-rule:evenodd;clip-rule:evenodd;fill:#FFFFFF;" d="M317.547,201.49c-0.074,0.133-3.033,5.621-3.033,5.621
					l3.68,2.884l3.77-5.409L317.547,201.49z"/>
				<circle style="fill-rule:evenodd;clip-rule:evenodd;fill:#FFFFFF;" cx="341.518" cy="106.986" r="2.696"/>
				<circle style="fill-rule:evenodd;clip-rule:evenodd;fill:#FFFFFF;" cx="337.838" cy="104.186" r="2.696"/>
				<circle style="fill-rule:evenodd;clip-rule:evenodd;fill:#FFFFFF;" cx="337.049" cy="107.369" r="2.697"/>
			</g>
			<g>
				<g>
					<path style="fill-rule:evenodd;clip-rule:evenodd;fill:#FFFFFF;" d="M313.15,145.98
						c-13.168-45.587-45.178-92.604-45.178-92.604l-3.824,2.973c54.445,84.763,50.867,149.544,47.998,179.137l4.148,0.696
						l4.146,0.697C320.441,236.879,326.314,191.568,313.15,145.98z"/>
					<path style="fill-rule:evenodd;clip-rule:evenodd;fill:#FFFFFF;" d="M323.328,54.303l-17.891-0.706l-2.963-4.784l0.193,5.005
						c-5.6-1.296-12.037-1.921-18.008-1.89c-1.777-2.348-3.445-4.583-3.445-4.583l1.42,4.619c-6.506,0.203-12.25,1.218-15.434,3.028
						C263.27,37.543,303.654,35.543,323.328,54.303z"/>
					<path style="fill-rule:evenodd;clip-rule:evenodd;fill:#FFFFFF;" d="M323.217,23.906
						c-26.168-17.181-60.863,0.014-56.148,30.221l-0.006,0.012c0.068,0.432,0.115,0.726,0.139,0.855
						c3.414-5.998,6.848-11.476,16.818-18.761l-6.445-3.285l7.818,2.325c1.658-1.103,3.385-2.07,5.148-2.92
						c-2.643-1.56-7.24-4.266-7.609-4.423c-0.354-0.151,5.637,2.088,9.533,3.546c3.23-1.392,6.551-2.431,9.775-3.244
						c-3.211-2.051-9.477-6.038-9.939-6.235c-0.459-0.196,7.311,3.545,11.951,5.752C312.557,25.855,319.961,25.323,323.217,23.906z"
						/>
					<path style="fill-rule:evenodd;clip-rule:evenodd;fill:#FFFFFF;" d="M260.646,103.37l0.334-15.542l-4.58-2.844l4.961,0.458
						c-0.963-4.927-1.211-10.54-0.834-15.711c-2.229-1.675-4.354-3.25-4.354-3.25l4.508,1.499c0.578-5.625,1.92-10.543,3.902-13.196
						C247.475,50.368,243.148,85.239,260.646,103.37z"/>
					<path style="fill-rule:evenodd;clip-rule:evenodd;fill:#FFFFFF;" d="M267.201,54.994c-1.281-0.316-5.604-2.731-14.35-1.781
						c-31.334,3.404-18.703,40.884-18.824,40.61c1.871-10.18,3.961-13.699,7.365-19.024c-2.02-1.337-4.297-2.841-4.709-3.085
						c-0.412-0.244,2.99,1.077,5.43,2.041c1.766-2.49,3.668-4.681,5.66-6.623c-2.133-1.595-4.977-3.733-5.252-3.996
						c-0.277-0.263,3.473,1.619,6.27,3.029C255.787,59.734,260.074,57.636,267.201,54.994z"/>
					<path style="fill-rule:evenodd;clip-rule:evenodd;fill:#FFFFFF;" d="M267.201,54.994c-14.098-15.73-0.922-47.79,25.926-47.25
						c-5.256,4.096-9.234,8.413-12.393,13.004c-3.26-0.708-7.207-1.544-6.363-1.253c0.826,0.285,3.604,1.361,5.732,2.192
						c-1.617,2.458-3.012,4.993-4.252,7.616l-7.381,0.569l6.328,1.763c-1.148,2.665-2.164,5.417-3.111,8.266
						c-2.322-0.031-4.691,0.005-4.131,0.306c0.41,0.219,1.936,0.688,3.646,1.178C269.818,45.695,268.559,50.222,267.201,54.994z"/>
					<path style="fill-rule:evenodd;clip-rule:evenodd;fill:#FFFFFF;" d="M267.201,54.994
						c-14.893-17.003-49.441-6.365-58.797,11.083c2.182-0.581,12.741-3.357,18.262-5.2l-1.736-2.235l2.848,1.865
						c1.596-0.529,3.328-1.097,5.154-1.685l-2.145-3.273l4.152,2.631c1.479-0.47,3.006-0.95,4.568-1.431
						c0.975-0.301,1.977-0.564,2.992-0.794c-1.781-1.838-3.756-3.747-3.756-3.747s3.178,1.918,5.621,3.364
						C255.324,53.537,267.201,54.994,267.201,54.994z"/>
					<path style="fill-rule:evenodd;clip-rule:evenodd;fill:#FFFFFF;" d="M267.201,54.994C244.975,40.089,243.939,14.059,255.158,0
						c0,0,0.828,8.006,2.158,16.434c-2.531,1.529-4.92,2.987-4.709,2.792c0.23-0.213,2.717-0.899,4.922-1.476
						c0.668,4.086,1.449,8.177,2.307,11.418l-4.66,1.762l4.975-0.628c0.184,0.638,0.371,1.235,0.562,1.78
						c0.672,1.919,1.35,4.054,2.002,6.226c-2.277,0.778-4.98,1.586-4.98,1.586l5.35-0.348
						C265.346,47.243,267.201,54.994,267.201,54.994z"/>
					<path style="fill-rule:evenodd;clip-rule:evenodd;fill:#FFFFFF;" d="M264.539,55.603c-6.875-24.986-39.635-30.18-52.266-20.916
						c0,0,7.761,2.133,15.856,4.83c1.924-2.246,3.754-4.364,3.527-4.187c-0.248,0.193-1.332,2.532-2.264,4.612
						c3.92,1.33,7.828,2.773,10.885,4.152l2.504-4.307l-1.438,4.803c0.598,0.287,1.156,0.57,1.662,0.848
						c1.783,0.979,3.777,1.998,5.812,2.999c1.141-2.12,2.383-4.653,2.383-4.653l-1.223,5.219
						C257.199,52.499,264.539,55.603,264.539,55.603z"/>
				</g>
				<path style="fill-rule:evenodd;clip-rule:evenodd;fill:#FFFFFF;" d="M274.674,62.875c0,0-5.295-9.63-5.295-9.499
					c0,0.132-6.229,4.448-5.887,4.546c0.344,0.098,6.033,8.155,6.033,8.155L274.674,62.875z"/>
				<path style="fill-rule:evenodd;clip-rule:evenodd;fill:#FFFFFF;" d="M280.266,72.193l-5.885-10.74c0,0-6.131,3.973-5.936,4.071
					c0.197,0.098,6.328,9.22,6.328,9.22L280.266,72.193z"/>
				<path style="fill-rule:evenodd;clip-rule:evenodd;fill:#FFFFFF;" d="M285.66,81.658c-0.098-0.196-5.541-10.74-5.541-10.74
					s-6.326,3.58-6.18,3.629c0.146,0.049,6.131,9.71,6.131,9.71L285.66,81.658z"/>
				<polygon style="fill-rule:evenodd;clip-rule:evenodd;fill:#FFFFFF;" points="291.055,92.301 285.709,80.825 279.383,83.914 
					284.975,94.655 				"/>
				<path style="fill-rule:evenodd;clip-rule:evenodd;fill:#FFFFFF;" d="M295.615,101.324c-0.049-0.147-4.707-10.103-4.707-10.103
					l-6.426,2.942l4.611,9.662L295.615,101.324z"/>
				<path style="fill-rule:evenodd;clip-rule:evenodd;fill:#FFFFFF;" d="M300.717,112.016c0.273-0.247-5.15-11.574-5.15-11.574
					l-7.012,2.928l5.246,10.901L300.717,112.016z"/>
				<path style="fill-rule:evenodd;clip-rule:evenodd;fill:#FFFFFF;" d="M304.541,120.795c-0.049-0.295-3.922-9.956-3.922-9.956
					l-7.357,3.139l4.365,9.612L304.541,120.795z"/>
				<path style="fill-rule:evenodd;clip-rule:evenodd;fill:#FFFFFF;" d="M308.416,130.505c-0.049-0.147-3.875-10.593-3.875-10.593
					s-7.553,3.188-7.404,3.236c0.146,0.049,3.873,9.857,3.873,9.857L308.416,130.505z"/>
				<path style="fill-rule:evenodd;clip-rule:evenodd;fill:#FFFFFF;" d="M311.898,141.785c0.146-0.148-3.434-12.262-3.434-12.262
					s-8.141,2.845-8.092,2.992c0.049,0.146,3.775,11.376,3.775,11.376L311.898,141.785z"/>
				<path style="fill-rule:evenodd;clip-rule:evenodd;fill:#FFFFFF;" d="M314.84,151.838c0-0.294-2.697-11.377-2.697-11.377
					l-8.561,2.717l3.314,10.377L314.84,151.838z"/>
				<path style="fill-rule:evenodd;clip-rule:evenodd;fill:#FFFFFF;" d="M317.342,162.235c-0.098-0.343-2.352-11.673-2.352-11.673
					l-8.535,2.158l2.549,10.545L317.342,162.235z"/>
				<path style="fill-rule:evenodd;clip-rule:evenodd;fill:#FFFFFF;" d="M319.402,173.858c-0.1-0.441-1.717-12.604-1.717-12.604
					l-9.123,1.472l1.963,11.133H319.402z"/>
				<path style="fill-rule:evenodd;clip-rule:evenodd;fill:#FFFFFF;" d="M320.971,185.236c0-0.393-1.324-12.652-1.324-12.652
					l-9.857,0.49l2.354,12.162H320.971z"/>
				<path style="fill-rule:evenodd;clip-rule:evenodd;fill:#FFFFFF;" d="M321.461,197.398c-0.049-0.441-0.293-13.879-0.293-13.879
					l-9.613,0.736l1.078,12.064L321.461,197.398z"/>
				<polygon style="fill-rule:evenodd;clip-rule:evenodd;fill:#FFFFFF;" points="322,207.502 322,194.051 312.143,194.555 
					313.32,206.668 				"/>
				<path style="fill-rule:evenodd;clip-rule:evenodd;fill:#FFFFFF;" d="M313.414,216.422c0.006-0.494-0.512-11.477-0.512-11.477
					h9.459l-0.385,11.037L313.414,216.422z"/>
				<path style="fill-rule:evenodd;clip-rule:evenodd;fill:#FFFFFF;" d="M312.928,226.238c-0.057-0.273,0-11.023,0-11.023h9.666
					l-1.26,11.023H312.928z"/>
				<path style="fill-rule:evenodd;clip-rule:evenodd;fill:#FFFFFF;" d="M312.104,223.99c0,0.274,0.043,11.495,0.043,11.495
					l8.295,1.394l1.307-11.791L312.104,223.99z"/>
				<circle style="fill-rule:evenodd;clip-rule:evenodd;fill:#FFFFFF;" cx="268.696" cy="54.007" r="4.851"/>
				<circle style="fill-rule:evenodd;clip-rule:evenodd;fill:#FFFFFF;" cx="260.471" cy="52.748" r="4.852"/>
				<circle style="fill-rule:evenodd;clip-rule:evenodd;fill:#FFFFFF;" cx="261.963" cy="58.458" r="4.852"/>
			</g>
		</g>
		<g>
			<path style="fill:#FFFFFF;" d="M8.285,192.925c3.433,6.139,7.856,9.539,14.952,9.539c5.38,0,10.562-3.797,10.562-9.309
				c0-16.8-30.2-18.351-30.2-40.431c0-9.605,8.119-16.801,18.285-16.801c7.394,0,13.5,3.366,19.111,10.232l-7.129,5.742
				c-4.126-4.555-7.559-6.699-11.354-6.699c-4.456,0-8.582,2.441-8.582,7.953c0,13.863,30.432,17.527,30.432,38.749
				c0,11.717-8.12,20.069-21.322,20.069c-11.156,0-18.714-5.712-23.038-14.261L8.285,192.925z"/>
			<path style="fill:#FFFFFF;" d="M91.028,211.971c-20.992,0-38.023-17.032-38.023-38.023c0-20.992,17.031-38.023,38.023-38.023
				c20.992,0,38.023,17.031,38.023,38.023C129.051,194.938,112.02,211.971,91.028,211.971z M63.567,173.947
				c0,15.446,12.279,27.987,27.461,27.987c15.183,0,27.461-12.541,27.461-27.987c0-15.447-12.278-27.988-27.461-27.988
				C75.846,145.959,63.567,158.5,63.567,173.947z"/>
			<path style="fill:#FFFFFF;" d="M154.76,201.407h23.236v9.506h-33.798v-73.934h10.562V201.407z"/>
			<path style="fill:#FFFFFF;" d="M215.093,148.4c-4.225-4.521-8.021-6.833-12.311-6.833c-5.579,0-10.892,3.136-10.892,10.364
				c0,16.404,32.049,20.068,32.049,41.026c0,11.09-7.492,19.013-19.638,19.013c-10.463,0-17.527-5.052-21.587-12.774l5.149-2.938
				c3.697,6.303,8.615,9.803,16.603,9.803c6.831,0,13.07-4.852,13.07-11.98c0-19.21-31.851-20.696-31.851-42.61
				c0-8.812,7.328-15.547,16.371-15.547c6.8,0,12.344,2.904,17.461,8.912L215.093,148.4z"/>
			<path style="fill:#FFFFFF;" d="M373.85,136.979h6.369v67.299c-6.865,4.688-15.744,7.692-24.26,7.692
				c-16.701,0-29.572-4.854-29.572-28.287v-46.704h6.369v44.624c0,23.171,12.971,24.589,23.203,24.589
				c5.15,0,11.586-1.484,17.891-5.545V136.979z"/>
			<path style="fill:#FFFFFF;" d="M407.775,136.979v68.125h23.963v5.809h-30.299v-73.934H407.775z"/>
			<path style="fill:#FFFFFF;" d="M309.82,173.947c0,20.991-16.998,38.023-37.957,38.023c-20.926,0-37.957-17.032-37.957-38.023
				c0-20.959,17.031-38.023,37.957-38.023C292.822,135.924,309.82,152.988,309.82,173.947z M240.309,173.947
				c0,17.624,14.094,32.048,31.555,32.048s31.586-14.424,31.586-32.048c0-17.625-14.094-32.05-31.586-32.05
				C254.402,141.897,240.309,156.322,240.309,173.947z"/>
			<g>
				<path style="fill:#FFFFFF;" d="M431.684,137.599v7.247h-0.906v-7.247h-2.018v-0.82h4.938v0.82H431.684z"/>
				<path style="fill:#FFFFFF;" d="M438.072,145.076l-2.246-5.716l-1.275,5.485h-0.93l1.951-8.298l2.5,6.323l2.502-6.323
					l1.959,8.298h-0.936l-1.275-5.485L438.072,145.076z"/>
			</g>
		</g>
	</g>
</g>
<g id="Layer_1">
</g>
</svg>
