<?xml version="1.0" encoding="iso-8859-1"?>
<!-- Generator: Adobe Illustrator 16.0.0, SVG Export Plug-In . SVG Version: 6.00 Build 0)  -->
<!DOCTYPE svg PUBLIC "-//W3C//DTD SVG 1.1//EN" "http://www.w3.org/Graphics/SVG/1.1/DTD/svg11.dtd">
<svg version="1.1" xmlns="http://www.w3.org/2000/svg" xmlns:xlink="http://www.w3.org/1999/xlink" x="0px" y="0px"
	 width="442.533px" height="286.517px" viewBox="0 0 442.533 286.517" style="enable-background:new 0 0 442.533 286.517;"
	 xml:space="preserve">
<g id="palm_tree_4.5">
	<g>
		<g>
			<path style="fill:#FFFFFF;" d="M263.443,273.904c19.373-60.271-18.111-192.085-20.871-198.944
				c-2.758-6.853-8.867-17.701,1.996,0.111c23.822,39.055,38.01,172.374,30.764,197.787c-0.84,2.949-1.828,5.242-2.871,6.984
				l-9.736-1.532C262.715,276.986,262.932,275.501,263.443,273.904z"/>
			<path style="fill:#FFFFFF;" d="M267.277,282.898c-4.576-17.193,27.83-94.376,49.355-126.682
				c8.229-12.347,7.102-7.436,1.822,1.763c-34.871,60.786-47.062,108.861-38.867,128.537h-10.73
				C268.197,285.495,267.65,284.305,267.277,282.898z"/>
			<path style="fill:#FFFFFF;" d="M315.014,159.494c4.27-1.66,19.67-0.668,24.154-0.929c3.854-0.215,19.662,0.397,25.598,2.937
				c-3.391-0.577-9.277,0.443-10.135,0.587c7.068,0.145,12.863,2.153,15.844,3.99c-2.262-0.388-5.205-1.603-7.545-0.813
				c1.689,0.744,4.127,1.184,5.85,3.208c-1.754-0.606-3.963-0.313-4.986-0.39c2.875,1.174,6.398,3.258,8.486,5.493
				c-2.93-1.785-5.971-2.741-8.453-3.903c1.031,1.506,1.836,3.277,2.604,4.967c-1.436-1.678-3.092-3.191-4.91-4.516
				c1.105,1.354,1.102,4.93-0.133,5.713c0.266-2.377-0.209-4.067-1.164-5.793c-0.627-1.103-0.498,2.02-3.951,2.293
				c1.662-1.022,2.908-3.07,2.656-4.654c-1.564,2.482-5.166,3.499-7.336,3.381c1.32-0.945,2.77-1.775,2.441-4.605
				c-0.98,0.747-0.986,2.521-3.125,2.979c0.617-2.352-0.656-3.597-2.557-4.147c1.295,1.895,1.168,3.714,0.318,6.084
				c-0.377-2.273-1.465-3.836-3.043-5.036c0.197,1.847,0.334,3.64-0.777,5.502c-0.211-2.144-0.602-4.666-2.723-6.03
				c0.979,1.31,0.73,3.73,0.373,4.445c-0.396-1.293-0.402-2.526-1.777-3.459c0.502,0.965,0.674,1.76-0.221,2.897
				c-0.18-2.021-3.635-4.778-3.189-3.976c0.943,1.678,0.07,3.496-1,4.067c0.811-2.44-1.346-3.675-2.922-4.625
				c-0.031,0.347,0.311,1.483-0.131,2.399c-0.795-1.359-2.311-2.324-3.299-3.094c0.631,1.154,0.473,3.374-1.115,4.244
				c0.887-2.375-0.086-3.42-0.863-4.764c-0.738-0.503-1.908,1.066-2.26,3.051c-1.17-4.982-7.369-5.222-9.51-4.894
				C314.082,162.438,310.75,161.146,315.014,159.494z"/>
			<path style="fill:#FFFFFF;" d="M312.365,221.153c1.826-4.318,1.916-8.899,1.426-10.929c-0.6,4.469-2.334,6.528-4.162,8.547
				c0.93-2.122,2.891-5.826,2.604-9.266c-1.48,3.943-4.951,8.295-7.613,8.636c1.756-1.655,3.281-3.663,4.102-4.929
				c-0.953,0.886-3.342,2.317-4.422,2.138c2.422-1.767,3.885-3.991,5.289-6.816c-2.373,2.635-5.039,3.849-6.748,4.495
				c2.551-1.759,5.447-5.465,5.906-7.416c-2.828,2.482-6.709,4.246-9.762,2.832c4.143-1.02,7.398-4.123,9.562-8.154
				c-1.461,0.78-3.381,0.936-4.295,0.647c1.996-1.133,4.355-3.988,5.594-6.146c-0.568,0.434-1.736,0.929-2.627,1.159
				c1.287-1.382,2.238-1.965,3.127-4.112c-1.039,0.513-2.578,1.308-3.396,1.256c1.502-1.237,3.949-4.448,5.043-6.678
				c-1.098,1.274-2.535,1.541-3.178,1.599c1.859-1.596,3.334-5.212,4.48-7.202c-1.396,1.311-2.496,1.894-3.381,1.682
				c2.715-2.253,3.895-8.114,4.66-10.765c0.721-2.485,1.359-7.791,2.93-3.27C319.012,172.811,325.248,197.308,312.365,221.153z"/>
			<path style="fill:#FFFFFF;" d="M258.184,153.109c4.008-0.812,8.242,0.261,10.105,1.287c-4.129-0.51-6.051,0.772-7.908,2.164
				c1.955-0.424,5.389-1.53,8.557-0.381c-3.645,0.559-7.672,3.076-8.006,5.766c1.537-1.412,3.402-2.5,4.58-3.01
				c-0.822,0.767-2.15,2.885-2.016,4.055c1.658-2.102,3.715-3.055,6.352-3.793c-2.459,1.808-3.598,4.27-4.211,5.891
				c1.654-2.22,5.09-4.303,6.889-4.267c-2.307,2.316-3.951,5.9-2.666,9.442c0.973-4.055,3.857-6.657,7.58-7.887
				c-0.729,1.309-0.869,3.284-0.623,4.303c1.08-1.799,3.725-3.541,5.74-4.271c-0.422,0.479-0.893,1.559-1.092,2.436
				c1.262-0.986,1.818-1.834,3.805-2.225c-0.473,0.961-1.221,2.363-1.174,3.229c1.154-1.256,4.133-2.99,6.207-3.557
				c-1.201,0.803-1.447,2.226-1.504,2.917c1.502-1.547,4.838-2.182,6.676-2.87c-1.207,1.138-1.752,2.135-1.555,3.106
				c2.09-2.26,7.52-2.004,9.963-2.129c2.312-0.118,7.203,0.542,3.053-2.221C302.9,158.422,280.275,145.712,258.184,153.109z"/>
			<path style="fill:#FFFFFF;" d="M321.133,162.525c-26.178,5.54-36.742,15.016-41.135,20.327
				c-2.549,3.093-7.586,8.406-6.988,12.989c1.531-3.062,3.426-5.892,6.004-8.082c-2.746,6.147-2.973,10.658,0.281,14.691
				c-0.18-2.303-1.109-4.34-0.219-6.146c0.293,3.319,2.465,8.172,6.473,12.225c-0.857-2.067-2.301-4.968-1.818-8.047
				c0.568,2.31,2.424,4.347,3.102,5.475c-1.893-4.077-1.949-9.014-1.463-11.98c0.156,1.615,0.98,3.627,1.902,4.548
				c-0.57-1.925,0.004-6.587,0.434-8.481c0.539,1.555,1.211,2.699,2.773,3.542c-1.305-1.87-1.281-5.316-0.201-7.394
				c0.184,2.434,0.857,4.09,2.854,5.979c-1.227-3.185-2.248-8.319-0.809-12.417c0.727,4.486,1.887,8.454,4.361,11.477
				c-0.971-3.436-1.363-8.61-0.018-11.643c0.971,3.446,2.744,7.393,5.408,10.188c-1.496-3.706-2.645-9.546-1.865-12.669
				c0.145,1.92,1.639,4.854,3.662,7.266c-0.709-2.949-1.396-5.361,0.025-7.82c0.42,1.674,1.227,2.931,2.422,4.338
				c0.418-9.225,5.625-11.346,6.873-12.96c-2.24,2.905-3.518,6.27-2.846,8.425c2.439-6.822,8.23-8.404,10.182-9.295
				C325.775,164.665,331.246,160.387,321.133,162.525z"/>
			<path style="fill:#FFFFFF;" d="M314.787,160.304c9.232-25.632,5.713-39.182,2.881-45.425c-1.654-3.634-4.146-10.43-9.068-11.946
				c2.217,2.73,3.984,5.646,4.715,8.898c-4.604-5.157-8.982-7.357-14.863-6.254c2.404,0.853,4.979,0.933,6.277,2.521
				c-3.504-1.214-9.568-1.446-15.893,0.297c2.555,0.185,6.271,0.169,9.088,1.971c-2.609-0.524-5.711,0.219-7.23,0.325
				c5.148,0.116,10.102,2.27,12.818,4.009c-1.719-0.576-4.189-0.743-5.643-0.321c2.256,0.342,6.602,2.921,8.262,4.117
				c-1.859-0.186-3.387-0.112-5.123,0.907c2.623-0.336,6.049,1.237,7.514,3.096c-2.533-0.924-4.566-1.06-7.598-0.146
				c3.875,0.344,9.602,1.724,12.873,4.812c-4.871-1.36-9.492-2.089-13.941-1.243c3.99,0.681,9.4,2.62,11.672,5.155
				c-4-0.661-8.943-0.854-13.25,0.278c4.562,0.297,11.049,1.9,13.732,3.961c-2.008-0.725-5.773-0.703-9.314,0.004
				c3.326,0.687,6.139,1.151,7.787,3.501c-1.891-0.373-3.627-0.218-5.697,0.228c8.996,4.456,4.814,5.926,2.254,5.57
				c5.455,5.173,3.77,10.999,3.572,13.122C310.041,163.454,311.232,170.201,314.787,160.304z"/>
			<path style="fill:#FFFFFF;" d="M307.785,163.383c-2.979-0.429-20.311-1.381-28.756,2.149c-4.328,1.835-8.193,3.647-12.27,6.162
				c-4.504,2.784-6.791,8.807-10.723,11.563c3.469-1.085,5.709-3.944,8.42-6.371c-2.408,4.49-6.469,12.193-9.385,15.877
				c5.561-2.825,8.566-10.82,12.084-15.179c-0.391,3.209-1.283,5.792-3.795,11.739c2.928-3.199,4.176-6.834,5.107-8.545
				c0.371,1.725,0.012,3.613-0.734,5.066c2.967-2.689,3.986-7.494,4.531-10.707c1.137,3.635,0.486,8.07-0.633,10.652
				c3.336-4.48,2.633-9.768,4.299-12.172c0.42,1.942-0.021,6.782-0.637,9.592c1.363-2.446,2.969-5.158,3.49-8.85
				c0.322,1.916,0.172,3.041-0.164,4.793c1.389-1.301,3.324-5.105,3.193-7.121c0.523,2.234-0.98,4.63-0.607,8.273
				c0.438-1.935,2.402-6.146,5.361-8.836c-0.395,2.043-0.83,3.578-0.873,5.559c1.152-1.679,2.854-5.146,2.92-6.174
				c0.262,0.474,1.035,2.419,0.646,3.797c1.582-1.399,2.049-2.877,2.477-4.047c0.271,0.494,0.719,1.031,0.949,1.428
				c2.188-1.025,3.49-2.66,4.859-4.615c0.289,0.679-0.637,2.139-0.371,2.709c5.664-4.447,9.645-3.717,12.697-3.423
				C313.84,167.087,313.625,164.224,307.785,163.383z"/>
			<path style="fill:#FFFFFF;" d="M321.912,166.098c1.25,5.539,7.398,17.793,10.023,25.152c1.359,3.802,2.828,7.336,4.861,10.746
				c1.752,2.96,3.455,6.709,5.926,10.144c-2.328-1.3-3.775-2.761-6.018-3.854c0.781,3.797,1.725,5.37,3.004,8.57
				c-2.322-1.606-4.16-4.867-5.184-6.939c0.711,4.26,0.223,9.018-1.783,11.756c0.582-4.299,0.736-9.029,0.113-13.362
				c-0.994,4.182-1.744,7.045-4.516,9.286c1.287-1.886,1.836-4.744,1.939-6.655c-1.297,1.707-2.795,3.696-4.271,5.893
				c0.375-2.961,2.178-6.222,3.707-8.769c-1.996,2.443-3.756,4.531-6.059,5.149c1.959-1.716,4-4.882,5.139-6.837
				c-1.701,1.609-3.66,3.643-5.275,3.726c1.658-1.285,3.295-3.695,4.211-5.606c-1.686,1.174-4.387,3.154-5.732,5.477
				c0.367-2.77,2.938-6.926,5.049-8.795c-1.385,0.661-2.803,1.335-3.998,2.915c0.477-1.272,1.027-3.04,2.123-4.503
				c-1.752,0.818-2.441,1.659-4.121,3.523c0.406-2.979,2.729-5.434,3.383-9.214c-1.004,0.712-2.193,1.887-2.967,2.806
				c0.211-1.555,1.166-4.217,1.99-5.518c-0.551,0.338-1.229,0.66-1.824,1.593c0.014-2.548,1.705-5.303,2.146-7.838
				c-0.617,0.478-2.455,2.47-3.635,3.337c1.809-2.959,2.787-5.878,2.637-9.514c-0.729,0.83-1.643,3.128-2.188,3.999
				c0.848-5.662-1.139-9.487-2.262-14.368C317.467,164.675,320.678,160.576,321.912,166.098z"/>
			<path style="fill:#FFFFFF;" d="M312.939,164.07c-3.303-10.743-12.666-24.749-16.824-28.783
				c-5.129-4.979-5.412-8.974-10.051-11.82c0.709,2.275,1.764,4.33,1.6,5.737c-2.512-2.249-4.381-4.931-6.354-6.25
				c0.857,1.362,1.922,3.086,2.273,4.476c-2.344-2.325-5.947-3.781-8.98-3.494c2.604,1.271,5.27,2.535,6.674,5
				c-3.033-0.775-8.229-3.766-12.949-1.097c2.01-0.403,5.227,1.582,7.105,2.535c-5.648-1.324-9.092-0.389-12.029,0.322
				c3.371-0.009,6.723,1.223,9.391,1.824c-2.756-0.138-8.258,0.498-11.451,4.257c2.824-1.564,6.842-2.069,8.492-1.823
				c-2.797,1.265-4.654,3.159-5.051,4.454c1.352-0.322,2.596-0.431,3.482,0.19c-0.893,2.577-3.748,4.536-3.373,4.271
				c3.428-1.283,6.371-3.738,9.004-5.876c-0.744,2-2.156,4.292-3.691,6.194c2.49-1.255,3.602-1.802,5.119-3.713
				c-0.539,1.618-1.123,3.293-0.998,4.562c2.219-4.403,6.076-3.399,8.037-6.01c-0.182,0.972-0.766,2.301-1.297,3.276
				c1.41-1.17,2.416-2.716,4.49-2.609c-0.123,2.315-1.924,4.418-3.225,5.6c1.953-0.714,4.611-1.865,7.217-2.451
				c-0.715,1.067-2.957,2.924-3.637,3.964c0.609-0.342,2.773-1.218,3.498-1.319c-0.064,0.492-1.916,1.754-1.854,2.22
				c2.15-0.649,3.428-0.3,5.178-0.227c-0.111,0.776-2.068,2.071-1.213,1.935c1.439-0.209,3.338,0.766,3.896,0.628
				c2.549-0.665,1.205,1.171,0.311,3.104c0.838,0.233,1.871-0.135,2.699-0.497c0.316,0.825-0.758,1.706-0.395,2.497
				c0.975,0.018,1.59,0.128,2.457,0.61c0.562,0.337,7.32,5.146,8.064,8.571C309.533,168.83,314.209,168.18,312.939,164.07z"/>
			<path style="fill:#FFFFFF;" d="M314.068,160.98c3.598-9.394,12.262-20.418,15.922-23.264c4.484-3.468,5.07-7.193,8.998-8.774
				c-0.783,1.983-1.812,3.697-1.807,5.068c2.207-1.535,3.91-3.647,5.578-4.396c-0.783,1.083-1.787,2.456-2.188,3.691
				c2.047-1.625,5.027-2.146,7.369-1.125c-2.152,0.569-4.355,1.123-5.697,3.122c2.473,0.016,6.834-1.557,10.291,2.109
				c-1.549-0.857-4.252,0.252-5.82,0.69c4.564,0.123,7.197,1.845,9.461,3.238c-2.684-0.822-5.424-0.491-7.594-0.574
				c2.195,0.561,6.473,2.497,8.637,6.844c-2.07-2.168-5.188-3.642-6.527-3.788c2.092,1.874,3.369,4.143,3.576,5.462
				c-1.027-0.658-2.004-1.056-2.768-0.668c0.461,2.653,2.543,5.208,2.268,4.854c-2.566-2.047-4.68-5.081-6.553-7.759
				c0.412,2.077,1.309,4.601,2.344,6.792c-1.844-1.81-2.668-2.6-3.701-4.781c0.301,1.666,0.582,3.396,0.381,4.578
				c-1.359-4.735-4.477-4.697-5.779-7.667c0.059,0.966,0.389,2.364,0.719,3.419c-0.996-1.451-1.656-3.162-3.283-3.566
				c-0.121,2.243,1.096,4.67,2.004,6.096c-1.467-1.151-3.451-2.887-5.447-4.045c0.459,1.153,2.049,3.467,2.49,4.629
				c-0.434-0.472-2.082-1.838-2.631-2.104c0.021,0.472,1.35,2.115,1.254,2.554c-1.625-1.139-2.676-1.118-4.061-1.476
				c0.023,0.76,1.453,2.479,0.783,2.145c-1.107-0.565-2.699-0.085-3.119-0.363c-1.961-1.254-1.068,0.834-0.523,2.879
				c-0.697,0.01-1.465-0.578-2.088-1.132c-0.326,0.703,0.42,1.792,0.068,2.478c-0.768-0.229-1.242-0.284-1.979-0.017
				c-0.48,0.161-6.242,3.101-7.15,6.161C316.303,166.33,312.705,164.592,314.068,160.98z"/>
			<path style="fill:#FFFFFF;" d="M316.182,169.21c21.088-8.694,33.857,6.28,42.609,8.38c-0.66,0.076-3.484-0.086-4.256-0.176
				c6.881,3.828,18.078,20.881,15.789,32.514c-0.436-3.392-0.307-7.086-2.854-10.122c0.162,1.282,0.057,2.513-0.783,3.756
				c0.17-2.163-1.773-7.836-3.061-8.423c0.027,1.254,0.496,3.074-0.068,3.732c-0.473-3.211-2.242-7.643-3.244-5.474
				c-0.488-2.462-1.352-5.759-2.586-7.821c0.621,2.254,0.297,3.125-0.318,4.732c0.195-2.311-3.068-6.486-3.736-7.934
				c-0.244,3.245-1.156,3.53-1.635,6.814c-0.047-2.765-2.496-7.64-4.223-7.738c-1.719-0.096-1.623,3.524-1.502,5.352
				c-1.15-0.935-1.787-3.199-2.213-4.547c-0.221,1.164-0.629,2.52-1.125,3.433c-0.018-1.51-0.293-3.146-0.775-4.246
				c-0.402,0.888-0.867,2.007-1.352,2.677c-0.58-1.465-0.303-3.312-1.449-4.557c-0.809-0.854-1.498,2.316-1.955,1.18
				c-1.316-3.234-3.213-4.359-4.689-4.977c-2.811-1.186-9.826-6.314-16.703-2.509C313.387,174.744,309.611,171.93,316.182,169.21z"
				/>
			<path style="fill:#FFFFFF;" d="M345.02,192.549c1.385,2.072,7.146,5.042,8.889,11.194c-1.926-2.88-3.82-3.617-4.629-4.597
				c4.23,6.471,4.566,9.541,4.6,12.529c-0.684-1.768-1.533-3.713-2.311-4.192c1.066,2.716,0.98,6,0.527,9.072
				c-0.164-1.255-0.793-1.882-1.145-2.154c0.271,3.998-2.529,8.658-2.832,9.623c0.596-3.473,0.881-7.995,0.584-12.261
				c-1.057,2.406-2.52,3.931-4.082,4.73c1.412-2.027,2.695-5.231,3.27-7.119c-1.471,1.902-3.092,3.268-4.541,4.346
				c0.922-1.625,1.949-3.157,2.369-4.826c-0.283,0.155-2.182,1.027-2.486,1.102c0.375-1.066,1.293-2.428,1.359-3.69
				c-0.359-0.086-1.449,0.222-2.137,1.186c0.242-2.051,1.117-4.627,2.281-6.364c-2.074,0.621-4.449,2.818-5.979,4.188
				c0.58-1.993,1.656-3.857,2.236-5.867c-0.842-0.174-2.336,1.122-3.148,1.436c0.338-1.251,0.887-2.467,1.242-3.714
				c-0.766,0.569-2.035,1.531-2.4,1.579c0.832-1.748,2.748-6.276,2.092-6.082c-1.553,0.43-3.271,1.723-4.182,2.039
				c1.25-2.034,1.824-4.383,1.414-5.9c-1.619,0.289-2.25,1.402-3.342,2.941c0.129-1.733,0.637-4.089,0.209-5.052
				c-0.281,0.122-1.221,0.817-1.717,1.608c-0.092-0.964,1.148-3.131,0.529-3.898c-0.758-0.91-4.512-9.731-10.734-12.966
				c-3.908-2.027-0.402-4.016,3.684-1.261C332.336,175.342,339.9,184.962,345.02,192.549z"/>
			<path style="fill:#FFFFFF;" d="M349.148,147.091c2.543-0.589,7.625-4.917,14.205-4.425c-3.52,0.806-4.936,2.311-6.195,2.729
				c7.857-1.677,10.967-0.937,13.838,0.066c-1.961,0.015-4.146,0.131-4.922,0.701c3.031-0.051,6.176,1.172,8.941,2.665
				c-1.258-0.287-2.113,0.089-2.506,0.3c3.961,1.152,7.375,5.38,8.199,6.003c-3.125-1.765-7.389-3.61-11.604-4.813
				c1.904,1.814,2.836,3.723,2.998,5.461c-1.441-2.01-4.018-4.325-5.619-5.521c1.266,2.026,1.979,4.014,2.447,5.737
				c-1.215-1.393-2.303-2.916-3.742-3.882c0.045,0.31,0.139,2.38,0.105,2.692c-0.887-0.711-1.846-2.045-3.037-2.545
				c-0.221,0.304-0.342,1.439,0.314,2.408c-1.889-0.936-4.02-2.648-5.244-4.336c-0.195,2.139,1,5.129,1.729,7.029
				c-1.699-1.229-3.07-2.895-4.793-4.119c-0.486,0.717,0.178,2.567,0.166,3.422c-1.068-0.74-2.031-1.672-3.115-2.438
				c0.264,0.914,0.711,2.414,0.613,2.779c-1.359-1.389-5-4.738-5.064-4.062c-0.172,1.608,0.4,3.658,0.352,4.61
				c-1.463-1.885-3.525-3.224-5.129-3.368c-0.336,1.629,0.502,2.581,1.543,4.143c-1.629-0.723-3.701-2.019-4.783-1.955
				c0.016,0.322,0.318,1.42,0.883,2.171c-0.949-0.253-2.586-2.187-3.561-1.845c-1.17,0.398-11.113,0.811-16.619,5.498
				c-3.465,2.959-4.021-1.02,0.182-3.875C327.693,152.94,339.863,149.225,349.148,147.091z"/>
			<path style="fill:#FFFFFF;" d="M319.586,154.465c1.24-4.815,6.834-18.492,14.725-24.427c5.719-4.296,14.277-4.846,17.463-0.526
				c-0.205-2.515-2.805-4.681-4.416-4.941c1.471-0.604,2.662-0.818,3.99-0.353c-0.42-1.057-2.748-1.379-4.236-1.044
				c2.576-2.615,7.379-2.02,9.568,0.489c-1.068-3.6-4.545-4.668-7.092-4.208c2.248-1.528,5.281-1.614,7.781-0.981
				c-0.684-1.172-3.252-2.526-5.73-2.362c2.424-1.163,4.443-1.885,6.643-1.596c-2.283-1.153-4.998-1.293-9.916,0.946
				c0.639-1.706,5.242-3.528,6.975-3.589c-3.195-0.447-7.936-0.806-16.271,4.39c1.299-2.16,4.961-4.825,8.318-5.99
				c-4.232-0.021-8.342,2.174-13.307,6.432c0.023-2.314,2.785-4.694,4.85-6.774c-7.662,5.19-12.129,10.233-14.607,18.53
				c-0.566-2.592,0.68-4.827,1.689-6.999c-3.238,4.339-8.254,19.436-8.646,26.751C316.9,157.066,318.365,159.283,319.586,154.465z"
				/>
			<path style="fill:#FFFFFF;" d="M335.189,125.664c-5.324,4.712-8.832,14.669-10.332,19.976c0.537-2.823,1.26-5.891,2.137-8.822
				c-3.064,4.947-7.215,19.395-8.094,25.964c9.141-19.902,17.377-32.827,24.709-41.634c2.445-2.95,4.197-6.191,8.125-10.404
				c-3.17,1.74-5.934,6.671-7.549,8.837c0.078-0.302,0.949-2.996,3.268-6.039c-3.469,2.723-5.703,8.018-8.646,12.123
				c3.271-5.625,4.301-8.106,4.602-10.217c-0.303,1.833-7.301,12.136-8.121,13.963c0.186-2.536,2.682-6.236,3.939-8.129
				c-3.178,3.619-6.609,8.965-8.221,12.953C331.602,131.296,333.205,128.584,335.189,125.664z"/>
			<path style="fill:#FFFFFF;" d="M351.123,124.094c-7.178,1.664-14.98,8.681-18.787,12.595c1.777-2.198,3.84-4.522,5.986-6.662
				c-5.139,2.889-15.564,13.504-19.348,18.779c17.629-13.07,31.266-20.521,42.189-24.82c3.652-1.448,6.771-3.46,12.395-5.329
				c-3.797,0.077-8.631,3.089-11.141,4.233c0.207-0.226,2.246-2.158,5.82-3.741c-4.529,0.781-9.031,4.35-13.668,6.569
				c5.639-3.384,7.729-5.061,8.961-6.75c-1.107,1.45-12.391,7.189-13.992,8.401c1.316-2.108,5.352-4.179,7.398-5.248
				c-4.65,1.695-10.312,4.767-13.633,7.483C345.184,127.336,347.924,125.72,351.123,124.094z"/>
			<path style="fill:#FFFFFF;" d="M324.521,114.146c1.582,7.006-1.514,16.888-3.484,21.92c1.264-2.511,2.52-5.324,3.562-8.137
				c-0.441,5.751-5.732,19.493-8.969,25.102c4.43-21.111,5.393-36.282,4.617-47.711c-0.246-3.82,0.252-7.433-0.465-13.163
				c1.586,3.358,0.896,8.899,0.934,11.592c0.115-0.286,1.021-2.906,0.93-6.721c1.246,4.301-0.092,9.789-0.133,14.814
				c0.684-6.4,1.32-8.96,2.354-10.771c-0.863,1.597-1.268,13.963-1.689,15.896c1.379-2.069,1.537-6.501,1.635-8.76
				c0.461,4.805,0.084,11.098-0.992,15.183C324.104,120.757,324.412,117.659,324.521,114.146z"/>
			<path style="fill:#FFFFFF;" d="M331.406,123.261c-0.307,7.169-5.889,15.958-9.109,20.341c1.881-2.117,3.826-4.534,5.574-6.995
				c-1.932,5.458-10.641,17.436-15.246,22.06c9.812-19.319,14.717-33.754,16.963-44.995c0.758-3.761,2.193-7.125,2.994-12.848
				c0.656,3.638-1.455,8.829-2.129,11.44c0.184-0.242,1.748-2.559,2.658-6.267c0.076,4.468-2.654,9.444-4.012,14.295
				c2.336-6.026,3.629-8.344,5.102-9.839c-1.254,1.331-4.883,13.191-5.801,14.954c1.879-1.661,3.193-5.904,3.879-8.064
				c-0.812,4.758-2.83,10.751-4.939,14.438C329.271,129.546,330.385,126.628,331.406,123.261z"/>
			<path style="fill:#FFFFFF;" d="M322.283,109.762c-4.041,5.997-4.771,16.302-4.779,21.686c-0.264-2.78-0.398-5.843-0.344-8.833
				c-1.701,5.525-1.799,20.198-0.828,26.561c3.605-21.259,8.275-35.771,13.189-46.18c1.635-3.483,2.486-7.029,5.26-12.133
				c-2.711,2.583-4.104,8-5.125,10.501c-0.002-0.304,0.113-3.068,1.596-6.598c-2.738,3.585-3.502,9.178-5.307,13.89
				c1.711-6.221,2.055-8.833,1.752-10.887c0.223,1.796-3.941,13.49-4.252,15.444c-0.527-2.415,0.947-6.611,1.684-8.753
				c-2.189,4.326-4.146,10.339-4.643,14.532C320.254,116.082,321.107,113.081,322.283,109.762z"/>
			<path style="fill:#FFFFFF;" d="M239.115,66.592c-0.988-5.199-11.713-19.533-14.277-24.054
				c-2.215-3.882-12.819-18.854-19.176-23.026c2.728,2.939,5.393,9.295,5.783,10.229c-4.604-6.786-10.33-11.146-14.097-12.884
				c1.819,1.956,4.931,4.047,5.583,6.814c-1.823-1.164-3.81-3.265-6.982-3.654c1.735,1.318,2.825,3.652,3.539,4.6
				c-3.016-2.057-7.39-4.168-11.004-4.782c3.687,1.716,6.594,4.072,9.351,5.749c-2.193-0.051-4.531,0.282-6.747,0.606
				c2.63,0.339,5.233,0.993,7.743,1.924c-2.096-0.221-5.775,2.035-5.801,3.729c2.288-1.756,4.322-2.364,6.7-2.527
				c1.531-0.085-1.765,1.757,0.135,5.291c0.004-2.26,1.326-4.762,3.111-5.521c-1.57,3.091-0.341,7.227,1.157,9.261
				c0.135-1.884,0.08-3.813,3.195-5.27c-0.156,1.417-1.979,2.539-1.095,4.912c2.028-2.082,4.116-1.632,5.885-0.133
				c-2.775-0.058-4.569,1.21-6.467,3.529c2.576-1.074,4.877-1.001,7.104-0.22c-2.024,0.977-3.958,1.964-5.17,4.228
				c2.337-1.153,5.178-2.363,7.923-1.164c-1.963-0.123-4.306,1.645-4.814,2.447c1.585-0.436,2.854-1.208,4.677-0.46
				c-1.304,0.119-2.232,0.456-2.838,2.047c2.195-1.105,7.207,0.516,6.105,0.581c-2.324,0.151-3.64,2.142-3.559,3.541
				c2.01-2.315,4.635-1.008,6.607-0.073c-0.339,0.244-1.719,0.634-2.385,1.636c1.901-0.091,3.855,0.778,5.259,1.251
				c-1.586,0.118-3.766,1.678-3.661,3.769c1.889-2.368,3.571-2.074,5.452-2.177c0.984,0.408,0.107,2.54-1.717,4.123
				c5.867-2.002,10.02,3.871,11.035,6.156C236.674,69.353,240.107,71.774,239.115,66.592z"/>
			<path style="fill:#FFFFFF;" d="M221.761,134.374c-0.391-5.508,1.258-10.683,2.59-12.787c-1.037,5.234,0.115,8.176,1.398,11.098
				c-0.242-2.713-1.02-7.581,0.611-11.332c0.16,4.955,2.395,11.094,5.244,12.435c-1.328-2.494-2.277-5.294-2.711-7.01
				c0.73,1.333,2.867,3.806,4.145,4.001c-2.049-2.865-2.838-5.894-3.33-9.569c1.654,3.817,4.184,6.146,5.854,7.493
				c-2.184-2.902-4.018-8.105-3.777-10.469c2.213,3.813,5.893,7.191,9.863,6.716c-4.254-2.644-6.727-7.308-7.613-12.614
				c1.338,1.403,3.438,2.277,4.572,2.283c-1.805-1.999-3.359-6.055-3.92-8.926c0.471,0.695,1.58,1.672,2.5,2.247
				c-0.93-2.012-1.76-3.01-1.934-5.741c0.969,0.952,2.391,2.392,3.33,2.633c-1.207-1.931-2.732-6.415-3.102-9.317
				c0.742,1.833,2.25,2.648,2.951,2.949c-1.473-2.47-1.744-7.061-2.266-9.698c1.072,1.967,2.074,3.017,3.143,3.098
				c-2.186-3.512-1.262-10.514-1.107-13.763c0.15-3.053,1.453-9.243-2.037-4.734C232.811,77.701,216.425,102.948,221.761,134.374z"
				/>
			<path style="fill:#FFFFFF;" d="M297.584,47.802c-4.816-0.353-9.617,1.542-11.639,3.02c4.754-1.217,7.217-0.003,9.607,1.357
				c-2.355-0.208-6.553-0.993-10.09,0.829c4.361,0.113,9.479,2.465,10.293,5.565c-2.025-1.423-4.381-2.426-5.844-2.852
				c1.088,0.787,2.986,3.067,3.004,4.459c-2.27-2.213-4.842-3.025-8.051-3.501c3.174,1.752,4.898,4.475,5.865,6.28
				c-2.283-2.351-6.643-4.284-8.746-3.981c3.066,2.377,5.566,6.332,4.619,10.684c-1.777-4.612-5.57-7.236-10.139-8.123
				c1.064,1.431,1.541,3.715,1.408,4.948c-1.541-1.942-4.92-3.59-7.398-4.152c0.57,0.5,1.295,1.701,1.67,2.693
				c-1.637-0.968-2.426-1.885-4.82-2.034c0.717,1.053,1.805,2.589,1.885,3.603c-1.547-1.294-5.311-2.884-7.83-3.25
				c1.529,0.767,2.047,2.401,2.219,3.195c-1.996-1.585-6.018-1.836-8.275-2.369c1.588,1.155,2.383,2.236,2.305,3.411
				c-2.799-2.342-9.127-1.236-12.006-1.019c-2.738,0.205-8.373,1.721-3.939-2.153C245.992,60.689,270.521,42.423,297.584,47.802z"/>
			<path style="fill:#FFFFFF;" d="M247.893,67.051c-31.283,4.906-44.383,15.435-49.923,21.435c-3.219,3.49-9.51,9.45-9.107,14.902
				c2.015-3.52,4.428-6.753,7.623-9.167c-3.643,7.08-4.212,12.396-0.636,17.363c-0.061-2.732-1.028-5.191,0.147-7.273
				c0.121,3.941,2.365,9.801,6.832,14.839c-0.871-2.495-2.389-6.013-1.616-9.619c0.522,2.755,2.572,5.286,3.304,6.658
				c-1.963-4.932-1.707-10.763-0.945-14.237c0.084,1.916,0.928,4.345,1.953,5.492c-0.535-2.309,0.444-7.779,1.069-9.989
				c0.539,1.868,1.263,3.26,3.051,4.358c-1.424-2.298-1.169-6.364,0.252-8.742c0.051,2.883,0.738,4.876,2.966,7.239
				c-1.227-3.839-2.098-9.968-0.123-14.713c0.553,5.336,1.662,10.096,4.383,13.827c-0.918-4.119-1.041-10.259,0.753-13.753
				c0.918,4.127,2.74,8.903,5.704,12.366c-1.516-4.468-2.482-11.438-1.361-15.072c0.047,2.274,1.615,5.835,3.84,8.808
				c-0.637-3.532-1.291-6.42,0.545-9.231c0.385,1.999,1.254,3.534,2.58,5.267c1.107-10.867,7.393-13.044,8.969-14.873
				c-2.834,3.295-4.564,7.184-3.912,9.77c3.326-7.902,10.273-9.405,12.637-10.335C253.225,69.863,259.979,65.158,247.893,67.051z"/>
			<path style="fill:#FFFFFF;" d="M237.375,65.592c-5.354-31.685,1.584-46.768,6.205-53.482C246.266,8.21,250.598,0.787,256.65,0
				c-3.148,2.738-5.824,5.778-7.359,9.424c6.445-5.09,12.008-6.784,18.619-4.33c-2.971,0.523-5.992,0.1-7.834,1.69
				c4.332-0.721,11.447,0.216,18.447,3.502c-3.016-0.294-7.344-1.048-10.998,0.491c3.15-0.097,6.609,1.389,8.354,1.809
				c-6.02-0.88-12.242,0.638-15.779,2.126c2.129-0.326,5.035-0.036,6.643,0.746c-2.691-0.044-8.293,2.094-10.486,3.158
				c2.197,0.149,3.971,0.547,5.779,2.064c-2.992-0.904-7.309,0.246-9.412,2.115c3.148-0.571,5.543-0.323,8.881,1.354
				c-4.586-0.375-11.539,0.095-15.998,3.042c5.949-0.62,11.496-0.552,16.5,1.322c-4.797-0.004-11.506,1.184-14.674,3.683
				c4.787,0.024,10.59,0.777,15.363,2.955c-5.375-0.557-13.266,0.021-16.824,1.893c2.496-0.444,6.871,0.324,10.846,1.855
				c-4.018,0.137-7.391,0.121-9.807,2.528c2.287-0.06,4.27,0.468,6.59,1.397c-11.418,3.41-6.848,5.945-3.797,6.043
				c-7.445,4.94-6.709,12.055-6.924,14.571C242.25,70.209,239.441,77.825,237.375,65.592z"/>
			<path style="fill:#FFFFFF;" d="M254.113,64.749c3.412-0.987,23.537-4.93,34.031-2.162c5.389,1.435,10.217,2.929,15.42,5.208
				c5.756,2.527,9.475,9.203,14.551,11.788c-4.248-0.704-7.361-3.688-10.953-6.089c3.594,4.869,9.674,13.217,13.721,17.063
				c-6.992-2.407-11.891-11.279-16.762-15.804c1.008,3.696,2.502,6.569,6.471,13.128c-3.98-3.268-6.062-7.324-7.455-9.17
				c-0.135,2.074,0.605,4.227,1.732,5.806c-3.939-2.659-5.951-8.123-7.148-11.793c-0.705,4.441,0.828,9.526,2.576,12.362
				c-4.674-4.708-4.77-11.009-7.125-13.543c-0.164,2.34,1.197,7.934,2.404,11.12c-2.025-2.645-4.377-5.552-5.625-9.782
				c-0.039,2.288,0.322,3.584,1.02,5.582c-1.852-1.305-4.762-5.441-4.969-7.813c-0.221,2.696,1.949,5.258,2.141,9.581
				c-0.848-2.194-3.871-6.809-7.805-9.475c0.828,2.337,1.592,4.057,1.984,6.371c-1.639-1.778-4.225-5.565-4.477-6.752
				c-0.229,0.599-0.799,2.998-0.102,4.548c-2.098-1.376-2.898-3.034-3.598-4.335c-0.234,0.627-0.668,1.322-0.871,1.829
				c-2.732-0.841-4.547-2.54-6.479-4.614c-0.219,0.846,1.111,2.4,0.895,3.116c-7.387-4.29-11.934-2.79-15.451-1.954
				C247.658,70.079,247.424,66.689,254.113,64.749z"/>
			<path style="fill:#FFFFFF;" d="M248.463,72.191c2.568,6.222,12.211,19.34,16.742,27.427c2.359,4.178,4.785,8.015,7.834,11.607
				c2.645,3.116,5.389,7.168,8.953,10.703c-2.973-1.07-4.947-2.509-7.785-3.352c1.678,4.279,3.088,5.933,5.227,9.419
				c-3.031-1.426-5.828-4.883-7.443-7.101c1.686,4.826,2.074,10.468,0.281,14.044c-0.184-5.122-0.949-10.668-2.555-15.607
				c-0.309,5.066-0.609,8.552-3.393,11.695c1.125-2.45,1.189-5.891,0.918-8.134c-1.16,2.242-2.51,4.837-3.787,7.682
				c-0.154-3.523,1.279-7.666,2.549-10.927c-1.83,3.226-3.463,5.997-6.023,7.159c1.941-2.371,3.682-6.453,4.615-8.953
				c-1.66,2.199-3.529,4.943-5.396,5.351c1.67-1.815,3.092-4.94,3.781-7.344c-1.732,1.693-4.48,4.516-5.59,7.475
				c-0.123-3.296,2.029-8.63,4.125-11.21c-1.486,1.036-3.014,2.087-4.082,4.156c0.301-1.582,0.586-3.742,1.572-5.655
				c-1.879,1.289-2.521,2.402-4.096,4.891c-0.135-3.554,2.09-6.856,2.092-11.387c-1.025,1.022-2.18,2.613-2.893,3.843
				c-0.07-1.863,0.502-5.154,1.199-6.821c-0.57,0.501-1.299,1-1.805,2.201c-0.494-2.966,0.92-6.5,0.928-9.542
				c-0.629,0.669-2.367,3.347-3.566,4.584c1.508-3.796,2.074-7.392,1.152-11.61c-0.672,1.114-1.283,3.973-1.738,5.083
				c-0.158-6.76-3.238-10.841-5.537-16.322C242.984,71.38,245.902,65.986,248.463,72.191z"/>
			<path style="fill:#FFFFFF;" d="M238.566,64.603c5.025-12.323,17.527-27.9,22.857-32.246c6.557-5.355,7.316-10.028,13.078-12.926
				c-1.086,2.609-2.541,4.931-2.488,6.601c3.199-2.398,5.674-5.376,8.131-6.734c-1.145,1.521-2.578,3.446-3.139,5.049
				c3.004-2.509,7.404-3.863,10.936-3.226c-3.186,1.243-6.455,2.468-8.385,5.235c3.666-0.622,10.1-3.62,15.383-0.009
				c-2.328-0.678-6.324,1.338-8.645,2.273c6.791-0.99,10.752,0.447,14.148,1.577c-3.979-0.347-8.057,0.77-11.264,1.217
				c3.262,0.11,9.686,1.405,13.043,6.149c-3.152-2.115-7.838-3.114-9.811-2.989c3.16,1.769,5.146,4.18,5.475,5.756
				c-1.551-0.521-3.01-0.771-4.113-0.127c0.781,3.125,3.938,5.712,3.527,5.363c-3.898-1.854-7.121-5.033-10-7.815
				c0.672,2.427,2.102,5.267,3.699,7.662c-2.783-1.722-4.047-2.476-5.643-4.877c0.479,1.958,0.988,3.987,0.707,5.469
				c-2.16-5.412-6.803-4.604-8.84-7.88c0.115,1.167,0.656,2.793,1.184,3.993c-1.539-1.515-2.561-3.435-5.02-3.515
				c-0.098,2.737,1.805,5.387,3.215,6.911c-2.225-1.03-5.236-2.645-8.246-3.596c0.732,1.325,3.176,3.726,3.863,5.025
				c-0.67-0.461-3.139-1.712-3.982-1.901c0.035,0.584,2.078,2.254,1.959,2.798c-2.469-0.976-4.016-0.686-6.078-0.778
				c0.051,0.924,2.221,2.646,1.229,2.4c-1.684-0.39-4.018,0.577-4.662,0.348c-2.936-1.03-1.547,1.269-0.691,3.635
				c-1.016,0.188-2.184-0.345-3.125-0.861c-0.459,0.945,0.707,2.091,0.199,2.981c-1.146-0.07-1.883-0.004-2.947,0.477
				c-0.711,0.34-9.174,5.339-10.412,9.294C242.088,70.542,236.652,69.317,238.566,64.603z"/>
			<path style="fill:#FFFFFF;" d="M244.309,67.977c-10.928-5.277-27.577-7.969-33.1-7.547c-6.764,0.528-10.363-2.215-15.074-0.495
				c2.329,1.095,4.639,1.766,5.778,2.951c-3.177,0.416-6.405-0.065-8.473,0.591c1.581,0.324,3.593,0.718,4.962,1.462
				c-3.125,0.216-6.12,2.108-7.294,4.834c2.326-1.208,4.695-2.457,7.521-1.799c-2.122,1.96-7.196,4.031-7.127,9.913
				c0.625-1.96,3.88-3.127,5.599-3.98c-3.836,3.7-4.674,7.251-5.458,10.234c1.623-2.819,4.267-4.693,6.063-6.464
				c-1.425,2.206-3.507,7.243-1.747,12.682c-0.015-3.491,1.447-7.211,2.469-8.393c-0.24,3.266,0.543,6.222,1.472,7.518
				c0.339-1.366,0.845-2.479,1.815-2.742c1.815,2.648,2.164,6.482,2.1,5.964c0.506-3.778-0.195-8.061-0.81-11.84
				c1.378,2.117,2.7,4.996,3.636,7.692c0.077-3.001,0.13-4.334-0.79-7.029c1.131,1.671,2.321,3.386,3.486,4.249
				c-2.778-5.148-0.058-7.568-1.407-11.155c0.755,0.88,1.64,2.343,2.231,3.519c-0.344-2.044-1.206-4.038-0.132-5.657
				c1.966,1.831,2.938,4.883,3.346,6.829c0.301-2.145,0.571-5.206,1.32-7.768c0.569,1.349,1.134,4.596,1.713,5.942
				c-0.021-0.747,0.268-3.219,0.518-3.87c0.367,0.413,0.596,2.876,1.051,3.177c0.453-2.261,1.363-3.07,2.265-4.461
				c0.616,0.674,0.809,3.282,1.109,2.462c0.484-1.36,2.26-2.197,2.397-2.768c0.641-2.621,1.609-0.114,2.842,2.069
				c0.615-0.532,0.779-1.65,0.859-2.612c0.865,0.346,1.125,1.886,1.996,2.19c0.477-0.797,0.85-1.224,1.695-1.567
				c0.555-0.23,7.965-2.23,11.297-0.309C246.838,74.35,248.482,70.016,244.309,67.977z"/>
			<path style="fill:#FFFFFF;" d="M245.162,70.312c25.771-8.077,39.186,10.866,49.266,14.237c-0.779,0.027-4.098-0.458-4.992-0.644
				c7.691,5.215,19.025,26.451,15.062,39.914c-0.135-4.034,0.412-8.372-2.256-12.211c0.053,1.523-0.221,2.964-1.336,4.341
				c0.439-2.531-1.238-9.406-2.686-10.233c-0.105,1.479,0.244,3.67-0.486,4.392c-0.209-3.834-1.807-9.228-3.23-6.785
				c-0.305-2.947-0.969-6.919-2.195-9.474c0.488,2.717,0.016,3.715-0.889,5.542c0.488-2.705-2.906-7.953-3.537-9.73
				c-0.635,3.797-1.746,4.038-2.672,7.859c0.242-3.258-2.104-9.253-4.131-9.548c-2.012-0.282-2.289,3.992-2.344,6.146
				c-1.258-1.213-1.762-3.945-2.113-5.573c-0.387,1.341-1.014,2.888-1.695,3.923c0.139-1.779-0.01-3.738-0.451-5.078
				c-0.57,1.003-1.244,2.273-1.885,3.011c-0.531-1.783,0-3.934-1.223-5.519c-0.848-1.082-2.012,2.572-2.42,1.193
				c-1.201-3.94-3.307-5.466-4.982-6.344c-3.188-1.681-10.883-8.449-19.398-4.663C241.264,76.542,237.123,72.839,245.162,70.312z"/>
			<path style="fill:#FFFFFF;" d="M278.275,91.649c2.145,2.043,9.584,4.028,13.232,10.696c-2.992-2.846-5.371-3.221-6.557-4.15
				c6.592,6.415,7.795,9.872,8.627,13.31c-1.26-1.866-2.758-3.899-3.773-4.263c1.939,2.878,2.707,6.684,3.002,10.34
				c-0.516-1.403-1.42-1.969-1.881-2.198c1.369,4.543-0.629,10.625-0.725,11.812c-0.221-4.158-1.105-9.453-2.578-14.298
				c-0.58,3.042-1.865,5.173-3.451,6.483c1.088-2.69,1.717-6.711,1.881-9.039c-1.188,2.575-2.691,4.552-4.086,6.16
				c0.631-2.102,1.408-4.13,1.445-6.155c-0.277,0.249-2.24,1.727-2.564,1.888c0.141-1.325,0.842-3.123,0.584-4.597
				c-0.438-0.015-1.615,0.611-2.154,1.897c-0.256-2.43,0.068-5.611,0.949-7.912c-2.232,1.235-4.393,4.368-5.787,6.328
				c0.139-2.442,0.887-4.868,1.018-7.334c-1.008,0.019-2.391,1.892-3.252,2.454c0.061-1.536,0.369-3.077,0.451-4.609
				c-0.73,0.85-1.936,2.283-2.348,2.43c0.502-2.228,1.504-7.932,0.795-7.541c-1.682,0.885-3.314,2.807-4.285,3.401
				c0.908-2.672,0.943-5.522,0.068-7.166c-1.797,0.74-2.219,2.18-3.076,4.233c-0.305-2.031-0.344-4.883-1.102-5.883
				c-0.287,0.209-1.189,1.244-1.555,2.287c-0.357-1.089,0.496-3.907-0.418-4.63c-1.115-0.858-7.797-10.105-15.834-12.277
				c-5.051-1.363-1.521-4.528,3.92-2.376C259.07,74.969,270.355,84.181,278.275,91.649z"/>
			<path style="fill:#FFFFFF;" d="M230.344,25.597c-0.996-2.84,0.25-10.512-4.412-16.598c1.393,3.931,0.74,6.265,1.107,7.744
				c-3.238-8.693-5.956-11.235-8.797-13.399c1.213,1.909,2.481,4.111,2.388,5.223c-1.866-2.98-5.109-5.263-8.393-7.004
				c1.088,1.038,1.235,2.108,1.272,2.622c-3.683-3.12-10.19-3.771-11.35-4.178c3.79,1.921,8.371,4.902,12.271,8.231
				c-3.074-0.696-5.611-0.401-7.503,0.54c2.981,0.132,6.981,1.172,9.224,1.974c-2.891,0.05-5.381,0.612-7.449,1.239
				c2.204,0.3,4.45,0.399,6.352,1.192c-0.345,0.146-2.542,1.364-2.837,1.597c1.292,0.412,3.268,0.494,4.534,1.338
				c-0.167,0.41-1.263,1.244-2.674,1.216c2.149,1.244,5.262,2.239,7.771,2.358c-2.075,1.543-5.905,2.268-8.323,2.761
				c2.337,0.877,4.915,1.156,7.268,2.058c-0.434,0.917-2.755,1.443-3.633,1.995c1.434,0.574,3.006,0.92,4.475,1.482
				c-1.104,0.325-2.934,0.843-3.249,1.167c2.288,0.445,8.035,1.861,7.38,2.353c-1.549,1.185-4.018,1.918-4.97,2.569
				c2.865,0.232,5.544,1.393,6.71,2.862c-1.471,1.354-2.975,1.14-5.24,1.11c1.77,1.13,4.41,2.32,5.027,3.416
				c-0.338,0.185-1.664,0.585-2.783,0.512c0.854,0.762,3.865,1.138,4.139,2.289c0.326,1.394,6.174,11.318,4.824,19.619
				c-0.861,5.238,3.588,3.271,3.877-2.621C237.863,50.13,234.002,35.96,230.344,25.597z"/>
			<g>
				<path style="fill:#FFFFFF;" d="M230.371,74.042c1.99,5.978,8.609,9.276,14.771,7.318c6.17-1.951,9.543-8.375,7.543-14.351
					c-2.008-5.988-8.617-9.272-14.781-7.318C231.734,61.626,228.367,68.049,230.371,74.042z"/>
			</g>
			<path style="fill:#FFFFFF;" d="M235.523,68.742c-5.078-3.185-21.285-10.578-33.041-9.49c-8.508,0.788-16.34,7.039-15.498,13.271
				c-1.912-2.334-1.476-6.241-0.297-7.736c-1.777,0.641-2.985,1.387-3.74,2.836c-0.519-1.241,1.222-3.355,2.783-4.232
				c-4.4-0.236-8.048,4.062-7.846,7.948c-2.065-3.952,0.033-7.607,2.615-9.215c-3.207,0.457-5.9,2.764-7.525,5.275
				c-0.394-1.55,0.7-4.728,2.968-6.543c-3.061,0.916-5.4,1.878-7.053,3.85c1.01-2.792,3.236-5.051,9.333-6.975
				c-1.97-0.978-7.458,1.066-8.994,2.377c2.376-2.898,6.171-6.933,17.682-9c-2.923-0.845-8.299-0.263-12.164,1.37
				c3.638-3.341,9.004-4.682,16.838-4.911c-1.957-1.975-6.323-1.857-9.829-2.037c10.937-1.538,18.981-0.704,28.026,4.506
				c-1.671-2.688-4.606-3.625-7.279-4.708c6.401,1.202,23.295,10.277,29.727,16.273C240.014,68.871,240.598,71.935,235.523,68.742z"
				/>
			<path style="fill:#FFFFFF;" d="M262.971,279.135c1.773,0.252,4.629,2.253,3.541,1.061c-1.092-1.189-9.6-5.357-7.469-5.083
				c2.129,0.274,6.803,2.102,5.559,0.961c-1.25-1.137-7.021-3.118-8.406-4.356c-1.383-1.242,5.986,1.438,4.664,0.771
				c-1.324-0.669-7.307-3.352-8.848-4.454c-1.533-1.099,4.203,0.885,3.475,0.162c-0.723-0.723-6.996-2.039-7.795-3.15
				c-0.809-1.119,5.838,1.272,4.832,0.265c-0.998-1.015-5.359-4.065-3.098-3.169c4.314,1.711,5.713,3.841,6.744,4.688
				c1.82,1.49-2.027-3.71-1.086-3.279c0.92,0.427,3.424,3.622,4.332,4.808c0.908,1.185-1.852-4.939-0.631-3.859
				c1.227,1.085,4.17,6.651,5.246,8.049c1.076,1.39-1.836-4.654-0.875-3.907c1.641,1.276,3.043,4.736,3.707,5.998
				c0.752,1.436-1.582-4.616-0.873-4.209c1.092,0.626,2.441,4.593,3.342,6.896c-0.207-1.318,0.254-5.785,0.426-4.238
				c0.307,2.677,1.723,7.795,2.896,11.61h-3.191C265.945,280.963,262.311,279.037,262.971,279.135z"/>
			<path style="fill:#FFFFFF;" d="M269.297,274.458c-0.432-1.228,1.545,1.98,1.877,3.042c-0.168-2.048-0.604-5.499-0.012-6.348
				c0.389-0.549,0.844,4.812,0.883,3.474c0.039-1.184-0.168-4.27,0.602-5.799c0.451-0.896,0.465,4.666,0.768,3.246
				c0.299-1.423,0.482-6.637,1.012-7.873c0.527-1.234,0.684,4.33,0.934,3.123c0.25-1.205,0.971-4.474,1.508-5.112
				c0.551-0.655-0.447,4.593,0.379,2.842c0.471-0.994,0.742-3.081,3.365-5.858c1.379-1.453-0.795,2.35-1.174,3.455
				c-0.385,1.109,3.744-2.985,3.545-1.867c-0.193,1.115-4.439,4.267-4.723,5.066c-0.277,0.794,3.312-2.682,2.562-1.322
				c-0.758,1.359-4.285,5.447-5.037,6.408s3.82-3.603,3.23-2.188c-0.586,1.406-4.217,4.893-4.738,6.181
				c-0.523,1.289,2.33-1.699,3.834-2.644c1.504-0.94-3.383,5.135-3.766,6.407c-0.387,1.271,1.033-1.22,2.275-2.021
				c0.523-0.338-2.131,3.135-3.307,8.028h-1.875C270.936,281.374,270.082,276.685,269.297,274.458z"/>
			<path style="fill:#FFFFFF;" d="M255.617,282.492c-2.43-0.903-6.297-1.173-7.941-3.162c-0.676-0.815-0.564-1.604-1.645-1.255
				c-2.189,0.712-4.428-1.016-7.395-0.076c5.111-5.251,20.408-8.832,25.934-0.462c0.566,0.852,4.244,0.39,4.742,4.394
				c0.07,0.542,0.73,1.512,1.57,2.767h-11.502C259.588,283.905,256.76,282.914,255.617,282.492z"/>
			<path style="fill:#FFFFFF;" d="M279.76,283.305c1.506-0.981,3.396-2.054,4.986-2.9c3.283-1.756,5.924-2.267,10.084,0.288
				c1.414,0.868,2.699,2.256,3.559,4.005h-20.85C278.576,284.045,279.467,283.492,279.76,283.305z"/>
			<path style="fill:#FFFFFF;" d="M256.17,280.294c2.721,0.403,7.588,1.605,10.141,2.572c0.732,0.274,2.781,0.959,5.051,1.831
				h-31.322C243.156,281.651,248.75,279.193,256.17,280.294z"/>
			<path style="fill:#FFFFFF;" d="M279.793,268.219c1.732-1.497,0.779-0.423,0.531,0.941c-0.16,0.886,0.322-1.541,1.348-2.17
				c2.887-1.773,6.936-4.242,12.998-4.19c-0.98,0.695-3.344,3.891-3.377,4.31c-0.037,0.418,0.463,0.394,0.91,0.188
				c0.506-0.229,0.486,2.447-2.938,5.049c-0.566,0.431-2.201,1.993-1.887,1.921c1.881-0.446-1.104,1.318-0.988,2.104
				c0.131,0.913-0.764,1.392-0.996,2.333c-0.465,1.888-2.703,2.598-4.15,3.055c-1.117,0.352-1.898,0.4-1.01,0.949
				c0.609,0.374,0.131,0.684-0.508,0.923c-1.334,0.509-0.994,0.733-1.555,1.066h-4.988
				C274.176,277.64,277.443,270.245,279.793,268.219z"/>
		</g>
		<g>
			<path style="fill:#FFFFFF;" d="M8.285,232.832c3.433,6.139,7.856,9.539,14.952,9.539c5.38,0,10.562-3.797,10.562-9.309
				c0-16.8-30.2-18.35-30.2-40.432c0-9.605,8.119-16.8,18.285-16.8c7.394,0,13.5,3.366,19.111,10.231l-7.129,5.742
				c-4.126-4.555-7.559-6.699-11.354-6.699c-4.456,0-8.582,2.443-8.582,7.955c0,13.862,30.432,17.525,30.432,38.748
				c0,11.717-8.12,20.069-21.322,20.069c-11.156,0-18.714-5.712-23.038-14.261L8.285,232.832z"/>
			<path style="fill:#FFFFFF;" d="M91.028,251.878c-20.992,0-38.023-17.032-38.023-38.024s17.031-38.022,38.023-38.022
				c20.992,0,38.023,17.03,38.023,38.022S112.02,251.878,91.028,251.878z M63.567,213.854c0,15.447,12.279,27.988,27.461,27.988
				c15.183,0,27.461-12.541,27.461-27.988c0-15.446-12.278-27.988-27.461-27.988C75.846,185.865,63.567,198.407,63.567,213.854z"/>
			<path style="fill:#FFFFFF;" d="M154.76,241.314h23.236v9.506h-33.798v-73.934h10.562V241.314z"/>
			<path style="fill:#FFFFFF;" d="M215.093,188.307c-4.225-4.521-8.021-6.832-12.311-6.832c-5.579,0-10.892,3.137-10.892,10.363
				c0,16.406,32.049,20.068,32.049,41.027c0,11.09-7.492,19.013-19.638,19.013c-10.463,0-17.527-5.052-21.587-12.774l5.149-2.938
				c3.697,6.303,8.615,9.803,16.603,9.803c6.831,0,13.07-4.852,13.07-11.98c0-19.209-31.851-20.695-31.851-42.611
				c0-8.812,7.328-15.546,16.371-15.546c6.8,0,12.344,2.904,17.461,8.911L215.093,188.307z"/>
			<path style="fill:#FFFFFF;" d="M373.85,176.887h6.369v67.299c-6.865,4.688-15.744,7.692-24.26,7.692
				c-16.701,0-29.572-4.854-29.572-28.287v-46.704h6.369v44.624c0,23.171,12.971,24.589,23.203,24.589
				c5.15,0,11.586-1.484,17.891-5.545V176.887z"/>
			<path style="fill:#FFFFFF;" d="M407.775,176.887v68.125h23.963v5.809h-30.299v-73.934H407.775z"/>
			<path style="fill:#FFFFFF;" d="M309.82,213.854c0,20.992-16.998,38.024-37.957,38.024c-20.926,0-37.957-17.032-37.957-38.024
				c0-20.959,17.031-38.022,37.957-38.022C292.822,175.831,309.82,192.895,309.82,213.854z M240.309,213.854
				c0,17.625,14.094,32.049,31.555,32.049s31.586-14.424,31.586-32.049c0-17.624-14.094-32.049-31.586-32.049
				C254.402,181.805,240.309,196.229,240.309,213.854z"/>
			<g>
				<path style="fill:#FFFFFF;" d="M431.684,177.506v7.246h-0.906v-7.246h-2.018v-0.82h4.938v0.82H431.684z"/>
				<path style="fill:#FFFFFF;" d="M438.072,184.982l-2.246-5.715l-1.275,5.484h-0.93l1.951-8.297l2.5,6.322l2.502-6.322
					l1.959,8.297h-0.936l-1.275-5.484L438.072,184.982z"/>
			</g>
		</g>
	</g>
</g>
<g id="Layer_1">
</g>
</svg>
