<?xml version="1.0" encoding="iso-8859-1"?>
<!-- Generator: Adobe Illustrator 16.0.0, SVG Export Plug-In . SVG Version: 6.00 Build 0)  -->
<!DOCTYPE svg PUBLIC "-//W3C//DTD SVG 1.1//EN" "http://www.w3.org/Graphics/SVG/1.1/DTD/svg11.dtd">
<svg version="1.1" xmlns="http://www.w3.org/2000/svg" xmlns:xlink="http://www.w3.org/1999/xlink" x="0px" y="0px"
	 width="288.001px" height="237.846px" viewBox="0 0 288.001 237.846" style="enable-background:new 0 0 288.001 237.846;"
	 xml:space="preserve">
<g id="pineapple_1.1">
	<g>
		<path style="fill:#FFFFFF;" d="M109.539,120.151h-4.352c0.292-2.974,0.729-5.958,1.298-8.95c1.501-7.892,3.967-15.49,8.109-22.414
			c1.556-2.602,3.516-5.008,5.555-7.264c2.137-2.363,4.91-3.827,8.795-4.446c-9.5,3.848-12.844,11.767-15.351,19.991
			C111.248,104.761,109.854,112.463,109.539,120.151z"/>
		<path style="fill:#FFFFFF;" d="M117.677,57.536c-4.802-3.212-9.604-6.425-14.478-9.685c8.833-1.196,16.393,1.65,23.248,7.107
			c-6.042-9.182-23.839-13.662-29.679-7.287c6.895,3.48,13.721,6.928,20.547,10.375C117.437,57.876,117.558,57.707,117.677,57.536z"
			/>
		<path style="fill:#FFFFFF;" d="M158.925,56.188c0.344-0.093,0.674-0.338,0.945-0.582c0.848-0.765,0.768-1.478-0.34-1.795
			c-0.604-0.174-1.344-0.143-1.953,0.033c-4.871,1.412-9.291,3.666-13.02,7.164c-3.869,3.625-7.143,9.373-7.479,13.336
			c3.125-6.239,6.92-11.607,13.635-15.148c-3.273,5.332-4.947,10.57-5.275,16.211c1.422-3.58,2.6-6.961,4.162-10.148
			C151.595,61.188,154.128,57.479,158.925,56.188z"/>
		<path style="fill:#FFFFFF;" d="M107.325,34.599c3.956,2.537,7.988,4.956,11.994,7.413c0.785,0.48,1.578,0.947,2.367,1.422
			c0.129-0.186,0.26-0.371,0.389-0.557c-3.547-2.996-7.094-5.992-10.941-9.243c6.041-0.142,11.528,1.029,17.072,2.397
			c-6.09-4.055-12.908-5.447-20.164-4.893c-0.912,0.07-1.772,0.802-2.656,1.227C106.024,33.121,106.528,34.088,107.325,34.599z"/>
		<path style="fill:#FFFFFF;" d="M156.069,115.256c0.545-0.284,1.549-0.117,2.15,0.202c2.805,1.487,5.543,3.101,8.307,4.67
			c0.102-0.14,0.205-0.281,0.309-0.423c-2.404-2.156-4.807-4.313-7.279-6.532c0.541-0.451,1.029-0.858,1.564-1.306
			c-1.09,0.078-2.371,0.586-3.008,0.15c-4.531-3.101-8.93-6.395-13.355-9.613c2.973-2.038,5.922-4.061,8.871-6.083
			c-0.445-0.345-0.676-0.376-0.873-0.308c-1.695,0.581-3.578,0.881-5.037,1.83c-4.514,2.94-8.678,2.545-12.77-0.709
			c-0.07-0.057-0.228-0.007-0.613-0.007c1.682,1.57,3.217,3.003,4.751,4.437c-3.558,2.386-6.88,4.614-10.203,6.843
			c0.091,0.171,0.181,0.343,0.272,0.515c2.082-0.735,4.188-1.414,6.241-2.221c2.147-0.845,4.372-2.741,6.329-2.473
			c2.068,0.285,3.842,2.604,5.773,3.992c2.455,1.768,4.939,3.494,7.469,5.277c-4.465,1.922-8.756,3.654-12.934,5.624
			c-1.73,0.815-3.031,0.981-4.631-0.288c-1.609-1.277-3.506-2.195-5.275-3.271c-0.094,0.147-0.188,0.294-0.28,0.44
			c1.455,1.378,2.914,2.759,4.382,4.147h10.785C150.089,118.457,153.065,116.824,156.069,115.256z"/>
		<path style="fill:#FFFFFF;" d="M145.183,76.048c0.076,0.003,0.148,0.01,0.225,0.014c0.008-0.219,0.018-0.438,0.031-0.655
			C145.353,75.62,145.271,75.832,145.183,76.048z"/>
		<path style="fill:#FFFFFF;" d="M114.458,19.087c5.643,1.161,9.901,4.328,13.326,8.8c0.501,0.654,0.994,1.316,1.49,1.975
			c-0.846-4.241-3.365-7.334-6.942-10.232c2.981,0,5.406,0,7.829,0c0.023-0.097,0.048-0.192,0.071-0.289
			c-0.248-0.109-0.487-0.274-0.746-0.32c-4.917-0.862-9.83-1.76-14.765-2.506c-0.67-0.101-1.457,0.578-2.189,0.895
			C113.17,17.988,113.731,18.938,114.458,19.087z"/>
		<path style="fill:#FFFFFF;" d="M159.952,13.914c-3.506,4.675-5.047,9.629-3.561,15.219c0.371-5.33,2.273-9.875,5.857-13.77
			c0.779-0.846,0.984-2.221,1.455-3.354c-1.336-0.262-2.664-0.577-4.01-0.757c-0.486-0.065-1.014,0.202-1.525,0.308
			c-4.629,0.951-6.002,5.04-8.17,8.363c1.471-1.218,2.824-2.557,4.189-3.879C155.688,14.592,157.417,13.709,159.952,13.914z"/>
		<path style="fill:#FFFFFF;" d="M156.315,33.516c-0.186-0.559-0.652-1.205-1.156-1.408c-0.305-0.122-1.15,0.418-1.361,0.852
			c-2.406,4.918-4.736,9.875-7.088,14.821c0.264,0.139,0.527,0.277,0.789,0.416c2.197-3.407,4.396-6.815,6.727-10.431
			c0.758,3.525,1.471,6.855,2.186,10.186c0.154-0.033,0.311-0.065,0.465-0.098c0-3.633,0-7.267,0-11.086
			c5.883-1.052,11.725-2.097,17.566-3.142c0.023,0.131,0.047,0.262,0.07,0.392c-2.996,2.279-5.992,4.558-8.988,6.836
			c0.119,0.176,0.238,0.354,0.359,0.53c2.793-1.521,5.592-3.034,8.379-4.567c2.154-1.186,4.348-2.312,6.402-3.651
			c0.604-0.394,0.795-1.423,1.176-2.161c-0.729-0.205-1.5-0.676-2.18-0.571c-3.898,0.604-7.828,1.143-11.648,2.099
			c-3.791,0.949-7.465,2.367-11.285,3.611C156.601,35.246,156.589,34.338,156.315,33.516z"/>
		<path style="fill:#FFFFFF;" d="M167.317,91.227c-4.551-8.301-10.979-14.606-21.91-15.165c-0.004,0.098-0.012,0.194-0.014,0.292
			c8.654,1.32,14.062,6.683,18.092,13.643c5.441,9.403,8.039,19.566,8.816,30.155h4.729
			C175.751,110.267,172.462,100.609,167.317,91.227z"/>
		<path style="fill:#FFFFFF;" d="M162.233,48.82c0.053,0.199,0.105,0.398,0.158,0.597c4.492-0.805,8.982-1.61,13.402-2.403
			c-3.135,3.372-6.234,6.705-9.336,10.039c0.191,0.199,0.385,0.399,0.576,0.599c5.266-5.11,10.779-9.874,17.682-12.696
			c0.273-0.111,0.604-0.244,0.748-0.469c0.293-0.455,0.76-1.084,0.627-1.449c-0.15-0.412-0.857-0.801-1.363-0.86
			c-0.715-0.083-1.496,0.051-2.199,0.258c-2.783,0.82-5.553,1.694-8.318,2.568C170.214,46.267,166.226,47.547,162.233,48.82z"/>
		<path style="fill:#FFFFFF;" d="M155.886,74.59c0.287,0.093,0.369,0.142,0.391,0.123c0.277-0.247,0.562-0.486,0.811-0.76
			c5.158-5.662,11.238-9.776,18.871-11.318c0.648-0.131,1.344-0.352,1.852-0.744c0.461-0.358,0.695-1.009,1.029-1.529
			c-0.496-0.27-0.967-0.645-1.498-0.78c-0.564-0.144-1.188-0.086-1.785-0.071c-9.057,0.217-17.326,2.844-24.734,8.099
			c-0.168,0.12-0.289,0.308-0.285,0.302c5.379-1.691,10.828-3.404,16.277-5.118c0.111,0.216,0.219,0.431,0.328,0.646
			C162.567,66.323,158.638,69.823,155.886,74.59z"/>
		<path style="fill:#FFFFFF;" d="M141.087,10.598c1.045,0.929,2.014,1.829,3.025,2.678c1.014,0.85,2.068,1.648,3.525,2.802
			c-0.188-0.785-0.189-0.942-0.258-1.057c-0.158-0.253-0.324-0.507-0.529-0.722c-3.307-3.477-5.424-7.327-3.934-12.334
			c0.041-0.137,0.064-0.334-0.004-0.44c-0.334-0.521-0.699-1.019-1.055-1.524c-0.479,0.392-1.316,0.733-1.379,1.184
			c-0.688,4.902-1.254,9.82-1.852,14.734c0.246,0.047,0.493,0.094,0.74,0.141C139.954,14.195,140.541,12.332,141.087,10.598z"/>
		<path style="fill:#FFFFFF;" d="M141.222,57.082c0.109-0.258,0.275-0.508,0.322-0.777c1.102-6.178-0.295-11.867-3.533-17.133
			c-0.502-0.816-1.5-1.328-2.268-1.982c-0.639,0.849-1.559,1.604-1.871,2.56c-2.359,7.222-2.725,14.753-2.976,22.334
			c1.737-6.772,3.474-13.546,5.312-20.714C139.571,46.428,140.776,51.582,141.222,57.082z"/>
		<path style="fill:#FFFFFF;" d="M133.271,69.556c-6.102-7.259-13.982-10.37-23.348-9.915c-1.35,0.064-3.321-0.617-3.543,1.463
			c-0.049,0.467,2.08,1.506,3.299,1.703c4.662,0.758,8.44,2.873,11.13,6.751c1.05,1.513,1.82,3.22,2.718,4.839
			c-0.709-4.857-3.146-8.649-7.082-11.596c6.723,0.697,12.213,3.957,17.426,7.91C133.749,70.217,133.532,69.867,133.271,69.556z"/>
		<path style="fill:#FFFFFF;" d="M138.315,36.873c0.29-0.041,0.58-0.082,0.87-0.123c-0.301-4.915-0.602-9.83-0.915-14.955
			c4.688,2.17,7.535,5.803,9.941,10.283c-0.254-5.44-5.148-11.952-9.834-13.451c-2.242-0.717-3.213-0.291-2.922,1.709
			C136.259,25.871,137.343,31.364,138.315,36.873z"/>
		<path style="fill:#FFFFFF;" d="M142.198,109.43c-1.81-0.066-3.202,0.52-3.248,2.404c2.111,0.244,3.941,0.456,5.76,0.666
			C144.901,110.572,144.147,109.503,142.198,109.43z"/>
		<path style="fill:#FFFFFF;" d="M140.948,90.121c-1.07,0.326-1.947,1.288-2.911,1.967c0.135,0.216,0.269,0.433,0.403,0.648
			c2.016-0.229,4.029-0.457,6.312-0.717C143.884,90.074,142.429,89.672,140.948,90.121z"/>
		<path style="fill:#FFFFFF;" d="M157.45,102.609c-1.666,0.151-2.928,0.867-3.076,2.785c2.189-0.221,4.283-0.434,6.66-0.674
			C160.519,102.775,159.071,102.463,157.45,102.609z"/>
		<path style="fill:#FFFFFF;" d="M136.243,194.917c-0.169-1.663,0.857-2.897,2.902-3.006c2.02-0.107,3.105,0.944,3.225,3.006
			C140.347,194.917,138.317,194.917,136.243,194.917z M136.86,212.482c2.348-0.105,4.32-0.194,6.652-0.299
			c-0.318-0.522-0.645-1.723-1.205-1.846c-1.359-0.298-2.889-0.326-4.227,0.016C137.495,210.504,137.21,211.827,136.86,212.482z
			 M160.737,183.884c-1.006-2.02-2.572-2.338-4.178-1.856c-0.957,0.287-1.715,1.242-2.562,1.896
			c0.148,0.179,0.295,0.358,0.443,0.536C156.462,184.274,158.485,184.09,160.737,183.884z M171.499,187.052
			c0.084,10.062-1.66,19.757-6.299,28.814c-7.699,15.03-25.338,20.446-39.18,11.92c-6.164-3.795-10.08-9.493-12.571-16.13
			c-3.8-10.122-5.356-20.315-4.994-30.532h-4.375c-1.101,11.828,0.159,23.479,4.956,34.809
			c7.281,17.197,22.814,25.231,40.258,20.639c12.643-3.328,20.25-12.19,23.891-24.231c3.209-10.613,4.094-21.035,2.84-31.216h-4.756
			C171.403,183.086,171.483,185.062,171.499,187.052z M153.53,219.336c-1.271,0.183-2.324,0.769-2.225,2.547
			c1.732-0.222,3.297-0.421,4.967-0.635C155.981,219.503,154.845,219.146,153.53,219.336z M154.763,202.634
			c-1.555-0.378-3.285-0.538-4.826-0.217c-0.637,0.133-0.969,1.719-1.439,2.644c0.186,0.122,0.373,0.244,0.559,0.366
			c2.117-0.991,4.213-2.651,6.682-0.282C155.587,204.091,155.319,202.77,154.763,202.634z M136.252,181.704
			c-0.206-0.194-0.409-0.386-0.613-0.58h9.497c-1.053,0.58-2.119,1.169-3.205,1.764c1.689,1.122,3.25,2.2,4.85,3.212
			c2.777,1.757,5.613,3.422,8.354,5.229c1.119,0.738,1.998,0.884,3.234,0.187c1.977-1.112,4.096-1.97,6.398-2.502
			c-1.938,1.454-3.875,2.906-5.979,4.484c2.416,1.595,4.699,3.104,6.984,4.611c-0.066,0.137-0.135,0.274-0.201,0.41
			c-2.438-1.002-4.857-2.048-7.318-2.979c-0.695-0.263-1.707-0.531-2.25-0.224c-4.648,2.635-9.221,5.402-14.129,8.316
			c3.465,2.182,6.766,4.315,10.148,6.312c0.418,0.246,1.393-0.079,1.912-0.431c3.215-2.177,6.369-4.442,9.553-6.665
			c0.58-0.405,1.201-0.749,1.805-1.121c0.135,0.164,0.268,0.328,0.402,0.492c-3.414,3.246-6.83,6.493-10.42,9.907
			c1.383,1.013,2.84,2.08,4.363,3.196c-0.244,0.123-0.346,0.203-0.373,0.184c-5.994-4.282-10.049,0.587-14.787,3.046
			c2.977,2.544,5.828,4.979,8.678,7.415c-0.117,0.175-0.232,0.35-0.35,0.523c-3.174-1.742-6.422-3.364-9.486-5.28
			c-1.559-0.974-2.837-1.271-4.501-0.408c-1.165,0.603-2.501,0.872-3.955,0.956c1.382-0.904,2.765-1.808,4.231-2.767
			c-5.264-4.131-10.465-8.213-15.666-12.295c4.058,2.294,7.131,0.374,10.199-1.799c0.898-0.638,1.91-1.116,3.067-1.782
			c-2.59-2.384-5.021-4.622-7.452-6.86c0.131-0.197,0.261-0.394,0.392-0.591c1.64,0.988,3.5,1.741,4.877,3.015
			c3.245,3.003,6.226,2.949,9.788,0.417c2.943-2.092,6.326-3.565,9.502-5.307c-4.756-3.171-9.355-6.291-14.039-9.281
			c-0.503-0.322-1.544-0.05-2.236,0.211c-4.802,1.809-9.577,3.686-14.361,5.542c-0.113-0.23-0.229-0.459-0.344-0.689
			C127.241,186.983,131.661,184.395,136.252,181.704z M139.79,205.273c-0.372-0.231-1.014-0.354-1.395-0.195
			c-2.857,1.183-5.682,2.447-8.668,3.753c4.092,2.681,7.98,5.245,11.898,7.765c0.299,0.192,0.9,0.241,1.189,0.068
			c2.533-1.515,5.025-3.096,7.561-4.677C146.7,209.646,143.261,207.434,139.79,205.273z"/>
		<g>
			<path style="fill:#FFFFFF;" d="M5.392,163.179c2.234,3.995,5.113,6.208,9.73,6.208c3.502,0,6.874-2.471,6.874-6.058
				c0-10.934-19.654-11.942-19.654-26.312c0-6.251,5.284-10.934,11.899-10.934c4.812,0,8.785,2.19,12.438,6.659l-4.639,3.736
				c-2.686-2.964-4.92-4.359-7.39-4.359c-2.9,0-5.585,1.59-5.585,5.176c0,9.022,19.805,11.406,19.805,25.218
				c0,7.625-5.285,13.062-13.877,13.062c-7.26,0-12.18-3.718-14.993-9.281L5.392,163.179z"/>
			<path style="fill:#FFFFFF;" d="M59.241,175.574c-13.662,0-24.745-11.085-24.745-24.746c0-13.662,11.083-24.745,24.745-24.745
				s24.745,11.083,24.745,24.745C83.986,164.489,72.903,175.574,59.241,175.574z M41.37,150.828c0,10.053,7.99,18.214,17.871,18.214
				s17.871-8.161,17.871-18.214s-7.99-18.215-17.871-18.215S41.37,140.775,41.37,150.828z"/>
			<path style="fill:#FFFFFF;" d="M100.718,168.699h15.122v6.187H93.845V126.77h6.873V168.699z"/>
			<path style="fill:#FFFFFF;" d="M139.982,134.202c-2.749-2.942-5.22-4.446-8.012-4.446c-3.63,0-7.089,2.041-7.089,6.744
				c0,10.677,20.857,13.061,20.857,26.701c0,7.217-4.875,12.373-12.78,12.373c-6.81,0-11.407-3.288-14.049-8.314l3.352-1.911
				c2.405,4.102,5.606,6.38,10.805,6.38c4.446,0,8.507-3.158,8.507-7.797c0-12.502-20.729-13.469-20.729-27.731
				c0-5.735,4.769-10.117,10.653-10.117c4.426,0,8.034,1.89,11.365,5.8L139.982,134.202z"/>
			<path style="fill:#FFFFFF;" d="M243.3,126.77h4.146v43.798c-4.469,3.051-10.246,5.007-15.789,5.007
				c-10.869,0-19.246-3.159-19.246-18.41V126.77h4.146v29.041c0,15.08,8.441,16.003,15.1,16.003c3.352,0,7.541-0.966,11.643-3.608
				V126.77z"/>
			<path style="fill:#FFFFFF;" d="M265.38,126.77v44.336h15.594v3.78h-19.717V126.77H265.38z"/>
			<path style="fill:#FFFFFF;" d="M201.63,150.828c0,13.661-11.061,24.746-24.701,24.746c-13.619,0-24.703-11.085-24.703-24.746
				c0-13.641,11.084-24.745,24.703-24.745C190.569,126.083,201.63,137.188,201.63,150.828z M156.394,150.828
				c0,11.47,9.172,20.856,20.535,20.856s20.557-9.387,20.557-20.856c0-11.471-9.172-20.857-20.557-20.857
				C165.565,129.971,156.394,139.357,156.394,150.828z"/>
			<g>
				<path style="fill:#FFFFFF;" d="M280.938,127.173v4.716h-0.59v-4.716h-1.312v-0.534h3.213v0.534H280.938z"/>
				<path style="fill:#FFFFFF;" d="M285.097,132.039l-1.463-3.72l-0.83,3.569H282.2l1.27-5.4l1.627,4.115l1.629-4.115l1.275,5.4
					h-0.609l-0.83-3.569L285.097,132.039z"/>
			</g>
		</g>
	</g>
</g>
<g id="Layer_1">
</g>
</svg>
