<?xml version="1.0" encoding="iso-8859-1"?>
<!-- Generator: Adobe Illustrator 16.0.0, SVG Export Plug-In . SVG Version: 6.00 Build 0)  -->
<!DOCTYPE svg PUBLIC "-//W3C//DTD SVG 1.1//EN" "http://www.w3.org/Graphics/SVG/1.1/DTD/svg11.dtd">
<svg version="1.1" xmlns="http://www.w3.org/2000/svg" xmlns:xlink="http://www.w3.org/1999/xlink" x="0px" y="0px" width="288px"
	 height="258.283px" viewBox="0 0 288 258.283" style="enable-background:new 0 0 288 258.283;" xml:space="preserve">
<g id="pineapple_2">
	<g>
		<g>
			<path style="fill:#FFFFFF;" d="M111.312,235.244c-3.816-4.022-7.655-8.068-11.795-12.431c4.186-4.097,8.029-7.858,11.689-11.44
				c4.003,4.083,7.967,8.128,11.745,11.984C119.496,226.887,115.537,230.929,111.312,235.244z M96.642,226.721
				c-0.29,7.115,2.202,11.906,7.109,15.941c1.532-1.393,2.904-2.64,4.273-3.883C104.232,234.762,100.764,231.087,96.642,226.721z
				 M126.682,227.489c-3.965,4.282-7.822,8.446-11.251,12.149c3.589,3.821,7.47,7.954,11.499,12.245
				c4.032-4.131,7.945-8.14,11.629-11.913C134.538,235.746,130.688,231.7,126.682,227.489z M109.309,250.057
				c4.077,3.662,8.953,5.512,13.998,5.59c-4.231-4.296-8.521-8.65-12.844-13.04C106.274,245.974,105.971,247.058,109.309,250.057z
				 M96.941,219.092c2.057-2.064,4.066-4.154,6.157-6.159c2.103-2.015,4.285-3.943,5.743-5.278c-0.433-0.455-0.853-0.9-1.28-1.352
				H93.586C93.562,211.335,94.682,216.287,96.941,219.092z M115.21,206.416c3.716,3.847,7.61,7.876,11.581,11.985
				c4.018-4.133,7.974-8.201,11.371-11.694c-0.123-0.135-0.248-0.27-0.371-0.404h-22.469
				C115.286,206.34,115.246,206.379,115.21,206.416z M174.72,206.303c-0.312,0.325-0.62,0.647-0.933,0.973
				c3.819,3.649,8.015,7.658,12.364,11.814c2.101-2.995,3.146-7.933,3.146-12.787H174.72z M152.925,223.198
				c-3.854-3.962-7.795-8.013-11.555-11.878c-3.997,4.12-7.942,8.187-11.652,12.012c3.69,3.826,7.575,7.853,11.48,11.901
				C145.26,231.065,149.22,227.001,152.925,223.198z M156.065,218.011c3.894-3.93,7.795-7.866,11.6-11.708h-22.791
				C148.665,210.271,152.473,214.252,156.065,218.011z M156.501,227.848c-4.267,4.142-8.328,8.083-11.901,11.552
				c3.862,4.18,7.664,8.293,11.498,12.443c4.05-4.134,7.969-8.132,11.528-11.766C163.848,235.925,160.026,231.724,156.501,227.848z
				 M129.169,256.505c8.577,2.372,16.284,2.494,24.807-0.384c-4.724-4.344-8.891-8.175-13.251-12.183
				C137.189,247.782,133.418,251.884,129.169,256.505z M183.159,223.054c-4.191-4.197-8.067-8.077-11.62-11.636
				c-4.038,4.047-8.057,8.074-11.785,11.811c3.642,3.852,7.494,7.926,11.621,12.29C175.428,231.231,179.326,227.108,183.159,223.054
				z M179.201,242.72c4.88-4.269,7.378-9.061,7.215-16.078c-4.177,4.398-7.764,8.176-11.583,12.197
				C176.334,240.173,177.664,241.354,179.201,242.72z M172.507,242.62c-4.554,4.547-8.858,8.845-13.034,13.016
				c4.271,0.121,8.543-1.39,12.226-4.094C177.843,247.03,176.582,245.517,172.507,242.62z"/>
			<g>
				<path style="fill:#FFFFFF;" d="M171.386,135.34c-3.921-4.135-7.765-8.188-11.357-11.978c3.493-3.574,7.451-7.624,11.58-11.848
					c3.518,3.835,7.357,8.021,11.056,12.054C179.319,127.06,175.388,131.164,171.386,135.34z"/>
				<path style="fill:#FFFFFF;" d="M183.979,115.08c-0.591-2.395-0.812-4.965-1.848-7.147c-2.491-5.244-4.447-5.556-8.884-1.929
					c-0.138,0.111-0.169,0.356-0.328,0.719c3.257,2.88,6.549,5.79,9.841,8.7C183.166,115.309,183.572,115.193,183.979,115.08z"/>
				<path style="fill:#FFFFFF;" d="M172.247,88.666c-4.229-4.74-9.87-5.01-13.907-0.934c4.288,4.43,8.574,8.857,12.98,13.408
					C175.612,97.758,175.898,92.756,172.247,88.666z"/>
				<path style="fill:#FFFFFF;" d="M168.043,106.65c-3.958-4.186-7.814-8.264-11.497-12.158c-4.216,4.086-8.294,8.039-12.225,11.851
					c4,4.006,8.012,8.025,12.106,12.128C160.275,114.554,164.206,110.554,168.043,106.65z"/>
				<path style="fill:#FFFFFF;" d="M124.778,87.675c-5.205-4.178-11.291-3.358-14.938,2.097c-2.945,4.406-2.159,8.916,1.878,11.143
					C116.043,96.53,120.353,92.162,124.778,87.675z"/>
				<path style="fill:#FFFFFF;" d="M152.94,123.146c-3.765-3.885-7.659-7.904-11.71-12.086c-3.988,4.178-7.906,8.283-11.518,12.067
					c3.773,3.968,7.679,8.073,11.678,12.276C145.364,131.188,149.196,127.121,152.94,123.146z"/>
				<path style="fill:#FFFFFF;" d="M104.446,103.713c-3.704,1.987-5.753,7.491-4.496,11.89c3.446-3.05,6.813-6.028,10.33-9.141
					c-1.179-0.933-2.013-1.825-3.037-2.331C106.418,103.725,105.126,103.348,104.446,103.713z"/>
				<path style="fill:#FFFFFF;" d="M152.974,87.635c-3.737-3.833-7.637-7.833-11.633-11.934c-3.968,4.207-7.86,8.335-11.774,12.484
					c3.575,3.656,7.483,7.653,11.373,11.631C145.18,95.523,149.156,91.498,152.974,87.635z"/>
				<path style="fill:#FFFFFF;" d="M123.388,123.639c-3.956-4.152-7.874-8.266-11.925-12.516c-3.945,4.122-7.82,8.172-11.447,11.962
					c3.902,3.759,8.045,7.749,12.264,11.812C115.877,131.25,119.809,127.266,123.388,123.639z"/>
				<path style="fill:#FFFFFF;" d="M138.516,106.393c-3.766-3.959-7.637-8.029-11.619-12.216
					c-4.053,4.294-7.961,8.435-11.494,12.177c3.672,3.798,7.619,7.881,11.777,12.183
					C130.934,114.516,134.76,110.415,138.516,106.393z"/>
				<path style="fill:#FFFFFF;" d="M93.586,139.922h13.976c-3.889-4.105-7.622-8.047-11.312-11.941
					C94.492,131.115,93.606,135.549,93.586,139.922z"/>
				<path style="fill:#FFFFFF;" d="M115.322,139.922h22.469c-3.65-3.971-7.353-7.996-10.764-11.707
					C122.948,132.295,118.989,136.256,115.322,139.922z"/>
				<path style="fill:#FFFFFF;" d="M186.313,127.83c-3.849,4.014-7.698,8.028-11.594,12.092h14.577
					C189.297,135.186,188.302,130.529,186.313,127.83z"/>
				<path style="fill:#FFFFFF;" d="M156.323,127.838c-4.117,4.117-8.129,8.131-11.758,11.761c0.104,0.107,0.206,0.216,0.309,0.323
					h22.791c0.079-0.08,0.159-0.16,0.237-0.24C164.125,135.818,160.215,131.818,156.323,127.838z"/>
				<g>
					<path style="fill:#FFFFFF;" d="M117.758,57.537c-4.802-3.213-9.604-6.426-14.477-9.686c8.832-1.195,16.391,1.651,23.247,7.108
						c-6.042-9.182-23.839-13.663-29.679-7.288c6.894,3.481,13.721,6.928,20.547,10.375
						C117.518,57.877,117.638,57.707,117.758,57.537z"/>
					<path style="fill:#FFFFFF;" d="M159.007,56.188c0.344-0.092,0.672-0.337,0.944-0.582c0.848-0.764,0.768-1.478-0.341-1.795
						c-0.603-0.173-1.343-0.143-1.952,0.034c-4.871,1.411-9.291,3.666-13.021,7.163c-3.868,3.625-7.142,9.373-7.478,13.336
						c3.125-6.238,6.92-11.606,13.635-15.148c-3.272,5.332-4.947,10.57-5.276,16.211c1.423-3.58,2.601-6.961,4.162-10.148
						C151.676,61.188,154.209,57.479,159.007,56.188z"/>
					<path style="fill:#FFFFFF;" d="M107.406,34.6c3.956,2.537,7.988,4.955,11.994,7.412c0.785,0.48,1.578,0.948,2.367,1.422
						c0.129-0.186,0.259-0.371,0.389-0.556c-3.547-2.997-7.094-5.993-10.941-9.243c6.041-0.142,11.527,1.029,17.072,2.396
						c-6.09-4.055-12.908-5.447-20.164-4.893c-0.912,0.07-1.773,0.802-2.656,1.227C106.105,33.122,106.609,34.088,107.406,34.6z"/>
					<path style="fill:#FFFFFF;" d="M114.539,19.088c5.643,1.161,9.901,4.328,13.326,8.8c0.501,0.654,0.994,1.315,1.49,1.975
						c-0.846-4.241-3.365-7.335-6.942-10.233c2.981,0,5.405,0,7.829,0c0.023-0.096,0.048-0.191,0.071-0.288
						c-0.249-0.109-0.487-0.274-0.747-0.32c-4.916-0.862-9.829-1.761-14.765-2.507c-0.669-0.101-1.456,0.578-2.188,0.896
						C113.251,17.988,113.812,18.938,114.539,19.088z"/>
					<path style="fill:#FFFFFF;" d="M160.033,13.914c-3.507,4.676-5.047,9.629-3.561,15.219c0.372-5.33,2.273-9.875,5.857-13.769
						c0.779-0.847,0.984-2.222,1.455-3.354c-1.335-0.262-2.664-0.576-4.01-0.756c-0.486-0.065-1.015,0.201-1.525,0.307
						c-4.629,0.951-6.001,5.04-8.171,8.364c1.473-1.218,2.824-2.557,4.19-3.88C155.771,14.592,157.497,13.709,160.033,13.914z"/>
					<path style="fill:#FFFFFF;" d="M156.396,33.517c-0.186-0.559-0.652-1.206-1.156-1.409c-0.304-0.121-1.149,0.418-1.361,0.852
						c-2.405,4.919-4.736,9.875-7.087,14.822c0.264,0.139,0.526,0.277,0.789,0.416c2.197-3.408,4.396-6.816,6.728-10.431
						c0.756,3.524,1.47,6.854,2.185,10.185c0.155-0.033,0.311-0.064,0.465-0.098c0-3.633,0-7.266,0-11.085
						c5.882-1.052,11.724-2.097,17.566-3.142c0.023,0.131,0.046,0.262,0.069,0.392c-2.996,2.278-5.992,4.557-8.988,6.835
						c0.119,0.177,0.239,0.354,0.359,0.531c2.794-1.521,5.593-3.034,8.38-4.568c2.153-1.186,4.348-2.312,6.402-3.65
						c0.604-0.395,0.794-1.424,1.175-2.162c-0.729-0.205-1.499-0.676-2.179-0.571c-3.899,0.605-7.828,1.144-11.648,2.1
						c-3.791,0.949-7.464,2.367-11.286,3.611C156.682,35.246,156.669,34.338,156.396,33.517z"/>
					<path style="fill:#FFFFFF;" d="M162.315,48.82c0.052,0.199,0.105,0.398,0.158,0.598c4.49-0.805,8.981-1.61,13.401-2.403
						c-3.135,3.372-6.235,6.705-9.336,10.039c0.191,0.198,0.384,0.398,0.575,0.598c5.267-5.11,10.78-9.873,17.684-12.696
						c0.272-0.111,0.603-0.243,0.747-0.469c0.292-0.455,0.76-1.084,0.627-1.449c-0.15-0.412-0.858-0.801-1.364-0.859
						c-0.715-0.084-1.495,0.051-2.197,0.257c-2.784,0.821-5.554,1.694-8.32,2.569C170.295,46.267,166.306,47.548,162.315,48.82z"/>
					<path style="fill:#FFFFFF;" d="M155.967,74.591c0.286,0.093,0.369,0.142,0.391,0.122c0.276-0.246,0.562-0.486,0.811-0.759
						c5.158-5.663,11.237-9.776,18.872-11.319c0.647-0.13,1.343-0.352,1.851-0.744c0.461-0.358,0.694-1.008,1.029-1.529
						c-0.497-0.27-0.967-0.645-1.499-0.779c-0.563-0.145-1.188-0.086-1.783-0.072c-9.057,0.218-17.328,2.844-24.735,8.1
						c-0.169,0.119-0.29,0.307-0.285,0.301c5.379-1.691,10.828-3.404,16.277-5.117c0.11,0.215,0.22,0.43,0.329,0.646
						C162.648,66.324,158.718,69.824,155.967,74.591z"/>
					<path style="fill:#FFFFFF;" d="M141.168,10.598c1.046,0.93,2.014,1.83,3.025,2.678c1.013,0.85,2.067,1.648,3.524,2.803
						c-0.187-0.785-0.188-0.942-0.258-1.057c-0.156-0.254-0.324-0.508-0.529-0.723c-3.306-3.476-5.422-7.326-3.934-12.334
						c0.041-0.137,0.064-0.334-0.004-0.439c-0.332-0.521-0.699-1.02-1.054-1.525c-0.478,0.393-1.316,0.734-1.379,1.184
						c-0.688,4.902-1.254,9.82-1.852,14.734c0.246,0.047,0.493,0.094,0.74,0.141C140.035,14.195,140.621,12.332,141.168,10.598z"/>
					<path style="fill:#FFFFFF;" d="M141.303,57.084c0.11-0.26,0.275-0.509,0.323-0.778c1.1-6.179-0.296-11.867-3.534-17.134
						c-0.502-0.816-1.5-1.328-2.268-1.981c-0.639,0.849-1.56,1.604-1.871,2.559c-2.359,7.222-2.725,14.753-2.976,22.334
						c1.736-6.772,3.474-13.545,5.312-20.713C139.651,46.428,140.857,51.582,141.303,57.084z"/>
					<path style="fill:#FFFFFF;" d="M133.352,69.557c-6.102-7.26-13.982-10.371-23.348-9.916c-1.35,0.064-3.322-0.616-3.543,1.463
						c-0.049,0.467,2.08,1.506,3.299,1.703c4.662,0.759,8.44,2.873,11.13,6.752c1.05,1.514,1.82,3.22,2.718,4.838
						c-0.709-4.856-3.146-8.649-7.082-11.596c6.723,0.697,12.213,3.957,17.426,7.91C133.83,70.217,133.613,69.868,133.352,69.557z"
						/>
					<path style="fill:#FFFFFF;" d="M138.396,36.873c0.29-0.041,0.581-0.082,0.871-0.123c-0.301-4.915-0.602-9.83-0.915-14.955
						c4.688,2.171,7.534,5.803,9.94,10.284c-0.254-5.44-5.146-11.953-9.833-13.452c-2.242-0.717-3.213-0.29-2.923,1.71
						C136.339,25.871,137.424,31.364,138.396,36.873z"/>
				</g>
			</g>
		</g>
		<g>
			<path style="fill:#FFFFFF;" d="M5.392,185.463c2.233,3.995,5.112,6.208,9.73,6.208c3.501,0,6.874-2.472,6.874-6.058
				c0-10.934-19.654-11.942-19.654-26.312c0-6.252,5.283-10.934,11.899-10.934c4.812,0,8.785,2.19,12.438,6.658l-4.64,3.737
				c-2.686-2.964-4.92-4.36-7.389-4.36c-2.9,0-5.586,1.59-5.586,5.177c0,9.022,19.805,11.406,19.805,25.218
				c0,7.625-5.284,13.062-13.877,13.062c-7.26,0-12.179-3.718-14.992-9.281L5.392,185.463z"/>
			<path style="fill:#FFFFFF;" d="M59.24,197.858c-13.661,0-24.744-11.085-24.744-24.747c0-13.661,11.083-24.744,24.744-24.744
				c13.662,0,24.746,11.083,24.746,24.744C83.986,186.773,72.902,197.858,59.24,197.858z M41.369,173.111
				c0,10.053,7.99,18.215,17.871,18.215c9.882,0,17.872-8.162,17.872-18.215s-7.99-18.214-17.872-18.214
				C49.359,154.897,41.369,163.059,41.369,173.111z"/>
			<path style="fill:#FFFFFF;" d="M100.717,190.983h15.123v6.187H93.844v-48.116h6.873V190.983z"/>
			<path style="fill:#FFFFFF;" d="M139.982,156.486c-2.75-2.943-5.221-4.447-8.012-4.447c-3.631,0-7.089,2.041-7.089,6.745
				c0,10.677,20.856,13.061,20.856,26.7c0,7.217-4.875,12.374-12.779,12.374c-6.811,0-11.407-3.288-14.049-8.313l3.352-1.912
				c2.405,4.102,5.605,6.379,10.805,6.379c4.445,0,8.506-3.156,8.506-7.797c0-12.501-20.729-13.469-20.729-27.73
				c0-5.735,4.768-10.117,10.653-10.117c4.426,0,8.034,1.89,11.364,5.799L139.982,156.486z"/>
			<path style="fill:#FFFFFF;" d="M243.3,149.054h4.146v43.798c-4.468,3.051-10.246,5.007-15.788,5.007
				c-10.869,0-19.246-3.159-19.246-18.409v-30.396h4.146v29.041c0,15.08,8.441,16.003,15.101,16.003
				c3.352,0,7.54-0.967,11.643-3.609V149.054z"/>
			<path style="fill:#FFFFFF;" d="M265.38,149.054v44.335h15.594v3.781h-19.718v-48.116H265.38z"/>
			<path style="fill:#FFFFFF;" d="M201.63,173.111c0,13.662-11.062,24.747-24.702,24.747c-13.618,0-24.702-11.085-24.702-24.747
				c0-13.64,11.084-24.744,24.702-24.744C190.568,148.367,201.63,159.472,201.63,173.111z M156.393,173.111
				c0,11.471,9.172,20.857,20.535,20.857c11.364,0,20.557-9.387,20.557-20.857c0-11.469-9.172-20.857-20.557-20.857
				C165.564,152.254,156.393,161.643,156.393,173.111z"/>
			<g>
				<path style="fill:#FFFFFF;" d="M280.938,149.457v4.716h-0.59v-4.716h-1.313v-0.534h3.214v0.534H280.938z"/>
				<path style="fill:#FFFFFF;" d="M285.097,154.322l-1.463-3.719l-0.83,3.569h-0.604l1.27-5.399l1.628,4.114l1.628-4.114
					l1.275,5.399h-0.609l-0.83-3.569L285.097,154.322z"/>
			</g>
		</g>
	</g>
</g>
<g id="Layer_1">
</g>
</svg>
