<?xml version="1.0" encoding="iso-8859-1"?>
<!-- Generator: Adobe Illustrator 16.0.0, SVG Export Plug-In . SVG Version: 6.00 Build 0)  -->
<!DOCTYPE svg PUBLIC "-//W3C//DTD SVG 1.1//EN" "http://www.w3.org/Graphics/SVG/1.1/DTD/svg11.dtd">
<svg version="1.1" xmlns="http://www.w3.org/2000/svg" xmlns:xlink="http://www.w3.org/1999/xlink" x="0px" y="0px" width="288px"
	 height="240.626px" viewBox="0 0 288 240.626" style="enable-background:new 0 0 288 240.626;" xml:space="preserve">
<g id="pineapple">
	<g>
		<path style="fill:#FFFFFF;" d="M171.305,117.684c-3.921-4.135-7.765-8.188-11.357-11.978c3.493-3.574,7.451-7.624,11.579-11.848
			c3.518,3.835,7.358,8.021,11.057,12.054C179.237,109.403,175.307,113.507,171.305,117.684z M183.897,97.423
			c-0.591-2.394-0.812-4.964-1.848-7.147c-2.491-5.245-4.447-5.555-8.884-1.929c-0.138,0.112-0.169,0.357-0.328,0.72
			c3.257,2.879,6.549,5.79,9.841,8.7C183.085,97.652,183.491,97.538,183.897,97.423z M172.166,71.009
			c-4.23-4.74-9.871-5.009-13.907-0.934c4.287,4.43,8.574,8.857,12.98,13.409C175.531,80.102,175.817,75.099,172.166,71.009z
			 M167.961,88.994c-3.957-4.186-7.813-8.264-11.497-12.158c-4.215,4.086-8.293,8.04-12.224,11.851
			c3.999,4.006,8.012,8.025,12.105,12.127C160.194,96.897,164.125,92.897,167.961,88.994z M124.697,70.019
			c-5.205-4.177-11.291-3.358-14.938,2.097c-2.944,4.406-2.159,8.916,1.878,11.143C115.961,78.874,120.271,74.505,124.697,70.019z
			 M152.859,105.491c-3.765-3.886-7.659-7.905-11.711-12.086c-3.987,4.177-7.905,8.283-11.517,12.067
			c3.773,3.967,7.679,8.072,11.677,12.276C145.282,113.533,149.114,109.465,152.859,105.491z M118.12,39.655
			c-13.97,1.509-23.794,9.482-23.239,18.967c8.359-5.108,17.463-7.019,26.801-7.004c-0.317,3.918-0.603,7.43-0.887,10.943
			c6.721-4.56,13.14-8.919,20.598-8.971c7.531-0.052,14.014,4.354,19.879,9.184c0.254-0.138,0.509-0.276,0.764-0.415
			c-0.309-3.482-0.617-6.965-0.95-10.73c9.47-0.097,18.602,2.074,27.243,7.171c-2.057-11.742-8.753-17.055-23.69-19.199
			c2.78-8.957,12.658-13.738,25.4-12.69c-14.607-6.585-27.932-2.935-40.98,5.716c2.874-12.214-3.191-21.894-7.64-32.626
			c-4.48,10.798-10.503,20.529-7.605,32.787c-15.478-10.034-33.53-12.361-40.968-5.593C106.464,26.345,116.089,31.091,118.12,39.655
			z M104.365,86.057c-3.704,1.987-5.753,7.491-4.496,11.89c3.446-3.05,6.812-6.029,10.33-9.141
			c-1.179-0.933-2.013-1.826-3.037-2.331C106.336,86.068,105.045,85.692,104.365,86.057z M152.892,69.979
			c-3.736-3.833-7.636-7.833-11.632-11.934c-3.968,4.207-7.86,8.334-11.774,12.483c3.575,3.656,7.482,7.654,11.372,11.631
			C145.099,77.867,149.075,73.841,152.892,69.979z M123.307,105.983c-3.956-4.152-7.874-8.266-11.926-12.517
			c-3.944,4.123-7.82,8.172-11.447,11.962c3.902,3.759,8.045,7.749,12.264,11.812C115.796,113.593,119.728,109.61,123.307,105.983z
			 M138.434,88.737c-3.765-3.959-7.637-8.029-11.619-12.216c-4.052,4.293-7.96,8.434-11.493,12.177
			c3.671,3.797,7.619,7.881,11.777,12.183C130.852,96.859,134.679,92.759,138.434,88.737z M93.504,122.265h13.977
			c-3.89-4.105-7.622-8.046-11.312-11.941C94.411,113.459,93.525,117.892,93.504,122.265z M115.241,122.265h22.468
			c-3.651-3.97-7.351-7.996-10.763-11.706C122.867,114.639,118.908,118.599,115.241,122.265z M186.231,110.173
			c-3.849,4.015-7.698,8.029-11.593,12.091h14.577C189.216,117.53,188.221,112.874,186.231,110.173z M156.242,110.181
			c-4.117,4.118-8.129,8.131-11.758,11.761c0.103,0.107,0.206,0.215,0.309,0.322h22.791c0.078-0.079,0.158-0.16,0.237-0.239
			C164.044,118.162,160.134,114.163,156.242,110.181z"/>
		<path style="fill:#FFFFFF;" d="M111.231,217.588c-3.817-4.023-7.655-8.069-11.795-12.432c4.186-4.097,8.028-7.857,11.689-11.44
			c4.002,4.084,7.967,8.128,11.744,11.984C119.414,209.23,115.456,213.272,111.231,217.588z M96.561,209.063
			c-0.29,7.115,2.202,11.906,7.109,15.941c1.532-1.393,2.904-2.639,4.272-3.883C104.151,217.104,100.682,213.43,96.561,209.063z
			 M126.6,209.833c-3.965,4.282-7.821,8.446-11.25,12.148c3.588,3.821,7.469,7.954,11.498,12.245
			c4.032-4.131,7.946-8.139,11.63-11.913C134.456,218.089,130.606,214.043,126.6,209.833z M109.227,232.399
			c4.078,3.662,8.954,5.512,13.999,5.59c-4.231-4.296-8.521-8.651-12.844-13.039C106.193,228.316,105.889,229.401,109.227,232.399z
			 M96.859,201.435c2.058-2.064,4.066-4.153,6.158-6.158c2.102-2.015,4.284-3.944,5.743-5.279c-0.432-0.455-0.853-0.899-1.28-1.351
			H93.504C93.479,193.678,94.601,198.63,96.859,201.435z M115.128,188.76c3.717,3.846,7.61,7.875,11.581,11.984
			c4.019-4.133,7.975-8.201,11.371-11.694c-0.123-0.134-0.247-0.27-0.371-0.403h-22.468
			C115.204,188.684,115.165,188.723,115.128,188.76z M174.639,188.646c-0.312,0.325-0.62,0.646-0.933,0.972
			c3.819,3.649,8.015,7.659,12.364,11.815c2.101-2.996,3.146-7.933,3.146-12.787H174.639z M152.844,205.541
			c-3.854-3.961-7.795-8.013-11.555-11.878c-3.998,4.12-7.942,8.187-11.652,12.012c3.689,3.825,7.574,7.853,11.48,11.901
			C145.179,213.408,149.139,209.344,152.844,205.541z M155.983,200.354c3.895-3.931,7.795-7.867,11.601-11.708h-22.791
			C148.584,192.612,152.391,196.596,155.983,200.354z M156.42,210.191c-4.268,4.141-8.328,8.083-11.902,11.551
			c3.862,4.18,7.664,8.293,11.499,12.443c4.05-4.134,7.968-8.131,11.528-11.765C163.767,218.267,159.945,214.066,156.42,210.191z
			 M129.088,238.848c8.577,2.372,16.283,2.493,24.806-0.384c-4.723-4.343-8.891-8.174-13.25-12.183
			C137.108,230.126,133.337,234.227,129.088,238.848z M183.077,205.396c-4.191-4.197-8.066-8.077-11.62-11.636
			c-4.037,4.047-8.056,8.074-11.784,11.812c3.642,3.851,7.494,7.925,11.621,12.289C175.347,213.574,179.245,209.451,183.077,205.396
			z M179.12,225.062c4.88-4.269,7.378-9.061,7.214-16.077c-4.176,4.397-7.763,8.175-11.582,12.196
			C176.253,222.515,177.583,223.696,179.12,225.062z M172.425,224.963c-4.553,4.547-8.857,8.845-13.034,13.015
			c4.272,0.122,8.544-1.389,12.227-4.092C177.762,229.373,176.501,227.859,172.425,224.963z"/>
		<g>
			<path style="fill:#FFFFFF;" d="M5.392,167.806c2.233,3.995,5.113,6.208,9.73,6.208c3.501,0,6.873-2.471,6.873-6.058
				c0-10.934-19.653-11.941-19.653-26.312c0-6.252,5.283-10.934,11.899-10.934c4.812,0,8.785,2.19,12.438,6.658l-4.64,3.737
				c-2.686-2.964-4.919-4.359-7.39-4.359c-2.899,0-5.585,1.59-5.585,5.177c0,9.021,19.805,11.405,19.805,25.217
				c0,7.626-5.284,13.062-13.877,13.062c-7.26,0-12.179-3.718-14.992-9.281L5.392,167.806z"/>
			<path style="fill:#FFFFFF;" d="M59.24,180.201c-13.661,0-24.745-11.085-24.745-24.746c0-13.662,11.084-24.745,24.745-24.745
				c13.662,0,24.746,11.083,24.746,24.745C83.986,169.116,72.902,180.201,59.24,180.201z M41.369,155.455
				c0,10.053,7.991,18.215,17.871,18.215c9.882,0,17.872-8.162,17.872-18.215s-7.99-18.215-17.872-18.215
				C49.36,137.24,41.369,145.402,41.369,155.455z"/>
			<path style="fill:#FFFFFF;" d="M100.718,173.326h15.122v6.187H93.844v-48.115h6.874V173.326z"/>
			<path style="fill:#FFFFFF;" d="M139.982,138.829c-2.75-2.942-5.22-4.446-8.012-4.446c-3.631,0-7.089,2.041-7.089,6.744
				c0,10.678,20.857,13.061,20.857,26.701c0,7.217-4.876,12.373-12.78,12.373c-6.81,0-11.407-3.288-14.049-8.313l3.351-1.912
				c2.406,4.103,5.607,6.38,10.806,6.38c4.445,0,8.505-3.157,8.505-7.797c0-12.501-20.729-13.469-20.729-27.731
				c0-5.735,4.769-10.117,10.654-10.117c4.426,0,8.033,1.891,11.364,5.8L139.982,138.829z"/>
			<path style="fill:#FFFFFF;" d="M243.3,131.397h4.146v43.798c-4.468,3.05-10.247,5.006-15.788,5.006
				c-10.869,0-19.246-3.159-19.246-18.409v-30.395h4.146v29.041c0,15.079,8.441,16.002,15.101,16.002
				c3.352,0,7.54-0.966,11.643-3.608V131.397z"/>
			<path style="fill:#FFFFFF;" d="M265.38,131.397v44.335h15.594v3.78h-19.718v-48.115H265.38z"/>
			<path style="fill:#FFFFFF;" d="M201.63,155.455c0,13.661-11.062,24.746-24.702,24.746c-13.618,0-24.702-11.085-24.702-24.746
				c0-13.641,11.084-24.745,24.702-24.745C190.568,130.71,201.63,141.814,201.63,155.455z M156.393,155.455
				c0,11.47,9.172,20.857,20.535,20.857c11.364,0,20.557-9.388,20.557-20.857s-9.173-20.857-20.557-20.857
				C165.564,134.598,156.393,143.985,156.393,155.455z"/>
			<g>
				<path style="fill:#FFFFFF;" d="M280.938,131.8v4.716h-0.59V131.8h-1.313v-0.533h3.214v0.533H280.938z"/>
				<path style="fill:#FFFFFF;" d="M285.097,136.666l-1.463-3.72l-0.83,3.569h-0.604l1.27-5.399l1.628,4.114l1.628-4.114
					l1.275,5.399h-0.609l-0.83-3.569L285.097,136.666z"/>
			</g>
		</g>
	</g>
</g>
<g id="Layer_1">
</g>
</svg>
