<?xml version="1.0" encoding="iso-8859-1"?>
<!-- Generator: Adobe Illustrator 16.0.0, SVG Export Plug-In . SVG Version: 6.00 Build 0)  -->
<!DOCTYPE svg PUBLIC "-//W3C//DTD SVG 1.1//EN" "http://www.w3.org/Graphics/SVG/1.1/DTD/svg11.dtd">
<svg version="1.1" id="Layer_1" xmlns="http://www.w3.org/2000/svg" xmlns:xlink="http://www.w3.org/1999/xlink" x="0px" y="0px"
	 width="288px" height="51.124px" viewBox="0 0 288 51.124" style="enable-background:new 0 0 288 51.124;" xml:space="preserve">
<g>
	<g>
		<path style="fill:#FFFFFF;" d="M74.255,49.971c0,0-1.136-0.412-3.144-0.99c-3.766-1.619-7.571-2.98-11.398-3.93
			c-1.275-0.316-2.554-0.588-3.833-0.807c-7.821-2.297-15.621,2.129-22.896,4.198c-5.132,1.368-10.18,0.755-15.243,0.54
			c5.014,1.404,9.605,2.789,14.72,1.816c8.086-1.24,15.024-5.308,22.947-4.431c1.286,0.104,2.574,0.249,3.861,0.435
			c3.861,0.551,7.717,1.448,11.546,2.607C72.038,49.604,73.189,49.787,74.255,49.971z"/>
		<path style="fill:none;" d="M30.583,43.705c-0.077-0.058-0.15-0.125-0.217-0.205C30.437,43.568,30.511,43.637,30.583,43.705z"/>
		<path style="fill-rule:evenodd;clip-rule:evenodd;fill:#FFFFFF;" d="M61.625,25.654c-0.939,0-1.884-0.068-2.814,0.016
			c-1.569,0.142-2.257,1.093-1.792,2.602c0.468,1.518,0.369,2.768-0.778,3.997c-0.981,1.052-0.945,2.826,0.112,3.878
			c1.371,1.361,2.928,2.539,4.425,3.77c0.393,0.322,0.862,0.551,1.297,0.822c-0.031,0.096-0.062,0.192-0.092,0.289
			c-0.354,0.023-0.708,0.075-1.062,0.066c-3.243-0.073-6.486-0.145-9.728-0.254c-0.465-0.016-0.924-0.233-1.36-0.514
			c2.049-0.449,4.136-0.55,5.909-2.061c-2.186-2.26-5.327-1.518-7.827-2.53c0.014-0.124,0.028-0.248,0.043-0.372
			c0.536-0.088,1.07-0.188,1.609-0.256c0.453-0.058,0.973,0.05,1.353-0.138c0.496-0.245,1.24-0.72,1.23-1.077
			c-0.013-0.5-0.539-1.288-0.997-1.418c-1.787-0.509-3.632-0.811-5.457-1.18c-0.784-0.159-1.574-0.296-2.341-0.647
			c3.061-1.286,6.188-0.325,9.271-0.37c0.052-0.117,0.104-0.236,0.157-0.355c-0.795-0.412-1.549-0.961-2.392-1.211
			c-2.043-0.608-4.137-1.043-6.188-1.625c-0.653-0.185-1.238-0.612-1.79-1.13c3.103-0.416,6.024,0.487,9.051,0.891
			c-3.393-2.481-7.298-3.985-10.861-6.088c0.022-0.119,0.045-0.239,0.066-0.358c0.769,0.134,1.588,0.139,2.295,0.425
			c2.545,1.027,5.052,2.15,7.574,3.234c0.506,0.217,1.017,0.423,1.602,0.49c-4.066-4.049-9.222-6.36-14.305-8.785
			c0.052-0.143,0.102-0.286,0.153-0.429c0.552,0.092,1.156,0.072,1.649,0.296c3.364,1.53,6.709,3.104,10.053,4.681
			c0.808,0.381,1.588,0.823,2.381,1.237c0.086-0.12,0.173-0.239,0.26-0.358c-0.652-0.579-1.235-1.272-1.97-1.717
			c-2.349-1.425-4.717-2.827-7.146-4.109c-2.835-1.498-5.743-2.855-8.612-4.287c-0.436-0.218-0.833-0.512-1.247-0.77
			c0.029-0.12,0.059-0.24,0.088-0.36c0.544,0.091,1.117,0.099,1.627,0.284c5.71,2.072,11.363,4.293,16.447,7.683
			c2.599,1.733,5.057,3.676,7.583,5.518c0.882,0.643,1.775,1.267,2.664,1.9C61.72,25.44,61.672,25.547,61.625,25.654z"/>
		<path style="fill-rule:evenodd;clip-rule:evenodd;fill:#FFFFFF;" d="M65.354,38.707c-2.515-0.141-4.587-1.227-6.441-2.757
			c-1.087-0.897-1.233-2.065-0.485-3.272c0.476-0.768,0.676-1.465,0.298-2.348c-0.345-0.806-0.353-1.712,0.373-2.326
			c0.782-0.66,1.729-0.523,2.593-0.107c1.644,0.789,3.26,1.636,4.896,2.439c2.311,1.137,3.053,3.181,3.164,5.545
			c0.056,1.173-0.65,1.951-1.729,2.283C67.16,38.43,66.246,38.532,65.354,38.707z"/>
		<path style="fill-rule:evenodd;clip-rule:evenodd;fill:#FFFFFF;" d="M70.639,32.443c0.511,0.402,1.185,0.705,1.502,1.225
			c1.066,1.75,2.049,3.557,2.977,5.386c0.382,0.754-0.056,1.32-0.817,1.065c-1.139-0.381-2.209-0.703-3.396-0.189
			c-0.188,0.08-0.653-0.19-0.809-0.42c-0.104-0.156,0.019-0.652,0.196-0.781c1.744-1.274,1.346-2.698,0.443-4.261
			c-0.295-0.511-0.304-1.188-0.443-1.788C70.408,32.602,70.523,32.521,70.639,32.443z"/>
		<path style="fill:#FFFFFF;" d="M0.009,2.037c0.223-0.45,0.725-0.975,1.187-1.055c2.319-0.401,4.655-0.874,6.997-0.947
			c9.923-0.308,19.505,1.467,28.757,5.054c6.436,2.495,12.476,5.692,18.067,9.775c6.75,4.929,13.608,9.709,20.416,14.561
			c5.438,3.877,10.86,7.779,16.314,11.634c0.861,0.608,1.861,1.021,2.782,1.55c0.583,0.336,1.136,0.723,1.731,1.105
			c-0.524,1.142-1.271,1.51-2.354,1.279c-3.562-0.76-7.153-1.218-10.8-0.828c-1.056,0.113-2.097,0.375-3.144,0.569
			c-2.509,0.465-5.012,0.96-7.526,1.381c-0.697,0.117-1.431,0.019-2.149-0.194c4.771-1.384,9.54-2.768,14.376-4.17
			c-0.067-0.129-0.122-0.353-0.262-0.482c-3.555-3.294-7.06-6.645-10.697-9.843c-3.031-2.664-6.131-5.267-9.361-7.681
			c-3.94-2.945-8.037-5.683-12.09-8.478c-8.658-5.973-18.4-9.127-28.677-10.742c-4.019-0.631-8.1-0.854-12.154-1.241
			c-0.663-0.063-1.338-0.009-2.025,0.142c1.428,1.15,3.072,1.464,4.819,1.641c2.571,0.259,5.138,0.635,7.685,1.084
			c0.827,0.146,1.586,0.683,2.311,1.257c-3.06-0.573-6.06-0.946-9.197-0.236c0.652,1.673,1.317,2.887,3.319,2.921
			c1.615,0.027,3.227,0.51,4.83,0.84c0.408,0.084,0.776,0.357,1.098,0.798c-1.682,0-3.363,0-5.071,0
			c0.634,2.477,1.341,3.046,3.759,3.031c1.664-0.01,3.252,0.186,4.531,1.517c-0.453-0.077-0.904-0.213-1.358-0.217
			c-0.909-0.007-1.822,0.031-2.729,0.102c-0.874,0.068-0.931,0.721-0.952,1.414c-0.022,0.712,0.185,1.179,0.973,1.258
			c1.797,0.181,3.351,0.985,4.839,1.94c0.291,0.186,0.552,0.418,0.828,0.628c-0.047,0.081-0.093,0.163-0.139,0.243
			c-0.273-0.075-0.544-0.163-0.82-0.223c-0.773-0.169-1.545-0.445-2.323-0.466c-1.912-0.052-1.958,0.118-1.851,1.951
			c0.15,2.578,0.026,2.157,2.454,2.909c1.058,0.327,2.239,0.469,2.993,1.569c-1.284,0-2.478,0.002-3.67,0
			c-0.723-0.001-0.976,0.355-0.994,1.074c-0.046,1.854,0.283,2.402,2.033,3.121c0.846,0.348,1.691,0.7,2.532,1.062
			c0.089,0.038,0.146,0.148,0.315,0.328c-1.018,0-1.918-0.021-2.818,0.005c-1.298,0.038-1.714,0.629-1.259,1.855
			c0.396,1.062,1.07,1.796,2.012,2.232c0.331,0.153,0.691,0.271,1.087,0.353c0.419,0.085,0.828,0.214,1.23,0.368
			c0.443,0.169,0.878,0.371,1.302,0.589c-0.479,0.14-0.875,0.265-1.194,0.39c-1.408,0.554-1.334,1.131-0.426,3.16
			c0.172,0.383,0.383,0.749,0.554,1.133c0.078,0.174,0.167,0.322,0.269,0.445c0.066,0.08,0.14,0.147,0.217,0.205
			c0.828,0.785,1.778,1.564,2.818,2.304c-0.383-0.272-2.073,0.005-2.582-0.011c-0.864-0.025-1.728-0.074-2.59-0.141
			c-1.664-0.129-3.357-0.277-4.999-0.59c1.067-0.224,2.157-0.367,3.232-0.545c1.472-0.244,1.116-0.767,0.221-1.613
			c-1.1-1.04-1.857-2.273-1.747-3.828c0.092-1.275-0.605-1.975-1.625-2.318c-0.967-0.326-1.438-0.69-1.251-1.828
			c0.094-0.566-0.383-1.21-0.52-1.836c-0.199-0.91-0.496-1.845-0.443-2.751c0.091-1.553-0.196-2.876-1.397-3.927
			c-0.859-0.751-1.303-1.481-0.759-2.77c0.496-1.176,0.163-2.488-0.775-3.503c-0.631-0.684-1.16-1.346-1.077-2.411
			c0.029-0.369-0.561-0.927-0.996-1.158c-0.738-0.392-1.228-0.812-1.251-1.719c-0.009-0.283-0.338-0.605-0.593-0.825
			c-0.485-0.417-1.162-0.674-1.512-1.172c-0.938-1.337-1.942-2.546-3.51-3.172C9.064,9.826,8.836,9.664,8.82,9.524
			C8.601,7.713,7.064,7.383,5.773,6.788C5.038,6.45,4.424,6.059,4.714,4.924C2.887,5.322,1.966,4.007,0.845,3.104
			C0.484,2.814-0.08,2.217,0.009,2.037z"/>
		<path style="fill:#FFFFFF;stroke:#FFFFFF;stroke-width:0.3471;stroke-miterlimit:10;" d="M16.301,44.74
			c0,1.442,5.041,2.627,11.476,2.756c-0.382,0.008-0.768,0.012-1.158,0.012c-6.978,0-12.634-1.239-12.634-2.768
			c0-1.303,4.107-2.396,9.64-2.689c0.018,0.057,0.038,0.115,0.059,0.171C19.328,42.659,16.301,43.621,16.301,44.74z"/>
		<path style="fill:#FFFFFF;stroke:#FFFFFF;stroke-width:0.2687;stroke-miterlimit:10;" d="M15.896,49.635
			c-0.413,0.014-0.832,0.02-1.256,0.02c-7.566,0-13.7-2.09-13.7-4.67s6.134-4.672,13.7-4.672c0.424,0,0.843,0.008,1.256,0.021
			c-6.978,0.216-12.444,2.215-12.444,4.65S8.918,49.418,15.896,49.635z"/>
	</g>
	<g>
		<path style="fill:#FFFFFF;" d="M104.57,39.227c1.449,2.593,3.317,4.029,6.315,4.029c2.272,0,4.461-1.604,4.461-3.932
			c0-7.098-12.757-7.752-12.757-17.079c0-4.058,3.43-7.097,7.724-7.097c3.124,0,5.702,1.422,8.073,4.322l-3.012,2.426
			c-1.742-1.924-3.192-2.83-4.796-2.83c-1.883,0-3.625,1.032-3.625,3.36c0,5.855,12.854,7.403,12.854,16.368
			c0,4.949-3.43,8.478-9.007,8.478c-4.712,0-7.905-2.413-9.731-6.023L104.57,39.227z"/>
		<path style="fill:#FFFFFF;" d="M139.521,47.271c-8.867,0-16.062-7.195-16.062-16.062s7.194-16.061,16.062-16.061
			s16.062,7.194,16.062,16.061S148.388,47.271,139.521,47.271z M127.921,31.209c0,6.525,5.187,11.823,11.6,11.823
			s11.6-5.298,11.6-11.823c0-6.524-5.187-11.822-11.6-11.822S127.921,24.685,127.921,31.209z"/>
		<path style="fill:#FFFFFF;" d="M166.442,42.809h9.815v4.016H161.98v-31.23h4.462V42.809z"/>
		<path style="fill:#FFFFFF;" d="M191.927,20.418c-1.785-1.91-3.388-2.886-5.2-2.886c-2.356,0-4.601,1.325-4.601,4.377
			c0,6.93,13.537,8.477,13.537,17.331c0,4.685-3.164,8.031-8.295,8.031c-4.42,0-7.404-2.134-9.119-5.396l2.176-1.24
			c1.562,2.662,3.639,4.141,7.013,4.141c2.886,0,5.521-2.049,5.521-5.061c0-8.115-13.454-8.742-13.454-18
			c0-3.722,3.096-6.567,6.915-6.567c2.873,0,5.215,1.227,7.377,3.765L191.927,20.418z"/>
		<path style="fill:#FFFFFF;" d="M258.987,15.594h2.69v28.427c-2.899,1.98-6.65,3.25-10.247,3.25
			c-7.055,0-12.492-2.051-12.492-11.949V15.594h2.69v18.849c0,9.788,5.479,10.387,9.802,10.387c2.176,0,4.894-0.627,7.557-2.342
			V15.594z"/>
		<path style="fill:#FFFFFF;" d="M273.318,15.594v28.777h10.122v2.453h-12.799v-31.23H273.318z"/>
		<path style="fill:#FFFFFF;" d="M231.941,31.209c0,8.867-7.18,16.062-16.034,16.062c-8.839,0-16.033-7.195-16.033-16.062
			c0-8.853,7.194-16.061,16.033-16.061C224.761,15.148,231.941,22.356,231.941,31.209z M202.579,31.209
			c0,7.445,5.953,13.538,13.328,13.538c7.376,0,13.343-6.093,13.343-13.538c0-7.444-5.953-13.538-13.343-13.538
			C208.532,17.671,202.579,23.765,202.579,31.209z"/>
		<g>
			<path style="fill:#FFFFFF;" d="M283.417,15.855v3.062h-0.384v-3.062h-0.853v-0.346h2.086v0.346H283.417z"/>
			<path style="fill:#FFFFFF;" d="M286.116,19.014l-0.949-2.414l-0.538,2.317h-0.394l0.824-3.505l1.057,2.671l1.057-2.671
				L288,18.917h-0.396l-0.538-2.317L286.116,19.014z"/>
		</g>
	</g>
</g>
</svg>
