<?xml version="1.0" encoding="iso-8859-1"?>
<!-- Generator: Adobe Illustrator 16.0.0, SVG Export Plug-In . SVG Version: 6.00 Build 0)  -->
<!DOCTYPE svg PUBLIC "-//W3C//DTD SVG 1.1//EN" "http://www.w3.org/Graphics/SVG/1.1/DTD/svg11.dtd">
<svg version="1.1" id="Layer_1" xmlns="http://www.w3.org/2000/svg" xmlns:xlink="http://www.w3.org/1999/xlink" x="0px" y="0px"
	 width="252px" height="109.258px" viewBox="0 0 252 109.258" style="enable-background:new 0 0 252 109.258;" xml:space="preserve"
	>
<g>
	<g>
		<path style="fill:#FFFFFF;" d="M158.27,63.079c0,0,1.434-0.522,3.967-1.252c4.756-2.043,9.559-3.763,14.389-4.96
			c1.609-0.399,3.223-0.741,4.838-1.018c9.873-2.899,19.719,2.687,28.902,5.3c6.479,1.727,12.85,0.954,19.242,0.682
			c-6.328,1.771-12.125,3.52-18.582,2.293c-10.207-1.567-18.965-6.7-28.965-5.594c-1.625,0.132-3.25,0.315-4.873,0.548
			c-4.875,0.695-9.742,1.829-14.576,3.292C161.069,62.614,159.616,62.845,158.27,63.079z"/>
		<path style="fill:none;" d="M213.395,55.169c0.098-0.073,0.191-0.158,0.273-0.26C213.581,54.995,213.489,55.083,213.395,55.169z"
			/>
		<path style="fill-rule:evenodd;clip-rule:evenodd;fill:#FFFFFF;" d="M174.211,32.384c1.186,0,2.379-0.087,3.553,0.019
			c1.982,0.18,2.85,1.381,2.262,3.284c-0.59,1.917-0.465,3.493,0.982,5.046c1.24,1.328,1.193,3.566-0.141,4.895
			c-1.73,1.719-3.695,3.204-5.586,4.758c-0.496,0.407-1.088,0.696-1.637,1.037c0.039,0.122,0.078,0.244,0.115,0.366
			c0.447,0.03,0.895,0.095,1.34,0.084c4.094-0.093,8.189-0.182,12.279-0.32c0.588-0.021,1.166-0.296,1.719-0.649
			c-2.588-0.565-5.221-0.693-7.461-2.601c2.76-2.853,6.725-1.914,9.881-3.193c-0.018-0.157-0.037-0.313-0.053-0.471
			c-0.678-0.109-1.354-0.238-2.033-0.323c-0.572-0.072-1.229,0.063-1.707-0.173c-0.627-0.31-1.564-0.907-1.553-1.36
			c0.016-0.63,0.68-1.625,1.258-1.789c2.256-0.642,4.584-1.022,6.889-1.49c0.99-0.2,1.986-0.373,2.955-0.816
			c-3.863-1.623-7.812-0.41-11.703-0.466c-0.066-0.149-0.133-0.299-0.199-0.449c1.004-0.521,1.955-1.213,3.02-1.529
			c2.578-0.768,5.221-1.316,7.811-2.051c0.824-0.233,1.562-0.772,2.26-1.427c-3.918-0.525-7.605,0.614-11.426,1.124
			c4.281-3.131,9.213-5.029,13.711-7.686c-0.027-0.15-0.057-0.301-0.084-0.451c-0.971,0.169-2.006,0.176-2.896,0.536
			c-3.213,1.296-6.379,2.714-9.562,4.082c-0.639,0.274-1.283,0.533-2.02,0.618c5.131-5.111,11.639-8.027,18.055-11.089
			c-0.064-0.181-0.127-0.361-0.193-0.542c-0.697,0.118-1.459,0.092-2.08,0.375c-4.25,1.931-8.471,3.919-12.689,5.909
			c-1.021,0.479-2.006,1.038-3.006,1.561c-0.109-0.151-0.219-0.302-0.328-0.452c0.822-0.731,1.559-1.606,2.486-2.168
			c2.963-1.799,5.953-3.568,9.02-5.188c3.576-1.89,7.248-3.604,10.871-5.41c0.551-0.275,1.051-0.646,1.574-0.973
			c-0.039-0.151-0.076-0.303-0.111-0.453c-0.688,0.114-1.41,0.124-2.055,0.357c-7.207,2.615-14.344,5.419-20.76,9.698
			c-3.281,2.188-6.385,4.641-9.572,6.966c-1.113,0.811-2.24,1.6-3.363,2.398C174.092,32.112,174.153,32.248,174.211,32.384z"/>
		<path style="fill-rule:evenodd;clip-rule:evenodd;fill:#FFFFFF;" d="M169.506,48.859c3.174-0.177,5.789-1.548,8.131-3.48
			c1.373-1.133,1.557-2.606,0.611-4.131c-0.6-0.969-0.852-1.848-0.375-2.963c0.436-1.017,0.445-2.161-0.473-2.937
			c-0.986-0.834-2.182-0.659-3.271-0.137c-2.076,0.998-4.115,2.066-6.18,3.082c-2.918,1.434-3.855,4.014-3.994,6.998
			c-0.07,1.48,0.82,2.463,2.18,2.882C167.225,48.51,168.379,48.639,169.506,48.859z"/>
		<path style="fill-rule:evenodd;clip-rule:evenodd;fill:#FFFFFF;" d="M162.836,40.953c-0.646,0.507-1.498,0.89-1.898,1.546
			c-1.346,2.208-2.586,4.489-3.758,6.798c-0.482,0.952,0.07,1.666,1.033,1.344c1.438-0.479,2.787-0.887,4.285-0.239
			c0.238,0.103,0.826-0.239,1.021-0.529c0.131-0.196-0.025-0.823-0.248-0.986c-2.201-1.608-1.699-3.406-0.559-5.378
			c0.369-0.645,0.383-1.499,0.559-2.257C163.125,41.151,162.981,41.052,162.836,40.953z"/>
		<path style="fill:#FFFFFF;" d="M251.989,2.57c-0.281-0.567-0.914-1.23-1.498-1.331c-2.928-0.507-5.875-1.104-8.83-1.196
			c-12.527-0.388-24.623,1.853-36.301,6.38c-8.123,3.149-15.748,7.186-22.807,12.34c-8.52,6.222-17.178,12.256-25.771,18.379
			c-6.865,4.893-13.707,9.818-20.592,14.686c-1.088,0.768-2.352,1.287-3.514,1.957c-0.736,0.422-1.434,0.91-2.186,1.395
			c0.662,1.44,1.605,1.906,2.973,1.614c4.498-0.959,9.029-1.538,13.633-1.045c1.332,0.143,2.646,0.472,3.969,0.718
			c3.166,0.587,6.326,1.213,9.5,1.743c0.879,0.148,1.807,0.023,2.711-0.245c-6.02-1.746-12.041-3.493-18.145-5.264
			c0.084-0.162,0.152-0.444,0.33-0.609c4.486-4.157,8.912-8.387,13.504-12.424c3.826-3.362,7.738-6.648,11.816-9.695
			c4.975-3.718,10.145-7.174,15.26-10.701c10.932-7.54,23.227-11.521,36.199-13.56c5.072-0.797,10.225-1.079,15.342-1.566
			c0.838-0.08,1.689-0.012,2.557,0.18c-1.803,1.451-3.877,1.848-6.084,2.071c-3.244,0.326-6.484,0.801-9.699,1.368
			c-1.045,0.186-2.004,0.861-2.918,1.587c3.863-0.724,7.65-1.195,11.611-0.3c-0.824,2.112-1.662,3.645-4.191,3.688
			c-2.037,0.034-4.072,0.645-6.098,1.061c-0.514,0.105-0.979,0.45-1.383,1.007c2.121,0,4.244,0,6.4,0
			c-0.801,3.127-1.693,3.846-4.744,3.826c-2.102-0.013-4.105,0.233-5.721,1.914c0.572-0.097,1.143-0.27,1.715-0.274
			c1.148-0.009,2.299,0.039,3.445,0.128c1.104,0.087,1.176,0.911,1.203,1.784c0.027,0.899-0.232,1.488-1.229,1.589
			c-2.268,0.228-4.229,1.243-6.107,2.448c-0.367,0.235-0.697,0.527-1.045,0.793c0.057,0.103,0.115,0.205,0.174,0.308
			c0.346-0.095,0.688-0.206,1.035-0.282c0.977-0.214,1.951-0.562,2.934-0.588c2.412-0.066,2.471,0.148,2.336,2.463
			c-0.191,3.254-0.033,2.723-3.1,3.672c-1.334,0.413-2.826,0.591-3.777,1.98c1.621,0,3.127,0.002,4.633,0
			c0.912-0.001,1.232,0.45,1.254,1.355c0.059,2.342-0.357,3.034-2.564,3.939c-1.068,0.439-2.137,0.885-3.197,1.341
			c-0.111,0.048-0.184,0.188-0.396,0.414c1.283,0,2.42-0.025,3.555,0.007c1.641,0.048,2.164,0.793,1.59,2.341
			c-0.498,1.343-1.352,2.268-2.539,2.819c-0.418,0.192-0.873,0.342-1.373,0.444c-0.527,0.108-1.045,0.271-1.553,0.465
			c-0.559,0.214-1.107,0.468-1.643,0.743c0.605,0.177,1.104,0.334,1.508,0.492c1.777,0.699,1.684,1.427,0.537,3.988
			c-0.217,0.484-0.482,0.945-0.697,1.429c-0.1,0.223-0.213,0.409-0.342,0.563c-0.082,0.102-0.176,0.187-0.273,0.26
			c-1.045,0.99-2.244,1.975-3.557,2.908c0.482-0.344,2.617,0.005,3.258-0.014c1.092-0.033,2.184-0.095,3.27-0.179
			c2.102-0.162,4.238-0.35,6.312-0.744c-1.35-0.282-2.723-0.464-4.082-0.688c-1.857-0.307-1.408-0.967-0.279-2.036
			c1.389-1.312,2.346-2.868,2.205-4.833c-0.113-1.609,0.764-2.491,2.053-2.926c1.221-0.412,1.814-0.871,1.578-2.308
			c-0.117-0.716,0.482-1.527,0.658-2.317c0.25-1.147,0.625-2.328,0.559-3.472c-0.115-1.961,0.248-3.63,1.764-4.956
			c1.084-0.949,1.643-1.871,0.957-3.498c-0.627-1.484-0.205-3.14,0.979-4.422c0.797-0.863,1.465-1.698,1.361-3.043
			c-0.039-0.466,0.707-1.17,1.258-1.462c0.93-0.495,1.547-1.025,1.578-2.169c0.01-0.357,0.426-0.765,0.748-1.042
			c0.613-0.525,1.467-0.851,1.908-1.479c1.184-1.688,2.451-3.215,4.43-4.004c0.207-0.084,0.496-0.287,0.516-0.463
			c0.275-2.288,2.217-2.704,3.846-3.454c0.93-0.428,1.703-0.921,1.336-2.354c2.307,0.503,3.469-1.158,4.887-2.297
			C251.389,3.552,252.1,2.798,251.989,2.57z"/>
		<path style="fill:#FFFFFF;stroke:#FFFFFF;stroke-width:0.4382;stroke-miterlimit:10;" d="M231.424,56.475
			c0,1.821-6.365,3.317-14.486,3.479c0.482,0.01,0.969,0.015,1.463,0.015c8.807,0,15.947-1.564,15.947-3.494
			c0-1.645-5.186-3.023-12.168-3.395c-0.021,0.073-0.049,0.145-0.076,0.217C227.602,53.848,231.424,55.063,231.424,56.475z"/>
		<path style="fill:#FFFFFF;stroke:#FFFFFF;stroke-width:0.3392;stroke-miterlimit:10;" d="M231.934,62.653
			c0.523,0.017,1.053,0.025,1.586,0.025c9.553,0,17.295-2.64,17.295-5.896c0-3.257-7.742-5.896-17.295-5.896
			c-0.533,0-1.062,0.009-1.586,0.026c8.809,0.272,15.709,2.796,15.709,5.87C247.643,59.856,240.743,62.38,231.934,62.653z"/>
	</g>
	<g>
		<path style="fill:#FFFFFF;" d="M4.418,99.103c1.83,3.272,4.188,5.086,7.973,5.086c2.869,0,5.632-2.025,5.632-4.963
			c0-8.958-16.104-9.785-16.104-21.559c0-5.122,4.329-8.958,9.75-8.958c3.942,0,7.197,1.796,10.189,5.456l-3.801,3.062
			c-2.2-2.429-4.03-3.572-6.054-3.572c-2.376,0-4.576,1.302-4.576,4.241c0,7.392,16.227,9.345,16.227,20.661
			c0,6.247-4.33,10.701-11.37,10.701c-5.947,0-9.979-3.046-12.284-7.604L4.418,99.103z"/>
		<path style="fill:#FFFFFF;" d="M48.537,109.258c-11.193,0-20.273-9.082-20.273-20.274c0-11.193,9.08-20.274,20.273-20.274
			c11.192,0,20.273,9.081,20.273,20.274C68.811,100.176,59.729,109.258,48.537,109.258z M33.895,88.983
			c0,8.236,6.547,14.923,14.643,14.923S63.18,97.22,63.18,88.983c0-8.237-6.547-14.924-14.643-14.924S33.895,80.746,33.895,88.983z"
			/>
		<path style="fill:#FFFFFF;" d="M82.52,103.625h12.389v5.068H76.888V69.272h5.632V103.625z"/>
		<path style="fill:#FFFFFF;" d="M114.688,75.361c-2.253-2.411-4.276-3.644-6.563-3.644c-2.975,0-5.808,1.673-5.808,5.527
			c0,8.746,17.088,10.699,17.088,21.875c0,5.913-3.994,10.138-10.471,10.138c-5.579,0-9.345-2.693-11.511-6.812l2.747-1.566
			c1.97,3.361,4.593,5.227,8.853,5.227c3.642,0,6.967-2.586,6.967-6.388c0-10.243-16.981-11.035-16.981-22.72
			c0-4.699,3.906-8.29,8.729-8.29c3.625,0,6.582,1.55,9.312,4.752L114.688,75.361z"/>
		<path style="fill:#FFFFFF;" d="M199.338,69.272h3.395v35.884c-3.66,2.499-8.395,4.102-12.936,4.102
			c-8.902,0-15.766-2.589-15.766-15.083V69.272h3.395v23.793c0,12.355,6.916,13.11,12.371,13.11c2.748,0,6.18-0.791,9.541-2.956
			V69.272z"/>
		<path style="fill:#FFFFFF;" d="M217.428,69.272v36.324h12.775v3.097h-16.154V69.272H217.428z"/>
		<path style="fill:#FFFFFF;" d="M165.198,88.983c0,11.192-9.062,20.274-20.24,20.274c-11.156,0-20.238-9.082-20.238-20.274
			c0-11.176,9.082-20.274,20.238-20.274C156.135,68.709,165.198,77.808,165.198,88.983z M128.135,88.983
			c0,9.397,7.514,17.089,16.822,17.089c9.311,0,16.842-7.691,16.842-17.089s-7.514-17.09-16.842-17.09
			C135.649,71.894,128.135,79.586,128.135,88.983z"/>
		<g>
			<path style="fill:#FFFFFF;" d="M230.174,69.603v3.863h-0.482v-3.863h-1.076v-0.438h2.633v0.438H230.174z"/>
			<path style="fill:#FFFFFF;" d="M233.583,73.589l-1.197-3.047l-0.682,2.924h-0.494l1.039-4.424l1.334,3.371l1.332-3.371
				l1.047,4.424h-0.5l-0.68-2.924L233.583,73.589z"/>
		</g>
	</g>
</g>
</svg>
