<?xml version="1.0" encoding="iso-8859-1"?>
<!-- Generator: Adobe Illustrator 16.0.0, SVG Export Plug-In . SVG Version: 6.00 Build 0)  -->
<!DOCTYPE svg PUBLIC "-//W3C//DTD SVG 1.1//EN" "http://www.w3.org/Graphics/SVG/1.1/DTD/svg11.dtd">
<svg version="1.1" xmlns="http://www.w3.org/2000/svg" xmlns:xlink="http://www.w3.org/1999/xlink" x="0px" y="0px"
	 width="287.999px" height="102.753px" viewBox="0 0 287.999 102.753" style="enable-background:new 0 0 287.999 102.753;"
	 xml:space="preserve">
<g id="redfish">
	<g>
		<path style="fill:#FFFFFF;" d="M65.795,39.51c-5.522,0-9.989,4.562-9.989,10.181c0,5.618,4.467,10.18,9.989,10.18
			s9.988-4.562,9.988-10.18C75.784,44.072,71.318,39.51,65.795,39.51z"/>
		<path style="fill:#FFFFFF;" d="M131.573,38.033c-6.351,0-11.479,5.247-11.479,11.659c0,6.41,5.128,11.656,11.479,11.656
			c6.352,0,11.489-5.246,11.489-11.656C143.062,43.28,137.935,38.033,131.573,38.033z"/>
		<path style="fill:#FFFFFF;" d="M287.642,18.823c-0.614-0.533-3.815-2.147-10.657,0.55c-6.84,2.698-25.54,14.443-30.47,17.677
			c-4.731,3.103-9.554,6.015-11.803,6.431c-5.15,0.023-10.851-0.018-15.967-1.088c-0.173-0.036-0.361-0.079-0.544-0.119
			c-1.295-2.193,2.894-1.814,3.867-1.777c0.992,0.037,1.431-0.277,0.946-1.242c-0.483-0.963-3.415-3.485-4.026-3.603
			c-0.61-0.118-2.275-1.126-2.82-1.713c-0.546-0.589-1.291-0.9-1.764-0.918c-0.472-0.017-2.276-0.417-2.804-0.91
			c-0.685-0.64-1.619-0.959-2.185-1.028c-0.564-0.068-1.49-0.623-1.713-0.962c-0.224-0.339-0.781-0.644-1.307-0.475
			c-0.526,0.169-1.158-0.201-1.561-0.831c-0.402-0.63-1.449-0.464-2.061-0.581c-0.645-0.125-1.18-0.485-1.496-0.861
			c-0.314-0.371-0.743-0.358-1.498-0.387c-0.757-0.028-1.362-0.287-1.818-0.73c-0.455-0.443-0.551-0.398-1.216-0.376
			c-0.662,0.022-1.786-0.304-2.007-0.69c-0.223-0.387-0.835-0.458-1.404-0.384c-0.571,0.074-1.972-0.405-2.146-0.79
			c-0.175-0.385-0.6-0.448-1.31-0.38c-0.713,0.069-1.601-0.201-2.057-0.691c-0.453-0.49-0.982-0.274-1.359-0.287
			c-0.378-0.016-1.363-0.241-1.543-0.484c-0.18-0.243-0.35-0.769-0.823-0.74c-0.475,0.03-1.009,0.388-1.621,0.318
			c-0.61-0.071-0.834-0.41-1.059-0.75c-0.224-0.339-0.593-0.591-0.926-0.555c-0.332,0.035-0.86,0.251-1.473,0.182
			c-0.613-0.072-1.4-0.479-1.532-0.768c-0.131-0.288-0.268-0.435-0.982-0.272c-0.716,0.162-1.7,0.254-2.056-0.267
			c-0.418-0.614-0.693-0.845-1.142-0.673c-0.448,0.172-0.552,0.453-1.552,0.194c-0.61-0.158-0.86-0.601-1.04-0.86
			c-0.18-0.258,0.026-0.692-0.672-0.593c-0.697,0.101-1.331,0.203-1.833,0.121c-0.5-0.082-1.06-0.292-1.226-0.929
			c-0.165-0.637-0.42-0.584-1.187-0.297c-0.768,0.287-1.273,0.331-1.834,0.121c-0.56-0.211-1.104-0.862-1.154-1.179
			c-0.051-0.318-0.365-0.33-0.941-0.099c-0.577,0.23-1.15,0.398-1.958,0.053c-0.807-0.347-1.418-0.811-1.594-1.195
			c-0.175-0.385-0.226-0.702-0.61-0.527c-0.387,0.174-0.97,0.595-1.535,0.572c-0.567-0.021-1.181-0.485-1.483-0.812
			c-0.304-0.327-0.214-1.016-0.473-0.837c-0.26,0.18-0.581,0.357-1.345,0.518c-0.762,0.161-1.942-0.325-2.434-0.66
			c-0.491-0.333-0.218-0.954-0.73-0.72c-0.512,0.233-1.541,0.762-2.566,1.165c-1.023,0.403-2.702-0.227-2.815-0.547
			c-0.114-0.32,0.75-1.549-0.294-0.579c-1.031,0.958-10.54,8.769-14.5,11.137c-0.533-0.061-1.069-0.12-1.605-0.179
			c-0.176-0.258-0.35-0.494-0.491-0.635c-0.472-0.473-0.282-0.661-1.984-0.944c-1.702-0.285-2.079-2.458-1.961-2.907
			c0.13-0.492,0.623-1.11-0.023-0.874c-0.52,0.189-1.087,0.166-1.796-0.283c-1.08-0.684-1.37-1.583-1.56-2.671
			c-0.148-0.859,0.393-1.589-0.046-1.394c-0.639,0.283-0.805,0.473-1.797,0.283c-0.656-0.125-1.866-1.087-2.245-2.056
			c-0.201-0.515-0.144-1.188-0.023-1.536c0.213-0.615,0.133-0.956-0.095-0.756c-0.385,0.333-0.946,0.188-1.795-0.284
			c-0.852-0.472-1.746-1.98-1.253-3.215c0.379-0.943,0.354-1.181,0.046-0.991c-0.509,0.312-1.062,0.567-2.292,0.212
			c-1.184-0.34-2.717-1.228-2.812-2.433c-0.045-0.565,0.071-0.946-0.308-0.662c-0.377,0.283-0.495,0.662-1.418,0.662
			c-0.687,0-2.079-0.473-2.174-0.946c-0.095-0.473,0-1.133-0.377-0.661c-0.379,0.473-1.513,1.323-2.458,1.701
			c-0.946,0.378-2.741-0.283-3.025-0.85c-0.284-0.567,1.134-1.891-0.377-0.946C96.181,1.256,87.003,12.96,83.604,20.724
			c-12.824,0.54-25.808,1.787-32.273,3.576c-11.506,3.182-20.818,7.678-26.597,11.219c-4.7,2.879-12.589,8.305-14.262,9.74
			c-1.676,1.435-4.86,3.928-7.791,7.751c-1.34,1.752-2.407,4.438-2.659,7.454c-0.253,3.015,1.72,2.773,3.568,2.938
			c1.851,0.164,8.97,1.147,12.581,1.977c-0.882,0.829-8.468,0.022-10.145-0.448c-1.679-0.472-3.239-0.054-3.275,0.606
			c-0.037,0.66,2.354,3.379,6.579,4.688c8.152,2.528,22.052,2.867,23.835,2.632c1.781-0.235,9.535,0.67,14.616,0.174
			c7.005,1.06,24.479,1.169,27.125,1.106c0.679-0.016,1.717-0.007,3.253,0.027c0.126,0.232,0.265,0.48,0.416,0.742
			c3.292,6.752,13.513,22.732,18.633,26.874c0.857,0.694,1.715,1.203,2.423-0.312c0.299,0.242,0.59,0.467,0.86,0.656
			c0.994,0.693,1.975,1.195,2.609-0.647s0.98-2.339,1.138-2.823c0.156-0.484,0.276-1.534,0.514-2.213
			c0.24-0.68-0.193-1.503,0.229-2.289c0.42-0.785,0.269-1.629,0.497-2.496c0.225-0.868-0.323-1.968-0.103-2.93
			c0.221-0.963-0.081-2.646-0.132-3.401c-0.05-0.755-0.29-2.919-0.535-3.754c-0.244-0.837-0.704-3.458-1.931-4.798
			c-0.792-0.864-2.171-1.49-4.298-1.973c2.733,0.09,5.757,0.189,9.106,0.297c21.953,0.711,47.269-2.328,50.684-2.578
			c3.039-0.222,6.48-0.137,9.736-0.086c4.271,2.462,10.062,8.676,13.755,11.969c4.052,3.611,7.633,7.037,10.307,7.207
			c2.674,0.169,4.915-2.736,5.218-7.307c0.303-4.572,3.961-4.969,3.989-9.816c0.029-4.85-1.073-8.012-5.215-7.52
			c-1.561,0.186-2.052-0.099-1.997-0.526c6.905-1.503,15.723-3.259,21.91-3.477c6.652-0.234,12.495-0.559,18.159-0.748
			c2.52,0.313,5.451,0.99,8.92,2.625c7.3,3.44,23.487,12.171,30.368,14.589c6.882,2.417,9.106,0.783,9.336-0.036
			c0.229-0.82-0.71-1.672-2.123-3.638c-1.413-1.967-2.829-7.074-3.204-9.241c-0.375-2.166-0.553-11.345-0.579-16.161
			c-0.024-4.817,0.131-12.038,0.892-15.456c0.762-3.418,3.732-8.771,5.771-11.145C285.552,21.38,289.142,20.126,287.642,18.823z
			 M41.064,63.521c-4.058,0-6.808-2.078-8.38-5.188l3.014-1.74c1.248,2.232,2.856,3.47,5.438,3.47c1.957,0,3.841-1.381,3.841-3.386
			c0-6.111-10.984-6.675-10.984-14.706c0-3.494,2.953-6.112,6.65-6.112c2.69,0,4.91,1.224,6.952,3.722l-2.593,2.089
			c-1.501-1.657-2.75-2.437-4.131-2.437c-1.621,0-3.122,0.888-3.122,2.894c0,5.042,11.07,6.375,11.07,14.094
			C48.82,60.483,45.866,63.521,41.064,63.521z M65.795,63.521c-7.637,0-13.832-6.195-13.832-13.83
			c0-7.637,6.195-13.832,13.832-13.832c7.636,0,13.83,6.195,13.83,13.832C79.625,57.326,73.431,63.521,65.795,63.521z
			 M97.429,63.137H85.135V36.244h3.842V59.68h8.452V63.137z M106.998,63.521c-3.807,0-6.376-1.838-7.853-4.646l1.873-1.068
			c1.346,2.293,3.133,3.565,6.039,3.565c2.485,0,4.755-1.765,4.755-4.357c0-6.988-11.586-7.528-11.586-15.5
			c0-3.206,2.665-5.655,5.955-5.655c2.473,0,4.49,1.056,6.352,3.242l-1.609,1.296c-1.537-1.645-2.917-2.485-4.479-2.485
			c-2.028,0-3.962,1.14-3.962,3.769c0,5.968,11.658,7.3,11.658,14.923C114.141,60.641,111.416,63.521,106.998,63.521z
			 M131.573,63.521c-7.611,0-13.807-6.195-13.807-13.83c0-7.624,6.195-13.832,13.807-13.832c7.623,0,13.806,6.208,13.806,13.832
			C145.379,57.326,139.196,63.521,131.573,63.521z M170.985,60.723c-2.496,1.706-5.727,2.799-8.823,2.799
			c-6.075,0-10.758-1.766-10.758-10.289V36.244h2.317v16.231c0,8.43,4.718,8.945,8.44,8.945c1.873,0,4.214-0.54,6.507-2.017v-23.16
			h2.316V60.723z M188.643,36.17h1.796v0.299h-0.732v2.636h-0.329v-2.636h-0.734V36.17z M189.726,63.137h-11.021V36.244h2.305v24.78
			h8.716V63.137z M193.312,39.105l-0.463-1.995l-0.819,2.079l-0.817-2.079l-0.464,1.995h-0.338l0.709-3.018l0.91,2.299l0.91-2.299
			l0.713,3.018H193.312z M244.07,53.508c-1.198-0.369-1.982-1.232-1.92-2.537c0.123-2.626,0.947-4.897,3.516-6.16
			c1.817-0.894,3.613-1.834,5.439-2.711c0.96-0.461,2.012-0.615,2.881,0.12c0.807,0.682,0.798,1.689,0.415,2.583
			c-0.421,0.983-0.198,1.756,0.33,2.609c0.831,1.342,0.67,2.638-0.538,3.635c-2.061,1.701-4.364,2.909-7.157,3.064
			C246.045,53.917,245.03,53.803,244.07,53.508z M281.198,23.414c-3.188,1.591-6.42,3.099-9.569,4.763
			c-2.698,1.425-5.329,2.982-7.938,4.566c-0.815,0.495-1.463,1.265-2.188,1.908c0.096,0.132,0.191,0.265,0.288,0.397
			c0.881-0.459,1.747-0.951,2.646-1.374c3.714-1.751,7.431-3.501,11.168-5.201c0.548-0.249,1.22-0.226,1.834-0.329
			c0.057,0.159,0.113,0.318,0.17,0.477c-5.647,2.695-11.376,5.262-15.894,9.76c0.649-0.075,1.218-0.303,1.779-0.544
			c2.803-1.205,5.588-2.452,8.415-3.592c0.786-0.318,1.697-0.324,2.55-0.473c0.024,0.133,0.05,0.265,0.074,0.398
			c-3.959,2.337-8.299,4.008-12.067,6.764c3.362-0.449,6.609-1.452,10.056-0.989c-0.614,0.575-1.262,1.049-1.988,1.255
			c-2.279,0.646-4.604,1.128-6.875,1.805c-0.936,0.278-1.774,0.887-2.657,1.346c0.059,0.131,0.116,0.263,0.175,0.396
			c3.425,0.049,6.901-1.019,10.302,0.41c-0.853,0.39-1.729,0.542-2.602,0.719c-2.028,0.41-4.078,0.746-6.063,1.31
			c-0.509,0.145-1.092,1.021-1.108,1.576c-0.01,0.398,0.817,0.925,1.368,1.197c0.422,0.208,0.999,0.089,1.503,0.152
			c0.598,0.075,1.192,0.188,1.788,0.285c0.016,0.138,0.032,0.276,0.048,0.414c-2.777,1.125-6.269,0.299-8.696,2.811
			c1.971,1.678,4.288,1.79,6.565,2.289c-0.485,0.311-0.995,0.554-1.511,0.571c-3.603,0.122-7.206,0.2-10.809,0.282
			c-0.393,0.008-0.786-0.048-1.179-0.074c-0.034-0.107-0.068-0.215-0.103-0.322c0.483-0.301,1.004-0.555,1.44-0.912
			c1.663-1.368,3.395-2.676,4.916-4.189c1.175-1.169,1.216-3.14,0.125-4.308c-1.274-1.366-1.384-2.754-0.864-4.44
			c0.518-1.676-0.249-2.733-1.991-2.891c-1.034-0.093-2.084-0.017-3.126-0.017c-0.054-0.119-0.106-0.238-0.159-0.357
			c0.986-0.703,1.98-1.397,2.96-2.111c2.807-2.046,5.537-4.206,8.424-6.131c5.648-3.766,11.931-6.234,18.275-8.536
			c0.565-0.205,1.201-0.214,1.806-0.315c0.033,0.133,0.065,0.266,0.098,0.399C282.122,22.846,281.682,23.172,281.198,23.414z"/>
	</g>
</g>
<g id="Layer_1">
</g>
</svg>
