<?xml version="1.0" encoding="iso-8859-1"?>
<!-- Generator: Adobe Illustrator 16.0.0, SVG Export Plug-In . SVG Version: 6.00 Build 0)  -->
<!DOCTYPE svg PUBLIC "-//W3C//DTD SVG 1.1//EN" "http://www.w3.org/Graphics/SVG/1.1/DTD/svg11.dtd">
<svg version="1.1" xmlns="http://www.w3.org/2000/svg" xmlns:xlink="http://www.w3.org/1999/xlink" x="0px" y="0px" width="288px"
	 height="63.004px" viewBox="0 0 288 63.004" style="enable-background:new 0 0 288 63.004;" xml:space="preserve">
<g id="redfish_1.1">
	<g>
		<path style="fill:#FFFFFF;" d="M72.728,37.035c-5.522,0-9.989,4.561-9.989,10.18s4.467,10.181,9.989,10.181
			s9.988-4.562,9.988-10.181S78.25,37.035,72.728,37.035z"/>
		<path style="fill:#FFFFFF;" d="M138.505,35.557c-6.351,0-11.479,5.248-11.479,11.658c0,6.411,5.128,11.657,11.479,11.657
			c6.352,0,11.49-5.246,11.49-11.657C149.995,40.805,144.868,35.557,138.505,35.557z"/>
		<path style="fill:#FFFFFF;" d="M287.644,18.823c-0.614-0.533-3.815-2.148-10.657,0.55c-6.84,2.697-25.54,14.443-30.47,17.678
			c-4.731,3.103-9.554,6.014-11.803,6.43c-5.15,0.023-10.851-0.018-15.967-1.088c-0.173-0.035-0.361-0.078-0.544-0.119
			c-1.295-2.192,2.894-1.812,3.867-1.775c0.992,0.036,1.431-0.277,0.946-1.243c-0.483-0.963-3.415-3.485-4.026-3.603
			c-0.61-0.117-2.275-1.126-2.82-1.713c-0.546-0.589-1.291-0.9-1.764-0.918c-0.472-0.018-2.276-0.416-2.804-0.91
			c-0.685-0.641-1.619-0.959-2.185-1.027c-0.564-0.068-1.49-0.623-1.713-0.963c-0.224-0.339-0.781-0.644-1.307-0.475
			c-0.526,0.17-1.158-0.201-1.561-0.83c-0.402-0.631-1.449-0.465-2.061-0.582c-0.645-0.125-1.18-0.484-1.496-0.861
			c-0.314-0.37-0.743-0.357-1.498-0.387c-0.757-0.027-1.362-0.287-1.818-0.73c-0.455-0.442-0.551-0.398-1.216-0.376
			c-0.662,0.022-1.786-0.304-2.007-0.69c-0.223-0.387-0.835-0.457-1.404-0.384c-0.571,0.073-1.972-0.405-2.146-0.79
			s-0.6-0.447-1.31-0.38c-0.713,0.068-1.601-0.201-2.057-0.691c-0.453-0.49-0.982-0.274-1.359-0.287
			c-0.378-0.016-1.363-0.241-1.543-0.485c-0.18-0.242-0.35-0.768-0.823-0.739c-0.475,0.03-1.009,0.388-1.621,0.318
			c-0.61-0.071-0.834-0.41-1.059-0.75c-0.224-0.339-0.593-0.591-0.926-0.555c-0.332,0.035-0.86,0.251-1.473,0.182
			c-0.613-0.072-1.4-0.479-1.532-0.768c-0.131-0.288-0.268-0.435-0.982-0.272c-0.716,0.161-1.7,0.254-2.056-0.267
			c-0.418-0.614-0.693-0.845-1.142-0.673c-0.448,0.172-0.552,0.452-1.552,0.194c-0.61-0.158-0.86-0.601-1.04-0.86
			c-0.18-0.258,0.026-0.692-0.672-0.593c-0.697,0.101-1.331,0.203-1.833,0.121c-0.5-0.081-1.06-0.292-1.226-0.928
			c-0.165-0.637-0.42-0.584-1.187-0.297c-0.768,0.287-1.273,0.331-1.834,0.121c-0.56-0.211-1.104-0.862-1.154-1.179
			c-0.051-0.318-0.365-0.33-0.941-0.099c-0.577,0.23-1.15,0.398-1.958,0.053c-0.807-0.347-1.418-0.811-1.594-1.195
			c-0.175-0.385-0.226-0.702-0.61-0.527c-0.387,0.174-0.97,0.595-1.535,0.573c-0.567-0.021-1.181-0.485-1.483-0.812
			c-0.304-0.327-0.214-1.016-0.473-0.837c-0.26,0.18-0.581,0.357-1.345,0.518c-0.762,0.16-1.942-0.325-2.434-0.66
			c-0.491-0.333-0.218-0.954-0.73-0.72c-0.512,0.233-1.541,0.762-2.566,1.165c-1.023,0.403-2.703-0.227-2.816-0.547
			c-0.114-0.32,0.75-1.549-0.294-0.579c-1.031,0.958-10.541,8.769-14.501,11.137c-0.534-0.061-1.069-0.12-1.604-0.18
			c-0.176-0.258-0.35-0.494-0.491-0.635c-0.472-0.472-0.282-0.661-1.984-0.944c-1.702-0.284-2.079-2.457-1.961-2.907
			c0.13-0.492,0.623-1.11-0.024-0.874c-0.519,0.189-1.087,0.165-1.795-0.284c-1.081-0.684-1.371-1.583-1.561-2.671
			c-0.148-0.858,0.394-1.589-0.046-1.393c-0.639,0.283-0.804,0.473-1.797,0.283c-0.655-0.125-1.866-1.087-2.244-2.056
			c-0.201-0.514-0.145-1.188-0.024-1.536c0.213-0.615,0.134-0.955-0.094-0.756c-0.386,0.333-0.946,0.188-1.796-0.285
			c-0.852-0.472-1.747-1.98-1.252-3.214c0.378-0.944,0.354-1.181,0.046-0.991c-0.509,0.312-1.062,0.567-2.292,0.212
			c-1.184-0.34-2.718-1.228-2.812-2.433c-0.045-0.565,0.07-0.946-0.308-0.662c-0.377,0.283-0.496,0.662-1.418,0.662
			c-0.688,0-2.079-0.473-2.174-0.946c-0.095-0.473,0-1.133-0.378-0.661c-0.378,0.473-1.513,1.323-2.457,1.701
			c-0.946,0.378-2.742-0.283-3.025-0.85c-0.284-0.566,1.134-1.89-0.378-0.945c-1.48,0.926-10.659,12.629-14.059,20.393
			c-12.824,0.54-25.808,1.786-32.272,3.575c-11.506,3.183-20.819,7.678-26.597,11.22c-4.7,2.879-12.59,8.305-14.263,9.739
			c-1.675,1.436-4.86,3.929-7.79,7.752c-1.341,1.752-2.407,4.438-2.66,7.454c-0.127,1.51,0.305,2.202,0.999,2.54h214.146
			c0.272-0.016,0.546-0.031,0.809-0.041c6.652-0.233,12.495-0.558,18.159-0.748c1.227,0.152,2.554,0.395,3.989,0.789h39.024
			c-0.184-3.746-0.277-9.27-0.296-12.65c-0.024-4.818,0.131-12.037,0.892-15.456c0.762-3.419,3.732-8.771,5.771-11.146
			C285.554,21.379,289.144,20.126,287.644,18.823z M47.997,61.046c-4.058,0-6.808-2.078-8.38-5.187l3.014-1.741
			c1.248,2.233,2.856,3.47,5.438,3.47c1.957,0,3.841-1.381,3.841-3.386c0-6.111-10.984-6.675-10.984-14.706
			c0-3.494,2.953-6.111,6.65-6.111c2.69,0,4.91,1.224,6.952,3.722l-2.593,2.089c-1.501-1.656-2.75-2.438-4.131-2.438
			c-1.621,0-3.122,0.889-3.122,2.894c0,5.042,11.07,6.374,11.07,14.095C55.752,58.008,52.798,61.046,47.997,61.046z M72.728,61.046
			c-7.637,0-13.832-6.196-13.832-13.831c0-7.636,6.195-13.83,13.832-13.83c7.636,0,13.83,6.194,13.83,13.83
			C86.558,54.85,80.364,61.046,72.728,61.046z M104.362,60.661H92.068V33.768h3.842v23.437h8.452V60.661z M113.93,61.046
			c-3.807,0-6.376-1.837-7.853-4.646l1.873-1.068c1.346,2.292,3.133,3.565,6.039,3.565c2.485,0,4.755-1.766,4.755-4.357
			c0-6.988-11.586-7.528-11.586-15.5c0-3.205,2.665-5.654,5.955-5.654c2.473,0,4.49,1.056,6.352,3.24l-1.609,1.297
			c-1.537-1.645-2.917-2.484-4.479-2.484c-2.028,0-3.962,1.14-3.962,3.77c0,5.967,11.658,7.3,11.658,14.923
			C121.074,58.164,118.348,61.046,113.93,61.046z M138.505,61.046c-7.611,0-13.807-6.196-13.807-13.831
			c0-7.623,6.195-13.83,13.807-13.83c7.624,0,13.807,6.207,13.807,13.83C152.312,54.85,146.129,61.046,138.505,61.046z
			 M177.919,58.248c-2.496,1.705-5.727,2.798-8.823,2.798c-6.075,0-10.758-1.766-10.758-10.289V33.768h2.317V50
			c0,8.428,4.718,8.943,8.44,8.943c1.873,0,4.214-0.539,6.507-2.016v-23.16h2.316V58.248z M195.576,33.695h1.796v0.299h-0.732v2.635
			h-0.329v-2.635h-0.734V33.695z M196.659,60.661h-11.021V33.768h2.305v24.781h8.716V60.661z M200.246,36.629l-0.463-1.994
			l-0.819,2.079l-0.817-2.079l-0.464,1.994h-0.338l0.709-3.018l0.91,2.3l0.91-2.3l0.712,3.018H200.246z M244.072,53.096
			c-1.198-0.37-1.982-1.234-1.92-2.537c0.123-2.627,0.947-4.898,3.516-6.16c1.817-0.895,3.613-1.834,5.439-2.711
			c0.96-0.461,2.012-0.615,2.881,0.119c0.807,0.683,0.798,1.689,0.415,2.584c-0.421,0.982-0.198,1.756,0.33,2.609
			c0.831,1.342,0.67,2.638-0.538,3.635c-2.061,1.7-4.364,2.908-7.157,3.064C246.047,53.504,245.032,53.391,244.072,53.096z
			 M281.2,23.001c-3.188,1.591-6.42,3.099-9.569,4.763c-2.698,1.426-5.329,2.982-7.938,4.566c-0.815,0.494-1.463,1.264-2.188,1.908
			c0.096,0.132,0.191,0.265,0.288,0.396c0.881-0.459,1.747-0.95,2.646-1.373c3.714-1.752,7.431-3.502,11.168-5.201
			c0.548-0.25,1.22-0.227,1.834-0.33c0.057,0.16,0.113,0.318,0.17,0.477c-5.647,2.695-11.376,5.262-15.894,9.761
			c0.649-0.075,1.218-0.304,1.779-0.544c2.803-1.205,5.588-2.451,8.415-3.592c0.786-0.318,1.697-0.324,2.55-0.473
			c0.024,0.133,0.05,0.265,0.074,0.397c-3.959,2.337-8.299,4.009-12.067,6.765c3.362-0.449,6.609-1.452,10.056-0.99
			c-0.614,0.575-1.262,1.051-1.988,1.256c-2.279,0.646-4.604,1.129-6.875,1.805c-0.936,0.279-1.774,0.888-2.657,1.347
			c0.059,0.132,0.116,0.263,0.175,0.396c3.425,0.049,6.901-1.019,10.302,0.41c-0.853,0.391-1.729,0.543-2.602,0.719
			c-2.028,0.411-4.078,0.746-6.063,1.311c-0.509,0.145-1.092,1.021-1.108,1.576c-0.01,0.398,0.817,0.924,1.368,1.196
			c0.422,0.208,0.999,0.09,1.503,0.152c0.598,0.075,1.192,0.188,1.788,0.285c0.016,0.138,0.032,0.275,0.048,0.413
			c-2.777,1.127-6.269,0.3-8.696,2.811c1.971,1.68,4.288,1.791,6.565,2.289c-0.485,0.312-0.995,0.555-1.511,0.572
			c-3.603,0.121-7.206,0.2-10.809,0.281c-0.393,0.01-0.786-0.047-1.179-0.072c-0.034-0.107-0.068-0.215-0.103-0.322
			c0.483-0.302,1.004-0.555,1.44-0.914c1.663-1.367,3.395-2.675,4.916-4.188c1.175-1.169,1.216-3.141,0.125-4.309
			c-1.274-1.365-1.384-2.754-0.864-4.44c0.518-1.675-0.249-2.733-1.991-2.892c-1.034-0.093-2.084-0.016-3.126-0.016
			c-0.054-0.119-0.106-0.238-0.159-0.357c0.986-0.703,1.98-1.397,2.96-2.111c2.807-2.047,5.537-4.206,8.424-6.131
			c5.648-3.767,11.931-6.234,18.275-8.536c0.565-0.205,1.201-0.215,1.806-0.315c0.033,0.133,0.065,0.266,0.098,0.399
			C282.124,22.433,281.684,22.76,281.2,23.001z"/>
	</g>
</g>
<g id="Layer_1">
</g>
</svg>
