<?xml version="1.0" encoding="iso-8859-1"?>
<!-- Generator: Adobe Illustrator 16.0.0, SVG Export Plug-In . SVG Version: 6.00 Build 0)  -->
<!DOCTYPE svg PUBLIC "-//W3C//DTD SVG 1.1//EN" "http://www.w3.org/Graphics/SVG/1.1/DTD/svg11.dtd">
<svg version="1.1" xmlns="http://www.w3.org/2000/svg" xmlns:xlink="http://www.w3.org/1999/xlink" x="0px" y="0px" width="288px"
	 height="164.613px" viewBox="0 0 288 164.613" style="enable-background:new 0 0 288 164.613;" xml:space="preserve">
<g id="roosterfish">
	<g>
		<path style="fill:#FFFFFF;" d="M65.838,102.083c-5.782,0-10.457,4.775-10.457,10.657c0,5.883,4.675,10.658,10.457,10.658
			c5.781,0,10.457-4.775,10.457-10.658C76.295,106.858,71.619,102.083,65.838,102.083z"/>
		<path style="fill:#FFFFFF;" d="M134.699,100.536c-6.648,0-12.016,5.493-12.016,12.204s5.367,12.204,12.016,12.204
			c6.649,0,12.029-5.493,12.029-12.204S141.361,100.536,134.699,100.536z"/>
		<path style="fill:#FFFFFF;" d="M287.473,153.589c-1.32,0.034-6.003-3.262-8.858-5.258s-6.53-7.15-6.53-7.15
			s-11.017-15.41-17.197-21.591c-2.899-2.899-2.792-10.846-0.337-12.875c4.882-4.032,12.835-14.012,16.396-17.668
			c3.558-3.656,9.354-12.636,14.301-16.483c2.182-1.697,7.312-5.373-6.555-0.771c-13.871,4.602-29.054,19.613-33.876,24.461
			c-3.761,3.779-7.595,6.487-13.579,7.729c-0.252-0.015-0.505-0.029-0.773-0.029c-2.644,0-8.324-0.524-15.368-1.36
			c0.96-0.041,1.419-0.121,1.31-0.215c-0.848-0.727,0.849-1.697,2.786-2.303c1.941-0.607,6.305-0.727,7.273-0.969
			c0.969-0.243,1.091-0.607,0.605-0.729c-0.483-0.121-1.211-0.121-2.908-0.848c-1.696-0.728-3.029-0.605-3.878-1.09
			c-0.849-0.485-1.334,0.362-2.788-0.364c-1.453-0.728-1.939,0.242-3.152-0.121c-1.211-0.364-1.696,0.241-3.15-0.85
			c-1.454-1.09-1.332,0.607-2.182-0.12c-0.847-0.728-2.423,0.242-3.758-0.85c-1.332-1.09-1.574,0.364-2.423-0.483
			c-0.849-0.849-3.272,0.605-4.606-0.364c-1.332-0.971-1.332,0.484-2.423-0.242c-1.091-0.729-2.182,0.363-2.909-0.484
			c-0.727-0.85-1.09,0.484-2.425-0.244c-1.332-0.726-2.303,0.244-4.241-0.969c-1.939-1.212-2.181,0.243-3.03-0.606
			c-0.849-0.848-1.939,0.122-3.514-0.728c-1.576-0.848-2.425,0.122-3.516-0.969s-1.091,0.485-2.545-0.727
			c-1.454-1.213-1.939,0.484-3.03-0.849s-2.182-0.243-3.03-1.091c-0.849-0.849-2.06,0.363-2.908-0.728
			c-0.92-1.184-1.696,0.364-3.272-0.97c-1.576-1.333-2.545,0.121-3.15-0.728c-0.607-0.849-2.184-0.363-2.789-1.211
			c-0.604-0.849-2.147-0.331-3.03-1.213c-1.454-1.454-2.545-0.242-3.636-1.333c-1.09-1.091-2.181,0.122-2.545-1.091
			c-0.363-1.211-2.181,0.182-2.91-0.909c-0.726-1.091-1.574,0.122-1.938-0.969c-0.362-1.091-1.939-0.122-2.665-0.97
			c-0.729-0.849-1.966-0.554-2.425-1.091c-1.091-1.272-1.825,0.05-2.787-1.394c-0.485-0.728-1.939-0.606-1.939-0.606
			s0,0-0.728-0.606c-0.727-0.607-2.062-0.364-2.183-0.97c-0.12-0.606,1.697-1.575-0.728-0.969
			c-4.28,1.071-13.477,5.448-17.806,9.523c-1.278-0.032-2.378-0.005-3.403-0.191c-0.136-0.024-0.302-0.056-0.481-0.09
			c-0.198-0.159-0.263-0.331-0.124-0.516c11.624-15.5,37.571-28.239,67.022-31.391c9.478-1.015,3.878-1.333,0.122-0.97
			c-37.058,3.587-55.024,15.635-71.387,28.482c-1.576-1.575,0.768-3.619,7.029-8.969c6.666-5.696,25.937-19.876,62.659-24.725
			c6.158-0.813,2.425-0.969,0-0.728c-42.876,4.29-64.113,21.695-72.839,30.542c-1.093-2.059,3.695-5.392,7.27-8.968
			c7.637-7.635,24.606-23.997,56.238-28.361c10.275-1.417,4.241-1.091,0-0.727c-32.637,2.798-54.177,22.786-66.297,34.784
			c-1.939-0.605,2.196-4.523,5.697-8.968c9.453-11.999,30.3-28.119,54.539-34.178c2.903-0.727,3.863-1.566-0.242-0.605
			c-9.332,2.18-37.451,7.756-63.388,40.964c-1.454-0.847,2.254-6.525,5.575-11.271c8.484-12.121,22.058-28.24,47.753-38.42
			c6.804-2.697,1.333-1.698-0.242-1.092c-11.052,4.25-34.057,13.211-56.602,46.177c-0.874,1.281-0.362-3.757,4.729-11.272
			c10.047-14.833,21.208-30.906,39.025-41.329c6.011-3.516,1.09-1.454-0.364-0.727c-14.603,7.302-31.995,24.724-46.297,48.843
			c-1.166,1.966-0.971-3.757,1.574-10.059c9.805-24.276,27.158-39.641,33.089-44.724c2.545-2.181,1.332-1.938-0.242-0.848
			C100.495,14.69,89.267,35.355,84.54,45.536c-4.22,9.091-8.909,19.826-8.487,31.08c-2.287,0.306-3.533,1.415-6.179,1.645
			c-12.976,1.127-38.54,5.15-54.297,20.18c-1.414,1.349-8.12,8.968-10.181,11.271c-0.571,0.639-1.09,1.092-0.908,2.183
			c-0.909-0.364-1.272,0.545-1.818,1.272c-0.545,0.727-0.545,1.454,0.909,2.363s8.605,8.787,10.241,10.969
			c0,0-1.879-0.424-3.938-1.152c-2.062-0.726-6.908-1.938-8.12-2.545c-1.213-0.605-2.182,0.121-1.576,2.182
			c1.611,5.48,15.998,10.666,20.239,10.666s15.877,3.271,22.665,3.516c5.939,0.969,15.514,2.544,19.513,2.423
			c1.937-0.059,4.278-0.115,6.97-0.077c2.414,6.585,10.518,20.036,16.249,22.659c2.599,1.189,1.97-0.219,1.456-1.742
			c-0.513-1.523-1.811-7.884-1.944-9.539c-0.134-1.654,0.229-7.66,1.526-8.729c0.948-0.779,1.569-0.893,0.719-1.396
			c35.864,2.338,70.416-3.764,73.681-4.328c3.006-0.517,3.004,0.29,4.679,0.233c5.309,3.603,13.148,8.492,17.826,9.864
			c1.988,0.582,1.741,0.199,1.376-1.261c-0.363-1.459-0.114-1.666-0.234-2.626c-0.118-0.958,0.872,0.101,1.004-1.304
			c0.133-1.401,1.124-0.815,1.13-1.879c0.007-1.063,1.244-0.212,1.623-1.231c0.38-1.021,2.354-0.196,2.868-1.1
			c0.918-1.62,1.619-0.277,2.247-1.15c0.627-0.874,2.363-0.319,3.117-1.533c0.814-1.315,1.754-0.104,2.744-1.341
			c0.709-0.884,1.861,0.121,2.619-1.117c0.634-1.039,1.142,0.128,2.18-0.857c0.789-0.748,2.363-0.363,2.908-1.271
			c0.588-0.979,1.769-0.513,2.271-1.4c0.501-0.887,1.493-0.301,1.869-0.849c0.378-0.548,2.612,0.062,3.365-1.151
			c0.754-1.214,1.119,0.012,2.122-1.293c1.002-1.303,1.741-0.036,2.245-1.041c0.503-1.007,1.745-0.629,1.996-1.19
			c0.254-0.562,1.73-0.212,1.736-0.802c0.004-0.592-2.7-0.575-4.606-0.606c-2.637-0.044-4.149-0.138-5.33-0.305
			c3.163-0.807,8.804-2.051,12.492-2.464c0.199,0.076,0.397,0.117,0.595,0.102c3.152-0.242,6.397-0.421,12.967,5.33
			c6.57,5.752,19.471,19.438,33.443,25.621C286.484,157.997,288.794,153.554,287.473,153.589z M39.946,127.22
			c-4.247,0-7.125-2.175-8.771-5.431l3.154-1.822c1.308,2.338,2.991,3.633,5.693,3.633c2.049,0,4.022-1.445,4.022-3.545
			c0-6.397-11.5-6.988-11.5-15.396c0-3.657,3.092-6.397,6.962-6.397c2.817,0,5.142,1.281,7.278,3.896l-2.716,2.187
			c-1.57-1.735-2.877-2.552-4.322-2.552c-1.697,0-3.269,0.93-3.269,3.029c0,5.279,11.589,6.674,11.589,14.755
			C48.067,124.039,44.975,127.22,39.946,127.22z M65.838,127.22c-7.993,0-14.479-6.485-14.479-14.479
			c0-7.993,6.486-14.479,14.479-14.479s14.479,6.485,14.479,14.479C80.317,120.734,73.831,127.22,65.838,127.22z M98.956,126.816
			H86.085V98.663h4.022v24.534h8.849V126.816z M108.972,127.22c-3.985,0-6.675-1.924-8.221-4.864l1.963-1.119
			c1.406,2.4,3.279,3.733,6.321,3.733c2.602,0,4.978-1.848,4.978-4.562c0-7.315-12.13-7.881-12.13-16.226
			c0-3.355,2.792-5.92,6.235-5.92c2.589,0,4.699,1.105,6.648,3.394l-1.685,1.357c-1.609-1.722-3.055-2.603-4.688-2.603
			c-2.124,0-4.148,1.194-4.148,3.947c0,6.246,12.205,7.642,12.205,15.623C116.45,124.203,113.598,127.22,108.972,127.22z
			 M134.699,127.22c-7.967,0-14.453-6.485-14.453-14.479c0-7.98,6.486-14.479,14.453-14.479c7.982,0,14.454,6.498,14.454,14.479
			C149.153,120.734,142.682,127.22,134.699,127.22z M175.961,124.291c-2.614,1.785-5.996,2.929-9.238,2.929
			c-6.358,0-11.262-1.849-11.262-10.771V98.663h2.427v16.993c0,8.823,4.938,9.363,8.835,9.363c1.961,0,4.413-0.565,6.812-2.111
			V98.663h2.426V124.291z M194.446,98.587h1.88v0.312h-0.767v2.76h-0.346v-2.76h-0.768V98.587z M195.579,126.816h-11.537V98.663
			h2.413v25.942h9.124V126.816z M199.335,101.658l-0.487-2.088l-0.855,2.176l-0.856-2.176l-0.485,2.088h-0.354l0.743-3.159
			l0.953,2.407l0.953-2.407l0.746,3.159H199.335z"/>
	</g>
</g>
<g id="Layer_1">
</g>
</svg>
