<?xml version="1.0" encoding="iso-8859-1"?>
<!-- Generator: Adobe Illustrator 16.0.0, SVG Export Plug-In . SVG Version: 6.00 Build 0)  -->
<!DOCTYPE svg PUBLIC "-//W3C//DTD SVG 1.1//EN" "http://www.w3.org/Graphics/SVG/1.1/DTD/svg11.dtd">
<svg version="1.1" id="Layer_1" xmlns="http://www.w3.org/2000/svg" xmlns:xlink="http://www.w3.org/1999/xlink" x="0px" y="0px"
	 width="442.533px" height="247.882px" viewBox="0 0 442.533 247.882" style="enable-background:new 0 0 442.533 247.882;"
	 xml:space="preserve">
<g>
	<path style="fill:#FFFFFF;" d="M247.799,0c0,0,33.359,75.307,0,158.233h83.881C331.68,158.233,358.846,46.708,247.799,0z"/>
	<rect x="236.834" y="8.108" style="fill:#FFFFFF;" width="3.336" height="150"/>
	<path style="fill:#FFFFFF;" d="M229.209,20.495c0,0-3.336,68.868-80.546,137.739h80.546V20.495z"/>
	<g>
		<path style="fill:#FFFFFF;" d="M8.285,228.836c3.433,6.139,7.856,9.539,14.952,9.539c5.38,0,10.562-3.797,10.562-9.309
			c0-16.8-30.2-18.351-30.2-40.431c0-9.605,8.119-16.801,18.285-16.801c7.394,0,13.5,3.366,19.111,10.232l-7.129,5.742
			c-4.126-4.555-7.559-6.699-11.354-6.699c-4.456,0-8.582,2.441-8.582,7.953c0,13.863,30.432,17.527,30.432,38.749
			c0,11.717-8.12,20.069-21.322,20.069c-11.156,0-18.714-5.712-23.038-14.261L8.285,228.836z"/>
		<path style="fill:#FFFFFF;" d="M91.028,247.882c-20.992,0-38.023-17.032-38.023-38.023c0-20.992,17.031-38.023,38.023-38.023
			c20.992,0,38.023,17.031,38.023,38.023C129.051,230.85,112.02,247.882,91.028,247.882z M63.567,209.858
			c0,15.446,12.279,27.987,27.461,27.987c15.183,0,27.461-12.541,27.461-27.987c0-15.447-12.278-27.988-27.461-27.988
			C75.846,181.87,63.567,194.411,63.567,209.858z"/>
		<path style="fill:#FFFFFF;" d="M154.76,237.318h23.236v9.506h-33.798v-73.934h10.562V237.318z"/>
		<path style="fill:#FFFFFF;" d="M215.093,184.312c-4.225-4.521-8.021-6.833-12.311-6.833c-5.579,0-10.892,3.136-10.892,10.364
			c0,16.404,32.049,20.068,32.049,41.026c0,11.09-7.492,19.013-19.638,19.013c-10.463,0-17.527-5.052-21.587-12.774l5.149-2.938
			c3.697,6.303,8.615,9.803,16.603,9.803c6.831,0,13.07-4.852,13.07-11.98c0-19.21-31.851-20.696-31.851-42.61
			c0-8.812,7.328-15.547,16.371-15.547c6.8,0,12.344,2.904,17.461,8.912L215.093,184.312z"/>
		<path style="fill:#FFFFFF;" d="M373.85,172.891h6.369v67.299c-6.865,4.688-15.744,7.692-24.26,7.692
			c-16.701,0-29.572-4.854-29.572-28.287v-46.704h6.369v44.624c0,23.171,12.971,24.589,23.203,24.589
			c5.15,0,11.586-1.484,17.891-5.545V172.891z"/>
		<path style="fill:#FFFFFF;" d="M407.775,172.891v68.125h23.963v5.809h-30.299v-73.934H407.775z"/>
		<path style="fill:#FFFFFF;" d="M309.82,209.858c0,20.991-16.998,38.023-37.957,38.023c-20.926,0-37.957-17.032-37.957-38.023
			c0-20.959,17.031-38.023,37.957-38.023C292.822,171.835,309.82,188.899,309.82,209.858z M240.309,209.858
			c0,17.624,14.094,32.048,31.555,32.048s31.586-14.424,31.586-32.048c0-17.625-14.094-32.05-31.586-32.05
			C254.402,177.809,240.309,192.233,240.309,209.858z"/>
		<g>
			<path style="fill:#FFFFFF;" d="M431.684,173.51v7.247h-0.906v-7.247h-2.018v-0.82h4.938v0.82H431.684z"/>
			<path style="fill:#FFFFFF;" d="M438.072,180.987l-2.246-5.716l-1.275,5.485h-0.93l1.951-8.298l2.5,6.323l2.502-6.323l1.959,8.298
				h-0.936l-1.275-5.485L438.072,180.987z"/>
		</g>
	</g>
</g>
</svg>
