<?xml version="1.0" encoding="iso-8859-1"?>
<!-- Generator: Adobe Illustrator 16.0.0, SVG Export Plug-In . SVG Version: 6.00 Build 0)  -->
<!DOCTYPE svg PUBLIC "-//W3C//DTD SVG 1.1//EN" "http://www.w3.org/Graphics/SVG/1.1/DTD/svg11.dtd">
<svg version="1.1" xmlns="http://www.w3.org/2000/svg" xmlns:xlink="http://www.w3.org/1999/xlink" x="0px" y="0px"
	 width="442.533px" height="98.765px" viewBox="0 0 442.533 98.765" style="enable-background:new 0 0 442.533 98.765;"
	 xml:space="preserve">
<g id="sand_dollar">
	<g>
		<path style="fill-rule:evenodd;clip-rule:evenodd;fill:#FFFFFF;" d="M308.375,73.112c0.279,0.774,0.447,1.62,0.865,2.313
			c1.119,1.856,2.293,3.683,3.543,5.453c1.973,2.789,2.193,4.547-0.535,6.655c-3.582,2.771-7.463,5.338-11.57,7.214
			c-9.58,4.375-19.732,4.909-29.961,2.885c-6.506-1.286-8.24-4.184-7.156-10.721c0.275-1.664,0.74-3.305,0.881-4.978
			c0.053-0.623-0.566-1.303-0.879-1.958c-0.615,0.396-1.568,0.652-1.791,1.207c-1.164,2.903-2.176,5.869-3.176,8.836
			c-1.266,3.747-2.221,4.69-6.145,4.178c-8.824-1.151-16.756-4.657-22.154-11.836c-4.154-5.525-5.281-12.359-4.438-19.29
			c0.133-1.093,1.223-2.228,2.141-3.031c1.686-1.476,3.633-2.655,5.357-4.093c0.775-0.646,1.279-1.616,1.904-2.44
			c-0.129-0.237-0.256-0.477-0.385-0.714c-1.234,0-2.469-0.007-3.703,0.002c-4.197,0.032-6.049-1.561-5.801-5.8
			c0.732-12.497,4.398-24.018,14.719-31.797c16.879-12.722,36.098-17.555,57.053-14.129c7.574,1.239,13.928,5.341,19.037,11.081
			c2.494,2.802,4.85,5.792,6.814,8.977c1.707,2.762,1.084,3.938-1.805,5.623c-0.9,0.526-1.873,1.002-2.598,1.721
			c-0.416,0.413-0.695,1.384-0.492,1.886c0.189,0.465,1.125,0.945,1.682,0.892c2.234-0.211,4.443-0.792,6.68-0.892
			c1.029-0.045,2.658,0.399,3.062,1.139c5.393,9.952,8.59,20.401,6.537,31.904c-1.494,8.385-7.885,12.285-14.633,15.732
			c-0.82,0.419-2.475-0.18-3.443-0.784c-2.166-1.36-4.105-3.086-6.225-4.529c-0.852-0.579-1.939-0.811-2.922-1.199
			C308.686,72.783,308.529,72.947,308.375,73.112z M288.363,84.18c0.314-0.093,0.627-0.187,0.941-0.28
			c0-1.069,0.221-2.194-0.039-3.193c-1.42-5.415-2.898-10.816-4.52-16.175c-0.26-0.854-1.35-1.459-2.055-2.177
			c-0.436,0.979-0.92,1.942-1.277,2.948c-0.115,0.332,0.045,0.799,0.168,1.172c1.609,4.863,3.186,9.736,4.891,14.564
			C286.871,82.167,287.721,83.138,288.363,84.18z"/>
		<path style="fill-rule:evenodd;clip-rule:evenodd;" d="M276.643,61.438c0.539,1.21,1.109,2.471,1.656,3.74
			c0.059,0.134,0.055,0.35-0.018,0.474c-0.9,1.562-2.219,2.676-3.92,3.213c-0.857,0.271-1.834,0.381-2.619-0.402
			c-0.436-0.435-0.514-0.752-0.248-1.291c0.67-1.358,1.768-2.348,2.83-3.375C275.098,63.051,275.834,62.265,276.643,61.438z"/>
		<path style="fill-rule:evenodd;clip-rule:evenodd;" d="M288.84,33.84c0.35-1.295,0.641-2.612,1.092-3.872
			c0.111-0.311,0.727-0.541,1.148-0.622c0.738-0.14,1.506-0.188,2.26-0.184c1.369,0.009,2.553,0.501,3.418,1.602
			c0.443,0.563,0.5,1.516-0.479,2.058c-0.891,0.495-1.871,0.51-2.83,0.62c-1.162,0.131-2.334,0.18-3.496,0.292
			c-0.307,0.029-0.605,0.158-0.904,0.243C288.98,33.931,288.91,33.885,288.84,33.84z"/>
		<path style="fill-rule:evenodd;clip-rule:evenodd;" d="M277.035,30.051c-0.398-0.47-0.736-0.91-1.117-1.306
			c-0.98-1.028-2.01-2.015-2.969-3.064c-0.455-0.5-0.814-1.094-1.18-1.67c-0.234-0.369,0.039-1.106,0.475-1.295
			c0.303-0.131,0.639-0.23,0.963-0.252c1.307-0.086,2.469,0.403,3.41,1.224c0.85,0.741,1.572,1.648,2.242,2.564
			c0.156,0.218-0.049,0.807-0.23,1.148C278.158,28.278,277.604,29.113,277.035,30.051z"/>
		<path style="fill-rule:evenodd;clip-rule:evenodd;" d="M287.676,58.698c1.633,0.414,3.242,0.795,4.832,1.241
			c0.729,0.202,1.459,0.466,2.117,0.832c0.904,0.499,0.896,1.491,0.139,2.202c-0.906,0.854-1.969,0.986-3.15,1.007
			c-1.209,0.021-2.258-0.375-3.291-0.888c-0.168-0.081-0.357-0.305-0.377-0.478c-0.129-1.182-0.217-2.366-0.307-3.553
			C287.625,58.913,287.67,58.758,287.676,58.698z"/>
		<path style="fill-rule:evenodd;clip-rule:evenodd;" d="M269.256,59.038c0.34,1.797,0.688,3.483,0.969,5.18
			c0.133,0.79,0.207,1.602,0.186,2.399c-0.021,0.799-0.625,1.234-1.498,0.957c-1.283-0.409-2.105-1.249-2.588-2.508
			c-0.432-1.125-0.809-2.247-0.701-3.465c0.02-0.248,0.17-0.582,0.365-0.702C267.07,60.242,268.186,59.641,269.256,59.038z"/>
		<path style="fill-rule:evenodd;clip-rule:evenodd;" d="M292.92,40.367c0.633-1.178,1.191-2.327,1.85-3.413
			c0.633-1.036,1.309-2.059,2.078-2.993c0.744-0.905,1.566-0.373,2.016,0.483c0.795,1.512,0.285,2.916-0.297,4.289
			c-0.33,0.774-0.865,1.459-1.305,2.185c-0.158,0.261-0.357,0.338-0.676,0.262C295.332,40.884,294.072,40.621,292.92,40.367z"/>
		<path style="fill-rule:evenodd;clip-rule:evenodd;" d="M262.348,48.894c-1.104,0.994-2.096,1.894-3.102,2.778
			c-0.098,0.086-0.316,0.146-0.416,0.096c-0.953-0.486-1.924-0.946-2.828-1.516c-0.889-0.561-1.479-1.447-1.852-2.405
			c-0.258-0.667-0.217-1.463,0.275-2.04c0.203-0.238,0.766-0.379,1.066-0.277c0.947,0.321,1.896,0.695,2.76,1.201
			C259.533,47.485,260.719,48.4,262.348,48.894z"/>
		<path style="fill-rule:evenodd;clip-rule:evenodd;" d="M262.295,41.347c-1.543,0.755-3.025,1.54-4.559,2.208
			c-0.805,0.35-1.691,0.521-2.555,0.724c-0.463,0.109-1.041-0.558-1.152-1.188c-0.182-1.032,0.344-1.794,0.975-2.477
			c1.033-1.113,2.314-1.832,3.809-2.141c0.162-0.033,0.4-0.05,0.502,0.039c0.924,0.822,1.828,1.667,2.732,2.51
			C262.172,41.139,262.256,41.296,262.295,41.347z"/>
		<path style="fill-rule:evenodd;clip-rule:evenodd;" d="M269.674,31.831c-1.18-0.771-2.357-1.525-3.51-2.312
			c-0.154-0.105-0.281-0.391-0.262-0.579c0.127-1.227,0.035-2.531,0.752-3.604c0.602-0.897,1.254-1.818,2.516-1.911
			c1.232-0.091,1.557,0.419,1.537,1.462c-0.02,1.05-0.227,2.098-0.371,3.144c-0.166,1.188-0.354,2.373-0.535,3.559
			C269.793,31.64,269.752,31.685,269.674,31.831z"/>
		<path style="fill-rule:evenodd;clip-rule:evenodd;" d="M292.562,52.889c0.193-0.019,0.436-0.054,0.676-0.06
			c1.059-0.031,2.117-0.064,3.174-0.062c0.186-0.001,0.445,0.113,0.541,0.26c0.955,1.454,1.305,3.104,1.295,4.8
			c-0.004,0.828-0.451,1.601-1.094,2.191c-0.486,0.449-1.15,0.373-1.596-0.09c-0.922-0.957-1.158-2.231-1.619-3.4
			C293.477,55.342,293.037,54.144,292.562,52.889z"/>
		<path style="fill-rule:evenodd;clip-rule:evenodd;" d="M308.428,30.681c1.143-0.22,2.314-0.535,3.514-0.284
			c0.373,0.078,0.889,0.345,0.98,0.638c0.084,0.27-0.248,0.749-0.512,1.033c-0.674,0.733-1.623,1.009-2.541,1.262
			c-1.066,0.292-2.162,0.505-3.256,0.666c-0.441,0.065-0.941-0.033-1.373-0.174c-0.654-0.215-0.699-0.642-0.34-1.217
			c0.576-0.922,1.605-1.062,2.441-1.531C307.662,30.893,308.041,30.817,308.428,30.681z"/>
		<path style="fill-rule:evenodd;clip-rule:evenodd;" d="M243.74,51.061c-1.27,0.054-2.471,0.148-3.67,0.127
			c-0.305-0.005-0.752-0.32-0.859-0.6c-0.107-0.277,0.021-0.676,0.396-0.968c1.451-1.124,3.107-1.666,4.889-1.879
			c0.674-0.081,1.367-0.028,2.053-0.038c0.457-0.006,0.857,0.271,0.891,0.633c0.029,0.317-0.232,0.808-0.512,0.98
			C245.896,49.953,244.803,50.49,243.74,51.061z"/>
		<path style="fill-rule:evenodd;clip-rule:evenodd;" d="M279.717,39.952c-0.154-0.698-0.309-1.398-0.467-2.098
			c-0.354-1.561-0.693-3.125-1.078-4.677c-0.082-0.329-0.004-0.535,0.18-0.775c0.6-0.772,1.188-1.553,1.766-2.342
			c0.104-0.139,0.139-0.329,0.236-0.575C281.695,33.104,280.75,36.52,279.717,39.952z"/>
		<path style="fill-rule:evenodd;clip-rule:evenodd;" d="M262.738,38.189c3.953,0.003,7.061,1.951,10.094,4.135
			c-0.277-0.026-0.557-0.042-0.832-0.084c-1.594-0.239-3.186-0.49-4.779-0.727c-0.229-0.033-0.465,0-0.701-0.016
			c-0.691-0.048-1.248-0.202-1.693-0.893C264.262,39.731,263.463,39.008,262.738,38.189z"/>
		<path style="fill-rule:evenodd;clip-rule:evenodd;" d="M284.656,46.19c0.773,0.197,1.547,0.407,2.322,0.593
			c0.75,0.178,1.508,0.313,2.252,0.505c0.59,0.151,1.189,0.303,1.74,0.554c1.236,0.564,2.443,1.197,3.455,2.228
			c-0.75,0.132-1.465,0.251-2.18,0.383c-0.482,0.089-0.959,0.227-1.445,0.278c-0.246,0.026-0.566-0.013-0.746-0.157
			c-1.191-0.96-2.34-1.97-3.525-2.929c-0.439-0.354-0.951-0.613-1.426-0.921c-0.176-0.111-0.34-0.24-0.508-0.36
			C284.615,46.306,284.637,46.246,284.656,46.19z"/>
		<path style="fill-rule:evenodd;clip-rule:evenodd;" d="M294.342,43.345c-1.514,1.084-3.176,1.625-4.896,1.885
			c-1.84,0.279-3.707,0.357-5.562,0.522c-0.008-0.052-0.016-0.102-0.023-0.153c0.898-0.457,1.809-0.899,2.697-1.376
			c1.102-0.59,2.201-1.193,3.279-1.826c0.422-0.25,0.75-0.287,1.236-0.09c0.953,0.389,1.967,0.629,2.957,0.931
			C294.123,43.266,294.215,43.302,294.342,43.345z"/>
		<path style="fill-rule:evenodd;clip-rule:evenodd;" d="M286.871,31.288c-0.215,1.323-0.4,2.578-0.637,3.825
			c-0.051,0.258-0.248,0.543-0.463,0.705c-1.115,0.85-2.268,1.647-3.385,2.493c-0.707,0.539-1.373,1.13-2.109,1.679
			c0.846-1.635,1.549-3.359,2.652-4.858C284.029,33.637,285.221,32.216,286.871,31.288z"/>
		<path style="fill-rule:evenodd;clip-rule:evenodd;" d="M266.686,32.832c1.146,0.571,2.35,1.127,3.504,1.773
			c0.285,0.162,0.455,0.591,0.605,0.93c0.65,1.474,1.268,2.96,1.9,4.44c0.244,0.572,0.496,1.141,0.678,1.747
			C270.604,39.129,267.693,36.649,266.686,32.832z"/>
		<path style="fill-rule:evenodd;clip-rule:evenodd;" d="M285.205,60.846c-2.164-1.627-4.26-5.913-5.061-9.596
			c0.506,0.566,0.998,1.142,1.516,1.699c0.721,0.778,1.449,1.551,2.191,2.314c0.398,0.412,0.824,0.797,1.229,1.206
			c0.072,0.076,0.141,0.215,0.125,0.312c-0.205,1.29-0.137,2.572,0.053,3.855C285.27,60.702,285.225,60.773,285.205,60.846z"/>
		<path style="fill-rule:evenodd;clip-rule:evenodd;" d="M266.225,57.799c1.168-3.698,3.701-6.171,6.58-8.469
			c-0.25,0.609-0.486,1.162-0.707,1.716c-0.641,1.594-1.273,3.19-1.916,4.782c-0.053,0.128-0.148,0.278-0.262,0.33
			c-0.971,0.439-1.951,0.855-2.928,1.283C266.779,57.534,266.57,57.637,266.225,57.799z"/>
		<path style="fill-rule:evenodd;clip-rule:evenodd;" d="M262.457,52.37c0.562-0.626,1.021-1.128,1.469-1.64
			c0.367-0.421,0.697-0.876,1.086-1.274c0.137-0.142,0.395-0.223,0.598-0.229c1.42-0.032,2.84-0.011,4.258-0.061
			c0.736-0.025,1.469-0.164,2.203-0.243c0.137-0.015,0.275,0.01,0.541,0.022C269.408,50.718,266.352,52.513,262.457,52.37z"/>
		<path style="fill-rule:evenodd;clip-rule:evenodd;" d="M279.236,51.287c0.188,2.102,0.988,4.084,1.021,6.23
			c0.023,1.567-0.166,3.076-0.541,4.586c-0.498-0.852-0.891-1.778-1.51-2.509c-0.635-0.748-0.609-1.354-0.301-2.225
			c0.385-1.081,0.531-2.251,0.738-3.388c0.162-0.891,0.26-1.793,0.389-2.689C279.102,51.29,279.168,51.29,279.236,51.287z"/>
		<path style="fill-rule:evenodd;clip-rule:evenodd;" d="M266.008,29.678c0.658,0.477,1.174,0.878,1.721,1.233
			c0.453,0.292,0.918,0.591,1.422,0.775c0.479,0.177,0.773,0.421,0.854,0.937c0.088,0.579,0.219,1.152,0.342,1.8
			c-1.08-0.56-2.064-1.123-3.092-1.591c-0.787-0.358-0.932-1.045-1.09-1.744C266.074,30.685,266.068,30.263,266.008,29.678z"/>
		<path style="fill-rule:evenodd;clip-rule:evenodd;" d="M259.467,51.92c0.867-0.796,1.723-1.48,2.445-2.284
			c0.492-0.546,0.949-0.76,1.656-0.562c0.354,0.099,0.744,0.067,1.309,0.11c-0.545,0.66-1.016,1.229-1.488,1.794
			c-0.16,0.193-0.324,0.382-0.494,0.568c-0.469,0.508-0.998,0.868-1.738,0.717C260.609,52.153,260.062,52.042,259.467,51.92z"/>
		<path style="fill-rule:evenodd;clip-rule:evenodd;" d="M279.23,26.726c0.303,0.629,0.607,1.203,0.855,1.8
			c0.1,0.237,0.186,0.597,0.078,0.781c-0.633,1.075-1.328,2.113-2,3.165c-0.066-0.015-0.133-0.029-0.197-0.042
			c-0.256-0.669-0.553-1.328-0.74-2.016c-0.057-0.199,0.197-0.487,0.326-0.727c0.502-0.944,1.01-1.884,1.518-2.824
			C279.092,26.82,279.146,26.796,279.23,26.726z"/>
		<path style="fill-rule:evenodd;clip-rule:evenodd;" d="M287.709,62.813c-0.68-0.503-1.26-0.924-1.834-1.355
			c-0.451-0.339-0.381-0.893-0.428-1.336c-0.111-1.028-0.08-2.074-0.105-3.208c0.678,0.455,1.291,0.857,1.896,1.279
			c0.059,0.042,0.059,0.195,0.059,0.298c-0.031,1.249,0.061,2.485,0.395,3.699C287.734,62.346,287.703,62.521,287.709,62.813z"/>
		<path style="fill-rule:evenodd;clip-rule:evenodd;" d="M290.654,42.034c0.664-0.543,1.209-1.012,1.781-1.442
			c0.115-0.085,0.348-0.073,0.506-0.03c0.869,0.233,1.727,0.505,2.598,0.727c0.355,0.091,0.734,0.092,1.264,0.149
			c-0.742,0.617-1.342,1.153-1.99,1.624c-0.127,0.093-0.441-0.053-0.664-0.11C293.016,42.657,291.885,42.357,290.654,42.034z"/>
		<path style="fill-rule:evenodd;clip-rule:evenodd;" d="M265.16,41.35c-0.842,0.029-1.525,0.126-2.189,0.043
			c-0.291-0.037-0.547-0.428-0.809-0.67c-0.824-0.77-1.645-1.545-2.559-2.408c0.828-0.078,1.6-0.236,2.355-0.184
			c0.359,0.026,0.744,0.405,1.025,0.707C263.705,39.612,264.375,40.435,265.16,41.35z"/>
		<path style="fill-rule:evenodd;clip-rule:evenodd;" d="M290.672,51.035c0.527-0.146,0.99-0.327,1.471-0.393
			c0.65-0.09,1.328-0.032,1.973-0.146c0.873-0.158,1.271,0.454,1.73,0.954c0.236,0.258,0.375,0.605,0.578,0.95
			c-0.496,0.017-0.99,0.028-1.482,0.049c-0.805,0.035-1.609,0.084-2.414,0.106c-0.139,0.004-0.312-0.052-0.416-0.142
			C291.643,51.988,291.193,51.539,290.672,51.035z"/>
		<path style="fill-rule:evenodd;clip-rule:evenodd;" d="M286.514,35.281c0.131-0.96,0.246-1.838,0.377-2.712
			c0.049-0.335,0.072-0.696,0.219-0.989c0.176-0.354,0.408-0.758,0.729-0.949c0.514-0.304,1.123-0.454,1.764-0.695
			c-0.084,0.361-0.148,0.646-0.223,0.928c-0.24,0.91-0.502,1.815-0.715,2.731c-0.074,0.315-0.133,0.541-0.477,0.699
			C287.641,34.547,287.141,34.903,286.514,35.281z"/>
		<path style="fill-rule:evenodd;clip-rule:evenodd;" d="M265.631,60.728c0.104-0.626,0.236-1.196,0.285-1.773
			c0.059-0.73,0.629-0.968,1.141-1.222c0.906-0.447,1.85-0.83,2.775-1.24c0.049,0.029,0.102,0.062,0.152,0.092
			c-0.203,0.706-0.316,1.459-0.646,2.098c-0.166,0.317-0.73,0.425-1.111,0.636c-0.797,0.443-1.59,0.893-2.385,1.337
			C265.789,60.684,265.725,60.694,265.631,60.728z"/>
		<path style="fill-rule:evenodd;clip-rule:evenodd;" d="M277.529,58.904c0.67,1.152,1.301,2.191,1.881,3.257
			c0.178,0.324,0.184,0.666-0.061,1.063c-0.332,0.541-0.484,1.188-0.736,1.855c-0.287-0.604-0.535-1.146-0.797-1.679
			c-0.328-0.659-0.672-1.312-1.002-1.97c-0.061-0.118-0.17-0.274-0.135-0.368C276.928,60.383,277.205,59.715,277.529,58.904z"/>
		<g>
			<path style="fill:#FFFFFF;" d="M8.285,61.7c3.433,6.139,7.856,9.539,14.952,9.539c5.38,0,10.562-3.797,10.562-9.309
				c0-16.8-30.2-18.35-30.2-40.431c0-9.605,8.119-16.8,18.285-16.8c7.394,0,13.5,3.366,19.111,10.232l-7.129,5.742
				c-4.126-4.555-7.559-6.699-11.354-6.699c-4.456,0-8.582,2.442-8.582,7.954c0,13.863,30.432,17.526,30.432,38.749
				c0,11.717-8.12,20.069-21.322,20.069C11.882,80.746,4.324,75.034,0,66.485L8.285,61.7z"/>
			<path style="fill:#FFFFFF;" d="M91.028,80.746c-20.992,0-38.023-17.032-38.023-38.024c0-20.992,17.031-38.023,38.023-38.023
				c20.992,0,38.023,17.031,38.023,38.023C129.051,63.714,112.02,80.746,91.028,80.746z M63.567,42.722
				c0,15.447,12.279,27.988,27.461,27.988c15.183,0,27.461-12.541,27.461-27.988s-12.278-27.988-27.461-27.988
				C75.846,14.734,63.567,27.275,63.567,42.722z"/>
			<path style="fill:#FFFFFF;" d="M154.76,70.183h23.236v9.506h-33.798V5.755h10.562V70.183z"/>
			<path style="fill:#FFFFFF;" d="M215.093,17.175c-4.225-4.521-8.021-6.833-12.311-6.833c-5.579,0-10.892,3.136-10.892,10.364
				c0,16.405,32.049,20.068,32.049,41.027c0,11.09-7.492,19.013-19.638,19.013c-10.463,0-17.527-5.052-21.587-12.774l5.149-2.938
				c3.697,6.303,8.615,9.803,16.603,9.803c6.831,0,13.07-4.852,13.07-11.98c0-19.209-31.851-20.696-31.851-42.611
				c0-8.812,7.328-15.546,16.371-15.546c6.8,0,12.344,2.904,17.461,8.912L215.093,17.175z"/>
			<path style="fill:#FFFFFF;" d="M373.85,5.755h6.369v67.299c-6.865,4.688-15.744,7.692-24.26,7.692
				c-16.701,0-29.572-4.854-29.572-28.287V5.755h6.369v44.624c0,23.171,12.971,24.589,23.203,24.589
				c5.15,0,11.586-1.484,17.891-5.545V5.755z"/>
			<path style="fill:#FFFFFF;" d="M407.775,5.755V73.88h23.963v5.809h-30.299V5.755H407.775z"/>
			<path style="fill:#FFFFFF;" d="M309.82,42.722c0,20.992-16.998,38.024-37.957,38.024c-20.926,0-37.957-17.032-37.957-38.024
				c0-20.959,17.031-38.023,37.957-38.023C292.822,4.699,309.82,21.763,309.82,42.722z M240.309,42.722
				c0,17.625,14.094,32.048,31.555,32.048s31.586-14.424,31.586-32.048s-14.094-32.049-31.586-32.049
				C254.402,10.673,240.309,25.098,240.309,42.722z"/>
			<g>
				<path style="fill:#FFFFFF;" d="M431.684,6.374v7.247h-0.906V6.374h-2.018v-0.82h4.938v0.82H431.684z"/>
				<path style="fill:#FFFFFF;" d="M438.072,13.851l-2.246-5.715l-1.275,5.485h-0.93l1.951-8.297l2.5,6.323l2.502-6.323l1.959,8.297
					h-0.936l-1.275-5.485L438.072,13.851z"/>
			</g>
		</g>
	</g>
</g>
<g id="Layer_1">
</g>
</svg>
