<?xml version="1.0" encoding="iso-8859-1"?>
<!-- Generator: Adobe Illustrator 16.0.0, SVG Export Plug-In . SVG Version: 6.00 Build 0)  -->
<!DOCTYPE svg PUBLIC "-//W3C//DTD SVG 1.1//EN" "http://www.w3.org/Graphics/SVG/1.1/DTD/svg11.dtd">
<svg version="1.1" xmlns="http://www.w3.org/2000/svg" xmlns:xlink="http://www.w3.org/1999/xlink" x="0px" y="0px"
	 width="442.533px" height="410.123px" viewBox="0 0 442.533 410.123" style="enable-background:new 0 0 442.533 410.123;"
	 xml:space="preserve">
<g id="seahorse">
	<g style="display:none;">
		<path style="display:inline;fill:#FFFFFF;" d="M32.216,126.707c6.184,0,10.774-2.679,14.274-5.699
			c-1.872,2.473-3.312,5.392-4.228,8.685c-0.904,3.258-1.16,6.147-0.991,8.684c-3.422,4.344-5.36,9.744-4.381,16.112
			c0.338,2.201,0.954,4.202,1.793,6.01c-1.878,4.486-3.204,11.325,0.063,19.675c1.529,3.907,3.364,6.961,5.335,9.347
			c-0.226,1.636-0.288,3.332-0.132,5.064c0.491,5.423,3.072,10.3,7.267,13.732c0.18,0.146,0.36,0.291,0.541,0.433
			c1.025,4.969,3.766,9.41,8.136,12.589c1.733,1.261,3.568,2.282,5.47,3.053c0.933,1.497,2.127,3.012,3.646,4.493
			c-5.146,1.499-9.903,4.466-13.848,8.709c-8.428,9.067-12.99,23.899-11.906,38.709c1.519,20.757,23.344,43.973,50.279,43.973
			c11.16,0,27.666-4.031,42.925-23.236c20.975-26.399,11.692-49.446,3.503-69.78c-6.326-15.708-12.868-31.951-8.977-53.937
			c3.929-22.2,9.363-35.969,14.158-48.116c6.153-15.59,11.566-29.304,8.394-50.25c6.02-7.861,8.335-18.958,2.477-30.187
			c-2.356-4.517-5.03-7.693-7.727-9.916c-0.16-0.855-0.378-1.72-0.66-2.589c-2.054-6.314-6.908-11.033-13.669-13.287
			c-2.649-0.883-5.29-1.331-7.849-1.331c-0.455,0-0.903,0.014-1.346,0.04c-3.708-3.079-8.414-4.979-14.049-4.979
			c-5.741,0-10.883,1.941-14.756,5.52c-3.786,0-7.438,0.934-10.855,2.773c-5.69,3.064-9.304,7.304-11.168,11.822
			c-7.869,5.144-19.473,14.934-23.66,29.823c-1.673,5.948-3.267,8.667-3.905,9.598c-1.155,0.772-2.201,1.705-3.106,2.774
			c-2.362,2.793-7.532,5.808-11.764,5.808c-0.25,0-0.49-0.012-0.715-0.036c-0.787-0.082-1.577-0.124-2.347-0.124
			c-10.925,0-19.163,8.446-19.163,19.647C9.277,112.797,18.698,126.707,32.216,126.707z"/>
		<path style="display:inline;" d="M142.716,51.707c-6-11.5-12-5-12-5s7.5-10.5-1.5-13.5s-9.5,7-9.5,7s-0.5-12.5-9-12.5
			s-6.5,10-6.5,10s-5.5-7-12-3.5s-4.5,8-4.5,8s-18.5,8.5-23,24.5s-10,18-10,18c-5.5,6.5-16,12-25.5,11s-3.5,16,3,16
			s10.5-13.5,21.5-14s17.5,0.5,27,0.5s22-0.5,29-16.5c0,0-5,15.5-14.5,22.5s-4.5,9.5-9.5,7s-14-4.5-10.5,3c0,0-8-0.5-10.5,4.5
			s3.5,8.5,3.5,8.5s-9-2.5-11.5,6.5s5.5,8,5.5,8s-11.5,4-10.5,10.5s9.5,6.5,9.5,6.5s-13,4.5-8.5,16s11,7.5,11,7.5s-8.5,10-3,14.5
			c5.212,4.265,7.726,0.901,7.975,0.537c-0.375,0.562-5.269,8.114,0.025,11.963c5.5,4,10,0.5,10,0.5s-4.5,4.5,2,9.5s8.5,2.5,8.5,2.5
			s-3.5,5,1.5,8s8.5,2,8.5,2s17.5,15,10,37.5s-27.5,23.5-34,10.5s3-22.5,8.5-16.5s-4.5,9-5.5,3.5c0,0-4,7.5,5.5,9s25-13,5.5-28
			s-32.5,7-31,27.5s37.5,49,66.5,12.5s-18.5-60.5-8.5-117s30-64,21-101C137.216,69.707,148.716,63.207,142.716,51.707z
			 M83.216,70.707c-3.038,0-5.5-2.462-5.5-5.5s2.462-5.5,5.5-5.5c3.037,0,5.5,2.462,5.5,5.5S86.253,70.707,83.216,70.707z"/>
	</g>
	<g style="display:none;">
		<path style="display:inline;fill-rule:evenodd;clip-rule:evenodd;fill:#FFFFFF;" d="M304.133,350.366
			c-19.889-0.576-33.932-8.459-45.078-22.068c-6.715-8.199-10.137-17.723-11.299-28.129c-0.412-3.691-0.396-7.434-0.838-11.121
			c-0.188-1.572-0.885-3.148-1.631-4.576c-2.189-4.189-2.121-4.973,0.912-8.66c0.994-1.207,1.939-2.523,2.584-3.938
			c1.074-2.363,0.668-4.662-0.574-6.977c-1.801-3.35-1.387-4.682,1.67-7c1.119-0.85,2.291-1.633,3.367-2.533
			c1.908-1.592,2.227-2.871,1.355-5.178c-0.41-1.084-0.928-2.127-1.346-3.207c-1.021-2.643-0.564-3.879,1.906-5.293
			c0.266-0.15,0.527-0.326,0.812-0.418c3.904-1.256,5.789-4.084,7.066-7.898c3.084-9.207,4.867-18.511,3.723-28.243
			c-0.996-8.483-3.445-16.579-6.623-24.465c-0.314-0.78-1.279-1.494-2.109-1.828c-1.801-0.727-3.73-1.132-5.57-1.771
			c-2.619-0.908-3.125-2.075-1.982-4.618c0.701-1.555,1.629-3.008,2.342-4.559c1.436-3.119-0.658-7.069-4.047-7.664
			c-1.74-0.306-3.516-0.419-5.242-0.776c-2.328-0.479-2.945-1.564-2.145-3.852c0.643-1.838,1.514-3.595,2.262-5.397
			c0.963-2.32,0.064-6.465-1.865-8.01c-0.562-0.45-1.453-0.632-2.207-0.675c-1.705-0.098-3.42,0.005-5.129-0.04
			c-2.602-0.07-3.412-1.157-2.666-3.666c0.398-1.339,0.986-2.621,1.484-3.931c0.561-1.48,1.215-2.936,1.65-4.452
			c0.695-2.429-0.191-4.049-2.643-4.74c-2.107-0.595-4.291-0.914-6.41-1.471c-3.215-0.843-3.662-2.017-1.836-4.808
			c1.102-1.685,2.395-3.245,3.498-4.928c2.195-3.346,1.078-6.461-2.732-7.73c-1.734-0.577-3.528-0.997-5.22-1.674
			c-1.916-0.767-2.297-1.84-1.188-3.597c1.038-1.642,2.36-3.103,3.552-4.646c0.67-0.87,1.403-1.702,1.981-2.63
			c1.279-2.05,0.875-4.388-1.041-5.875c-1.638-1.271-3.422-2.358-5.028-3.667c-1.799-1.466-1.847-2.744-0.096-4.245
			c1.85-1.585,3.905-2.927,5.802-4.461c2.617-2.116,2.943-4.655,1.01-7.386c-1.057-1.493-2.254-2.895-3.242-4.431
			c-1.382-2.15-1.036-3.348,1.324-4.276c2.092-0.825,4.299-1.355,6.428-2.092c2.926-1.012,3.412-1.981,2.605-4.969
			c-0.43-1.588-0.943-3.155-1.328-4.754c-0.568-2.364,0.111-3.45,2.547-3.875c2.039-0.356,4.113-0.504,6.17-0.755
			c1.656-0.202,2.551-0.842,2.441-2.817c-0.225-4.081,0.859-5.132,4.998-5.507c0.543-0.049,1.18-0.027,1.602-0.301
			c1.861-1.21,3.463-0.327,5.086,0.499c1.033,0.525,2.08,1.03,3.068,1.63c6.6,4.008,9.094,9.766,7.451,17.289
			c-0.59,2.693-1.707,5.11-3.27,7.464c-3.232,4.865-6.496,9.786-9.014,15.035c-5.791,12.065-5.383,24.293,0.164,36.417
			c4.273,9.346,10.326,17.555,16.395,25.751c8.029,10.848,16.115,21.651,22.59,33.548c8.969,16.483,14.412,33.989,15.139,52.816
			c0.215,5.602,0.088,11.223-0.059,16.832c-0.115,4.441-2.049,8.314-4.768,11.674c-4.027,4.982-8.34,9.734-12.488,14.617
			c-4.986,5.873-9.133,12.227-11.006,19.83c-1.852,7.521-1.744,15.062,0.564,22.418c2.805,8.932,9.541,13.943,18.145,16.6
			c11.391,3.516,19.488,1.68,28.838-8.943c6.203-7.045,5.172-19.391-1.674-25.023c-4.818-3.963-11.898-4.078-16.787-0.246
			c-2.939,2.303-3.988,5.355-3.215,8.955c0.734,3.412,3.092,5.266,6.381,6.068c2.709,0.66,7.02-1.059,8.305-3.488
			c0.34-0.643,0.34-1.711,0.049-2.391c-0.707-1.65-2.227-2.41-3.945-2.59c-1.584-0.166-2.656,0.648-3.275,2.117
			c-0.119,0.285-0.641,0.703-0.713,0.656c-0.373-0.244-0.793-0.562-0.957-0.955c-1.297-3.109,0.809-6.605,4.23-7.092
			c4.67-0.666,8.701,1.105,10.512,4.621c2.168,4.207,1.525,9.557-1.906,12.904c-5.152,5.027-11.5,6.281-18.32,4.719
			c-6.635-1.52-11.525-5.436-13.443-12.146c-2.039-7.127,0.076-13.553,4.479-19.225c6.986-9.002,16.26-11.238,27.008-8.652
			c11.229,2.703,18.758,9.592,22.574,20.418c3.707,10.512,3.355,21.027-1.037,31.25c-4.959,11.543-14.262,18.025-26.104,21.014
			C312.232,349.409,307.164,349.872,304.133,350.366z M233.242,116.145c0.758,2.337,1.473,4.541,2.223,6.851
			c4.279-1.508,8.273-2.917,12.316-4.343c-0.707-2.148-1.344-4.084-1.994-6.058C241.555,113.793,237.523,114.934,233.242,116.145z
			 M258.982,141.514c-1.193-1.988-2.252-3.752-3.355-5.592c-3.822,2.145-7.525,4.222-11.377,6.383
			c1.262,2.103,2.43,4.047,3.646,6.074C251.703,146.022,255.266,143.815,258.982,141.514z M240.992,136.088
			c4.018-1.968,7.818-3.829,11.732-5.745c-0.934-2.014-1.811-3.901-2.719-5.855c-4.09,1.744-7.973,3.401-11.996,5.116
			C239.031,131.826,239.965,133.856,240.992,136.088z M251.732,154.185c1.354,1.917,2.609,3.696,3.938,5.577
			c3.557-2.465,7.039-4.881,10.623-7.364c-1.328-1.924-2.557-3.703-3.848-5.572C258.791,149.336,255.301,151.734,251.732,154.185z
			 M231.57,109.186c4.391-0.894,8.535-1.738,12.746-2.595c-0.373-2.142-0.713-4.098-1.082-6.217
			c-4.299,0.554-8.486,1.093-12.848,1.653C230.789,104.452,231.162,106.712,231.57,109.186z M270.078,158.081
			c-3.701,2.418-7.195,4.703-10.777,7.044c1.258,1.93,2.406,3.693,3.604,5.532c3.711-2.267,7.266-4.437,10.896-6.654
			C272.537,161.992,271.377,160.147,270.078,158.081z M242.578,87.814c-4.33,0-8.447,0-12.654,0c0,2.259,0,4.579,0,6.579
			c4.348,0,8.504,0,12.654,0C242.578,92.049,242.578,90.119,242.578,87.814z M269.176,181.954c3.857-1.932,7.545-3.778,11.346-5.682
			c-1.137-2.171-2.191-4.186-3.283-6.271c-3.816,2.122-7.422,4.126-11.111,6.177C267.154,178.125,268.117,179.948,269.176,181.954z
			 M231.766,73.037c-0.455,2.485-0.875,4.78-1.322,7.229c4.361,0.586,8.479,1.139,12.643,1.698c0.367-2.196,0.684-4.096,1.021-6.123
			C239.977,74.902,235.967,73.991,231.766,73.037z M283.41,182.713c-3.982,1.685-7.717,3.264-11.555,4.886
			c0.812,2.069,1.557,3.972,2.326,5.936c3.957-1.37,7.791-2.696,11.738-4.062C285.066,187.172,284.287,185.074,283.41,182.713z
			 M236.541,59.138c-0.949,2.385-1.812,4.553-2.732,6.861c4.092,1.393,7.932,2.701,11.883,4.044c0.74-1.97,1.436-3.824,2.182-5.807
			C244.127,62.552,240.48,60.91,236.541,59.138z M287.918,196.419c-4.117,1.017-7.99,1.974-11.963,2.954
			c0.451,2.114,0.863,4.045,1.297,6.078c4.053-0.605,7.947-1.188,12.006-1.795C288.805,201.217,288.387,198.953,287.918,196.419z
			 M239.941,52.647c3.65,2.142,7.098,4.165,10.607,6.224c1.141-1.825,2.193-3.507,3.291-5.267c-3.301-2.396-6.482-4.704-9.791-7.105
			C242.66,48.577,241.379,50.497,239.941,52.647z M277.865,211.307c0,2.297,0,4.223,0,6.327c3.932,0.232,7.787,0.459,11.812,0.695
			c0-2.522,0-4.841,0-7.022C285.656,211.307,281.834,211.307,277.865,211.307z M288.818,225.558
			c-4.027-0.65-7.789-1.258-11.631-1.879c-0.42,2.145-0.801,4.094-1.217,6.219c3.781,0.908,7.463,1.791,11.287,2.709
			C287.801,230.159,288.285,227.972,288.818,225.558z M272.262,242.12c3.541,1.312,6.996,2.592,10.596,3.928
			c0.818-2.279,1.586-4.416,2.391-6.656c-3.768-1.189-7.287-2.301-10.904-3.443C273.623,238.085,272.967,240.032,272.262,242.12z
			 M269.934,248.222c-0.814,2.176-1.586,4.246-2.408,6.443c3.484,1.32,6.807,2.578,10.24,3.879c0.863-2.152,1.662-4.143,2.496-6.225
			C276.734,250.919,273.42,249.604,269.934,248.222z M265.275,261.069c-0.734,2.293-1.412,4.408-2.117,6.611
			c3.457,1.109,6.734,2.16,10.104,3.238c0.736-2.129,1.426-4.119,2.172-6.27C272.023,263.448,268.773,262.302,265.275,261.069z
			 M259.645,281.146c3.535,0.793,6.756,1.514,10.033,2.248c0.572-2.211,1.086-4.191,1.639-6.328
			c-3.377-0.928-6.615-1.818-10.041-2.76C260.723,276.622,260.207,278.78,259.645,281.146z M258.406,288.05
			c-0.266,2.439-0.51,4.689-0.773,7.107c3.457,0.27,6.645,0.52,9.916,0.777c0.279-2.25,0.529-4.26,0.789-6.35
			C264.949,289.062,261.785,288.571,258.406,288.05z M257.498,302.364c0.283,2.592,0.537,4.91,0.805,7.359
			c3.303-0.527,6.33-1.01,9.412-1.502c-0.178-2.156-0.336-4.076-0.482-5.857C263.934,302.364,260.852,302.364,257.498,302.364z
			 M248.83,40.954c2.945,2.676,5.836,5.302,8.713,7.916c2.469-2.494,2.641-2.681,1.152-5.358c-1.434-2.575-3.229-4.949-4.852-7.39
			C251.994,37.905,250.469,39.376,248.83,40.954z M263.439,323.946c2.846-1.646,5.406-3.129,7.945-4.598
			c-0.834-1.869-1.596-3.574-2.414-5.408c-2.883,1.002-5.725,1.99-8.809,3.061C261.27,319.347,262.297,321.526,263.439,323.946z
			 M273.977,334.981c1.834-2.51,3.477-4.76,5.15-7.053c-1.525-1.383-2.955-2.674-4.443-4.023c-2.186,2.061-4.291,4.043-6.537,6.16
			C270.16,331.763,271.969,333.288,273.977,334.981z M287.244,341.308c0.955-2.766,1.824-5.275,2.717-7.859
			c-1.957-0.832-3.83-1.631-5.793-2.465c-1.244,2.562-2.449,5.045-3.725,7.67C282.771,339.563,284.91,340.396,287.244,341.308z
			 M295.93,335.165c-0.609,2.715-1.174,5.23-1.783,7.932c2.445,0.398,4.676,0.76,6.998,1.137c0.396-2.709,0.76-5.197,1.137-7.783
			C300.119,336.013,298.123,335.608,295.93,335.165z M315.551,344.581c-0.303-2.615-0.572-4.945-0.842-7.256
			c-2.111,0-4.041,0-6.119,0c-0.145,2.531-0.285,4.975-0.441,7.695C310.754,344.866,313.037,344.731,315.551,344.581z
			 M320.328,336.007c0.811,2.096,1.664,4.301,2.623,6.781c2.408-1.406,4.527-2.643,6.73-3.928c-1.537-2.053-2.877-3.84-4.203-5.609
			C323.766,334.167,322.168,335.022,320.328,336.007z M332.816,324.052c-1.119,1.805-2.141,3.449-3.227,5.201
			c1.727,1.324,3.455,2.65,5.381,4.129c1.271-2.209,2.479-4.305,3.74-6.498C336.645,325.892,334.785,324.999,332.816,324.052z
			 M341.016,319.979c0.4-2.465,0.766-4.711,1.156-7.105c-2.164-0.275-4.01-0.508-5.971-0.756c-0.439,2.148-0.85,4.143-1.277,6.232
			C336.955,318.894,338.826,319.394,341.016,319.979z M342.5,305.749c-0.314-2.562-0.598-4.867-0.896-7.303
			c-2.021,0.467-3.723,0.861-5.428,1.256c0.174,2.109,0.336,4.074,0.498,6.047C338.58,305.749,340.33,305.749,342.5,305.749z
			 M332.551,286.292c-1.342,1.656-2.357,2.91-3.418,4.219c1.564,1.482,3.008,2.85,4.549,4.309c1.23-1.002,2.531-2.059,3.496-2.842
			C335.631,290.077,334.141,288.245,332.551,286.292z M324.178,287.056c0.637-1.441,1.234-2.801,1.943-4.406
			c-2.494-0.68-4.74-1.293-7.117-1.941c-0.268,1.695-0.48,3.053-0.691,4.395C320.287,285.761,322.123,286.372,324.178,287.056z
			 M311.639,280.858c-2.426,0.744-4.592,1.406-6.949,2.127c0.568,1.404,1.029,2.545,1.471,3.635
			c2.152-0.576,4.111-1.102,6.092-1.633C312.057,283.669,311.881,282.479,311.639,280.858z M296.828,294.073
			c1.312-1.604,2.529-3.086,3.828-4.668c-0.656-0.795-1.34-1.623-2.312-2.801c-1.547,2.105-2.965,4.035-4.531,6.166
			C295.191,293.364,296.062,293.741,296.828,294.073z M293.229,300.415c0.953,2.303,1.834,4.436,2.803,6.777
			c1.021-0.658,1.697-1.096,2.225-1.436c-0.764-2.094-1.441-3.951-2.141-5.877C295.268,300.038,294.449,300.188,293.229,300.415z
			 M308.264,312.665c-2.086-0.832-3.918-1.562-5.811-2.318c-0.33,0.539-0.668,1.09-1.234,2.014c2.396,0.779,4.562,1.484,6.938,2.256
			C308.211,313.62,308.24,313.099,308.264,312.665z M314.758,313.034c0.254,0.205,0.508,0.41,0.764,0.615
			c1.885-1.152,3.773-2.303,5.658-3.455c-0.068-0.262-0.137-0.523-0.205-0.785c-0.479,0.027-1.025-0.084-1.424,0.109
			c-1.307,0.637-2.596,1.326-3.812,2.119C315.295,311.925,315.078,312.558,314.758,313.034z M322.793,303.7
			c0.236-2.625-2.229-4.795-4.783-4.539c0.98,0.58,1.996,0.98,2.738,1.674C321.498,301.534,321.979,302.524,322.793,303.7z"/>
		<path style="display:inline;fill-rule:evenodd;clip-rule:evenodd;fill:#FFFFFF;" d="M268.09,8
			c-2.207,9.992,3.998,18.41,14.027,19.847c7.258,1.041,14.465,0.714,21.746-0.731c0.232,2.278,0.32,4.509,0.707,6.688
			c1.367,7.688,5.271,13.287,13.111,15.578c0.568,0.167,1.154,0.655,1.498,1.154c5.969,8.637,11.918,17.29,17.824,25.97
			c0.826,1.213,1.811,1.986,3.199,2.503c9.266,3.443,18.592,6.671,28.355,8.431c1.676,0.302,3.402,0.35,5.062,0.712
			c0.723,0.157,1.582,0.663,1.953,1.271c1.65,2.696,1.158,5.369-0.848,7.594c-2.16,2.396-4.668,4.472-6.902,6.803
			c-2.6,2.711-5.07,5.547-7.793,8.546c-0.291-0.219-0.988-0.755-1.701-1.271c-5.422-3.938-11.1-7.441-17.84-8.487
			c-2.396-0.372-4.934,0.172-7.408,0.248c-0.814,0.023-1.721,0.096-2.436-0.206c-7.748-3.282-15.486-6.595-23.182-9.998
			c-1.893-0.837-3.627-0.889-5.436,0.03c-3.045,1.547-6.049,3.182-9.148,4.606c-3.26,1.496-6.771,2.71-10.227,1.136
			c-2.266-1.031-4.34-2.736-6.127-4.515c-6.096-6.064-11.043-12.888-12.84-21.532c-1.146-5.516-0.016-10.515,3.531-14.961
			c0.533-0.671,0.896-1.599,1.025-2.455c1.762-11.867-3.225-20.58-14.264-25.03c-0.279-0.113-0.549-0.248-1.082-0.49
			c1.885-3.521,0.17-5.583-3.408-6.93c2.395-0.526,4.4-1.009,6.424-1.397c1.234-0.237,1.906-0.91,2.594-1.981
			c1.902-2.962,3.971-5.83,6.145-8.599C265.4,9.579,266.658,9.027,268.09,8z M318.621,60.329c-0.109-3.211-2.6-5.514-5.873-5.432
			c-3.131,0.079-5.639,2.743-5.504,5.85c0.135,3.114,2.824,5.608,5.92,5.485C316.326,66.107,318.729,63.509,318.621,60.329z"/>
		<path style="display:inline;fill-rule:evenodd;clip-rule:evenodd;fill:#FFFFFF;" d="M307.977,246.052
			c5.23-16.334,4.146-32.294,0.109-48.206c-4.287-16.907-12.221-32.097-22.303-46.231c-8.508-11.93-17.252-23.709-24.094-36.727
			c-3.336-6.348-6.02-12.931-6.795-20.166c-0.783-7.299,0.896-14.016,4.678-20.768c0.201,1.569,0.283,2.731,0.506,3.866
			c1.842,9.429,7.541,16.1,15.379,21.139c2.244,1.441,4.895,2.264,7.102,3.753c2.709,1.828,5.678,1.865,8.688,2.045
			c0.609,0.036,1.223,0.089,1.82,0.205c3.777,0.731,4.959,2.398,4.416,6.185c-0.541,3.773,0.176,5.774,3.492,7.236
			c1.529,0.674,3.572,0.19,5.381,0.224c1.393,0.026,2.795-0.056,4.176,0.082c1.912,0.19,2.887,1.543,2.732,3.281
			c-0.172,1.97-0.721,3.931-1.316,5.831c-0.383,1.223-0.514,2.222,0.555,3.104c0.047,0.037,0.084,0.09,0.115,0.143
			c1.527,2.72,3.801,4.003,6.939,4.553c5.064,0.888,6.893,3.955,4.812,8.624c-1.553,3.483,0.256,5.774,1.492,8.409
			c0.215,0.456,1.07,0.701,1.676,0.871c4.012,1.122,4.918,2.53,3.408,6.385c-0.863,2.21-0.588,4.082-0.045,6.286
			c1.891,7.683,3.932,15.374,5.066,23.186c1.58,10.868-1.328,21.064-6.416,30.663C324.215,230.089,316.9,238.521,307.977,246.052z"
			/>
		<path style="display:inline;fill-rule:evenodd;clip-rule:evenodd;fill:#FFFFFF;" d="M233.023,178.152
			c2.51,1.452,4.635,2.88,6.92,3.968c5.285,2.515,11.012,3.077,16.756,3.331c1.363,0.061,2.051,0.453,2.52,1.749
			c3.125,8.632,4.016,17.572,3.754,26.664c-0.154,5.331-0.762,10.603-3.217,15.458c-0.537,1.061-1.295,2.008-2.207,3.398
			C243.84,216.783,235.197,199.082,233.023,178.152z"/>
		<path style="display:inline;fill-rule:evenodd;clip-rule:evenodd;fill:#FFFFFF;" d="M322.162,237.987
			c0.809,3.826,1.828,8.656,2.785,13.197c-6.977,1.504-14.26,3.072-20.398,4.396C310.158,249.979,316.434,243.71,322.162,237.987z"
			/>
	</g>
	<g>
		<g>
			<path style="fill:#FFFFFF;" d="M251.436,166.885c3.566-1.506,7.035-2.975,10.736-4.539c0.814,2.192,1.539,4.144,2.332,6.279
				c-1.344,0.466-2.666,0.923-3.992,1.382h16.43c-2.176-6.203-4.896-12.25-8.107-18.155c-6.016-11.054-13.531-21.093-20.992-31.173
				c-5.639-7.616-11.262-15.244-15.232-23.928c-5.154-11.266-5.533-22.628-0.152-33.839c2.34-4.878,5.371-9.45,8.375-13.971
				c1.453-2.187,2.49-4.433,3.037-6.936c1.527-6.99-0.791-12.34-6.924-16.064c-0.916-0.558-1.891-1.027-2.85-1.515
				c-1.508-0.767-2.996-1.588-4.727-0.463c-0.393,0.255-0.984,0.234-1.488,0.28c-3.846,0.348-4.852,1.325-4.645,5.117
				c0.102,1.836-0.729,2.431-2.268,2.618c-1.911,0.233-3.838,0.371-5.733,0.701c-2.263,0.396-2.894,1.405-2.366,3.602
				c0.357,1.486,0.834,2.942,1.234,4.417c0.75,2.776,0.297,3.677-2.422,4.617c-1.979,0.685-4.029,1.177-5.973,1.944
				c-2.191,0.863-2.514,1.976-1.229,3.974c0.917,1.428,2.03,2.73,3.012,4.117c1.797,2.538,1.493,4.896-0.938,6.863
				c-1.762,1.425-3.671,2.672-5.391,4.145c-1.626,1.395-1.582,2.583,0.09,3.945c1.492,1.216,3.15,2.226,4.672,3.407
				c1.781,1.382,2.156,3.554,0.967,5.459c-0.537,0.862-1.218,1.635-1.84,2.444c-1.107,1.435-2.336,2.792-3.301,4.317
				c-1.031,1.633-0.677,2.63,1.104,3.342c1.572,0.629,3.238,1.019,4.85,1.555c3.541,1.18,4.58,4.074,2.541,7.184
				c-1.027,1.563-2.229,3.013-3.252,4.579c-1.697,2.593-1.28,3.684,1.706,4.467c1.97,0.517,3.999,0.814,5.956,1.367
				c2.278,0.643,3.102,2.148,2.456,4.405c-0.403,1.409-1.012,2.761-1.534,4.137c-0.461,1.217-1.009,2.408-1.379,3.652
				c-0.692,2.332,0.061,3.341,2.478,3.407c1.588,0.042,3.182-0.054,4.766,0.037c0.701,0.04,1.529,0.209,2.05,0.627
				c1.793,1.436,2.629,5.287,1.734,7.443c-0.695,1.675-1.506,3.308-2.102,5.016c-0.744,2.125-0.172,3.134,1.992,3.579
				c1.604,0.332,3.254,0.438,4.871,0.722c3.148,0.552,5.096,4.223,3.76,7.122c-0.662,1.441-1.523,2.791-2.174,4.236
				c-1.062,2.363-0.594,3.447,1.84,4.291c1.711,0.594,3.504,0.97,5.176,1.645c0.771,0.311,1.67,0.974,1.961,1.699
				c1.268,3.147,2.4,6.334,3.367,9.567h8.744C252.26,168.99,251.857,167.963,251.436,166.885z M234.699,26.131
				c1.506,2.269,3.174,4.474,4.506,6.867c1.385,2.488,1.225,2.661-1.07,4.979c-2.674-2.429-5.357-4.869-8.096-7.355
				C231.562,29.155,232.979,27.789,234.699,26.131z M225.596,35.774c3.074,2.231,6.031,4.375,9.1,6.603
				c-1.021,1.635-1.998,3.198-3.059,4.894c-3.262-1.914-6.465-3.793-9.856-5.784C223.115,39.489,224.307,37.705,225.596,35.774z
				 M218.621,47.518c3.661,1.647,7.049,3.172,10.53,4.738c-0.693,1.842-1.34,3.565-2.027,5.396
				c-3.672-1.249-7.24-2.463-11.042-3.758C216.935,51.749,217.738,49.734,218.621,47.518z M214.182,60.433
				c3.904,0.887,7.63,1.733,11.47,2.605c-0.314,1.884-0.609,3.649-0.951,5.689c-3.87-0.52-7.695-1.033-11.747-1.578
				C213.371,64.875,213.76,62.742,214.182,60.433z M212.472,74.164c3.908,0,7.733,0,11.756,0c0,2.142,0,3.936,0,6.113
				c-3.856,0-7.717,0-11.756,0C212.472,78.419,212.472,76.263,212.472,74.164z M214.001,94.023c-0.38-2.299-0.727-4.399-1.1-6.652
				c4.053-0.521,7.943-1.021,11.938-1.536c0.342,1.969,0.658,3.787,1.004,5.777C221.933,92.408,218.082,93.193,214.001,94.023z
				 M217.62,106.855c-0.696-2.146-1.36-4.194-2.065-6.366c3.979-1.125,7.725-2.185,11.657-3.298
				c0.605,1.833,1.197,3.632,1.854,5.628C225.307,104.145,221.596,105.454,217.62,106.855z M222.756,119.021
				c-0.955-2.075-1.822-3.961-2.771-6.025c3.738-1.594,7.347-3.134,11.146-4.754c0.844,1.816,1.66,3.57,2.527,5.441
				C230.021,115.463,226.49,117.193,222.756,119.021z M229.172,130.442c-1.131-1.884-2.215-3.69-3.389-5.645
				c3.578-2.008,7.02-3.938,10.572-5.931c1.025,1.709,2.008,3.348,3.117,5.196C236.02,126.201,232.709,128.252,229.172,130.442z
				 M236.395,141.02c-1.232-1.748-2.4-3.401-3.658-5.183c3.316-2.278,6.559-4.505,9.953-6.838c1.201,1.737,2.342,3.39,3.576,5.178
				C242.936,136.484,239.699,138.729,236.395,141.02z M239.768,146.002c3.33-2.175,6.576-4.298,10.016-6.545
				c1.207,1.92,2.285,3.634,3.459,5.503c-3.375,2.061-6.676,4.077-10.125,6.183C242.004,149.434,240.938,147.795,239.768,146.002z
				 M246.111,156.273c3.428-1.906,6.779-3.768,10.324-5.74c1.016,1.938,1.996,3.81,3.053,5.827
				c-3.533,1.769-6.959,3.484-10.543,5.28C247.961,159.776,247.066,158.083,246.111,156.273z"/>
			<path style="fill:#FFFFFF;" d="M233.818,19.921c0.496,0.225,0.746,0.35,1.008,0.455c10.258,4.135,14.891,12.231,13.252,23.258
				c-0.119,0.795-0.457,1.658-0.953,2.281c-3.295,4.132-4.346,8.777-3.281,13.902c1.67,8.033,6.268,14.373,11.932,20.008
				c1.66,1.652,3.588,3.237,5.693,4.195c3.211,1.463,6.475,0.335,9.502-1.055c2.881-1.324,5.674-2.843,8.502-4.28
				c1.682-0.854,3.291-0.806,5.051-0.028c7.15,3.163,14.34,6.241,21.541,9.291c0.664,0.28,1.506,0.213,2.262,0.191
				c2.301-0.071,4.658-0.576,6.885-0.23c6.264,0.972,11.539,4.228,16.578,7.886c0.66,0.48,1.311,0.979,1.58,1.182
				c2.529-2.787,4.824-5.422,7.24-7.941c2.078-2.166,4.408-4.095,6.414-6.321c1.863-2.067,2.32-4.551,0.789-7.056
				c-0.346-0.564-1.145-1.035-1.814-1.181c-1.545-0.336-3.148-0.381-4.705-0.662c-9.072-1.635-17.738-4.634-26.348-7.833
				c-1.291-0.48-2.207-1.199-2.973-2.326c-5.49-8.066-11.018-16.106-16.562-24.132c-0.32-0.464-0.865-0.917-1.395-1.072
				c-7.283-2.128-10.912-7.331-12.182-14.475c-0.359-2.024-0.441-4.097-0.658-6.214c-6.764,1.343-13.463,1.646-20.207,0.68
				C251.65,17.107,245.885,9.285,247.936,0c-1.33,0.954-2.5,1.467-3.193,2.352c-2.021,2.574-3.943,5.238-5.711,7.99
				c-0.639,0.996-1.264,1.622-2.41,1.841c-1.881,0.361-3.744,0.809-5.969,1.298C233.977,14.734,235.57,16.649,233.818,19.921z
				 M289.434,43.577c3.041-0.077,5.355,2.063,5.455,5.047c0.102,2.955-2.131,5.369-5.068,5.485
				c-2.877,0.114-5.377-2.203-5.502-5.097C284.193,46.126,286.523,43.65,289.434,43.577z"/>
			<path style="fill:#FFFFFF;" d="M311.008,168.524c-1.055-7.259-2.951-14.406-4.709-21.544c-0.504-2.048-0.76-3.788,0.043-5.841
				c1.402-3.582,0.561-4.89-3.166-5.933c-0.564-0.158-1.357-0.386-1.559-0.81c-1.148-2.448-2.83-4.577-1.387-7.814
				c1.934-4.338,0.234-7.188-4.471-8.014c-2.916-0.511-5.029-1.703-6.449-4.23c-0.027-0.049-0.062-0.098-0.105-0.132
				c-0.994-0.82-0.871-1.749-0.516-2.885c0.553-1.766,1.062-3.588,1.223-5.418c0.143-1.615-0.762-2.872-2.539-3.049
				c-1.283-0.128-2.586-0.052-3.881-0.076c-1.68-0.031-3.578,0.418-5-0.208c-3.082-1.358-3.746-3.218-3.244-6.724
				c0.504-3.518-0.594-5.067-4.104-5.747c-0.555-0.108-1.125-0.157-1.691-0.19c-2.797-0.167-5.557-0.202-8.074-1.9
				c-2.049-1.384-4.512-2.148-6.598-3.487c-7.283-4.682-12.58-10.881-14.291-19.642c-0.207-1.055-0.283-2.134-0.469-3.593
				c-3.514,6.274-5.076,12.516-4.348,19.298c0.721,6.723,3.215,12.84,6.314,18.738c6.357,12.096,14.482,23.042,22.389,34.127
				c8.078,11.325,14.666,23.381,18.883,36.559h27.928C311.135,169.514,311.08,169.021,311.008,168.524z"/>
			<path style="fill:#FFFFFF;" d="M239.691,166.515c-0.436-1.205-1.072-1.57-2.34-1.626c-5.338-0.236-10.66-0.758-15.571-3.094
				c-2.123-1.011-4.098-2.338-6.43-3.687c0.426,4.098,1.134,8.056,2.082,11.9h23.377
				C240.475,168.838,240.111,167.673,239.691,166.515z"/>
		</g>
		<g>
			<path style="fill:#FFFFFF;" d="M259.172,264.393c-0.232-0.595-0.463-1.185-0.695-1.774h-8.803
				c1.191,4.095,2.104,8.267,2.605,12.548c1.062,9.043-0.594,17.688-3.461,26.242c-1.186,3.545-2.938,6.173-6.564,7.34
				c-0.266,0.085-0.51,0.249-0.756,0.389c-2.297,1.313-2.719,2.462-1.77,4.918c0.387,1.004,0.867,1.973,1.248,2.979
				c0.811,2.144,0.514,3.332-1.26,4.812c-1,0.837-2.088,1.564-3.127,2.354c-2.84,2.153-3.227,3.392-1.553,6.504
				c1.154,2.15,1.533,4.287,0.533,6.482c-0.598,1.314-1.477,2.537-2.4,3.659c-2.818,3.427-2.883,4.154-0.848,8.047
				c0.693,1.327,1.342,2.792,1.516,4.253c0.41,3.426,0.395,6.903,0.779,10.333c1.08,9.67,4.26,18.52,10.498,26.138
				c10.357,12.646,23.406,19.971,41.887,20.507c2.818-0.459,7.527-0.89,12.055-2.033c11.004-2.776,19.648-8.8,24.256-19.526
				c4.082-9.498,4.408-19.27,0.965-29.037c-3.547-10.061-10.543-16.461-20.979-18.973c-9.986-2.403-18.602-0.325-25.096,8.04
				c-4.09,5.27-6.057,11.241-4.16,17.863c1.783,6.236,6.326,9.875,12.49,11.287c6.338,1.451,12.236,0.286,17.023-4.385
				c3.189-3.111,3.787-8.082,1.773-11.991c-1.684-3.267-5.43-4.913-9.77-4.294c-3.178,0.452-5.135,3.7-3.93,6.59
				c0.152,0.364,0.541,0.66,0.889,0.888c0.068,0.043,0.553-0.345,0.664-0.61c0.574-1.364,1.57-2.121,3.043-1.967
				c1.596,0.167,3.008,0.873,3.664,2.406c0.271,0.632,0.271,1.624-0.045,2.222c-1.193,2.258-5.199,3.854-7.715,3.241
				c-3.057-0.746-5.248-2.469-5.93-5.639c-0.719-3.345,0.254-6.182,2.986-8.321c4.543-3.561,11.121-3.454,15.598,0.229
				c6.363,5.234,7.32,16.706,1.557,23.252c-8.688,9.871-16.213,11.577-26.797,8.311c-7.994-2.469-14.254-7.125-16.859-15.425
				c-2.146-6.835-2.246-13.842-0.525-20.831c1.74-7.065,5.594-12.969,10.227-18.426c3.855-4.537,7.861-8.953,11.605-13.583
				c2.525-3.121,4.322-6.721,4.43-10.848c0.137-5.212,0.254-10.436,0.055-15.641c-0.406-10.525-2.41-20.604-5.75-30.304h-18.428
				C262.6,263.207,260.9,263.795,259.172,264.393z M299.898,362.542c2.373-0.237,4.664,1.779,4.443,4.218
				c-0.758-1.092-1.203-2.013-1.9-2.662C301.752,363.453,300.809,363.081,299.898,362.542z M297.785,374.136
				c1.131-0.736,2.33-1.377,3.543-1.969c0.371-0.18,0.879-0.076,1.324-0.102c0.064,0.243,0.127,0.486,0.191,0.729
				c-1.752,1.07-3.508,2.14-5.26,3.21c-0.236-0.19-0.473-0.381-0.709-0.571C297.174,374.99,297.375,374.402,297.785,374.136z
				 M279.475,370.005c-0.9-2.176-1.719-4.157-2.605-6.297c1.137-0.211,1.895-0.351,2.684-0.498c0.65,1.79,1.279,3.516,1.988,5.461
				C281.051,368.987,280.424,369.394,279.475,370.005z M280.215,357.814c-0.711-0.309-1.521-0.658-2.801-1.21
				c1.455-1.98,2.771-3.773,4.209-5.729c0.904,1.094,1.539,1.863,2.148,2.603C282.564,354.947,281.436,356.325,280.215,357.814z
				 M290.842,375.091c-0.023,0.402-0.051,0.887-0.102,1.812c-2.205-0.717-4.219-1.372-6.445-2.096
				c0.527-0.858,0.84-1.37,1.146-1.871C287.199,373.639,288.902,374.317,290.842,375.091z M288.887,350.89
				c-0.41-1.014-0.838-2.073-1.367-3.378c2.189-0.67,4.203-1.285,6.459-1.977c0.223,1.507,0.387,2.611,0.568,3.837
				C292.707,349.865,290.887,350.354,288.887,350.89z M305.629,351.294c-1.91-0.635-3.615-1.203-5.451-1.814
				c0.197-1.247,0.395-2.509,0.645-4.084c2.207,0.603,4.295,1.173,6.613,1.804C306.775,348.691,306.221,349.954,305.629,351.294z
				 M315.658,394.341c-1.791-1.374-3.396-2.606-5-3.837c1.01-1.628,1.957-3.156,2.998-4.833c1.83,0.881,3.557,1.71,5.477,2.632
				C317.961,390.341,316.84,392.288,315.658,394.341z M321.273,381.887c-2.033-0.544-3.771-1.009-5.66-1.514
				c0.398-1.941,0.779-3.794,1.188-5.791c1.822,0.23,3.537,0.446,5.549,0.702C321.986,377.51,321.646,379.597,321.273,381.887z
				 M322.654,368.664c-2.016,0-3.643,0-5.414,0c-0.15-1.833-0.303-3.659-0.463-5.619c1.584-0.366,3.164-0.733,5.043-1.167
				C322.1,364.142,322.361,366.283,322.654,368.664z M313.408,350.584c1.479,1.815,2.861,3.518,4.301,5.283
				c-0.896,0.728-2.105,1.71-3.25,2.641c-1.432-1.355-2.773-2.626-4.227-4.003C311.219,353.288,312.162,352.123,313.408,350.584z
				 M306.836,394.219c1.232,1.645,2.479,3.306,3.908,5.213c-2.049,1.194-4.018,2.343-6.256,3.649
				c-0.891-2.305-1.684-4.354-2.436-6.301C303.762,395.865,305.246,395.07,306.836,394.219z M291.145,398.005
				c1.93,0,3.723,0,5.686,0c0.25,2.147,0.5,4.312,0.783,6.742c-2.336,0.14-4.457,0.265-6.879,0.408
				C290.879,402.627,291.01,400.357,291.145,398.005z M250.895,327.147c3.252,1.145,6.271,2.21,9.439,3.326
				c-0.693,1.998-1.332,3.848-2.018,5.826c-3.131-1.002-6.176-1.979-9.389-3.01C249.584,331.243,250.213,329.277,250.895,327.147z
				 M247.178,339.446c3.184,0.875,6.193,1.702,9.332,2.564c-0.516,1.985-0.99,3.826-1.523,5.88
				c-3.045-0.682-6.037-1.352-9.324-2.089C246.188,343.604,246.664,341.599,247.178,339.446z M244.512,352.218
				c3.141,0.484,6.08,0.939,9.229,1.427c-0.24,1.941-0.473,3.809-0.732,5.899c-3.039-0.239-6.002-0.472-9.215-0.722
				C244.039,356.575,244.266,354.484,244.512,352.218z M244.416,372.357c-0.248-2.276-0.484-4.431-0.748-6.839
				c3.117,0,5.98,0,9.045,0c0.137,1.655,0.283,3.439,0.449,5.443C250.299,371.419,247.486,371.867,244.416,372.357z
				 M246.145,379.119c2.865-0.994,5.506-1.913,8.184-2.844c0.762,1.704,1.469,3.289,2.244,5.025
				c-2.359,1.365-4.738,2.742-7.383,4.272C248.129,383.324,247.174,381.299,246.145,379.119z M279.381,395.998
				c2.037,0.411,3.893,0.787,5.902,1.193c-0.352,2.403-0.689,4.716-1.057,7.232c-2.158-0.35-4.23-0.686-6.504-1.056
				C278.289,400.858,278.812,398.521,279.381,395.998z M268.451,392.112c1.824,0.774,3.564,1.517,5.383,2.29
				c-0.83,2.401-1.637,4.733-2.525,7.303c-2.168-0.847-4.154-1.62-6.318-2.466C266.174,396.8,267.295,394.493,268.451,392.112z
				 M263.766,389.273c-1.555,2.131-3.08,4.222-4.783,6.554c-1.867-1.573-3.549-2.991-5.42-4.568c2.088-1.967,4.045-3.81,6.074-5.724
				C261.021,386.789,262.35,387.988,263.766,389.273z M262.502,324.801c-3.191-1.209-6.277-2.378-9.516-3.604
				c0.764-2.042,1.482-3.966,2.238-5.987c3.238,1.285,6.32,2.506,9.596,3.808C264.045,320.951,263.303,322.801,262.502,324.801z
				 M267.232,313.188c-3.344-1.241-6.555-2.43-9.846-3.649c0.656-1.94,1.266-3.749,1.936-5.734
				c3.361,1.062,6.631,2.094,10.133,3.199C268.707,309.086,267.994,311.071,267.232,313.188z M271.322,300.699
				c-3.553-0.854-6.975-1.674-10.488-2.518c0.387-1.975,0.74-3.786,1.131-5.778c3.568,0.577,7.064,1.142,10.809,1.746
				C272.275,296.393,271.826,298.425,271.322,300.699z M273.57,287.433c-3.74-0.22-7.322-0.431-10.975-0.646
				c0-1.954,0-3.744,0-5.878c3.686,0,7.238,0,10.975,0C273.57,282.936,273.57,285.089,273.57,287.433z M262.025,275.467
				c-0.404-1.89-0.787-3.685-1.207-5.647c3.691-0.911,7.291-1.801,11.117-2.746c0.436,2.354,0.824,4.459,1.244,6.726
				C269.408,274.363,265.789,274.904,262.025,275.467z"/>
			<path style="fill:#FFFFFF;" d="M290.676,268.399c3.75,14.786,4.76,29.615-0.102,44.793c8.291-6.998,15.09-14.833,20.047-24.185
				c4.398-8.297,7.039-17.076,6.205-26.39h-27.789C289.633,264.521,290.182,266.449,290.676,268.399z"/>
			<path style="fill:#FFFFFF;" d="M243.715,300.805c0.848-1.293,1.553-2.173,2.051-3.158c2.281-4.512,2.848-9.41,2.99-14.363
				c0.201-7.014-0.355-13.929-2.205-20.665h-23.387C226.762,276.764,233.805,289.285,243.715,300.805z"/>
			<path style="fill:#FFFFFF;" d="M306.344,317.962c-0.891-4.22-1.838-8.708-2.588-12.263c-5.322,5.317-11.154,11.143-16.367,16.348
				C293.094,320.816,299.861,319.359,306.344,317.962z"/>
		</g>
		<g>
			<path style="fill:#FFFFFF;" d="M8.285,235.27c3.433,6.139,7.856,9.539,14.952,9.539c5.38,0,10.562-3.797,10.562-9.309
				c0-16.8-30.2-18.35-30.2-40.431c0-9.605,8.119-16.8,18.285-16.8c7.394,0,13.5,3.366,19.111,10.232l-7.129,5.742
				c-4.126-4.555-7.559-6.699-11.354-6.699c-4.456,0-8.582,2.442-8.582,7.954c0,13.863,30.432,17.526,30.432,38.749
				c0,11.717-8.12,20.069-21.322,20.069c-11.156,0-18.714-5.712-23.038-14.261L8.285,235.27z"/>
			<path style="fill:#FFFFFF;" d="M91.028,254.315c-20.992,0-38.023-17.032-38.023-38.024c0-20.992,17.031-38.022,38.023-38.022
				c20.992,0,38.023,17.031,38.023,38.022C129.051,237.283,112.02,254.315,91.028,254.315z M63.567,216.291
				c0,15.447,12.279,27.988,27.461,27.988c15.183,0,27.461-12.541,27.461-27.988c0-15.446-12.278-27.988-27.461-27.988
				C75.846,188.303,63.567,200.845,63.567,216.291z"/>
			<path style="fill:#FFFFFF;" d="M154.76,243.752h23.236v9.506h-33.798v-73.934h10.562V243.752z"/>
			<path style="fill:#FFFFFF;" d="M215.093,190.745c-4.225-4.521-8.021-6.833-12.311-6.833c-5.579,0-10.892,3.136-10.892,10.364
				c0,16.406,32.049,20.068,32.049,41.027c0,11.09-7.492,19.013-19.638,19.013c-10.463,0-17.527-5.052-21.587-12.774l5.149-2.938
				c3.697,6.303,8.615,9.803,16.603,9.803c6.831,0,13.07-4.852,13.07-11.98c0-19.209-31.851-20.695-31.851-42.611
				c0-8.812,7.328-15.546,16.371-15.546c6.8,0,12.344,2.904,17.461,8.912L215.093,190.745z"/>
			<path style="fill:#FFFFFF;" d="M373.85,179.324h6.369v67.299c-6.865,4.688-15.744,7.692-24.26,7.692
				c-16.701,0-29.572-4.854-29.572-28.287v-46.704h6.369v44.624c0,23.171,12.971,24.589,23.203,24.589
				c5.15,0,11.586-1.484,17.891-5.545V179.324z"/>
			<path style="fill:#FFFFFF;" d="M407.775,179.324v68.125h23.963v5.809h-30.299v-73.934H407.775z"/>
			<path style="fill:#FFFFFF;" d="M309.82,216.291c0,20.992-16.998,38.024-37.957,38.024c-20.926,0-37.957-17.032-37.957-38.024
				c0-20.958,17.031-38.022,37.957-38.022C292.822,178.269,309.82,195.333,309.82,216.291z M240.309,216.291
				c0,17.625,14.094,32.049,31.555,32.049s31.586-14.424,31.586-32.049c0-17.624-14.094-32.049-31.586-32.049
				C254.402,184.242,240.309,198.667,240.309,216.291z"/>
			<g>
				<path style="fill:#FFFFFF;" d="M431.684,179.943v7.247h-0.906v-7.247h-2.018v-0.82h4.938v0.82H431.684z"/>
				<path style="fill:#FFFFFF;" d="M438.072,187.42l-2.246-5.715l-1.275,5.485h-0.93l1.951-8.297l2.5,6.323l2.502-6.323l1.959,8.297
					h-0.936l-1.275-5.485L438.072,187.42z"/>
			</g>
		</g>
	</g>
</g>
<g id="Layer_1">
</g>
</svg>
