<?xml version="1.0" encoding="iso-8859-1"?>
<!-- Generator: Adobe Illustrator 16.0.0, SVG Export Plug-In . SVG Version: 6.00 Build 0)  -->
<!DOCTYPE svg PUBLIC "-//W3C//DTD SVG 1.1//EN" "http://www.w3.org/Graphics/SVG/1.1/DTD/svg11.dtd">
<svg version="1.1" xmlns="http://www.w3.org/2000/svg" xmlns:xlink="http://www.w3.org/1999/xlink" x="0px" y="0px"
	 width="442.533px" height="173.723px" viewBox="0 0 442.533 173.723" style="enable-background:new 0 0 442.533 173.723;"
	 xml:space="preserve">
<g id="seal">
	<g>
		<path style="fill:#FFFFFF;" d="M220.67,108.303c0.562-0.965,0.464-2.182,0.812-3.233c-0.02-0.495-0.618-0.428-0.607-0.949
			c0.069-0.536,0.402-1.248,0.301-1.619c0.143-0.531,0.467,0.428,0.604-0.098c0.446-0.753,0.631-1.748,1.104-2.476
			c1.578-1.352,3.441-2.444,4.01-4.76c0.471-0.165,0.129,0.443,0.604,0.289c0.252-1.697,0.623-3.285,0.9-4.956
			c2.232,3.187,4.092,6.601,6.113,9.901c2.025,3.311,4.604,6.178,6.717,9.334c4.117,3.243,8.039,6.843,12.129,10.375
			c1.916,1.65,4.334,3.11,6.621,4.667c1.121,0.764,2.385,1.367,3.711,2.001c1.877,0.897,3.395,1.847,5.811,2.187
			c0.455,1.568,0.898,3.027,1.402,4.477c0.504,1.444,0.771,3.037,1.408,4.378c0.539,1.146,1.623,2.342,2.398,3.522
			c0.783,1.191,1.525,2.537,2.311,3.527c1.883,2.367,4.383,4.249,5.912,6.755c0.023,0.33,0.555,0.171,0.803,0.289
			c1.322,2.104,3.387,4.069,5.111,5.998c0.504,0.557,0.828,1.325,1.305,1.81c0.221,0.222,0.504,0.155,0.803,0.377
			c0.545,0.396,1.08,1.253,1.705,1.717c0.334,0.248,0.84,0.299,1.201,0.572c0.562,0.418,0.893,1.114,1.402,1.521
			c0.285,0.227,0.703,0.33,1.008,0.572c0.717,0.562,1.266,1.367,1.9,1.712c0.273,0.145,0.613,0.067,0.898,0.196
			c0.939,0.382,1.834,1.356,2.717,1.903c0.516,0.319,1.088,0.469,1.602,0.758c1.07,0.608,2.016,1.479,3.107,1.995
			c0.363,0.176,0.76,0.201,1.104,0.382c1.17,0.629,2.605,1.98,3.807,2.197c0.369,0.062,0.625-0.108,1.102-0.104
			c0.533,0.011,1.102,0.253,1.4,0.191c1.334-0.259,1.877-3.301,1.811-4.951c-0.023-0.407-0.443-1.795-0.705-2.284
			c-0.551-1.021-1.984-1.748-2.605-2.471c-1.293,0.567-1.688-0.629-2.504-1.047c-0.086-0.366,0.482-0.113,0.396-0.474
			c-0.521-0.852-1.525-1.228-1.9-2.192c-0.234-0.598-0.027-1.351-0.203-2.006c-0.113-0.412-0.439-0.645-0.598-1.047
			c-0.414-0.99-0.395-2.202-1.408-2.759c0.178-0.181,0.258,0.077,0.604,0c-2.17-2.259-5.096-3.76-6.914-6.379
			c-0.709-1.016-1.123-2.161-1.908-3.146c-0.752-0.934-1.535-1.759-2.203-2.76c-1.494-0.711-2.398-2.217-3.51-3.517
			c-1.625-1.902-3.355-3.543-5.016-5.528c-0.773-0.928-1.814-1.902-2.006-3.141c9.969-0.737,18.629-3.831,28.172-4.568
			c2.195-0.171,3.057,0.531,4.809,1.145c5.082,1.764,10.467,3.27,15.646,4.857c2.107,0.645,4.23,1.465,6.211,1.903
			c1.646,0.361,3.447,0.366,5.314,0.567c2.188,0.231,5.168,0.995,6.717-0.093c0.586-1.289-1.287-1.388-2.305-1.625
			c-2.176-0.484-4.734-1.181-6.016-2.279c0.611-1.016,2.156-0.67,3.408-0.67c1.328,0,2.881,0.093,4.107,0
			c3.084-0.217,6.289-1.393,9.223-1.521c0.893-1.114,4.162-0.959,3.711-3.048c-0.16-0.732-1.773-1.145-2.508-1.237
			c-1.195-0.14-2.666-0.119-3.902,0c-3.486,0.33-7.139,0.948-10.029,1.052c2.596-0.929,5.549-1.8,8.221-2.764
			c0.803-0.294,1.943-0.377,2.301-1.238c-0.311-0.629-1.395-0.588-2.002-0.572c-1.883,0.067-4.129,0.902-5.617,0.671
			c0.305-1.119,2.051-1.305,3.314-1.625c1.328-0.335,2.926-0.36,3.309-1.33c-0.592-0.629-1.664-0.011-2.412,0.093
			c-0.84,0.124-1.805-0.026-2.5,0.387c-0.752-0.284-1.682-0.371-2.207-0.861c1.234-1.49,3.652-2.367,4.609-3.806
			c-0.199-0.671-1.348-0.438-2-0.671c0.486-1.31,2.676-1.005,2.703-2.759c-0.742-0.975-2.025-0.433-2.908-0.19
			c-5.955,1.671-12.551,3.512-18.543,5.522c-1.016,0.341-2.004,0.908-2.914,1.047c-1.914,0.3-5.477,0.171-7.514,0
			c-0.623-0.051-1.158-0.206-1.707-0.381c0.316-0.841,0.936-1.903,1.102-2.568c-0.312-0.108-0.998,0.304-1.602,0.572
			c-1.424,0.629-3.238,1.764-5.412,1.047c-0.877-0.294-1.836-1.253-2.805-1.903c-2.752-1.856-5.66-3.677-8.324-5.527
			c-1.781-1.232-3.285-2.862-4.912-4.28c-1.67-1.46-3.496-2.867-4.912-4.291c-0.877-0.877-1.588-2.099-2.404-3.135
			c-5.484-6.998-11.564-14.569-16.844-21.614c-0.748-2.171-0.629-5.729,0-8.473c0.307-1.346,1.232-3.62,1.906-5.049
			c0.693-1.459,1.898-3.336,3.104-4.187c1.867-1.311,5.41-2.408,7.826-3.244c2.82-0.97,5.828-1.666,8.418-2.568
			c5.436-1.887,10.361-4.156,15.941-5.997c5.799-1.908,11.742-2.702,17.039-4.951c2.621-1.108,5.176-2.124,7.518-3.429
			c2.326-1.279,4.754-2.424,6.621-4.285c0.006-1.82,0.379-2.853,1.098-4.09c-0.109-0.97-0.34-1.748-0.898-2.476
			c-1.076-0.634-2.504-0.923-3.309-1.81c-3.115-0.366-6.268-0.769-9.318-1.424c-2.922-0.639-5.975-1.052-8.424-2.191
			c-1.119-0.521-2.031-1.479-3.109-2.094c-1.117-0.64-2.463-1.64-3.711-1.815c-0.027,0-0.07,0-0.096,0
			c-7.709,0.666-15.906,1.146-23.561,2.197c-11.297,1.547-21.57,6.069-30.881,10.18c-1.559,0.696-3.092,1.47-4.609,2.197
			c-1.607,0.763-3.309,1.294-4.709,2.088c-1.594,0.908-3.238,2.114-5.014,3.141c-1.744,1.016-3.615,1.944-5.215,2.955
			c-1.037,0.655-2.029,1.666-3.107,2.476c-2.111,1.577-4.318,3.058-6.314,4.862c-0.975,0.872-2.211,1.748-2.902,2.661
			c-1.012,1.315-1.682,2.991-2.816,4.373c-1.086,1.341-2.537,2.661-3.305,3.909c-0.512,0.835-1.045,1.99-1.602,3.048
			c-0.54,1.016-1.382,2.253-1.604,3.048c-0.441,1.567-0.075,3.166-0.302,4.471c-0.3,1.691-1.276,4.048-2.009,5.621
			c-0.186,0.407-0.431,0.747-0.701,1.14c-0.229,0.273,0.284,0.443,0.204,0.855c-1.583,2.821-2.354,6.4-3.813,9.334
			c0.17,0.831-0.477,1.691-0.596,2.853c-0.049,0.474,0.064,0.964,0,1.434c-0.087,0.572-0.503,1.118-0.606,1.706
			c-0.062,0.346,0.046,0.774,0,1.146c-0.113,0.928-0.601,1.805-0.601,2.573c0.005,0.299,0.17,0.64,0.198,0.954
			c0.124,1.407-0.198,3.114-0.198,4.853c0,1.521-0.034,2.939,0,4.378c0.033,1.382-0.358,2.815-0.104,4.095
			c0.08,0.396,0.402,0.608,0.704,1.145c0.415,0.717,0.302,1.228,1.003,1.521c1.086,0.448,2.15-0.154,3.308-0.665
			c1.294-0.562,1.656-0.773,2.506-1.712C220.098,108.71,220.557,108.52,220.67,108.303z"/>
		<g>
			<path style="fill:#FFFFFF;" d="M8.285,57c3.433,6.139,7.856,9.539,14.952,9.539c5.38,0,10.562-3.797,10.562-9.309
				c0-16.8-30.2-18.35-30.2-40.431C3.598,7.194,11.717,0,21.883,0c7.394,0,13.5,3.366,19.111,10.232l-7.129,5.742
				c-4.126-4.555-7.559-6.699-11.354-6.699c-4.456,0-8.582,2.442-8.582,7.954c0,13.863,30.432,17.526,30.432,38.749
				c0,11.717-8.12,20.069-21.322,20.069C11.882,76.046,4.324,70.334,0,61.786L8.285,57z"/>
			<path style="fill:#FFFFFF;" d="M91.028,76.046c-20.992,0-38.023-17.032-38.023-38.024C53.005,17.03,70.036,0,91.028,0
				c20.992,0,38.023,17.031,38.023,38.023C129.051,59.014,112.02,76.046,91.028,76.046z M63.567,38.022
				c0,15.447,12.279,27.988,27.461,27.988c15.183,0,27.461-12.541,27.461-27.988s-12.278-27.988-27.461-27.988
				C75.846,10.034,63.567,22.576,63.567,38.022z"/>
			<path style="fill:#FFFFFF;" d="M154.76,65.483h23.236v9.506h-33.798V1.055h10.562V65.483z"/>
			<path style="fill:#FFFFFF;" d="M215.093,12.476c-4.225-4.521-8.021-6.833-12.311-6.833c-5.579,0-10.892,3.136-10.892,10.364
				c0,16.405,32.049,20.068,32.049,41.027c0,11.09-7.492,19.013-19.638,19.013c-10.463,0-17.527-5.052-21.587-12.774l5.149-2.938
				c3.697,6.303,8.615,9.803,16.603,9.803c6.831,0,13.07-4.852,13.07-11.98c0-19.209-31.851-20.696-31.851-42.611
				C185.685,6.733,193.013,0,202.056,0c6.8,0,12.344,2.904,17.461,8.912L215.093,12.476z"/>
			<path style="fill:#FFFFFF;" d="M373.85,1.055h6.369v67.299c-6.865,4.688-15.744,7.692-24.26,7.692
				c-16.701,0-29.572-4.854-29.572-28.287V1.055h6.369v44.624c0,23.171,12.971,24.589,23.203,24.589
				c5.15,0,11.586-1.484,17.891-5.545V1.055z"/>
			<path style="fill:#FFFFFF;" d="M407.775,1.055V69.18h23.963v5.809h-30.299V1.055H407.775z"/>
			<path style="fill:#FFFFFF;" d="M309.82,38.022c0,20.992-16.998,38.024-37.957,38.024c-20.926,0-37.957-17.032-37.957-38.024
				C233.906,17.063,250.938,0,271.863,0C292.822,0,309.82,17.063,309.82,38.022z M240.309,38.022
				c0,17.625,14.094,32.048,31.555,32.048s31.586-14.424,31.586-32.048S289.355,5.973,271.863,5.973
				C254.402,5.973,240.309,20.398,240.309,38.022z"/>
			<g>
				<path style="fill:#FFFFFF;" d="M431.684,1.674v7.247h-0.906V1.674h-2.018v-0.82h4.938v0.82H431.684z"/>
				<path style="fill:#FFFFFF;" d="M438.072,9.151l-2.246-5.715l-1.275,5.485h-0.93l1.951-8.297l2.5,6.323l2.502-6.323l1.959,8.297
					h-0.936l-1.275-5.485L438.072,9.151z"/>
			</g>
		</g>
	</g>
</g>
<g id="Layer_1">
</g>
</svg>
