<?xml version="1.0" encoding="iso-8859-1"?>
<!-- Generator: Adobe Illustrator 16.0.0, SVG Export Plug-In . SVG Version: 6.00 Build 0)  -->
<!DOCTYPE svg PUBLIC "-//W3C//DTD SVG 1.1//EN" "http://www.w3.org/Graphics/SVG/1.1/DTD/svg11.dtd">
<svg version="1.1" id="Layer_1" xmlns="http://www.w3.org/2000/svg" xmlns:xlink="http://www.w3.org/1999/xlink" x="0px" y="0px"
	 width="610.345px" height="126.279px" viewBox="0 0 610.345 126.279" style="enable-background:new 0 0 610.345 126.279;"
	 xml:space="preserve">
<g>
	<g>
		<path style="fill:#FFFFFF;" d="M607.884,35.942l-2.295-2.295c-3.281-3.281-8.6-3.281-11.881,0l-23.714,23.714
			c2.338,3.643,1.921,8.553-1.262,11.736L554.401,83.43c-2.257,2.256-5.255,3.498-8.445,3.498c-3.191,0-6.19-1.242-8.446-3.498
			l-1.44-1.441c-2.534-2.534-3.678-5.932-3.454-9.253c-1.609,0.785-3.383,1.212-5.228,1.212c-3.189,0-6.188-1.242-8.444-3.498
			l-2.211-2.211c-2.257-2.256-3.498-5.255-3.498-8.444c0-1.129,0.162-2.23,0.463-3.285c-0.704,0.128-1.424,0.201-2.155,0.201
			c-3.191,0-6.19-1.242-8.446-3.498l-0.379-0.381c-3.043-3.042-4.084-7.328-3.15-11.235l-2.739,2.739
			c-1.226,1.225-1.271,3.187-0.119,4.48c12.342,13.872,15.129,26.623,15.902,33.709c0.05,0.46-0.632,0.559-0.716,0.104
			c-2.971-16.164-12.617-26.503-17.787-31.196c-1.286-1.167-3.262-1.117-4.49,0.112l-1.479,1.479l0.124-26.759
			c0.021-4.578-1.693-8.995-4.799-12.359l-8.203-8.886c-5.664-6.137-15.156-6.726-21.537-1.337l-3.365,2.843
			c-1.457,1.256-1.678,3.432-0.502,4.954l1.488,2.275l4.407-2.888l6.067,7.935c1.239,1.603,0.953,3.94-0.646,5.205l-1.077,0.928
			l3.762,4.678c0.979,1.268,1.51,2.823,1.51,4.424V76.93c0,8.935,3.408,17.87,10.226,24.687l14.437,14.438
			c13.635,13.634,35.739,13.634,49.374,0l3.344-3.344c1.196-1.195,1.121-3.16-0.17-4.252c-5.39-4.56-15.944-14.891-21.01-29.451
			c-0.149-0.431,0.472-0.687,0.67-0.276c3.362,6.979,10.68,18.743,24.444,26.978c1.131,0.678,2.583,0.484,3.516-0.448l14.039-14.038
			l10.724-10.474l32.925-32.925C611.166,44.542,611.166,39.224,607.884,35.942"/>
		<path style="fill:#FFFFFF;" d="M556.435,49.848l-6.578,6.578l-14.023,14.023c-0.392,0.392-0.812,0.74-1.247,1.07
			c-0.652,3.218,0.266,6.693,2.763,9.189l1.44,1.44c1.979,1.979,4.572,2.969,7.166,2.969c2.593,0,5.188-0.989,7.165-2.969
			l14.332-14.332c2.477-2.477,2.879-6.234,1.223-9.137c-0.329-0.575-0.73-1.121-1.223-1.612l-5.024-5.023
			c-1.483-1.484-3.429-2.227-5.374-2.227C556.847,49.818,556.64,49.832,556.435,49.848"/>
		<path style="fill:#FFFFFF;" d="M550.572,78.835c-1.323,1.323-3.083,2.052-4.954,2.052c-1.872,0-3.631-0.729-4.954-2.052
			c-1.324-1.323-2.053-3.083-2.053-4.954c0-1.872,0.729-3.631,2.053-4.954c0.454-0.456,1.297-0.918,2.727-0.536
			c2.9,0.777,6.939,4.816,7.717,7.717C551.49,77.537,551.028,78.38,550.572,78.835"/>
		<path style="fill:#FFFFFF;" d="M504.375,51.931c1.979,1.979,4.572,2.97,7.166,2.97c0.997,0,1.994-0.15,2.956-0.443
			c0.568-1.134,1.311-2.186,2.233-3.11l13.723-13.721l5.854-5.854c0.127-2.003-0.567-4.05-2.098-5.58l-4.474-4.475
			c-1.414-1.413-3.267-2.12-5.119-2.12s-3.705,0.707-5.118,2.12l-2.69,2.69L503.996,37.22c-3.957,3.958-3.957,10.375,0,14.332
			L504.375,51.931z"/>
		<path style="fill:#FFFFFF;" d="M506.854,40.11c1.652-1.653,4.653,0.176,6.721,2.243c2.066,2.067,3.895,5.067,2.243,6.72
			c-1.236,1.235-2.859,1.853-4.482,1.853s-3.246-0.617-4.481-1.853C504.383,46.603,504.383,42.581,506.854,40.11"/>
		<path style="fill:#FFFFFF;" d="M531.753,38.886l-13.047,13.047l-0.695,0.694c-0.616,0.616-1.125,1.297-1.549,2.015
			c-0.244,0.413-0.466,0.835-0.646,1.271c-1.521,3.673-0.791,8.06,2.195,11.046l2.211,2.21c1.979,1.979,4.571,2.969,7.166,2.969
			c1.956,0,3.912-0.564,5.604-1.69c0.45-0.299,0.876-0.647,1.284-1.026c0.091-0.086,0.188-0.162,0.278-0.252l14.003-14.003
			l5.813-5.813l1.067-1.067c0.048-0.048,0.089-0.101,0.136-0.149c2.825-2.979,2.784-7.68-0.136-10.6l-5.793-5.793
			c-1.484-1.485-3.43-2.227-5.375-2.227s-3.89,0.741-5.374,2.227l-0.858,0.857l-1.202,1.202l-2.625,2.626L531.753,38.886z"/>
		<path style="fill:#FFFFFF;" d="M532.71,65.36c-1.501,1.501-3.473,2.252-5.444,2.252c-1.973,0-3.944-0.751-5.445-2.252
			c-3.003-3.002-3.003-7.888,0-10.89c1.944-1.945,5.569,0.296,8.081,2.808S534.657,63.414,532.71,65.36"/>
	</g>
	<g>
		<path style="fill:#FFFFFF;" d="M8.285,83.629c3.433,6.139,7.856,9.539,14.952,9.539c5.38,0,10.562-3.797,10.562-9.309
			c0-16.8-30.2-18.351-30.2-40.431c0-9.605,8.119-16.8,18.285-16.8c7.394,0,13.5,3.366,19.111,10.232l-7.129,5.742
			c-4.126-4.555-7.559-6.699-11.354-6.699c-4.456,0-8.582,2.442-8.582,7.954c0,13.863,30.432,17.526,30.432,38.749
			c0,11.717-8.12,20.069-21.322,20.069c-11.156,0-18.714-5.712-23.038-14.261L8.285,83.629z"/>
		<path style="fill:#FFFFFF;" d="M91.028,102.675c-20.992,0-38.023-17.032-38.023-38.023c0-20.993,17.031-38.023,38.023-38.023
			c20.992,0,38.023,17.031,38.023,38.023C129.051,85.643,112.02,102.675,91.028,102.675z M63.567,64.651
			c0,15.446,12.279,27.987,27.461,27.987c15.183,0,27.461-12.541,27.461-27.987c0-15.447-12.278-27.989-27.461-27.989
			C75.846,36.663,63.567,49.204,63.567,64.651z"/>
		<path style="fill:#FFFFFF;" d="M154.76,92.111h23.236v9.506h-33.798V27.684h10.562V92.111z"/>
		<path style="fill:#FFFFFF;" d="M215.093,39.104c-4.225-4.521-8.021-6.833-12.311-6.833c-5.579,0-10.892,3.136-10.892,10.364
			c0,16.405,32.048,20.068,32.048,41.027c0,11.09-7.492,19.013-19.638,19.013c-10.463,0-17.527-5.052-21.587-12.774l5.149-2.938
			c3.697,6.303,8.615,9.803,16.603,9.803c6.831,0,13.07-4.852,13.07-11.98c0-19.21-31.851-20.696-31.851-42.611
			c0-8.812,7.328-15.546,16.371-15.546c6.8,0,12.344,2.904,17.461,8.912L215.093,39.104z"/>
		<path style="fill:#FFFFFF;" d="M373.849,27.684h6.369v67.299c-6.865,4.688-15.744,7.692-24.259,7.692
			c-16.701,0-29.573-4.854-29.573-28.287V27.684h6.369v44.624c0,23.171,12.972,24.589,23.204,24.589
			c5.149,0,11.585-1.484,17.89-5.545V27.684z"/>
		<path style="fill:#FFFFFF;" d="M407.776,27.684v68.125h23.962v5.809H401.44V27.684H407.776z"/>
		<path style="fill:#FFFFFF;" d="M309.82,64.651c0,20.991-16.997,38.023-37.957,38.023c-20.925,0-37.957-17.032-37.957-38.023
			c0-20.959,17.032-38.023,37.957-38.023C292.823,26.628,309.82,43.692,309.82,64.651z M240.309,64.651
			c0,17.624,14.094,32.048,31.554,32.048c17.462,0,31.587-14.424,31.587-32.048c0-17.625-14.094-32.05-31.587-32.05
			C254.403,32.602,240.309,47.026,240.309,64.651z"/>
		<g>
			<path style="fill:#FFFFFF;" d="M431.684,28.303v7.247h-0.907v-7.247h-2.018v-0.82h4.938v0.82H431.684z"/>
			<path style="fill:#FFFFFF;" d="M438.073,35.78l-2.247-5.715l-1.275,5.485h-0.93l1.951-8.297l2.501,6.323l2.502-6.323l1.959,8.297
				h-0.936l-1.275-5.485L438.073,35.78z"/>
		</g>
	</g>
</g>
</svg>
