<?xml version="1.0" encoding="iso-8859-1"?>
<!-- Generator: Adobe Illustrator 16.0.0, SVG Export Plug-In . SVG Version: 6.00 Build 0)  -->
<!DOCTYPE svg PUBLIC "-//W3C//DTD SVG 1.1//EN" "http://www.w3.org/Graphics/SVG/1.1/DTD/svg11.dtd">
<svg version="1.1" xmlns="http://www.w3.org/2000/svg" xmlns:xlink="http://www.w3.org/1999/xlink" x="0px" y="0px"
	 width="442.533px" height="236.583px" viewBox="0 0 442.533 236.583" style="enable-background:new 0 0 442.533 236.583;"
	 xml:space="preserve">
<g id="shark">
	<g>
		<g>
			<path style="fill:#FFFFFF;" d="M276.865,10.458C266.121-3.869,260.26,0.689,260.26,0.689s-17.58,10.419-21.814,21.49
				c-4.232,11.07-16.279,12.698-19.862,16.931c-3.58,4.232-8.139,21.164-10.093,24.419s-7.489,9.768-10.419,15.954
				s-3.256,14.326-4.885,17.256c-1.627,2.93-11.395,10.094-12.047,15.955c-0.65,5.86-1.627,28,0.978,33.21
				c0,0,79.119,0.978,98.005,3.256c18.883,2.279,36.141,10.745,36.141,10.745c-2.281-26.048-17.908-81.074-17.908-81.074
				C299.658,57.669,287.611,24.784,276.865,10.458z M289.889,56.041c0.979,2.605,4.234,17.582,2.279,16.931
				c-1.953-0.651-4.557-4.884-4.557-7.814C287.611,62.227,288.967,53.583,289.889,56.041z M185.699,142.975
				c0,0-0.65-25.396-0.325-28.978c0.325-3.582,8.791-12.698,10.419-14.978s1.303-11.396,4.232-17.257
				c2.931-5.86,10.094-14.651,11.396-17.256c1.303-2.604,7.162-19.861,10.093-22.792c2.931-2.93,15.955-10.419,18.56-16.28
				c2.488-5.6,13.299-18.03,23.062-21.397C270.965,15.98,282.4,51.808,282.4,51.808c-1.953-3.256-6.838-5.535-6.838-5.535
				c7.49,16.931,7.164,65.445,7.164,65.445c-0.326-4.559-3.908-8.465-3.908-8.465c1.84,10.244,1.135,32.564,0.795,40.81
				c-0.693-0.148-1.391-0.295-2.096-0.437C259.609,140.045,185.699,142.975,185.699,142.975z"/>
			<path style="fill:#FFFFFF;" d="M253.424,41.063c-8.141-4.558-16.605-5.209-16.605-5.209
				c17.582,6.187,29.955,23.443,29.955,23.443S261.562,45.622,253.424,41.063z"/>
			<path style="fill:#FFFFFF;" d="M259.283,59.297c0,0-4.232-15.954-22.141-16.28C237.143,43.017,252.771,48.878,259.283,59.297z"/>
			<path style="fill:#FFFFFF;" d="M272.633,35.528c-1.871,0.562-3.906,5.861-2.605,7.163c1.303,1.303,4.885-0.977,4.885-2.279
				S275.889,34.552,272.633,35.528z"/>
			<path style="fill:#FFFFFF;" d="M255.051,104.88l5.209-9.442l-6.186,1.954l4.232-8.791l-6.838,2.604l2.279-10.093l-8.465,2.931
				c0,0,1.629-10.419,1.303-9.117c-0.326,1.302-6.838,5.86-6.838,5.86l0.977-12.373l-8.791,5.86c0,0,0.977-12.698,0.652-11.721
				c-0.326,0.977-8.791,8.14-8.791,8.14l0.65-9.768l-6.187,5.21v-7.164l-13.023,17.908l-5.86,21.489l-9.768,11.07l8.791-2.279
				l-3.582,6.187l9.768-1.953l-3.256,5.86l7.814-3.582l-0.977,6.186l6.838-2.93v11.721l5.534-7.162l2.279,9.768l3.908-7.164
				l3.906,9.443l4.559-6.188l2.279,7.814l23.768-6.512l2.281-14.326l-6.84-2.605l7.164-6.837H255.051z"/>
		</g>
		<g>
			<path style="fill:#FFFFFF;" d="M8.285,217.537c3.433,6.139,7.856,9.539,14.952,9.539c5.38,0,10.562-3.797,10.562-9.309
				c0-16.8-30.2-18.35-30.2-40.432c0-9.605,8.119-16.8,18.285-16.8c7.394,0,13.5,3.366,19.111,10.231l-7.129,5.742
				c-4.126-4.555-7.559-6.699-11.354-6.699c-4.456,0-8.582,2.443-8.582,7.955c0,13.862,30.432,17.525,30.432,38.748
				c0,11.717-8.12,20.069-21.322,20.069c-11.156,0-18.714-5.712-23.038-14.261L8.285,217.537z"/>
			<path style="fill:#FFFFFF;" d="M91.028,236.583c-20.992,0-38.023-17.032-38.023-38.024s17.031-38.022,38.023-38.022
				c20.992,0,38.023,17.03,38.023,38.022S112.02,236.583,91.028,236.583z M63.567,198.559c0,15.447,12.279,27.988,27.461,27.988
				c15.183,0,27.461-12.541,27.461-27.988c0-15.446-12.278-27.988-27.461-27.988C75.846,170.57,63.567,183.112,63.567,198.559z"/>
			<path style="fill:#FFFFFF;" d="M154.76,226.02h23.236v9.506h-33.798v-73.934h10.562V226.02z"/>
			<path style="fill:#FFFFFF;" d="M215.093,173.012c-4.225-4.521-8.021-6.832-12.311-6.832c-5.579,0-10.892,3.137-10.892,10.363
				c0,16.406,32.049,20.068,32.049,41.027c0,11.09-7.492,19.013-19.638,19.013c-10.463,0-17.527-5.052-21.587-12.774l5.149-2.938
				c3.697,6.303,8.615,9.803,16.603,9.803c6.831,0,13.07-4.852,13.07-11.98c0-19.209-31.851-20.695-31.851-42.611
				c0-8.812,7.328-15.546,16.371-15.546c6.8,0,12.344,2.904,17.461,8.911L215.093,173.012z"/>
			<path style="fill:#FFFFFF;" d="M373.85,161.592h6.369v67.299c-6.865,4.688-15.744,7.692-24.26,7.692
				c-16.701,0-29.572-4.854-29.572-28.287v-46.704h6.369v44.624c0,23.171,12.971,24.589,23.203,24.589
				c5.15,0,11.586-1.484,17.891-5.545V161.592z"/>
			<path style="fill:#FFFFFF;" d="M407.775,161.592v68.125h23.963v5.809h-30.299v-73.934H407.775z"/>
			<path style="fill:#FFFFFF;" d="M309.82,198.559c0,20.992-16.998,38.024-37.957,38.024c-20.926,0-37.957-17.032-37.957-38.024
				c0-20.959,17.031-38.022,37.957-38.022C292.822,160.536,309.82,177.6,309.82,198.559z M240.309,198.559
				c0,17.625,14.094,32.049,31.555,32.049s31.586-14.424,31.586-32.049c0-17.624-14.094-32.049-31.586-32.049
				C254.402,166.51,240.309,180.935,240.309,198.559z"/>
			<g>
				<path style="fill:#FFFFFF;" d="M431.684,162.211v7.246h-0.906v-7.246h-2.018v-0.82h4.938v0.82H431.684z"/>
				<path style="fill:#FFFFFF;" d="M438.072,169.688l-2.246-5.715l-1.275,5.484h-0.93l1.951-8.297l2.5,6.322l2.502-6.322
					l1.959,8.297h-0.936l-1.275-5.484L438.072,169.688z"/>
			</g>
		</g>
	</g>
</g>
<g id="Layer_1">
</g>
</svg>
