<?xml version="1.0" encoding="iso-8859-1"?>
<!-- Generator: Adobe Illustrator 16.0.0, SVG Export Plug-In . SVG Version: 6.00 Build 0)  -->
<!DOCTYPE svg PUBLIC "-//W3C//DTD SVG 1.1//EN" "http://www.w3.org/Graphics/SVG/1.1/DTD/svg11.dtd">
<svg version="1.1" xmlns="http://www.w3.org/2000/svg" xmlns:xlink="http://www.w3.org/1999/xlink" x="0px" y="0px"
	 width="287.562px" height="75.36px" viewBox="0 0 287.562 75.36" style="enable-background:new 0 0 287.562 75.36;"
	 xml:space="preserve">
<g id="snook_1.1">
	<g>
		<path style="fill:#FFFFFF;" d="M216.782,74.081c-1.744-0.992-3.816-1.374-6.051-1.235c-1.164,0.071-1.887,0.176-2.615,0.123
			c0.014-0.488-1.021-0.3-1.443-0.804c2.375-1.432,12.746-4.312,16.854-5.209c4.109-0.899,11.336-2.88,16.58-2.221
			c0.824,0.104,1.586,0.196,2.297,0.278c2.922,0.576,5.586,1.174,7.662,1.326c4.48,0.324,8.998,2.284,13.512,3.986
			c4.512,1.701,14.285,3.969,19.428,3.161s5.016-6.311,3.996-9.47s-4.816-7.373-7.43-8.773c-2.613-1.402-6.729-4.488-7.451-5.934
			c-0.721-1.445,0.291-2.33-0.227-2.404c-0.52-0.074-1.564-0.652-1.787-2.797c-0.221-2.146,3.562-5.933,5.049-8.548
			c1.488-2.615,1.309-6.654,1.512-8.982c0.205-2.327,3.559-6.018,2.846-10.818c-0.268-1.803-1.281-3.325-2.104-5.371
			c-0.822-2.046-2.631-2.176-5.279-1.339c-2.646,0.835-6.943,4.721-11.404,8.953s-12.062,13.958-16.451,17.587
			c-1.559,1.289-2.934,2.427-4.381,3.474c-2.215,1.146-4.086,2.38-5.021,2.853c-2.379,1.202-6.828,2.223-12.904,2.364
			c-14.674,0.342-16.539-0.991-19.303-1.5c-1.973-0.364-3.064-0.794-2.754-1.892c2.438-0.051,6.629,0.224,8.018,0.191
			c1.633-0.037,3.322-1.454,4.166-2.076c0.846-0.621,1.043-3.293,0.344-3.792c-0.701-0.499-1.209-0.144-1.318-1.173
			c0,0,0.32-0.954-0.979-1.354c-1.299-0.4-1.998-0.9-2.184-1.411c-0.184-0.513-0.547-1.127-0.973-1.183
			c-1.121-0.146-1.828-0.903-2.184-1.411c-0.355-0.508-0.295-1.542-0.816-1.788c-0.521-0.246-0.9-1.7-0.912-2.216
			s0.221-1.639-0.211-1.715s-0.801-1.1-1.074-1.782c-0.273-0.681,0.451-2.763-0.064-2.751c-0.516,0.012-1.039-0.32-0.967-0.924
			c0.072-0.604,0.453-2.677-0.152-2.835s-0.791-0.756-0.811-1.529c-0.018-0.775,0.125-2.068-0.479-2.14
			c-0.604-0.073,0.182-3.274-0.502-3.086c-0.684,0.188-3.578,1.545-6.875,4.031s-19.764,15.686-21.967,17.113
			c-0.93,0.602-1.967,1.242-3.191,1.891c-1.648,0.055-3.131,0.681-8.312,0.355c-3.217-0.202-7.069-0.696-11.215-1.311
			c-1.386-1.077-1.779-3.097-1.779-3.807c0-0.903,0.303-1.167-0.042-1.246c-0.297-0.067-0.419-0.055-0.829-0.153
			c-2.159-0.514-2.882-4.664-2.877-6.299c0.002-0.881,0.328-1.413,0.068-1.406c-0.388,0.008-0.595,0.064-1.138-0.16
			c-1.876-0.774-1.085-5.259-1.082-5.868c0.003-0.774,0.606-1.032,0.117-1.106c-0.304-0.046-0.272-0.008-0.747-0.083
			c-1.199-0.189-2.105-3.606-2.103-5.307c0.002-0.859,0.491-1.094,0.061-1.083c-0.259,0.006-0.5,0.027-0.729,0.075
			c-0.971,0.206-2.584-1.38-2.702-2.776c-0.058-0.687,0.661-1.104-0.384-0.45c-6.703,4.2-16.889,19.016-20.766,25.398
			c-0.184,0.005-0.372,0.007-0.55,0.015c-17.299,0.742-31.002,3.474-36.909,5.905c-5.908,2.432-17.365,7.974-21.205,10.472
			c-3.971,1.928-19.963,9.641-22.685,10.965c-2.722,1.326-9.308,4.232-11.696,5.09c-2.389,0.858-7.293,2.004-8.773,2.498
			c-1.451,0.484-3.455,1.801-3.557,2.377c-0.404-0.105-0.641,0.165-0.846,0.306c-0.615,0.423-0.368,1.729,0.511,2.569
			c1.056,1.008,5.148,4.354,9.886,5.848c-5.53-1.018-11.104-3.984-12.032-4.422c-0.927-0.438-1.978-1.215-2.8-1.998
			c-0.82-0.785-1.574,1.297-1.66,2.561c-0.084,1.264,0.855,2.274,7.912,4.863c3.364,1.234,7.079,2.039,10.498,2.587h199.846
			C218.005,74.941,217.563,74.525,216.782,74.081z"/>
		<g>
			<path d="M51.927,66.97c1.136,2.03,2.6,3.156,4.947,3.156c1.779,0,3.493-1.257,3.493-3.079c0-5.559-9.991-6.072-9.991-13.376
				c0-3.178,2.687-5.558,6.05-5.558c2.446,0,4.466,1.113,6.322,3.385l-2.358,1.899c-1.365-1.507-2.5-2.216-3.756-2.216
				c-1.475,0-2.84,0.807-2.84,2.631c0,4.586,10.068,5.799,10.068,12.819c0,3.876-2.688,6.639-7.055,6.639
				c-3.69,0-6.191-1.89-7.621-4.718L51.927,66.97z"/>
			<path d="M79.3,73.271c-6.943,0-12.578-5.634-12.578-12.579S72.356,48.113,79.3,48.113c6.945,0,12.58,5.633,12.58,12.578
				S86.245,73.271,79.3,73.271z M70.216,60.691c0,5.11,4.062,9.26,9.084,9.26c5.023,0,9.086-4.149,9.086-9.26
				c0-5.109-4.062-9.259-9.086-9.259C74.278,51.433,70.216,55.582,70.216,60.691z"/>
			<path d="M100.384,69.777h7.688v3.145H96.89V48.463h3.494V69.777z"/>
			<path d="M120.345,52.24c-1.398-1.496-2.654-2.261-4.074-2.261c-1.845,0-3.603,1.038-3.603,3.429
				c0,5.428,10.603,6.64,10.603,13.573c0,3.669-2.479,6.289-6.497,6.289c-3.462,0-5.798-1.671-7.142-4.226l1.704-0.972
				c1.222,2.085,2.85,3.243,5.492,3.243c2.261,0,4.324-1.605,4.324-3.965c0-6.354-10.538-6.846-10.538-14.096
				c0-2.915,2.425-5.143,5.416-5.143c2.25,0,4.084,0.96,5.777,2.948L120.345,52.24z"/>
			<path d="M172.862,48.463h2.109v22.263c-2.271,1.551-5.209,2.545-8.027,2.545c-5.525,0-9.783-1.605-9.783-9.358V48.463h2.107
				v14.762c0,7.666,4.291,8.135,7.676,8.135c1.705,0,3.832-0.491,5.918-1.834V48.463z"/>
			<path d="M184.087,48.463v22.536h7.928v1.923h-10.023V48.463H184.087z"/>
			<path d="M151.681,60.691c0,6.945-5.622,12.579-12.557,12.579c-6.922,0-12.557-5.634-12.557-12.579
				c0-6.934,5.635-12.578,12.557-12.578C146.059,48.113,151.681,53.758,151.681,60.691z M128.686,60.691
				c0,5.83,4.663,10.603,10.438,10.603c5.777,0,10.45-4.772,10.45-10.603s-4.663-10.602-10.45-10.602
				C133.349,50.09,128.686,54.861,128.686,60.691z"/>
			<g>
				<path d="M191.997,48.667v2.397h-0.301v-2.397h-0.668v-0.272h1.633v0.272H191.997z"/>
				<path d="M194.11,51.141l-0.744-1.891l-0.422,1.814h-0.307l0.645-2.745l0.828,2.093l0.828-2.093l0.646,2.745h-0.309l-0.422-1.814
					L194.11,51.141z"/>
			</g>
		</g>
	</g>
</g>
<g id="Layer_1">
</g>
</svg>
