<?xml version="1.0" encoding="iso-8859-1"?>
<!-- Generator: Adobe Illustrator 16.0.0, SVG Export Plug-In . SVG Version: 6.00 Build 0)  -->
<!DOCTYPE svg PUBLIC "-//W3C//DTD SVG 1.1//EN" "http://www.w3.org/Graphics/SVG/1.1/DTD/svg11.dtd">
<svg version="1.1" id="Layer_1" xmlns="http://www.w3.org/2000/svg" xmlns:xlink="http://www.w3.org/1999/xlink" x="0px" y="0px"
	 width="287.562px" height="117.273px" viewBox="0 0 287.562 117.273" style="enable-background:new 0 0 287.562 117.273;"
	 xml:space="preserve">
<g>
	<path style="fill:#FFFFFF;" d="M141.751,49.092c-5.775,0-10.438,4.771-10.438,10.602c0,5.83,4.662,10.602,10.438,10.602
		c5.777,0,10.45-4.771,10.45-10.602C152.201,53.863,147.538,49.092,141.751,49.092z"/>
	<path style="fill:#FFFFFF;" d="M81.927,50.435c-5.021,0-9.084,4.149-9.084,9.259c0,5.109,4.062,9.259,9.084,9.259
		c5.024,0,9.086-4.149,9.086-9.259C91.013,54.584,86.951,50.435,81.927,50.435z"/>
	<path style="fill:#FFFFFF;" d="M286.999,64.017c-1.02-3.158-4.814-7.371-7.428-8.772c-2.613-1.402-6.729-4.489-7.451-5.935
		s0.289-2.33-0.227-2.404c-0.52-0.074-1.564-0.652-1.787-2.796c-0.223-2.146,3.562-5.933,5.049-8.548
		c1.488-2.615,1.307-6.654,1.512-8.982c0.203-2.327,3.559-6.018,2.844-10.818c-0.268-1.803-1.279-3.325-2.102-5.371
		c-0.822-2.045-2.631-2.175-5.279-1.339c-2.646,0.835-6.943,4.721-11.404,8.953c-4.461,4.232-12.062,13.958-16.451,17.587
		c-1.559,1.289-2.936,2.427-4.381,3.474c-2.217,1.146-4.088,2.38-5.021,2.852c-2.379,1.202-6.83,2.224-12.904,2.365
		c-14.674,0.342-16.539-0.991-19.305-1.5c-1.971-0.365-3.062-0.795-2.752-1.892c2.438-0.051,6.627,0.224,8.018,0.191
		c1.633-0.038,3.322-1.454,4.166-2.076c0.846-0.622,1.043-3.293,0.342-3.793c-0.699-0.5-1.207-0.144-1.316-1.173
		c0,0,0.32-0.954-0.979-1.354c-1.299-0.4-2-0.9-2.184-1.411c-0.184-0.513-0.547-1.127-0.973-1.183
		c-1.123-0.145-1.828-0.903-2.184-1.411c-0.355-0.508-0.295-1.542-0.816-1.787c-0.523-0.247-0.9-1.7-0.912-2.216
		s0.221-1.64-0.211-1.716c-0.434-0.076-0.801-1.1-1.074-1.781s0.451-2.763-0.064-2.751c-0.516,0.012-1.039-0.32-0.967-0.924
		c0.072-0.604,0.453-2.677-0.152-2.835s-0.791-0.756-0.811-1.529c-0.018-0.775,0.125-2.068-0.48-2.14
		c-0.602-0.073,0.184-3.273-0.5-3.085c-0.686,0.188-3.578,1.545-6.875,4.031c-3.297,2.485-19.764,15.686-21.969,17.113
		c-0.928,0.602-1.965,1.242-3.189,1.891c-1.648,0.055-3.131,0.681-8.312,0.355c-3.219-0.202-7.07-0.695-11.215-1.31
		c-1.387-1.078-1.779-3.098-1.779-3.807c0-0.903,0.303-1.167-0.043-1.246c-0.297-0.067-0.418-0.055-0.828-0.153
		c-2.16-0.514-2.883-4.663-2.878-6.298c0.003-0.881,0.329-1.413,0.068-1.406c-0.388,0.009-0.595,0.064-1.138-0.16
		c-1.876-0.774-1.085-5.26-1.082-5.868c0.004-0.775,0.607-1.032,0.117-1.106c-0.303-0.046-0.272-0.008-0.747-0.083
		c-1.198-0.189-2.105-3.606-2.103-5.307c0.002-0.859,0.492-1.094,0.062-1.083c-0.259,0.006-0.501,0.026-0.729,0.074
		c-0.972,0.206-2.584-1.38-2.703-2.776c-0.058-0.687,0.662-1.105-0.383-0.45c-6.703,4.2-16.89,19.016-20.767,25.398
		c-0.183,0.005-0.371,0.007-0.55,0.015c-17.299,0.742-31.002,3.474-36.909,5.905S57.497,39.62,53.657,42.118
		c-3.971,1.927-19.963,9.64-22.686,10.964c-2.722,1.326-9.307,4.231-11.695,5.09c-2.389,0.857-7.294,2.004-8.773,2.498
		c-1.451,0.482-3.455,1.801-3.558,2.375c-0.403-0.104-0.641,0.166-0.846,0.307c-0.614,0.424-0.368,1.729,0.511,2.569
		c1.057,1.009,5.148,4.354,9.886,5.849c-5.529-1.018-11.103-3.985-12.032-4.424c-0.926-0.437-1.977-1.214-2.799-1.997
		c-0.82-0.785-1.574,1.298-1.66,2.562c-0.085,1.264,0.855,2.273,7.912,4.862s15.676,3.306,19.813,3.668s8.079,2.222,10.587,1.475
		c2.064,0.067,5.314,1.712,9.213,1.622c5.876,1.123,12.445,2.463,13.338,1.408c0.685-0.131,4.153,1.052,8.029,0.043
		c3.438-0.193,11.168,1.806,19.11,2.997c3.258,0.489,5.788,0.53,8.185,0.493c1.236,3.67,9.057,23.391,14.258,28.914
		c0.671,0.845,1.686,1.065,2.392,1.203c0.692,1.709,2.155,2.406,3.085,2.65c0.932,0.246,0.012-1.309,0.949-1.848
		c0.937-0.539,1.674-0.846,2.382-0.969c0.707-0.124,0.038-1.23,0.699-2.559s1.456-1.737,2.142-2.463
		c0.684-0.726,0.221-2.851,0.91-4.1c0.688-1.249,1.692-2.939,2.517-3.533s1.026-1.088,1.017-3.26
		c-0.01-2.174,0.662-4.811,0.786-6.064c0.123-1.255,0.306-2.615-1.184-3.651c-0.583-0.405-2.704-1.271-5.431-2.213
		c4.694,0.366,10.249,0.523,17.482,0.245c10.43-0.4,21.061-1.865,24.809-3.443c3.748-1.579,17.609-2.359,20.355-2.653
		c1.332-0.142,2.018,0.44,3.619,0.647c5.018,4.836,15.783,13.395,19.225,15.051c4.264,2.052,2.512,0.716,1.631-0.209
		c2.268,1.322,5.23,2.975,6.523,3.117c1.293,0.142,3.072-1.018,2.705-2.042s-1.115-3.587-1.133-4.274
		c-0.014-0.688-0.832-2.562-0.43-3.689c0.404-1.128-0.328-3.09,0.596-4.057c0.922-0.969,0.373-2.417,1.205-3.642
		c0.832-1.224,1.205-3.641,1.268-4.675c0.062-1.033-0.045-1.892-1.787-2.883c-1.744-0.992-3.816-1.373-6.051-1.236
		c-1.166,0.072-1.887,0.177-2.617,0.125c0.014-0.489-1.02-0.301-1.441-0.805c2.375-1.432,12.746-4.311,16.854-5.209
		c4.109-0.898,11.336-2.879,16.58-2.221c0.824,0.104,1.584,0.196,2.297,0.279c2.922,0.575,5.584,1.174,7.66,1.325
		c4.48,0.325,9,2.284,13.514,3.986c4.512,1.702,14.285,3.969,19.428,3.161S288.021,67.177,286.999,64.017z M59.436,72.273
		c-3.69,0-6.191-1.89-7.622-4.718l2.74-1.583c1.137,2.03,2.6,3.156,4.947,3.156c1.779,0,3.494-1.257,3.494-3.08
		c0-5.558-9.992-6.071-9.992-13.375c0-3.178,2.688-5.558,6.049-5.558c2.447,0,4.467,1.114,6.324,3.385L63.017,52.4
		c-1.364-1.506-2.5-2.216-3.756-2.216c-1.475,0-2.839,0.808-2.839,2.631c0,4.587,10.067,5.798,10.067,12.819
		C66.489,69.511,63.802,72.273,59.436,72.273z M81.927,72.273c-6.943,0-12.578-5.635-12.578-12.579
		c0-6.945,5.635-12.579,12.578-12.579c6.945,0,12.58,5.634,12.58,12.579C94.507,66.639,88.872,72.273,81.927,72.273z
		 M110.698,71.924H99.517V47.465h3.495v21.314h7.687V71.924z M119.401,72.273c-3.463,0-5.799-1.671-7.142-4.226l1.704-0.973
		c1.222,2.086,2.85,3.244,5.492,3.244c2.259,0,4.323-1.605,4.323-3.965c0-6.354-10.538-6.847-10.538-14.096
		c0-2.915,2.425-5.143,5.418-5.143c2.248,0,4.082,0.96,5.775,2.948l-1.463,1.179c-1.398-1.496-2.654-2.261-4.074-2.261
		c-1.846,0-3.603,1.037-3.603,3.429c0,5.427,10.603,6.639,10.603,13.572C125.897,69.652,123.419,72.273,119.401,72.273z
		 M141.751,72.273c-6.922,0-12.557-5.635-12.557-12.579c0-6.934,5.635-12.579,12.557-12.579c6.935,0,12.558,5.645,12.558,12.579
		C154.309,66.639,148.686,72.273,141.751,72.273z M177.599,69.728c-2.271,1.552-5.209,2.546-8.027,2.546
		c-5.525,0-9.783-1.606-9.783-9.358v-15.45h2.107v14.763c0,7.666,4.291,8.134,7.676,8.134c1.705,0,3.834-0.49,5.918-1.833V47.465
		h2.109V69.728z M193.655,47.398h1.633v0.271h-0.664v2.398h-0.301v-2.398h-0.668V47.398z M194.642,71.924h-10.023V47.465h2.096
		v22.537h7.928V71.924z M197.903,50.067l-0.422-1.815l-0.744,1.891l-0.744-1.891l-0.422,1.815h-0.307l0.645-2.746l0.828,2.092
		l0.828-2.092l0.648,2.746H197.903z"/>
</g>
</svg>
