<?xml version="1.0" encoding="iso-8859-1"?>
<!-- Generator: Adobe Illustrator 16.0.0, SVG Export Plug-In . SVG Version: 6.00 Build 0)  -->
<!DOCTYPE svg PUBLIC "-//W3C//DTD SVG 1.1//EN" "http://www.w3.org/Graphics/SVG/1.1/DTD/svg11.dtd">
<svg version="1.1" xmlns="http://www.w3.org/2000/svg" xmlns:xlink="http://www.w3.org/1999/xlink" x="0px" y="0px"
	 width="450.032px" height="206.204px" viewBox="0 0 450.032 206.204" style="enable-background:new 0 0 450.032 206.204;"
	 xml:space="preserve">
<g id="speargun">
	<g style="display:none;">
		<path style="display:inline;fill:#5B5A5B;" d="M297.218,45.327c-0.32,1.134-0.635,2.172-1.201,3.22
			c-0.355,0.656-0.918,1.146-1.328,1.761c-7.299,2.406-14.49,5.39-21.609,8.279c-7.256,2.944-14.521,5.871-21.783,8.8
			c-14.531,5.858-29.039,11.771-43.536,17.712c-28.993,11.883-58.044,23.625-87.072,35.422
			c-11.472,4.663-23.088,9.121-34.331,14.332c0.109-0.223,0.006-0.512-0.254-0.586c-0.478-0.135-0.865-0.19-1.312,0.128
			c-1.47,1.047-2.443,1.641-4.146,0.27c-0.924-0.745-1.752-1.603-2.55-2.479c-1.122-1.235-1.97-2.304-2.041-3.814
			c14.581-4.945,28.813-11.102,43.129-16.752c14.605-5.766,29.111-11.78,43.715-17.553c29.186-11.54,58.387-23.043,87.578-34.565
			c15.494-6.116,30.936-12.308,46.307-18.721c0.057-0.024,0.105-0.054,0.15-0.087c0.357,0.31,0.711,0.647,0.854,0.992
			C298.163,42.583,297.474,44.423,297.218,45.327z"/>
		<path style="display:inline;fill:#828282;" d="M297.909,45c-14.699,5.443-29.143,11.653-43.672,17.531
			c-14.547,5.884-29.096,11.759-43.637,17.656c-27.957,11.336-55.922,22.654-83.863,34.031c-0.016-0.015-0.03-0.03-0.047-0.045
			c-0.055-0.051-0.109-0.104-0.166-0.157c4.014-1.659,8.025-3.317,12.041-4.943c14.545-5.889,29.09-11.778,43.635-17.667
			c29.091-11.778,58.173-23.578,87.254-35.38c9.406-3.818,18.896-7.485,28.188-11.58c1.305-0.575,0.363-2.799-0.973-2.305
			c-14.697,5.443-29.143,11.653-43.67,17.53c-14.547,5.885-29.096,11.76-43.637,17.656c-29.086,11.794-58.182,23.565-87.248,35.406
			c-9.393,3.827-18.902,7.454-28.129,11.67c-1.17,0.534-0.332,2.505,0.875,2.075c10.041-3.564,19.935-7.619,29.805-11.696
			c0.049,0.073,0.102,0.144,0.158,0.214c-0.49,0.199-0.98,0.396-1.471,0.596c-9.393,3.827-18.901,7.454-28.128,11.671
			c-1.17,0.534-0.333,2.504,0.875,2.075c14.754-5.238,29.194-11.533,43.705-17.408c14.545-5.889,29.089-11.778,43.634-17.666
			c29.092-11.778,58.174-23.578,87.254-35.38c9.408-3.817,18.896-7.484,28.188-11.58C300.185,46.729,299.243,44.505,297.909,45z"/>
		<path style="display:inline;fill:#B4B4B4;" d="M299.226,42.75c-14.773,5.297-29.258,11.514-43.826,17.346l-43.777,17.522
			c-29.186,11.682-58.371,23.364-87.556,35.046c-5.253,2.103-10.507,4.205-15.76,6.309c-5.001,2.002-10.504,3.717-15.028,6.67
			c-1.248,0.814-0.43,2.594,0.983,2.332c3.698-0.688,7.169-2.271,10.663-3.639c3.805-1.489,7.592-3.023,11.386-4.543
			c7.296-2.922,14.592-5.843,21.888-8.764c14.592-5.844,29.184-11.688,43.775-17.531c29.184-11.686,58.367-23.373,87.551-35.059
			c10.348-4.144,20.805-8.1,30.996-12.617C302.261,45.051,301.011,42.11,299.226,42.75z"/>
		<path style="display:inline;fill:#E6E6E5;" d="M300.849,42.639c-29.438,10.723-58.328,23.127-87.361,34.9
			c-29.074,11.79-58.182,23.5-87.25,35.305c-6.688,2.715-13.379,5.424-20.053,8.172c-6.691,2.755-13.627,5.265-20.01,8.691
			c-0.371,0.199-0.115,0.786,0.285,0.674c7.497-2.122,14.73-5.399,21.965-8.271c7.288-2.894,14.559-5.834,21.828-8.773
			c14.542-5.881,29.084-11.761,43.627-17.641c29.084-11.761,58.197-23.448,87.27-35.239c13.436-5.449,26.928-10.798,40.172-16.698
			C301.954,43.476,301.499,42.402,300.849,42.639z"/>
		<path style="display:inline;fill:#4D4C4C;" d="M296.622,39.335c-0.125,0.033-0.225,0.116-0.293,0.219
			c-29.348,10.992-58.406,22.734-87.534,34.302c-29.167,11.583-58.375,23.046-87.608,34.458
			c-15.535,6.064-31.354,11.817-46.521,18.759c-0.562,0.257-0.505,0.944-0.154,1.327c-0.305,2.156,2.794,5.475,3.814,6.574
			c1.137,1.225,2.375,2.457,4.039,2.667c0.122,0.099,0.28,0.15,0.46,0.091c0.067-0.023,0.134-0.047,0.201-0.068
			c0.27-0.027,0.534-0.124,0.792-0.271c14.471-4.907,28.542-11.103,42.679-16.883c14.504-5.931,29.007-11.866,43.514-17.791
			c29.014-11.848,58.036-23.671,87.037-35.548c6.383-2.613,12.754-5.254,19.137-7.868c6.271-2.569,12.617-5.166,18.707-8.143
			C299.8,50.984,300.851,38.243,296.622,39.335z M297.218,45.327c-0.32,1.134-0.635,2.172-1.201,3.22
			c-0.355,0.656-0.918,1.146-1.328,1.761c-7.299,2.406-14.49,5.39-21.609,8.279c-7.256,2.944-14.521,5.871-21.783,8.8
			c-14.531,5.858-29.039,11.771-43.536,17.712c-28.993,11.883-58.044,23.625-87.072,35.422
			c-11.472,4.663-23.088,9.121-34.331,14.332c0.109-0.223,0.006-0.512-0.254-0.586c-0.478-0.135-0.865-0.19-1.312,0.128
			c-1.47,1.047-2.443,1.641-4.146,0.27c-0.924-0.745-1.752-1.603-2.55-2.479c-1.122-1.235-1.97-2.304-2.041-3.814
			c14.581-4.945,28.813-11.102,43.129-16.752c14.605-5.766,29.111-11.78,43.715-17.553c29.186-11.54,58.387-23.043,87.578-34.565
			c15.494-6.116,30.936-12.308,46.307-18.721c0.057-0.024,0.105-0.054,0.15-0.087c0.357,0.31,0.711,0.647,0.854,0.992
			C298.163,42.583,297.474,44.423,297.218,45.327z"/>
	</g>
	<g style="display:none;">
		<path style="display:inline;fill:#828282;" d="M360.991,14.547c-2.152-0.127-4.166,0.664-6.199,1.286
			c-2.551,0.781-5.07,1.572-7.586,2.471c-5.014,1.792-9.963,3.751-14.945,5.621c-4.553,1.708-9.082,3.494-13.525,5.47
			c-4.715,2.098-10.123,3.999-14.301,7.062c-1.107,0.813-0.494,2.75,0.982,2.329c4.592-1.309,8.975-3.928,13.324-5.882
			c4.85-2.178,9.695-4.364,14.572-6.478c3.002-1.301,6.055-2.486,9.123-3.632c-0.939,0.972-1.873,1.95-2.785,2.957
			c-2.439,2.692-5.369,5.508-7.217,8.643c-0.232,0.396,0.25,0.938,0.656,0.656c3.008-2.089,5.486-5.203,8.062-7.796
			c1.305-1.312,2.557-2.68,3.752-4.092c0.541-0.64,1.148-1.239,1.662-1.889c0.441-0.161,0.883-0.323,1.324-0.482
			c2.512-0.91,5.023-1.783,7.498-2.793c2.041-0.835,4.16-1.318,5.898-2.73C361.597,15.015,361.319,14.567,360.991,14.547z"/>
		<path style="display:inline;fill:#4D4C4C;" d="M342.36,21.633c-0.404,0.219-0.791,0.482-1.16,0.774
			c-2.656,0.438-5.502,2.262-7.844,3.326c-3.359,1.524-6.74,3-10.125,4.464c-3.387,1.464-6.781,2.905-10.168,4.367
			c-3.377,1.457-7.07,2.716-10.131,4.774c-0.465,0.312-0.176,1.03,0.381,0.903c3.367-0.767,6.611-2.459,9.77-3.83
			c3.381-1.466,6.754-2.951,10.121-4.447s6.727-3.012,10.084-4.532c1.539-0.697,3.449-1.354,5.205-2.19
			c-0.596,0.74-1.162,1.488-1.727,2.164c-1.783,2.143-3.227,4.269-4.604,6.674c-0.098,0.173,0.139,0.361,0.279,0.214
			c1.848-1.927,3.576-3.854,5.285-5.929c1.643-1.997,3.971-3.971,5.006-6.36C342.839,21.764,342.618,21.493,342.36,21.633z"/>
		<g style="display:inline;">
			<path style="fill:#FFFFFF;" d="M365.481,12.507c-1.846,0.167-3.562,0.845-5.326,1.384c-2.312,0.708-4.633,1.383-6.922,2.163
				c-4.58,1.56-9.15,3.157-13.68,4.858c-4.248,1.597-8.473,3.264-12.691,4.942c-4.092,1.629-8.963,2.983-12.596,5.516
				c-0.334,0.233-0.127,0.722,0.273,0.646c4.311-0.805,8.623-3.192,12.701-4.792c4.223-1.657,8.473-3.235,12.732-4.793
				c4.262-1.56,8.521-3.125,12.803-4.63c2.287-0.804,4.559-1.646,6.832-2.488c2.006-0.744,4.15-1.253,5.996-2.354
				C365.802,12.844,365.733,12.484,365.481,12.507z"/>
			<path style="fill:#FFFFFF;" d="M348.905,19.911c-4.873,1.348-8.291,6.287-10.744,10.361c-0.076,0.127,0.111,0.28,0.207,0.161
				c1.459-1.801,3.238-3.463,4.93-5.048c1.879-1.761,4.137-3.153,5.816-5.117C349.247,20.111,349.124,19.85,348.905,19.911z"/>
		</g>
	</g>
	<g style="display:none;">
		<g style="display:inline;">
			<path style="fill:#389BAD;" d="M51.469,175.938c-0.702,0.273-1.394,0.531-2.11,0.704c-2.058-0.909-1.328-4.979-1.251-6.642
				c0.083-1.838,0.268-3.67,0.485-5.497c0.235-1.97,0.531-3.97,1.037-5.891c0.719-2.731,3.538-3.223,5.903-3.504
				c2.863-0.341,1.228,3.175,0.968,4.466c-0.333,1.658-0.353,3.396-0.472,5.078c-0.116,1.635-0.292,3.283-0.247,4.922
				c0.017,0.617,1.381,2.857,1.298,3.672C55.287,174.244,53.45,175.166,51.469,175.938z"/>
			<path style="fill:#91CEDE;" d="M62.238,155.68c0.475,1.5-0.633,3.35-1.06,4.695c-0.384,1.213-0.479,2.533-0.447,3.795
				c0.028,1.083,0.402,2.09,0.863,3.053c0.485,1.015,1.553,1.747,0.804,2.877c-1.367,0.822-2.703,1.641-4.051,2.424
				c-0.011-0.102-0.027-0.203-0.056-0.305c-0.382-1.39-1.403-1.542-1.454-3.342c-0.047-1.684,0.207-3.424,0.303-5.106
				c0.091-1.583,0.18-3.157,0.417-4.728c0.128-0.85,0.963-2.336,0.664-3.215c-0.561-1.646-1.842-1.596-3.438-1.382
				c-2.051,0.276-3.973,0.692-5.377,2.311c-1.624,1.872-1.572,5.413-1.879,7.746c-0.431,3.265-0.646,6.593-0.569,9.884
				c0.023,0.994,0.345,1.909,1.01,2.453c-1.914-0.021-1.689-3.656-1.728-4.752c-0.083-2.379,0.081-4.782,0.285-7.151
				c0.226-2.632,0.706-5.229,1.271-7.806c0.424-1.935,1.202-3.865,1.406-5.84c0.054-0.525,0.071-1.013,0.049-1.479
				c1.101,1.19,2.808,1.899,4.4,2.01c2.267,0.158,4.944,0.104,7.501-0.301c-0.111,0.159-0.216,0.326-0.307,0.509
				C60.151,153.419,60.84,155.17,62.238,155.68z"/>
			<path style="fill:#91CEDE;" d="M94.084,123.491c-1.616,0.423-3.163,1.055-4.771,1.503c-3.047,0.848-6.299,1.561-9.494,1.487
				c-1.965,0.326-3.919,0.678-5.84,1.343c-3.298,1.141-6.534,2.463-9.788,3.723c-3.396,1.315-6.845,2.549-10.166,4.046
				c-2.137,0.964-7.912,3.128-8.913,5.96c0.153,2.244,1.893,3.255,3.121,5.135c0.267,0.41,0.47,0.809,0.626,1.209
				c1.084,1.409,2.194,2.683,4.148,2.955c1.579,0.221,3.169,0.158,4.751,0.011c1.919-0.179,3.786-0.624,5.659-0.996
				c0.888-0.315,1.873-0.44,2.829-0.46c0.092-0.01,0.184-0.025,0.276-0.034c0.051-0.005,0.094,0.01,0.132,0.032
				c0.117,0.001,0.233,0.002,0.348,0.006c2.034,0.064,4.529,0.453,6.374-0.637c2.334-1.379,1.822-3.03,1.808-5.262
				c-0.015-2.391,1.233-3.866,3.384-4.824c3.297-1.469,6.663-2.747,9.853-4.451c3.129-1.672,7.114-3.373,9.688-5.856
				C101.36,125.242,97.235,122.666,94.084,123.491z M74.805,143.264c-0.211,4.887-3.482,6.732-8.048,5.545
				c-1.156-0.3-2.907-1.103-4.007-2.18c-0.128,0.125-0.401,0.074-0.483-0.125c-0.121-0.291-0.207-0.578-0.268-0.859
				c-0.347-0.672-0.386-1.408,0.095-2.172c0.811-2.587,3.992-4.429,6.516-5.127c1.749-0.484,3.632-1.316,5.175-0.031
				C74.856,139.207,74.856,142.062,74.805,143.264z"/>
			<path style="fill:#91CEDE;" d="M66.075,140.479c-0.198,1.834,0.326,3.727,1.335,5.261c0.373,0.566,0.312,0.786-0.469,0.566
				c-0.622-0.175-1.172-0.428-1.719-0.767c-0.83-0.515-1.231-1.42-1.946-1.982C63.807,142.301,64.774,141.281,66.075,140.479z"/>
			<path style="fill:#91CEDE;" d="M305.29,44.362c-2.551,3.047-6.934,5.297-10.789,6.945c0.996-1.391,1.637-2.971,1.877-4.747
				c0.32-2.377-0.672-6.145,0.543-8.396c1.674-1.441,3.402-2.362,5.818-1.885C306.575,37.037,307.616,41.587,305.29,44.362z"/>
		</g>
		<g style="display:inline;opacity:0.5;">
			<g>
				<path style="fill:#67BDD9;" d="M302.034,36.98c-1.295-1.161-4.383-1.011-4.33,1.129c-0.283,0.815-0.385,1.722-0.535,2.553
					c-0.223-0.001-0.438,0.073-0.576,0.247c-0.602,0.766-0.658,1.54-0.518,2.498c0.08,0.543,0.58,1.574,0.58,2.269
					c-0.172,0.315-0.27,0.653-0.244,1.017c0.074,1.087,1.629,1.715,2.197,0.595c0.137-0.27,0.227-0.537,0.283-0.804
					c0.369-0.459,1.48-1.451,1.711-1.734l-0.016-0.017c0.225-0.262,0.27-0.593,0.191-0.885c0.613-0.324,1.172-0.781,1.598-1.269
					C303.819,40.923,303.647,38.428,302.034,36.98z M300.358,42.246c-0.449,0.323-0.988,0.535-1.539,0.573
					c-0.803,0.055-0.443-1.512-0.398-1.837c0.111-0.83,0.305-1.718,0.314-2.581c0.783-0.27,1.588-0.502,2.311,0.063
					C302.401,39.522,301.458,41.454,300.358,42.246z"/>
				<path style="fill:#67BDD9;" d="M59.27,151.924c0.167-0.105,0.331-0.213,0.482-0.335c0.407-0.331,0.021-0.856-0.375-0.906
					c-0.687-0.089-1.375-0.035-2.066,0.049c-0.005-0.001-0.009-0.003-0.014-0.004c-0.208-0.036-0.402-0.005-0.564,0.077
					c-0.743,0.102-1.488,0.207-2.236,0.184c-2.017-0.061-3.468-0.961-5.115-1.982c-0.341-0.211-0.672,0.194-0.514,0.516
					c1.213,2.468,4.649,3.65,7.6,3.32c0.091,0.371,0.213,0.732,0.337,1.096c-1.665-0.95-4.236-0.183-5.812,0.77
					c-1.997,1.208-3.762,4.552-3.143,7.007c-0.255,1.723-0.267,3.503-0.139,5.024c-0.285,2.158-0.942,5.584,0.11,7.316
					c0.47,0.773,1.11,1.232,1.83,1.447c-0.153,0.08-0.306,0.152-0.458,0.215c-1.681,0.688-2.551-1.881-3.13-2.978
					c-0.015-0.028-0.06-0.022-0.067,0.009c-0.388,1.643-0.16,3.789,1.722,4.48c0.998,0.366,1.939,0.148,2.805-0.439
					c0.744-0.504,1.72-0.947,2.356-1.631c1.522-0.665,2.883-1.918,3.405-3.245c0.387-0.983,0.247-2.22-0.026-3.46
					c0.011,0.016,0.019,0.035,0.03,0.051c0.299,0.934,0.796,1.77,1.57,2.404c0.167,0.309,0.693,0.205,0.805-0.129
					c0.568-1.7,0.225-3.51,0.246-5.275c0.03-2.48,0.928-4.848,1.393-7.26C60.655,156.406,60.562,153.552,59.27,151.924z
					 M54.376,171.388c-0.226,1.476-4.885,3.749-5.23,0.847c-0.172-1.443-0.243-2.896-0.284-4.35c-0.06-2.182,0.428-4.311,0.74-6.453
					c0.531-1.857,1.269-3.565,2.248-4.425c0.866,0.08,1.733,0.16,2.599,0.24c0.266,0.915,0.206,1.782-0.181,2.599
					c-0.397,1.127-0.725,2.121-0.871,3.309C53.055,165.945,54.795,168.653,54.376,171.388z M56.447,161.217
					c-0.078,0.12-0.148,0.254-0.199,0.414c-0.296,0.936-0.669,2.678-0.631,4.277c-0.093-0.393-0.171-0.766-0.213-1.104
					c-0.283-2.288,1.22-4.356,1.179-6.514c0.126-0.043,0.234-0.126,0.287-0.247c0.369-0.843,0.191-1.746-0.406-2.405
					c0.276,0.061,0.559,0.134,0.853,0.225c0.009,0.073,0.021,0.146,0.028,0.22C57.479,157.752,56.873,159.522,56.447,161.217z"/>
				<path style="fill:#67BDD9;" d="M94.497,125.984c-0.08-0.116-0.194-0.209-0.328-0.272c-0.004-0.003-0.006-0.005-0.009-0.007
					s-0.006,0.001-0.009,0c-0.029-0.014-0.059-0.03-0.09-0.04c-0.027-0.009-0.053-0.017-0.08-0.024
					c-0.447-0.137-0.899,0.191-0.977,0.629c-4.043-0.067-8.283,1.049-12.225,1.816c-4.409,0.859-8.779,1.911-13.113,3.092
					c-4.335,1.182-8.611,2.562-12.842,4.073c-3.597,1.285-7.105,2.538-9.916,5.215c-0.112,0.107-0.07,0.261,0.029,0.339
					c-0.722,0.953-0.295,2.053,0.446,3.019c1.227,1.599,2.706,3.481,4.275,4.769c2.468,2.021,7.458,2.577,10.384,0.896
					c0.047,0.017,0.091,0.039,0.139,0.054c0.374,0.121,0.717-0.27,0.661-0.608c0.02-0.017,0.042-0.03,0.062-0.048
					c0.303-0.27,0.044-0.721-0.308-0.742c-0.164-0.011-0.325-0.012-0.484-0.006c-4.011-4.043,1.962-8.262,5.664-9.699
					c4.71-1.83,9.528-3.312,14.433-4.522c3.938-0.971,8.436-1.115,12.126-2.831C94.036,130.295,96.077,127.551,94.497,125.984z
					 M89.802,130.53c-2.385,0.674-4.928,0.938-7.352,1.462c-5.21,1.129-10.366,2.639-15.384,4.438
					c-3.658,1.311-7.684,2.666-9.427,6.445c-0.861,1.867-0.539,4.131,0.777,5.542c-0.456,0.114-0.915,0.243-1.395,0.347
					c-1.806,0.387-3.649,0.109-5.33-0.607c-1.472-0.629-2.342-1.86-3.275-3.088c-1.084-1.425-3.466-1.955-3.073-4.334
					c6.809-4.083,15.074-6.223,22.659-8.342c4.038-1.129,8.121-2.09,12.226-2.939c4.06-0.842,8.388-1.122,12.396-2.199
					c0.283-0.043,0.563-0.07,0.824-0.053c0.037,0.047,0.078,0.092,0.125,0.127c-0.131,0.439-0.258,0.84-0.341,1.016
					C92.614,129.654,91.077,130.17,89.802,130.53z"/>
			</g>
			<g>
				<path style="fill:#27A9D1;" d="M302.993,36.4c-3.543-3.002-9.104,2.092-6.518,5.769c-0.014,1.063-0.027,2.122-0.111,3.182
					c-0.076,0.961-0.443,1.531-0.246,2.359c-0.107,0.139-0.211,0.282-0.307,0.43c-0.445,0.69,0.395,1.27,1.01,1.009
					c2.596-1.104,5.428-3.836,6.99-6.193C305.216,40.844,304.911,38.024,302.993,36.4z M302.089,41.949
					c-0.932,1.741-2.699,2.819-4.246,4.071c0.088-0.673,0.078-1.383,0.104-1.99c0.047-1.115-0.035-2.241-0.033-3.357
					c0-0.587,0.055-1.131-0.004-1.66c0.035-0.077,0.066-0.153,0.105-0.229c0.799-1.528,2.865-1.661,4.055-0.663
					C303.282,39.139,302.661,40.876,302.089,41.949z"/>
				<path style="fill:#27A9D1;" d="M96.546,127.049c-0.457-1.729-1.791-2.217-3.476-2.152c-3.12,0.12-6.372,0.916-9.437,1.48
					c-12.39,2.279-25.505,5.868-36.368,12.408c-0.056,0.034-0.019,0.131,0.045,0.108c8.822-3.009,17.411-6.534,26.464-8.845
					c4.52-1.154,9.091-2.104,13.692-2.867c1.15-0.191,2.304-0.359,3.458-0.523c1.358-0.193,5.153-0.254,2.786,2.111
					c-0.456,0.455-0.977,0.836-1.538,1.166c-4.192,1-8.324,2.396-12.58,3.16c-4.67,0.838-9.433,2.803-13.823,4.557
					c-3.205,1.281-5.943,2.939-7.245,6.275c-0.626,1.604-0.16,3.879,1.072,5.204c-1.65,0.21-3.359,0.706-4.829,0.839
					c-3.783,0.345-5.368-2.186-7.678-4.566c-0.266-0.273-0.675,0.072-0.51,0.393c1.229,2.383,3.279,4.368,5.803,5.305
					c1.5,0.557,3.256,0.3,4.809,0.221c0.412-0.021,0.833-0.021,1.258-0.016c-1.166,1.096,0.102,4.396,0.496,5.446
					c0.764,2.038-1.535,3.327-1.71,5.177c-0.094,0.986,0.027,1.76,0.296,2.698c0.342,1.195,2.29,4.899-1.132,4.774
					c-0.109-0.004-0.167,0.14-0.089,0.213c0.76,0.721,1.986,0.891,2.762-0.041c1.171-1.406,0.984-2.971,0.536-4.659
					c-0.504-1.897-0.441-3.042,0.629-4.69c0.387-0.595,0.855-1.452,0.847-2.192c-0.014-1.206-0.339-2.163-0.806-3.277
					c-0.511-1.22-0.054-2.146-0.062-3.318c0-0.05-0.015-0.093-0.028-0.136c1.021-0.043,2.014-0.205,2.894-0.736
					c0.522-0.315,0.366-1.018-0.159-1.213c-0.014-0.006-0.029-0.008-0.043-0.014c-0.015-0.148-0.083-0.293-0.23-0.412
					c-6.445-5.223,2.73-9.01,8.511-10.908c0.056,0.123,0.161,0.228,0.308,0.287c0.823,0.336,1.694,0.08,2.502,0.562
					c0.71,0.424,0.542,1.285,0.889,1.911c0.227,0.409,0.807,0.466,1.131,0.146c0.215-0.213,0.335-0.457,0.388-0.715
					c0.644-0.151,1.215-0.767,0.985-1.519c-0.021-0.069-0.048-0.134-0.073-0.2c0.889-0.527,1.839-0.99,2.799-1.418
					c0.298-0.062,0.531-0.115,0.63-0.155c0.268-0.112,0.51-0.259,0.725-0.433c0.376-0.162,0.75-0.321,1.115-0.481
					c1.768-0.772,3.943-1.163,5.18-2.731C90.976,133.094,97.528,130.767,96.546,127.049z"/>
			</g>
			<g>
				<path style="fill:#0098CB;" d="M303.181,35.883c-1.398-0.79-3.576-0.669-4.818,0.285c-0.377,0.29-0.066,0.829,0.373,0.637
					c2.559-1.118,4.762,0.342,5.105,2.955c0.223,1.695-1.023,2.961-2.164,3.986c-1.393,1.25-3.113,2.228-4.586,3.423
					c0.113-0.742,0.15-1.509,0.221-2.193c0.203-1.962,0.201-4.941-1.172-6.495c-0.039-0.044-0.107-0.017-0.123,0.033
					c-0.574,1.687-0.209,3.864-0.289,5.654c-0.078,1.793-1.197,3.935-0.553,5.637c0.068,0.179,0.281,0.313,0.465,0.189
					c0.32-0.215,0.568-0.485,0.768-0.79c2.229-0.593,4.234-2.361,5.957-3.807c1.434-1.202,3.029-2.992,3.084-4.984
					C305.501,38.488,304.905,36.857,303.181,35.883z"/>
				<path style="fill:#0098CB;" d="M80.337,133.896c-3.606,0.343-6.861,1.761-10.216,3.035c-3.159,1.199-6.312,2.054-8.953,4.26
					c-1.706,1.425-3.032,4.245-1.904,6.403c0.418,0.802,1.096,1.483,1.897,1.961c-1.181,0.186-2.361,0.461-3.449,0.605
					c-2.709,0.357-4.569,0.275-7.204-0.338c-0.036-0.008-0.062,0.035-0.036,0.062c1.428,1.48,3.66,1.535,5.596,1.558
					c1.036,0.012,2.059-0.1,3.081-0.228c-0.309,0.42-0.503,0.941-0.549,1.535c-0.158,2.061,2.03,4.383,1.031,6.236
					c-0.885,1.643-1.751,2.758-1.268,4.757c0.316,1.31,0.819,2.555,1.153,3.859c-0.984,2.784-1.893,3.171-2.725,1.162
					c-0.02-0.047-0.336-1.831-0.41-2.182c-0.056-0.263-0.468-0.259-0.526,0c-0.364,1.606-0.194,4.33,1.768,4.944
					c1.794,0.562,3.525-0.621,3.622-2.579c0.073-1.472-0.292-2.724-0.75-4.114c-0.427-1.299-0.673-2.471,0.049-3.766
					c0.366-0.655,0.97-1.164,1.218-1.893c0.385-1.133,0.316-2.127-0.208-3.223c-0.395-0.824-0.872-1.615-0.988-2.549
					c-0.09-0.723,0.353-1.662,0.593-2.436c1.284-0.133,2.479-0.215,3.633-0.826c0.023-0.012,0.041-0.029,0.059-0.045
					c0.08-0.025,0.161-0.047,0.24-0.077c0.323-0.123,0.355-0.483,0.09-0.687c-1.842-1.416-4.865-1.221-4.213-4.548
					c0.499-2.544,3.861-3.977,5.85-5.093c4.291-2.41,9.434-2.631,13.645-5.345C80.646,134.229,80.593,133.871,80.337,133.896z"/>
				<path style="fill:#0098CB;" d="M94.263,123.701c-1.386-0.096-2.928,0.391-4.281,0.615c-1.752,0.291-3.504,0.583-5.256,0.877
					c-3.678,0.619-7.348,1.316-10.956,2.268c-3.337,0.881-6.376,2.309-9.559,3.578c-3.274,1.305-6.979,2.436-9.974,4.271
					c-0.147,0.09-0.048,0.301,0.113,0.27c1.475-0.291,2.791-1.023,4.23-1.452c1.437-0.429,2.822-0.938,4.223-1.478
					c2.673-1.026,5.382-1.938,8.086-2.881c5.736-2.002,11.809-2.648,17.781-3.562c1.623-0.248,3.246-0.521,4.874-0.736
					c1.039-0.217,1.856,0.242,2.452,1.382c0.168,1.526-1.574,2.364-2.615,2.909c-2.92,1.528-6.012,2.801-9.014,4.158
					c-2.186,0.988-7.415,2.756-9.015,5.582c-0.003-0.006-0.006-0.01-0.009-0.014c-0.42-0.59-1.113-1.305-1.894-0.971
					c-0.048,0.02-0.058,0.08-0.051,0.124c0.102,0.61,0.606,0.95,0.949,1.428c0.289,0.403,0.41,0.847,0.535,1.298
					c0.013,0.266,0.059,0.537,0.141,0.816c0.064,0.216,0.393,0.352,0.555,0.146v-0.001c0.223,0.017,0.441-0.093,0.496-0.372
					c0.023-0.122,0.034-0.244,0.038-0.365c0.73-1.072,1.299-2.123,2.457-3c1.22-0.924,2.733-1.501,4.114-2.135
					c3.326-1.531,6.63-3.115,9.955-4.65c2.232-1.031,4.549-2.068,4.971-4.736C97.946,124.928,96.101,123.828,94.263,123.701z"/>
			</g>
			<g>
				<path style="fill:#0086C3;" d="M95.487,122.867c-2.412-0.551-5.63,1.318-7.914,1.895c-3.593,0.907-7.335,0.956-10.986,1.484
					c-0.329,0.049-0.306,0.574,0,0.641c4.347,0.938,8.841,0.089,13.074-1.029c2.086-0.553,8.018-3.15,6.898,1.467
					c-0.605,2.498-4.604,3.656-6.602,4.598c-2.541,1.199-5.018,2.527-7.555,3.739c-1.918,0.917-3.801,1.765-5.431,3.151
					c-0.721,0.615-1.179,1.364-1.511,2.18c-0.213-0.457-0.497-0.855-0.87-1.159c-0.031-0.025-0.071-0.009-0.075,0.031
					c-0.165,1.606,0.24,3.001,0.031,4.569c-0.031,0.176-0.062,0.355-0.094,0.538c-0.025,0.112-0.054,0.226-0.086,0.341
					c-0.52,1.809-1.519,2.703-2.891,3.365c-2.932-0.402-5.709,0.172-8.458-1.34c-2.302-1.266-1.885-3.676-0.292-5.299
					c1.064-1.085,2.65-1.461,3.86-2.336c0.045-0.033,0.033-0.11-0.03-0.11c-3.589-0.017-7.801,3.04-6.493,6.976
					c1.054,3.17,6.058,4.432,9.493,3.649c0.034,0.034,0.074,0.067,0.123,0.093c1.243,0.672,2.402,0.461,3.379-0.259
					c0.396-0.205,0.77-0.468,1.097-0.765c0.95-0.859,1.277-2.112,1.443-3.422c0.271-1.008,0.388-2.052,0.316-3.01
					c0.033-0.201,0.069-0.399,0.116-0.588c0.857-3.48,5.882-4.934,8.726-6.284c3.464-1.646,7.086-3.015,10.41-4.942
					c1.863-1.08,3.016-2.412,3.214-4.596C98.548,124.596,97.153,123.246,95.487,122.867z"/>
				<path style="fill:#0086C3;" d="M67.314,145.638c-0.657-0.688-1.142-1.542-1.4-2.456c-0.253-0.898,0.204-1.843-0.063-2.686
					c-0.031-0.096-0.114-0.131-0.208-0.118c-1.134,0.16-1.166,1.976-1.036,2.833c0.215,1.419,0.865,2.477,2.03,3.305
					C67.171,146.895,67.738,146.082,67.314,145.638z"/>
				<path style="fill:#0086C3;" d="M62.069,159.469c0.26-0.643,0.535-1.405,0.373-2.116c-0.342-1.501-2.59-4.029-1.082-5.503
					c0.309-0.302-0.004-0.852-0.423-0.727c-1.034,0.308-1.8,1.275-1.551,2.436c0.233,1.088,0.733,1.952,1.278,2.92
					c0.987,1.755-0.405,3.222-1.226,4.588c-0.825,1.373-0.885,2.897-0.245,4.355c0.746,1.699,2.055,3.326,0.503,5.207
					c-0.672,0.816-1.697,1.078-2.45,1.76c0.431-1.787-0.718-4.263-1.169-5.762c-0.497-1.648-0.767-3.269-0.443-4.98
					c0.218-1.152,0.802-2.184,0.979-3.355c0.209-1.388-0.393-2.468-1.455-3.265c-2.658-1.993-6.734,2.001-6.29,4.66
					c0.016,0.093,0.1,0.124,0.18,0.114c0.016,0.009,0.025,0.006,0.04-0.008c0.037-0.012,0.07-0.032,0.09-0.066
					c0.56-0.93,0.989-1.799,1.743-2.605c1.509-1.614,4.912-1.398,4.351,1.41c-0.187,0.932-0.714,1.835-1.019,2.734
					c-0.35,1.032-0.257,2.221-0.149,3.275c0.215,2.129,1.091,4.16,1.525,6.247c0.695,3.345-7.399,6.532-7.661,2.219
					c-0.002-0.034-0.047-0.04-0.058-0.008c-0.345,0.999-0.865,2.38,0.218,3.171c1.408,1.029,3.155,0.227,4.619-0.32
					c1.639-0.611,3.268-1.175,4.207-2.732c0.014-0.023,0.023-0.049,0.036-0.072c0.038,0.029,0.085,0.049,0.142,0.057
					c1.484,0.188,3.413-0.807,4.167-2.136c0.892-1.572,0.731-2.876,0.043-4.503c-0.688-1.629-1.508-2.856-0.623-4.648
					C61.119,161.005,61.728,160.312,62.069,159.469z"/>
				<path style="fill:#0086C3;" d="M303.062,35.785c-0.123-0.064-0.291,0.073-0.201,0.202c1.037,1.498,1.873,2.741,1.594,4.663
					c-0.252,1.72-1.121,2.97-2.363,4.143c-1.246,1.178-2.715,2.169-4.154,3.096c-1.141,0.732-2.467,1.224-3.322,2.286
					c-0.23,0.288-0.094,0.712,0.303,0.73c1.893,0.084,3.727-1.295,5.256-2.292c1.803-1.174,3.453-2.612,4.736-4.34
					C306.763,41.776,305.831,37.236,303.062,35.785z"/>
			</g>
			<g>
				<path style="fill:#0072B7;" d="M66.861,143.006c-0.236-1.09-0.177-1.768-0.902-2.63c-0.063-0.075-0.186-0.062-0.25,0
					c-1.636,1.58-0.091,5.267,1.702,6.241c0.189,0.157,0.444-0.07,0.408-0.291C67.633,145.196,67.104,144.135,66.861,143.006z"/>
				<path style="fill:#0072B7;" d="M74.105,140.971c-0.048-0.045-0.144-0.018-0.139,0.057c0.265,3.879-0.795,6.926-5.204,7.34
					c-3.703,0.347-8.635-3.752-4.607-6.932c0.209-0.164,0.023-0.484-0.204-0.49c-2.023-0.051-3.308,2.113-3.054,3.99
					c0.38,2.814,2.988,4.463,5.587,4.92c2.879,0.506,5.423-0.373,7.335-2.559C75.247,145.668,75.834,142.578,74.105,140.971z"/>
				<path style="fill:#0072B7;" d="M62.85,158.337c0.213-0.952,0.106-1.802-0.131-2.721c-0.287-1.112-1.963-2.318-0.698-3.529
					c0.347-0.332,0.092-0.975-0.396-0.956c-0.926,0.033-1.617,0.55-1.708,1.547c-0.044,0.477-0.072,0.979,0.156,1.424
					c0.795,1.551,1.698,2.691,1.118,4.622c-0.563,1.871-2.113,3.715-1.664,5.806c0.223,1.035,0.63,1.82,1.212,2.709
					c1.553,2.376,0.106,3.773-2.043,4.756c-0.257,0.117-0.072,0.514,0.188,0.445c3.284-0.879,5.13-2.685,3.194-5.983
					C60.345,163.506,62.193,161.268,62.85,158.337z"/>
				<path style="fill:#0072B7;" d="M57.661,157.682c0.142-0.816-0.116-1.492-0.465-2.211c-0.513-1.055-1.513-0.762-2.517-0.632
					c-0.332,0.043-0.419,0.476-0.08,0.594c1.738,0.607,1.517,1.778,1.062,3.262c-0.387,1.259-0.626,2.534-0.801,3.837
					c-0.268,1.994,0.016,3.895,0.398,5.849c0.197,1.009,0.668,2.026,0.993,3.003c0.972,2.919-1.75,2.865-3.423,3.581
					c-0.853,0.364-1.78,1.042-2.733,1.042c-0.602,0-0.808,0.261-1.171,0.654c-0.14,0.151-0.003,0.396,0.201,0.346
					c1.233-0.311,2.174-0.252,3.381-0.846c1.375-0.676,2.721-1.447,4.033-2.238c2.092-1.26,0.079-3.945-0.237-5.83
					c-0.33-1.963-0.226-3.992,0.089-5.953C56.636,160.599,57.395,159.217,57.661,157.682z"/>
				<path style="fill:#0072B7;" d="M99.528,124.686c-0.299-1.215-2.064-2.26-3.01-1.246c-0.07,0.074-0.09,0.219,0,0.291
					c4.424,3.539-3.291,7.331-5.869,8.813c-3.305,1.9-7.112,3.139-10.228,5.331c-0.19,0.133-0.077,0.429,0.159,0.377
					c2.931-0.648,5.818-2.178,8.479-3.527c2.896-1.469,5.697-3.15,8.286-5.111C99.001,128.361,100.045,126.777,99.528,124.686z"/>
				<path style="fill:#0072B7;" d="M305.638,37.031c-0.158-0.134-0.336-0.159-0.523-0.067c-0.084,0.041-0.168,0.082-0.252,0.122
					c-0.121,0.06-0.109,0.212-0.039,0.301c2.279,2.876-0.604,6.759-2.721,8.575c-2.561,2.195-5.52,3.293-8.299,5.074
					c-0.135,0.086-0.09,0.325,0.086,0.316c3.711-0.185,7.73-2.766,10.352-5.256C306.493,43.954,308.536,39.488,305.638,37.031z"/>
			</g>
		</g>
		<g style="display:inline;">
			<path style="fill:#0082A3;" d="M98.894,123.121c-2.645-1.797-5.418-0.818-8.207,0.148c-3.992,1.384-8.057,1.716-12.2,2.322
				c-0.097,0.015-0.162,0.058-0.211,0.11c-2.098,0.421-4.162,1.116-6.102,1.819c-4.171,1.514-8.286,3.201-12.422,4.807
				c-3.595,1.395-7.166,2.824-10.54,4.705c-1.924,1.072-4.744,2.512-4.758,4.895c-0.124,1.027,0.365,2.066,0.967,3.039
				c0.64,1.035,1.532,1.902,2.211,2.912c1.147,1.709,0.609,3.812,0.102,5.625c-1.542,5.514-2.537,11.05-2.501,16.795
				c0.021,3.506-0.504,8.283,4.328,7.334c3.763-0.74,8.059-2.928,11.408-5.4c1.029-0.271,1.999-0.774,2.418-1.828
				c0.923-2.319-1.092-3.953-1.358-6.234c-0.319-2.741,1.508-5.107,1.346-7.768c-0.061-0.998-0.623-1.839-1.503-2.111
				c-1.174-2.048,2.411-3.496,4.264-3.605c1.785-0.104,3.591,0.273,5.369-0.034c2.278-0.394,4.258-1.554,4.956-3.854
				c0.638-2.101-0.968-3.976,0.736-5.903c1.121-1.268,3.169-1.771,4.677-2.414c3.714-1.582,7.361-3.471,10.882-5.444
				C95.245,131.639,104.396,126.857,98.894,123.121z M51.469,175.938c-0.702,0.273-1.394,0.531-2.11,0.704
				c-2.058-0.909-1.328-4.979-1.251-6.642c0.083-1.838,0.268-3.67,0.485-5.497c0.235-1.97,0.531-3.97,1.037-5.891
				c0.719-2.731,3.538-3.223,5.903-3.504c2.863-0.341,1.228,3.175,0.968,4.466c-0.333,1.658-0.353,3.396-0.472,5.078
				c-0.116,1.635-0.292,3.283-0.247,4.922c0.017,0.617,1.381,2.857,1.298,3.672C55.287,174.244,53.45,175.166,51.469,175.938z
				 M62.238,155.68c0.475,1.5-0.633,3.35-1.06,4.695c-0.384,1.213-0.479,2.533-0.447,3.795c0.028,1.083,0.402,2.09,0.863,3.053
				c0.485,1.015,1.553,1.747,0.804,2.877c-1.367,0.822-2.703,1.641-4.051,2.424c-0.011-0.102-0.027-0.203-0.056-0.305
				c-0.382-1.39-1.403-1.542-1.454-3.342c-0.047-1.684,0.207-3.424,0.303-5.106c0.091-1.583,0.18-3.157,0.417-4.728
				c0.128-0.85,0.963-2.336,0.664-3.215c-0.561-1.646-1.842-1.596-3.438-1.382c-2.051,0.276-3.973,0.692-5.377,2.311
				c-1.624,1.872-1.572,5.413-1.879,7.746c-0.431,3.265-0.646,6.593-0.569,9.884c0.023,0.994,0.345,1.909,1.01,2.453
				c-1.914-0.021-1.689-3.656-1.728-4.752c-0.083-2.379,0.081-4.782,0.285-7.151c0.226-2.632,0.706-5.229,1.271-7.806
				c0.424-1.935,1.202-3.865,1.406-5.84c0.054-0.525,0.071-1.013,0.049-1.479c1.101,1.19,2.808,1.899,4.4,2.01
				c2.267,0.158,4.944,0.104,7.501-0.301c-0.111,0.159-0.216,0.326-0.307,0.509C60.151,153.419,60.84,155.17,62.238,155.68z
				 M98.11,128.38c-2.574,2.483-6.56,4.185-9.688,5.856c-3.19,1.704-6.556,2.982-9.853,4.451c-2.151,0.958-3.399,2.434-3.384,4.824
				c0.014,2.231,0.526,3.883-1.808,5.262c-1.845,1.09-4.34,0.701-6.374,0.637c-0.115-0.004-0.231-0.005-0.348-0.006
				c-0.038-0.022-0.081-0.037-0.132-0.032c-0.093,0.009-0.184,0.024-0.276,0.034c-0.956,0.02-1.941,0.145-2.829,0.46
				c-1.874,0.372-3.74,0.817-5.659,0.996c-1.582,0.147-3.172,0.21-4.751-0.011c-1.955-0.272-3.064-1.546-4.148-2.955
				c-0.157-0.4-0.359-0.799-0.626-1.209c-1.228-1.88-2.968-2.891-3.121-5.135c1.001-2.832,6.776-4.996,8.913-5.96
				c3.321-1.497,6.77-2.73,10.166-4.046c3.254-1.26,6.49-2.582,9.788-3.723c1.921-0.665,3.875-1.017,5.84-1.343
				c3.195,0.073,6.447-0.64,9.494-1.487c1.608-0.448,3.155-1.08,4.771-1.503C97.235,122.666,101.36,125.242,98.11,128.38z"/>
			<path style="fill:#0082A3;" d="M73.785,138.314c-1.543-1.285-3.426-0.453-5.175,0.031c-2.524,0.698-5.706,2.54-6.516,5.127
				c-0.48,0.764-0.441,1.5-0.095,2.172c0.061,0.281,0.146,0.568,0.268,0.859c0.082,0.199,0.355,0.25,0.483,0.125
				c1.1,1.077,2.851,1.88,4.007,2.18c4.565,1.188,7.836-0.658,8.048-5.545C74.856,142.062,74.856,139.207,73.785,138.314z
				 M66.075,140.479c-0.198,1.834,0.326,3.727,1.335,5.261c0.373,0.566,0.312,0.786-0.469,0.566
				c-0.622-0.175-1.172-0.428-1.719-0.767c-0.83-0.515-1.231-1.42-1.946-1.982C63.807,142.301,64.774,141.281,66.075,140.479z
				 M73.528,145.371c-0.694,2.75-3.41,2.891-5.696,2.418c-1.881-0.389-4.391-1.293-4.765-3.174c0.823,1.6,3.5,2.99,4.936,2.596
				c0.831-0.229,0.701-0.906,0.383-1.503c-1.006-1.884-1.298-3.692-1.261-5.778c0.795-0.34,1.647-0.573,2.466-0.805
				c0.474-0.126,0.95-0.247,1.426-0.363c2.782-0.692,2.652,1.461,2.747,2.899C73.846,142.922,73.839,144.137,73.528,145.371z"/>
			<path style="fill:#0082A3;" d="M307.649,40.386c-0.377-4.427-5.434-6.209-8.975-4.669c-2.049,0.323-3.373,2.231-3.568,4.378
				c-0.17,1.839,0.105,3.64,0.189,5.477c0.117,2.6-1.074,4.928-2.938,6.66c-0.355,0.333,0.012,1.029,0.494,0.847
				c3.629-1.375,7.012-3.148,10.186-5.386C305.661,45.841,307.944,43.84,307.649,40.386z M305.29,44.362
				c-2.551,3.047-6.934,5.297-10.789,6.945c0.996-1.391,1.637-2.971,1.877-4.747c0.32-2.377-0.672-6.145,0.543-8.396
				c1.674-1.441,3.402-2.362,5.818-1.885C306.575,37.037,307.616,41.587,305.29,44.362z"/>
		</g>
	</g>
	<g style="display:none;">
		<path style="display:inline;fill:none;" d="M58.96,12.29l-0.015,5.469c0,3.602-2.929,6.516-6.531,6.516l-6.74-0.015
			c-0.015,6.62,5.903,12,13.24,12.015c7.368,0.016,13.301-5.35,13.315-11.97C72.246,17.685,66.312,12.305,58.96,12.29z"/>
		<polygon style="display:inline;fill:none;" points="247.195,27.667 240.844,27.652 233.641,27.638 227.305,27.638 208.192,27.607 
			208.192,30.851 320.242,31.029 320.242,27.771 260.734,27.683 254.383,27.683 		"/>
		<polygon style="display:inline;fill:none;" points="92.913,27.428 92.898,30.671 204.934,30.851 204.934,27.593 		"/>
		<polygon style="display:inline;fill:#92C13E;" points="353.463,14.173 353.447,18.925 443.127,16.698 		"/>
		<polygon style="display:inline;fill:#06887D;" points="353.463,11.064 260.734,10.915 260.734,27.683 320.242,27.771 
			323.5,27.787 353.432,27.831 353.447,18.925 353.463,14.173 		"/>
		<polygon style="display:inline;fill:#06887D;" points="208.192,30.851 204.934,30.851 92.898,30.671 89.655,30.671 81.571,30.656 
			81.571,32.39 350.219,32.808 350.219,31.074 323.484,31.029 320.242,31.029 		"/>
		<polygon style="display:inline;fill:#92C13E;" points="320.242,31.029 323.484,31.029 323.5,27.787 320.242,27.771 		"/>
		<rect x="254.383" y="10.915" style="display:inline;fill:#92C13E;" width="6.352" height="16.768"/>
		<polygon style="display:inline;fill:#06887D;" points="254.383,27.683 254.383,10.915 247.195,10.9 247.195,27.667 		"/>
		<polygon style="display:inline;fill:#92C13E;" points="247.195,27.667 247.195,10.9 240.844,10.885 240.844,27.652 		"/>
		<polygon style="display:inline;fill:#06887D;" points="240.844,27.652 240.844,10.885 233.641,10.885 233.641,27.638 		"/>
		<polygon style="display:inline;fill:#92C13E;" points="233.641,27.638 233.641,10.885 227.305,10.87 227.305,27.638 		"/>
		<path style="display:inline;fill:#06887D;" d="M204.934,27.593l3.258,0.015l19.113,0.03V10.87L82.766,10.646L71.438,3.951
			L20.016,3.876c-0.269,0-0.508-0.074-0.688-0.239L14.8,0.229c-0.762-0.567-1.853-0.015-1.853,0.927l-0.015,10.401
			c0,0,18.172,0.104,18.172,6.68C31.089,26.606,6.626,35.378-2.116,52.22c-1.39,2.66,0.06,5.918,2.914,6.83l18.366,5.843
			c2.72,0.882,5.649-0.762,6.262-3.557c1.659-7.517,6.306-20.922,18.875-26.032c0,0,8.204,6.605,18.456,4.991
			C73.022,38.666,76.31,27.398,76.31,27.398l13.345,0.015l3.258,0.015L204.934,27.593z M58.915,36.274
			C51.578,36.26,45.66,30.88,45.675,24.26c0-6.62,5.948-11.985,13.285-11.97c7.353,0.015,13.286,5.395,13.271,12.015
			C72.216,30.925,66.283,36.29,58.915,36.274z"/>
		<polygon style="display:inline;fill:#92C13E;" points="204.934,27.593 204.934,30.851 208.192,30.851 208.192,27.607 		"/>
		<polygon style="display:inline;fill:#92C13E;" points="92.913,27.428 89.655,27.413 89.655,30.671 92.898,30.671 		"/>
		<path style="display:inline;fill:#92C13E;" d="M58.945,17.759l0.015-5.469c-7.337-0.016-13.285,5.35-13.285,11.97l6.74,0.015
			C56.016,24.274,58.945,21.36,58.945,17.759z"/>
	</g>
	<g>
		<g>
			<path style="fill:#FFFFFF;" d="M171.824,151.511c0.508-1.865,0.237-6.876,0.237-6.876l169.371,1.661c0,0,4.447,4.631,3.335,6.54
				C344.768,152.834,172.903,153.162,171.824,151.511L171.824,151.511z"/>
			<path style="fill:#FFFFFF;" d="M77.543,147.695c3.149,0.138,34.319,0.948,36.023,2.111c1.519,1.04-0.309,2.701-0.715,3.042
				l4.607-0.073l39.46-1.179c0,0-1.869-3.871-1.599-6.252c-20.156,1.886-72.33,0.904-78.501,0.779
				C77.321,146.58,77.582,147.101,77.543,147.695z"/>
			<path style="fill:#FFFFFF;" d="M54.227,169.875c-2.174-3.255-2.126-7.017-0.42-9.147c-2.618,0.213-4.825,0.521-5.856,0.808
				c-2.176,1.504-2.199,4.934-2.021,7.284c0.05,0.661,0.129,1.313,0.235,1.968c0.451,0.141,0.879,0.451,1.333,0.557
				c0.704,0.165,1.464-0.117,2.127-0.308c0.734-0.211,1.483-0.377,2.222-0.572C52.017,170.419,54.15,169.76,54.227,169.875z"/>
			<path style="fill:none;stroke:#FFFFFF;stroke-width:1.824;stroke-miterlimit:10;" d="M23.351,145.666
				c-2-0.654-5.937,3.182-3.347,9.273c2.571,6.09,7.604,5.621,6.667,6.946c-17.145,19.782-11.087,28.069-20.042,35.267
				c-1.026,4.677,22.5,11.583,28.057,6.147c-8.762-5.105,9.413-20.542,3.923-24.249c-3.429-2.001,3.709-5.49,3.709-5.49
				s13.241,6.179,17.681,4.685c4.441-1.492,11.706-13.077,11.706-13.077l33.356,0.553l0.506-1.745L346.421,164
				c0,0,6.794,4.98,7.933-0.479c17.515-2.042,7.135-9.621,7.135-9.621s2.358-6.963-0.86-8.155
				c-1.247-1.066-13.518-2.773-19.074-1.422c-3.288,0.98,3.209,8.509,3.209,8.509s-170.674-0.634-172.411-1.142
				c-0.882-0.253,1.505-7.289-1.248-8.213c-1.999-0.67-11.827-0.43-14.665,0.642c-2.835,1.071,0.479,7.935,0.479,7.935
				l-44.148,1.318c0,0,2.495-1.945,0.795-3.108c-1.704-1.163-32.874-1.974-36.023-2.111c0.525-8.199-54.179-2.483-54.179-2.483
				L23.351,145.666z"/>
			<path style="fill:none;stroke:#FFFFFF;stroke-width:1.824;stroke-miterlimit:10;" d="M356.249,155.876
				c2.461-0.484,4.717,0.441,5.04,2.073c0.32,1.635-1.41,3.353-3.874,3.84c-2.458,0.484-4.715-0.447-5.037-2.076
				C352.049,158.081,353.788,156.36,356.249,155.876z"/>
			<path style="fill:none;stroke:#FFFFFF;stroke-width:1.824;stroke-miterlimit:10;" d="M45.459,170.402
				c0,0-1.356-6.724,1.783-8.783c3.615-0.953,21.673-2.162,21.263,1.168c-0.409,3.328-3.74,9.045-6.438,11.048
				c-3.221,3.304-14.18-2.651-16.603-3.436L45.459,170.402z"/>
			<path style="fill:#FFFFFF;" d="M423.896,148.616v-0.009h-38.25v0.005c-9.984-0.156-21.812-0.508-23.654-1.296
				c0,0,0.711,2.394-0.038,3.721l23.692-0.011h38.062h0.188h0.554l-0.979,6.066l4.916-5.813l9.647-2.541
				C438.034,148.738,431.536,148.734,423.896,148.616z"/>
			<path style="fill:#FFFFFF;" d="M44.792,171.781c-0.276,0.039,10.433,2.748-0.01-0.666L44.792,171.781z"/>
		</g>
		<g>
			<path style="fill:#FFFFFF;" d="M15.783,111.835c3.433,6.139,7.856,9.539,14.952,9.539c5.38,0,10.562-3.797,10.562-9.309
				c0-16.8-30.2-18.351-30.2-40.432c0-9.605,8.119-16.8,18.285-16.8c7.394,0,13.5,3.366,19.111,10.232l-7.129,5.742
				c-4.126-4.555-7.559-6.699-11.354-6.699c-4.456,0-8.582,2.442-8.582,7.954c0,13.863,30.432,17.526,30.432,38.749
				c0,11.717-8.12,20.069-21.322,20.069c-11.156,0-18.714-5.712-23.038-14.261L15.783,111.835z"/>
			<path style="fill:#FFFFFF;" d="M98.527,130.881c-20.992,0-38.023-17.032-38.023-38.024s17.031-38.023,38.023-38.023
				c20.992,0,38.023,17.031,38.023,38.023S119.519,130.881,98.527,130.881z M71.065,92.856c0,15.447,12.279,27.988,27.461,27.988
				c15.183,0,27.461-12.541,27.461-27.988c0-15.447-12.278-27.988-27.461-27.988C83.344,64.868,71.065,77.41,71.065,92.856z"/>
			<path style="fill:#FFFFFF;" d="M162.259,120.317h23.236v9.506h-33.798V55.889h10.562V120.317z"/>
			<path style="fill:#FFFFFF;" d="M222.592,67.31c-4.225-4.521-8.021-6.833-12.311-6.833c-5.579,0-10.892,3.136-10.892,10.364
				c0,16.405,32.048,20.068,32.048,41.027c0,11.09-7.492,19.013-19.638,19.013c-10.463,0-17.527-5.052-21.587-12.774l5.149-2.938
				c3.697,6.303,8.615,9.803,16.603,9.803c6.831,0,13.07-4.852,13.07-11.98c0-19.21-31.851-20.696-31.851-42.611
				c0-8.812,7.328-15.546,16.371-15.546c6.8,0,12.344,2.904,17.461,8.912L222.592,67.31z"/>
			<path style="fill:#FFFFFF;" d="M381.348,55.889h6.369v67.299c-6.865,4.688-15.744,7.692-24.259,7.692
				c-16.701,0-29.573-4.854-29.573-28.288V55.889h6.369v44.624c0,23.171,12.972,24.589,23.204,24.589
				c5.149,0,11.585-1.484,17.89-5.545V55.889z"/>
			<path style="fill:#FFFFFF;" d="M415.274,55.889v68.125h23.962v5.809h-30.298V55.889H415.274z"/>
			<path style="fill:#FFFFFF;" d="M317.318,92.856c0,20.992-16.997,38.024-37.957,38.024c-20.925,0-37.957-17.032-37.957-38.024
				c0-20.959,17.032-38.023,37.957-38.023C300.321,54.833,317.318,71.897,317.318,92.856z M247.808,92.856
				c0,17.625,14.094,32.049,31.554,32.049c17.462,0,31.587-14.424,31.587-32.049c0-17.625-14.094-32.049-31.587-32.049
				C261.901,60.807,247.808,75.232,247.808,92.856z"/>
			<g>
				<path style="fill:#FFFFFF;" d="M439.183,56.508v7.247h-0.907v-7.247h-2.018v-0.82h4.938v0.82H439.183z"/>
				<path style="fill:#FFFFFF;" d="M445.571,63.985l-2.247-5.715l-1.275,5.485h-0.93l1.951-8.297l2.501,6.323l2.502-6.323
					l1.959,8.297h-0.936l-1.275-5.485L445.571,63.985z"/>
			</g>
		</g>
	</g>
</g>
<g id="Layer_1">
</g>
</svg>
