<?xml version="1.0" encoding="iso-8859-1"?>
<!-- Generator: Adobe Illustrator 16.0.0, SVG Export Plug-In . SVG Version: 6.00 Build 0)  -->
<!DOCTYPE svg PUBLIC "-//W3C//DTD SVG 1.1//EN" "http://www.w3.org/Graphics/SVG/1.1/DTD/svg11.dtd">
<svg version="1.1" id="Layer_1" xmlns="http://www.w3.org/2000/svg" xmlns:xlink="http://www.w3.org/1999/xlink" x="0px" y="0px"
	 width="442.534px" height="99.457px" viewBox="0 0 442.534 99.457" style="enable-background:new 0 0 442.534 99.457;"
	 xml:space="preserve">
<g>
	<g>
		<path style="fill:#FFFFFF;" d="M308.375,53.15c0.158-0.666,0.136-1.106,0.346-1.304c0.153-0.147,0.403-0.194,0.655-0.239
			c0.291-1.897,0.443-3.842,0.443-5.821c0-20.959-16.997-38.023-37.957-38.023c-20.924,0-37.956,17.064-37.956,38.023
			c0,20.991,17.032,38.023,37.956,38.023c18.523,0,33.942-13.305,37.279-30.886C308.931,52.982,308.675,53.044,308.375,53.15z
			 M289.451,15.724c0.183-0.12,0.678,0.239,1.033,0.383c-0.158,0.39-0.317,0.78-0.564,1.394c-0.555-0.299-0.891-0.48-1.228-0.662
			C288.934,16.451,289.103,15.95,289.451,15.724z M249.152,16.539c0.742-0.458,1.375,0.092,1.689,0.821
			c0.323,0.747,0.203,1.578-0.605,1.788c-0.528,0.138-1.206-0.306-2.238-0.615C248.51,17.602,248.682,16.829,249.152,16.539z
			 M242.247,62.524c-0.712-0.54-1.274-0.758-1.456-1.151c-0.28-0.608,0.006-1.306,0.725-1.342c0.466-0.023,1.203,0.321,1.361,0.693
			C243.025,61.075,242.571,61.681,242.247,62.524z M282.92,79.806c-0.423,0.053-0.925-0.533-1.391-0.838
			c0-0.174,0-0.348-0.001-0.523c0.463-0.328,0.953-0.943,1.384-0.904c0.434,0.041,1.104,0.723,1.117,1.141
			C284.042,79.069,283.359,79.751,282.92,79.806z M303.334,49.601c-0.075,0.629,0.042,1.383-0.269,1.854
			c-0.048,0.072-0.101,0.132-0.156,0.188c-2.719,14.853-15.567,26.191-31.048,26.191c-17.459,0-31.553-14.424-31.553-32.048
			c0-17.625,14.094-32.05,31.553-32.05c17.493,0,31.587,14.425,31.587,32.05c0,1.258-0.08,2.496-0.22,3.717
			C303.264,49.535,303.299,49.568,303.334,49.601z M306.483,52.378c-0.244,0.253-1.185,0.25-1.399,0.001
			c-0.287-0.334-0.4-1.181-0.165-1.499c0.229-0.314,0.981-0.244,1.913-0.419C306.693,51.386,306.783,52.072,306.483,52.378z"/>
		<path style="fill:#FFFFFF;" d="M293.923,29.512c1.168-7.991,11.292-25.929,5.726-28.999c-5.577-3.081-21.823,8.283-26.866,18.771
			c-12.709-5.792-36.318-16.77-39.928-13.535c-3.615,3.241,15.057,15.965,17.283,28.156c-7.38,13.387-32.416,29.005-28.102,35.255
			c4.31,6.249,42.766-5.743,42.766-5.743s14.417,34.372,22.865,35.987c8.466,1.62-1.961-33.65,8.9-41.355
			c11.508,0.116,34.488,5.814,36.108,1.158C334.296,54.555,307.238,38.137,293.923,29.512z M285.112,20.586
			c0.808,0.392,1.565,0.539,1.637,0.845c0.102,0.444-0.291,1.003-0.474,1.513c-0.436-0.178-1.069-0.243-1.254-0.564
			C284.823,22.03,285.044,21.442,285.112,20.586z M282.955,24.647c0.761,0.329,1.239,0.536,1.718,0.743
			c-0.323,0.518-0.542,1.229-1.008,1.483c-0.304,0.166-0.971-0.335-1.475-0.537C282.404,25.865,282.618,25.393,282.955,24.647z
			 M282.222,45.853c-0.704,0.804-1.875,0.853-2.684,0.113c-0.797-0.727-0.889-1.93-0.207-2.701c0.678-0.768,1.887-0.807,2.703-0.09
			C282.869,43.909,282.947,45.024,282.222,45.853z M279.275,29.521c0.771-0.316,1.686,0.05,2.041,0.896
			c0.277,0.838-0.092,1.462-0.949,1.812c-0.834,0.339-1.505,0.06-1.9-0.722C278.103,30.787,278.53,29.824,279.275,29.521z
			 M276.232,34.312c0.943-0.346,2.034,0.163,2.357,1.096c0.328,0.949-0.183,1.99-1.142,2.328c-0.892,0.312-1.94-0.169-2.271-1.044
			C274.825,35.756,275.318,34.644,276.232,34.312z M242.247,62.523c-0.712-0.539-1.274-0.758-1.456-1.15
			c-0.28-0.609,0.006-1.307,0.725-1.342c0.466-0.023,1.203,0.32,1.361,0.693C243.025,61.074,242.571,61.68,242.247,62.523z
			 M245.819,60.518c-0.813-0.484-1.573-0.695-1.645-1.043c-0.095-0.467,0.345-1.041,0.554-1.57c0.491,0.219,1.199,0.316,1.412,0.693
			C246.336,58.947,246,59.594,245.819,60.518z M249.92,58.029c-0.504,0.113-1.128-0.309-2.076-0.609
			c0.476-0.869,0.673-1.723,1.072-1.832c0.451-0.121,1.299,0.281,1.587,0.713C250.913,56.912,250.802,57.83,249.92,58.029z
			 M250.236,19.148c-0.528,0.138-1.206-0.306-2.238-0.615c0.513-0.932,0.685-1.705,1.154-1.995c0.742-0.458,1.375,0.092,1.689,0.821
			C251.165,18.107,251.044,18.938,250.236,19.148z M254.917,55.316c-0.843,0.281-1.548-0.041-1.889-0.812
			c-0.345-0.783-0.066-1.502,0.714-1.916c0.728-0.389,1.67-0.01,2.004,0.748C256.066,54.061,255.674,55.064,254.917,55.316z
			 M254.719,24.2c-0.892,0.311-1.946-0.25-2.302-1.222c-0.359-0.981,0.081-2.093,0.959-2.425c0.88-0.333,1.96,0.203,2.335,1.16
			C256.122,22.758,255.678,23.868,254.719,24.2z M259.544,52.213c-0.822,0.365-1.798-0.014-2.103-0.799
			c-0.301-0.771,0.149-1.768,0.938-2.074s1.834,0.123,2.071,0.918C260.714,51.141,260.406,51.83,259.544,52.213z M260.301,29.905
			c-1.048,0.371-2.322-0.223-2.638-1.229c-0.335-1.069,0.26-2.251,1.31-2.604c1.053-0.354,2.305,0.227,2.647,1.227
			C261.973,28.332,261.369,29.526,260.301,29.905z M265.173,48.586c-0.951,0.42-2.167-0.129-2.562-1.154
			c-0.382-0.994,0.077-2.152,1.004-2.528c1.029-0.418,2.119,0.08,2.535,1.158C266.544,47.086,266.126,48.166,265.173,48.586z
			 M265.931,36.7c-1.127,0.427-2.482-0.225-2.938-1.415c-0.474-1.241,0.031-2.601,1.137-3.054c1.164-0.478,2.512,0.174,3.013,1.458
			C267.618,34.906,267.069,36.27,265.931,36.7z M270.037,43.292c-0.383-0.982,0.165-2.188,1.16-2.555
			c1.021-0.376,2.152,0.149,2.547,1.183c0.383,1.007-0.145,2.176-1.155,2.557C271.596,44.851,270.432,44.311,270.037,43.292z
			 M272.804,50.945c-0.064-0.738,0.797-1.506,1.581-1.5c0.854,0.006,1.541,0.699,1.519,1.533c-0.021,0.797-0.801,1.541-1.612,1.447
			C273.444,52.324,272.879,51.818,272.804,50.945z M273.802,56.135c0.035-0.854,0.447-1.43,1.178-1.531
			c1.023-0.025,1.656,0.623,1.661,1.537c0.004,0.908-0.505,1.428-1.36,1.547C274.51,57.791,273.767,56.994,273.802,56.135z
			 M274.948,61.699c0.018-0.928,0.737-1.234,1.553-1.328c0.859,0.092,1.534,0.471,1.495,1.389c-0.035,0.887-0.677,1.318-1.556,1.297
			C275.57,63.035,274.929,62.613,274.948,61.699z M277.627,67.107c0.117-0.709,0.328-1.492,1.319-1.441
			c0.956,0.049,1.227,0.801,1.213,1.627c-0.015,0.836-0.335,1.559-1.304,1.523C277.876,68.785,277.689,68.004,277.627,67.107z
			 M280.245,74.83c-0.325-0.453-0.917-0.916-0.9-1.354c0.017-0.383,0.701-1.014,1.112-1.033c0.396-0.016,1.11,0.576,1.154,0.961
			c0.048,0.434-0.495,0.938-0.78,1.41C280.634,74.82,280.439,74.822,280.245,74.83z M282.92,79.805
			c-0.423,0.053-0.925-0.533-1.391-0.838c0-0.174,0-0.348-0.001-0.523c0.463-0.328,0.953-0.943,1.384-0.904
			c0.434,0.041,1.104,0.723,1.117,1.141C284.042,79.068,283.359,79.75,282.92,79.805z M287.423,47.494
			c-0.583,0.68-1.796,0.715-2.499,0.072c-0.657-0.6-0.735-1.751-0.162-2.393c0.644-0.724,1.726-0.752,2.47-0.065
			C287.933,45.759,288.017,46.797,287.423,47.494z M288.091,19.858c-0.316-0.144-0.798-0.21-0.907-0.448
			c-0.138-0.298,0.03-0.736,0.102-1.488c0.571,0.463,0.992,0.641,1.066,0.912C288.432,19.129,288.191,19.513,288.091,19.858z
			 M289.919,17.5c-0.555-0.299-0.891-0.48-1.228-0.662c0.242-0.387,0.411-0.888,0.759-1.115c0.183-0.12,0.678,0.239,1.033,0.383
			C290.326,16.496,290.167,16.887,289.919,17.5z M293.239,48.707c-0.573,0.699-1.343,0.699-2.009,0.127
			c-0.647-0.559-0.818-1.305-0.213-2.002c0.584-0.677,1.308-0.659,2.04-0.164C293.639,47.299,293.804,48.02,293.239,48.707z
			 M298.183,50.316c-0.425,0.322-1.41,0.447-1.76,0.172c-0.384-0.299-0.326-1.162-0.461-1.781c0.124-0.137,0.246-0.277,0.37-0.418
			c0.634,0.043,1.403-0.121,1.868,0.182C298.923,48.939,298.775,49.869,298.183,50.316z M303.066,51.453
			c-0.447,0.68-1.252,0.65-1.881,0.09c-0.668-0.594-0.812-1.416-0.116-1.961c0.442-0.344,1.229-0.25,1.862-0.355
			c0.134,0.125,0.268,0.25,0.403,0.373C303.259,50.229,303.376,50.982,303.066,51.453z M306.483,52.377
			c-0.244,0.254-1.185,0.25-1.399,0.002c-0.287-0.334-0.4-1.182-0.165-1.5c0.229-0.314,0.981-0.244,1.913-0.418
			C306.693,51.385,306.783,52.072,306.483,52.377z M309.654,52.66c-0.143,0.232-0.619,0.256-1.279,0.49
			c0.158-0.666,0.136-1.107,0.346-1.305c0.228-0.219,0.668-0.217,1.014-0.312C309.72,51.918,309.829,52.373,309.654,52.66z"/>
	</g>
	<g>
		<path style="fill:#FFFFFF;" d="M8.285,64.764c3.433,6.139,7.856,9.539,14.952,9.539c5.38,0,10.562-3.797,10.562-9.309
			c0-16.8-30.2-18.35-30.2-40.431c0-9.605,8.119-16.8,18.285-16.8c7.394,0,13.5,3.366,19.111,10.232l-7.129,5.742
			c-4.126-4.555-7.559-6.699-11.354-6.699c-4.456,0-8.582,2.442-8.582,7.954c0,13.863,30.432,17.526,30.432,38.749
			c0,11.717-8.12,20.069-21.322,20.069C11.882,83.81,4.324,78.098,0,69.549L8.285,64.764z"/>
		<path style="fill:#FFFFFF;" d="M91.028,83.81c-20.992,0-38.023-17.032-38.023-38.024c0-20.992,17.031-38.023,38.023-38.023
			c20.992,0,38.023,17.031,38.023,38.023C129.051,66.777,112.02,83.81,91.028,83.81z M63.567,45.786
			c0,15.447,12.279,27.988,27.461,27.988c15.183,0,27.461-12.541,27.461-27.988s-12.278-27.988-27.461-27.988
			C75.846,17.797,63.567,30.339,63.567,45.786z"/>
		<path style="fill:#FFFFFF;" d="M154.76,73.246h23.236v9.506h-33.798V8.818h10.562V73.246z"/>
		<path style="fill:#FFFFFF;" d="M215.093,20.239c-4.225-4.521-8.021-6.833-12.311-6.833c-5.579,0-10.892,3.136-10.892,10.364
			c0,16.405,32.048,20.068,32.048,41.027c0,11.09-7.492,19.013-19.638,19.013c-10.463,0-17.527-5.052-21.587-12.774l5.149-2.938
			c3.697,6.303,8.615,9.803,16.603,9.803c6.831,0,13.07-4.852,13.07-11.98c0-19.209-31.851-20.696-31.851-42.611
			c0-8.812,7.328-15.546,16.371-15.546c6.8,0,12.344,2.904,17.461,8.912L215.093,20.239z"/>
		<path style="fill:#FFFFFF;" d="M373.849,8.818h6.369v67.299c-6.865,4.688-15.744,7.692-24.259,7.692
			c-16.701,0-29.573-4.854-29.573-28.287V8.818h6.369v44.624c0,23.171,12.972,24.589,23.204,24.589
			c5.149,0,11.585-1.484,17.89-5.545V8.818z"/>
		<path style="fill:#FFFFFF;" d="M407.776,8.818v68.125h23.962v5.809H401.44V8.818H407.776z"/>
		<g>
			<path style="fill:#FFFFFF;" d="M431.684,9.438v7.247h-0.907V9.438h-2.018v-0.82h4.938v0.82H431.684z"/>
			<path style="fill:#FFFFFF;" d="M438.073,16.915l-2.247-5.715l-1.275,5.485h-0.93l1.951-8.297l2.501,6.323l2.502-6.323
				l1.959,8.297h-0.936l-1.275-5.485L438.073,16.915z"/>
		</g>
	</g>
</g>
</svg>
