<?xml version="1.0" encoding="iso-8859-1"?>
<!-- Generator: Adobe Illustrator 16.0.0, SVG Export Plug-In . SVG Version: 6.00 Build 0)  -->
<!DOCTYPE svg PUBLIC "-//W3C//DTD SVG 1.1//EN" "http://www.w3.org/Graphics/SVG/1.1/DTD/svg11.dtd">
<svg version="1.1" xmlns="http://www.w3.org/2000/svg" xmlns:xlink="http://www.w3.org/1999/xlink" x="0px" y="0px"
	 width="442.533px" height="139.469px" viewBox="0 0 442.533 139.469" style="enable-background:new 0 0 442.533 139.469;"
	 xml:space="preserve">
<g id="stingray">
	<g>
		<path style="fill:#FFFFFF;" d="M232.387,122.084c0.459,1.92,0.688,3.086,1.592,4.556c0.479,0.771,0.816,1.631,1.141,2.052
			c0.818,1.06,2.66,1.769,3.418,2.594c1.227-0.156,2.383,0.186,3.416-0.217c1.229-0.48,3.008-2.438,4.096-3.357
			c1.432-1.216,2.719-2.342,3.873-3.454c0.879-0.149,1.336-0.681,2.166-0.873c1.24,2.733,2.793,4.819,5.572,6.169
			c1.734,0.847,4.32,1.592,6.605,2.171c2.408,0.596,5.018,1.443,7.295,1.723c1.744,0.221,3.586,0.186,5.354,0.329
			c5.066,0.409,10.023,0.52,15.141,0.753c3.574,0.169,7.111,0.371,10.59,0.548c3.574,0.156,7.16,0.47,10.471,0.421
			c5.496-0.062,11.299-0.44,16.521,0.106c2.637,0.941,5.141,2.432,8.074,0.995c0.625-0.32,1.516-0.969,1.938-1.639
			c1.768-2.816,0.455-5.9-1.021-8.423c-1.24-2.105-3.143-3.96-4.213-6.506c-0.518-1.19-1-2.449-1.48-3.771
			c-0.9-2.517-1.707-5.067-2.383-8.124c-0.336-1.432-0.855-2.889-1.023-4.211c-0.107-0.719-0.406-3.268-0.131-4.225
			c0.156-0.531,1.215-1.113,1.949-1.615c1.576-1.11,2.467-1.905,3.863-3.252c1.312-1.248,2.357-2.252,2.502-4.532
			c0.037-0.585-0.121-1.258-0.121-1.841c0.012-0.727,0.266-1.39,0.242-1.948c-0.084-1.638-0.939-3.623-1.709-4.978
			c-0.604-1.053-1.865-1.697-2.059-2.918c-1.191-0.77-1.986-1.939-2.719-3.13c-1.564-1.612-3.441-1.666-6.391-2.167
			c-2.299-0.39-4.898-0.875-7.736-0.756c-0.881,0.029-1.807,0.5-2.734,0.316c-0.986-0.199-2.203-1.573-3.188-2.369
			c-3.152-2.54-6.066-4.646-9.338-7.026c-2.035-2.656-4.477-5.038-6.596-7.685c-0.688-0.851-1.322-1.781-2.057-2.596
			c-2.119-2.365-3.598-5.74-5.357-8.76c-0.564-1.004-1.348-1.865-1.803-2.816c-0.832-1.653-1.422-3.639-2.061-5.415
			c-1.611-4.436-3.188-9.12-5.246-13.396c-0.422-0.877-0.602-1.829-1.023-2.604c-0.42-0.771-1.553-1.66-2.395-2.696
			c-0.854-1.058-1.504-2.407-2.611-3.026c-1.238-0.703-3.791-1.371-5.127-0.871c-1.287,4.391-1.926,8.562-3.188,12.545
			c-0.629,1.949-1.361,3.869-2.047,5.837c-0.674,1.937-1.107,4.022-1.938,5.95c-0.482,1.107-1.297,2.18-1.938,3.357
			c-5.465,10.104-11.168,20.369-16.969,30.055c-2.6,4.363-5.078,8.887-6.15,14.724c-0.854,4.61-2.346,11.393,1.252,14.274
			c-0.553,0.758-1.455,0.426-2.502,0.539c-1.926,0.199-4.043,1.223-6.029,1.289c-1.875,0.074-5.668,0.014-5.691,2.172
			c-0.025,0.909,1.096,2.276,1.697,2.912c1.756,1.811,4.438,3.311,6.605,4.646c-0.973,0.535-1.779,1.125-2.842,1.51
			c-0.6,0.223-1.297,0.113-1.936,0.331c-0.387,0.134-0.602,0.547-1.021,0.765c-0.422,0.203-0.902,0.24-1.252,0.426
			c-1.361,0.734-2.877,1.759-4.791,2.384c-0.673,0.21-1.409,0.329-2.045,0.54c-0.638,0.211-1.048,0.561-1.71,0.875
			c-2.179,0.969-4.692,1.202-6.716,2.046c-0.636,0.259-1.011,0.878-1.601,1.19c-0.613,0.32-1.492,0.445-2.273,0.745
			c-7.605,3.016-16.055,5.867-23.912,8.552c-5.887,2.015-11.527,4.254-17.424,6.155c-0.435,0.15-0.855,0.317-1.303,0.481h0.012
			c0.158,0.511,0.268,1.028,0.363,1.547c3.537-1.351,7.1-2.703,10.721-3.972c8.702-3.027,17.98-6.048,26.646-9.412
			c1.444-0.547,3.079-0.925,4.561-1.504c1.504-0.584,3.008-1.217,4.439-1.517c0.615-0.125,1.229-0.143,1.818-0.331
			c0.758-0.222,1.238-0.745,1.936-1.071c0.711-0.354,1.7-0.521,2.625-0.864c1.649-0.614,3.296-1.119,5.235-1.728
			c0.854-0.264,1.758-0.742,2.491-0.873c0.709-0.109,1.311-0.02,1.938-0.218c0.602-0.198,1.057-0.727,1.602-0.968
			c2.203-0.998,4.824-1.324,6.834-2.381c0.145,1.004-0.879,1.232-1.131,2.057C231.459,118.564,231.992,120.395,232.387,122.084z"/>
		<g>
			<path style="fill:#FFFFFF;" d="M8.285,57.001c3.433,6.139,7.856,9.539,14.952,9.539c5.38,0,10.562-3.797,10.562-9.309
				c0-16.8-30.2-18.35-30.2-40.431C3.598,7.195,11.717,0,21.883,0c7.394,0,13.5,3.366,19.111,10.232l-7.129,5.742
				c-4.126-4.555-7.559-6.699-11.354-6.699c-4.456,0-8.582,2.442-8.582,7.954c0,13.863,30.432,17.526,30.432,38.749
				c0,11.717-8.12,20.069-21.322,20.069C11.882,76.047,4.324,70.335,0,61.786L8.285,57.001z"/>
			<path style="fill:#FFFFFF;" d="M91.028,76.047c-20.992,0-38.023-17.032-38.023-38.024C53.005,17.031,70.036,0,91.028,0
				c20.992,0,38.023,17.031,38.023,38.023C129.051,59.015,112.02,76.047,91.028,76.047z M63.567,38.023
				c0,15.447,12.279,27.988,27.461,27.988c15.183,0,27.461-12.541,27.461-27.988s-12.278-27.988-27.461-27.988
				C75.846,10.035,63.567,22.576,63.567,38.023z"/>
			<path style="fill:#FFFFFF;" d="M154.76,65.483h23.236v9.506h-33.798V1.056h10.562V65.483z"/>
			<path style="fill:#FFFFFF;" d="M215.093,12.476c-4.225-4.521-8.021-6.833-12.311-6.833c-5.579,0-10.892,3.136-10.892,10.364
				c0,16.405,32.049,20.068,32.049,41.027c0,11.09-7.492,19.013-19.638,19.013c-10.463,0-17.527-5.052-21.587-12.774l5.149-2.938
				c3.697,6.303,8.615,9.803,16.603,9.803c6.831,0,13.07-4.852,13.07-11.98c0-19.209-31.851-20.696-31.851-42.611
				C185.685,6.734,193.013,0,202.056,0c6.8,0,12.344,2.904,17.461,8.912L215.093,12.476z"/>
			<path style="fill:#FFFFFF;" d="M373.85,1.056h6.369v67.299c-6.865,4.688-15.744,7.692-24.26,7.692
				c-16.701,0-29.572-4.854-29.572-28.287V1.056h6.369V45.68c0,23.171,12.971,24.589,23.203,24.589
				c5.15,0,11.586-1.484,17.891-5.545V1.056z"/>
			<path style="fill:#FFFFFF;" d="M407.775,1.056v68.125h23.963v5.809h-30.299V1.056H407.775z"/>
			<path style="fill:#FFFFFF;" d="M309.82,38.023c0,20.992-16.998,38.024-37.957,38.024c-20.926,0-37.957-17.032-37.957-38.024
				C233.906,17.064,250.938,0,271.863,0C292.822,0,309.82,17.064,309.82,38.023z M240.309,38.023
				c0,17.625,14.094,32.048,31.555,32.048s31.586-14.424,31.586-32.048S289.355,5.974,271.863,5.974
				C254.402,5.974,240.309,20.398,240.309,38.023z"/>
			<g>
				<path style="fill:#FFFFFF;" d="M431.684,1.675v7.247h-0.906V1.675h-2.018v-0.82h4.938v0.82H431.684z"/>
				<path style="fill:#FFFFFF;" d="M438.072,9.152l-2.246-5.715l-1.275,5.485h-0.93l1.951-8.297l2.5,6.323l2.502-6.323l1.959,8.297
					h-0.936l-1.275-5.485L438.072,9.152z"/>
			</g>
		</g>
	</g>
</g>
<g id="Layer_1">
</g>
</svg>
