<?xml version="1.0" encoding="iso-8859-1"?>
<!-- Generator: Adobe Illustrator 16.0.0, SVG Export Plug-In . SVG Version: 6.00 Build 0)  -->
<!DOCTYPE svg PUBLIC "-//W3C//DTD SVG 1.1//EN" "http://www.w3.org/Graphics/SVG/1.1/DTD/svg11.dtd">
<svg version="1.1" id="Layer_1" xmlns="http://www.w3.org/2000/svg" xmlns:xlink="http://www.w3.org/1999/xlink" x="0px" y="0px"
	 width="288px" height="197.372px" viewBox="0 0 288 197.372" style="enable-background:new 0 0 288 197.372;" xml:space="preserve"
	>
<g>
	<path style="fill:#FFFFFF;" d="M158.45,157.353c0.084,0.166,0.182,0.317,0.293,0.447c-0.229-0.01-0.439-0.015-0.613-0.008
		c-0.096-0.066-0.189-0.106-0.281-0.134C158.057,157.565,158.256,157.463,158.45,157.353z M124.754,157.792
		c0.098-0.066,0.191-0.106,0.281-0.134c-0.207-0.093-0.406-0.196-0.6-0.306c-0.086,0.166-0.184,0.317-0.295,0.447
		C124.369,157.79,124.579,157.785,124.754,157.792z M161.834,153.067c0.225,0.307,0.338,0.672,0.377,1.062
		c0.051-0.044,0.104-0.091,0.154-0.132c0.105-0.083,0.209-0.176,0.311-0.273c-0.148-0.179-0.281-0.408-0.395-0.666
		C162.106,153.056,161.948,153.057,161.834,153.067z M159.836,157.66c0.061,0.084,0.146,0.166,0.25,0.247
		c0.127,0.013,0.252,0.025,0.387,0.041c0.955-0.696,1.871-2.425,1.738-3.819c-0.785,0.664-1.629,1.665-2.707,2.512
		C159.522,157.008,159.622,157.357,159.836,157.66z M159.504,156.641c1.078-0.847,1.922-1.848,2.707-2.512
		c-0.039-0.39-0.152-0.755-0.377-1.062C160.92,153.153,159.434,155.067,159.504,156.641z M160.299,158.055
		c0.059-0.034,0.115-0.064,0.174-0.106c-0.135-0.016-0.26-0.028-0.387-0.041C160.149,157.957,160.221,158.007,160.299,158.055z
		 M162.676,153.724c0.191-0.185,0.373-0.393,0.543-0.615c-0.371-0.029-0.682-0.046-0.938-0.051
		C162.395,153.315,162.528,153.545,162.676,153.724z M158.743,157.8c0.227,0.263,0.514,0.44,0.896,0.459
		c0.209,0.009,0.434-0.069,0.66-0.204c-0.078-0.048-0.15-0.098-0.213-0.147C159.575,157.854,159.125,157.816,158.743,157.8z
		 M127.438,158.19c0.88,0.018,1.652,0.059,2.331,0.101c-0.272-0.735-1.449-1.496-1.933-1.496c-0.531,0-1.548,0.083-2.127,0.665
		c-0.131,0.13-0.324,0.118-0.551,0.164c-0.002,0.028-0.008,0.055-0.006,0.084C125.828,157.991,126.58,158.175,127.438,158.19z
		 M123.047,157.66c0.214-0.304,0.314-0.653,0.331-1.021c-1.077-0.847-1.921-1.847-2.704-2.512c-0.135,1.395,0.782,3.125,1.736,3.821
		c0.135-0.016,0.26-0.028,0.387-0.041C122.9,157.827,122.986,157.744,123.047,157.66z M159.836,157.66
		c-0.215-0.303-0.314-0.652-0.332-1.02c-0.328,0.258-0.678,0.499-1.055,0.712c0.084,0.166,0.182,0.317,0.293,0.447
		c0.383,0.017,0.832,0.055,1.344,0.107C159.983,157.826,159.897,157.744,159.836,157.66z M61.105,155.065
		c-1.384,0.365-2.262,0.796-2.928,1.063c0.33,0.331,0.49,0.625,1.395,1.064c2.139,1.036,7.064,1.231,9.715,0.488
		c-0.229-0.862-0.607-2.062-0.902-2.853C66.377,154.482,63.011,154.561,61.105,155.065z M161.834,153.067
		c-0.264-0.359-1.797-0.267-2.33-0.467c-0.529-0.198-2.328,1.466-1.863,2.465c0.275,0.587,0.438,1.567,0.809,2.287
		c0.377-0.213,0.727-0.454,1.055-0.712C159.434,155.067,160.92,153.153,161.834,153.067z M157.731,157.708
		c0.039-0.017,0.08-0.033,0.117-0.05c-0.041-0.013-0.082-0.026-0.121-0.034C157.727,157.652,157.733,157.679,157.731,157.708z
		 M157.176,157.46c-0.58-0.582-1.596-0.665-2.129-0.665c-0.48,0-1.66,0.761-1.932,1.496c0.68-0.042,1.451-0.083,2.332-0.101
		c0.857-0.016,1.609-0.199,2.283-0.482c0.002-0.029-0.004-0.056-0.004-0.084C157.5,157.578,157.305,157.591,157.176,157.46z
		 M125.158,157.624c-0.039,0.008-0.081,0.021-0.123,0.034c0.039,0.017,0.078,0.033,0.117,0.05
		C125.15,157.679,125.156,157.652,125.158,157.624z M122.41,157.948c0.059,0.042,0.115,0.072,0.174,0.106
		c0.078-0.048,0.149-0.098,0.213-0.147C122.67,157.92,122.545,157.933,122.41,157.948z M164.526,149.149
		c0.043,0.004,0.09,0.007,0.133,0.01c-0.076-0.113-0.188-0.247-0.324-0.39c-0.125,0.132-0.23,0.252-0.32,0.362
		C164.167,149.13,164.334,149.135,164.526,149.149z M163.897,149.275c0.033-0.044,0.078-0.095,0.117-0.144
		c-0.867,0.013-1.162,0.322-1.662,1.128C163.079,149.948,163.639,149.619,163.897,149.275z M164.014,149.132
		c-0.039,0.049-0.084,0.1-0.117,0.144c-0.258,0.344-0.818,0.673-1.545,0.984c-0.078,0.126-0.16,0.261-0.252,0.411
		c-0.309,0.512-0.17,1.578,0.182,2.387c0.256,0.005,0.566,0.021,0.938,0.051c1.1-1.433,1.744-3.469,1.475-3.9
		c-0.008-0.015-0.025-0.033-0.035-0.049c-0.043-0.003-0.09-0.006-0.133-0.01C164.334,149.135,164.167,149.13,164.014,149.132z
		 M141.441,152.469c7.024,0,14.485-2.085,18.883-3.776h-37.766C126.958,150.384,134.42,152.469,141.441,152.469z M123.378,156.639
		c0.329,0.259,0.68,0.5,1.058,0.714c0.371-0.721,0.532-1.7,0.807-2.287c0.467-0.999-1.332-2.663-1.865-2.465
		c-0.529,0.2-2.062,0.107-2.326,0.467C121.962,153.153,123.448,155.066,123.378,156.639z M123.047,157.66
		c-0.061,0.084-0.146,0.167-0.25,0.247c0.511-0.053,0.961-0.091,1.344-0.107c0.111-0.13,0.209-0.281,0.295-0.447
		c-0.378-0.214-0.729-0.455-1.058-0.714C123.361,157.007,123.261,157.356,123.047,157.66z M122.584,158.055
		c0.226,0.135,0.45,0.213,0.66,0.204c0.383-0.019,0.67-0.196,0.896-0.459c-0.383,0.017-0.833,0.055-1.344,0.107
		C122.733,157.957,122.662,158.007,122.584,158.055z M120.52,153.997c0.051,0.041,0.104,0.087,0.154,0.13
		c0.037-0.389,0.152-0.753,0.377-1.06c-0.113-0.011-0.271-0.012-0.448-0.01c-0.112,0.258-0.245,0.487-0.393,0.666
		C120.311,153.821,120.414,153.914,120.52,153.997z M123.378,156.639c0.07-1.572-1.416-3.485-2.327-3.571
		c-0.225,0.307-0.34,0.671-0.377,1.06C121.457,154.792,122.301,155.792,123.378,156.639z M120.21,153.724
		c0.147-0.179,0.28-0.408,0.393-0.666c-0.255,0.005-0.566,0.021-0.937,0.051C119.836,153.331,120.019,153.539,120.21,153.724z
		 M118.869,149.132c0.041,0.049,0.086,0.1,0.119,0.144c0.256,0.343,0.816,0.672,1.543,0.983
		C120.032,149.454,119.737,149.146,118.869,149.132z M160.299,158.055c-0.227,0.135-0.451,0.213-0.66,0.204
		c-0.383-0.019-0.67-0.196-0.896-0.459c-0.229-0.01-0.439-0.015-0.613-0.008c0.123,0.084,0.25,0.208,0.377,0.398
		c0.486,0.725,0.959,5.059-0.398,6.201c1.252,0.524,4.928,1.399,8.916,2.381c4.053,1.001,7.537,2.53,8.715,2.663
		c0.656,0.072,1.186-0.335,1.605-0.993c-0.004-0.001-0.006-0.003-0.008-0.004c-1.863-0.734-4.59-7.12-0.664-6.123
		c0.275,0.07,1,0.32,1.936,0.691c0-0.177-0.006-0.338-0.018-0.482c-1.473-0.529-3.014-1.043-4.447-1.406
		C170.313,160.145,162.487,159.395,160.299,158.055z M158.108,157.792c0.006,0,0.016,0,0.021,0
		c-0.096-0.066-0.189-0.106-0.281-0.134c-0.037,0.017-0.078,0.033-0.117,0.05c-0.006,0.11-0.031,0.225-0.09,0.35
		c-0.531,1.132-3.326,1.862-4.256,1.73c-0.064-0.009-0.109-0.033-0.162-0.051c0.166,0.594,0.43,1.241,0.693,1.847
		c0.467,1.063,1.797,3.527,3.725,3.062c0.178-0.044,0.328-0.138,0.467-0.254c-0.189-0.079-0.326-0.15-0.398-0.213
		C156.647,163.246,157.262,157.825,158.108,157.792z M158.506,158.19c-0.127-0.19-0.254-0.314-0.377-0.398c-0.006,0-0.016,0-0.021,0
		c-0.846,0.033-1.461,5.454-0.398,6.387c0.072,0.062,0.209,0.134,0.398,0.213C159.465,163.249,158.993,158.915,158.506,158.19z
		 M182.858,174.491c-0.135,0.059-0.256,0.11-0.367,0.154c0.348,1.349,1.438,1.954,2.164,3.771c0.896,2.242,3.951,4.852,5.184,5.694
		c-0.174-0.564-0.438-1.048-0.527-1.437c-0.199-0.865,1.598-1.333,3.193,1.465c0.094,0.162,0.211,0.387,0.342,0.652
		c0.064-0.018,0.129-0.033,0.191-0.057c0.814-0.288,1.664-0.663,1.664-2.46c0-3.435-2.646-7.649-3.861-8.953
		c-0.139-0.006-0.289-0.015-0.465-0.029C188.78,173.16,183.922,174.025,182.858,174.491z M189.311,182.675
		c0.09,0.389,0.354,0.872,0.527,1.437c0.047,0.031,0.096,0.066,0.137,0.093c1.057,0.684,1.994,0.84,2.871,0.588
		c-0.131-0.266-0.248-0.49-0.342-0.652C190.909,181.342,189.112,181.81,189.311,182.675z M177.336,168.438
		c0.002,0.001,0.004,0.003,0.008,0.004c0.891-1.399,1.273-3.936,1.264-5.436c-0.936-0.371-1.66-0.621-1.936-0.691
		C172.747,161.318,175.473,167.704,177.336,168.438z M177.344,168.442c1.857,0.737,2.92,4.852,3.518,5.716
		c0.525,0.757,0.844,0.8,1.629,0.487c-0.1-0.378-0.143-0.812-0.098-1.353c0.199-2.46,2.928-2.062,5.854-0.931
		c0.924,0.355,1.33,0.066,2.195,0.6c0.102,0.062,0.238,0.188,0.398,0.36c1.131,0.048,1.127-0.212,0.535-1.16
		c-0.666-1.065-3.727-3.791-6.32-5.788c-1.742-1.34-4.539-2.609-6.447-3.367C178.618,164.507,178.235,167.043,177.344,168.442z
		 M190.442,172.962c-0.865-0.533-1.271-0.244-2.195-0.6c-2.926-1.131-5.654-1.529-5.854,0.931c-0.045,0.54-0.002,0.975,0.098,1.353
		c0.111-0.044,0.232-0.096,0.367-0.154c1.064-0.466,5.922-1.331,7.518-1.198c0.176,0.015,0.326,0.023,0.465,0.029
		C190.68,173.149,190.543,173.023,190.442,172.962z M189.975,184.204c-0.041-0.026-0.09-0.062-0.137-0.093
		c0.213,0.692,0.289,1.507-0.262,2.423c-1.594,2.659-0.531,7.318,0.268,9.247c0.797,1.928-0.199,1.928,1.33,0.932
		c0.732-0.466,2.928-3.126,3.26-5.521c0.283-2.031-0.861-4.918-1.588-6.399C191.969,185.044,191.032,184.888,189.975,184.204z
		 M157.641,158.058c0.059-0.125,0.084-0.239,0.09-0.35c-0.674,0.283-1.426,0.467-2.283,0.482c-0.881,0.018-1.652,0.059-2.332,0.101
		c-0.029,0.079-0.057,0.157-0.062,0.233c-0.029,0.344,0.043,0.764,0.17,1.213c0.053,0.018,0.098,0.042,0.162,0.051
		C154.315,159.92,157.11,159.189,157.641,158.058z M132.027,154.995c-1.264-2.327-4.791-1.328-5.655-0.397
		c-0.866,0.931,0.823,2.289-0.132,2.129c-0.327-0.054-1.053,0.291-1.082,0.897c0.227-0.046,0.42-0.034,0.551-0.164
		c0.579-0.582,1.596-0.665,2.127-0.665c0.483,0,1.66,0.761,1.933,1.496c0.377,0.024,0.722,0.048,1.044,0.067
		c0.098-0.066,0.211-0.124,0.35-0.168C132.227,157.858,133.291,157.325,132.027,154.995z M129.832,158.524
		c-0.006-0.076-0.035-0.154-0.063-0.233c-0.679-0.042-1.451-0.083-2.331-0.101c-0.857-0.016-1.609-0.199-2.285-0.482
		c0.008,0.109,0.031,0.225,0.09,0.35c0.529,1.132,3.326,1.862,4.258,1.73c0.063-0.009,0.108-0.033,0.16-0.051
		C129.787,159.288,129.861,158.868,129.832,158.524z M150.856,154.995c1.264-2.327,4.791-1.328,5.654-0.397
		c0.865,0.931-0.822,2.289,0.135,2.129c0.328-0.054,1.053,0.291,1.082,0.897c0.039,0.008,0.08,0.021,0.121,0.034
		c0.209-0.093,0.408-0.195,0.602-0.306c-0.371-0.72-0.533-1.7-0.809-2.287c-0.465-0.999,1.334-2.663,1.863-2.465
		c0.533,0.2,2.066,0.107,2.33,0.467c0.113-0.011,0.271-0.012,0.447-0.01c-0.352-0.809-0.49-1.875-0.182-2.387
		c0.092-0.15,0.174-0.285,0.252-0.411c-2.096,0.897-5.594,1.648-7.371,2.143c-2.395,0.665-7.25,1.797-9.516,1.797
		c-2.26,0-2.693-0.133-4.024-0.133c-1.33,0-1.762,0.133-4.025,0.133c-2.262,0-7.115-1.132-9.514-1.797
		c-1.777-0.494-5.276-1.245-7.371-2.144c0.078,0.126,0.16,0.262,0.252,0.412c0.31,0.512,0.171,1.578-0.181,2.387
		c0.177-0.002,0.335-0.001,0.448,0.01c0.264-0.359,1.797-0.267,2.326-0.467c0.533-0.198,2.332,1.466,1.865,2.465
		c-0.274,0.587-0.436,1.566-0.807,2.287c0.193,0.109,0.393,0.213,0.6,0.306c0.042-0.013,0.084-0.026,0.123-0.034
		c0.029-0.606,0.755-0.951,1.082-0.897c0.955,0.16-0.734-1.198,0.132-2.129c0.864-0.931,4.392-1.93,5.655,0.397
		c1.264,2.33,0.199,2.863-0.865,3.195c-0.139,0.044-0.252,0.102-0.35,0.168c1.422,0.09,2.335,0.106,2.945-0.301
		c-0.533,0.931,3.992,2.262,4.324,1.264c0.533,0.533,0.998,0.932,1.93,0.666c0.93-0.266,0.965-0.199,1.43-0.199
		c0.466,0,0.499-0.066,1.432,0.199c0.931,0.266,1.395-0.133,1.928-0.666c0.334,0.998,4.857-0.333,4.324-1.264
		c0.613,0.407,1.523,0.391,2.945,0.301c-0.098-0.066-0.211-0.124-0.35-0.168C150.659,157.858,149.592,157.325,150.856,154.995z
		 M153.053,158.524c0.006-0.076,0.033-0.154,0.062-0.233c-0.377,0.024-0.723,0.048-1.045,0.067c0.598,0.41,0.535,1.169,1.152,1.379
		C153.096,159.288,153.024,158.868,153.053,158.524z M155.047,156.795c0.533,0,1.549,0.083,2.129,0.665
		c0.129,0.131,0.324,0.118,0.551,0.164c-0.029-0.606-0.754-0.951-1.082-0.897c-0.957,0.16,0.73-1.198-0.135-2.129
		c-0.863-0.931-4.391-1.93-5.654,0.397c-1.264,2.33-0.197,2.863,0.865,3.195c0.139,0.044,0.252,0.102,0.35,0.168
		c0.322-0.02,0.668-0.043,1.045-0.067C153.387,157.556,154.567,156.795,155.047,156.795z M209.206,175.489
		c0.027,0.192,0.072,0.385,0.125,0.578c0.201-0.069,0.385-0.15,0.539-0.246c0.73-0.446,0.965-1.563,0.734-2.685
		c-0.117-0.044-0.23-0.083-0.334-0.11C209.004,172.694,209.004,174.158,209.206,175.489z M162.676,153.724
		c0.189,0.229,0.402,0.376,0.623,0.376c0.557,0,4.775,0.146,9.654,0.4c-3.957-0.681-7.676-1.225-9.734-1.392
		C163.049,153.331,162.868,153.539,162.676,153.724z M202.79,153.183c-0.42-0.02-0.779-0.036-1.035-0.047
		c-3.129-0.133-4.658,0.33-4.326,1.663c0.166,0.663,0.961,1.31,1.988,1.891c0.631-0.449,1.166-1.026,1.605-1.425
		C201.633,154.708,202.979,153.783,202.79,153.183z M188.858,150.334c-1.139,0.137-2.068,0.332-2.74,0.472
		c-1.596,0.333-0.332,4.393,0.4,4.459c0.396,0.036,1.148-0.099,2.014-0.107C189.01,154.108,189.131,151.732,188.858,150.334z
		 M186.518,155.265c-0.732-0.066-1.996-4.126-0.4-4.459c0.672-0.14,1.602-0.335,2.74-0.472c-0.092-0.472-0.227-0.838-0.41-0.993
		c-0.867-0.729-3.326-0.198-5.723,0.068c-2.375,0.265-12.926,0.135-18.066-0.25c0.01,0.016,0.027,0.034,0.035,0.049
		c0.27,0.432-0.375,2.468-1.475,3.9c2.059,0.167,5.777,0.711,9.734,1.392c3.258,0.17,6.812,0.389,9.768,0.646
		c2.865,0.252,4.064,0.983,5.389,0.52c0.164-0.058,0.303-0.246,0.422-0.508C187.667,155.166,186.915,155.301,186.518,155.265z
		 M197.428,154.799c-0.332-1.333,1.197-1.796,4.326-1.663c0.256,0.011,0.615,0.027,1.035,0.047
		c-0.037-0.118-0.129-0.226-0.305-0.314c-1.064-0.532-2.861-1.529-7.117-2.33c-2.568-0.479-4.783-0.411-6.51-0.204
		c0.273,1.398,0.152,3.774-0.326,4.823c0.734-0.008,1.549,0.073,2.312,0.438c1.66,0.799,4.988,2.13,7.184,1.729
		c0.508-0.092,0.969-0.337,1.389-0.636C198.389,156.108,197.594,155.462,197.428,154.799z M169.02,159.056
		c-3.16-0.365-6.32-0.857-8.547-1.107c-0.059,0.042-0.115,0.072-0.174,0.106c2.188,1.34,10.014,2.09,13.844,3.063
		c1.434,0.363,2.975,0.877,4.447,1.406c-0.014-0.158-0.031-0.298-0.057-0.408C178.202,160.654,173.61,159.589,169.02,159.056z
		 M221.78,155.065c-1.906-0.505-5.271-0.583-7.279-0.237c-0.295,0.792-0.674,1.991-0.902,2.854c2.65,0.743,7.576,0.548,9.711-0.488
		c0.906-0.439,1.066-0.733,1.396-1.064C224.042,155.861,223.161,155.431,221.78,155.065z M213.53,155.065c0,0-2.994,1.395-0.6,2.395
		c0.199,0.082,0.428,0.154,0.668,0.222c0.229-0.862,0.607-2.062,0.902-2.854C214.125,154.894,213.792,154.972,213.53,155.065z
		 M213.53,155.065c0.262-0.094,0.596-0.172,0.971-0.237c0.084-0.226,0.162-0.421,0.227-0.562c0.398-0.864,0-0.932-2.062-0.8
		c-1.783,0.116-7.211-0.155-9.875-0.283c0.189,0.601-1.156,1.525-1.768,2.082c-0.439,0.398-0.975,0.976-1.605,1.425
		c1.033,0.584,2.301,1.102,3.4,1.501c2.197,0.798,7.186,1.196,8.385,1.065c1.195-0.135,2.129,0,2.197-0.666
		c0.016-0.177,0.092-0.507,0.199-0.908c-0.24-0.067-0.469-0.14-0.668-0.222C210.536,156.46,213.53,155.065,213.53,155.065z
		 M195.897,169.235c-0.053,0.015-0.107,0.022-0.162,0.032c0.088,0.255,0.188,0.495,0.297,0.699c0.531,0.999,6.387,4.191,8.184,5.39
		c1.561,1.041,3.777,1.175,5.115,0.711c-0.053-0.193-0.098-0.386-0.125-0.578c-0.201-1.331-0.201-2.795,1.064-2.463
		c0.104,0.027,0.217,0.066,0.334,0.11c-0.148-0.714-0.48-1.43-1-1.974c-1.227-1.286-5.387-4.067-7.49-5.044
		c-0.162,0.028-0.33,0.048-0.494,0.057C200.422,166.241,197.362,168.837,195.897,169.235z M125.242,158.058
		c-0.059-0.125-0.082-0.24-0.09-0.35c-0.039-0.017-0.078-0.033-0.117-0.05c-0.09,0.027-0.184,0.067-0.281,0.134
		c0.008,0,0.016,0,0.023,0c0.845,0.033,1.463,5.454,0.398,6.387c-0.072,0.062-0.209,0.134-0.399,0.213
		c0.138,0.116,0.288,0.211,0.466,0.254c1.93,0.466,3.259-1.998,3.725-3.062c0.266-0.605,0.527-1.253,0.693-1.847
		c-0.052,0.018-0.097,0.042-0.16,0.051C128.568,159.92,125.771,159.189,125.242,158.058z M162.676,153.724
		c-0.102,0.098-0.205,0.19-0.311,0.273c-0.051,0.041-0.104,0.088-0.154,0.132c0.133,1.395-0.783,3.123-1.738,3.819
		c2.227,0.25,5.387,0.742,8.547,1.107c4.59,0.533,9.182,1.599,9.514,3.061c0.025,0.11,0.043,0.25,0.057,0.408
		c2.834,1.02,5.414,2.103,6.465,2.32c0.432,0.09,0.975-0.217,1.508-0.743c-0.172-0.063-0.344-0.128-0.51-0.188
		c-2.066-0.731-2.93-6.788,1.463-5.59c0.209,0.058,0.535,0.16,0.947,0.298c-0.07-0.2-0.156-0.394-0.281-0.563
		c-0.537-0.727-8.244-2.354-15.229-3.558c-4.879-0.255-9.098-0.4-9.654-0.4C163.079,154.1,162.866,153.953,162.676,153.724z
		 M209.87,175.821c-0.154,0.096-0.338,0.177-0.539,0.246c0.316,1.145,1.045,2.275,2.07,3.014c1.016,0.737,3.326,2.861,3.594,3.326
		c0.266,0.467,0.598,1.398,0.598,0.334c0-1.063,0.201-2.928-0.4-5.056c-0.555-1.977-3.07-3.968-4.588-4.549
		C210.834,174.258,210.6,175.375,209.87,175.821z M195.963,166.043c-0.686,0.95-0.572,2.234-0.229,3.225
		c0.055-0.01,0.109-0.018,0.162-0.032c1.465-0.398,4.525-2.994,5.723-3.06c0.164-0.009,0.332-0.028,0.494-0.057
		c-0.18-0.082-0.348-0.156-0.494-0.211C198.426,164.711,196.829,164.845,195.963,166.043z M186.053,163.913
		c0.166,0.061,0.338,0.125,0.51,0.188c1.277-1.262,2.477-3.822,1.9-5.48c-0.412-0.138-0.738-0.24-0.947-0.298
		C183.124,157.125,183.987,163.182,186.053,163.913z M186.563,164.102c1.934,0.721,4.031,1.71,5.01,2.872
		c1.025,1.218,2.729,2.554,4.162,2.294c-0.344-0.99-0.457-2.274,0.229-3.225c0.865-1.198,2.463-1.332,5.656-0.135
		c0.146,0.055,0.314,0.129,0.494,0.211c1.025-0.178,1.807-0.761-0.494-2.139c-2.34-1.406-10.137-4.35-13.156-5.359
		C189.04,160.279,187.84,162.84,186.563,164.102z M129.832,158.524c0.029,0.344-0.045,0.764-0.172,1.213
		c0.619-0.209,0.557-0.969,1.152-1.379c-0.322-0.02-0.667-0.043-1.044-0.067C129.797,158.37,129.826,158.448,129.832,158.524z
		 M69.354,155.065c-0.262-0.094-0.595-0.172-0.969-0.236c0.295,0.791,0.674,1.99,0.902,2.853c0.24-0.067,0.469-0.14,0.667-0.222
		C72.349,156.46,69.354,155.065,69.354,155.065z M85.456,154.799c0.332-1.333-1.198-1.796-4.325-1.663
		c-0.258,0.011-0.617,0.027-1.037,0.047c-0.188,0.601,1.158,1.525,1.77,2.082c0.439,0.398,0.974,0.976,1.604,1.425
		C84.495,156.109,85.291,155.462,85.456,154.799z M96.367,155.265c0.73-0.066,1.996-4.126,0.398-4.459
		c-0.672-0.14-1.601-0.335-2.739-0.472c-0.273,1.398-0.151,3.774,0.325,4.823C95.219,155.166,95.97,155.301,96.367,155.265z
		 M80.094,153.183c-2.666,0.128-8.092,0.399-9.874,0.283c-2.063-0.132-2.461-0.064-2.063,0.8c0.065,0.142,0.144,0.337,0.229,0.563
		c0.374,0.064,0.707,0.143,0.969,0.236c0,0,2.995,1.395,0.601,2.395c-0.198,0.082-0.427,0.154-0.667,0.222
		c0.107,0.401,0.182,0.731,0.199,0.908c0.068,0.666,0.999,0.531,2.195,0.666c1.197,0.131,6.189-0.268,8.383-1.065
		c1.102-0.399,2.369-0.916,3.402-1.501c-0.63-0.449-1.164-1.026-1.604-1.425C81.252,154.708,79.906,153.783,80.094,153.183z
		 M94.026,150.334c-1.728-0.207-3.941-0.275-6.509,0.204c-4.257,0.801-6.055,1.798-7.119,2.33c-0.176,0.089-0.268,0.196-0.305,0.314
		c0.42-0.02,0.779-0.036,1.037-0.047c3.127-0.133,4.657,0.33,4.325,1.663c-0.165,0.663-0.961,1.311-1.989,1.891
		c0.42,0.3,0.881,0.544,1.389,0.636c2.195,0.4,5.523-0.931,7.186-1.729c0.763-0.365,1.577-0.446,2.311-0.438
		C93.875,154.108,93.753,151.732,94.026,150.334z M72.281,173.137c-1.518,0.58-4.034,2.572-4.59,4.549
		c-0.6,2.128-0.398,3.992-0.398,5.056c0,1.064,0.331,0.133,0.597-0.334c0.267-0.465,2.577-2.589,3.593-3.326
		c1.026-0.738,1.756-1.87,2.07-3.014c-0.199-0.069-0.382-0.15-0.537-0.246C72.283,175.374,72.051,174.257,72.281,173.137z
		 M118.189,149.208c0.01-0.015,0.025-0.033,0.036-0.049c-5.139,0.385-15.69,0.515-18.067,0.25c-2.396-0.267-4.855-0.798-5.721-0.068
		c-0.184,0.155-0.318,0.521-0.411,0.993c1.139,0.137,2.067,0.332,2.739,0.472c1.598,0.333,0.332,4.393-0.398,4.459
		c-0.397,0.036-1.148-0.099-2.016-0.107c0.119,0.262,0.259,0.45,0.422,0.508c1.328,0.464,2.525-0.268,5.388-0.52
		c2.956-0.257,6.511-0.476,9.771-0.646c3.956-0.681,7.675-1.225,9.734-1.392C118.564,151.676,117.919,149.64,118.189,149.208z
		 M120.21,153.724c-0.191-0.185-0.374-0.393-0.544-0.615c-2.06,0.167-5.778,0.711-9.734,1.392c4.879-0.255,9.097-0.4,9.655-0.4
		C119.809,154.1,120.02,153.954,120.21,153.724z M72.613,173.026c-0.103,0.027-0.215,0.065-0.332,0.11
		c-0.23,1.12,0.002,2.237,0.734,2.685c0.155,0.096,0.338,0.177,0.537,0.246c0.053-0.193,0.098-0.386,0.127-0.578
		C73.879,174.158,73.879,172.694,72.613,173.026z M118.869,149.132c-0.09-0.11-0.195-0.23-0.318-0.362
		c-0.137,0.144-0.248,0.276-0.325,0.39c0.042-0.003,0.088-0.006,0.13-0.01C118.549,149.135,118.717,149.13,118.869,149.132z
		 M119.666,153.108c0.37-0.029,0.682-0.046,0.937-0.051c0.352-0.809,0.49-1.875,0.181-2.387c-0.092-0.15-0.174-0.286-0.252-0.412
		c-0.727-0.312-1.287-0.641-1.543-0.983c-0.033-0.044-0.078-0.095-0.119-0.144c-0.152-0.002-0.32,0.003-0.514,0.018
		c-0.042,0.004-0.088,0.007-0.13,0.01c-0.011,0.016-0.026,0.034-0.036,0.049C117.919,149.64,118.564,151.676,119.666,153.108z
		 M120.531,150.259c2.095,0.898,5.594,1.649,7.371,2.144c2.398,0.665,7.252,1.797,9.514,1.797c2.264,0,2.695-0.133,4.025-0.133
		c1.331,0,1.764,0.133,4.024,0.133c2.266,0,7.121-1.132,9.516-1.797c1.777-0.494,5.275-1.245,7.371-2.143
		c0.5-0.806,0.795-1.115,1.662-1.128c0.09-0.11,0.195-0.23,0.32-0.362c-0.025-0.026-0.051-0.052-0.076-0.077h-3.934
		c-4.398,1.691-11.859,3.776-18.883,3.776c-7.021,0-14.483-2.085-18.883-3.776h-3.932c-0.026,0.026-0.051,0.051-0.076,0.077
		c0.123,0.132,0.229,0.252,0.318,0.362C119.737,149.146,120.032,149.454,120.531,150.259z M90.379,184.14
		c-0.093,0.161-0.211,0.387-0.342,0.652c0.879,0.252,1.816,0.096,2.871-0.588c0.041-0.026,0.092-0.062,0.139-0.093
		c0.173-0.564,0.436-1.048,0.525-1.437C93.771,181.81,91.978,181.342,90.379,184.14z M92.508,173.293
		c-0.176,0.015-0.326,0.023-0.465,0.029c-1.213,1.304-3.86,5.519-3.86,8.953c0,1.797,0.849,2.172,1.663,2.46
		c0.063,0.023,0.128,0.039,0.191,0.057c0.131-0.266,0.249-0.491,0.342-0.652c1.599-2.798,3.393-2.33,3.193-1.465
		c-0.09,0.389-0.353,0.872-0.525,1.437c1.232-0.843,4.287-3.452,5.182-5.694c0.727-1.817,1.816-2.423,2.166-3.771
		c-0.113-0.045-0.234-0.097-0.369-0.155C98.961,174.025,94.106,173.16,92.508,173.293z M104.275,163.007
		c-1.907,0.758-4.703,2.027-6.445,3.367c-2.595,1.997-5.655,4.723-6.322,5.788c-0.59,0.947-0.596,1.208,0.535,1.16
		c0.159-0.173,0.297-0.299,0.398-0.36c0.865-0.533,1.272-0.244,2.195-0.6c2.928-1.131,5.654-1.529,5.855,0.931
		c0.043,0.54,0,0.975-0.098,1.354c0.783,0.312,1.103,0.269,1.629-0.488c0.596-0.864,1.658-4.979,3.518-5.716
		C104.65,167.043,104.268,164.507,104.275,163.007z M81.264,166.176c-0.164-0.009-0.332-0.027-0.494-0.057
		c-2.104,0.977-6.264,3.758-7.488,5.044c-0.518,0.544-0.852,1.26-1,1.974c0.117-0.045,0.229-0.083,0.332-0.11
		c1.266-0.332,1.266,1.132,1.066,2.463c-0.029,0.192-0.074,0.385-0.127,0.578c1.338,0.464,3.553,0.33,5.116-0.711
		c1.796-1.198,7.651-4.391,8.185-5.39c0.109-0.204,0.209-0.444,0.297-0.699c-0.055-0.01-0.11-0.018-0.164-0.032
		C85.523,168.837,82.461,166.241,81.264,166.176z M106.212,162.315c-0.276,0.07-1.001,0.32-1.937,0.691
		c-0.008,1.5,0.375,4.036,1.266,5.436c0.002-0.001,0.004-0.003,0.008-0.004C107.41,167.704,110.139,161.318,106.212,162.315z
		 M124.777,157.792c-0.008,0-0.016,0-0.023,0c-0.123,0.084-0.25,0.208-0.378,0.398c-0.481,0.725-0.959,5.059,0.4,6.201
		c0.19-0.079,0.327-0.15,0.399-0.213C126.24,163.246,125.622,157.825,124.777,157.792z M124.376,158.19
		c0.128-0.19,0.255-0.314,0.378-0.398c-0.175-0.007-0.385-0.002-0.613,0.008c-0.227,0.263-0.514,0.44-0.896,0.459
		c-0.21,0.009-0.435-0.069-0.66-0.204c-2.186,1.34-10.013,2.09-13.843,3.063c-1.434,0.363-2.974,0.877-4.446,1.406
		c-0.012,0.145-0.019,0.306-0.02,0.482c0.936-0.371,1.66-0.621,1.937-0.691c3.927-0.997,1.198,5.389-0.663,6.123
		c-0.004,0.001-0.006,0.003-0.008,0.004c0.418,0.658,0.948,1.065,1.604,0.993c1.178-0.133,4.664-1.662,8.717-2.663
		c3.986-0.981,7.662-1.856,8.915-2.381C123.417,163.249,123.895,158.915,124.376,158.19z M100.492,173.293
		c-0.201-2.46-2.928-2.062-5.855-0.931c-0.923,0.355-1.33,0.066-2.195,0.6c-0.102,0.062-0.239,0.188-0.398,0.36
		c0.139-0.006,0.289-0.015,0.465-0.029c1.599-0.133,6.453,0.732,7.518,1.198c0.135,0.059,0.256,0.11,0.369,0.155
		C100.492,174.268,100.535,173.833,100.492,173.293z M94.42,158.621c-3.02,1.01-10.816,3.953-13.156,5.359
		c-2.299,1.378-1.52,1.961-0.494,2.139c0.179-0.082,0.348-0.156,0.494-0.211c3.193-1.197,4.791-1.063,5.654,0.135
		c0.689,0.951,0.574,2.234,0.232,3.225c1.432,0.259,3.135-1.076,4.158-2.294c0.98-1.162,3.079-2.151,5.013-2.872
		C95.043,162.84,93.844,160.279,94.42,158.621z M86.918,166.043c-0.863-1.198-2.461-1.332-5.654-0.135
		c-0.146,0.055-0.315,0.129-0.494,0.211c0.162,0.029,0.33,0.048,0.494,0.057c1.197,0.065,4.26,2.661,5.723,3.06
		c0.054,0.015,0.109,0.022,0.164,0.032C87.492,168.277,87.607,166.994,86.918,166.043z M95.368,158.323
		c-0.208,0.058-0.534,0.16-0.948,0.298c-0.576,1.658,0.623,4.219,1.901,5.48c0.171-0.063,0.343-0.129,0.511-0.188
		C98.896,163.182,99.76,157.125,95.368,158.323z M122.584,158.055c-0.059-0.034-0.115-0.064-0.174-0.106
		c-2.227,0.25-5.387,0.742-8.547,1.107c-4.59,0.533-9.182,1.599-9.514,3.061c-0.024,0.11-0.043,0.25-0.055,0.408
		c1.473-0.529,3.013-1.043,4.446-1.406C112.571,160.145,120.398,159.395,122.584,158.055z M113.863,159.056
		c3.16-0.365,6.32-0.857,8.547-1.107c-0.954-0.696-1.871-2.427-1.736-3.821c-0.051-0.043-0.104-0.089-0.154-0.13
		c-0.105-0.083-0.209-0.176-0.31-0.273c-0.19,0.23-0.401,0.376-0.623,0.376c-0.559,0-4.776,0.146-9.655,0.4
		c-6.986,1.203-14.693,2.831-15.229,3.558c-0.126,0.17-0.213,0.363-0.283,0.563c0.414-0.138,0.74-0.24,0.948-0.298
		c4.392-1.198,3.527,4.858,1.464,5.59c-0.168,0.06-0.34,0.125-0.511,0.188c0.532,0.526,1.077,0.833,1.509,0.743
		c1.052-0.218,3.631-1.302,6.465-2.32c0.012-0.158,0.03-0.298,0.055-0.408C104.682,160.654,109.273,159.589,113.863,159.056z
		 M90.037,184.792c-0.726,1.481-1.871,4.368-1.588,6.399c0.332,2.396,2.529,5.056,3.262,5.521c1.527,0.996,0.53,0.996,1.33-0.932
		c0.797-1.929,1.862-6.588,0.266-9.247c-0.55-0.916-0.473-1.73-0.26-2.423c-0.047,0.031-0.098,0.066-0.139,0.093
		C91.854,184.888,90.916,185.044,90.037,184.792z"/>
	<path style="fill:#FFFFFF;" d="M152.448,44.491c0.314,0.153,0.734,0.402,1.191,0.54c-0.385,0.076-0.781,0.106-1.061,0.088
		C151.641,45.059,151.973,44.841,152.448,44.491z M186.518,74.973c-0.031,0.323-0.094,0.632-0.182,0.929
		c0.289,0.052,0.588,0.082,0.912,0.069c3.26-0.134,16.312-2.541,21.357-14.238c2.195-5.088,0.898-7.685-0.6-10.579
		c-0.305-0.589-0.982-0.835-1.818-0.974c-0.387,0.765-1.055,1.239-2.375,2.057c-2.123,1.32-4.822,1.272-7.26,0.613
		c-2.086-0.567-6.676-4.062-8.932-5.693c-0.908,0.186-1.879,1.41-2.469,3.4c-0.623,2.099,0.328,4.981,0.354,7.146
		c1.049,0.087,2.004,0.24,2.74,0.437C190.975,58.872,186.983,70.116,186.518,74.973z M203.813,52.237
		c1.32-0.818,1.988-1.292,2.375-2.057c-1.883-0.312-4.578-0.071-5.666-1.92c-0.998-1.696-5.289-0.598-7.586-0.098
		c-2.297,0.498-3.291,0-4.391-0.8c-0.287-0.209-0.602-0.271-0.924-0.205c2.256,1.631,6.846,5.126,8.932,5.693
		C198.991,53.509,201.69,53.557,203.813,52.237z M185.254,59.338c-0.9,2.096-2.496,7.184-2.598,11.176
		c-0.049,1.979,1.074,4.918,3.68,5.388c0.088-0.297,0.15-0.606,0.182-0.929c0.465-4.856,4.457-16.101,1.729-16.833
		c-0.736-0.197-1.691-0.35-2.74-0.437C185.514,58.316,185.452,58.875,185.254,59.338z M178.999,61.267c-0.465,1-0.465,3.327,0,3.725
		c0.467,0.4,1.264-0.198,1.531,0.601c0.266,0.798,0.998,2.13,0.465,3.592c-0.533,1.464-3.26,5.256-4.256,6.986
		c-0.842,1.455-3.465,4.131-5.189,6.252c1.018,0.258,2.385,0.219,3.99-0.063c3.168-0.561,9.58-2.28,10.797-6.457
		c-2.605-0.47-3.729-3.409-3.68-5.388c0.102-3.992,1.697-9.08,2.598-11.176c0.197-0.463,0.26-1.022,0.252-1.635
		c-2.451-0.206-5.438-0.049-7.521,0.75c0.006,0.005,0.012,0.016,0.016,0.021C178.333,58.737,179.465,60.27,178.999,61.267z
		 M169.618,80.362c0.1,1.117,0.799,1.773,1.932,2.06c1.725-2.121,4.348-4.797,5.189-6.252c0.996-1.729,3.723-5.521,4.256-6.986
		c0.533-1.461-0.199-2.793-0.465-3.592c-0.268-0.798-1.064-0.201-1.531-0.601c-0.465-0.397-0.465-2.725,0-3.725
		c0.467-0.997-0.666-2.53-0.998-2.793c-0.004-0.005-0.01-0.016-0.016-0.021c-0.326,0.125-0.639,0.262-0.914,0.419
		C174.276,60.47,168.887,72.11,169.618,80.362z M188.545,47.361c1.1,0.8,2.094,1.298,4.391,0.8c2.297-0.5,6.588-1.598,7.586,0.098
		c1.088,1.849,3.783,1.608,5.666,1.92c0.301-0.594,0.43-1.364,0.561-2.607c0.52-4.926-0.359-15.175-14.76-27.653
		c-8.701-7.539-12.838-9.742-14.98-10.145c0.109,0.133,0.225,0.255,0.33,0.392c1.098,0.212,2.182,1.521,1.965,3.018
		c-0.219,1.493-3.377,6.946-6.592,8.804c-3.215,1.859-8.982-0.206-8.445-3.192c-0.998-0.01-3.068-2.333-2.455-3.521
		c-0.424-0.166-0.785-0.502-1.031-0.899c-0.557,0.117-1.045,0.329-1.363,0.492c-0.49-1.572-3.939-2.476-4.275-1.357
		c-0.682,0.337-1.035,1.159-1.766,0.601c-0.732-0.561-1.879-1.395-3.045-0.828c-0.777-1.356-2.641-0.75-3.109-0.225
		c-3.06-1.026-5.264-2.899-6.835-2.412c-1.573,0.489-0.147,2.708,0.641,4.263c0.788,1.554,9.91,12.632,21.201,19.592
		c11.291,6.954,22.914,10.997,24.471,12.007c0.225,0.146,0.545,0.373,0.924,0.647C187.944,47.091,188.258,47.152,188.545,47.361z
		 M164.493,88.1c0.295,0.161,0.75,0.321,1.322,0.475c1.396-1.322,3.16-2.938,4.291-4.282c-2.354,0.102-4.369,0.231-5.248,0.401
		C162.409,85.165,163.004,87.276,164.493,88.1z M189.057,88.2c1.998-0.164,4.977-0.588,7.41-1.527
		c3.234-1.249,4.797-2.886,4.729-3.913c-0.842,0.503-1.574,0.86-2.086,0.97c-1.787,0.388-0.553-2.845-0.553-2.845
		c0.018-0.141,0.125-0.402,0.291-0.737c-0.568-0.34-1.172-0.567-1.729-0.55c-1.236,0.038-5.547,2.392-8.164,3.916
		C189.307,84.176,189.36,86.926,189.057,88.2z M199.11,83.73c0.512-0.11,1.244-0.467,2.086-0.97
		c-0.006-0.102-0.023-0.199-0.062-0.287c-0.279-0.643-1.221-1.687-2.285-2.325c-0.166,0.334-0.273,0.596-0.291,0.737
		C198.557,80.885,197.323,84.118,199.11,83.73z M161.811,15.275c-0.613,1.188,1.457,3.511,2.455,3.521
		c-0.537,2.987,5.23,5.051,8.445,3.192c3.215-1.858,6.373-7.311,6.592-8.804c0.217-1.496-0.867-2.806-1.965-3.018
		c-0.105-0.137-0.221-0.258-0.33-0.392c-1.402-0.264-1.951,0.241-2.357,0.532c-7.59,5.429-9.609,5.042-10.904,5.116
		c-0.828-1.16-2-1.25-2.967-1.046C161.026,14.773,161.387,15.109,161.811,15.275z M211.118,71.39c0.141-0.085,0.268-0.182,0.4-0.273
		c-0.004-0.024-0.006-0.052-0.012-0.072c-0.174-0.576-1.002-1.925-1.801-2.412c0,0.26,0.006,0.47,0.018,0.603
		C209.924,71.491,206.737,74.05,211.118,71.39z M163.747,15.422c1.295-0.074,3.314,0.313,10.904-5.116
		c0.406-0.291,0.955-0.795,2.357-0.532c-6.041-7.423-16.234-9.487-22.703-9.759c-6.584-0.276-13.809,3.132-15.924,4.705
		c-2.113,1.573-1.426,2.578,1.069,2.408c2.497-0.17,10.988-0.871,12.88-0.249c1.885,0.621,4.275,1.248,5.453,3.058
		c1.174,1.81,2.662,2.526,2.654,3.325c-0.004,0.373,0.125,0.766,0.342,1.113C161.747,14.173,162.918,14.262,163.747,15.422z
		 M165.815,88.575c2.324,0.629,6.623,1.174,10.32,1.439c4.602,0.325,11.625-0.685,12.609-1.18c0.129-0.065,0.232-0.301,0.312-0.634
		c-0.922,0.076-1.635,0.096-1.992,0.085c-1.133-0.031-0.957-3.033,0.152-3.731c0.357-0.225,0.98-0.6,1.738-1.04
		c-0.014-0.024-0.025-0.057-0.039-0.075c-0.486-0.651-0.875-0.875-2.213-0.467c-1.449,0.443-2.904,0.818-4.963,0.948
		c-1.354,0.084-7.117,0.178-11.635,0.374C168.975,85.637,167.211,87.253,165.815,88.575z M187.065,88.285
		c0.357,0.011,1.07-0.01,1.992-0.085c0.303-1.273,0.25-4.023-0.102-4.686c-0.758,0.44-1.381,0.815-1.738,1.04
		C186.108,85.252,185.932,88.254,187.065,88.285z M201.133,82.473c0.039,0.088,0.057,0.186,0.062,0.287
		c2.096-1.251,4.887-3.434,6.781-5.153c2.584-2.344,3.688-5.646,3.541-6.489c-0.133,0.091-0.26,0.188-0.4,0.273
		c-4.381,2.66-1.193,0.101-1.395-2.155c-0.012-0.132-0.018-0.342-0.018-0.603c-0.207-0.126-0.412-0.198-0.605-0.178
		c-0.928,0.095-2.666,2.077-4.93,4.275c-1.895,1.841-4.471,5.7-5.322,7.418C199.913,80.786,200.854,81.83,201.133,82.473z
		 M93.598,51.739c1.428-1.373,2.338-2.116,3.783-2.796c-1.227-0.86-1.525-0.013-2.05,0.807c-0.601,0.94-2.589,1.736-5.625,1.015
		c-3.034-0.72-5.724-0.901-7.638,0.102c-0.541,0.284-1.165,0.684-1.784,1.203c0.091,0.079,0.176,0.162,0.274,0.236
		C83.319,54.361,91.621,53.635,93.598,51.739z M100.563,62.04c-0.526-1.265-0.663-2.788-0.665-4.055
		c-1.598,0.279-3.077,1.092-4.065,2.251c-2.294,2.695-0.397,11.976-0.099,14.471c0.058,0.482,0.275,1.037,0.615,1.625
		c0.682,0.065,1.375,0.116,2.101,0.137C101.201,76.544,101.526,64.348,100.563,62.04z M150.588,44.568
		c0.379-0.509,0.705-1.185,0.916-1.466c0.576-0.766,1.166-1.25,1.879-1.86c0.635-0.542,1.361-1.044,1.932-1.66
		c0.752-0.812,0.754-1.19,0.996-2.2c0,0-0.703,0.716-1.664,1.796c-0.756,0.851-2.059,1.812-2.66,2.329
		c-0.475,0.408-2.119,2.132-2.523,3.054C149.735,44.6,150.145,44.599,150.588,44.568z M101.889,69.184
		c-0.533-1.461,0.199-2.793,0.465-3.592s1.065-0.201,1.531-0.601c0.465-0.397,0.465-2.725,0-3.725
		c-0.354-0.756,0.211-1.819,0.65-2.405c-1.436-0.908-3.09-1.147-4.637-0.877c0.002,1.267,0.139,2.79,0.665,4.055
		c0.963,2.308,0.638,14.505-2.113,14.429c-0.726-0.021-1.419-0.072-2.101-0.137c1.418,2.45,5.006,5.493,8.467,6.458
		c2.287,0.639,4.635,0.291,6.465-0.432c-1.725-2.11-4.305-4.748-5.135-6.188C105.149,74.44,102.422,70.648,101.889,69.184z
		 M114.497,79.994c1.396-2.793,2.195-2.793-3.493-8.48c-5.688-5.691-2.596-8.583-4.99-11.378c-0.451-0.526-0.951-0.939-1.479-1.274
		c-0.439,0.585-1.004,1.648-0.65,2.405c0.465,1,0.465,3.327,0,3.725c-0.466,0.4-1.266-0.198-1.531,0.601s-0.998,2.13-0.465,3.592
		c0.533,1.464,3.261,5.256,4.258,6.986c0.83,1.44,3.41,4.078,5.135,6.188C112.885,81.724,114.092,80.804,114.497,79.994z
		 M73.159,69.235c0.012-0.132,0.019-0.341,0.018-0.602c-0.799,0.488-1.626,1.835-1.802,2.411c-0.006,0.02-0.007,0.048-0.011,0.071
		c0.134,0.092,0.259,0.188,0.4,0.274C76.145,74.05,72.959,71.491,73.159,69.235z M73.177,68.634
		c-0.005-1.969-0.438-7.159-2.327-8.922c-2.138-1.994-2.182-2.727-2.428-3.399c-0.244-0.674-1.295,3.29-1.352,5.152
		c-0.055,1.802,0.302,6.91,4.294,9.652c0.004-0.023,0.005-0.052,0.011-0.071C71.551,70.469,72.378,69.122,73.177,68.634z
		 M95.833,60.236c0.988-1.159,2.468-1.972,4.065-2.251c-0.002-1.047,0.089-1.919,0.131-2.324c0.094-0.895-0.314-4.651-2.055-6.235
		c-0.221-0.201-0.417-0.36-0.594-0.484c-1.445,0.681-2.355,1.423-3.783,2.796c-1.977,1.896-10.278,2.622-13.039,0.567
		c-0.099-0.074-0.184-0.157-0.274-0.236c-1.569,1.315-3.103,3.418-3.138,6.508c-0.049,4.125,4.028,16.304,19.203,17.753
		c-0.34-0.588-0.558-1.142-0.615-1.625C95.436,72.211,93.539,62.931,95.833,60.236z M133.42,44.562
		c-0.405-0.922-2.049-2.646-2.524-3.054c-0.601-0.518-1.904-1.479-2.661-2.329c-0.959-1.08-1.664-1.796-1.664-1.796
		c0.244,1.01,0.247,1.387,0.996,2.2c0.57,0.615,1.298,1.117,1.934,1.66c0.715,0.611,1.303,1.095,1.879,1.86
		c0.211,0.281,0.537,0.958,0.916,1.466C132.738,44.599,133.146,44.6,133.42,44.562z M133.424,45.1
		c0.13-0.086,0.107-0.283-0.004-0.538c-0.273,0.039-0.682,0.037-1.125,0.006C132.644,45.034,133.035,45.359,133.424,45.1z
		 M149.459,45.1c0.389,0.259,0.781-0.065,1.129-0.532c-0.443,0.031-0.854,0.032-1.125-0.006
		C149.352,44.816,149.329,45.013,149.459,45.1z M106.807,26.522c2.738,1.452,7.27,1.785,8.213,0.364
		c0.123-0.187,0.26-0.404,0.406-0.639c-0.682-0.188-2.134-0.272-3.016-0.478c-0.974-0.225-4.434-4.302-5.796-4.619
		c-0.291-0.067-0.728-0.211-1.323-0.321C104.244,22.28,104.332,25.208,106.807,26.522z M89.706,50.765
		c3.036,0.721,5.024-0.075,5.625-1.015c0.524-0.82,0.823-1.667,2.05-0.807c0.555-0.262,1.188-0.515,1.963-0.791
		c2.79-0.993,7.43-3.597,10.291-6.84c2.775-3.146,5.319-5.734,7.094-6.758c1.771-1.023,8.373-2.979,10.818-4.257
		c2.447-1.277,6.599-3.614,7.234-5.599c0.369-1.145-2.766,0.231-3.709,0.32c-0.941,0.088-1.316-0.511-1.937-0.039
		c-0.823,0.015-1.118,0.407-2.137,0.377c-1.016-0.031-1.596,0.039-1.88,0.384c-0.285,0.342-1.553,0.511-1.973,0.108
		c-0.418-0.405-0.852,0.044-1.656,0.076c-1.137,0.045-1.623-0.067-1.93,0.373c0.068-0.291-1.413-0.531-1.789,0.203
		c-0.373,0.731-0.454,0.202-0.77,0.229c-0.314,0.032-0.828-0.19-1.387-0.422c-0.052-0.021-0.121-0.04-0.189-0.059
		c-0.146,0.235-0.283,0.452-0.406,0.639c-0.943,1.421-5.475,1.088-8.213-0.364c-2.475-1.314-2.562-4.242-1.516-5.692
		c-2.187-0.401-6.523-0.325-13.741,5.816C82.365,34.457,81,38.888,79.735,42.588c-1.124,3.284-1.903,7.332,0.549,9.482
		c0.619-0.52,1.243-0.919,1.784-1.203C83.982,49.863,86.672,50.045,89.706,50.765z M130.303,45.119
		c0.938-0.06,0.607-0.277,0.133-0.627c-0.315,0.153-0.734,0.402-1.191,0.539C129.629,45.106,130.025,45.137,130.303,45.119z
		 M112.41,25.77c0.882,0.206,2.334,0.29,3.016,0.478c0.964-1.551,2.361-3.923,3.576-4.177c1.398-0.291,2.49-0.142,2.844-0.777
		c0.352-0.635,0.983-0.489,1.393-0.496c0.414-0.008,2.772-0.689,4.808-0.629c1.411,0.042,5.575,0.352,6.455,0.878
		c1.262,0.754,3.071,1.504,2.394-0.163c-1.238-3.053-5.12-4.874-9.22-5.309c-4.098-0.436-15.746-0.57-22.017,4.842
		c-0.137,0.117-0.256,0.259-0.367,0.413c0.596,0.109,1.032,0.253,1.323,0.321C107.977,21.468,111.437,25.545,112.41,25.77z
		 M162.432,89.078c-0.479,0.222-1.045,0.464-1.684,0.717h3.334C163.557,89.32,162.856,88.88,162.432,89.078z M211.506,71.045
		c0.006,0.02,0.008,0.048,0.012,0.072c3.992-2.743,4.35-7.851,4.295-9.653c-0.057-1.862-1.107-5.826-1.354-5.152
		c-0.246,0.673-0.289,1.406-2.428,3.399c-1.885,1.764-2.32,6.951-2.326,8.921C210.504,69.12,211.333,70.469,211.506,71.045z
		 M130.25,44.352c-0.605-0.47-1.009-1.143-1.885-0.853c-0.664,0.221-0.636,0.769-0.132,1.15c0.23,0.176,0.614,0.302,1.011,0.38
		c0.457-0.137,0.876-0.386,1.191-0.539C130.375,44.447,130.312,44.401,130.25,44.352z M154.651,44.65
		c0.502-0.381,0.529-0.929-0.131-1.15c-0.879-0.291-1.283,0.382-1.889,0.853c-0.062,0.048-0.125,0.095-0.184,0.139
		c0.314,0.153,0.734,0.402,1.191,0.54C154.034,44.952,154.418,44.826,154.651,44.65z M84.035,80.147
		c-0.854-1.719-3.428-5.577-5.323-7.418c-2.262-2.198-3.999-4.18-4.928-4.275c-0.192-0.02-0.399,0.052-0.607,0.179
		c0.001,0.26-0.006,0.469-0.018,0.602c-0.2,2.256,2.985,4.814-1.395,2.155c-0.142-0.085-0.267-0.182-0.4-0.274
		c-0.147,0.843,0.954,4.146,3.541,6.49c1.895,1.72,4.686,3.9,6.781,5.152c0.007-0.101,0.024-0.198,0.062-0.286
		C82.028,81.829,82.971,80.785,84.035,80.147z M120.451,89.078c-0.424-0.197-1.124,0.243-1.65,0.717h3.334
		C121.496,89.542,120.93,89.3,120.451,89.078z M164.333,90.035c0.025-0.026,0.045-0.05,0.07-0.077h-0.146
		C164.284,89.984,164.307,90.009,164.333,90.035z M120.451,89.078c0.479,0.222,1.045,0.464,1.684,0.717h38.614
		c0.639-0.253,1.205-0.495,1.684-0.717c0.424-0.197,1.125,0.243,1.65,0.717h0.479c0.35-0.358,0.777-0.771,1.254-1.22
		c-0.572-0.154-1.027-0.314-1.322-0.475c-1.488-0.823-2.084-2.935,0.365-3.405c0.879-0.17,2.895-0.3,5.248-0.401
		c0.215-0.257,0.414-0.505,0.576-0.738c0.242-0.349,0.541-0.732,0.867-1.133c-1.133-0.287-1.832-0.942-1.932-2.06
		c-0.73-8.252,4.658-19.893,7.453-21.49c0.275-0.158,0.588-0.294,0.914-0.419c-0.328-0.308-0.723-1.983-0.982-2.442
		c-0.264-0.467-0.932-0.533-2.262-0.065c0.332-0.267-0.199-0.866-0.266-1.73c-0.055-0.688-1.541-1.97-2.584-2.764
		c-0.264-0.203-0.783,0.124-0.959,0.001c-0.102-0.068,0.07-0.637-0.047-0.703c-0.904-0.512-2.254-0.942-2.664-1.058
		c-0.467-0.133-1.729-1.465-2.529-1.133c-0.797,0.334-1.115,0.732-1.047,0.2c0.066-0.531-0.816-1.661-1.348-1.661
		c-0.533,0-2.529-1.197-3.125-1.532c-0.604-0.332-0.668-0.066-1.199,0.533c-0.533,0.599-0.865,0.066-1.131-0.065
		c-0.268-0.133-0.119-0.632-0.385-1.165s-1.744-0.234-2.744,0.166c-0.354,0.141-0.723,0.103-1.074-0.003
		c-0.385,0.076-0.781,0.106-1.061,0.088c-0.938-0.06-0.605-0.278-0.131-0.628c-0.127-0.061-0.242-0.111-0.328-0.124
		c-0.465-0.065-0.6,0.133-1.531,0.201l0,0c-0.348,0.466-0.74,0.791-1.129,0.532c-0.131-0.086-0.107-0.283,0.004-0.538
		c-0.299-0.043-0.432-0.134-0.238-0.293c0.551-0.449-0.432-0.833-0.965-0.765c-0.529,0.065-0.914-0.234-1.381-0.434
		c-0.465-0.2-3.376-1.098-4.042-1.098c-0.664,0-1.064,1.498-1.397,1.498c-0.332,0-0.729-1.498-1.396-1.498s-3.578,0.898-4.042,1.098
		c-0.466,0.2-0.85,0.499-1.381,0.434c-0.532-0.068-1.515,0.316-0.964,0.765c0.193,0.159,0.062,0.25-0.238,0.293
		c0.111,0.255,0.134,0.452,0.004,0.538c-0.389,0.259-0.78-0.065-1.129-0.532h-0.002c-0.93-0.068-1.062-0.267-1.529-0.201
		c-0.086,0.013-0.201,0.063-0.328,0.125c0.475,0.351,0.806,0.568-0.133,0.627c-0.277,0.018-0.674-0.013-1.059-0.088
		c-0.352,0.106-0.721,0.145-1.074,0.003c-0.998-0.4-2.48-0.699-2.748-0.166c-0.266,0.533-0.113,1.032-0.38,1.165
		c-0.266,0.131-0.601,0.664-1.133,0.065s-0.598-0.865-1.196-0.533c-0.598,0.335-2.596,1.532-3.127,1.532
		c-0.533,0-1.412,1.13-1.348,1.661c0.068,0.533-0.25,0.134-1.049-0.2c-0.798-0.332-2.061,1-2.526,1.133
		c-0.413,0.116-1.761,0.546-2.667,1.058c-0.116,0.066,0.055,0.635-0.044,0.703c-0.177,0.123-0.696-0.205-0.962-0.001
		c-1.041,0.794-2.528,2.076-2.582,2.764c-0.067,0.865-0.601,1.463-0.268,1.73c-1.328-0.468-1.994-0.402-2.26,0.065
		c-0.267,0.466-0.666,2.197-0.998,2.463c-0.081,0.063-0.209,0.203-0.348,0.389c0.527,0.334,1.027,0.748,1.479,1.274
		c2.395,2.794-0.698,5.687,4.99,11.378c5.688,5.687,4.889,5.687,3.493,8.48c-0.405,0.81-1.612,1.73-3.216,2.364
		c0.348,0.424,0.662,0.829,0.919,1.197c0.162,0.232,0.36,0.481,0.575,0.738c2.354,0.102,4.369,0.231,5.249,0.401
		c2.448,0.47,1.854,2.582,0.364,3.405c-0.295,0.161-0.75,0.321-1.32,0.475c0.476,0.449,0.904,0.862,1.252,1.22h0.48
		C119.327,89.32,120.027,88.88,120.451,89.078z M84.326,80.885c-0.018-0.141-0.125-0.403-0.291-0.737
		c-1.064,0.637-2.007,1.682-2.286,2.325c-0.038,0.088-0.056,0.185-0.062,0.286c0.843,0.503,1.576,0.861,2.089,0.971
		C85.56,84.118,84.326,80.885,84.326,80.885z M112.775,84.293c-4.518-0.196-10.281-0.289-11.635-0.374
		c-2.059-0.13-3.513-0.505-4.962-0.948c-1.339-0.408-1.726-0.184-2.212,0.467c-0.014,0.019-0.025,0.051-0.039,0.075
		c0.757,0.44,1.379,0.815,1.737,1.04c1.11,0.698,1.287,3.7,0.153,3.731c-0.357,0.011-1.071-0.01-1.992-0.085
		c0.08,0.333,0.182,0.569,0.312,0.634c0.983,0.496,8.009,1.505,12.61,1.18c3.695-0.265,7.996-0.81,10.32-1.439
		C115.671,87.253,113.906,85.637,112.775,84.293z M118.024,84.694c-0.88-0.17-2.896-0.3-5.249-0.401
		c1.131,1.344,2.896,2.96,4.293,4.282c0.57-0.154,1.025-0.314,1.32-0.475C119.878,87.276,120.473,85.165,118.024,84.694z
		 M95.818,88.285c1.134-0.031,0.957-3.033-0.153-3.731c-0.358-0.225-0.98-0.6-1.737-1.04c-0.352,0.664-0.405,3.413-0.102,4.686
		C94.747,88.275,95.461,88.296,95.818,88.285z M93.928,83.514c-2.617-1.524-6.926-3.878-8.164-3.916
		c-0.557-0.017-1.16,0.209-1.729,0.55c0.166,0.334,0.273,0.596,0.291,0.737c0,0,1.233,3.233-0.551,2.845
		c-0.513-0.11-1.246-0.468-2.089-0.971c-0.069,1.026,1.493,2.664,4.729,3.914c2.434,0.938,5.41,1.363,7.41,1.527
		C93.522,86.926,93.576,84.177,93.928,83.514z M118.627,89.958h-0.147c0.026,0.027,0.046,0.051,0.071,0.078
		C118.576,90.009,118.6,89.984,118.627,89.958z M160.749,89.795c-0.135,0.054-0.283,0.109-0.424,0.163h3.932
		c-0.055-0.054-0.113-0.108-0.174-0.163H160.749z M164.256,89.958h0.146c0.049-0.051,0.105-0.108,0.158-0.163h-0.479
		C164.143,89.849,164.202,89.904,164.256,89.958z M122.135,89.795c0.135,0.054,0.283,0.109,0.424,0.163h37.766
		c0.141-0.054,0.289-0.109,0.424-0.163H122.135z M118.801,89.795c-0.061,0.054-0.119,0.109-0.174,0.163h3.932
		c-0.141-0.054-0.289-0.109-0.424-0.163H118.801z M118.801,89.795h-0.48c0.054,0.054,0.11,0.111,0.159,0.163h0.147
		C118.682,89.904,118.74,89.849,118.801,89.795z"/>
	<g>
		<path style="fill:#FFFFFF;" d="M5.392,131.757c2.233,3.995,5.112,6.208,9.73,6.208c3.501,0,6.874-2.471,6.874-6.058
			c0-10.934-19.654-11.942-19.654-26.312c0-6.252,5.283-10.934,11.899-10.934c4.812,0,8.785,2.19,12.438,6.658l-4.64,3.737
			c-2.686-2.964-4.92-4.36-7.389-4.36c-2.9,0-5.586,1.59-5.586,5.178c0,9.021,19.805,11.405,19.805,25.217
			c0,7.625-5.284,13.061-13.877,13.061c-7.26,0-12.179-3.717-14.992-9.28L5.392,131.757z"/>
		<path style="fill:#FFFFFF;" d="M59.24,144.151c-13.661,0-24.744-11.084-24.744-24.746c0-13.661,11.083-24.744,24.744-24.744
			c13.662,0,24.746,11.083,24.746,24.744C83.986,133.067,72.902,144.151,59.24,144.151z M41.369,119.405
			c0,10.053,7.99,18.215,17.871,18.215c9.882,0,17.872-8.162,17.872-18.215s-7.99-18.214-17.872-18.214
			C49.359,101.191,41.369,109.353,41.369,119.405z"/>
		<path style="fill:#FFFFFF;" d="M100.717,137.277h15.123v6.187H93.844V95.348h6.873V137.277z"/>
		<path style="fill:#FFFFFF;" d="M139.982,102.78c-2.75-2.943-5.221-4.447-8.012-4.447c-3.631,0-7.089,2.041-7.089,6.745
			c0,10.677,20.857,13.061,20.857,26.7c0,7.218-4.875,12.373-12.78,12.373c-6.811,0-11.407-3.287-14.049-8.313l3.352-1.911
			c2.405,4.102,5.605,6.38,10.805,6.38c4.445,0,8.506-3.158,8.506-7.797c0-12.502-20.729-13.47-20.729-27.731
			c0-5.735,4.768-10.117,10.653-10.117c4.426,0,8.034,1.89,11.364,5.799L139.982,102.78z"/>
		<path style="fill:#FFFFFF;" d="M243.299,95.348h4.146v43.798c-4.469,3.051-10.246,5.006-15.789,5.006
			c-10.869,0-19.246-3.159-19.246-18.408V95.348h4.146v29.042c0,15.079,8.441,16.002,15.1,16.002c3.352,0,7.541-0.967,11.643-3.609
			V95.348z"/>
		<path style="fill:#FFFFFF;" d="M265.379,95.348v44.336h15.594v3.78h-19.717V95.348H265.379z"/>
		<path style="fill:#FFFFFF;" d="M201.629,119.405c0,13.662-11.061,24.746-24.701,24.746c-13.619,0-24.703-11.084-24.703-24.746
			c0-13.639,11.084-24.744,24.703-24.744C190.569,94.661,201.629,105.767,201.629,119.405z M156.393,119.405
			c0,11.471,9.172,20.857,20.535,20.857s20.557-9.387,20.557-20.857c0-11.469-9.172-20.857-20.557-20.857
			C165.565,98.548,156.393,107.937,156.393,119.405z"/>
		<g>
			<path style="fill:#FFFFFF;" d="M280.938,95.751v4.716h-0.59v-4.716h-1.312v-0.534h3.213v0.534H280.938z"/>
			<path style="fill:#FFFFFF;" d="M285.096,100.616l-1.463-3.719l-0.83,3.569H282.2l1.27-5.399l1.627,4.114l1.629-4.114l1.275,5.399
				h-0.609l-0.83-3.569L285.096,100.616z"/>
		</g>
	</g>
</g>
</svg>
