<?xml version="1.0" encoding="iso-8859-1"?>
<!-- Generator: Adobe Illustrator 16.0.0, SVG Export Plug-In . SVG Version: 6.00 Build 0)  -->
<!DOCTYPE svg PUBLIC "-//W3C//DTD SVG 1.1//EN" "http://www.w3.org/Graphics/SVG/1.1/DTD/svg11.dtd">
<svg version="1.1" xmlns="http://www.w3.org/2000/svg" xmlns:xlink="http://www.w3.org/1999/xlink" x="0px" y="0px"
	 width="442.533px" height="168.367px" viewBox="0 0 442.533 168.367" style="enable-background:new 0 0 442.533 168.367;"
	 xml:space="preserve">
<g id="surfing_2">
	<g>
		<g>
			<g id="XMLID_4_">
				<g>
					<path style="fill:#FFFFFF;" d="M315.459,47.642c0.082,0.029,0.223,0.111,0.223-0.029h-0.073
						c-0.639-0.581-0.778-1.04-1.011-1.829C314.365,46.53,314.598,47.342,315.459,47.642z M315.773,44.938
						c-0.141,1.205,1.441,2.254,2.491,2.254C317.718,46.21,316.635,45.605,315.773,44.938z M260.518,165.503
						c-7.301-1.389-14.48-3.087-21.568-4.697c-9.623-2.197-19.348-4.369-28.753-7.389c-4.586-1.48-9.105-3.212-13.561-5.021
						c-5.666-1.52-9.221-2.482-9.236-2.496c-2.883-1.249-5.752-2.482-8.641-3.721c-6.517-2.932-13.136-5.83-19.401-9.212
						c-13.658-7.349-26.759-15.666-38.501-26.701c-6.464-6.067-12.12-12.705-16.062-20.122c-4.403-8.268-9.729-24.016-5.965-34.123
						c0.885-2.405,3.028-4.654,5.874-4.654c0.392-0.039,0.779-0.053,1.175-0.083c1.573-0.401,5.187,0.672,6.59,1.127
						c4.185,1.321,8.21,3.072,12.153,4.891c4.751,2.129,9.516,4.258,14.277,6.386c18.946,8.549,37.621,18.346,56.103,27.814
						c10.117,5.473,20.243,10.949,30.35,16.421c0.639,0.285,1.001,0.005,1.523-0.358c2.197-1.684,4.398-3.367,6.609-5.056
						c2.796-2.018,5.67-3.764,8.365-5.989c1.645-1.398,3.309-2.792,4.959-4.199c2.346-2.129,4.432-4.761,7.75-4.916
						c1.641-0.072,3.039,0.547,4.422,1.06c3.639,1.345,6.904,3.469,10.504,4.939c1.418,0.542,2.835,1.099,4.277,1.65
						c0.6,0.136,1.209-0.276,1.838,0.02c1.297,0.59,2.158,1.993,3.479,2.545c1.277,0.439,2.545,0.88,3.822,1.32
						c0.721,0.3,1.471,0.604,2.187,0.914c0.774,0.223,1.805,0.029,2.53,0.373c1.166,0.88,2.332,1.761,3.488,2.642
						c1.205,0.735,2.419,1.476,3.629,2.211c0.59,0.3,1.176,0.6,1.766,0.899c0.344-0.343,2.879-2.075,2.879-2.075
						c0.252-0.726-0.629-1.728-0.842-2.356c-0.102-0.672-0.193-1.35-0.285-2.022c-0.232-0.749-0.465-1.484-0.692-2.221
						c0.044-1.17,0.097-2.331,0.155-3.487c0.102-0.727,0.213-1.447,0.324-2.183c0-1.441-0.789-3.338-1.428-4.543
						c-0.45-0.856-1.301-1.872-1.394-2.874c-0.028-0.861-0.048-1.718-0.077-2.579c-0.121-0.755-0.237-1.5-0.367-2.255
						c0.072-1.659,1.277-7.068,0.778-8.07c-1.069-2.221-6.821-3.169-9.062-3.938c-5.225-2.071-10.445-4.146-15.681-6.227
						c-2.429-0.982-4.978-1.49-7.3-2.651c-1.442-0.721-2.637-2.066-3.896-3.179c-2.351-2.085-4.905-4.025-6.977-6.439
						c-2.322-2.733-4.519-5.544-7.44-7.654c-1.074-0.77-2.182-1.408-3.357-1.964c-0.537-0.251-1.156-0.397-1.592-0.842
						c-1.195-1.234-2.361-2.623-3.396-3.953c-0.334-0.358-0.658-0.711-1.002-1.069c-0.488-1.045-0.986-2.081-1.494-3.13
						c-0.881-1.602-2.473-3.106-3.803-4.354c-0.388-0.363-2.23-2.167-1.113-2.7c0.426-0.194,0.842,0.039,1.277,0.039V19.17
						c-0.812-0.909-2.139-2.448-1.002-3.585c0.44,0.044,2.004,0.397,2.004,1.001c0.125-0.029,0.657-0.155,0.657,0
						c0.024-0.125,0.015-0.576,0.165-0.576v-0.082c1.857,0,2.656,0.745,4.088,1.5c0.9,0.474,1.926,0.673,2.811,1.19
						c0.866,0.508,1.49,1.345,2.148,2.1c0.203,0.237,0.416,0.474,0.629,0.707h0.092c0.02-0.029,0.059-0.048,0.068-0.083
						c0.12-0.445,0.677-1.504,1.248-1.504c0.963,2.564,1.896,6.647,3.551,8.723c0.576,0.721,1.418,0.885,2.057,1.519
						c0.387,0.469,0.773,0.948,1.146,1.432c1.635,1.442,3.58,2.564,5.395,3.711c3.285,2.08,6.561,4.107,9.864,6.139
						c0.968,0.692,1.931,1.403,2.894,2.104c0.639,0.547,1.268,1.089,1.906,1.645c1.258,0.377,2.516,0.745,3.769,1.118
						c0.765,0.354,1.515,0.697,2.284,1.031c1.417,0.3,2.84,0.604,4.257,0.905c2.507,0.503,4.446,1.025,7.171,1.025
						c0.217-0.024,0.449-0.053,0.662-0.077c0.16-0.029,0.324-0.053,0.503-0.087c0.165-0.029,0.334-0.053,0.499-0.077
						c0.639-0.223,1.287-0.445,1.916-0.663c-0.02-0.029-0.059-0.067-0.073-0.092v-0.087c-0.058-0.053-0.116-0.106-0.169-0.165
						c-0.111-0.165-0.213-0.344-0.324-0.532c-0.02-0.043-0.034-0.097-0.034-0.15c0-0.097,0-0.194,0.015-0.295
						c0.16-0.735,0.314-1.451,0.475-2.177c-0.344-0.899-0.697-1.814-1.055-2.709c-0.049-0.141,0.038-3.595,0.092-3.885
						c0.029-0.169,0.271-0.929,0.159-0.929v-0.078c-0.329,0.131-0.827,0.513-0.827,0.915h-0.174v-0.077
						c-0.102-0.237-0.479-1.834,0-1.834c-0.029-0.31-0.049-0.614-0.082-0.919h-0.083v0.082h-0.087
						c-0.367,0.522-0.832,1.234-0.832,1.911h-0.082c-0.131-0.479,0.01-2.192,0.557-2.525c0.058-0.039,0.12-0.058,0.193-0.058v-0.078
						h-0.083v0.078c-0.033,0.015-0.072,0.034-0.11,0.058c-0.784,0.426-2.555,1.887-2.555,2.7h-0.092
						c-0.131-0.45-0.262-0.9-0.397-1.331c-0.058-1.079,0.915-4.064,1.485-4.857c0.436-0.624,1.205-0.784,1.669-1.403
						c0.745-1.03,1.685-2.661,3.165-2.661c0.333-0.063,0.672-0.111,1.006-0.169c0.73-0.314,1.805-0.585,2.666-0.585
						c0.387-0.068,0.77-0.15,1.146-0.223c0.687-0.353,1.277-1.137,2.177-0.837c0.054,0.048,0.121,0.097,0.185,0.14
						c3.415-1.393,8.805-1.045,11.471,1.611c0.547,0.9,1.122,1.78,1.674,2.67c0.324,0.203,0.648,0.412,0.973,0.629
						c0.527,0.363,0.891,1.118,1.122,1.679c1.282,3.043-0.116,6.299,2.85,8.592c0.45,0.353,1.045,0.74,1.674,0.74v0.092h-0.082
						c-0.88,0.31-1.901-0.048-2.583-0.503c-0.203-0.141-0.388-0.281-0.586-0.411v-0.087h-0.092v0.087
						c0.475,1.011,0.324,2.327,0.871,3.304c0.314,0.542,0.861,0.76,1.287,1.2c0.387,0.6,0.773,1.19,1.156,1.781
						c0.01,0.043,0.02,0.087,0.028,0.135c0.232-0.02,1.079,0.005,1.079-0.256h0.097c-0.333,0.334-0.667,0.682-0.981,1.016
						c-0.393,0.546-0.363,1.205-0.852,1.727c-0.063,0.034-0.131,0.068-0.17,0.087v-0.082h-0.097
						c0.097-0.499,0.165-1.001,0.247-1.495h-1.582c0.154,1.587,0.436,2.671,2.259,2.671c0.218-0.116,0.997-0.286,0.997-0.59h0.082
						c-0.421,1.035-1.432,1.417-2.578,1.417v0.082h0.082v0.087c1.025,1.025,2.037,3.672,3.832,3.672
						c-0.029,0.266,0,0.426,0.125,0.644c0.475,0.808,1.52,2.119,2.337,2.613c0.644,0.232,1.302,0.464,1.95,0.701
						c1.103,0.411,1.916,1.234,2.729,2.153c1.132,1.263,1.926,2.627,2.627,4.132c0.639,1.389,0.943,2.787,1.887,4.059
						c1.945,2.593,4.315,4.756,6.396,7.335c1.896,2.351,3.561,4.867,5.244,7.354c0.861,1.268,1.713,2.545,2.564,3.803
						c0.973,2.187,0.963,4.688,1.437,7.146c0.276,1.528,0.562,3.062,0.852,4.576c0.329,1.606,0.924,3.164,1.137,4.857
						c-0.077,0.837-0.169,1.669-0.241,2.497c-0.049,1.698-0.102,3.387-0.15,5.08c-0.266,1.083-0.527,2.167-0.793,3.241
						c-0.083,0.518-0.165,1.011-0.262,1.519c-0.416,1.176-2.889,2.391-4.068,2.352c-1.379-0.043-0.799-1.137-0.049-1.616
						c0.3-0.217,0.586-0.43,0.871-0.652v-0.165l-1.225,0.281c-0.469,0.164-2.496,1.509-2.762,0.643
						c-0.068-0.222,0-0.454,0.111-0.647c0.241-0.242,0.479-0.465,0.711-0.688v-0.082c-0.373-0.054-1.074-0.165-1.074-0.673
						c0.488-0.493,2.119-1.921,2.748-1.921v-0.174h-0.164c-0.668-0.208-2.26-0.146-2.26-1.161c0.629-0.445,1.224-0.493,2.09-0.493
						c0.557-0.735-0.034-2.168,0.15-3.102c0.295-1.543,1.775-2.666,1.402-4.397c-0.184-0.847-0.953-1.587-1.441-2.279
						c-1.166-1.684-2.342-3.382-3.236-5.172c-0.334-0.943-0.678-1.882-1.002-2.83c-0.266-1.181-0.213-2.356-0.876-3.319
						c-1.103-1.577-2.675-2.191-4.228-3.14c-1.277-0.793-2.361-1.939-3.363-3.116c-0.111-0.111-0.223-0.222-0.338-0.333V84.3h-0.068
						c0,3.967,0,7.775-0.416,11.491c-0.387,1.848-0.765,3.677-1.146,5.516c0.067,0.837-6.754,32.023-8.08,32.222
						c-0.449,0.062-1.127,1.292-1.736,1.592c-0.629,0.305-1.451,0.193-2.09,0.488c-0.678,0.445-1.359,0.886-2.047,1.325
						c-1.998,1.084-4.229,1.515-6.672,1.718c-1.441,0.116-2.922,0.121-4.335-0.024c-1.741-0.981-3.759-1.553-5.979-2.133
						c-0.039-0.015-0.082,0-0.121-0.015c-0.416-0.203-0.842-0.396-1.302-0.522c-5.757-3.357-10.542-7.944-16.405-11.041
						c0.125-0.392,0.324-0.75,0.701-0.75v-0.082h-0.082c-2.047-1.659-4.379-3.077-6.503-4.679c-0.251,0.475-0.604,1.017-0.861,1.587
						c-1.132,0.354-2.104,1.171-2.462,2.512c-0.242,0.919-0.223,2.801-0.489,4.204c-0.493,0.464-0.899,1.107-1.214,1.911
						c2.201,1.166,4.397,2.337,6.599,3.498c3.755,2.003,7.514,3.981,11.269,5.984c0.701,0.344,1.407,0.683,2.109,1.035
						c1.461,1.064,2.961,2.066,4.543,2.923c0.701,0.382,1.379,0.508,2.018,0.479c1.035,0.576,2.061,1.156,3.062,1.775
						c1.083,0.668,2.201,1.48,2.994,2.564c1.66,2.317,1.723,8.704,1.398,11.983c-0.193,1.854-0.043,5.69-1.582,6.672
						c-0.914,0.591-1.979,0.712-2.951,1.166c-0.305,0.049-0.609,0.111-0.924,0.17c-0.17,0.023-0.324,0.058-0.499,0.072
						c-0.169,0.034-0.323,0.058-0.498,0.092c-0.251,0.029-0.503,0.063-0.745,0.087c-0.275,0.024-0.561,0.054-0.837,0.078
						c-0.329,0.028-0.663,0.062-1.001,0.087c-0.527,0.024-1.064,0.053-1.592,0.082c-7.422,0-14.703-0.131-21.67-1.025
						c-3.682-0.475-7.335-1.094-10.973-1.776c0,0.005,0,0.01,0,0.024C260.74,165.565,260.619,165.542,260.518,165.503z
						 M263.895,109.903v-0.164c-1.166-0.837-0.77-1.775-1.461-2.361c-2.686-2.226-5.912-3.377-8.955-4.891v0.072
						c-0.523,0.261-0.799,0.73-1.205,1.127c-0.842,0.668-1.674,1.336-2.496,1.998c-2.361,1.718-4.775,3.116-7.229,4.558
						c-0.765,0.445-1.959,1.418-2.922,1.418v0.082h0.082c3.526,1.926,7.044,3.86,10.566,5.781c0.899,0.47,10.068,7.857,11.021-0.02
						c0.783-2.385,1.572-4.784,2.355-7.175C263.691,110.199,263.754,109.903,263.895,109.903z"/>
				</g>
				<g>
				</g>
			</g>
		</g>
		<g>
			<path style="fill:#FFFFFF;" d="M8.285,57.001c3.433,6.139,7.856,9.539,14.952,9.539c5.38,0,10.562-3.797,10.562-9.309
				c0-16.8-30.2-18.35-30.2-40.431C3.598,7.195,11.717,0,21.883,0c7.394,0,13.5,3.366,19.111,10.232l-7.129,5.742
				c-4.126-4.555-7.559-6.699-11.354-6.699c-4.456,0-8.582,2.442-8.582,7.954c0,13.863,30.432,17.526,30.432,38.749
				c0,11.717-8.12,20.069-21.322,20.069C11.882,76.047,4.324,70.335,0,61.786L8.285,57.001z"/>
			<path style="fill:#FFFFFF;" d="M91.028,76.047c-20.992,0-38.023-17.032-38.023-38.024C53.005,17.031,70.036,0,91.028,0
				c20.992,0,38.023,17.031,38.023,38.023C129.051,59.015,112.02,76.047,91.028,76.047z M63.567,38.023
				c0,15.447,12.279,27.988,27.461,27.988c15.183,0,27.461-12.541,27.461-27.988s-12.278-27.988-27.461-27.988
				C75.846,10.035,63.567,22.576,63.567,38.023z"/>
			<path style="fill:#FFFFFF;" d="M154.76,65.483h23.236v9.506h-33.798V1.056h10.562V65.483z"/>
			<path style="fill:#FFFFFF;" d="M215.093,12.476c-4.225-4.521-8.021-6.833-12.311-6.833c-5.579,0-10.892,3.136-10.892,10.364
				c0,16.405,32.049,20.068,32.049,41.027c0,11.09-7.492,19.013-19.638,19.013c-10.463,0-17.527-5.052-21.587-12.774l5.149-2.938
				c3.697,6.303,8.615,9.803,16.603,9.803c6.831,0,13.07-4.852,13.07-11.98c0-19.209-31.851-20.696-31.851-42.611
				C185.685,6.734,193.013,0,202.056,0c6.8,0,12.344,2.904,17.461,8.912L215.093,12.476z"/>
			<path style="fill:#FFFFFF;" d="M373.85,1.056h6.369v67.299c-6.865,4.688-15.744,7.692-24.26,7.692
				c-16.701,0-29.572-4.854-29.572-28.287V1.056h6.369V45.68c0,23.171,12.971,24.589,23.203,24.589
				c5.15,0,11.586-1.484,17.891-5.545V1.056z"/>
			<path style="fill:#FFFFFF;" d="M407.775,1.056v68.125h23.963v5.809h-30.299V1.056H407.775z"/>
			<path style="fill:#FFFFFF;" d="M309.82,38.023c0,20.992-16.998,38.024-37.957,38.024c-20.926,0-37.957-17.032-37.957-38.024
				C233.906,17.064,250.938,0,271.863,0C292.822,0,309.82,17.064,309.82,38.023z M240.309,38.023
				c0,17.625,14.094,32.048,31.555,32.048s31.586-14.424,31.586-32.048S289.355,5.974,271.863,5.974
				C254.402,5.974,240.309,20.398,240.309,38.023z"/>
			<g>
				<path style="fill:#FFFFFF;" d="M431.684,1.675v7.247h-0.906V1.675h-2.018v-0.82h4.938v0.82H431.684z"/>
				<path style="fill:#FFFFFF;" d="M438.072,9.152l-2.246-5.715l-1.275,5.485h-0.93l1.951-8.297l2.5,6.323l2.502-6.323l1.959,8.297
					h-0.936l-1.275-5.485L438.072,9.152z"/>
			</g>
		</g>
	</g>
</g>
<g id="Layer_1">
</g>
</svg>
