<?xml version="1.0" encoding="iso-8859-1"?>
<!-- Generator: Adobe Illustrator 16.0.0, SVG Export Plug-In . SVG Version: 6.00 Build 0)  -->
<!DOCTYPE svg PUBLIC "-//W3C//DTD SVG 1.1//EN" "http://www.w3.org/Graphics/SVG/1.1/DTD/svg11.dtd">
<svg version="1.1" xmlns="http://www.w3.org/2000/svg" xmlns:xlink="http://www.w3.org/1999/xlink" x="0px" y="0px"
	 width="442.533px" height="189.691px" viewBox="0 0 442.533 189.691" style="enable-background:new 0 0 442.533 189.691;"
	 xml:space="preserve">
<g id="surfing_1">
	<g>
		<path style="fill:#FFFFFF;" d="M295.604,145.776c-0.629-3.497-1.238-6.823-1.289-10.657c1.049,1.231,2.088,2.469,3.148,3.701
			c1.035,1.249,2.174,2.465,2.943,3.86c0.387,1.015,0.779,2.025,1.16,3.04c0.34,0.854,0.799,1.617,1,2.561
			c-0.34,0.132-0.68,0.266-1.014,0.401c-0.34,0.028-0.688,0.062-1.021,0.095c-0.166,0.029-0.314,0.051-0.469,0.083
			c-0.289,0.029-0.574,0.056-0.863,0.091c-0.912,0.007-1.854,0.628-2.582,1.053h-0.062v0.072h-0.092
			C296.182,148.654,295.893,147.216,295.604,145.776 M274.27,0c-0.34,0.063-0.682,0.124-1.016,0.188
			c-0.365,0.018-0.729,0.049-1.098,0.079c-0.361,0.043-0.738,0.065-1.1,0.093c-0.232,0.042-0.475,0.065-0.701,0.095
			c-2.027,0.022-4.449,2.408-5.785,3.821c-0.363,0.379-0.734,0.766-1.094,1.156c-0.684,1.23-0.883,4.421-0.467,5.943
			c0.238,0.576,0.479,1.143,0.717,1.72c0.074,0.648,0.146,1.302,0.207,1.943c0.189,0.524,0.359,1.052,0.531,1.582
			c0.098,0.719,0.006,1.448,0.203,2.094c0.852,2.85,3.287,5.92,5.396,8.119c0.396,0.393,0.992,0.888,1.539,0.981
			c0.338,0.061,0.625,0.02,0.883-0.023c0.506-0.082,0.891-0.165,1.293,0.548c-0.148,0.165-0.279,0.31-0.414,0.465
			c-1.158,1.569-1.512,3.86-1.281,6c0.148,1.479,1.078,3.132,0.678,4.596c-0.209,0.755-0.889,1.511-1.344,2.16
			c-0.516,0.823-1.045,1.65-1.57,2.499c-0.592,0.598-1.18,1.206-1.773,1.816c-0.965,1.188-1.914,2.377-2.859,3.561
			c-2.424,3.008-4.166,6.306-6.969,9.185c-0.869,0.855-1.738,1.707-2.605,2.56c-0.871,1.169-1.756,2.335-2.627,3.493
			c-0.424,0.545-1.072,1-1.26,1.658c-0.219,0.778-0.006,1.915,0.084,2.709c0.111,1.011,0.014,2.109,0.193,3.117
			c0.529,1.323,1.061,2.636,1.596,3.958c0.285,0.629,0.887,3.975,1.043,4.112c1.523,1.391,2.201-3.346,2.324-3.947
			c0.182-0.907,1.182-0.94,1.182-1.589c0-0.641-0.697-0.91-1.01-1.383c-0.426-0.656-0.596-2.296-0.326-3.11
			c0.557-1.788,2.014-2.459,3.098-3.895c0.326-0.441,0.596-1.002,0.689-1.547c0.086-0.537-0.084-1.604,0.299-1.985
			c0.717-0.743,1.93-1.136,2.818-1.612c2.615-1.411,5.5-2.704,7.818-4.619c2.525-2.072,4.076-4.974,6.418-7.063h0.066
			c0.082,0.149,0.154,0.291,0.221,0.427c0.654,0.937,1.572,1.185,2.434,1.797c0.943,0.873,1.891,1.755,2.828,2.643
			c0.469,0.578,0.594,1.437,0.889,2.117c0.43,0.816,0.869,1.637,1.305,2.449c0.344,0.77,0.693,1.54,1.029,2.3
			c1.812,2.916,4.398,5.177,6.545,7.924c-0.203,0.557-0.404,1.107-0.604,1.659c-0.908,2.233-1.412,4.919-2.752,6.933
			c-0.707,1.054-1.857,1.817-2.643,2.83c-0.547,0.898-1.088,1.799-1.623,2.697c-0.689,1.074-2.248,1.983-2.707,3.143
			c-0.32,0.782,0.02,1.625-0.049,2.484c-0.32,1.396-0.619,2.79-0.934,4.172c-0.047,0.654-0.094,1.312-0.143,1.976
			c-0.631,1.332-1.266,2.675-1.895,4.016c-1.461,3.283-3.018,6.479-4.316,9.839c-0.852,2.232-1.766,4.27-1.018,6.873
			c0.279,0.99,0.893,2.092,1.611,2.869c0.336,0.33,0.68,0.662,1.018,0.994c0.402,0.858,0.783,1.711,1.186,2.568
			c0.637,1.002,1.268,2.007,1.9,3.007c1.283,2.818,1.441,6.134,2.318,9.204c1.73,5.959,4.74,11.525,4.828,18.307
			c0.012,0.582,0.146,1.491-0.146,1.938c-0.377,0.596-1.83,0.918-2.482,1.173c-2.703,1.116-5.422,2.241-8.133,3.36
			c-9.775,4.157-19.381,8.576-29.273,12.527c-4.26,1.528-8.531,3.064-12.789,4.594c-2.365,0.835-4.777,1.645-6.918,2.894
			c-1.43,0.827-3.064,2.229-1.119,3.696c1.467,1.095,6.723,1.003,8.846,1.365c8.738,1.621,17.475,3.24,26.199,4.861
			c14.598,2.035,28.77-1.641,41.221-5.965c6.445-2.244,12.887-4.571,19.094-7.232c7.182-3.09,16.129-7.27,21.838-12.942
			c2.76-2.747,4.947-6.018,6.902-9.243c1.002-1.676,1.932-3.563,2.277-5.567c0.74-4.297-1.889-8.642-5.594-9.563
			c-3.699-0.93-12,0.262-17.398,1.682c-5.406,1.43-8.232,2.023-12.205,3.377c-1.668,0.547-3.336,1.078-5.002,1.615
			c-0.529-0.012-0.906-0.672-1.174-1.042c-1.402-1.852-2.473-3.802-3.656-5.734c-1.119-1.755-2.238-3.511-3.354-5.268
			c-1.729-3.128-3.441-6.25-5.16-9.365c-1.5-2.464-3.6-4.629-5.449-6.881c-0.615-0.721-1.219-1.446-1.834-2.157
			c-0.131,0-0.086-0.051-0.086-0.166h0.078c0-0.123,0.049-0.074,0.145-0.043c0.709,0.299,1.43,0.602,2.135,0.902
			c1.004,0.413,3.9,1.917,4.912,1.309c0.164-0.165,0.33-0.33,0.5-0.484c0.615-0.784,0.861-2.107,1.201-3.039
			c0.66-1.917,1.764-3.57,2.658-5.379c0.289-0.828,0.582-1.654,0.871-2.486c0.529-0.468,1.045-0.935,1.57-1.395
			c1.008-1.118,2.02-2.227,3.029-3.326c0.426-0.691,0.857-1.385,1.289-2.078c2.391-3.066,4.479-6,5.959-9.51
			c0.342-1.068,0.682-2.131,1.027-3.203c0.607-1.805,1.488-3.49,1.457-5.598c-0.023-1.603-0.436-3.161-0.617-4.617
			c-0.176-1.456,0.012-2.911-0.49-4.204c-0.141-0.359-0.514-0.411-0.717-0.689c-0.584-0.828-1.184-2.023-1.422-3.007
			c-1.084-4.38-1.639-9.007-2.971-13.283c-0.564-1.814-1.502-3.449-2.197-5.183c-1.18-2.851-1.977-5.792-3.326-8.551
			c-0.494-0.763-1.01-1.539-1.506-2.306c-0.578-1.34-1.166-2.691-1.744-4.037c-0.539-0.796-1.076-1.598-1.637-2.395
			c-0.996-1.434-1.82-2.907-3.086-4.215c-2.373-2.456-5.066-4.489-8.219-5.398c-1.525-0.438-4.172-0.579-5.369-1.5
			c-0.951-0.714-2.025-2.284-2.213-3.416c-0.189-1.128,1.574-4.09-0.326-4.454c-0.023-2.209,0.371-4.729-0.135-6.899
			c-0.211-0.876-0.805-1.671-1.363-2.375C279.734,1.416,277.645,0,274.367,0C274.334,0,274.303,0,274.27,0"/>
		<g>
			<path style="fill:#FFFFFF;" d="M8.285,99.153c3.433,6.139,7.856,9.539,14.952,9.539c5.38,0,10.562-3.797,10.562-9.309
				c0-16.8-30.2-18.351-30.2-40.432c0-9.605,8.119-16.8,18.285-16.8c7.394,0,13.5,3.366,19.111,10.232l-7.129,5.742
				c-4.126-4.555-7.559-6.699-11.354-6.699c-4.456,0-8.582,2.442-8.582,7.954c0,13.863,30.432,17.526,30.432,38.749
				c0,11.717-8.12,20.069-21.322,20.069c-11.156,0-18.714-5.712-23.038-14.261L8.285,99.153z"/>
			<path style="fill:#FFFFFF;" d="M91.028,118.199c-20.992,0-38.023-17.032-38.023-38.024s17.031-38.023,38.023-38.023
				c20.992,0,38.023,17.031,38.023,38.023S112.02,118.199,91.028,118.199z M63.567,80.175c0,15.447,12.279,27.988,27.461,27.988
				c15.183,0,27.461-12.542,27.461-27.988s-12.278-27.988-27.461-27.988C75.846,52.187,63.567,64.728,63.567,80.175z"/>
			<path style="fill:#FFFFFF;" d="M154.76,107.636h23.236v9.506h-33.798V43.208h10.562V107.636z"/>
			<path style="fill:#FFFFFF;" d="M215.093,54.628c-4.225-4.521-8.021-6.833-12.311-6.833c-5.579,0-10.892,3.136-10.892,10.364
				c0,16.405,32.049,20.068,32.049,41.027c0,11.09-7.492,19.013-19.638,19.013c-10.463,0-17.527-5.052-21.587-12.774l5.149-2.938
				c3.697,6.303,8.615,9.803,16.603,9.803c6.831,0,13.07-4.852,13.07-11.98c0-19.21-31.851-20.696-31.851-42.611
				c0-8.812,7.328-15.546,16.371-15.546c6.8,0,12.344,2.904,17.461,8.912L215.093,54.628z"/>
			<path style="fill:#FFFFFF;" d="M373.85,43.208h6.369v67.299c-6.865,4.688-15.744,7.692-24.26,7.692
				c-16.701,0-29.572-4.854-29.572-28.288V43.208h6.369v44.624c0,23.171,12.971,24.589,23.203,24.589
				c5.15,0,11.586-1.484,17.891-5.545V43.208z"/>
			<path style="fill:#FFFFFF;" d="M407.775,43.208v68.125h23.963v5.809h-30.299V43.208H407.775z"/>
			<path style="fill:#FFFFFF;" d="M309.82,80.175c0,20.992-16.998,38.024-37.957,38.024c-20.926,0-37.957-17.032-37.957-38.024
				c0-20.959,17.031-38.023,37.957-38.023C292.822,42.152,309.82,59.216,309.82,80.175z M240.309,80.175
				c0,17.625,14.094,32.049,31.555,32.049s31.586-14.424,31.586-32.049c0-17.625-14.094-32.049-31.586-32.049
				C254.402,48.125,240.309,62.55,240.309,80.175z"/>
			<g>
				<path style="fill:#FFFFFF;" d="M431.684,43.827v7.247h-0.906v-7.247h-2.018v-0.82h4.938v0.82H431.684z"/>
				<path style="fill:#FFFFFF;" d="M438.072,51.304l-2.246-5.715l-1.275,5.485h-0.93l1.951-8.297l2.5,6.323l2.502-6.323l1.959,8.297
					h-0.936l-1.275-5.485L438.072,51.304z"/>
			</g>
		</g>
	</g>
</g>
<g id="Layer_1">
</g>
</svg>
