<?xml version="1.0" encoding="iso-8859-1"?>
<!-- Generator: Adobe Illustrator 16.0.0, SVG Export Plug-In . SVG Version: 6.00 Build 0)  -->
<!DOCTYPE svg PUBLIC "-//W3C//DTD SVG 1.1//EN" "http://www.w3.org/Graphics/SVG/1.1/DTD/svg11.dtd">
<svg version="1.1" xmlns="http://www.w3.org/2000/svg" xmlns:xlink="http://www.w3.org/1999/xlink" x="0px" y="0px"
	 width="442.533px" height="166.34px" viewBox="0 0 442.533 166.34" style="enable-background:new 0 0 442.533 166.34;"
	 xml:space="preserve">
<g id="surfing">
	<g>
		<path style="fill:#FFFFFF;stroke:#FFFFFF;stroke-width:0;stroke-linecap:round;stroke-linejoin:round;" d="M337.641,40.674
			c-0.959-2.597-3.27-5.027-6.344-5.027c-0.422-0.039-0.84-0.055-1.27-0.086c-1.699-0.437-5.604,0.723-7.119,1.218
			c-4.521,1.426-8.865,3.315-13.125,5.282c-5.133,2.301-10.279,4.6-15.42,6.899c-20.465,9.233-40.635,19.812-60.602,30.038
			c-10.926,5.913-21.859,11.826-32.786,17.736c-0.68,0.312-1.074,0.008-1.638-0.387c-2.373-1.816-4.758-3.633-7.139-5.457
			c-3.022-2.181-6.13-4.066-9.036-6.47c-1.781-1.513-3.574-3.019-5.356-4.538c-2.535-2.3-4.784-5.141-8.371-5.311
			c-1.774-0.076-3.281,0.592-4.777,1.148c-3.927,1.453-7.458,3.745-11.343,5.333c-1.535,0.588-3.065,1.187-4.618,1.782
			c-0.654,0.146-1.311-0.298-1.995,0.02c-1.396,0.637-2.326,2.152-3.753,2.752c-1.379,0.475-2.752,0.95-4.124,1.426
			c-0.789,0.324-1.589,0.653-2.366,0.985c-0.835,0.243-1.948,0.03-2.732,0.401c-1.26,0.955-2.516,1.906-3.768,2.856
			c-1.303,0.792-2.612,1.593-3.922,2.388c-0.634,0.326-1.264,0.646-1.902,0.971c-0.375-0.371-3.115-2.241-3.115-2.241
			c-0.266-0.784,0.685-1.866,0.909-2.544c0.108-0.726,0.209-1.46,0.309-2.187c0.251-0.808,0.502-1.604,0.754-2.396
			c-0.05-1.269-0.108-2.521-0.171-3.77c-0.112-0.784-0.231-1.564-0.356-2.357c0-1.558,0.854-3.605,1.547-4.904
			c0.487-0.928,1.407-2.025,1.507-3.107c0.031-0.928,0.054-1.855,0.081-2.782c0.135-0.815,0.259-1.623,0.395-2.438
			c-0.077-1.79-1.38-7.633-0.835-8.715c1.156-2.396,7.366-3.422,9.782-4.252c5.65-2.238,11.29-4.48,16.939-6.729
			c2.624-1.058,5.38-1.607,7.881-2.86c1.565-0.78,2.855-2.232,4.212-3.436c2.539-2.253,5.295-4.348,7.536-6.956
			c2.509-2.953,4.882-5.986,8.036-8.263c1.155-0.832,2.357-1.523,3.621-2.122c0.58-0.275,1.253-0.429,1.728-0.912
			c1.291-1.329,2.543-2.833,3.668-4.267c0.359-0.39,0.708-0.769,1.078-1.156c0.53-1.128,1.071-2.249,1.612-3.381
			c0.95-1.728,2.67-3.355,4.107-4.703c0.426-0.395,2.416-2.338,1.21-2.915c-0.46-0.208-0.912,0.042-1.38,0.042V5.195
			c0.87-0.986,2.308-2.647,1.078-3.873c-0.476,0.047-2.16,0.426-2.16,1.078c-0.139-0.03-0.711-0.166-0.711,0
			c-0.031-0.135-0.023-0.618-0.182-0.618v-0.09c-2.01,0-2.872,0.804-4.414,1.62c-0.97,0.51-2.083,0.727-3.034,1.284
			c-0.935,0.548-1.611,1.453-2.326,2.269c-0.221,0.259-0.452,0.51-0.681,0.765h-0.092c-0.027-0.031-0.062-0.054-0.082-0.088
			c-0.123-0.483-0.727-1.627-1.348-1.627c-1.04,2.767-2.041,7.181-3.831,9.423c-0.625,0.776-1.534,0.955-2.226,1.638
			c-0.409,0.511-0.827,1.024-1.233,1.55c-1.766,1.557-3.865,2.767-5.827,4.004c-3.553,2.249-7.089,4.437-10.651,6.631
			c-1.049,0.75-2.088,1.515-3.127,2.277c-0.692,0.587-1.376,1.175-2.064,1.773c-1.36,0.41-2.709,0.809-4.066,1.21
			c-0.827,0.378-1.642,0.75-2.469,1.112c-1.527,0.325-3.065,0.654-4.596,0.978c-2.712,0.541-4.8,1.105-7.741,1.105
			c-0.235-0.023-0.486-0.058-0.718-0.082c-0.179-0.031-0.356-0.058-0.542-0.097c-0.186-0.03-0.363-0.058-0.545-0.081
			c-0.691-0.243-1.383-0.482-2.067-0.718c0.027-0.032,0.062-0.07,0.081-0.098v-0.097c0.065-0.054,0.124-0.112,0.182-0.178
			c0.119-0.177,0.231-0.371,0.352-0.572c0.019-0.049,0.035-0.104,0.039-0.162c0-0.104-0.004-0.209-0.015-0.32
			c-0.179-0.792-0.345-1.565-0.523-2.35c0.379-0.974,0.762-1.96,1.14-2.929c0.058-0.151-0.035-3.88-0.096-4.193
			c-0.035-0.186-0.29-1.001-0.17-1.001V24.65c0.355,0.144,0.896,0.557,0.896,0.99h0.182v-0.085c0.112-0.251,0.522-1.979,0-1.979
			c0.035-0.333,0.058-0.66,0.093-0.993h0.089v0.088h0.089c0.397,0.564,0.9,1.333,0.9,2.068h0.092
			c0.159-0.576-0.046-2.794-0.815-2.794v-0.081h0.096v0.081c0.766,0.363,2.875,2.06,2.875,2.98h0.101
			c0.143-0.488,0.278-0.97,0.428-1.438c0.062-1.163-0.985-4.391-1.603-5.245c-0.476-0.676-1.302-0.846-1.802-1.519
			c-0.807-1.113-1.824-2.871-3.423-2.871c-0.356-0.066-0.728-0.12-1.083-0.186c-0.796-0.34-1.956-0.631-2.888-0.631
			c-0.409-0.073-0.823-0.162-1.233-0.239c-0.742-0.382-1.383-1.229-2.35-0.905c-0.062,0.054-0.131,0.104-0.197,0.151
			c-3.691-1.507-9.511-1.128-12.391,1.743c-0.599,0.971-1.213,1.921-1.812,2.883c-0.352,0.217-0.7,0.445-1.047,0.677
			c-0.577,0.394-0.958,1.209-1.209,1.816c-1.388,3.286,0.123,6.803-3.081,9.28c-0.486,0.379-1.129,0.8-1.809,0.8v0.097h0.089
			c0.955,0.336,2.052-0.049,2.794-0.541c0.212-0.154,0.417-0.305,0.63-0.444v-0.097h0.096v0.097c-0.51,1.09-0.348,2.516-0.943,3.567
			c-0.336,0.587-0.924,0.823-1.387,1.299c-0.421,0.645-0.831,1.284-1.252,1.921c-0.008,0.045-0.02,0.097-0.028,0.146
			c-0.247-0.02-1.163,0.008-1.163-0.274h-0.104c0.359,0.36,0.718,0.734,1.062,1.093c0.421,0.592,0.39,1.303,0.92,1.868
			c0.065,0.038,0.131,0.073,0.178,0.096V37.98h0.108c-0.108-0.541-0.186-1.082-0.274-1.615h1.708
			c-0.162,1.712-0.467,2.883-2.435,2.883c-0.236-0.124-1.078-0.309-1.078-0.637h-0.085c0.452,1.121,1.546,1.53,2.787,1.53v0.089
			h-0.093v0.097c-1.105,1.105-2.199,3.967-4.143,3.967c0.038,0.288,0.007,0.459-0.128,0.691c-0.517,0.873-1.642,2.291-2.527,2.824
			c-0.695,0.252-1.403,0.499-2.103,0.758c-1.19,0.444-2.076,1.334-2.957,2.326c-1.213,1.361-2.076,2.836-2.833,4.461
			c-0.692,1.498-1.017,3.01-2.033,4.383c-2.103,2.805-4.666,5.14-6.911,7.922c-2.048,2.543-3.853,5.26-5.669,7.943
			c-0.928,1.371-1.851,2.751-2.771,4.111c-1.052,2.357-1.04,5.062-1.546,7.715c-0.305,1.654-0.611,3.308-0.92,4.946
			c-0.356,1.735-0.997,3.417-1.229,5.245c0.085,0.904,0.177,1.801,0.263,2.697c0.05,1.832,0.112,3.656,0.163,5.488
			c0.286,1.167,0.568,2.338,0.857,3.502c0.085,0.557,0.178,1.09,0.279,1.639c0.444,1.271,3.122,2.582,4.394,2.539
			c1.488-0.047,0.862-1.226,0.05-1.744c-0.317-0.238-0.634-0.467-0.943-0.707v-0.178l1.33,0.307c0.506,0.177,2.69,1.63,2.984,0.691
			c0.073-0.24,0-0.491-0.124-0.7c-0.259-0.259-0.514-0.502-0.77-0.741v-0.09c0.406-0.058,1.168-0.178,1.168-0.727
			c-0.53-0.533-2.296-2.074-2.969-2.074v-0.186h0.174c0.715-0.225,2.439-0.159,2.439-1.258c-0.681-0.479-1.318-0.533-2.258-0.533
			c-0.603-0.792,0.039-2.342-0.159-3.35c-0.32-1.662-1.924-2.88-1.518-4.75c0.201-0.913,1.031-1.713,1.553-2.462
			c1.269-1.817,2.536-3.649,3.502-5.585c0.363-1.017,0.726-2.033,1.082-3.057c0.29-1.275,0.229-2.543,0.947-3.584
			c1.187-1.704,2.891-2.365,4.564-3.389c1.376-0.857,2.551-2.099,3.633-3.367c0.12-0.119,0.24-0.242,0.364-0.362v-0.097h0.078
			c0,4.285,0,8.398,0.448,12.41c0.414,1.994,0.824,3.969,1.241,5.955c-0.073,0.904,7.293,34.587,8.727,34.803
			c0.483,0.066,1.214,1.396,1.871,1.721c0.677,0.328,1.569,0.209,2.261,0.525c0.73,0.483,1.469,0.959,2.21,1.434
			c2.161,1.172,4.565,1.631,7.209,1.848c1.553,0.131,3.15,0.139,4.681-0.016c1.877-1.062,4.053-1.686,6.454-2.307
			c0.043-0.017,0.089,0,0.131-0.017c0.452-0.22,0.909-0.429,1.411-0.563c6.215-3.625,11.382-8.58,17.712-11.928
			c-0.127-0.42-0.347-0.807-0.757-0.807v-0.09h0.089c2.214-1.793,4.73-3.323,7.029-5.051c0.268,0.51,0.649,1.098,0.932,1.713
			c1.221,0.377,2.272,1.263,2.655,2.709c0.259,0.992,0.235,3.025,0.529,4.537c0.533,0.506,0.974,1.201,1.31,2.071
			c-2.372,1.26-4.75,2.521-7.123,3.776c-4.058,2.156-8.116,4.301-12.178,6.457c-0.757,0.371-1.515,0.742-2.272,1.121
			c-1.581,1.152-3.201,2.234-4.913,3.162c-0.75,0.412-1.488,0.548-2.18,0.51c-1.117,0.622-2.223,1.256-3.3,1.921
			c-1.175,0.727-2.385,1.604-3.235,2.774c-1.794,2.502-1.867,9.4-1.519,12.943c0.208,2.002,0.05,6.142,1.716,7.204
			c0.981,0.638,2.129,0.769,3.185,1.261c0.332,0.049,0.657,0.119,0.993,0.178c0.189,0.03,0.356,0.065,0.545,0.081
			c0.178,0.038,0.352,0.065,0.542,0.097c0.262,0.039,0.537,0.064,0.803,0.097c0.294,0.022,0.6,0.058,0.905,0.089
			c0.355,0.031,0.714,0.058,1.078,0.088c0.572,0.031,1.145,0.059,1.716,0.09c8.016,0,15.884-0.14,23.41-1.105
			c3.98-0.518,7.922-1.18,11.846-1.921c0.003,0.007,0.003,0.015,0.007,0.03c0.116-0.03,0.244-0.061,0.359-0.096
			c7.881-1.5,15.638-3.332,23.294-5.075c10.393-2.372,20.896-4.719,31.059-7.981c4.954-1.596,9.836-3.471,14.651-5.422
			c6.117-1.646,9.959-2.686,9.975-2.693c3.115-1.349,6.215-2.69,9.33-4.02c7.043-3.174,14.191-6.304,20.959-9.951
			c14.748-7.939,28.902-16.922,41.586-28.84c6.979-6.551,13.086-13.725,17.348-21.736C335.953,68.602,341.707,51.592,337.641,40.674
			z M100.626,35.46c0.588-1.062,1.759-1.715,2.69-2.434C103.463,34.325,101.755,35.46,100.626,35.46z M103.656,35.948
			c-0.089,0.03-0.247,0.12-0.247-0.035h0.084c0.688-0.626,0.842-1.121,1.09-1.975C104.831,34.745,104.588,35.623,103.656,35.948z
			 M185.56,105.182h-0.093c-3.803,2.08-7.603,4.171-11.413,6.246c-0.966,0.506-10.872,8.479-11.896-0.023
			c-0.847-2.573-1.701-5.167-2.551-7.748c-0.043-0.145-0.105-0.461-0.263-0.461v-0.178c1.267-0.904,0.834-1.92,1.584-2.551
			c2.902-2.402,6.385-3.645,9.674-5.283v0.082c0.564,0.281,0.857,0.788,1.299,1.217c0.904,0.719,1.805,1.438,2.697,2.156
			c2.547,1.855,5.152,3.363,7.807,4.92c0.827,0.483,2.115,1.535,3.154,1.535V105.182z"/>
		<g>
			<path style="fill:#FFFFFF;" d="M8.285,57.001c3.433,6.139,7.856,9.539,14.952,9.539c5.38,0,10.562-3.797,10.562-9.309
				c0-16.8-30.2-18.35-30.2-40.431C3.598,7.195,11.717,0,21.883,0c7.394,0,13.5,3.366,19.111,10.232l-7.129,5.742
				c-4.126-4.555-7.559-6.699-11.354-6.699c-4.456,0-8.582,2.442-8.582,7.954c0,13.863,30.432,17.526,30.432,38.749
				c0,11.717-8.12,20.069-21.322,20.069C11.882,76.047,4.324,70.335,0,61.786L8.285,57.001z"/>
			<path style="fill:#FFFFFF;" d="M91.028,76.047c-20.992,0-38.023-17.032-38.023-38.024C53.005,17.031,70.036,0,91.028,0
				c20.992,0,38.023,17.031,38.023,38.023C129.051,59.015,112.02,76.047,91.028,76.047z M63.567,38.023
				c0,15.447,12.279,27.988,27.461,27.988c15.183,0,27.461-12.541,27.461-27.988s-12.278-27.988-27.461-27.988
				C75.846,10.035,63.567,22.576,63.567,38.023z"/>
			<path style="fill:#FFFFFF;" d="M154.76,65.483h23.236v9.506h-33.798V1.056h10.562V65.483z"/>
			<path style="fill:#FFFFFF;" d="M215.093,12.476c-4.225-4.521-8.021-6.833-12.311-6.833c-5.579,0-10.892,3.136-10.892,10.364
				c0,16.405,32.049,20.068,32.049,41.027c0,11.09-7.492,19.013-19.638,19.013c-10.463,0-17.527-5.052-21.587-12.774l5.149-2.938
				c3.697,6.303,8.615,9.803,16.603,9.803c6.831,0,13.07-4.852,13.07-11.98c0-19.209-31.851-20.696-31.851-42.611
				C185.685,6.734,193.013,0,202.056,0c6.8,0,12.344,2.904,17.461,8.912L215.093,12.476z"/>
			<path style="fill:#FFFFFF;" d="M373.85,1.056h6.369v67.299c-6.865,4.688-15.744,7.692-24.26,7.692
				c-16.701,0-29.572-4.854-29.572-28.287V1.056h6.369V45.68c0,23.171,12.971,24.589,23.203,24.589
				c5.15,0,11.586-1.484,17.891-5.545V1.056z"/>
			<path style="fill:#FFFFFF;" d="M407.775,1.056v68.125h23.963v5.809h-30.299V1.056H407.775z"/>
			<path style="fill:#FFFFFF;" d="M309.82,38.023c0,20.992-16.998,38.024-37.957,38.024c-20.926,0-37.957-17.032-37.957-38.024
				C233.906,17.064,250.938,0,271.863,0C292.822,0,309.82,17.064,309.82,38.023z M240.309,38.023
				c0,17.625,14.094,32.048,31.555,32.048s31.586-14.424,31.586-32.048S289.355,5.974,271.863,5.974
				C254.402,5.974,240.309,20.398,240.309,38.023z"/>
			<g>
				<path style="fill:#FFFFFF;" d="M431.684,1.675v7.247h-0.906V1.675h-2.018v-0.82h4.938v0.82H431.684z"/>
				<path style="fill:#FFFFFF;" d="M438.072,9.152l-2.246-5.715l-1.275,5.485h-0.93l1.951-8.297l2.5,6.323l2.502-6.323l1.959,8.297
					h-0.936l-1.275-5.485L438.072,9.152z"/>
			</g>
		</g>
	</g>
</g>
<g id="Layer_1">
</g>
</svg>
