<?xml version="1.0" encoding="iso-8859-1"?>
<!-- Generator: Adobe Illustrator 16.0.0, SVG Export Plug-In . SVG Version: 6.00 Build 0)  -->
<!DOCTYPE svg PUBLIC "-//W3C//DTD SVG 1.1//EN" "http://www.w3.org/Graphics/SVG/1.1/DTD/svg11.dtd">
<svg version="1.1" xmlns="http://www.w3.org/2000/svg" xmlns:xlink="http://www.w3.org/1999/xlink" x="0px" y="0px"
	 width="442.533px" height="183.335px" viewBox="0 0 442.533 183.335" style="enable-background:new 0 0 442.533 183.335;"
	 xml:space="preserve">
<g id="surfing_3">
	<g>
		<g>
			<path style="fill:#FFFFFF;" d="M272.893,124.898c-22.521,3.146-108.275,33.587-120.063,38.313
				c-11.79,4.724-13.488,0.032-13.488,0.032s-3.691-1.396-3.221,2.833c0.346,3.123,6.515,5.874,15.013,8.234
				c3.027,0.887,6.724,1.845,11.373,2.954c6.23,1.193,11.941,2.174,17.183,2.976c13.402,2.168,23.929,2.986,31.96,3.075
				c7.019,0.118,12.085-0.334,15.685-1.013c2.15-0.377,3.678-0.803,4.639-1.181c15.178-6.253,51.057-30.319,57.277-34.087
				c6.219-3.769,3.891-8.536,5.488-11.239C296.336,133.093,293.35,125.683,272.893,124.898z"/>
			<g>
				<path style="fill:#FFFFFF;" d="M351.564,28.097c-1.424-5.087-6.033-14.202-12.33-15.25c-7.371-1.162-15.873-0.353-21.998,5.835
					c-2.365,2.389-2.709,6.017-5.135,8.406c1.586,0.994,1.023,3.834,0.426,6.219c-0.564,1.201-1.609,3.733-2.068,5.741
					c-1.33-2.728-3.961-4.923-7.318-5.286c-3.848-0.417-7.664,0.505-11.502,0.436c-4.855-0.088-9.633,0.674-14.369,1.237
					c-13.668,1.626-27.109,5.216-39.557,11.029c-5.268,2.46-10.301,5.373-15.416,8.22c-9.018,5.018-17.206,9.66-17.791,20.953
					c-0.552,10.636,1.919,17.955,8.849,26.103c3.106,3.65,8.645,6.153,12.874,7.691c0.84,0.306,1.684,0.569,2.531,0.821
					c-3.283,4.539-5.66,10.529-7.325,15.618c-4.121,12.619-8.742,14.392-9.319,16.57c-1.341,5.076-6.965,4.646-4.964,12.264
					c0.909,3.464,4.019-0.678,6.195,1.93c2.092,2.507,1.445,3.696,4.567,5.1c2.472,1.11,4.851,0.581,7.533,1.274
					c1.555,0.4,2.525,1.378,4.33,1.422c1.346,0.029,4.711-0.035,5.312,1.244c1.287,2.735,4.074,0.513,7.676,0.251
					c0.088-2.236-3.273-3.112-4.588-4.708c-1.643-1.993-2.553-4.624-3.959-6.801c-2.354-3.65-8.256-6.823-4.113-12.12
					c4.992-6.382,10.598-14.711,15.684-20.896c1.551-1.884,2.32-3.21,3.633-3.813c1.756,0.489,4.562,1.51,7.189,2.516
					c0.564,0.271,1.127,0.543,1.684,0.842c0.799,0.429,1.641,0.835,2.504,1.216c0.133,3.531-3.719,8.992-4.406,12.288
					c-0.652,3.168-1.711,6.932,0.93,8.475c3.002,1.749,4.406,0.565,6.631-1.081c1.766-1.307,3.648-2.561,5.619-3.671
					c0.084,0.741,0.254,1.915,0.486,1.903c-0.668,0.641-2.389,1.399-2.658,3.704c-0.043,0.355-2.33-0.902-2.354,3.158
					c-0.02,3.231,2.207,3.774,3.809,4.255c0.176,0.079,0.771,0.365,1.555,0.954c0.035,0.113,0.049,0.239,0.031,0.386
					c-0.008,0.069,1.854,0.806,3.137,0.85c0.02,0.111,0.113,0.147,0.365,0.1c0.182-0.031,0.316-0.108,0.424-0.207
					c0.02-0.008,0.041-0.013,0.059-0.021c0.646-0.331,0.404-1.783,0.137-2.813c0.061-0.127,0.166-0.225,0.346-0.252
					c0.688,0.724,1.775,1.567,2.664,0.864c1.418-1.123-0.469-4.229-0.469-4.229l1.303-0.17l3.02-0.455
					c0.178,0.006,0.371,0.007,0.576,0.001c0.045,0.016,0.092,0.031,0.145,0.046c-0.039-0.016-0.076-0.032-0.113-0.049
					c0.025,0,0.051-0.003,0.074-0.004c0.031,0.021,0.068,0.044,0.111,0.07c-0.023-0.007-0.051-0.012-0.072-0.018
					c0.031,0.012,0.066,0.022,0.1,0.034c0.357,0.199,1.121,0.446,2.34-0.018c0.264-0.05,0.529-0.114,0.787-0.201
					c1.527-0.512,2.434-2.081,2.51-2.221c1.393-1.721,0.146-2.711-1.299-3.938c-1.756-1.488-4.066-3.686-4.625-4.393
					c-0.117-0.459-0.193-0.914-0.246-1.372c4.752-0.363,9.615,0.386,13.861-2.495c7.67-5.205,3.979-12.06,0.637-19.193
					c-0.561-1.359-1.23-2.728-1.984-4.096c-0.633-3.559-4.658-8.742-6.607-10.328c-0.16-0.131-0.344-0.257-0.535-0.381
					c1.066-3.581,1.963-7.804,2.783-10.065c2.824-1.182,5.754-2.349,8.473-3.728c1.756,1.346,7.643,4.274,9.184,6.566
					c1.793,2.663,2.73,3.646,3.592,3.748c0.203,0.024,0.717-0.066,1.387-0.261c-0.244,0.15-0.488,0.294-0.725,0.423
					c0,0,3.199,4.714,4.928,2.944c4.408-4.515,4.908-7.385,7.189-8.918c1.33-0.896,2.451-3.152,2.451-3.152s2.023-2.328-0.152-1.706
					c-1.873,0.535-4.316,2.565-6.439,2.377c-0.24-1.15-1.037-1.325-1.037-1.325s-5.268-5.868-8.033-9.166
					c-0.143-0.171-0.289-0.317-0.434-0.458c1.943-2.012,3.66-4.229,5.658-6.118c1.463-1.384,5.176-2.865,7.396-4.292
					c1.555,0.871,3.307,1.188,5.33,0.539c5.309-1.783,9.973-10.845,12.93-15.605c2.213-3.379,3.518-7.135,4.617-11.006
					c-0.043,0.422-0.1,0.855-0.17,1.301C349.703,35.156,352.869,32.762,351.564,28.097z M270.207,139.917
					c0.029-0.065,0.096-0.142,0.182-0.226C270.326,139.767,270.264,139.841,270.207,139.917z"/>
				<path style="fill:#FFFFFF;" d="M345.967,40.053c0.018-0.105,0.029-0.206,0.045-0.312c-0.002,0.006-0.008,0.011-0.012,0.016
					L345.967,40.053z"/>
			</g>
		</g>
		<g>
			<path style="fill:#FFFFFF;" d="M8.285,57c3.433,6.139,7.856,9.539,14.952,9.539c5.38,0,10.562-3.797,10.562-9.309
				c0-16.8-30.2-18.35-30.2-40.431C3.598,7.194,11.717,0,21.883,0c7.394,0,13.5,3.366,19.111,10.232l-7.129,5.742
				c-4.126-4.555-7.559-6.699-11.354-6.699c-4.456,0-8.582,2.442-8.582,7.954c0,13.863,30.432,17.526,30.432,38.749
				c0,11.717-8.12,20.069-21.322,20.069C11.882,76.046,4.324,70.334,0,61.786L8.285,57z"/>
			<path style="fill:#FFFFFF;" d="M91.028,76.046c-20.992,0-38.023-17.032-38.023-38.024C53.005,17.03,70.036,0,91.028,0
				c20.992,0,38.023,17.031,38.023,38.023C129.051,59.014,112.02,76.046,91.028,76.046z M63.567,38.022
				c0,15.447,12.279,27.988,27.461,27.988c15.183,0,27.461-12.541,27.461-27.988s-12.278-27.988-27.461-27.988
				C75.846,10.034,63.567,22.576,63.567,38.022z"/>
			<path style="fill:#FFFFFF;" d="M154.76,65.483h23.236v9.506h-33.798V1.055h10.562V65.483z"/>
			<path style="fill:#FFFFFF;" d="M215.093,12.476c-4.225-4.521-8.021-6.833-12.311-6.833c-5.579,0-10.892,3.136-10.892,10.364
				c0,16.405,32.049,20.068,32.049,41.027c0,11.09-7.492,19.013-19.638,19.013c-10.463,0-17.527-5.052-21.587-12.774l5.149-2.938
				c3.697,6.303,8.615,9.803,16.603,9.803c6.831,0,13.07-4.852,13.07-11.98c0-19.209-31.851-20.696-31.851-42.611
				C185.685,6.733,193.013,0,202.056,0c6.8,0,12.344,2.904,17.461,8.912L215.093,12.476z"/>
			<path style="fill:#FFFFFF;" d="M373.85,1.055h6.369v67.299c-6.865,4.688-15.744,7.692-24.26,7.692
				c-16.701,0-29.572-4.854-29.572-28.287V1.055h6.369v44.624c0,23.171,12.971,24.589,23.203,24.589
				c5.15,0,11.586-1.484,17.891-5.545V1.055z"/>
			<path style="fill:#FFFFFF;" d="M407.775,1.055V69.18h23.963v5.809h-30.299V1.055H407.775z"/>
			<path style="fill:#FFFFFF;" d="M309.82,38.022c0,20.992-16.998,38.024-37.957,38.024c-20.926,0-37.957-17.032-37.957-38.024
				C233.906,17.063,250.938,0,271.863,0C292.822,0,309.82,17.063,309.82,38.022z M240.309,38.022
				c0,17.625,14.094,32.048,31.555,32.048s31.586-14.424,31.586-32.048S289.355,5.973,271.863,5.973
				C254.402,5.973,240.309,20.398,240.309,38.022z"/>
			<g>
				<path style="fill:#FFFFFF;" d="M431.684,1.674v7.247h-0.906V1.674h-2.018v-0.82h4.938v0.82H431.684z"/>
				<path style="fill:#FFFFFF;" d="M438.072,9.151l-2.246-5.715l-1.275,5.485h-0.93l1.951-8.297l2.5,6.323l2.502-6.323l1.959,8.297
					h-0.936l-1.275-5.485L438.072,9.151z"/>
			</g>
		</g>
	</g>
</g>
<g id="Layer_1">
</g>
</svg>
