<?xml version="1.0" encoding="iso-8859-1"?>
<!-- Generator: Adobe Illustrator 16.0.0, SVG Export Plug-In . SVG Version: 6.00 Build 0)  -->
<!DOCTYPE svg PUBLIC "-//W3C//DTD SVG 1.1//EN" "http://www.w3.org/Graphics/SVG/1.1/DTD/svg11.dtd">
<svg version="1.1" id="Layer_1" xmlns="http://www.w3.org/2000/svg" xmlns:xlink="http://www.w3.org/1999/xlink" x="0px" y="0px"
	 width="288px" height="144.814px" viewBox="0 0 288 144.814" style="enable-background:new 0 0 288 144.814;" xml:space="preserve"
	>
<g>
	<path style="fill:#FFFFFF;" d="M133.692,65.832c2.252-1.019,7.695-8.18,8.661-10.281c0.967-2.102,4.1-6.772,5.975-9.501
		c1.879-2.729,6.399-8.046,8.507-9.144c2.108-1.098,2.573-0.748,2.228,0.566c-0.346,1.313-4.167,13.222-4.001,14.629
		c0.166,1.407,0.059,6.05,0.64,7.215c0.582,1.166,3.766,4.608,4.981,4.619c1.218,0.011,16.02-0.406,24.336,1.91
		c4.64,1.292,22.174,9.09,28.658,13.879c-7.102-3.154-23.689-11.637-29.182-12.756c-7.609-1.552-19.722-1.915-26.663,0.101
		c-1.566,0.455-0.439,1.826,0.025,2.177C158.323,69.596,133.692,65.832,133.692,65.832z"/>
	<path style="fill:#FFFFFF;" d="M116.927,122.143c-1.491,3.224-2.018,7.259-2.597,9.854c-0.582,2.596-1.483,8.682-1.508,10.266
		c-0.025,1.584-0.386,3.267,1.498,2.234c1.884-1.033,9.51-6.524,11.314-7.412c1.805-0.888,6.24-3.996,5.175-5.992
		c-1.065-1.995-4.295-1.422-5.66-6.121C123.784,120.272,116.927,122.143,116.927,122.143z"/>
	<path style="fill:#FFFFFF;" d="M120.926,121.028c-1.252,2.709-1.695,6.102-2.183,8.281c-0.489,2.182-1.246,7.297-1.267,8.627
		c-0.021,1.332-0.325,2.746,1.258,1.879c1.583-0.869,7.993-5.483,9.51-6.23c1.516-0.745,5.243-3.357,4.349-5.035
		c-0.895-1.678-3.61-1.194-4.756-5.145C126.689,119.456,120.926,121.028,120.926,121.028z"/>
	<path style="fill:#FFFFFF;" d="M58.632,102.313c-0.393,2.153-1.021,5.254-2.017,7.26c-7.885,15.878-7.436,27.031-7.223,28.182
		c0.213,1.152,0.426,2.303,1.812,0.809c1.385-1.494,11.899-12.92,13.797-14.32c1.898-1.401,6.771-3.423,8.936-5.992
		c2.166-2.57,3.85-5.123,1.402-8.537C72.894,106.3,59.102,99.751,58.632,102.313z"/>
	<path style="fill:#FFFFFF;" d="M225.95,57.233c2.725-3.667,4.385-7.461,5.326-11.738c0.941-4.277,5.342-37.198,14.18-43.914
		c2.584-1.964,3.559-2.368,3.379,0.353c-0.182,2.722-1.412,6.84-1.035,8.551c0.375,1.711,0.523,6.4,0.139,9.666
		c-0.387,3.267-0.16,6.963,1.062,8.67c1.225,1.707,2.953,5.572,3.521,7.106c0.566,1.534,1.049,2.364,0.383,3.407
		c-0.668,1.043-1.924,2.985-1.889,3.945c0.037,0.96-0.627,2.852-1.135,3.606c-0.51,0.755-0.932,3.061,0.572,3.231
		c1.506,0.169,1.203,0.378,1.096,1.259c-0.109,0.88-0.816,3.876,3.725,2.8s6.695,1.332,9.535,3.175
		c2.842,1.844,5.902,2.775,6.592,3.06c0.689,0.286,1.494,1.386,2.646,1.173c1.15-0.213,9.947,2.085,11.982,2.829
		c2.035,0.743,2.836,1.33,0.729,2.093c-13.502,4.893-28.885,4.143-33.922,4.758c-5.041,0.614-15.793,1.189-21.645,2.767
		C225.342,75.608,221.241,63.575,225.95,57.233z"/>
	<g>
		<path style="fill:#FFFFFF;" d="M83.18,75.939c-5.445,0-9.848,4.498-9.848,10.038s4.403,10.037,9.848,10.037
			c5.446,0,9.849-4.497,9.849-10.037S88.625,75.939,83.18,75.939z"/>
		<path style="fill:#FFFFFF;" d="M148.034,74.483c-6.261,0-11.315,5.174-11.315,11.494s5.055,11.494,11.315,11.494
			c6.264,0,11.329-5.174,11.329-11.494S154.308,74.483,148.034,74.483z"/>
		<path style="fill:#FFFFFF;" d="M230.542,49.227c-3.031,9.616-22.594,15.783-29.902,16.936c-7.309,1.153-34.812,2.954-42.034,1.896
			c-16.966-2.481-38.352-4.633-56.153-5.771c-17.801-1.139-26.041-0.687-37.158-3.038c-1.839-0.389-4.818-1.168-8.525-2.62
			c-3.56-1.393-6.43-2.5-8.722-3.291c-2.292-0.79-3.4-1.681-5.952-3.367c-2.552-1.685-7.569-3.503-8.067-3.965
			c-0.498-0.462-2.416-3.303-3.124-4.068c-0.707-0.765-1.714-0.472-2.4,0.091c0,0-2.931-0.483-5.248,0.311
			c-2.317,0.794-6.198,2.892-6.355,10.702c0,0-2.429,0.827-4.139,1.203c-1.989-1-7.031-1.234-8.533-0.555
			c-1.502,0.679-3.378,3.408-3.967,4.307c-0.588,0.898-0.072,1.841,0.412,2.67c0.484,0.83,2.975,3.14,4.852,4.172
			c1.434,5.771,4.204,13.217,5.693,13.755c0.419,0.605,1.777,3.608,2.881,3.651c0.227,0.783,0.802,4.014,1.315,4.107
			c0.512,0.094,0.476-0.867,1.533-0.566c1.058,0.299,3.172,0.898,5.881,5.207c6.135,9.766,18.528,9.906,22.253,8.945
			c1.01,0.555,4.667,2.284,11.063,4.672c6.396,2.389,10.778,1.602,15.607,4.445c21.922,12.907,51.288,17.012,74.182,15.216
			c14.558-1.143,28.397-5.823,36.086-8.177c7.688-2.354,10.575-4.527,18.532-14.725c0.545-0.699,1.152-1.413,1.805-2.137h-7.852
			V72.72h2.273v24.433h7.555c9.305-9.36,24.947-19.68,27.604-21.396c3.064-1.982,1.129-1.542,15.248-4.309
			C261.307,68.681,233.543,39.703,230.542,49.227z M58.796,99.614c-4.001,0-6.712-2.049-8.263-5.114l2.971-1.716
			c1.231,2.201,2.818,3.421,5.363,3.421c1.93,0,3.788-1.362,3.788-3.339c0-6.025-10.831-6.581-10.831-14.5
			c0-3.445,2.912-6.025,6.558-6.025c2.652,0,4.842,1.207,6.854,3.67l-2.557,2.059c-1.479-1.633-2.71-2.402-4.072-2.402
			c-1.598,0-3.078,0.876-3.078,2.853c0,4.972,10.914,6.286,10.914,13.897C66.443,96.619,63.531,99.614,58.796,99.614z M83.18,99.614
			c-7.528,0-13.636-6.107-13.636-13.637s6.108-13.637,13.636-13.637c7.529,0,13.637,6.107,13.637,13.637S90.708,99.614,83.18,99.614
			z M114.37,99.235h-12.121V72.72h3.788v23.106h8.333V99.235z M123.804,99.614c-3.752,0-6.286-1.812-7.742-4.581l1.847-1.054
			c1.325,2.26,3.089,3.516,5.955,3.516c2.45,0,4.688-1.74,4.688-4.297c0-6.889-11.424-7.422-11.424-15.281
			c0-3.161,2.628-5.576,5.872-5.576c2.439,0,4.428,1.041,6.263,3.195l-1.586,1.279c-1.515-1.621-2.876-2.451-4.416-2.451
			c-2,0-3.907,1.125-3.907,3.717c0,5.885,11.495,7.197,11.495,14.715C130.848,96.772,128.161,99.614,123.804,99.614z
			 M148.034,99.614c-7.503,0-13.612-6.107-13.612-13.637c0-7.518,6.109-13.637,13.612-13.637c7.519,0,13.614,6.119,13.614,13.637
			C161.648,93.507,155.552,99.614,148.034,99.614z M186.896,96.856c-2.462,1.68-5.646,2.758-8.701,2.758
			c-5.989,0-10.606-1.74-10.606-10.145V72.72h2.285v16.004c0,8.311,4.651,8.818,8.321,8.818c1.847,0,4.155-0.532,6.416-1.988V72.72
			h2.285V96.856z M205.354,75.54h-0.326v-2.599h-0.725v-0.294h1.771v0.294h-0.721V75.54z M208.909,75.54l-0.457-1.967l-0.807,2.05
			l-0.807-2.05l-0.457,1.967h-0.334l0.699-2.976l0.898,2.268l0.896-2.268l0.703,2.976H208.909z"/>
	</g>
	<path style="fill:#FFFFFF;" d="M232.125,78.491c-4.166,2.786-12.926,8.971-13.047,6.459c-0.057-1.152-9.168,5.098-19.014,12.202
		h5.307v2.083h-8.184c-10.738,7.811-21.397,15.879-21.397,15.879c2.148,0.713,15.609,4.762,17.215,5.799
		c1.94,1.256,11.013,5.729,14.427,5.395c1.887-0.185,3.422-0.751,1.541-2.631s-9.496-8.889-5.605-15.115
		c3.896-6.227,17.615-19.555,20.135-21.742s5.32-5.131,5.707-5.419C231.602,79.613,236.292,75.704,232.125,78.491z"/>
</g>
</svg>
